<svg id="an.svg" xmlns="http://www.w3.org/2000/svg" width="83.88" height="83.22"><defs><style>.cls-1{fill:#fff;fill-rule:evenodd}</style></defs><path id="シェイプ_3" data-name="シェイプ 3" class="cls-1" d="M1302.42 1061.19c.19-.45.37-.85.58-1.28a2.669 2.669 0 01.24-.32c.35-.05.68-.96 1.01-1.87.51-.88.6-1.16.37-1.36-.27.4-.54.8-.76 1.17-.28.38-.52.72-.79 1.1.48-.76.99-1.5 1.55-2.27.31-.5.32-.83.18-.89-.42.51-.85 1.08-1.23 1.62-.34.22-.29-.1-.36-.13a36.586 36.586 0 00-2.68 5.24c-.15.37-.28.75-.4 1.14.13.26.28.49.43.76.04-.09.05-.13.09-.22.18.19.33.33.48.48a32.361 32.361 0 011.29-3.17zm-.03-1.72c.2-.31.4-.63.6-.95-.29.5-.68 1.07-.94 1.64a2.593 2.593 0 01.34-.69zm-2.5 7.38a9.027 9.027 0 00.44-2.13 5.111 5.111 0 00-.84 2.64 1.3 1.3 0 00.4-.51zm48.73 51l.03-.06.12-.31c.49-.14.88-.28 1.31-.41a4.653 4.653 0 00-.5-.49c-.01-.04-.01-.07-.02-.11.58-.15 1.16-.36 2.41-.61a.212.212 0 00.03-.07l.12-.31c.49-.14.88-.27 1.31-.4a4.653 4.653 0 00-.5-.49 1.137 1.137 0 00-.11-.4c.04-.13.06-.17-.87-.08-.26-.05-.57-.09-.83-.16-.04-.12-.04-.27-.08-.39.24-.28.48-.58.76-.88.36-.14.44-.24.74-.36.04-.14.09-.3.13-.44a1.51 1.51 0 00-.08-.51c-.02-.09.27-.33-.14-.26-.24-.09-.46-.2-.74-.28a.516.516 0 00.31-.35c-.36.09-.73.18-1.09.25-.96.05-.4-.34-1.83-.06-.11.22-1.29.32-1.27.58-1.64.2-2.89.06-4.23.19-1.04-.06-1.53.09-2.32.02-.32.12-1.36-.25-1.21.02a24.3 24.3 0 01-5.54-.82c-.14.68-2.01-.61-2.88-.54-.52-.58-2.14-.64-2.98-1.38a28.649 28.649 0 01-6.11-3.39 27.507 27.507 0 01-6.03-5.36c-.17.03-.45-.39-.67-.42-.73-.85-1.46-1.76-2.14-2.7a32.02 32.02 0 01-3.21-5.44c-.2-.13-.33-.83-.69-.77a3.757 3.757 0 00-.78-1.93c-.04-.43-.52-1.35-.27-1.36a2.294 2.294 0 00-.32-.79 4.741 4.741 0 01-.42-1.21c-.16-.34-.28-.65-.45-1.04.32.19 0-.91-.1-.97a5.99 5.99 0 00-.58-1.48c-.01-.08-.02-.12-.03-.21a1.666 1.666 0 00-.15-1.43 2.718 2.718 0 00-.35-1.68c-.04-.22-.07-.45-.11-.63.23.3.13-.37.3-.3-.36-1.39 0-3.81-.12-5.21.06-.55.12-1.06.2-1.61a13.716 13.716 0 00.28-2.54l.1-.41c.29-1.16.85-2.66 1.2-4.39.48-1.18 1.1-2.31 1.56-3.35a9.351 9.351 0 011.13-1.32 16.757 16.757 0 012.79-4.34c.18-.26.44-.52.45-.35.27-.33.52-.62.8-.94a1.586 1.586 0 00.68-1.26l-.59.18c.06-.25.1-.46.14-.67.15-.26.33-.57.49-.83.1-.09.2-.19.32-.31a39.544 39.544 0 014.88-3.8l.18.36c.34-.12.69-.23 1.02-.34a2.571 2.571 0 00.7-.53c1.82-.65 4.64-1.66 5.88-2.26.48-.17 1-.34 1.49-.47.59-.12 1.13-.22 1.72-.32-.28.55 1.31-.23 1.96-.02.91-.11.72.2 1.76.04a6.715 6.715 0 01.65-.27 4.259 4.259 0 001.35-.18h.41a34.52 34.52 0 016.51.83c.58.13 1.15.28 1.72.43.4.1.84.19 1.29.31 1.29.42 1.89.69 3.11 1l.38.15c1.43.66 2.34 1.35 4.16 2.24a3.532 3.532 0 011.15.6 37.124 37.124 0 014.07 3c1.01 1.16 1.9 1.25 2.8 2.5a34.351 34.351 0 017.73 11.9c.2.29.38.59.57.88.3.92.57 1.79.79 2.68-.2.4.52 1.96.31 2.36.17.52.21 1.46.46 1.52.38.35.1 1.03.26 1.59.03 1.02.11 1.84.08 2.94a5.92 5.92 0 00.11 1.76c-.25.3-.01 1.85-.31 2.13-.04.86-.1 1.71-.19 2.52a6.576 6.576 0 00-.28.93c.41 2.05-.89 1.01-.89 3.41a8.115 8.115 0 01-1.23 3.03c-.71 1-.33 1.45-.73 2.25a2.045 2.045 0 01-.47.4 1.676 1.676 0 00-.3.71 5.378 5.378 0 01-.95 1.52c-.21.49-.45.48-.5.35-.23.37-.51.77-.76 1.14-.32.41-.62.79-.96 1.19-.35.29-.81 1.07-1 .95-.21.25-.4.46-.64.74l-.52.55c-.47.45-.94.89-1.43 1.32-.24.17-.45.33-.64.48a.737.737 0 00-.14.04l-.16-.25c-.85.2-1.55 1.1-2.49 1.36-.35.36-1.52.71-1.61.98a6.767 6.767 0 01-1.75 1.01c-.37.4-1.76.79-1.59 1.07a2.717 2.717 0 001.08-.41c.44-.1.9-.25 1.34-.38.05.11.11.2.16.31-.02.02-.03.04-.05.06-.45.16-.91.32-1.35.46-.55.21-1.14.42-1.7.6a6.527 6.527 0 00-1.75.5c.59-.09 1.17-.2 1.79-.34.73-.19 1.42-.39 2.13-.62.13-.05.28-.11.44-.17-.26.18-.52.34-.8.52a3.4 3.4 0 00-1.04.61c-.23.11-.46.21-.73.32-.55.2-1.14.4-1.69.58-.55.2-1.15.41-1.7.6a6.8 6.8 0 00-1.75.49c.59-.08 1.17-.19 1.79-.33.73-.2 1.42-.4 2.13-.63.16-.05.36-.13.56-.21a12.78 12.78 0 003.02-1.15c.45-.14.89-.29 1.34-.45.06.12.09.19.13.26.88-.44 1.7-.91 2.53-1.43.3-.22.6-.41.88-.6.85-.43 1.66-.89 2.47-1.4 1.29-.9 2.31-1.46 3.4-2.3 1.3-1.29 2.82-2.26 3.92-3.59.22-.26.46-.51.67-.77.33-.35.66-.74.96-1.11.24-.35.46-.67.69-1.03.02.27.07.57.09.85.14.26.53.11.79.01.28-.39.55-.8.84-1.24.21-.28.4-.53.63-.86.35-.67.68-1.39.99-2.07a31.834 31.834 0 002.79-7.06c.28-.56.44-2.2.63-2.69.06-.49.13-.97.17-1.45.03-.26.06-.57.08-.83.34.01.34-1.11.22-1.48a37.509 37.509 0 00-.09-4.24c-.01-.35-.02-.71-.05-1.06.27-.17.04-1.42-.18-1.89l-.12-.66a16.385 16.385 0 00-.08-1.68c.27.25.13-.46.32-.25a5.761 5.761 0 00.48.42c.19.61.4 1.28.83 2.54.11 1.04.18 2.04.2 3.09-.26.17-.22 1.24.07 2.59.09-.49.16-.98.22-1.48.09.01.17.01.26.02.01 0 .04.01.05.01a5.322 5.322 0 00.04-.69c-.02-.37-.04-.74-.07-1.11a1.375 1.375 0 00-.43-.65 3.2 3.2 0 00.19-1.56c-.07-.41-.16-.87-.27-1.32-.08-.41-.19-.86-.29-1.27h-.07c-.14-.31-.29-.57-.44-.88-.27-1.21-.71-2.53-.96-3.6a38.364 38.364 0 00-2.47-5.96 3.237 3.237 0 00-.94-1.83 40.633 40.633 0 00-4.95-6.79 1.862 1.862 0 00-.59-.98 3.993 3.993 0 00-1.02-.69c-.47-.55-.93-1.04-1.39-1.53-.73-.72-1.5-1.4-2.29-2.05-.33-.3-.7-.62-1.08-.93-.35-.21-.67-.38-1.06-.6-.59-.39-1.18-.77-1.82-1.15a5.224 5.224 0 00-1.44-.83c-.42-.26-.83-.53-1.22-.76.52.14.15-.28.71-.17a7.119 7.119 0 00-1.26-.69c-.37-.08-.69-.15-1.07-.23l-.19-.08c.24-.08-.1-.3-.31-.45a8.2 8.2 0 00-1.92-.59c-.45-.22-.66-.37-.88-.49a5.831 5.831 0 00-1.94-.51c-.51-.13-.97-.24-1.49-.35-.55-.16-1.1-.31-1.66-.45a9.5 9.5 0 00-1.73-.39c-.45.02-.9.05-1.34.08-1.1-.12-2.2-.21-3.25-.25-.37-.02-.68-.03-1.05-.05a6.412 6.412 0 00-1.42-.4 9.094 9.094 0 00-1.82.15c-.16.01-.31.02-.53.03a5.117 5.117 0 00-2.27.14c-.26.12-.47.25-.73.38a4.6 4.6 0 00-1.51.13c-1.34-.24-3.69.41-5.7 1.06-.33.21-.6.4-.92.62-.95.31-1.88.67-2.8 1.05a1.65 1.65 0 00-1.23.32c-.28.38-1.83.93-2.48 1.65a3.23 3.23 0 00-.87.34c-.32.44-2.28 1.09-2.69 1.97-.18.11-.4.24-.62.37-.27.16-.57.36-.82.53-.33.26.68-.27.34-.02-.48.43-1.44 1.13-1.39 1.39.66-.19.66-.42 2.1-1.48a4.043 4.043 0 001.25-.54v.02a2.091 2.091 0 00.91-.53 8.114 8.114 0 011.36-.64c.39-.26.82-.56 1.27-.83.61-.27.95-.4 1.33-.56.55-.3 1.06-.57 1.58-.82-.15.23.95-.06 1.03.07a39.5 39.5 0 013.84-1c.18-.03.39-.06.59-.08a1.487 1.487 0 00-.31.17 1.046 1.046 0 00.04.17 7.407 7.407 0 01-.34.7c-.18.1-.36.21-.55.33a7.069 7.069 0 00-2.5.8c.01.06.02.1.03.16-.08.19-.16.39-.26.59a3.481 3.481 0 00-.96.57c-.39.19-.77.38-1.16.59-.08.03-.17.06-.26.1a.037.037 0 01.01.03c-.45.24-.89.5-1.35.77-.59.34-1.18.71-1.75 1.09-.53.28-1.06.58-1.6.9-1.09.63-2.14 1.35-3.15 2.06-.91.61-1.78 1.28-2.63 1.98-.73.61-1.44 1.25-2.13 1.91a6.073 6.073 0 00-1.99 1.92c-.04.2-.08.41-.14.64-.12.15-.26.32-.4.5.05-.43-.38.11-.55.22-.26.39-.5.79-.71 1.17.15-.33.3-.74.46-1.15.5-.89.59-1.16.36-1.37-.27.41-.53.81-.76 1.18-.28.37-.52.71-.79 1.09.48-.76.99-1.5 1.55-2.27.31-.5.32-.83.18-.89-.42.51-.85 1.09-1.23 1.63-.33.22-.28-.11-.36-.14a36.723 36.723 0 00-2.68 5.25c-.15.37-.28.75-.4 1.13.13.26.29.49.43.76.04-.09.05-.13.09-.22.03.03.06.07.09.1a5.352 5.352 0 01-.42.76 1.2 1.2 0 00-.23.32 7.273 7.273 0 00-.44.6 5 5 0 01-.1-.72l-.14-.14c-.12.3-.23.55-.34.81-.46 1.28.14.91-.07 1.92-.14.44-.25.84-.38 1.29a8.677 8.677 0 01-.36 1.47c.28.8-.4 1.17-.54 2.33-.11-.07-.22-.15-.34-.23.14-.73.28-1.45.46-2.17a.106.106 0 00-.06-.04c-.16.13-.32.27-.49.4-.14.59-.24 1.15-.33 1.76-.13.62-.25 1.3-.35 1.94-.06.51-.11 1.07-.13 1.59-.08.64-.1 1.1-.14 1.51-.08.43-.18.85-.25 1.23.24 1.21.2 2.67.52 4.83.01.49.06 1.04.1 1.53l-.73-.26c-.06-.47-.1-.94-.14-1.35-.05-.83-.07-1.61-.07-2.44-.08-.04-.18-.08-.25-.12-.03-.25-.06-.49-.08-.69.13-.54.25-1.09.4-1.63-.06-.17-.11-.34-.16-.51-.04-1.22-.07-1.65-.39-1.64 0-.4 0-.79.01-1.19a20.209 20.209 0 00.39-3.49 7.29 7.29 0 00-.57 3.37c-.15 1.12-.27 2.24-.34 3.37.02.15.04.31.05.46.08.04.17.09.24.13-.01.33 0 .62-.01.94-.33.79-.03 2.15.15 3.41.07.8.16 1.65.29 2.44.09.48.2.96.29 1.39.14.61.28 1.22.45 1.83.03.27.1.59.14.86.06.23.1.41.17.65l.06.65c-.1-.02-.18-.04-.29-.06a.048.048 0 00-.05-.01 1.773 1.773 0 00.39 1.5c.15.46.28.88.45 1.33.17.25.36.49.52.69.04.17.08.31.1.44 0 .34-.12.32-.1.58.33.73.68 1.49 1.03 2.16.28.58.62 1.23.43 1.27a11.9 11.9 0 001.42 2.3c.29.34.61.68.91 1.02a2.251 2.251 0 00.95 1.19 1.65 1.65 0 00.08-.42c.23.2.48.39.71.59.45.64.93 1.27 1.43 1.9a1.335 1.335 0 00.16.57c.62.69 1.27 1.71 2.03 1.96a11.711 11.711 0 001.98 1.65c.18.18.33.31.51.48a3.691 3.691 0 001.02 1.22 2.679 2.679 0 001.22.7c.3.13.54.23.84.35a38.56 38.56 0 003.42 2.17c.1.1.22.18.37.31a3.837 3.837 0 001.28.95c.51.13 1.45.87 2.16.76.38.18.79.34 1.18.51.65.31 1.29.62 2.01.93a15.609 15.609 0 005.08 1.39 1.936 1.936 0 001.12.11 8.751 8.751 0 002.98.32c.47.08.99.15 1.52.22.6.33.04.44.48.76.63.02 1.27.01 1.91 0 .9 0 1.44-.06 2.17-.01.37-.05.78-.11 1.14-.17a11.746 11.746 0 002.35-.15c1.43-.08 1.66-.39 3.75-.81zm27.99-41.52c-.01-.35-.02-.7-.05-1.05.27-.18.04-1.42-.19-1.9-.03-.22-.07-.43-.11-.66 0-.53-.04-1.1-.08-1.68.15.14.17-.01.2-.15 0 .01 0 .01.01.01.38.35.1 1.02.26 1.59.03 1.02.11 1.83.08 2.93a6.006 6.006 0 00.11 1.77 2.273 2.273 0 00-.13 1.01c-.02-.63-.05-1.25-.1-1.87zm-.42 4.05a2.8 2.8 0 01-.04-1.15.289.289 0 00.06-.1c-.02.4-.04.8-.02 1.25zm3.37-3.24c-.02.4-.04.79-.02 1.24a2.754 2.754 0 01-.04-1.14.437.437 0 00.06-.1zm-67.4-24.14c-.09.11-.21.25-.32.4.12-.2.25-.43.38-.64-.02.08-.04.15-.06.24zm-6.56 10.84c-.09.33-.18.64-.27.98a9.153 9.153 0 01-.37 1.48c.28.79-.39 1.16-.54 2.33-.1-.07-.22-.15-.33-.24.26-.87.56-1.85.78-2.92.22-.55.48-1.1.73-1.63zm2.38 29.97l-.01-.01a.02.02 0 01.01.02v-.01zm-4.8-12.92c-.05-.1-.1-.21-.16-.34-.04-.22-.07-.44-.11-.62.23.3.12-.37.3-.3a9.487 9.487 0 01-.15-2.52c.05.68.12 1.45.25 2.33.01.5.07 1.04.1 1.53-.08-.03-.16-.05-.23-.08zm1.45 14.93a.02.02 0 00-.01-.02c.01 0 .01.01.01.02zm24.86 20.18c-.07 0-.18-.02-.3-.03-.3-.1-.66-.19-.98-.28.44.1.85.21 1.28.31zm1.29.52a1.416 1.416 0 01-.22-.07c-.03-.01-.05-.02-.08-.03.1.04.2.07.3.1zm27.42-11.69l-.07-.09c.09-.05.17-.09.25-.13.44-.11.9-.25 1.34-.38l.03.06c-.16.11-.34.22-.53.34a1.842 1.842 0 00-1.02.2zm-4.21-66.19a2.018 2.018 0 01-.76-.29 6.7 6.7 0 01.76.29zm-26.29-.12c-.15.24.95-.06 1.03.08a39.579 39.579 0 013.84-1.01l.96-.13c.81-.14 1.63-.23 2.45-.31a1.15 1.15 0 01.26.08c-.16.07-.31.15-.51.24 1.07.04.2.26-.24.45a.17.17 0 01-.07.01c-.16.01-.31.02-.53.04a4.825 4.825 0 00-2.27.14c-.27.12-.47.25-.73.38a4.549 4.549 0 00-1.51.12 10.037 10.037 0 00-3.84.51c.4-.21.78-.41 1.16-.6zm-21.96 18.96l.6-.96c-.29.5-.68 1.07-.94 1.64a2.543 2.543 0 01.34-.68zm18.97 56.9c.47.16.88.27 1.52.47a11.778 11.778 0 01-1.52-.47zm55.39-28.58c.33-.27.52-.94.54-2.29a5.727 5.727 0 00-.54 2.29zm-65.23-31.63c-.29.29-.58.58-.83.84-.11.14-.18.24-.26.34-.23.29-.48.64-.72.98-.5 1.69 1.07-1.2 1.71-1.56-.11-.1.31-.62.1-.6zm66.21 27.21a4.618 4.618 0 00.26-2.85c-.27.24-.29 1.27-.26 2.85z" transform="translate(-1298.12 -1035.78)"/><path id="安" class="cls-1" d="M1327.02 1074.47a7.564 7.564 0 012.93-6.2 20.176 20.176 0 017.29-3.79 1.6 1.6 0 01.48-.05c-.04.1-.09.24-.14.34-.48 1.01-.96 2.01-1.39 3.02a301.1 301.1 0 00-3.36 8.07 1.741 1.741 0 01-1.15 1.15q-5.775 2.085-11.38 4.32c-.48.19-.53.48-.19.86a2.04 2.04 0 001.15.39 9.114 9.114 0 003.21-.29 17.454 17.454 0 002.98-1.15c1.25-.58 2.5-1.2 3.75-1.83a.972.972 0 01.28-.04.205.205 0 010 .24c-.38 1.53-.81 3.02-1.2 4.56a1.385 1.385 0 00.53 1.58 2.071 2.071 0 001.3.38.794.794 0 00.86-.72 4.779 4.779 0 01.43-1.39 1.047 1.047 0 011.64-.67c.38.14.76.34 1.24.48 1.06.38 2.12.77 3.12 1.2.34.14.34.34.1.58-.58.72-1.15 1.39-1.78 2.06a16.172 16.172 0 01-5.47 3.07 24.234 24.234 0 01-6.19 1.2c-.72.05-1.39.15-2.02.24a1.565 1.565 0 00-.67.1 1.6 1.6 0 01.67.14 1.238 1.238 0 00.19.05 18.447 18.447 0 013.22.29 12.138 12.138 0 004.95 0 27.223 27.223 0 004.8-1.3 8.746 8.746 0 002.88-1.68 22.658 22.658 0 002.4-2.4c.33-.53.67-.57 1.1-.14 1.2 1.15 2.3 2.35 3.41 3.6 1.82 2.35 3.6 4.66 5.42 7.01a.545.545 0 010 .81l-.48.39a.586.586 0 01-.14.19.137.137 0 00.19 0 1.9 1.9 0 011.83.1.74.74 0 00.76 0 1.064 1.064 0 00.15-.92 24.055 24.055 0 00-1.78-2.97c-1.34-1.73-2.69-3.46-4.08-5.14a30.581 30.581 0 00-4.7-4.61.25.25 0 01-.1-.38 21.559 21.559 0 002.4-4.95 1.228 1.228 0 00-.24-1.53 4.1 4.1 0 00-3.07-1.54 10.521 10.521 0 01-1.11-.14 6.952 6.952 0 01.68.91.8.8 0 01.33 1.1l-1.87 4.32c-.1.34-.34.44-.72.2-1.87-.82-3.79-1.64-5.76-2.5a.44.44 0 01-.14-.48 23.106 23.106 0 011-2.59 1.252 1.252 0 01.72-.53 24.218 24.218 0 016.05-1.25c.87-.09 1.83-.14 2.74-.24a40.909 40.909 0 016.91-.14 15.07 15.07 0 016.58 1.97 1.227 1.227 0 001.44-.1 1.771 1.771 0 00.05-1.3 4.007 4.007 0 00-3.22-2.4 47.95 47.95 0 00-5.18-.48 54.044 54.044 0 00-14.41 1.64 2.073 2.073 0 01-.52.04c.04-.14.09-.33.14-.52a44.378 44.378 0 015.71-11.62 1.1 1.1 0 01.58-.29c1.53-.19 3.07-.38 4.61-.62a4.228 4.228 0 013.74.96c.48.33.53.67.1 1a54.462 54.462 0 01-5 4.33 26.709 26.709 0 01-5.76 3.36 1.651 1.651 0 00-.76.52 6.751 6.751 0 00.96-.19c2.73-1.05 5.52-2.11 8.25-3.17l3.03-1.44c.53-.33 1.01-.67 1.53-1.05a4.784 4.784 0 011.68-.77.682.682 0 00.24-.53 2.285 2.285 0 00-1.15-2.16 14.352 14.352 0 00-2.3-1.49 6.569 6.569 0 00-2.45-.91 16.078 16.078 0 00-2.59-.1l-2.84.39h-.72a3.4 3.4 0 00.48-.43.66.66 0 00.2-.29 13.391 13.391 0 011.2-1.83 5.045 5.045 0 011.72-1.44 1.083 1.083 0 00.29-1.53 1.814 1.814 0 00-2.11-.63 7.311 7.311 0 00-1.68 1.2 35.317 35.317 0 00-4.7 6 .951.951 0 01-.58.48 41.325 41.325 0 00-10.85 5.72.214.214 0 11-.38-.19c.14-1.25.24-2.45.33-3.7a5.652 5.652 0 00-.29-1.25c-.28.34-.57.67-.86 1.06-.77 2.49-1.63 4.99-2.45 7.53a1.834 1.834 0 00.19 1.78 9.835 9.835 0 001.35 1.68 7.3 7.3 0 001.1.48 2.808 2.808 0 00.34-1.06c.05 0 .05 0 0-.04z" transform="translate(-1298.12 -1035.78)"/></svg>