<svg id="bi.svg" xmlns="http://www.w3.org/2000/svg" width="83.875" height="83.22"><defs><style>.cls-1{fill:#fff;fill-rule:evenodd}</style></defs><path id="シェイプ_3" data-name="シェイプ 3" class="cls-1" d="M851.421 1061.19c.185-.45.367-.85.575-1.28a2.824 2.824 0 01.248-.32c.346-.05.678-.96 1.01-1.87.51-.88.6-1.16.363-1.36-.263.4-.532.8-.756 1.17-.278.38-.522.72-.787 1.1.477-.76.989-1.5 1.543-2.27.313-.5.323-.83.183-.89-.42.51-.849 1.08-1.235 1.62-.33.22-.281-.1-.354-.13a36.284 36.284 0 00-2.684 5.24c-.144.37-.279.75-.4 1.14.132.26.287.49.436.76.033-.09.048-.13.085-.22.185.19.329.33.479.48a32.638 32.638 0 011.294-3.17zm-.035-1.72c.206-.31.4-.63.606-.95a17.355 17.355 0 00-.939 1.64 2.652 2.652 0 01.333-.69zm-2.494 7.38a9.568 9.568 0 00.44-2.13 5.029 5.029 0 00-.842 2.64 1.332 1.332 0 00.402-.51zm48.732 51c.01-.02.015-.04.025-.06l.122-.31c.492-.14.878-.28 1.307-.41a4.118 4.118 0 00-.5-.49.59.59 0 00-.013-.11c.574-.15 1.159-.36 2.413-.61l.025-.07.122-.31c.492-.14.878-.27 1.307-.4a4.047 4.047 0 00-.5-.49 1.107 1.107 0 00-.1-.4c.042-.13.06-.17-.868-.08-.261-.05-.572-.09-.831-.16-.047-.12-.04-.27-.084-.39.242-.28.482-.58.763-.88.361-.14.435-.24.741-.36l.127-.44a1.8 1.8 0 00-.078-.51c-.018-.09.263-.33-.143-.26-.236-.09-.464-.2-.74-.28a.5.5 0 00.31-.35c-.363.09-.728.18-1.09.25-.96.05-.4-.34-1.825-.06-.115.22-1.291.32-1.272.58-1.644.2-2.894.06-4.227.19-1.049-.06-1.534.09-2.322.02-.325.12-1.362-.25-1.21.02a24.363 24.363 0 01-5.544-.82c-.142.68-2.013-.61-2.883-.54-.52-.58-2.137-.64-2.979-1.38a28.681 28.681 0 01-6.111-3.39 27.586 27.586 0 01-6.027-5.36c-.171.03-.445-.39-.673-.42a43.389 43.389 0 01-2.138-2.7 32.138 32.138 0 01-3.207-5.44c-.206-.13-.332-.83-.688-.77a3.822 3.822 0 00-.784-1.93c-.037-.43-.519-1.35-.269-1.36a2.319 2.319 0 00-.319-.79 4.784 4.784 0 01-.416-1.21c-.166-.34-.286-.65-.453-1.04.32.19-.007-.91-.1-.97a6.2 6.2 0 00-.581-1.48c-.014-.08-.022-.12-.036-.21a1.623 1.623 0 00-.148-1.43 2.772 2.772 0 00-.348-1.68c-.041-.22-.069-.45-.108-.63.226.3.123-.37.3-.3-.362-1.39 0-3.81-.117-5.21.055-.55.118-1.06.2-1.61a14.162 14.162 0 00.283-2.54c.025-.12.058-.25.1-.41.286-1.16.848-2.66 1.2-4.39.475-1.18 1.093-2.31 1.554-3.35a9.834 9.834 0 011.129-1.32 16.88 16.88 0 012.8-4.34c.174-.26.436-.52.443-.35.275-.33.52-.62.808-.94a1.589 1.589 0 00.674-1.26l-.585.18c.061-.25.1-.46.136-.67.154-.26.33-.57.5-.83.1-.09.193-.19.319-.31a39.823 39.823 0 014.878-3.8c.057.12.12.24.177.36.341-.12.687-.23 1.025-.34a2.661 2.661 0 00.7-.53c1.813-.65 4.633-1.66 5.874-2.26.478-.17 1.006-.34 1.5-.47.583-.12 1.124-.22 1.715-.32-.282.55 1.31-.23 1.956-.02.912-.11.722.2 1.766.04a6.138 6.138 0 01.65-.27 4.211 4.211 0 001.345-.18h.413a34.656 34.656 0 016.515.83c.577.13 1.144.28 1.713.43.4.1.848.19 1.289.31 1.29.42 1.895.69 3.118 1l.38.15c1.425.66 2.337 1.35 4.152 2.24a3.576 3.576 0 011.158.6 37.591 37.591 0 014.068 3c1.013 1.16 1.9 1.25 2.8 2.5a34.353 34.353 0 017.726 11.9c.2.29.383.59.569.88.3.92.567 1.79.791 2.68-.2.4.517 1.96.314 2.36.168.52.207 1.46.453 1.52.38.35.1 1.03.26 1.59.033 1.02.114 1.84.085 2.94a5.7 5.7 0 00.112 1.76c-.252.3-.017 1.85-.31 2.13-.043.86-.107 1.71-.192 2.52a5.857 5.857 0 00-.277.93c.41 2.05-.9 1.01-.892 3.41a8.131 8.131 0 01-1.233 3.03c-.712 1-.329 1.45-.733 2.25a2.049 2.049 0 01-.464.4 1.7 1.7 0 00-.3.71 5.531 5.531 0 01-.946 1.52c-.209.49-.455.48-.5.35-.236.37-.51.77-.762 1.14-.323.41-.623.79-.963 1.19-.348.29-.811 1.07-1 .95-.207.25-.4.46-.64.74-.162.17-.327.35-.519.55-.47.45-.939.89-1.426 1.32-.239.17-.449.33-.641.48a.854.854 0 00-.145.04l-.159-.25c-.844.2-1.55 1.1-2.492 1.36-.341.36-1.513.71-1.607.98a6.867 6.867 0 01-1.744 1.01c-.377.4-1.766.79-1.6 1.07a2.719 2.719 0 001.085-.41c.437-.1.9-.25 1.337-.38.056.11.108.2.162.31l-.049.06c-.447.16-.911.32-1.353.46-.548.21-1.142.42-1.7.6a6.507 6.507 0 00-1.745.5c.584-.09 1.165-.2 1.781-.34.732-.19 1.422-.39 2.139-.62.129-.05.28-.11.437-.17-.264.18-.522.34-.8.52a3.478 3.478 0 00-1.043.61c-.23.11-.457.21-.728.32-.547.2-1.138.4-1.693.58-.548.2-1.143.41-1.7.6a6.775 6.775 0 00-1.745.49c.584-.08 1.165-.19 1.781-.33.732-.2 1.422-.4 2.139-.63.16-.05.355-.13.554-.21a12.8 12.8 0 003.023-1.15q.672-.21 1.334-.45c.061.12.1.19.136.26.878-.44 1.7-.91 2.524-1.43.309-.22.6-.41.883-.6.857-.43 1.66-.89 2.469-1.4 1.294-.9 2.313-1.46 3.407-2.3 1.3-1.29 2.82-2.26 3.914-3.59.223-.26.459-.51.673-.77.328-.35.657-.74.956-1.11.243-.35.458-.67.688-1.03.029.27.071.57.092.85.143.26.536.11.788.01.289-.39.553-.8.848-1.24.206-.28.4-.53.622-.86.356-.67.689-1.39 1-2.07a31.918 31.918 0 002.786-7.06c.283-.56.441-2.2.628-2.69.067-.49.132-.97.178-1.45.025-.26.059-.57.076-.83.342.01.336-1.11.217-1.48a37.045 37.045 0 00-.088-4.24c-.011-.35-.024-.71-.047-1.06.264-.17.037-1.42-.187-1.89-.031-.22-.071-.44-.112-.66 0-.53-.038-1.1-.085-1.68.269.25.132-.46.325-.25.17.17.32.29.475.42.19.61.405 1.28.835 2.54.109 1.04.175 2.04.192 3.09-.253.17-.213 1.24.071 2.59.1-.49.166-.98.226-1.48.09.01.168.01.259.02.013 0 .039.01.052.01.022-.23.035-.46.036-.69q-.026-.555-.072-1.11a1.323 1.323 0 00-.433-.65 3.057 3.057 0 00.2-1.56 23.95 23.95 0 00-.271-1.32c-.085-.41-.192-.86-.294-1.27h-.065c-.14-.31-.291-.57-.443-.88-.265-1.21-.709-2.53-.959-3.6a38.637 38.637 0 00-2.465-5.96 3.247 3.247 0 00-.945-1.83 40.422 40.422 0 00-4.952-6.79 1.885 1.885 0 00-.586-.98 4.073 4.073 0 00-1.022-.69c-.469-.55-.925-1.04-1.389-1.53-.728-.72-1.5-1.4-2.295-2.05-.325-.3-.7-.62-1.072-.93-.354-.21-.669-.38-1.067-.6-.581-.39-1.172-.77-1.816-1.15a5.378 5.378 0 00-1.438-.83c-.422-.26-.837-.53-1.227-.76.522.14.153-.28.71-.17a7 7 0 00-1.251-.69l-1.078-.23-.188-.08c.241-.08-.1-.3-.3-.45a8.244 8.244 0 00-1.92-.59c-.452-.22-.664-.37-.886-.49a5.824 5.824 0 00-1.941-.51c-.51-.13-.966-.24-1.487-.35q-.823-.24-1.659-.45a9.526 9.526 0 00-1.734-.39c-.448.02-.893.05-1.338.08-1.1-.12-2.2-.21-3.251-.25-.367-.02-.683-.03-1.051-.05a6.231 6.231 0 00-1.418-.4 9.091 9.091 0 00-1.818.15c-.158.01-.315.02-.528.03a5.114 5.114 0 00-2.272.14c-.265.12-.471.25-.729.38a4.618 4.618 0 00-1.514.13c-1.339-.24-3.685.41-5.693 1.06-.331.21-.605.4-.927.62-.946.31-1.878.67-2.8 1.05a1.637 1.637 0 00-1.227.32c-.288.38-1.835.93-2.486 1.65a3.168 3.168 0 00-.865.34c-.327.44-2.283 1.09-2.7 1.97-.176.11-.4.24-.616.37-.267.16-.566.36-.825.53-.321.26.683-.27.34-.02a5.164 5.164 0 00-1.39 1.39c.662-.19.666-.42 2.1-1.48a3.959 3.959 0 001.248-.54v.02a2.1 2.1 0 00.912-.53 7.946 7.946 0 011.367-.64c.388-.26.816-.56 1.264-.83.61-.27.949-.4 1.329-.56.55-.3 1.065-.57 1.585-.82-.152.23.947-.06 1.028.07a39.479 39.479 0 013.835-1c.187-.03.393-.06.6-.08a1.578 1.578 0 00-.311.17l.036.17a7.024 7.024 0 01-.332.7c-.18.1-.367.21-.558.33a7.086 7.086 0 00-2.5.8c.013.06.024.1.035.16-.082.19-.162.39-.267.59a3.539 3.539 0 00-.955.57c-.389.19-.775.38-1.159.59a2.773 2.773 0 00-.26.1c0 .01 0 .02.009.03-.449.24-.9.5-1.348.77-.6.34-1.18.71-1.751 1.09-.533.28-1.064.58-1.6.9-1.093.63-2.139 1.35-3.154 2.06a32.649 32.649 0 00-2.624 1.98 37.65 37.65 0 00-2.133 1.91 6.093 6.093 0 00-2 1.92c-.039.2-.079.41-.138.64-.114.15-.257.32-.4.5.048-.43-.375.11-.552.22-.258.39-.5.79-.706 1.17.152-.33.3-.74.453-1.15.51-.89.6-1.16.363-1.37-.263.41-.532.81-.756 1.18-.278.37-.522.71-.787 1.09.477-.76.989-1.5 1.543-2.27.314-.5.323-.83.183-.89-.42.51-.849 1.09-1.235 1.63-.33.22-.281-.11-.353-.14a36.318 36.318 0 00-2.685 5.25c-.144.37-.279.75-.4 1.13.131.26.286.49.436.76.032-.09.047-.13.084-.22.032.03.063.07.093.1a5.733 5.733 0 01-.424.76 1.242 1.242 0 00-.226.32c-.14.18-.281.35-.445.6a6.964 6.964 0 01-.1-.72l-.135-.14c-.126.3-.238.55-.343.81-.456 1.28.136.91-.072 1.92-.139.44-.252.84-.373 1.29a8.66 8.66 0 01-.362 1.47c.275.8-.4 1.17-.546 2.33l-.334-.23c.133-.73.278-1.45.456-2.17a.145.145 0 00-.055-.04c-.169.13-.326.27-.494.4-.136.59-.239 1.15-.334 1.76-.129.62-.248 1.3-.344 1.94-.06.51-.113 1.07-.137 1.59-.073.64-.1 1.1-.133 1.51-.087.43-.183.85-.255 1.23.24 1.21.208 2.67.519 4.83.016.49.069 1.04.1 1.53-.246-.09-.479-.17-.726-.26-.061-.47-.1-.94-.144-1.35-.046-.83-.066-1.61-.074-2.44-.078-.04-.17-.08-.249-.12-.031-.25-.052-.49-.077-.69.13-.54.253-1.09.4-1.63a5 5 0 01-.161-.51c-.04-1.22-.073-1.65-.395-1.64 0-.4 0-.79.011-1.19a20.476 20.476 0 00.392-3.49 7.282 7.282 0 00-.573 3.37c-.152 1.12-.27 2.24-.341 3.37.021.15.043.31.052.46l.244.13c-.014.33-.008.62-.012.94-.327.79-.031 2.15.148 3.41.073.8.164 1.65.288 2.44.093.48.207.96.294 1.39.142.61.278 1.22.448 1.83.032.27.1.59.142.86.061.23.1.41.168.65l.063.65c-.1-.02-.187-.04-.288-.06a.061.061 0 00-.057-.01 1.779 1.779 0 00.389 1.5c.154.46.288.88.457 1.33.172.25.355.49.516.69.04.17.078.31.1.44 0 .34-.124.32-.1.58.329.73.676 1.49 1.028 2.16.285.58.618 1.23.429 1.27a12.458 12.458 0 001.418 2.3c.293.34.609.68.915 1.02a2.25 2.25 0 00.948 1.19 1.9 1.9 0 00.08-.42c.225.2.476.39.705.59.458.64.939 1.27 1.432 1.9a1.481 1.481 0 00.161.57c.624.69 1.275 1.71 2.034 1.96a11.823 11.823 0 001.975 1.65c.182.18.333.31.518.48a3.634 3.634 0 001.017 1.22 2.666 2.666 0 001.216.7c.3.13.54.23.841.35a39.727 39.727 0 003.418 2.17c.1.1.22.18.368.31a3.988 3.988 0 001.285.95c.512.13 1.448.87 2.16.76.384.18.788.34 1.175.51.653.31 1.295.62 2.017.93a15.667 15.667 0 005.074 1.39 1.948 1.948 0 001.122.11 8.77 8.77 0 002.985.32c.466.08.99.15 1.516.22.6.33.038.44.479.76.635.02 1.272.01 1.908 0 .9 0 1.448-.06 2.178-.01.363-.05.78-.11 1.136-.17a11.716 11.716 0 002.348-.15c1.425-.08 1.652-.39 3.749-.81zm27.984-41.52c-.01-.35-.023-.7-.046-1.05.264-.18.037-1.42-.187-1.9-.032-.22-.072-.43-.112-.66 0-.53-.038-1.1-.085-1.68.151.14.174-.01.2-.15 0 .01.007.01.011.01.381.35.1 1.02.26 1.59.033 1.02.114 1.83.086 2.93a5.749 5.749 0 00.111 1.77 2.2 2.2 0 00-.138 1.01c-.019-.63-.051-1.25-.1-1.87zm-.418 4.05a2.669 2.669 0 01-.037-1.15.229.229 0 00.052-.1c-.015.4-.037.8-.015 1.25zm3.366-3.24c-.015.4-.037.79-.015 1.24a2.623 2.623 0 01-.037-1.14.309.309 0 00.052-.1zM861.16 1053c-.093.11-.2.25-.32.4.118-.2.248-.43.376-.64-.016.08-.035.15-.056.24zm-6.557 10.84c-.1.33-.185.64-.277.98a8.681 8.681 0 01-.362 1.48c.275.79-.4 1.16-.545 2.33-.1-.07-.217-.15-.332-.24.264-.87.564-1.85.785-2.92.228-.55.477-1.1.728-1.63zm2.373 29.97v-.01s.008.01.012.02-.009-.01-.012-.01zm-4.8-12.92c-.043-.1-.094-.21-.157-.34-.041-.22-.069-.44-.108-.62.226.3.123-.37.3-.3a9.821 9.821 0 01-.154-2.52c.055.68.125 1.45.253 2.33.015.5.068 1.04.1 1.53-.079-.03-.157-.05-.234-.08zm1.457 14.93c0-.01 0-.01-.008-.02a.029.029 0 01.008.02zm24.856 20.18c-.071 0-.18-.02-.3-.03-.3-.1-.665-.19-.976-.28.433.1.85.21 1.276.31zm1.295.52a1.451 1.451 0 01-.228-.07l-.071-.03c.099.04.199.07.299.1zm27.411-11.69l-.062-.09c.084-.05.167-.09.249-.13.437-.11.9-.25 1.337-.38l.032.06c-.162.11-.337.22-.532.34a1.857 1.857 0 00-1.019.2zm-4.205-66.19a2 2 0 01-.762-.29 6.386 6.386 0 01.762.29zm-26.285-.12c-.153.24.946-.06 1.027.08a39.639 39.639 0 013.835-1.01l.962-.13c.812-.14 1.632-.23 2.448-.31a1 1 0 01.258.08c-.154.07-.31.15-.507.24 1.072.04.2.26-.238.45a.168.168 0 01-.07.01c-.158.01-.315.02-.528.04a4.839 4.839 0 00-2.272.14c-.265.12-.472.25-.729.38a4.592 4.592 0 00-1.515.12 10.038 10.038 0 00-3.837.51c.396-.21.779-.41 1.166-.6zm-21.968 18.96c.206-.32.4-.64.606-.96a17.355 17.355 0 00-.939 1.64 2.6 2.6 0 01.333-.68zm18.977 56.9c.463.16.879.27 1.518.47a11.673 11.673 0 01-1.518-.47zm55.39-28.58c.324-.27.511-.94.538-2.29a5.684 5.684 0 00-.542 2.29zm-65.237-31.63c-.291.29-.574.58-.83.84-.1.14-.18.24-.257.34-.234.29-.477.64-.723.98-.5 1.69 1.075-1.2 1.708-1.56-.105-.1.316-.62.102-.6zm66.212 27.21a4.607 4.607 0 00.262-2.85c-.272.24-.292 1.27-.262 2.85z" transform="translate(-847.125 -1035.78)"/><path id="美" class="cls-1" d="M886.956 1070.14c.528-.15.768.09.768.62a11.769 11.769 0 00.048 1.3c.1.38-.048.57-.48.57-.816.2-1.584.34-2.4.53-1.441.34-2.833.67-4.273 1.11-.1.09-.24.19-.336.28l.336.2c1.1.19 2.16.33 3.265.43a14.863 14.863 0 003.264-.1c.24 0 .48.05.72.05a2.926 2.926 0 00-.048.62.655.655 0 01-.192.53 15.519 15.519 0 01-6.289 3.6.991.991 0 00-.576.58 7.017 7.017 0 00.72 1.73 1.179 1.179 0 00.768.28 19.358 19.358 0 003.265-.28 114.234 114.234 0 0112.817-2.02.765.765 0 00.48-.53 2.015 2.015 0 00-.816-.96 7.012 7.012 0 00-1.152-.53 2.119 2.119 0 00-1.2-.19c-1.393.19-2.737.48-4.033.72-.384.15-.528 0-.48-.33a10.719 10.719 0 00.24-1.78 1.429 1.429 0 01.288-.38c1.248-.72 2.5-1.4 3.793-2.02a.613.613 0 00.288-1.01c-.673-.57-1.393-1.1-2.065-1.63a.97.97 0 00-1.44-.1c-.336.29-.576.24-.816-.19a8.992 8.992 0 00-.864-1.15.511.511 0 00-.192-.34c.1-.04.24-.09.384-.14a8.53 8.53 0 002.208-.29 75.2 75.2 0 004.849-1.58c.384-.15.48-.34.24-.68a5.11 5.11 0 00-2.5-1.72.679.679 0 00-.337.09l-4.848 1.39a47.2 47.2 0 01-10.081 2.21 1.1 1.1 0 00-.576.24 1.526 1.526 0 00-.288.24.287.287 0 01.288.15 17.6 17.6 0 003.6.53c1.205 0 2.453 0 3.653-.05zm-3.072 9.89h-.484c.048-.05.144-.1.192-.15 1.153-.62 2.3-1.25 3.5-1.82a1.285 1.285 0 01.624-.15 3.06 3.06 0 01.048.68 3.592 3.592 0 01-.048.76.441.441 0 01-.288.2c-1.192.19-2.344.33-3.544.48zm24.53 7.48c.528-.04.672-.28.48-.72a.715.715 0 00-.336-.57 7.812 7.812 0 00-2.4-1.97c-.912-.48-1.872-.91-2.832-1.3h-.24a1.08 1.08 0 01-.912.53 3.748 3.748 0 01-1.056.05 49.449 49.449 0 00-9.649 1.06.45.45 0 01-.72-.29 3.068 3.068 0 00-1.488-1.78 1.462 1.462 0 01-.48-.24.749.749 0 00-.432-.19 17.643 17.643 0 00-2.112.96.582.582 0 00-.1.62c.288.29.624.63.96.92a3.534 3.534 0 00.336.57 2.158 2.158 0 01-.672.34c-1.44.33-2.88.72-4.321 1.1-2.784.82-5.616 1.68-8.4 2.55a18.9 18.9 0 00-2.4.62 1.008 1.008 0 00-.72.53 1.359 1.359 0 00.384.48 4.356 4.356 0 002.689 1.2 5.437 5.437 0 001.488-.43c2.448-.87 4.944-1.78 7.44-2.69l3.313-1.11c.288-.14.384-.04.288.29a12.876 12.876 0 01-4.657 6.92 27.665 27.665 0 01-6.768 3.79 1.749 1.749 0 01-.336.24.753.753 0 00.432.09 13.408 13.408 0 002.688-.33 31.458 31.458 0 004.416-1.78 10.478 10.478 0 004.081-2.88 17.892 17.892 0 011.44-1.73 8.4 8.4 0 002.592-5.04.66.66 0 01.624-.57c2.016-.29 3.984-.53 5.905-.82a24.248 24.248 0 0110.9 1.39 3.234 3.234 0 01.575.19zm-16.994 3.7a.159.159 0 01-.048.14 1.363 1.363 0 00-.72.05l-.72.48a2.138 2.138 0 00.624.39 24.4 24.4 0 012.688.91 42.912 42.912 0 014.081 2.5 20.33 20.33 0 013.5 3.21 3.961 3.961 0 002.976 1.39 1.679 1.679 0 00.432-.28 1.95 1.95 0 00.24-1.83 7.454 7.454 0 00-2.064-2.78 17.785 17.785 0 00-5.328-2.79c-1.869-.48-3.741-.96-5.661-1.39zm5.809-28.42c.384-.09.768-.24 1.2-.33.912-.34 1.824-.72 2.688-1.11a.954.954 0 00.336-.77 4.258 4.258 0 00-1.008-1.82 14.3 14.3 0 00-1.632-1.39 2.286 2.286 0 00-2.448-.63 12.833 12.833 0 00-2.305.77 1.589 1.589 0 00-.24.48c.144.05.288.1.48.15.432.09.864.24 1.345.33a.46.46 0 01.144.77 25.094 25.094 0 01-2.257 2.74 27.771 27.771 0 01-2.688 2.59 1.771 1.771 0 01-.288.43 2.571 2.571 0 01.384-.19 10.524 10.524 0 016.289-2.02zm-19.154-2.83c.1.53.192 1.06.288 1.58a2.5 2.5 0 00.72 1.35c.432.43.864.81 1.344 1.25a22.222 22.222 0 002.688 1.39.971.971 0 001.009-.19 2.372 2.372 0 000-1.16 1.545 1.545 0 00-.577-.86 2.178 2.178 0 01-.24-2.16 1 1 0 00.192-.38 1.615 1.615 0 00-.1-.82 1.435 1.435 0 00-.624.19 1.861 1.861 0 01-.384.19 2.668 2.668 0 00-.672.2.87.87 0 01-.672 0 4.324 4.324 0 01-1.344-1.68c-.24-.53-.576-.58-1.056-.24-.188.48-.38.91-.572 1.34z" transform="translate(-847.125 -1035.78)"/></svg>