<svg xmlns="http://www.w3.org/2000/svg" width="395" height="207.75"><path d="M422.55 167.46l-.12-.12a22.812 22.812 0 00-13.11-5.74c-.7-.06-1.43-.09-2.17-.09H295.07a17.29 17.29 0 01-9.74-31.16 16.955 16.955 0 019.74-3.36h51.19a15.573 15.573 0 006.92-1.64h.03a.328.328 0 00.14-.06 18.226 18.226 0 006.39-5.33 25.93 25.93 0 005.28-16.1c0-9.44-4.57-17.86-11.64-21.42a.317.317 0 01-.15-.06h-.05a15.825 15.825 0 00-6.92-1.62H220.1a9.888 9.888 0 01-3.81-.76c-5.4-2.3-9.03-8.92-9.03-16.48s3.63-14.18 9.03-16.48a9.743 9.743 0 013.84-.79h187.05c.65 0 1.29-.03 1.94-.09h.26a22.812 22.812 0 0013.08-5.74 1.2 1.2 0 00.11-.12 9.428 9.428 0 00.85-.82 22.887 22.887 0 006.78-16.39 23.142 23.142 0 00-7.63-17.16.911.911 0 00-.11-.12A22.942 22.942 0 00409.35.07c-.7-.05-1.44-.08-2.17-.08H54.39a23.145 23.145 0 000 46.29h39.08a16.9 16.9 0 016.42 1.23 17.186 17.186 0 0110.73 16.01 17.992 17.992 0 01-1 5.86 16.981 16.981 0 01-4.04 6.35 17.244 17.244 0 01-5.72 3.8 16.794 16.794 0 01-6.42 1.23H18.67a16.07 16.07 0 00-10.9 4.36.453.453 0 01-.12.12l-.03.03C2.84 89.56 0 96.51 0 103.89s2.87 14.36 7.62 18.66l.09.09a16.2 16.2 0 0010.94 4.35h190.83a17.526 17.526 0 014.78.68 17.3 17.3 0 019.74 25.81 16.024 16.024 0 01-2.41 2.97 16.7 16.7 0 01-7.33 4.36 17.517 17.517 0 01-4.78.67h-75.79a22.987 22.987 0 00-10.99 2.83h-.03c-.09.06-.18.09-.26.14a23.189 23.189 0 000 40.32c.08.06.2.09.29.15a22.868 22.868 0 0011.02 2.82h273.43c.65 0 1.29-.03 1.94-.09h.26a22.865 22.865 0 0013.08-5.73l.12-.12c.29-.27.58-.53.85-.83a22.9 22.9 0 006.77-16.39 23.147 23.147 0 00-7.62-17.15v.03zm-136.07-2a21.516 21.516 0 005.54 1.58v34.82h-5.54v-36.4zm11.4 1.91h5.54v34.52h-5.54v-34.52zm11.41 0h5.54v34.52h-5.54v-34.52zm11.4 0h5.54v34.52h-5.54v-34.52zm11.41 0h5.54v34.52h-5.54v-34.52zm11.4 0h5.54v34.52h-5.54v-34.52zm11.41 0h5.54v34.52h-5.54v-34.52zm11.4 0h5.54v34.52h-5.54v-34.52zm11.41 0h5.54v34.52h-5.54v-34.52zm11.4 0h5.54v34.52h-5.54v-34.52zm11.41 0h5.54v34.52h-5.54v-34.52zm11.4.73a16.71 16.71 0 015.54 2.86v27.31a16.873 16.873 0 01-5.54 2.85V168.1zm-131.38-6.23v40.02h-5.54v-46.97a23.691 23.691 0 005.54 6.95zm-51.19-6.1a22.891 22.891 0 000-23.04V86.59h5.54v115.3h-5.54v-46.12zm11.41-69.18h5.54v115.3h-5.54V86.59zm11.4 0h5.54v115.3h-5.54V86.59zm11.41 0h5.54v115.3h-5.54V86.59zm11.4 46.97V86.59h5.54v40.02a23.185 23.185 0 00-5.54 6.95zm51.19-12.48h-5.54V86.59h5.54v34.49zm5.87-34.49h5.54v34.49h-5.54V86.59zm-17.27 34.49h-5.54V86.59h5.54v34.49zm-11.41 0h-5.54V86.59h5.54v34.49zm-11.4.29a24.438 24.438 0 00-5.54 1.59v-36.4h5.54v34.81zm67.08-17.56a20.4 20.4 0 01-4.02 12.47.64.64 0 01-.14.15V91.24a20.293 20.293 0 014.16 12.59v-.02zm-10.03-16.78v33.52a9.584 9.584 0 01-2.87.47h-2.7V86.53h2.7a10.833 10.833 0 012.87.47v.03zM206.55 47.28V5.78h5.54v36.73a19.587 19.587 0 00-5.54 4.8v-.03zM115.28 70.7a23.265 23.265 0 000-14.57V5.78h5.54v115.3h-5.54V70.7zm11.46-64.92h5.55v115.3h-5.55V5.78zm11.41 0h5.54v115.3h-5.54V5.78zm11.41 0h5.54v115.3h-5.54V5.78zm11.4 0h5.54v115.3h-5.54V5.78zm11.41 0h5.54v115.3h-5.54V5.78zm11.4 0h5.54v115.3h-5.54V5.78zm11.41 0h5.54v115.3h-5.54V5.78zm22.81 34.73V5.78h5.54V40.3h-3.52a15.2 15.2 0 00-2.02.21zm199.51-3.8a16.807 16.807 0 01-5.54 2.86V6.52a16.972 16.972 0 015.54 2.85v27.34zm-11.4 3.59h-5.54V5.78h5.54V40.3zm-11.41 0h-5.54V5.78h5.54V40.3zm-11.4 0h-5.54V5.78h5.54V40.3zm-11.41 0h-5.54V5.78h5.54V40.3zm-11.4 0h-5.54V5.78h5.54V40.3zm-11.41 0h-5.54V5.78h5.54V40.3zm-11.4 0h-5.54V5.78h5.54V40.3zm-11.41 0h-5.54V5.78h5.54V40.3zm-11.4 0h-5.55V5.78h5.55V40.3zm-11.41 0h-5.54V5.78h5.54V40.3zm-11.4 0h-5.55V5.78h5.55V40.3zm-11.41 0h-5.54V5.78h5.54V40.3zm-11.4 0h-5.55V5.78h5.55V40.3zm-11.41 0h-5.54V5.78h5.54V40.3zm-11.4 0h-5.55V5.78h5.55V40.3zm-11.41 0h-5.54V5.78h5.54V40.3zm189.34-17.27a17.421 17.421 0 01-.91 5.53V17.52a17.391 17.391 0 01.91 5.51zM46.88 7.55a17.477 17.477 0 015.54-1.65v34.25a17.207 17.207 0 01-5.54-1.64V7.55zm11.4-1.77h5.55V40.3h-5.55V5.78zm11.41 0h5.54V40.3h-5.54V5.78zm11.41 0h5.54V40.3H81.1V5.78zM37.2 23.03a17.04 17.04 0 013.82-10.8v21.6a17.04 17.04 0 01-3.82-10.8zM92.53 40.3V5.78h5.54v34.99a24 24 0 00-4.6-.47h-.94zm11.4 2.53V5.78h5.55v41.05a23.705 23.705 0 00-5.55-4zm5.55 37.23v41.02h-5.55V84.06a22.829 22.829 0 005.55-4zm-11.41 6.06v34.96h-5.54V86.59h.94a22.027 22.027 0 004.6-.47zm-85.41 2.59a9.982 9.982 0 015.55-2.06v34.4a10.212 10.212 0 01-5.55-2.06V88.71zm11.41-2.12h5.54v34.49h-5.54V86.59zm11.4 0h5.55v34.49h-5.55V86.59zm11.41 0h5.54v34.49h-5.54V86.59zm11.4 0h5.55v34.49h-5.55V86.59zm11.41 0h5.54v34.49h-5.54V86.59zm11.41 0h5.54v34.49H81.1V86.59zM5.86 103.83a22.509 22.509 0 01.91-6.35v12.71a22.527 22.527 0 01-.91-6.36zm200.75 17.25V79.56a19.525 19.525 0 005.54 4.82v36.88a19.629 19.629 0 00-2.67-.18h-2.87zm11.41 1.65V86.38a15.2 15.2 0 002.02.21h3.52v39.32a22.721 22.721 0 00-5.54-3.18zm5.54 39.81v39.32h-5.54v-36.2a21.689 21.689 0 005.54-3.15v.03zm-11.41 4.62v34.7h-5.54v-34.52h2.87a26.6 26.6 0 002.67-.18zm-85.41 1.71a16.281 16.281 0 015.55-1.41v34.34a16.754 16.754 0 01-5.55-1.41v-31.52zm11.41-1.5h5.54v34.52h-5.54v-34.52zm11.41 0h5.54v34.52h-5.54v-34.52zm11.4 0h5.54v34.52h-5.54v-34.52zm11.41 0h5.54v34.52h-5.54v-34.52zm11.4 0h5.54v34.52h-5.54v-34.52zm11.41 0h5.54v34.52h-5.54v-34.52zm-78.7 17.24a17.305 17.305 0 014.37-11.42v22.87a17.3 17.3 0 01-4.37-11.45zm306.89 5.53v-11.03a17.347 17.347 0 010 11.03z" fill="#bf8c4e" fill-rule="evenodd" opacity=".3"/></svg>