<svg xmlns="http://www.w3.org/2000/svg" width="429.812" height="126.5"><path d="M421.775 99.46a.285.285 0 01-.08-.04h-.04a14.1 14.1 0 00-6.036-1.37H223.646a9.935 9.935 0 01-2.767-.38 10.217 10.217 0 01-5.775-4.28 10.292 10.292 0 010-11.16 10.255 10.255 0 015.775-4.29 9.944 9.944 0 012.767-.39H408.7a13.835 13.835 0 006.055-1.37h.02a.1.1 0 00.06-.02 13.485 13.485 0 003.89-2.78 14.161 14.161 0 004.171-10.09 14.406 14.406 0 00-8.061-12.88.073.073 0 01-.06-.02h-.02a14.028 14.028 0 00-6.055-1.37h-63.863a9.881 9.881 0 01-5.774-1.88 10.248 10.248 0 01.02-16.72 10.01 10.01 0 015.754-1.88h14.618a14.166 14.166 0 006.918-1.81.776.776 0 00.22-.12 13.562 13.562 0 002.888-2.26 14.166 14.166 0 004.17-10.1 14.324 14.324 0 00-7.058-12.33 2.182 2.182 0 01-.22-.12 14.484 14.484 0 00-6.938-1.82H106.606a14.727 14.727 0 00-4.472.71.726.726 0 00-.14.06 14.223 14.223 0 00-7.9 6.79 1.378 1.378 0 00-.06.16v.04a14.376 14.376 0 00-1.584 6.53 14.125 14.125 0 001.584 6.53v.02c.02.04.04.1.06.14a14.138 14.138 0 007.9 6.8h.02a.424.424 0 01.14.06 14.494 14.494 0 004.452.7h27.931a10.618 10.618 0 012.366.28 10.275 10.275 0 015.775 3.81 10.3 10.3 0 010 12.32 11.358 11.358 0 01-.942 1.08 9.878 9.878 0 01-4.833 2.71 10.618 10.618 0 01-2.366.28H14.188a12.861 12.861 0 00-1.544.08 13.954 13.954 0 00-8.061 3.69l-.06.06a14.28 14.28 0 000 20.87l.04.05a14.016 14.016 0 008.041 3.68h.241c.441.04.882.08 1.323.08h83.394a10.165 10.165 0 014.351.97 10.324 10.324 0 015.775 8.16 10.75 10.75 0 01.06 1.11 7.262 7.262 0 01-.06 1.13 10.12 10.12 0 01-2.947 6.13 9.643 9.643 0 01-2.848 2.01 9.894 9.894 0 01-4.351.97H21.126a13.2 13.2 0 00-1.564.08 13.964 13.964 0 00-8.061 3.69l-.06.06-.02.02a14.269 14.269 0 000 20.86.076.076 0 00.04.04 13.966 13.966 0 008.041 3.69h.24c.441.04.882.08 1.343.08h394.534a14.113 14.113 0 006.036-1.37h.02a.1.1 0 00.08-.04 13.836 13.836 0 003.89-2.79 14.144 14.144 0 004.171-10.09 14.337 14.337 0 00-8.041-12.86v.1zm-185.6 2.62h2.908v20.5h-2.908v-20.5zm-4.01 20.5h-2.907v-20.5h2.907v20.5zm10.928-20.5H246v20.5h-2.9v-20.5zm6.918 0h2.907v20.5h-2.907v-20.5zm6.918 0h2.907v20.5h-2.907v-20.5zm6.918 0h2.907v20.5h-2.904v-20.5zm6.917 0h2.908v20.5h-2.908v-20.5zm6.918 0h2.908v20.5h-2.908v-20.5zm6.918 0h2.907v20.5H284.6v-20.5zm6.918 0h2.907v20.5h-2.907v-20.5zm6.917 0h2.908v20.5h-2.908v-20.5zm6.918 0h2.908v20.5h-2.908v-20.5zm6.918 0h2.907v20.5h-2.907v-20.5zm6.918 0h2.911v20.5h-2.907v-20.5zm6.917 0h2.908v20.5h-2.908v-20.5zm6.918 0h2.908v20.5h-2.908v-20.5zm6.918 0h2.908v20.5h-2.908v-20.5zm6.918 0h2.907v20.5h-2.907v-20.5zm6.918 0h2.907v20.5h-2.907v-20.5zm6.917 0h2.908v20.5H360.7v-20.5zm6.918 0h2.907v20.5h-2.907v-20.5zm6.918 0h2.907v20.5h-2.907v-20.5zm6.918 0h2.907v20.5h-2.907v-20.5zm6.917 0h2.908v20.5h-2.908v-20.5zm6.918 0h2.916v20.5h-2.908v-20.5zm6.918 0h2.907v20.5h-2.907v-20.5zm6.918 0h2.907v20.5h-2.907v-20.5zm6.917.02a10.1 10.1 0 012.908.52v19.41a10.1 10.1 0 01-2.908.53V102.1zm-190.73-.02v20.5H222.4V102c.441.04.862.08 1.3.08h1.6zm-6.917-1.09v21.59h-2.908V99.42a13.094 13.094 0 002.908 1.55v.02zm-72.066-54.25a14.043 14.043 0 000-15.9V4.02h2.908v118.56h-2.908V46.74zm6.918-42.72h2.908v118.56h-2.908V4.02zm6.918 0h2.907v118.56h-2.907V4.02zm6.918 0h2.907v118.56h-2.907V4.02zm6.918 0h2.907v118.56H174V4.02zm6.917 0h2.908v118.56h-2.908V4.02zm6.918 0h2.908v118.56h-2.908V4.02zm6.918 0h2.907v118.56h-2.907V4.02zm6.918 0h2.907v118.56h-2.904V4.02zm6.917 0h2.916v76.6a14.032 14.032 0 000 14.39v27.57h-2.908V4.02zm6.918 72.18V4.02h2.908v70.61a15.072 15.072 0 00-2.905 1.57zm6.918-2.58V4.02h2.907v69.52h-1.6c-.442 0-.863.04-1.304.08zm106.654-.08h-2.908V4.02h2.908v69.52zm-6.918 0h-2.907V4.02h2.907v69.52zm-6.918 0h-2.907V4.02h2.907v69.52zm-6.917 0h-2.908V4.02h2.908v69.52zm-6.918 0H298.5V4.02h2.908v69.52zm-6.918 0h-2.907V4.02h2.907v69.52zm-6.918 0h-2.907V4.02h2.907v69.52zm-6.917 0h-2.908V4.02h2.908v69.52zm-6.918 0h-2.908V4.02h2.908v69.52zm-6.918 0h-2.908V4.02h2.908v69.52zm-6.918 0h-2.907V4.02h2.911v69.52zm-6.918 0h-2.907V4.02h2.907v69.52zm-6.917 0h-2.908V4.02h2.908v69.52zm-6.918 0h-2.908V4.02h2.908v69.52zm-6.918 0h-2.907V4.02h2.907v69.52zM339.982 52.1a13.323 13.323 0 002.907.79v20.65h-2.907V52.1zM412.047 73a10.088 10.088 0 01-2.907.52V53.07a10.211 10.211 0 012.907.52V73zm-6.917.54h-2.908V53.05h2.908v20.49zm-6.918 0h-2.908V53.05h2.908v20.49zm-6.918 0h-2.908V53.05h2.914v20.49zm-6.918 0h-2.907V53.05h2.907v20.49zm-6.918 0h-2.907V53.05h2.907v20.49zm-6.917 0h-2.908V53.05h2.908v20.49zm-6.918 0h-2.908V53.05h2.908v20.49zm-6.918 0H353.8V53.05h2.907v20.49zm-6.918 0h-2.907V53.05h2.907v20.49zm69.158-10.23a10.057 10.057 0 01-2.907 7.13V56.19a10.4 10.4 0 012.91 7.12zm-82.993-13.55v23.78h-2.908V46.48a13.935 13.935 0 002.911 3.28zm-2.908-18.66V4.02h2.908V27.8a13.935 13.935 0 00-2.908 3.28v.02zm30.579-7.46a9.969 9.969 0 01-2.908.81V4.1a10.458 10.458 0 012.908.8v18.74zm-6.918.89H353.8V4.02h2.907v20.51zm-6.918 0h-2.907V4.02h2.907v20.51zm-6.917.16a13.3 13.3 0 00-2.908.79V4.02h2.908v20.67zm26.808-10.42a10.2 10.2 0 01-2.045 6.11V8.11a10.312 10.312 0 012.045 6.14v.02zM118.6 4.02h2.9v20.49h-2.9V4.02zm-4.01 20.49h-2.907V4.02h2.907v20.49zm10.928-20.49h2.908v20.49h-2.908V4.02zM97.847 19.43V9.09a10 10 0 012.907-3.16V22.6a10.273 10.273 0 01-2.911-3.17zm6.918 4.9V4.2a11.053 11.053 0 011.824-.18h1.083v20.49h-1.083a9.248 9.248 0 01-1.828-.18zm27.671.18V4.02h2.907v20.53c-.28 0-.541-.04-.822-.04h-2.085zm6.918.91V4.02h2.907v22.79a14.464 14.464 0 00-2.907-1.41v.02zm2.907 25.31v71.85h-2.911v-70.4a13.233 13.233 0 002.907-1.47v.02zm-6.918 2.28v69.57h-2.907V53.05h2.085c.279 0 .538-.04.818-.04zm-23.66 36.15c.04-.44.08-.88.08-1.33s-.04-.88-.08-1.33V53.05h2.907v69.53h-2.907V89.16zm6.917-36.09h2.9v69.51h-2.9V53.07zm6.918 0h2.908v69.51h-2.908V53.07zM100.75 73.93a13.431 13.431 0 00-2.907-.35V53.09h2.907v20.84zM7.95 55.24a10.056 10.056 0 012.907-1.59v19.31a10.3 10.3 0 01-2.907-1.59V55.24zm6.918-2.19h2.907v20.49H14.87V53.05zm6.918 0H24.7v20.49h-2.912V53.05zm6.918 0h2.907v20.49h-2.906V53.05zm6.918 0h2.908v20.49h-2.907V53.05zm6.918 0h2.907v20.49h-2.906V53.05zm6.918 0h2.908v20.49h-2.907V53.05zm6.918 0h2.908v20.49h-2.907V53.05zm6.918 0H66.2v20.49h-2.906V53.05zm6.918 0h2.908v20.49h-2.908V53.05zm6.918 0h2.907v20.49H77.13V53.05zm6.918 0h2.907v20.49h-2.907V53.05zm6.917 0h2.908v20.49h-2.908V53.05zm13.836 22.49V53.05h2.907v24.79a13.809 13.809 0 00-2.908-2.3zm2.907 22.27v24.77H104.8v-22.51a13.5 13.5 0 002.807-2.14c.04-.04.06-.08.08-.1zm-92.818 6.47a9.6 9.6 0 012.907-1.59v19.3a10.055 10.055 0 01-2.907-1.59v-16.12zm6.918-2.2h2.907v20.5h-2.907v-20.5zm6.918 0h2.907v20.5h-2.907v-20.5zm6.918 0h2.907v20.5h-2.908v-20.5zm6.918 0h2.908v20.5h-2.909v-20.5zm6.918 0h2.908v20.5h-2.909v-20.5zm6.918 0H59.3v20.5h-2.9v-20.5zm6.918 0h2.907v20.5h-2.909v-20.5zm6.918 0h2.906v20.5h-2.908v-20.5zm6.918 0h2.907v20.5H77.15v-20.5zm6.918 0h2.907v20.5h-2.909v-20.5zm6.917 0h2.908v20.5h-2.908v-20.5zm6.918 0a12.846 12.846 0 002.908-.34v20.86H97.9v-20.52zm325.055 17.39V105.2a10.324 10.324 0 012.908 7.12 10.139 10.139 0 01-2.908 7.13v.02z" fill="#591902" fill-rule="evenodd" opacity=".3"/></svg>