<svg id="concept03.svg" xmlns="http://www.w3.org/2000/svg" width="423.53" height="268.59"><defs><style>.cls-1{fill:#591902;fill-rule:evenodd}</style></defs><g id="bi"><path id="シェイプ_4" data-name="シェイプ 4" class="cls-1" d="M1153.92 4481.21a.591.591 0 01.06-.14l.29-.74c1.17-.33 2.09-.67 3.12-.98a10.023 10.023 0 00-1.19-1.16 2.024 2.024 0 00-.04-.26c1.37-.36 2.77-.86 5.76-1.45a1.772 1.772 0 00.06-.17l.3-.74c1.17-.33 2.09-.64 3.11-.95a10.123 10.123 0 00-1.19-1.17 2.611 2.611 0 00-.24-.95c.1-.31.15-.4-2.07-.19-.62-.12-1.36-.21-1.98-.38-.11-.28-.1-.64-.2-.93.58-.66 1.15-1.38 1.82-2.09.86-.33 1.04-.57 1.77-.86.09-.33.2-.71.3-1.04a4.253 4.253 0 00-.19-1.22c-.04-.21.63-.78-.34-.61a18.575 18.575 0 00-1.76-.67 1.209 1.209 0 00.74-.83c-.87.21-1.74.43-2.61.59-2.29.12-.95-.81-4.35-.14-.28.52-3.08.76-3.04 1.38-3.92.47-6.91.14-10.09.45-2.5-.14-3.66.22-5.54.05-.78.28-3.25-.6-2.89.05a58.573 58.573 0 01-13.23-1.95c-.34 1.61-4.81-1.46-6.88-1.29-1.24-1.38-5.1-1.52-7.11-3.28a68.548 68.548 0 01-14.59-8.07 65.742 65.742 0 01-14.39-12.75c-.41.07-1.06-.92-1.6-1a100.64 100.64 0 01-5.11-6.42 76.565 76.565 0 01-7.65-12.94c-.49-.31-.79-1.97-1.64-1.83a9.13 9.13 0 00-1.88-4.59c-.08-1.03-1.23-3.21-.64-3.24a5.4 5.4 0 00-.76-1.88 11.288 11.288 0 01-.99-2.88c-.4-.8-.68-1.54-1.08-2.47.76.45-.02-2.16-.24-2.31a15.006 15.006 0 00-1.39-3.52c-.03-.19-.05-.28-.08-.5a3.86 3.86 0 00-.36-3.4 6.51 6.51 0 00-.83-4c-.1-.52-.16-1.07-.26-1.49.54.71.3-.88.72-.72-.86-3.3 0-9.06-.28-12.39.13-1.31.28-2.52.48-3.83a33.148 33.148 0 00.67-6.04c.06-.29.14-.6.24-.98.68-2.76 2.03-6.33 2.87-10.44 1.13-2.81 2.61-5.5 3.71-7.97a22.4 22.4 0 012.69-3.14 40.291 40.291 0 016.68-10.33c.42-.61 1.04-1.23 1.06-.83.66-.78 1.24-1.47 1.93-2.23a3.786 3.786 0 001.61-3l-1.4.43c.15-.6.24-1.1.33-1.6.36-.62.79-1.35 1.19-1.97.24-.22.46-.45.76-.74a95.243 95.243 0 0111.65-9.04c.13.29.28.57.42.86.81-.29 1.64-.55 2.44-.81a6.49 6.49 0 001.68-1.26c4.32-1.55 11.05-3.95 14.02-5.38 1.14-.4 2.4-.81 3.58-1.12 1.39-.28 2.68-.52 4.09-.76-.67 1.31 3.13-.54 4.67-.04 2.18-.27 1.72.47 4.22.09a14.022 14.022 0 011.55-.64 10.278 10.278 0 003.21-.43h.98a83.758 83.758 0 0115.55 1.97c1.38.31 2.73.67 4.09 1.03.96.24 2.03.45 3.08.74 3.08.99 4.54 1.64 7.44 2.37l.91.36c3.4 1.57 5.58 3.21 9.91 5.33a8.445 8.445 0 012.76 1.43 88.06 88.06 0 019.71 7.13c2.41 2.76 4.54 2.98 6.68 5.95a81.6 81.6 0 0118.45 28.31c.48.69.91 1.4 1.37 2.09.71 2.19 1.36 4.26 1.88 6.38-.48.95 1.24 4.66.74 5.61.41 1.24.5 3.47 1.1 3.62.91.83.24 2.45.62 3.78.07 2.43.26 4.38.19 6.99a14.368 14.368 0 00.26 4.19c-.59.71-.02 4.4-.74 5.07-.09 2.04-.24 4.06-.45 5.99a15.619 15.619 0 00-.67 2.21c.98 4.88-2.12 2.41-2.12 8.12a19.313 19.313 0 01-2.94 7.2c-1.69 2.38-.79 3.45-1.74 5.36a5.086 5.086 0 01-1.12.95 3.913 3.913 0 00-.72 1.69 12.714 12.714 0 01-2.27 3.61c-.5 1.17-1.07 1.14-1.19.83-.55.88-1.22 1.84-1.82 2.72-.76.97-1.47 1.88-2.29 2.83-.83.69-1.93 2.54-2.38 2.26-.5.59-.96 1.09-1.53 1.76l-1.24 1.31a113.56 113.56 0 01-3.42 3.14c-.57.4-1.07.78-1.52 1.14a1.887 1.887 0 00-.34.09l-.38-.59c-2.03.47-3.7 2.62-5.95 3.23-.82.86-3.61 1.69-3.84 2.34a16.273 16.273 0 01-4.16 2.4c-.9.95-4.22 1.88-3.82 2.54a6.519 6.519 0 002.59-.97c1.04-.24 2.15-.6 3.19-.91.13.27.26.48.39.74l-.12.14c-1.07.38-2.17.76-3.23 1.1-1.31.5-2.73 1-4.06 1.43a15.829 15.829 0 00-4.16 1.18c1.39-.21 2.78-.47 4.25-.8 1.75-.46 3.39-.93 5.1-1.48.31-.12.67-.26 1.05-.4-.63.43-1.25.81-1.91 1.23a8.512 8.512 0 00-2.49 1.45c-.55.27-1.09.5-1.74.77-1.31.47-2.72.95-4.04 1.38-1.31.47-2.73.97-4.06 1.42a16.314 16.314 0 00-4.16 1.17c1.39-.19 2.78-.45 4.25-.79 1.74-.47 3.39-.95 5.1-1.5.39-.11.85-.3 1.33-.49a30.982 30.982 0 007.21-2.74c1.07-.33 2.13-.69 3.19-1.07.14.28.23.45.32.62 2.1-1.05 4.06-2.17 6.04-3.4.71-.53 1.43-.98 2.1-1.43 2.03-1.02 3.96-2.12 5.89-3.33 3.08-2.14 5.52-3.48 8.12-5.47 3.1-3.07 6.73-5.38 9.36-8.54.52-.62 1.09-1.22 1.59-1.84.79-.83 1.58-1.76 2.3-2.64.57-.83 1.09-1.59 1.64-2.45.05.65.17 1.36.22 2.03.33.61 1.26.26 1.88.02.67-.93 1.32-1.9 2.01-2.95.5-.67.95-1.26 1.5-2.05.84-1.59 1.63-3.3 2.37-4.92a75.741 75.741 0 006.66-16.79c.66-1.34 1.05-5.24 1.5-6.4.14-1.17.31-2.31.41-3.45.07-.62.14-1.36.19-1.98.81.03.81-2.64.52-3.52a89.209 89.209 0 00-.21-10.08c-.03-.84-.05-1.69-.12-2.53.64-.4.09-3.37-.43-4.49l-.29-1.57a38.121 38.121 0 00-.19-4c.64.6.31-1.09.76-.59.37.35.75.68 1.15 1 .45 1.45.95 3.04 1.98 6.04.26 2.47.43 4.85.48 7.35-.62.4-.53 2.95.17 6.16.21-1.17.38-2.33.52-3.52.22.02.41.02.62.05.02 0 .1.02.12.02a12.781 12.781 0 00.1-1.64c-.05-.88-.1-1.76-.17-2.64a3.318 3.318 0 00-1.03-1.55 7.569 7.569 0 00.46-3.71c-.17-.97-.39-2.07-.65-3.14-.19-.97-.45-2.04-.69-3.02h-.17c-.33-.74-.69-1.35-1.05-2.09-.64-2.88-1.69-6.02-2.29-8.57a89.955 89.955 0 00-5.9-14.17 7.693 7.693 0 00-2.24-4.36 97.362 97.362 0 00-11.81-16.15 4.514 4.514 0 00-1.41-2.33 9.587 9.587 0 00-2.44-1.64c-1.12-1.31-2.22-2.48-3.32-3.64-1.74-1.71-3.58-3.33-5.46-4.88-.79-.71-1.67-1.47-2.58-2.21-.84-.5-1.6-.9-2.53-1.43-1.41-.93-2.82-1.83-4.34-2.73a12.569 12.569 0 00-3.44-1.98c-1-.62-1.98-1.26-2.91-1.81 1.24.34.35-.66 1.69-.4a16.484 16.484 0 00-3-1.64c-.89-.19-1.67-.36-2.57-.55l-.45-.19c.58-.19-.24-.71-.71-1.07a19.959 19.959 0 00-4.59-1.4c-1.07-.53-1.58-.88-2.11-1.17a13.783 13.783 0 00-4.64-1.21c-1.21-.31-2.3-.57-3.55-.83-1.3-.39-2.62-.74-3.96-1.07a22.439 22.439 0 00-4.13-.93c-1.07.05-2.14.12-3.2.19-2.62-.29-5.25-.5-7.76-.6-.87-.05-1.63-.07-2.51-.12a14.646 14.646 0 00-3.38-.95 22.508 22.508 0 00-4.34.36c-.38.02-.75.05-1.26.07a12.263 12.263 0 00-5.42.33c-.64.29-1.13.6-1.74.91a11.022 11.022 0 00-3.62.31c-3.19-.57-8.79.97-13.59 2.52-.79.5-1.44.95-2.21 1.47-2.26.74-4.48 1.6-6.68 2.5a3.933 3.933 0 00-2.93.76c-.69.91-4.38 2.22-5.94 3.93a7.31 7.31 0 00-2.06.81c-.78 1.04-5.45 2.59-6.45 4.68-.42.26-.95.57-1.47.88-.63.38-1.35.86-1.97 1.26-.76.62 1.63-.64.82-.04a12.266 12.266 0 00-3.32 3.3c1.58-.45 1.59-1 5.01-3.52a9.505 9.505 0 002.98-1.28v.04a4.95 4.95 0 002.18-1.26 18.586 18.586 0 013.26-1.52c.93-.62 1.95-1.33 3.02-1.97 1.45-.65 2.26-.95 3.17-1.34 1.31-.71 2.54-1.35 3.78-1.95-.36.55 2.26-.14 2.46.17 3.01-.94 6.06-1.74 9.15-2.38.45-.07.94-.14 1.43-.19a3.572 3.572 0 00-.74.41c.03.14.06.26.09.4-.24.57-.5 1.13-.79 1.67-.43.23-.88.5-1.34.78a17.03 17.03 0 00-5.97 1.9c.04.15.06.24.09.38-.2.46-.39.93-.64 1.41a8.324 8.324 0 00-2.28 1.35c-.93.46-1.85.91-2.77 1.41-.2.07-.41.14-.62.23.01.03.02.05.03.08-1.08.57-2.15 1.19-3.22 1.83-1.43.81-2.82 1.69-4.18 2.59a86.8 86.8 0 00-3.82 2.14c-2.61 1.5-5.11 3.21-7.53 4.9a78.123 78.123 0 00-6.26 4.71 85.042 85.042 0 00-5.09 4.55 14.477 14.477 0 00-4.78 4.56c-.09.48-.19.98-.33 1.53-.27.35-.61.76-.95 1.19.11-1.03-.9.26-1.32.52-.62.93-1.19 1.88-1.69 2.78.37-.78.72-1.76 1.09-2.73 1.21-2.12 1.43-2.76.86-3.26-.63.97-1.27 1.92-1.8 2.8-.66.88-1.25 1.69-1.88 2.6 1.14-1.81 2.36-3.57 3.68-5.4.75-1.19.77-1.98.44-2.12-1 1.21-2.03 2.59-2.95 3.88-.79.52-.67-.26-.84-.34a86.56 86.56 0 00-6.41 12.49c-.34.88-.67 1.79-.96 2.69.32.62.69 1.17 1.05 1.81a5.546 5.546 0 01.2-.52c.07.07.15.16.22.23a13.3 13.3 0 01-1.01 1.81 2.85 2.85 0 00-.54.76c-.34.43-.67.84-1.06 1.43a16.738 16.738 0 01-.24-1.71l-.32-.34c-.31.72-.57 1.31-.82 1.93-1.09 3.05.32 2.17-.18 4.57-.33 1.05-.6 2-.89 3.07a20.1 20.1 0 01-.86 3.5c.66 1.9-.95 2.78-1.3 5.54-.24-.17-.53-.36-.8-.55.32-1.74.66-3.45 1.09-5.16a.642.642 0 00-.13-.1c-.41.31-.78.65-1.19.95-.33 1.41-.57 2.74-.8 4.19a83.88 83.88 0 00-.82 4.62c-.15 1.21-.27 2.54-.33 3.78-.17 1.52-.24 2.62-.32 3.59-.2 1.02-.43 2.02-.61 2.93.58 2.87.5 6.35 1.24 11.49.04 1.16.17 2.47.24 3.64-.59-.22-1.14-.41-1.73-.62-.15-1.12-.24-2.24-.34-3.21-.11-1.98-.16-3.83-.18-5.81-.19-.09-.41-.19-.6-.28-.07-.6-.12-1.17-.18-1.64.31-1.29.6-2.6.96-3.88-.15-.41-.28-.81-.39-1.22-.09-2.9-.17-3.92-.94-3.9 0-.95 0-1.88.03-2.83a48.161 48.161 0 00.93-8.3 17.361 17.361 0 00-1.37 8.02c-.36 2.66-.64 5.33-.81 8.01.05.36.1.74.12 1.1.19.09.4.21.59.31-.04.78-.02 1.47-.03 2.23-.78 1.88-.08 5.12.35 8.11.18 1.91.39 3.93.69 5.81.22 1.14.49 2.28.7 3.31.34 1.45.67 2.9 1.07 4.35.08.64.24 1.4.34 2.04.15.55.24.98.4 1.55l.15 1.55c-.24-.05-.45-.1-.69-.15a.153.153 0 00-.13-.02 4.21 4.21 0 00.93 3.57c.36 1.09.68 2.09 1.09 3.16.41.6.84 1.17 1.23 1.64.09.41.18.74.24 1.05 0 .81-.3.76-.24 1.38.78 1.74 1.61 3.54 2.45 5.14.68 1.38 1.48 2.92 1.03 3.02a29.634 29.634 0 003.38 5.47c.7.81 1.45 1.62 2.18 2.43a5.427 5.427 0 002.27 2.83 4.9 4.9 0 00.19-1c.54.47 1.13.93 1.68 1.4 1.09 1.52 2.24 3.02 3.42 4.52a3.543 3.543 0 00.38 1.36c1.49 1.64 3.05 4.07 4.86 4.66a27.828 27.828 0 004.72 3.93c.43.42.79.73 1.23 1.14a8.6 8.6 0 002.43 2.9 6.312 6.312 0 002.9 1.66c.72.31 1.29.55 2.01.84a93.407 93.407 0 008.16 5.16c.23.24.52.43.87.74a9.63 9.63 0 003.07 2.26c1.22.31 3.46 2.07 5.16 1.8.91.43 1.88.81 2.8 1.22 1.56.74 3.09 1.47 4.82 2.21a37.724 37.724 0 0012.11 3.31 4.639 4.639 0 002.68.26 20.873 20.873 0 007.12.76c1.11.19 2.36.36 3.62.52 1.43.79.09 1.05 1.14 1.81 1.52.05 3.04.02 4.56 0 2.15 0 3.45-.14 5.2-.02.86-.12 1.86-.26 2.71-.41a28.392 28.392 0 005.6-.35c3.43-.19 3.97-.93 8.98-1.93z" transform="translate(-1033.38 -4286)"/><path id="美" class="cls-1" d="M1125.76 4363.72c1.32-.36 1.92.24 1.92 1.56a29.242 29.242 0 00.12 3.24c.24.96-.12 1.44-1.2 1.44-2.04.48-3.96.84-6 1.32-3.6.84-7.08 1.68-10.68 2.76-.24.24-.6.48-.84.72l.84.48c2.76.48 5.4.84 8.16 1.08a37.152 37.152 0 008.16-.24c.6 0 1.2.12 1.8.12a7.381 7.381 0 00-.12 1.56 1.639 1.639 0 01-.48 1.32 38.8 38.8 0 01-15.72 9 2.437 2.437 0 00-1.44 1.44 17.271 17.271 0 001.8 4.32 2.942 2.942 0 001.92.72 47.913 47.913 0 008.16-.72 291.449 291.449 0 0132.04-5.04 1.887 1.887 0 001.2-1.32 5.014 5.014 0 00-2.04-2.4 16.015 16.015 0 00-2.88-1.32 5.3 5.3 0 00-3-.48c-3.48.48-6.84 1.2-10.08 1.8-.96.36-1.32 0-1.2-.84a26.4 26.4 0 00.6-4.44 3.934 3.934 0 01.72-.96c3.12-1.8 6.24-3.48 9.48-5.04q1.8-.9.72-2.52c-1.68-1.44-3.48-2.76-5.16-4.08a2.416 2.416 0 00-3.6-.24c-.84.72-1.44.6-2.04-.48a22.516 22.516 0 00-2.16-2.88 1.215 1.215 0 00-.48-.84 8.268 8.268 0 01.96-.36 21.108 21.108 0 005.52-.72c4.2-1.2 8.16-2.52 12.12-3.96.96-.36 1.2-.84.6-1.68a12.81 12.81 0 00-6.24-4.32 1.734 1.734 0 00-.84.24l-12.12 3.48a119.55 119.55 0 01-25.2 5.52 2.634 2.634 0 00-1.44.6 3.182 3.182 0 00-.72.6.726.726 0 01.72.36 44 44 0 009 1.32c3 0 6.12 0 9.12-.12zm-7.68 24.72h-1.2c.12-.12.36-.24.48-.36 2.88-1.56 5.76-3.12 8.76-4.56a3.322 3.322 0 011.56-.36 7.38 7.38 0 01.12 1.68 9.106 9.106 0 01-.12 1.92 1.1 1.1 0 01-.72.48c-3 .48-5.88.84-8.88 1.2zm61.32 18.72c1.32-.12 1.68-.72 1.2-1.8a1.83 1.83 0 00-.84-1.44 19.677 19.677 0 00-6-4.92 75.406 75.406 0 00-7.08-3.24h-.6a2.718 2.718 0 01-2.28 1.32 9.755 9.755 0 01-2.64.12 124.751 124.751 0 00-24.12 2.64 1.117 1.117 0 01-1.8-.72 7.634 7.634 0 00-3.72-4.44 3.754 3.754 0 01-1.2-.6 1.787 1.787 0 00-1.08-.48 41.866 41.866 0 00-5.28 2.4 1.473 1.473 0 00-.24 1.56c.72.72 1.56 1.56 2.4 2.28a8.95 8.95 0 00.84 1.44 5.5 5.5 0 01-1.68.84c-3.6.84-7.2 1.8-10.8 2.76-6.96 2.04-14.04 4.2-21 6.36a48.857 48.857 0 00-6 1.56 2.513 2.513 0 00-1.8 1.32 3.267 3.267 0 00.96 1.2 10.83 10.83 0 006.72 3 13.261 13.261 0 003.72-1.08c6.12-2.16 12.36-4.44 18.6-6.72l8.28-2.76q1.08-.54.72.72a32.15 32.15 0 01-11.64 17.28 68.852 68.852 0 01-16.92 9.48 3.647 3.647 0 01-.84.6 1.783 1.783 0 001.08.24 33.207 33.207 0 006.72-.84 78.584 78.584 0 0011.04-4.44 26.414 26.414 0 0010.2-7.2 42.916 42.916 0 013.6-4.32 32.326 32.326 0 003.6-4.44 31.4 31.4 0 002.88-8.16 1.667 1.667 0 011.56-1.44c5.04-.72 9.96-1.32 14.76-2.04a60.262 60.262 0 0127.24 3.48 6.765 6.765 0 011.44.48zm-42.48 9.24a.441.441 0 01-.12.36 3.087 3.087 0 00-1.8.12l-1.8 1.2a5.5 5.5 0 001.56.96 63.193 63.193 0 016.72 2.28 110.317 110.317 0 0110.2 6.24 50.905 50.905 0 018.76 8.04 9.959 9.959 0 007.44 3.48 4.188 4.188 0 001.08-.72 4.845 4.845 0 00.6-4.56 18.55 18.55 0 00-5.16-6.96 44.193 44.193 0 00-13.32-6.96c-4.68-1.2-9.36-2.4-14.16-3.48zm14.52-71.04c.96-.24 1.92-.6 3-.84 2.28-.84 4.56-1.8 6.72-2.76a2.388 2.388 0 00.84-1.92 10.653 10.653 0 00-2.52-4.56 36.846 36.846 0 00-4.08-3.48 5.671 5.671 0 00-6.12-1.56 29.51 29.51 0 00-5.76 1.92 3.754 3.754 0 00-.6 1.2c.36.12.72.24 1.2.36 1.08.24 2.16.6 3.36.84a1.145 1.145 0 01.36 1.92 60.944 60.944 0 01-5.64 6.84 68.311 68.311 0 01-6.72 6.48 4.188 4.188 0 01-.72 1.08 7.075 7.075 0 01.96-.48 26.4 26.4 0 0115.72-5.04zm-47.88-7.08l.72 3.96a6.17 6.17 0 001.8 3.36c1.08 1.08 2.16 2.04 3.36 3.12a50.993 50.993 0 006.72 3.48 2.4 2.4 0 002.52-.48 5.85 5.85 0 000-2.88 3.862 3.862 0 00-1.44-2.16 5.449 5.449 0 01-.6-5.4 2.412 2.412 0 00.48-.96 4 4 0 00-.24-2.04 3.4 3.4 0 00-1.56.48 7.075 7.075 0 01-.96.48 6.879 6.879 0 00-1.68.48 2.05 2.05 0 01-1.68 0 10.666 10.666 0 01-3.36-4.2c-.6-1.32-1.44-1.44-2.64-.6-.48 1.2-.96 2.28-1.44 3.36z" transform="translate(-1033.38 -4286)"/></g><path id="三.もっと美しく" class="cls-1" d="M1050.98 4525.42a2 2 0 01-.84-.06.4.4 0 01-.18-.66c.96-2.16 2.04-4.2 3.18-6.24a19.33 19.33 0 013.3-4.02 10.012 10.012 0 014.62-2.52l1.8-.54 3.65-.96a.925.925 0 00.84-1.26 7.472 7.472 0 00-1.2-2.16c-.78-.78-1.62-1.44-2.46-2.16a1.259 1.259 0 00-1.85 0 14.535 14.535 0 01-3.54 1.92 9.408 9.408 0 01-4.44.6 22.1 22.1 0 01-4.5-.84 14 14 0 00-2.1-.36c-.9.06-1.08.42-.6 1.14a10.31 10.31 0 001.98 1.98 5.385 5.385 0 002.52 1.14c1.74.36 3.54.72 5.4 1.02.72.06.84.36.3.9-3.3 4.08-6.54 8.22-9.72 12.36a1.677 1.677 0 00-.18 2.28 11.992 11.992 0 00.6 1.26 4.27 4.27 0 003.42 2.58c.84-.06 1.62-.12 2.4-.24a.833.833 0 00.66-.12 2.478 2.478 0 01-.42.66 175.032 175.032 0 01-16.02 13.68 12.168 12.168 0 00-1.38 1.08 19.561 19.561 0 00-1.98 1.86 1.022 1.022 0 00-.18 1.02 14.138 14.138 0 001.32 2.28 3 3 0 001.62 1.08 4.158 4.158 0 001.92-.06 14.2 14.2 0 004.26-2.4 27.985 27.985 0 012.82-1.8 10.317 10.317 0 013.24-1.08 22.408 22.408 0 002.76-.54 30.107 30.107 0 017.32-1.62c1.5-.12 2.99-.36 4.55-.6a18.129 18.129 0 015.1.36c1.74.36 3.42.72 5.1 1.08 1.44.42 2.88.84 4.26 1.32a1.076 1.076 0 001.26-1.74 9.071 9.071 0 00-5.94-3.84 38.48 38.48 0 00-17.15.48c-2.94.66-5.88 1.38-8.82 2.1a90.685 90.685 0 00-8.64 2.82h-.3a1.591 1.591 0 01.3-.36 9.792 9.792 0 001.2-1.02c1.68-1.68 3.36-3.3 4.92-4.98 1.02-1.02 1.98-2.04 2.94-3.06 1.56-1.26 3.06-2.52 4.5-3.9a16.812 16.812 0 017.02-4.32 14.732 14.732 0 004.25-2.34c.12-.18.3-.36.42-.54a.9.9 0 01.54-.42c0-.12-.06-.3-.06-.42l-.24-.36a10.287 10.287 0 00-.96-1.38c-.29-.18-.6-.36-.89-.54a5.093 5.093 0 01-.96-.66 1.015 1.015 0 00-1.02-.42 1.829 1.829 0 00-.96.48 14.333 14.333 0 01-4.2 2.04 29.475 29.475 0 01-4.56 1.02zm42.24 15.42c-1.26.24-2.58.48-3.84.66a1 1 0 00-.9 1.38c.6 1.74 1.2 3.48 1.68 5.22a3.828 3.828 0 001.5 1.98l1.62 1.26a9.516 9.516 0 001.62 1.08 7.319 7.319 0 001.02.42 1.332 1.332 0 00.96.06 1.3 1.3 0 00.84-.54 2.517 2.517 0 00.54-.84 13.844 13.844 0 00.6-1.68c.24-1.44.54-2.94.84-4.5a.853.853 0 00-.12-.36.634.634 0 01-.12-.3 5.8 5.8 0 00-1.56-2.04 9.922 9.922 0 00-2.16-1.32 7.5 7.5 0 00-2.52-.48zm51.9-26.46l-.18-.96a15.644 15.644 0 00-.3-2.88 6.961 6.961 0 00-1.08-2.58 4.041 4.041 0 00-1.32-1.14 2.729 2.729 0 00-1.68-.3.51.51 0 00-.42.42.467.467 0 00.18.42 3.853 3.853 0 011.56 3.48c-.18 2.22-.42 4.38-.66 6.54a2.265 2.265 0 01-1.2 1.38 18.418 18.418 0 00-1.56 1.5 14.354 14.354 0 01-.78 1.26 6.424 6.424 0 00-.78 1.26 1.862 1.862 0 00-.12 1.5 4.049 4.049 0 00.78 1.32 8.36 8.36 0 01.9 1.14.9.9 0 01.3.9c-.18 1.14-.36 2.22-.54 3.3a30.3 30.3 0 00-.36 3.36 5.85 5.85 0 01-2.52 4.92 1.313 1.313 0 00-.54.6c.3-.06.6-.12.84-.18a3.046 3.046 0 001.08-.54c.6-.54 1.02-.36 1.14.48a34.452 34.452 0 001.56 4.8 7.851 7.851 0 003.66 3.84 9.4 9.4 0 005.28 1.02 6.739 6.739 0 004.79-2.82 32.955 32.955 0 012.64-3.12 22.573 22.573 0 001.5-1.86 6.116 6.116 0 00.96-2.1l.9-4.14a13.223 13.223 0 00.24-2.16v-3.42a5.842 5.842 0 00-.36-2.04 10.731 10.731 0 00-1.86-3.06 7.1 7.1 0 00-2.94-1.98q-3.315-1.17-6.65-2.34c-.78-.12-1.62-.3-2.46-.36-.6-.12-.78-.42-.54-.96q.18-2.25.54-4.5zm-3.18 23.88a2.855 2.855 0 01.3-1.98 4.908 4.908 0 011.2-1.5 52.217 52.217 0 004.14-4.02 2.45 2.45 0 00.36-2.4 3.748 3.748 0 00-3.12-2.22 6.681 6.681 0 01-1.02-.12.636.636 0 01-.54-.78c.06-.36.12-.72.18-1.02a28.22 28.22 0 01.72-3.06.577.577 0 01.54-.48 18.038 18.038 0 012.52.3c.96.18 2.04.42 3.06.66.84.36 1.68.72 2.51 1.08a3.474 3.474 0 011.5.9c.42.48.78.96 1.14 1.44a9.108 9.108 0 011.56 7.98c-.42 1.2-.84 2.46-1.26 3.66a12.829 12.829 0 01-2.94 4.8 19.054 19.054 0 01-4.55 3.42 3.249 3.249 0 01-2.22.66 3.056 3.056 0 01-2.1-.9 4.325 4.325 0 01-1.26-1.98 42.729 42.729 0 01-.72-4.44zm.18-7.26c.12-.72.18-1.5.24-2.22a.5.5 0 01.72-.54 1.693 1.693 0 01.9.24.5.5 0 01.36.72 3.027 3.027 0 01-.42.78l-1.44 2.16-.24.24a.289.289 0 01-.12-.36 2.912 2.912 0 010-1.02zm70.67-4.02c-1.07.12-2.15.3-3.17.48a27.6 27.6 0 00-5.46 1.74 51.913 51.913 0 00-5.22 2.46c-1.5.72-3 1.44-4.44 2.04a24.385 24.385 0 01-4.74 1.56 6.545 6.545 0 01-.66.36c-.36.36-.3.6.12.78.3.06.6.18.9.24a2.984 2.984 0 00.96.18c.84-.12 1.62-.24 2.46-.42a7.042 7.042 0 002.4-.78 57.565 57.565 0 016.24-2.7c2.1-.78 4.2-1.56 6.36-2.34a9.565 9.565 0 013.48-.84 9.976 9.976 0 013.53.3 9.2 9.2 0 011.62.66 3 3 0 011.32 1.14 2.614 2.614 0 01.42 1.68 5.205 5.205 0 01-.3 1.68 3.546 3.546 0 01-.42 1.2 19.04 19.04 0 01-1.92 2.94 24.233 24.233 0 01-2.33 2.52 49.665 49.665 0 01-7.92 6.24 2.61 2.61 0 00-.42.36c.18-.06.36-.06.54-.12.84-.42 1.62-.84 2.4-1.26 1.14-.6 2.22-1.14 3.35-1.8.42-.24.84-.42 1.21-.6a3.359 3.359 0 001.07-.72 16.905 16.905 0 012.76-2.28c.96-.6 1.98-1.26 2.94-1.86a8.369 8.369 0 001.62-1.26 4.978 4.978 0 001.14-1.62 5.054 5.054 0 00.42-2.1 5.62 5.62 0 00-.42-2.22 7.591 7.591 0 00-1.2-1.86 8.483 8.483 0 00-2.4-2.22 7.7 7.7 0 00-3-1.2 14.047 14.047 0 00-3.24-.36zm59.35 20.88l3.71-.24q1.26 0 .54-1.08a3.852 3.852 0 00-2.04-1.86 5.308 5.308 0 00-2.75-.36 41.524 41.524 0 01-7.26-.3 39.466 39.466 0 01-4.44-1.02c-.42-.06-.54-.3-.18-.72.66-1.14 1.38-2.28 2.1-3.42a9.067 9.067 0 012.88-2.76c.18-.12.42-.3.66-.48a.635.635 0 01.78-.06 3.825 3.825 0 01.84.48 2.859 2.859 0 002.7.42.748.748 0 00.18-.72c-.42-.72-.9-1.5-1.32-2.22l-.18-.54a22.7 22.7 0 011.98-1.32c1.2-.66 2.34-1.26 3.41-1.86.9-.72 1.8-1.38 2.76-2.04a13.021 13.021 0 013-1.56 19.989 19.989 0 003-1.5 1.7 1.7 0 00.54-.6 1.413 1.413 0 00.3-.6 2.217 2.217 0 00-1.08-1.26 5.433 5.433 0 00-1.56-.78 3.217 3.217 0 00-1.68-.06 52.2 52.2 0 00-9.71 4.8c-1.08.72-2.16 1.44-3.24 2.04-.42.24-.66.18-.84-.24-.42-1.56-.9-3.18-1.38-4.68a22.971 22.971 0 01-.78-8.34l.18-5.22a3.453 3.453 0 00-1.2-3 .852.852 0 00-1.44.42 10.426 10.426 0 00-.6 1.14 32.208 32.208 0 00-1.08 16.5 17.258 17.258 0 001.44 4.62 22.069 22.069 0 003.42 3.72l.6.6a.484.484 0 01-.06.72 2.107 2.107 0 01-.6.48 3.442 3.442 0 01-.42.24c-2.04 1.56-4.08 3.12-6.06 4.8a1.844 1.844 0 00-.42 2.94 7.9 7.9 0 003.42 3 24.888 24.888 0 005.82 1.38c2.04.24 4.02.42 6.06.54zm5.57-24.06l-.42.42a30.658 30.658 0 01-2.88 2.7c-2.1 1.68-4.19 3.36-6.35 4.98a1.491 1.491 0 01-.48-.06 3.1 3.1 0 01-.36-.78.621.621 0 01.3-.96 1.339 1.339 0 001.08-1.26 1.655 1.655 0 01.72-.84 36.851 36.851 0 014.25-3 26.1 26.1 0 013.66-1.2h.48zm45.19-6.9c.66-.18.96.12.96.78a14.621 14.621 0 00.06 1.62c.12.48-.06.72-.6.72-1.02.24-1.98.42-3 .66-1.8.42-3.54.84-5.34 1.38-.12.12-.3.24-.42.36l.42.24c1.38.24 2.7.42 4.08.54a18.576 18.576 0 004.08-.12c.3 0 .6.06.9.06a3.691 3.691 0 00-.06.78.82.82 0 01-.24.66 19.4 19.4 0 01-7.86 4.5 1.218 1.218 0 00-.72.72 8.635 8.635 0 00.9 2.16 1.471 1.471 0 00.96.36 23.957 23.957 0 004.08-.36 145.924 145.924 0 0116.01-2.52.944.944 0 00.6-.66 2.507 2.507 0 00-1.02-1.2 8.008 8.008 0 00-1.44-.66 2.651 2.651 0 00-1.5-.24c-1.73.24-3.41.6-5.03.9-.48.18-.66 0-.6-.42a13.2 13.2 0 00.3-2.22 1.967 1.967 0 01.36-.48c1.56-.9 3.11-1.74 4.74-2.52a.766.766 0 00.35-1.26c-.83-.72-1.73-1.38-2.57-2.04a1.208 1.208 0 00-1.8-.12c-.42.36-.72.3-1.02-.24a11.258 11.258 0 00-1.08-1.44.607.607 0 00-.24-.42 4.134 4.134 0 01.48-.18 10.554 10.554 0 002.76-.36c2.1-.6 4.07-1.26 6.05-1.98.48-.18.6-.42.3-.84a6.405 6.405 0 00-3.12-2.16.867.867 0 00-.42.12l-6.05 1.74a59.775 59.775 0 01-12.6 2.76 1.317 1.317 0 00-.72.3 1.591 1.591 0 00-.36.3.363.363 0 01.36.18 22 22 0 004.5.66c1.5 0 3.06 0 4.56-.06zm-3.84 12.36h-.6c.06-.06.18-.12.24-.18 1.44-.78 2.88-1.56 4.38-2.28a1.661 1.661 0 01.78-.18 3.69 3.69 0 01.06.84 4.553 4.553 0 01-.06.96.551.551 0 01-.36.24c-1.5.24-2.94.42-4.44.6zm30.65 9.36c.66-.06.84-.36.6-.9a.915.915 0 00-.42-.72 9.838 9.838 0 00-3-2.46 37.7 37.7 0 00-3.54-1.62h-.3a1.359 1.359 0 01-1.14.66 4.877 4.877 0 01-1.32.06 62.273 62.273 0 00-12.05 1.32.559.559 0 01-.9-.36 3.817 3.817 0 00-1.86-2.22 1.877 1.877 0 01-.6-.3.894.894 0 00-.54-.24 20.933 20.933 0 00-2.64 1.2.736.736 0 00-.12.78c.36.36.78.78 1.2 1.14a4.475 4.475 0 00.42.72 2.748 2.748 0 01-.84.42c-1.8.42-3.6.9-5.4 1.38-3.48 1.02-7.02 2.1-10.5 3.18a24.428 24.428 0 00-3 .78 1.257 1.257 0 00-.9.66 1.634 1.634 0 00.48.6 5.415 5.415 0 003.36 1.5 6.631 6.631 0 001.86-.54c3.06-1.08 6.18-2.22 9.3-3.36l4.14-1.38q.54-.27.36.36a16.075 16.075 0 01-5.82 8.64 34.426 34.426 0 01-8.46 4.74 1.823 1.823 0 01-.42.3.892.892 0 00.54.12 16.6 16.6 0 003.36-.42 39.292 39.292 0 005.52-2.22 13.207 13.207 0 005.1-3.6 21.458 21.458 0 011.8-2.16 16.163 16.163 0 001.8-2.22 15.7 15.7 0 001.44-4.08.834.834 0 01.78-.72c2.52-.36 4.97-.66 7.37-1.02a30.131 30.131 0 0113.62 1.74 3.383 3.383 0 01.72.24zm-21.23 4.62a.22.22 0 01-.06.18 1.544 1.544 0 00-.9.06l-.9.6a2.748 2.748 0 00.78.48 31.6 31.6 0 013.36 1.14 55 55 0 015.09 3.12 25.453 25.453 0 014.38 4.02 4.979 4.979 0 003.72 1.74 2.094 2.094 0 00.54-.36 2.422 2.422 0 00.3-2.28 9.275 9.275 0 00-2.58-3.48 22.1 22.1 0 00-6.66-3.48c-2.34-.6-4.67-1.2-7.07-1.74zm7.25-35.52c.48-.12.96-.3 1.5-.42 1.14-.42 2.28-.9 3.36-1.38a1.194 1.194 0 00.42-.96 5.326 5.326 0 00-1.26-2.28 18.423 18.423 0 00-2.04-1.74 2.836 2.836 0 00-3.06-.78 14.659 14.659 0 00-2.87.96 1.877 1.877 0 00-.3.6c.18.06.36.12.6.18.54.12 1.07.3 1.67.42a.578.578 0 01.19.96 30.472 30.472 0 01-2.82 3.42 34.155 34.155 0 01-3.36 3.24 2.094 2.094 0 01-.36.54 3.538 3.538 0 01.48-.24 13.192 13.192 0 017.85-2.52zm-23.93-3.54l.36 1.98a3.085 3.085 0 00.9 1.68c.54.54 1.08 1.02 1.68 1.56a25.5 25.5 0 003.36 1.74 1.2 1.2 0 001.26-.24 2.925 2.925 0 000-1.44 1.931 1.931 0 00-.72-1.08 2.724 2.724 0 01-.3-2.7 1.206 1.206 0 00.24-.48 2 2 0 00-.12-1.02 1.7 1.7 0 00-.78.24 3.538 3.538 0 01-.48.24 3.439 3.439 0 00-.84.24 1.025 1.025 0 01-.84 0 5.333 5.333 0 01-1.68-2.1c-.3-.66-.72-.72-1.32-.3-.24.6-.48 1.14-.72 1.68zm75.78 7.5a6.984 6.984 0 00-4.56-6.6 3.147 3.147 0 00-1.02-.12 2.984 2.984 0 00-.06 1.26 3.814 3.814 0 00.36 1.08 4.722 4.722 0 01.24 1.2 20.243 20.243 0 01-.06 5.04c-.42 4.26-.9 8.52-1.38 12.78a26.036 26.036 0 001.86 12.12 28.448 28.448 0 007.08 10.14 5.091 5.091 0 001.56.66 1.433 1.433 0 01.54.18 1.255 1.255 0 01.36.24 1.341 1.341 0 00.18-.6 1.009 1.009 0 00-.3-.66c-1.56-2.88-3.06-5.82-4.56-8.7-.6-1.38-1.2-2.76-1.68-4.14a15.253 15.253 0 01-1.38-7.08 61.376 61.376 0 012.52-15.48 8.514 8.514 0 00.3-1.32zm68.09 36.6a.967.967 0 001.08-.54 1.646 1.646 0 00.06-1.2 11.008 11.008 0 00-2.4-4.62 51.354 51.354 0 00-6.47-6.12 31.693 31.693 0 00-7.62-4.56 2.568 2.568 0 01-.96-.84 1.287 1.287 0 01-.3-1.2 13.287 13.287 0 012.16-4.2 17.2 17.2 0 013.36-3.24c3.36-2.88 6.84-5.7 10.31-8.46a2.034 2.034 0 00.54-.84 3.165 3.165 0 00-.48-3 7.406 7.406 0 00-2.4-2.16.883.883 0 00-1.31.6 3.277 3.277 0 00-.06 1.08 2.963 2.963 0 01-.78 2.28c-1.26 1.62-2.52 3.18-3.9 4.68a34.963 34.963 0 01-4.38 4.08c-1.14.96-2.22 1.92-3.3 3a16.27 16.27 0 00-2.64 3.42 11.992 11.992 0 00-.6 1.26 2.9 2.9 0 00-.06 1.44 7.338 7.338 0 004.44 4.86 17.767 17.767 0 013.18 1.68 43.3 43.3 0 014.08 3.36 11.227 11.227 0 013.6 5.16 8.082 8.082 0 002.22 2.88 8.254 8.254 0 001.19.9 1.983 1.983 0 001.44.3z" transform="translate(-1033.38 -4286)"/></svg>