<svg id="concept03-thumbnail.svg" xmlns="http://www.w3.org/2000/svg" width="616.938" height="591.59"><defs><style>.cls-5{fill:#dc476a;font-size:32px;font-family:&quot;Zen Maru Gothic&quot;;font-weight:500}</style></defs><g id="beauty"><g id="グループ_19" data-name="グループ 19" fill-rule="evenodd"><path id="楕円形_3" data-name="楕円形 3" d="M959.811 4825c-163.368 0-295.8-132.44-295.8-295.8s132.435-295.81 295.8-295.81" transform="translate(-344.031 -4233.41)" fill="#c36b5d"/><path id="楕円形_3-2" data-name="楕円形 3" d="M959.81 4782.95c-140.289 0-254.015-113.73-254.015-254.02s113.726-254.01 254.015-254.01" transform="translate(-344.031 -4233.41)" fill="#fce7e4"/><path id="楕円形_3_のコピー_2" data-name="楕円形 3 のコピー 2" d="M615.949 371.88a76.06 76.06 0 010-152.12" fill="#fff" stroke="#dc476a" stroke-width="2"/><path id="美容" d="M925.35 4500.2a8.191 8.191 0 012.261 4.06c2.2 1.59 4.205-2.9-1.971-4.26zm-5.683 12.82l.261.84h24.385a.712.712 0 00.783-.47c-1.044-.95-2.784-2.26-2.784-2.26l-1.508 1.89h-7.51v-3.46h8.641a.69.69 0 00.754-.46c-.986-.9-2.639-2.14-2.639-2.14l-1.42 1.76h-5.336v-3.27h10.149a.674.674 0 00.783-.47c-1.073-.95-2.755-2.26-2.755-2.26l-1.508 1.89h-4.755a30.239 30.239 0 003.451-3.25.9.9 0 001.072-.49l-3.3-1.11a38.806 38.806 0 01-2.088 4.85h-13.43l.232.84h9.743v3.27h-8.467l.232.84h8.235v3.46h-11.221zm25.168 5.53a.671.671 0 00.754-.46c-1.044-.96-2.842-2.29-2.842-2.29l-1.537 1.91h-8.5c.145-.75.232-1.53.318-2.35a.953.953 0 00.986-.78l-3.537-.32a20.509 20.509 0 01-.377 3.45h-11.071l.261.84h10.61c-.986 3.22-3.6 5.54-11.134 7.54l.2.55c9.829-1.77 12.555-4.38 13.541-8.09h.435c1.855 4.7 5.393 6.79 11.047 7.95a2.622 2.622 0 011.827-2.15l.028-.32c-5.654-.52-10.032-1.91-12.236-5.48h11.222zm-2.813 17.61a29.649 29.649 0 01-1.421 3.16l.348.23a22.177 22.177 0 003.712-2.96 1.638 1.638 0 001.1-.29l-2.436-2.34-1.334 1.36h-8.581v-2.47a.954.954 0 001.044-.78l-3.421-.32v3.57h-7.916a8.89 8.89 0 00-.348-1.6h-.464a5.815 5.815 0 01-2.2 4.61 1.546 1.546 0 00-.754 1.86c.406.75 1.594.7 2.348.06a5.132 5.132 0 001.479-4.09h18.847zm-7.945 2.06c2.146 1.22 4.93 3.48 5.944 5.39 2.7 1.13 3.335-4.35-5.683-5.68zm-12.12 6.29a20.767 20.767 0 007.539-5.39.86.86 0 001.073-.32l-2.987-1.39a20.587 20.587 0 01-5.915 6.69zm15.078 4.67h-9.743l-1.333-.55a26.1 26.1 0 006.959-6.24 18.227 18.227 0 005.1 5.77zm-9.917 6.46v-5.59H937.3v5.59h-10.182zm3.712-15.04c-1.479 3.71-7.046 8.67-12.12 11.04l.2.41a33.181 33.181 0 005.944-2.76v9.22h.319a2.618 2.618 0 001.942-.72v-1.28H937.3v1.83h.377a3.033 3.033 0 001.913-.7v-7.3a2.34 2.34 0 001.015-.47 26.5 26.5 0 003.219 1.54 2.75 2.75 0 011.971-2l.03-.46c-4.756-1.28-9.8-3.77-12.382-6.88a1.2 1.2 0 001.218-.58z" transform="translate(-344.031 -4233.41)" fill="#dc476a"/></g><g id="グループ_20" data-name="グループ 20"><text id="ビタミンA" class="cls-5" transform="matrix(.725 0 0 .725 472.167 187.848)">ビタミンA</text><text id="コラーゲン" class="cls-5" transform="matrix(.725 0 0 .725 406.916 265.424)">コラーゲン</text><text id="ビタミンB2" class="cls-5" transform="matrix(.725 0 0 .725 405.466 342.995)">ビタミンB2</text><text id="ビタミンE" class="cls-5" transform="matrix(.725 0 0 .725 462.016 419.85)">ビタミンE</text></g></g><path id="シェイプ_5" data-name="シェイプ 5" d="M346.933 4817.84c3.157-.1 5.835-.64 9.126-.31a26.024 26.024 0 009.131-.44 33.326 33.326 0 0113.686-1.28c4.593.46 9.116 1.56 13.7 1.33 2.038-.1 5.4.45 6.857-1.27 1.188-1.4.435-4.92.258-6.65-.215-2.02-.559-4.23-.764-6.31-.4-4.08-.145-8.12-.548-12.25-.42-4.3-.834-8.61.1-12.88.7-3.21.559-6.19.693-9.5.135-3.39 1.183-6.62 1.506-9.98.511-5.27.522-10.34.522-15.64 0-1.02-.565-4.26-.011-5.07.844-1.24 3.1.28 2.839-2.23 5.776-.35 11.8.94 17.849.67 6.84-.31 13.75-.83 20.617-1.2 4.367-.23 8.626-1.52 13.014-1.29 12.025.65 23.57-1.85 35.595-2.13 4.383-.11 9.368-.18 13.659.69 3.963.79 7.572 3.63 11.132 5.44a108.105 108.105 0 0110.3 5.95c10.008 6.63 20.618 12.54 30.7 19.18 11.368 7.5 22.2 16.01 33.836 23.03 1.721 1.04 3.275 2 4.931.49a16.585 16.585 0 012.479-2.23c.672-.42 2.13-2.06 2.952-1.91a8.578 8.578 0 012.151 1.48c1.054.81 2 1.76 3.087 2.53 3.791 2.68 8.163 4.72 12.224 6.97 6.722 3.71 13.729 6.63 20.537 10.13 5.383 2.78 11.868 6.56 16.176 10.83a19.934 19.934 0 012.99 3.39c.682 1.08.914 2.61 1.72 3.55a2.423 2.423 0 01.716.9 3.984 3.984 0 00.285 1.33 4.746 4.746 0 003.371 1.8 6.431 6.431 0 001.958-.09c.145-.03 1.651-.65 1.382-.8.941.49 5.135 1.38 4.953-.73a2.761 2.761 0 002.409.99 3.348 3.348 0 001.339-.11c.075-.04.9-.72.667-.78a6.353 6.353 0 002.016.69c.2 0 2.77-.54 2.033-1.21 1.006.91 2.909.51 2.888-1.04a2.62 2.62 0 00-1.022-1.79 5.422 5.422 0 00-1.936-.57 3.308 3.308 0 00-1.785-2.12 38.263 38.263 0 01-3.291-2.83c-1.377-1.11-2.92-2.07-4.367-3.1a103.349 103.349 0 01-8.325-6.39c-3.065-2.69-6.571-4.5-9.787-6.99q-8.672-6.69-17.079-13.71-4.437-3.72-8.787-7.54c-2.237-1.97-4.033-4.47-6.792-5.62-.092-1.47.167-2.74-.6-3.94-.657-1.01-2.232-2-3.06-3.05-1.592-2.03-3.022-4.05-5.243-5.43-5.932-3.67-13.557-8.02-16.8-14.46-2.307-4.59-4.663-9.35-6.561-14.11-2.581-6.5-2.425-13.63-4.77-20.18-2.3-6.42-7.867-10.57-9.637-17.17-1.823-6.78-3.834-13.47-3.834-20.56 0-8.22.619-16.6-1.1-24.71a37.887 37.887 0 00-4.507-11.7c-1.64-2.72-2.887-5.77-4.592-8.4-1.522-2.35-3.28-4.46-4.969-6.65a3.939 3.939 0 011.672-2.68c2.829 3.21 4.507 4.9 8.879 5.52a25.248 25.248 0 0011.433-.97c-3.77 7.24 8.362 9.68 12.728 7.1 5.566-3.3 8.874-13.49 1.549-17.31 5.781 2.98 6.878-12.14 6.615-15.29-.6-7.02-5.3-14.24-10.481-18.59-3.205-2.68-4.733-2.62-8.147-3.56-2.947-.8-5.3-1.79-8.7-1.3-4.6.66-6.416.1-10.272-2.72-3.893-2.85-3.172 2.02-3.323 5.03-2.441.32-5.668-2.94-5.539 1.84-1.1-4.64-3.581.34-5.329 1.18-1.673.8-2.431-.32-3.356 1.82-.575 1.32-.134 3.21.118 4.5.651 3.32 2.872 5.7.393 8.86a34.268 34.268 0 01-7.76 7.06c-.247-2.71 1.8-6.22 2.689-8.73a81.8 81.8 0 002.893-9.97c1.4-6.54 1.21-12.03 4.786-17.92 3.151-5.19 4.926-10.99 8.131-16.06 3.593-5.66 9.562-8.8 13.891-13.62a83.1 83.1 0 0115.939-13.39c2.979-1.98 6.044-3.81 9.179-5.54 3.781-2.08 4.561-1.25 8.605-.33 2.2.5 4.555 0 6.732-.1 1.361-.06 11.616.97 9.218-2.03-1.657-2.06-5.485.16-7.782-1.82 2.071-4.71 15.386-1.01 16.225-6.83 4.764.78 3.285-4.77-.361-4.6-.806-1.45-2.452-1.2-4.13-1.11-1.559-7.27-29.577 4.75-33.379 7.44-5.845 4.13-11.465 8.7-17.886 12.34-5.888 3.34-11.513 6.6-17.256 10.23-2.49 1.58-5.4 2.5-7.782 4.41-3.936 3.16-7.405 10.79-9.927 15.32-3.657 6.59-8.228 12.96-11.223 19.88-2.624 6.04-4.474 12.37-8.228 17.84-7.227 10.54-17.117 18.92-24.624 29.07-7.556 10.21-11.255 23.08-15.041 34.81-1.194 3.71-3.135 5.8-4.727 9.18-1.436 3.06-1.726 6.55-3.119 9.62-1.925 4.23-4.34 8.09-5.636 12.6-1.075 3.75-3.3 7.48-4.071 11.14.662-3.14-6.4 3.75-4.974 3.13-.936.41-1.99-.94-2.9-.87-2.017.15-4.012.43-6.066.73-9.18 1.31-18.488.38-27.716.8-8.927.42-17.962.68-26.77 1.86-13.853 1.84-11.594 16.79-11.594 27.29 0 8.5-.581 17.16 1.14 25.4 1.344 6.43 1.177 13.22 1.85 19.8.607 5.88 1.14 13.88.016 19.8-1.307 6.91-8.766 11.33-14.611 13.91-3.657 1.63-7.083 3.45-10.852 4.77-1.942.68-4.007.73-5.754 1.96-.619.44-1.119 1.56-1.721 1.85-.656.31-1.447-.08-2.108.17-3.086 1.17-4.103 4.2.247 4.06zm178.193-151.13c4.2-3.98 11.853-11.73 17.886-11.95 6.109-.22 7.438.14 8.228 5.98a116.563 116.563 0 004.571 19.06c1.915 6.15 2.291 11.61 3.291 17.93.963 6.07 4.163 11.53 7.093 17.09 2.135 4.05 4.48 7.92 7.007 11.75 5.437 8.25 9.293 18.29 16.063 25.66-11.083-6.23-18.918-16.98-27.479-26.56-7.432-8.31-16.332-15.7-24.485-23.09a17.823 17.823 0 01-5.162-7.47c-.581-1.52-.1-2.3-1.194-3.73-.9-1.17-2.769-1.34-3.587-2.33-1.511-1.82-1.882-5.42-2.344-7.76-.6-3.04-2.281-5.32-3.071-8.12-.914-3.24.736-4.14 3.183-6.46z" transform="translate(-344.031 -4233.41)" opacity=".3" fill-rule="evenodd"/></svg>