<svg id="concept02-thumbnail.svg" xmlns="http://www.w3.org/2000/svg" width="620.38" height="592"><defs><style>.cls-4{fill-rule:evenodd;fill:#4774dc}</style></defs><g id="health.svg"><g id="グループ_21" data-name="グループ 21"><path id="楕円形_3_のコピー" data-name="楕円形 3 のコピー" d="M957 4073c163.472 0 295.992-132.52 295.992-295.99s-132.52-296-295.992-296" transform="translate(-956 -3481)" fill-rule="evenodd" fill="#5db6c3"/><path id="楕円形_3_のコピー-2" data-name="楕円形 3 のコピー" d="M957 4030.92c140.241 0 253.931-113.84 253.931-254.28S1097.24 3522.36 957 3522.36" transform="translate(-956 -3481)" fill="#e4fcfc" fill-rule="evenodd"/><path id="楕円形_3_のコピー_3" data-name="楕円形 3 のコピー 3" d="M1.01 219.84a76.175 76.175 0 110 152.35" fill="#fff" stroke="#4774dc" stroke-width="2" fill-rule="evenodd"/><path id="健康" class="cls-4" d="M976.274 3755.39a51.99 51.99 0 002.205-6.12.983.983 0 001.1-.61l-3.307-.99a56.5 56.5 0 01-4.7 14.51l.436.26a26.94 26.94 0 002.611-3.77v15.69h.406a2.619 2.619 0 001.741-.66v-17.3a1 1 0 00.9-.52zm14.623 3.31v-3.2h2.93v3.2H990.9zm0-7.14h2.93v3.1H990.9v-3.1zm3.249 8.76a2.7 2.7 0 001.712-.64v-4.18h2.64a.691.691 0 00.755-.46c-.784-.84-2.06-2.03-2.06-2.03l-1.132 1.65h-.2v-2.7a2.507 2.507 0 001.248-.58l-2.437-1.85-1.132 1.19h-2.64v-1.57a.989.989 0 001.044-.81l-3.22-.35v2.73h-3.54l.261.84h3.279v3.1h-5.252l.232.84h5.02v3.2h-3.627l.145.43-2.06-1.8-1.248 1.31H980.6c1.1-2.47 2.263-5.28 2.93-6.99a2.374 2.374 0 001.364-.44l-2.379-2-1.132 1.19h-2.9l.261.84h2.64c-.928 2.55-2.437 6.24-3.743 9.11a2.99 2.99 0 002.089.2l.494-1.1h1.944a34.5 34.5 0 01-1.306 7.98 17.365 17.365 0 01-2.234-5.22l-.406.17a22.166 22.166 0 002.176 6.36 14.281 14.281 0 01-3.395 5.25l.319.4a14.706 14.706 0 004.033-4.23c2.321 2.9 5.716 3.65 10.677 3.65h5.455a1.877 1.877 0 011.335-1.91v-.38c-1.683.03-5.078.03-6.587.03-4.613 0-7.833-.52-10.154-2.7a26.216 26.216 0 002.292-9.11 1.639 1.639 0 00.957-.32l.029.09h3.366v2.93h-4.149l.232.84h3.917v3.1h-5.107l.232.88h4.875v3.59h.406c.812 0 1.77-.46 1.77-.75v-2.84h6.644a.658.658 0 00.754-.47c-.957-.93-2.553-2.15-2.553-2.15l-1.364 1.74H990.9v-3.1h5.454a.653.653 0 00.755-.46c-.929-.87-2.437-2.06-2.437-2.06l-1.335 1.68H990.9v-2.93h2.93v.81h.319zm-6.383 30.85h4.7v2.78h-4.7v-2.78zm0-3.48h4.7v2.67h-4.7v-2.67zm4.7 7.11v1.39h.348a3.9 3.9 0 001.77-.58 39.079 39.079 0 01-3.569 4.06 12.6 12.6 0 01-3.134-4.87h4.585zm2.263.66v-4.29h3.336a.7.7 0 00.726-.44c-.784-.9-2.205-2.2-2.205-2.2l-1.219 1.83h-.638v-2.32a1.926 1.926 0 001.1-.53l-2.5-1.91-1.132 1.25h-4.439v-1.66a1 1 0 001.045-.81l-3.337-.35v2.82h-6.7l.261.84h6.441v2.67h-8.559v-6.47h21.006a.678.678 0 00.755-.47c-1.016-.98-2.757-2.35-2.757-2.35l-1.509 1.97h-7.34v-2.4a.98.98 0 001.073-.79l-3.336-.35v3.54h-7.486l-2.669-1.13v8.48c0 5.16-.2 10.79-2.7 15.31l.406.27c4.091-4.15 4.526-10.1 4.555-14.8h8.559v2.78h-6.934l.261.85h6.673v4.41c-3.975 1.68-7.863 3.22-9.575 3.8l1.886 2.4a.927.927 0 00.465-.78c3.162-2 5.512-3.65 7.224-4.84v3.42c0 .43-.145.58-.667.58-.581 0-3.482-.2-3.482-.2v.43a5.111 5.111 0 012.437.79 2.483 2.483 0 01.639 1.56c2.988-.29 3.365-1.27 3.365-3.02v-6.96c1.567 4.88 4.323 7.81 9.314 9.29a2.508 2.508 0 011.741-2.04v-.31a14.468 14.468 0 01-7.312-3.2 32.476 32.476 0 004.671-2.81.856.856 0 001.1-.23zm-16.48.47a8.744 8.744 0 012.843 3.71c2.118 1.34 3.6-2.84-2.553-3.95z" transform="translate(-956 -3481)"/></g><g id="グループ_22" data-name="グループ 22"><path id="ビタミンA" class="cls-4" d="M1011.01 3623.29a1.06 1.06 0 00.19-.79.987.987 0 00-.41-.72 1.041 1.041 0 00-.8-.19c-1.77.28-3.24.45-4.42.52a12.45 12.45 0 01-2.84-.08 3.375 3.375 0 01-1.61-.65 2.427 2.427 0 01-.66-1.05 6.944 6.944 0 01-.22-2.06v-1.79c1.44-.34 2.92-.72 4.43-1.15s2.96-.87 4.32-1.33a1.048 1.048 0 00.63-1.39 1.1 1.1 0 00-.57-.61 1.041 1.041 0 00-.83-.02 73.602 73.602 0 01-7.98 2.41v-5.57a1.044 1.044 0 00-.315-.75 1.022 1.022 0 00-.754-.31 1.061 1.061 0 00-.767.31 1.01 1.01 0 00-.324.75v9.45a10.67 10.67 0 00.336 2.75 3.958 3.958 0 001.265 2.06 4.92 4.92 0 002.159 1.01 13.274 13.274 0 003.38.18c1.37-.07 3.07-.26 5.09-.57a1 1 0 00.7-.41zm1.99-11.11a.758.758 0 00-.23-.62c-.23-.24-.51-.52-.83-.82s-.6-.54-.81-.71a1.079 1.079 0 00-.6-.22.729.729 0 00-.56.24.656.656 0 00-.21.55.738.738 0 00.25.52 9.486 9.486 0 01.79.77q.39.42.72.81a.878.878 0 00.58.29.738.738 0 00.6-.2.962.962 0 00.3-.61zm1.86-1.98a.764.764 0 00-.25-.59c-.23-.23-.52-.49-.85-.79a7.124 7.124 0 00-.85-.67 1.158 1.158 0 00-.59-.2.705.705 0 00-.57.27.624.624 0 00-.18.55.84.84 0 00.28.52 14.876 14.876 0 011.57 1.51.794.794 0 00.6.26.724.724 0 00.59-.24.845.845 0 00.25-.62zm11.14 12.59a25.992 25.992 0 004.02-3.47c.3.29.58.58.85.88s.52.56.73.81a1.174 1.174 0 00.76.41 1.108 1.108 0 00.82-.22 1.089 1.089 0 00.42-.77 1.13 1.13 0 00-.26-.84c-.24-.3-.53-.63-.84-.96s-.66-.68-1.01-1.03a21.609 21.609 0 001.24-1.77 18.286 18.286 0 001.01-1.83c.69-1.44.81-2.6.33-3.48s-1.55-1.33-3.23-1.33h-2.35q.135-.255.27-.48a4.958 4.958 0 00.22-.47 1.042 1.042 0 00.02-.83.947.947 0 00-.56-.58.993.993 0 00-.81-.03 1.067 1.067 0 00-.6.56 15.456 15.456 0 01-1.59 2.72 21.023 21.023 0 01-2.25 2.61 22.392 22.392 0 01-2.71 2.26.942.942 0 00-.44.68 1.075 1.075 0 00.19.81 1 1 0 00.68.44 1.126 1.126 0 00.8-.16 17.071 17.071 0 001.81-1.49 30.73 30.73 0 003.58-3.95h3.74a1.2 1.2 0 011.17.45 1.575 1.575 0 01-.2 1.32 16.255 16.255 0 01-.86 1.6c-.31.51-.64 1.01-1 1.51-.4-.36-.8-.71-1.19-1.05s-.76-.65-1.1-.95a1.037 1.037 0 00-.79-.22 1.061 1.061 0 00-.72.41.96.96 0 00-.24.76 1.162 1.162 0 00.4.75 11.407 11.407 0 011.03.88c.38.36.79.73 1.22 1.14a21.865 21.865 0 01-3.61 3.1 26.459 26.459 0 01-4.58 2.49 1.054 1.054 0 00-.58.61.956.956 0 00.02.81 1 1 0 00.59.57 1.158 1.158 0 00.82-.01 27.526 27.526 0 004.78-2.66zm29.47 2.67a1.124 1.124 0 00.72-.39 1.086 1.086 0 00.23-.8 1.019 1.019 0 00-.4-.73 32.047 32.047 0 00-2.68-1.86c-1.03-.65-2.09-1.27-3.18-1.88s-2.11-1.12-3.07-1.55a1.084 1.084 0 00-1.44.53 1.111 1.111 0 00-.01.84 1 1 0 00.54.6c.9.39 1.87.86 2.9 1.42s2.05 1.15 3.03 1.77a28 28 0 012.57 1.83 1.015 1.015 0 00.79.22zm-2.01-7.91a.959.959 0 00.66-.46.98.98 0 00.16-.81 1 1 0 00-.46-.68q-.555-.345-1.44-.81c-.59-.31-1.22-.63-1.89-.95s-1.33-.63-1.98-.92-1.2-.51-1.68-.68a.986.986 0 00-.82.07.962.962 0 00-.53.62 1.108 1.108 0 00.06.84 1.021 1.021 0 00.62.53c.4.13.9.32 1.48.57s1.2.53 1.84.84 1.23.6 1.8.9 1.01.57 1.36.8a1.081 1.081 0 00.82.14zm1.44-4.99a1.049 1.049 0 00.68-.42 1.065 1.065 0 00.19-.81 1.021 1.021 0 00-.44-.7q-.51-.345-1.38-.84c-.58-.34-1.21-.68-1.88-1.02s-1.33-.68-1.97-.98-1.17-.54-1.62-.71a.921.921 0 00-.81.01 1.134 1.134 0 00-.56.62.993.993 0 00.02.81 1.118 1.118 0 00.61.56c.41.15.91.36 1.48.63s1.17.55 1.78.87 1.19.63 1.74.94a14.6 14.6 0 011.36.85 1.011 1.011 0 00.8.19zm17.25 9.31c1.37-.71 2.69-1.49 3.98-2.33a41.272 41.272 0 003.5-2.57 17.308 17.308 0 002.51-2.44 1.021 1.021 0 00.23-.79 1.042 1.042 0 00-.39-.72 1.127 1.127 0 00-.79-.24.994.994 0 00-.72.38 17.758 17.758 0 01-2.38 2.37 27.8 27.8 0 01-3.18 2.33 38.529 38.529 0 01-3.66 2.09 32.947 32.947 0 01-3.8 1.66 1.119 1.119 0 00-.62.57 1 1 0 00-.03.83 1.044 1.044 0 001.37.62 32.84 32.84 0 003.98-1.76zm-.82-7.01a1.045 1.045 0 00.71-.42.978.978 0 00.22-.79 1.094 1.094 0 00-.4-.72c-.31-.25-.72-.56-1.23-.94s-1.04-.76-1.57-1.14-.99-.69-1.38-.94a.971.971 0 00-.81-.14 1.079 1.079 0 00-.68.52.97.97 0 00-.11.8 1.106 1.106 0 00.48.66c.39.23.82.51 1.29.83s.95.67 1.42 1.03.89.69 1.26 1.02a.947.947 0 00.8.23zm15.9 9.91a1.092 1.092 0 001.13-.81l1.28-3.34h6.71l1.25 3.34a1.127 1.127 0 001.16.81h.35a.755.755 0 00.72-.31.96.96 0 000-.85l-5.57-14.3a1.137 1.137 0 00-1.16-.79h-.16a1.129 1.129 0 00-1.16.79l-5.58 14.3a.951.951 0 00.02.85.75.75 0 00.7.31h.31zm5.8-13.21l2.6 7.06h-5.27z" transform="translate(-956 -3481)"/><path id="ビタミンB1" class="cls-4" d="M1040.03 3678.42a1.039 1.039 0 00.19-.79.987.987 0 00-.41-.72 1.036 1.036 0 00-.8-.18c-1.77.28-3.24.45-4.42.52a13.058 13.058 0 01-2.84-.08 3.375 3.375 0 01-1.61-.65 2.373 2.373 0 01-.66-1.06 6.868 6.868 0 01-.22-2.05v-1.79c1.44-.34 2.91-.72 4.43-1.15s2.96-.87 4.32-1.33a1.013 1.013 0 00.61-.57 1.085 1.085 0 00.02-.83 1.081 1.081 0 00-1.4-.62c-1.16.43-2.45.86-3.86 1.28s-2.79.81-4.12 1.13v-5.57a1.075 1.075 0 00-1.07-1.07 1.125 1.125 0 00-.77.31 1.051 1.051 0 00-.32.76v9.45a10.854 10.854 0 00.33 2.75 3.969 3.969 0 001.27 2.05 4.821 4.821 0 002.16 1.01 12.774 12.774 0 003.38.19c1.37-.07 3.07-.26 5.09-.57a1.045 1.045 0 00.7-.42zm1.98-11.11a.7.7 0 00-.22-.61c-.23-.25-.51-.52-.83-.83s-.6-.53-.81-.7a1.009 1.009 0 00-.6-.22.736.736 0 00-.57.24.667.667 0 00-.2.55.758.758 0 00.25.52 13.207 13.207 0 011.51 1.58.9.9 0 00.58.29.774.774 0 00.6-.2.974.974 0 00.29-.62zm1.87-1.97a.75.75 0 00-.25-.59c-.23-.23-.52-.5-.85-.79a7.124 7.124 0 00-.85-.67 1.072 1.072 0 00-.59-.2.705.705 0 00-.57.27.6.6 0 00-.18.54.815.815 0 00.28.52 17.2 17.2 0 011.57 1.51.841.841 0 00.6.27.724.724 0 00.59-.24.845.845 0 00.25-.62zm11.13 12.58a25.1 25.1 0 004.03-3.47c.3.3.58.59.85.88s.51.57.73.82a1.162 1.162 0 00.76.4 1.1 1.1 0 001.24-.98 1.13 1.13 0 00-.26-.84q-.375-.465-.84-.96l-1.01-1.04c.44-.57.86-1.16 1.24-1.76a18.286 18.286 0 001.01-1.83c.69-1.44.81-2.6.33-3.49s-1.55-1.32-3.23-1.32h-2.35c.09-.17.18-.33.27-.49a4.806 4.806 0 00.22-.46 1.067 1.067 0 00.02-.84.973.973 0 00-.56-.58.993.993 0 00-.81-.02 1.035 1.035 0 00-.6.56 15.389 15.389 0 01-1.59 2.71 19.667 19.667 0 01-2.25 2.61 22.476 22.476 0 01-2.71 2.27.923.923 0 00-.44.67 1.055 1.055 0 00.19.81.951.951 0 00.68.44 1.078 1.078 0 00.8-.16 16.673 16.673 0 001.81-1.48c.64-.59 1.26-1.23 1.88-1.91s1.19-1.36 1.7-2.04h3.74a1.221 1.221 0 011.17.44 1.609 1.609 0 01-.2 1.32 16.425 16.425 0 01-.86 1.61c-.31.51-.64 1.01-1 1.51-.4-.36-.8-.71-1.19-1.05s-.77-.66-1.11-.95a.966.966 0 00-.78-.22 1.05 1.05 0 00-.72.4.983.983 0 00-.24.77 1.119 1.119 0 00.4.74c.31.24.65.53 1.03.89s.79.73 1.22 1.13a21.8 21.8 0 01-3.61 3.1 25.577 25.577 0 01-4.59 2.5 1.068 1.068 0 00-.58.6.993.993 0 00.03.81 1 1 0 00.59.57 1.107 1.107 0 00.82-.01 26.452 26.452 0 004.77-2.66zm29.48 2.67a1.112 1.112 0 00.72-.38 1.086 1.086 0 00.23-.8 1 1 0 00-.4-.73 32.047 32.047 0 00-2.68-1.86c-1.03-.65-2.09-1.28-3.18-1.88s-2.11-1.12-3.07-1.56a1.1 1.1 0 00-1.44.54 1.135 1.135 0 00-.02.83 1.1 1.1 0 00.55.61c.9.38 1.87.86 2.9 1.41s2.05 1.15 3.03 1.78a29.493 29.493 0 012.57 1.82.978.978 0 00.79.22zm-2.01-7.9a1.107 1.107 0 00.82-1.28.978.978 0 00-.46-.67q-.555-.345-1.44-.81t-1.89-.96c-.68-.32-1.33-.63-1.98-.91s-1.2-.52-1.68-.69a1.025 1.025 0 00-.82.07 1 1 0 00-.53.63 1.083 1.083 0 00.06.83 1.006 1.006 0 00.62.54 13.3 13.3 0 011.48.57c.59.25 1.2.53 1.84.83s1.23.61 1.8.91a15.632 15.632 0 011.35.8 1.162 1.162 0 00.83.14zm1.44-4.99a1.049 1.049 0 00.68-.42 1.12 1.12 0 00.19-.81 1.034 1.034 0 00-.44-.7c-.34-.23-.8-.51-1.38-.85s-1.21-.67-1.88-1.02-1.33-.67-1.97-.97-1.17-.54-1.62-.71a.889.889 0 00-.81.01 1.115 1.115 0 00-.56.61 1.017 1.017 0 00.02.82 1.067 1.067 0 00.61.55c.41.16.91.37 1.48.63s1.17.55 1.78.87 1.19.63 1.74.94a14.458 14.458 0 011.36.86 1.084 1.084 0 00.8.19zm17.25 9.31c1.37-.72 2.69-1.49 3.98-2.34a41.247 41.247 0 003.5-2.56 17.845 17.845 0 002.51-2.44 1.021 1.021 0 00.23-.79 1.042 1.042 0 00-.39-.72 1.082 1.082 0 00-.79-.24.959.959 0 00-.72.38 19.726 19.726 0 01-2.38 2.37 30.417 30.417 0 01-3.18 2.33 40.831 40.831 0 01-3.66 2.09 35.636 35.636 0 01-3.8 1.66 1.119 1.119 0 00-.62.57.979.979 0 00-.03.82 1.067 1.067 0 00.55.61 1.017 1.017 0 00.82.02 32.84 32.84 0 003.98-1.76zm-.82-7.02a1 1 0 00.71-.41.988.988 0 00.22-.79 1.05 1.05 0 00-.4-.72c-.31-.25-.72-.56-1.23-.94s-1.04-.76-1.57-1.14-1-.69-1.38-.94a.937.937 0 00-.81-.14 1.1 1.1 0 00-.68.51.981.981 0 00-.11.8 1.051 1.051 0 00.48.66c.39.24.82.51 1.29.84s.95.67 1.42 1.02.89.7 1.26 1.02a.947.947 0 00.8.23zm22.6 9.92a5.7 5.7 0 003.75-1.09 4.058 4.058 0 001.29-3.28 4.408 4.408 0 00-.85-2.72 3.635 3.635 0 00-2.17-1.46 3.287 3.287 0 001.65-1.3 3.96 3.96 0 00.63-2.29 3.855 3.855 0 00-1.22-3.06 5.01 5.01 0 00-3.38-1.05h-5.43a.892.892 0 00-1 1.02v14.21a.892.892 0 001 1.02h5.73zm-4.62-7.36h4.35a3.293 3.293 0 012.18.72 2.932 2.932 0 01.14 4 3.4 3.4 0 01-2.3.64h-4.37v-5.36zm0-6.9h3.95c1.78 0 2.67.81 2.67 2.42a2.289 2.289 0 01-2.53 2.46h-4.09v-4.88zm17.04 13.14v-14.06c0-.75-.26-1.12-.79-1.12a2.438 2.438 0 00-1.34.4l-3.02 1.85a.917.917 0 00-.39 1.44.88.88 0 001.44.23l2.13-1.34v12.6a.938.938 0 001 1.12.927.927 0 00.97-1.12z" transform="translate(-956 -3481)"/><path id="ビタミンD" class="cls-4" d="M1061.79 3733.56a1.008 1.008 0 00.19-.79.956.956 0 00-.41-.72 1.074 1.074 0 00-.8-.19c-1.76.28-3.24.46-4.42.53a12.267 12.267 0 01-2.83-.09 3.417 3.417 0 01-1.62-.65 2.427 2.427 0 01-.66-1.05 6.944 6.944 0 01-.22-2.06v-1.78c1.44-.34 2.92-.73 4.44-1.15s2.95-.87 4.31-1.34a1.031 1.031 0 00.62-.57 1.017 1.017 0 00.01-.82 1.052 1.052 0 00-.57-.6.979.979 0 00-.82-.03q-1.74.66-3.87 1.29c-1.41.43-2.79.8-4.12 1.13v-5.57a1.059 1.059 0 00-1.07-1.07 1.042 1.042 0 00-.76.31 1.007 1.007 0 00-.33.76v9.44a10.541 10.541 0 00.34 2.76 3.994 3.994 0 001.26 2.05 4.821 4.821 0 002.16 1.01 13.72 13.72 0 003.38.19q2.055-.105 5.1-.57a1.047 1.047 0 00.69-.42zm1.99-11.11a.762.762 0 00-.22-.62c-.23-.24-.51-.52-.84-.82s-.59-.54-.81-.71a1.049 1.049 0 00-.59-.22.747.747 0 00-.57.25.626.626 0 00-.21.54.749.749 0 00.26.52 16.243 16.243 0 011.5 1.58.878.878 0 00.58.29.742.742 0 00.61-.19.974.974 0 00.29-.62zm1.87-1.97a.794.794 0 00-.26-.6c-.23-.23-.51-.49-.85-.78a8.38 8.38 0 00-.84-.68 1.224 1.224 0 00-.59-.2.77.77 0 00-.57.27.613.613 0 00-.19.55.815.815 0 00.28.52 16.054 16.054 0 011.58 1.51.8.8 0 00.59.27.75.75 0 00.59-.25.832.832 0 00.26-.61zm11.13 12.58a26.549 26.549 0 004.03-3.47c.29.29.57.59.84.88s.52.57.74.81a1.132 1.132 0 00.75.41 1.116 1.116 0 00.99-1.82c-.25-.31-.53-.63-.85-.97s-.65-.67-1.01-1.03a20.752 20.752 0 001.24-1.76 17.557 17.557 0 001.01-1.84c.7-1.44.81-2.6.34-3.48s-1.55-1.32-3.24-1.32h-2.35c.1-.17.19-.34.27-.49a3.81 3.81 0 00.22-.46 1.068 1.068 0 00.03-.84 1.065 1.065 0 00-1.37-.6 1.067 1.067 0 00-.61.55 15.1 15.1 0 01-1.59 2.72 21.023 21.023 0 01-2.25 2.61 22.3 22.3 0 01-2.7 2.26.954.954 0 00-.45.68 1.12 1.12 0 00.19.81 1 1 0 00.68.44 1.152 1.152 0 00.81-.16 17.889 17.889 0 001.81-1.49c.63-.59 1.26-1.22 1.88-1.9s1.18-1.36 1.69-2.04h3.74a1.2 1.2 0 011.17.44 1.575 1.575 0 01-.2 1.32 18.623 18.623 0 01-1.85 3.11c-.41-.35-.8-.7-1.2-1.04s-.76-.66-1.1-.96a1.067 1.067 0 00-.79-.22 1.107 1.107 0 00-.72.41.965.965 0 00-.23.77 1.106 1.106 0 00.39.74 13.276 13.276 0 011.04.88c.37.36.78.74 1.21 1.14a21.865 21.865 0 01-3.61 3.1 25.8 25.8 0 01-4.58 2.49 1.085 1.085 0 00-.58.61.993.993 0 00.02.81 1.031 1.031 0 00.59.57 1.134 1.134 0 00.83-.01 27.076 27.076 0 004.77-2.66zm29.47 2.67a1.158 1.158 0 00.72-.38 1.056 1.056 0 00.23-.8 1.045 1.045 0 00-.39-.74c-.76-.58-1.65-1.2-2.68-1.85s-2.09-1.28-3.18-1.88-2.12-1.13-3.08-1.56a1.067 1.067 0 00-.84-.02 1.082 1.082 0 00-.6.55 1.16 1.16 0 00-.01.84 1 1 0 00.54.6c.9.39 1.87.86 2.91 1.42s2.04 1.15 3.03 1.78a27.26 27.26 0 012.56 1.82 1.026 1.026 0 00.79.22zm-2.01-7.91a.959.959 0 00.66-.46 1.022 1.022 0 00.17-.81 1.043 1.043 0 00-.47-.68q-.555-.345-1.44-.81c-.59-.31-1.22-.63-1.89-.95s-1.33-.63-1.97-.92-1.21-.51-1.69-.68a1.028 1.028 0 00-.82.07 1 1 0 00-.52.62 1.061 1.061 0 00.06.84 1 1 0 00.61.53c.4.13.9.32 1.49.57s1.2.54 1.83.84 1.24.6 1.8.9 1.02.57 1.36.8a1.045 1.045 0 00.82.14zm1.44-4.99a1 1 0 00.69-.41 1.084 1.084 0 00.18-.82.969.969 0 00-.44-.69c-.34-.24-.8-.52-1.38-.85s-1.21-.67-1.88-1.02-1.33-.68-1.96-.98-1.18-.54-1.63-.71a.889.889 0 00-.81.02 1.118 1.118 0 00-.56.61.955.955 0 00.03.81 1.035 1.035 0 00.6.56c.42.16.91.36 1.49.63s1.16.55 1.77.87 1.19.63 1.74.94a12.662 12.662 0 011.36.86 1.054 1.054 0 00.8.18zm17.25 9.31a45 45 0 003.98-2.33 38 38 0 003.51-2.57 18.4 18.4 0 002.51-2.43 1.087 1.087 0 00.23-.79 1.014 1.014 0 00-.4-.72 1.076 1.076 0 00-.79-.25 1.006 1.006 0 00-.72.39 17.724 17.724 0 01-2.38 2.36 29.087 29.087 0 01-3.18 2.34c-1.17.75-2.38 1.44-3.65 2.09a36.965 36.965 0 01-3.81 1.66 1.116 1.116 0 00-.62.57.979.979 0 00-.03.82 1.035 1.035 0 00.56.6.955.955 0 00.81.03 34.614 34.614 0 003.98-1.77zm-.81-7.01a1.03 1.03 0 00.71-.42 1.015 1.015 0 00.22-.79 1.107 1.107 0 00-.41-.72c-.31-.24-.72-.56-1.23-.94s-1.03-.75-1.57-1.13-.99-.7-1.38-.94a.937.937 0 00-.81-.14 1.015 1.015 0 00-.67.51.942.942 0 00-.12.8 1.065 1.065 0 00.49.66q.57.345 1.29.84.7.48 1.41 1.02c.47.35.9.69 1.27 1.02a.938.938 0 00.8.23zm20.86 9.91a8.627 8.627 0 004.3-.99 6.547 6.547 0 002.67-2.84 10.509 10.509 0 000-8.6 6.608 6.608 0 00-2.67-2.82 8.627 8.627 0 00-4.3-1h-3.9a.974.974 0 00-1.09 1.12v14.02a.971.971 0 001.09 1.11h3.9zm-2.88-14.25h2.74a6.17 6.17 0 013.24.78 4.849 4.849 0 011.93 2.15 8.063 8.063 0 010 6.39 4.873 4.873 0 01-1.93 2.16 6.17 6.17 0 01-3.24.78h-2.74v-12.26z" transform="translate(-956 -3481)"/><path id="カルシウム" class="cls-4" d="M1077.42 3790.99a1.071 1.071 0 00.74-.32 22.474 22.474 0 003.53-5.32 32.065 32.065 0 002.37-6.68l1.51-.07a4.981 4.981 0 012.33.26 1.679 1.679 0 01.93 1.4 10.123 10.123 0 01-.2 2.98 14.176 14.176 0 01-.78 2.9 3.865 3.865 0 01-1.04 1.54 2.46 2.46 0 01-1.29.55 5.61 5.61 0 01-1.51-.07 1.041 1.041 0 00-.8.19 1.023 1.023 0 00-.43.69.983.983 0 00.17.8 1.05 1.05 0 00.71.43 6.65 6.65 0 003.24-.17 4.544 4.544 0 002.37-2.03 12.943 12.943 0 001.47-4.48 11.4 11.4 0 00.12-4.15 3.271 3.271 0 00-1.61-2.31 7.112 7.112 0 00-3.75-.6l-1.03.02c.1-.63.18-1.26.25-1.89s.11-1.26.13-1.89a1.032 1.032 0 00-.28-.78 1.1 1.1 0 00-.75-.34 1.03 1.03 0 00-.76.28 1.063 1.063 0 00-.35.75c-.03.68-.08 1.35-.14 2.02a17.948 17.948 0 01-.28 1.95l-4.87.2a1.126 1.126 0 00-.75.35 1.023 1.023 0 00-.27.79 1.072 1.072 0 00.34.75 1 1 0 00.77.27l4.36-.23a26.313 26.313 0 01-2.07 5.75 19.91 19.91 0 01-3.22 4.68 1.015 1.015 0 00-.28.76 1.06 1.06 0 00.35.74.965.965 0 00.77.28zm37.9-5.09c.87-.38 1.67-.77 2.4-1.15a1.1 1.1 0 00.46-1.44 1.108 1.108 0 00-.64-.54 1.063 1.063 0 00-.82.07 39.305 39.305 0 01-4.71 2.07 3.418 3.418 0 01-2.46.26 1.6 1.6 0 01-.79-1.61v-7.12a1.064 1.064 0 00-.32-.78 1.1 1.1 0 00-1.53 0 1.055 1.055 0 00-.31.78v7.12a4.4 4.4 0 00.79 2.88 2.936 2.936 0 002.19 1.05 7.994 7.994 0 003.19-.56c.82-.31 1.67-.65 2.55-1.03zm-14.08-.04a10.935 10.935 0 002.25-3.64 12.871 12.871 0 00.79-4.53 1.093 1.093 0 00-1.07-1.07 1.091 1.091 0 00-.77.32 1.013 1.013 0 00-.32.75 12.478 12.478 0 01-.47 3.41 8.052 8.052 0 01-1.6 3.01 8.649 8.649 0 01-3.18 2.26 1 1 0 00-.56.58 1.213 1.213 0 000 .84 1.118 1.118 0 00.61.56.993.993 0 00.81-.03 10.7 10.7 0 003.51-2.46zm27.22 2.09a34.7 34.7 0 004.02-2.55 31.974 31.974 0 003.6-3.03 20.222 20.222 0 002.67-3.12 1.084 1.084 0 00.18-.82 1.1 1.1 0 00-1.26-.84 1.017 1.017 0 00-.68.45 20.686 20.686 0 01-2.51 2.96 28.409 28.409 0 01-3.26 2.76 31.5 31.5 0 01-3.67 2.29 23.619 23.619 0 01-3.7 1.58 1.067 1.067 0 00-.63.53 1 1 0 00-.07.81 1.05 1.05 0 00.54.63 1 1 0 00.81.07 22.857 22.857 0 003.96-1.72zm-1.95-5.49a.966.966 0 00.7-.36 1.034 1.034 0 00.27-.8.979.979 0 00-.38-.73c-.28-.22-.65-.47-1.12-.77s-.94-.58-1.44-.86-.92-.5-1.3-.67a1.081 1.081 0 00-.81-.05 1.119 1.119 0 00-.63.54 1.107 1.107 0 00-.05.82.928.928 0 00.54.62 10.954 10.954 0 011.09.57c.45.25.89.52 1.33.79s.76.5 1 .68a1.2 1.2 0 00.8.22zm2.47-4.01a1.011 1.011 0 00.74-.34 1.039 1.039 0 00-.05-1.51 9.725 9.725 0 00-1.07-.85c-.46-.31-.93-.62-1.4-.93s-.88-.54-1.24-.73a1.055 1.055 0 00-.8-.1.982.982 0 00-.66.5.959.959 0 00-.12.81 1.015 1.015 0 00.51.65 11.379 11.379 0 011.07.63c.43.27.86.56 1.29.84a7.431 7.431 0 01.96.74 1.088 1.088 0 00.77.29zm26.96 9.87a13.661 13.661 0 002.99-3.25 12.472 12.472 0 001.53-3.36 13.872 13.872 0 00.5-2.52 2.689 2.689 0 00-.59-1.89 3.629 3.629 0 00-1.99-1.25 15.622 15.622 0 00-3.66-.4v-2.93a1 1 0 00-.31-.76 1.06 1.06 0 00-.75-.31 1.107 1.107 0 00-.77.31.969.969 0 00-.32.76v2.93a23.85 23.85 0 00-2.69.16 6.438 6.438 0 00-1.76.44 3.307 3.307 0 00-1.17.84 2.866 2.866 0 00-.77 1.99 20.017 20.017 0 00.3 3.21 1.023 1.023 0 00.43.69 1.041 1.041 0 00.8.19 1.021 1.021 0 00.7-.43 1.084 1.084 0 00.19-.8 14 14 0 01-.25-2.35 1.687 1.687 0 01.27-1.04 1.588 1.588 0 01.8-.51 6.678 6.678 0 011.5-.22c.65-.04 1.51-.06 2.6-.06a22.848 22.848 0 013.37.19 2.317 2.317 0 011.62.72 1.379 1.379 0 01.18.91 8.924 8.924 0 01-.3 1.55 9.851 9.851 0 01-1.32 2.87 11.454 11.454 0 01-2.55 2.7 18.78 18.78 0 01-4.21 2.37.932.932 0 00-.55.58 1.035 1.035 0 000 .81 1.087 1.087 0 001.41.58 19.105 19.105 0 004.77-2.72zm29.5-.01a.939.939 0 00-.09-.8q-.375-.645-1.08-1.62c-.48-.65-1-1.34-1.56-2.05s-1.11-1.37-1.63-1.99-.95-1.12-1.31-1.49a1.011 1.011 0 00-.74-.34 1.1 1.1 0 00-.77.29 1.085 1.085 0 00-.33.76 1.069 1.069 0 00.29.78c.31.31.66.68 1.05 1.12s.79.91 1.18 1.41c-1.09.15-2.29.3-3.62.45s-2.64.28-3.93.41q.96-1.44 1.89-3.09c.63-1.1 1.21-2.18 1.73-3.24s.97-2.02 1.33-2.89a1 1 0 000-.83 1.051 1.051 0 00-.61-.56.911.911 0 00-.82 0 1.052 1.052 0 00-.57.6c-.28.7-.63 1.49-1.04 2.38s-.88 1.81-1.37 2.75-1.01 1.86-1.55 2.74-1.05 1.67-1.57 2.37c-.34.03-.66.06-.97.08s-.6.05-.86.08a1.019 1.019 0 00-.73.35 1.1 1.1 0 00-.27.79 1.03 1.03 0 00.36.73 1.128 1.128 0 00.78.27c.93-.08 1.97-.18 3.11-.29s2.32-.25 3.53-.4 2.38-.3 3.52-.46 2.15-.32 3.05-.48q.54.72.96 1.35a11.556 11.556 0 01.66 1.04 1.091 1.091 0 00.64.51.928.928 0 00.8-.07 1.106 1.106 0 00.54-.66z" transform="translate(-956 -3481)"/><path id="DHA_EPA" data-name="DHA・EPA" class="cls-4" d="M1050.12 3843.87a8.627 8.627 0 004.3-1 6.577 6.577 0 002.67-2.83 10.532 10.532 0 000-8.61 6.608 6.608 0 00-2.67-2.82 8.627 8.627 0 00-4.3-.99h-3.9a.971.971 0 00-1.09 1.11v14.02a.978.978 0 001.09 1.12h3.9zm-2.88-14.26h2.74a6.17 6.17 0 013.24.78 4.908 4.908 0 011.93 2.15 8.177 8.177 0 010 6.39 4.933 4.933 0 01-1.93 2.16 6.17 6.17 0 01-3.24.78h-2.74v-12.26zm14.62 14.26a.9.9 0 001-1.03v-6.52h8.15v6.52a.9.9 0 001 1.03h.14a.9.9 0 001-1.03v-14.2a.9.9 0 00-1-1.02h-.14a.892.892 0 00-1 1.02v5.71h-8.15v-5.71a.892.892 0 00-1-1.02h-.11a.892.892 0 00-1 1.02v14.2a.9.9 0 001 1.03h.11zm14.86 0a1.119 1.119 0 001.14-.82l1.28-3.34h6.7l1.26 3.34a1.12 1.12 0 001.16.82h.35a.781.781 0 00.72-.32 1.032 1.032 0 000-.85l-5.57-14.3a1.153 1.153 0 00-1.17-.78h-.16a1.14 1.14 0 00-1.16.78l-5.57 14.3a.989.989 0 00.01.85.774.774 0 00.71.32h.3zm5.8-13.21l2.6 7.05h-5.26zm20.81 5.97a2.259 2.259 0 00-3.2-3.19 2.259 2.259 0 103.2 3.19zm21.47 7.24a1.005 1.005 0 100-2h-7.57v-5.29h6.57a1.013 1.013 0 100-2.02h-6.57v-4.95h7.29a1 1 0 100-1.99h-8.31a.971.971 0 00-1.09 1.11v14.02a.978.978 0 001.09 1.12h8.59zm5.97-1.12v-6.15h5.15a5.264 5.264 0 003.56-1.09 4.285 4.285 0 001.27-3.44 4.173 4.173 0 00-1.27-3.39 5.364 5.364 0 00-3.56-1.06h-6.18a.965.965 0 00-1.09 1.09v14.04a1.062 1.062 0 102.12 0zm0-13.14h4.89a3.357 3.357 0 012.13.58 2.262 2.262 0 01.73 1.88 2.335 2.335 0 01-.73 1.92 3.357 3.357 0 01-2.13.59h-4.89v-4.97zm12.53 14.26a1.119 1.119 0 001.14-.82l1.28-3.34h6.71l1.25 3.34a1.127 1.127 0 001.16.82h.35a.781.781 0 00.72-.32 1.032 1.032 0 000-.85l-5.57-14.3a1.14 1.14 0 00-1.16-.78h-.17a1.14 1.14 0 00-1.16.78l-5.57 14.3a.989.989 0 00.01.85.774.774 0 00.71.32h.3zm5.81-13.21l2.6 7.05h-5.27z" transform="translate(-956 -3481)"/><path id="不飽和脂肪酸" class="cls-4" d="M1026.88 3897.13a1.077 1.077 0 00.32-.8v-14c.28-.34.56-.68.83-1.03s.53-.69.77-1.03h6.32a.982.982 0 00.72-.3 1.015 1.015 0 00.3-.72.982.982 0 00-.3-.72.954.954 0 00-.72-.31h-18.53a.97.97 0 00-.72.31.982.982 0 00-.3.72 1.015 1.015 0 00.3.72 1 1 0 00.72.3h9.66a29.992 29.992 0 01-2.91 3.07 38.556 38.556 0 01-3.66 3.01 29.7 29.7 0 01-3.95 2.44 1.015 1.015 0 00-.62.68 1.094 1.094 0 00.11.85 1.047 1.047 0 00.71.53 1.167 1.167 0 00.87-.14 35.08 35.08 0 004.34-2.71 31.946 31.946 0 003.83-3.28v11.61a1.056 1.056 0 00.34.8 1.123 1.123 0 001.57 0zm8.45-6.14a1.1 1.1 0 00.83-.35 1.039 1.039 0 00.34-.82 1.09 1.09 0 00-.38-.8c-.39-.36-.85-.76-1.38-1.21s-1.1-.91-1.69-1.39-1.17-.95-1.75-1.39-1.12-.85-1.61-1.19a1.031 1.031 0 00-.79-.18 1.011 1.011 0 00-.68.39 1.027 1.027 0 00-.2.71.864.864 0 00.34.66 63.114 63.114 0 013.2 2.59c.57.49 1.1.96 1.62 1.43s.96.88 1.34 1.25a1.127 1.127 0 00.81.3zm20.08 6.5a8.9 8.9 0 002.36-.26 2.549 2.549 0 001.39-.97 5.06 5.06 0 00.75-1.92 1.064 1.064 0 00-.05-.77.87.87 0 00-.55-.46 1.24 1.24 0 00-.85.01.815.815 0 00-.52.61 3.572 3.572 0 01-.41 1.16 1.228 1.228 0 01-.75.55 5.691 5.691 0 01-1.51.15h-1.9a3.069 3.069 0 01-1.62-.3 1.517 1.517 0 01-.43-1.28v-2.65a1.545 1.545 0 01.26-1.02 1.454 1.454 0 011.04-.28 4.039 4.039 0 001.54-.24 1.469 1.469 0 00.79-.92 6.233 6.233 0 00.23-1.9 6.361 6.361 0 00-.23-1.93 1.5 1.5 0 00-.82-.93 4.133 4.133 0 00-1.62-.25h-2.65c.2-.31.4-.64.58-.99s.37-.7.56-1.05h4.04a2.269 2.269 0 011.53.37 1.813 1.813 0 01.37 1.39c0 .43-.01.92-.02 1.46l-.06 1.62c-.02.53-.05 1.01-.07 1.45a8.077 8.077 0 01-.1.99 2.726 2.726 0 01-.26.82.882.882 0 01-.54.38 6.68 6.68 0 01-1.13.17.9.9 0 00-.7.35 1.125 1.125 0 00-.18.77.894.894 0 00.36.65 1.26 1.26 0 00.75.23 4.753 4.753 0 002.54-.6 2.956 2.956 0 001.04-2.09c.1-.73.18-1.66.23-2.8s.08-2.36.09-3.68a3.364 3.364 0 00-.8-2.53 3.921 3.921 0 00-2.68-.74h-3.6a18.39 18.39 0 00.77-2.16.939.939 0 00-.06-.72.916.916 0 00-.57-.44.976.976 0 00-.77.07.931.931 0 00-.46.58 22.354 22.354 0 01-.78 2.13c-.33.79-.71 1.57-1.12 2.34a16.394 16.394 0 01-1.33 2.07.792.792 0 00-.14.68.887.887 0 00.42.56 1.063 1.063 0 00.7.12 1.05 1.05 0 00.62-.33.987.987 0 00.28.52.808.808 0 00.58.22h1.88a2.109 2.109 0 011.17.21 1.51 1.51 0 01.25 1.09 1.463 1.463 0 01-.27 1.08 1.945 1.945 0 01-1.15.22 2.643 2.643 0 00-1.95.56 2.827 2.827 0 00-.53 1.95v3.57a2.9 2.9 0 00.88 2.44 5.07 5.07 0 003 .67h2.18zm-13.92-.64c.77-.24 1.54-.49 2.32-.75s1.46-.5 2.03-.72c.11.22.22.43.32.65a6.228 6.228 0 01.24.6.855.855 0 00.52.5.954.954 0 00.74-.03.98.98 0 00.52-.52.887.887 0 00-.04-.76c-.14-.32-.33-.71-.57-1.16s-.49-.9-.75-1.36-.5-.84-.7-1.15a.893.893 0 00-.57-.4.945.945 0 00-.68.08.927.927 0 00-.43.5.667.667 0 00.06.64 2.973 2.973 0 01.24.37c.09.14.17.28.25.41q-.585.21-1.32.45c-.48.15-.98.31-1.49.46v-3.57h2.67a2.877 2.877 0 002.04-.56 2.569 2.569 0 00.56-1.86v-3.04a2.6 2.6 0 00-.54-1.83 2.5 2.5 0 00-1.9-.58h-.21v-1.56a.824.824 0 00-.27-.64.926.926 0 00-.64-.24.987.987 0 00-.65.24.824.824 0 00-.27.64v1.56h-.26a2.637 2.637 0 00-1.89.53 2.45 2.45 0 00-.55 1.81v9.68c-.23.06-.46.12-.68.19l-.62.16a.809.809 0 00-.61.43 1.006 1.006 0 00-.08.75.933.933 0 00.46.61 1.112 1.112 0 00.79.07c.54-.16 1.2-.36 1.96-.6zm-.59-14.71c.45-.45.88-.89 1.3-1.35a15.213 15.213 0 001.04-1.24.924.924 0 01.61-.43.9.9 0 01.63.36c.2.2.44.44.74.71s.59.54.89.81.56.51.78.71a1.014 1.014 0 00.74.25.867.867 0 00.68-.35 1.011 1.011 0 00.23-.69.8.8 0 00-.35-.61c-.28-.21-.6-.47-.98-.76s-.73-.6-1.09-.91-.65-.58-.88-.81a2 2 0 00-1.55-.71 2.115 2.115 0 00-1.47.92c-.28.35-.65.78-1.11 1.28s-.95.97-1.44 1.45-.94.87-1.32 1.19a.895.895 0 00-.1 1.28.872.872 0 00.67.31.982.982 0 00.7-.24c.41-.34.83-.73 1.28-1.17zm1.28 5.74h3.36v.47a1.212 1.212 0 01-.21.85 1.289 1.289 0 01-.88.21h-2.27v-1.53zm0-2.02a1.084 1.084 0 01.21-.79 1.507 1.507 0 01.9-.18h1.16a1.37 1.37 0 01.88.19 1.23 1.23 0 01.21.85v.44h-3.36v-.51zm39.09 8.77a3.913 3.913 0 00.95-2.96v-8.11a3.934 3.934 0 00-.95-2.98 6.939 6.939 0 00-6.8 0 3.934 3.934 0 00-.95 2.98v8.08a3.944 3.944 0 00.95 2.99 6.939 6.939 0 006.8 0zm-12.84 3.08a.994.994 0 00.31-.75v-8.15c.37.45.75.88 1.16 1.3s.75.76 1.04 1.02a1.125 1.125 0 00.77.28.934.934 0 00.72-.32 1.064 1.064 0 00.24-.77.92.92 0 00-.38-.7 12.015 12.015 0 01-1.16-1q-.675-.615-1.32-1.32c-.42-.46-.78-.87-1.07-1.23v-.9h3.04a.883.883 0 00.69-.29 1.039 1.039 0 00.26-.69.954.954 0 00-.26-.67.876.876 0 00-.69-.28h-3.04v-3.51c.52-.15 1.02-.3 1.49-.45s.88-.28 1.22-.41a.864.864 0 00.54-.48 1.13 1.13 0 000-.77 1.015 1.015 0 00-.55-.58.973.973 0 00-.8.02c-.42.17-.93.36-1.55.55s-1.26.38-1.97.56-1.4.33-2.09.47-1.3.25-1.84.33a.856.856 0 00-.64.36.877.877 0 00-.13.73 1.017 1.017 0 00.45.66 1.206 1.206 0 00.78.13c.45-.08.93-.17 1.45-.27s1.04-.21 1.57-.34v3h-3.79a.876.876 0 00-.69.28.954.954 0 00-.26.67 1.039 1.039 0 00.26.69.883.883 0 00.69.29h3.67c-.23.51-.53 1.07-.89 1.7s-.77 1.26-1.21 1.88-.88 1.22-1.31 1.78a17.776 17.776 0 01-1.18 1.39.787.787 0 00-.25.72.989.989 0 00.39.67.966.966 0 00.77.18 1.393 1.393 0 00.73-.38 20.891 20.891 0 001.52-1.91c.55-.76 1.07-1.53 1.55-2.32v8.08a.987.987 0 00.3.75.973.973 0 00.72.29 1 1 0 00.74-.29zm7.63-4.65a2.378 2.378 0 01-.43-1.63v-7.68a2.318 2.318 0 01.43-1.61 2.541 2.541 0 011.82-.46 2.5 2.5 0 011.81.46 2.375 2.375 0 01.42 1.61v7.68a2.432 2.432 0 01-.42 1.64 3.848 3.848 0 01-3.63-.01zm16.17 4.18a3.187 3.187 0 00.74-2.37v-14.7a4.452 4.452 0 00-.28-1.77 1.647 1.647 0 00-.97-.91 7.48 7.48 0 00-3.91 0 1.674 1.674 0 00-1 .91 4.261 4.261 0 00-.29 1.77v7.02a32.781 32.781 0 01-.19 3.86 14.008 14.008 0 01-.61 2.88 12.793 12.793 0 01-1.18 2.49.919.919 0 00-.07.71.945.945 0 00.52.59 1 1 0 00.76.03 1.142 1.142 0 00.61-.49 13.887 13.887 0 001.42-3.44 20.28 20.28 0 00.6-4.24h2.64v5.13a1.289 1.289 0 01-.24.96 2.3 2.3 0 01-1.06.29 1.133 1.133 0 00-.76.35.882.882 0 00-.26.7 1.014 1.014 0 00.34.66 1.051 1.051 0 00.73.26 3.58 3.58 0 002.46-.69zm8.17.55a7.172 7.172 0 002.48-.34 2.247 2.247 0 001.29-1.18 5.174 5.174 0 00.39-2.19v-3.11a5.211 5.211 0 00-.39-2.21 2.248 2.248 0 00-1.29-1.16 7.141 7.141 0 00-2.48-.35h-1.11a7.259 7.259 0 00-2.48.35 2.3 2.3 0 00-1.3 1.16 5.387 5.387 0 00-.38 2.21v3.11a5.349 5.349 0 00.38 2.19 2.3 2.3 0 001.3 1.18 7.288 7.288 0 002.48.34h1.11zm.49-11.86a11.69 11.69 0 002.89-.29 3.214 3.214 0 001.66-.97 4.341 4.341 0 00.83-1.9 1.118 1.118 0 00-.08-.79.932.932 0 00-.59-.48 1.047 1.047 0 00-.85.03.951.951 0 00-.52.66 2.9 2.9 0 01-.47 1.14 1.7 1.7 0 01-.98.54 10.123 10.123 0 01-1.89.13h-1.23a9.647 9.647 0 01-1.85-.13 1.271 1.271 0 01-.86-.54 2.447 2.447 0 01-.22-1.14v-.39c.79-.14 1.64-.31 2.53-.5s1.79-.41 2.67-.65 1.71-.5 2.46-.78a.867.867 0 00.51-.5.939.939 0 000-.77.855.855 0 00-.53-.52 1.232 1.232 0 00-.86.05c-.59.22-1.29.45-2.1.71s-1.64.49-2.47.71-1.57.39-2.21.53v-2.46a.887.887 0 00-.29-.72 1.028 1.028 0 00-.71-.25.987.987 0 00-.68.25.919.919 0 00-.29.72v4.78a4.4 4.4 0 00.43 2.13 2.335 2.335 0 001.5 1.09 10.983 10.983 0 002.97.31h1.23zm-3.26 9.62a1.881 1.881 0 01-.43-1.47v-.77h5.29v.77a1.881 1.881 0 01-.43 1.47 2.725 2.725 0 01-1.66.36h-1.11a2.7 2.7 0 01-1.66-.36zm-.43-4.58a1.922 1.922 0 01.43-1.48 2.778 2.778 0 011.66-.36h1.11a2.8 2.8 0 011.66.36 1.922 1.922 0 01.43 1.48v.63h-5.29v-.63zm-8.78-6.69h2.6v3.53h-2.6v-3.53zm0-4.08a1.191 1.191 0 01.27-.91 1.724 1.724 0 011.05-.23 1.624 1.624 0 011.05.23 1.348 1.348 0 01.23.91v2.32h-2.6v-2.32zm27.12 16.91a3.344 3.344 0 00.72-2.4v-14.51a4.711 4.711 0 00-.28-1.77 1.727 1.727 0 00-.98-.93 5.637 5.637 0 00-1.97-.27 5.841 5.841 0 00-1.99.27 1.7 1.7 0 00-.98.93 4.518 4.518 0 00-.28 1.77v6.82a29.714 29.714 0 01-.43 5.52 10.837 10.837 0 01-1.47 3.84.9.9 0 00-.12.72.865.865 0 00.46.58 1.058 1.058 0 00.77.04 1.006 1.006 0 00.65-.48 13.149 13.149 0 001.39-3.4 20.87 20.87 0 00.58-4.22h2.67v4.92a1.555 1.555 0 01-.24 1.04 1.931 1.931 0 01-1.15.29 1.04 1.04 0 00-.75.32.869.869 0 00-.27.7 1 1 0 00.35.68 1.071 1.071 0 00.74.27 3.568 3.568 0 002.58-.73zm9.45.34a2.722 2.722 0 001.43-.97 4.117 4.117 0 00.72-1.87 23.852 23.852 0 00.35-2.48c.08-.82.14-1.8.19-2.93a3.276 3.276 0 00-.76-2.62 4.238 4.238 0 00-2.82-.74h-1.6c.02-.31.02-.62.02-.93v-1.72h6.11a.865.865 0 00.67-.29.929.929 0 00.28-.68.913.913 0 00-.28-.68.929.929 0 00-.67-.28h-4.71v-3.62a1.025 1.025 0 00-.3-.76 1.064 1.064 0 00-.77-.3 1.011 1.011 0 00-.74.3 1.032 1.032 0 00-.31.76v3.62h-4.2a.97.97 0 00-.68.28.886.886 0 00-.29.68.991.991 0 00.97.97h2.88v.74a32.867 32.867 0 01-.35 5.16 14.02 14.02 0 01-1.19 3.96 11.188 11.188 0 01-2.31 3.12.851.851 0 00-.27.72.981.981 0 00.34.7 1.03 1.03 0 00.81.2 1.279 1.279 0 00.74-.37 12.71 12.71 0 002.85-4.26 19.516 19.516 0 001.26-5.42h1.56a2.256 2.256 0 011.41.32 1.453 1.453 0 01.35 1.21c-.03 1.07-.09 1.97-.17 2.7s-.2 1.41-.34 2.06a2.565 2.565 0 01-.39.98 1.427 1.427 0 01-.77.5 5.764 5.764 0 01-1.46.17 1.3 1.3 0 00-.8.3.9.9 0 00-.29.77.913.913 0 00.34.73 1.281 1.281 0 00.77.24 8.926 8.926 0 002.42-.27zm-13.31-13.17h2.6v3.58h-2.6v-3.58zm0-4.08a1.263 1.263 0 01.26-.92 2.417 2.417 0 012.1 0 1.32 1.32 0 01.24.92v2.32h-2.6v-2.32zm35.13 14.76a15.635 15.635 0 004.57 2.76 1.268 1.268 0 00.87.07.956.956 0 00.62-.58.879.879 0 00.01-.76.985.985 0 00-.52-.54 15.842 15.842 0 01-2.22-.97 12.025 12.025 0 01-1.96-1.28 14.7 14.7 0 001.81-2.44 1.981 1.981 0 00.22-2.11 2.317 2.317 0 00-2.17-.88h-2.11a4.442 4.442 0 01.24-.49c.08-.15.17-.31.24-.46a.742.742 0 00.07-.66.915.915 0 00-.44-.53.9.9 0 00-.71-.07.877.877 0 00-.57.47 15.941 15.941 0 01-1.64 2.67 16.185 16.185 0 01-2.21 2.41 1.245 1.245 0 00-.15.19 1.024 1.024 0 00-.1.21v-4.67a.55.55 0 01.07.09 1.037 1.037 0 00.04.1.869.869 0 00.65.28 1.1 1.1 0 00.7-.24 10.634 10.634 0 001.93-1.92 10.91 10.91 0 001.34-2.28.891.891 0 00.04-.64.824.824 0 00-.43-.47.166.166 0 00-.12-.05c.26-.03.53-.06.8-.08s.54-.05.8-.08v2.41a2.43 2.43 0 00.7 2.05 4.3 4.3 0 002.44.51 3.753 3.753 0 002.12-.51 2.826 2.826 0 001.03-1.86.868.868 0 00-.08-.69.885.885 0 00-.57-.43 1 1 0 00-.72.06.912.912 0 00-.46.57 1.754 1.754 0 01-.41.87 1.356 1.356 0 01-.91.22 2.416 2.416 0 01-1.08-.16.8.8 0 01-.29-.77v-2.43c.32-.04.64-.07.94-.1s.57-.06.82-.09c.09.11.18.22.27.34s.16.22.22.31a.783.783 0 00.58.34.923.923 0 00.65-.18.894.894 0 00.36-.55.811.811 0 00-.15-.63c-.22-.31-.49-.67-.81-1.07s-.66-.8-1-1.21-.65-.74-.93-1.02a.754.754 0 00-.58-.28.888.888 0 00-.61.24.825.825 0 00-.27.53.693.693 0 00.18.58c.14.15.29.33.45.52s.33.4.5.62c-.55.04-1.18.09-1.86.15s-1.39.1-2.11.15c.24-.43.48-.92.75-1.46s.47-1 .62-1.37a.8.8 0 00-.48-1.14.933.933 0 00-.75-.01.969.969 0 00-.51.54q-.135.375-.42 1.05c-.18.45-.38.9-.59 1.37s-.39.85-.54 1.16c-.3.01-.58.03-.86.03s-.53.02-.74.04a.821.821 0 00-.63.29.748.748 0 00-.21.59.882.882 0 00.28.63.917.917 0 00.67.21c.36-.03.76-.07 1.21-.1s.93-.07 1.46-.11a.874.874 0 00-.37.37 9.569 9.569 0 01-1.18 1.95 8.144 8.144 0 01-1.7 1.62.83.83 0 00-.25.28v-.51a4.27 4.27 0 00-.61-2.61 2.893 2.893 0 00-2.18-.85v-2.88h2.39a.889.889 0 00.66-.26.869.869 0 00.27-.64.86.86 0 00-.27-.65.93.93 0 00-.66-.26h-8.33a.9.9 0 00-.64.26.86.86 0 00-.27.65.869.869 0 00.27.64.86.86 0 00.64.26h2.55v2.88a2.868 2.868 0 00-2.11.87 4.262 4.262 0 00-.61 2.59v7.69a5.7 5.7 0 00.33 2.18 1.85 1.85 0 001.09 1.05 5.923 5.923 0 002.09.29h1.88a5.873 5.873 0 002.1-.29 1.861 1.861 0 001.08-1.05 5.7 5.7 0 00.33-2.18v-1a.785.785 0 00.16.23.849.849 0 00.65.3.931.931 0 00.65-.25 16.064 16.064 0 001.65-1.65 15.836 15.836 0 001.74 2.44 16.035 16.035 0 01-4.46 2.36 1.1 1.1 0 00-.58.54.879.879 0 00-.02.76.863.863 0 00.55.51 1.231 1.231 0 00.82-.04 16.47 16.47 0 004.99-2.86zm-13.35-4.92a.646.646 0 00.56.08.794.794 0 00.46-.31 6.494 6.494 0 00.79-1.42 7.435 7.435 0 00.41-1.7 21.249 21.249 0 00.12-2.48h.75v3.9a1.538 1.538 0 00.41 1.2 2.158 2.158 0 001.4.36h.62v1.97h-5.52v-1.6zm.37 4.97a1.968 1.968 0 01-.37-1.42v-.32h5.52v.32a1.968 1.968 0 01-.37 1.42 2.212 2.212 0 01-1.46.35h-1.88a2.184 2.184 0 01-1.44-.35zm11.05-5.16l.02-.02h2.49a.98.98 0 01.86.25.956.956 0 01-.24.84 9.7 9.7 0 01-1.18 1.56 11.235 11.235 0 01-1.95-2.63zm-6.87-1.98a.678.678 0 01-.14-.5v-3.13a1.144 1.144 0 01.88.46 2.448 2.448 0 01.23 1.25v2.05h-.41a.831.831 0 01-.56-.13zm-4.55-1.92a2.478 2.478 0 01.22-1.21 1.033 1.033 0 01.8-.48 17.033 17.033 0 01-.09 1.9 6.712 6.712 0 01-.3 1.41 5.069 5.069 0 01-.63 1.22v-2.84zm2.37-6.36h.72v2.86h-.72v-2.86z" transform="translate(-956 -3481)"/><path id="鉄分" class="cls-4" d="M999.96 3952.8a12.7 12.7 0 001.94-3.63 18.97 18.97 0 001.87 3.41 17.879 17.879 0 002.42 2.88 1.128 1.128 0 00.79.3.953.953 0 00.77-.35 1 1 0 00.25-.74.868.868 0 00-.34-.67 15.055 15.055 0 01-4.88-7.41h3.95a.859.859 0 00.64-.25.884.884 0 00.24-.63.916.916 0 00-.24-.65.859.859 0 00-.64-.25h-4.09v-3.7h3.23a.882.882 0 00.65-.25.852.852 0 00.25-.63.857.857 0 00-.9-.9h-3.23v-3.65a.913.913 0 00-.28-.72.978.978 0 00-.69-.25.961.961 0 00-.69.25.943.943 0 00-.27.72v3.65H999q.14-.555.244-1.11.1-.54.2-1.05a.991.991 0 00-.15-.69.886.886 0 00-.592-.36 1.056 1.056 0 00-.755.15.936.936 0 00-.383.64 24.853 24.853 0 01-1.021 4.06 18.926 18.926 0 01-.72 1.84.835.835 0 00.012.73.887.887 0 00.545.48 1.089 1.089 0 00.755-.06 1.077 1.077 0 00.522-.57 15.405 15.405 0 00.859-2.28h2.2v3.7h-3.9a.851.851 0 00-.627.25.886.886 0 00-.255.65.863.863 0 00.882.88h3.766a10.048 10.048 0 01-1.665 4.41 12.273 12.273 0 01-3.285 3.18.9.9 0 00-.406.64.96.96 0 00.917 1.12 1.4 1.4 0 00.813-.25 13.62 13.62 0 003.004-2.89zm-11.48 2.34c.371-.08.824-.17 1.358-.28s1.091-.23 1.672-.35 1.133-.24 1.659-.34.971-.19 1.335-.26.584-.13.662-.14a.916.916 0 00.569-.43.853.853 0 00.058-.69.778.778 0 00-1.045-.6c-.108.01-.375.06-.8.14s-.933.17-1.521.28v-5.9h2.3a.793.793 0 00.615-.24.9.9 0 00.221-.62.846.846 0 00-.221-.59.793.793 0 00-.615-.24h-2.3v-2.19h1.695a.8.8 0 00.627-.25.868.868 0 00.232-.61.892.892 0 00-.232-.62.81.81 0 00-.627-.26h-5.362a.807.807 0 00-.627.26.892.892 0 00-.232.62.868.868 0 00.232.61.8.8 0 00.627.25h1.74v2.19h-2.949a.8.8 0 00-.6.24.82.82 0 00-.232.59.875.875 0 00.232.62.8.8 0 00.6.24h2.949v6.24c-.759.16-1.448.29-2.066.4s-.984.17-1.092.18a1.153 1.153 0 00-.661.41.833.833 0 00-.151.73.911.911 0 00.418.64 1.188 1.188 0 00.836.11c.092-.02.325-.07.696-.14zm.07-14.47c.433-.49.862-1 1.288-1.52s.778-.97 1.056-1.36a.851.851 0 01.569-.43.953.953 0 01.569.41q.324.33.789.81c.31.33.623.65.94.98l.8.81a1.037 1.037 0 00.743.27.93.93 0 00.7-.32 1.04 1.04 0 00.267-.73.834.834 0 00-.337-.66q-.418-.375-.952-.87c-.356-.33-.7-.67-1.044-1.01s-.627-.63-.859-.88a2.33 2.33 0 00-1.73-.94 2.03 2.03 0 00-1.59 1.01c-.2.28-.461.61-.778 1.01s-.654.8-1.01 1.22-.708.81-1.056 1.19a11.827 11.827 0 01-.94.94.81.81 0 00-.3.64.925.925 0 00.255.66 1.059 1.059 0 00.732.32.99.99 0 00.731-.29q.507-.51 1.157-1.26zm1.346 10.81a.812.812 0 000-.66 8.988 8.988 0 00-.29-.86q-.2-.51-.406-1.02c-.14-.34-.256-.61-.349-.82a.86.86 0 00-.475-.51 1.069 1.069 0 00-.662 0 .966.966 0 00-.476.43.708.708 0 00-.012.67c.108.21.228.49.36.83s.267.68.406 1.02.248.64.325.88a.7.7 0 00.43.47.957.957 0 00.685-.02.81.81 0 00.468-.41zm4.1-.05a.8.8 0 00.475-.43c.109-.2.236-.46.384-.79l.441-.98c.148-.33.267-.6.359-.8a.862.862 0 000-.68.889.889 0 00-.464-.44.941.941 0 00-.72.01.9.9 0 00-.464.53c-.078.2-.182.46-.313.77s-.264.64-.395.96-.252.58-.36.8a.659.659 0 00-.011.58.814.814 0 00.429.44.885.885 0 00.637.03zm29.356 3.9a3.11 3.11 0 001.66-1.27 7.111 7.111 0 00.87-2.59 43.347 43.347 0 00.42-3.69 5.44 5.44 0 00-.22-2.31 2.147 2.147 0 00-1.28-1.22 7.542 7.542 0 00-2.68-.37h-7.45a1.057 1.057 0 00-.76.3.982.982 0 00-.31.74 1.026 1.026 0 00.31.76 1.066 1.066 0 00.76.31h2.88a9.515 9.515 0 01-.84 3.12 8.611 8.611 0 01-1.96 2.68 9.542 9.542 0 01-3.17 1.91 1.066 1.066 0 00-.64.55.915.915 0 00-.03.79 1.078 1.078 0 00.63.61 1.3 1.3 0 00.87-.03 11.48 11.48 0 003.87-2.29 10.2 10.2 0 002.38-3.32 12.123 12.123 0 001-4.02H1022a5.08 5.08 0 011.43.15.885.885 0 01.62.58 3.667 3.667 0 01.07 1.27q-.075.855-.18 1.62c-.07.51-.14.99-.22 1.44a4.348 4.348 0 01-.51 1.58 1.5 1.5 0 01-.98.66 9 9 0 01-1.83.17 1.364 1.364 0 00-.88.34 1.018 1.018 0 00-.33.83 1.142 1.142 0 001.33 1.06 9.1 9.1 0 002.83-.36zm6.81-9.64a1.208 1.208 0 00.83-.54 1.041 1.041 0 00.18-.9 1.093 1.093 0 00-.55-.74 19.313 19.313 0 01-2.28-1.65 18.132 18.132 0 01-2.03-1.98 14.761 14.761 0 01-1.54-2.04 9.3 9.3 0 00-1.14-1.57 2.859 2.859 0 00-1.34-.75 8.966 8.966 0 00-2.19-.21h-1.49a.951.951 0 00-.72.3 1.079 1.079 0 00-.27.75 1.058 1.058 0 001.06 1.06h1.42a5.012 5.012 0 011.24.12 1.763 1.763 0 01.78.43 3.911 3.911 0 01.67.92 18.875 18.875 0 001.67 2.27 24.839 24.839 0 002.26 2.35 20.759 20.759 0 002.48 1.97 1.256 1.256 0 00.958.21zm-16.72-2a29.632 29.632 0 002.28-2.46 19.288 19.288 0 001.8-2.53 1 1 0 00.13-.84 1.161 1.161 0 00-.52-.67 1.008 1.008 0 00-.84-.14 1.176 1.176 0 00-.69.51 19.189 19.189 0 01-1.14 1.65c-.45.59-.95 1.18-1.49 1.76s-1.1 1.15-1.67 1.66a14.12 14.12 0 01-1.67 1.32 1.059 1.059 0 00-.5.74 1.079 1.079 0 00.22.86 1.037 1.037 0 00.82.4 1.567 1.567 0 00.92-.26 23.469 23.469 0 002.348-2z" transform="translate(-956 -3481)"/></g></g><path id="シェイプ_6" data-name="シェイプ 6" d="M1352.5 3857.79c-.09 1.72-.34 3.44-.37 5.17-.03 1.16.66 3.14.39 4.19-.31 1.12-.88.67-1.62 1.47-.5.57-.4 1.5-1.06 1.98-.78.58-2.65.37-3.59.78a50.622 50.622 0 01-7.3 2.4c1.25-1.32.42-3.7 1.68-5.19a40.92 40.92 0 003.3-4.39c1.85-2.9 3.91-5.69 5.78-8.5 1.29-1.93 1.17-6.39 3.46-7.53.1 1.68.2 3.49.2 5.14s-.78 2.72-.86 4.31a.915.915 0 00-.01.17zm-13.63-12.62a19.968 19.968 0 01-1.18 2.81c.08-.16-.2-1.65-.2-1.99a17.382 17.382 0 000-2.5c-.33-2.17-1.32-5.41-.9-7.53a26.222 26.222 0 012.2 3.12c.68 1.16.08 1.42-.04 2.5-.13 1.18.41 2.42.12 3.59zm-13.62 108.81a134.081 134.081 0 004.18-17.61c.51-3.28 2.09-6.03 3.24-9.14 1.51-4.13 2.39-8.46 3.69-12.64 2.46-7.97 2.27-13.87 1.92-21.99-.08-1.85.7-2.04 1.26-3.6.51-1.43-.3-3.03 0-4.41.48-2.33 4.95-1.1 6.77-.93 2.13.19 4.26.27 6.36.59 1.65.25 3.67.96 5.26.23 2.5-1.14 2.61-4.48 3.72-6.46 1.81 1.38 1.76 4.27 2.78 6.11 1.31 2.35 1.46 4.59 1.46 7.26 0 1.73.24 3.34.31 5.02.09 1.89-.29 3.48.95 5.03.98 1.23 3.28 1.4 4.08 2.58.54.8.47 3.48.47 4.47-.04 3.98-.04 7.92.16 11.89.13 2.62.05 5.28.31 7.86a2.692 2.692 0 00.5 1.84c.41.55.93-.07 1.23.98.24.91-.53 3.25-.76 4.25-.49 2.07-.86 4.18-1.49 6.22-1.57 5.11-3.56 10.22-5.31 15.28-1.78 5.14-2.53 10.79-3.54 16.05-.25 1.26-1.15 2.14-1.44 3.26-.42 1.56.38 3.76.46 5.36.12 3.09.15 6.19.15 9.28 0 1.64-.06 3.26-.09 4.89a8.6 8.6 0 00-.46-.91c-.89-1.45-1.95-1.5-3.22-2.45-1.13-.84-1.17-2.11-2.21-2.94-1.27-1-2.77-.44-4.17-.98-1.49-.57-2.09-2.31-3.31-3.24a32.366 32.366 0 01-3.45-2.93c-5.11-5.03-11.23-8.93-16.5-13.82a49.12 49.12 0 00-6.25-5.28c1.03-2.99 2-6 2.94-9.12zm-88.32-93.61c.72 1.64 2.11.93 3.47 1.41 1.42 5.47 11.68 2.73 14.88 1.04 6.05-3.21 13.46-1.91 17.66-8.01a27.862 27.862 0 013.71 7.37c.67 3.06-.4 4.19 1.26 7.21 1.5 2.7 1.77 3.47 1.26 6.6-.39 2.36-1.14 4.41-1.74 6.71-.84 3.19.14 3.32.8 6 1.27 5.13-.14 11.41.37 16.68.57 5.92 2.03 11.63 2.56 17.53a184.753 184.753 0 003.36 24.37c.63 2.71 2.1 5 2.86 7.39s.2 5.03.46 7.52c.44 4.13 1.76 10.07 1.12 14.14-.68 4.33-3.29 9.45-4.66 13.65-1.94 5.9-4.5 11.8-6 17.9-1.47 6-1.34 11.74-4.74 17.14-2.2 3.48-8.91 8.98-5.65 12.95-2.29 2.83-7.71 6.53-11.38 6.31-3.03-.19-6.07-1.52-7.93 1.77-1.53 2.7-.06 4.16 1.81 6.07 3.71 3.82 8.16 5.82 13.06 7.71 4.53 1.76 8.82 4.37 13.25 6.31 1.85.8 4.4 1.57 6.56 1.11 2.85-.6 2.54-2.11 3.45-4.66 1.44-4 4.21-8.26 4.83-12.31.42-2.72-.15-4.73.93-7.25a59.6 59.6 0 003.08-8.3c1.78-6.52 4.48-12.64 6.62-19.11 2.77-8.37 5.95-16.56 8.91-24.86a60.408 60.408 0 006.79 6.08c4.97 3.9 10.13 7.76 15.46 11.17 4.56 2.92 8.3 7.11 12.91 9.85 1.63.97 2.9 1.15 3.33 3.21.48 2.31-.53 4.83-.87 7.1-.42 2.78-1.22 5.91 1.2 7.95 2.31 1.95 5.66.86 7.88-.76a17.779 17.779 0 004.01-4.43c0 .16.01.32.01.48-.01 4.03.2 8.09.35 12.12.09 1.94-.51 3.8-.59 5.72-.23 5.25-6.44 8.03-10.96 9.44-2.42.75-5.75 1.52-6.51 4.3-2.14 7.79 13.78 8.68 18.21 7.56 2.14-.55 4.19-1.53 6.36-1.73 2.75-.26 5.24 1.09 7.93 1.21 2.37.1 4.73.5 7.06.51 4.97.01 4.17-5 4.18-8.55.01-1.19-.51-2.93-.04-4 .72-1.64 1.85-1.8 1.33-3.98-.38-1.55-1.14-2.74-.97-4.45a20.309 20.309 0 00.31-4.26c-.17-1.91-.92-3.51-.35-5.48.63-2.22 1.01-2.78.23-5.06a15.543 15.543 0 01-.83-3.87c-.13-2.15.01-4.3-.14-6.44-.21-2.69-.63-5.28-.63-8 0-3.78-.16-7.53-.16-11.31 0-2.35-.32-4.99.35-7.29.56-1.94 1.48-3.79.91-5.9-.3-1.15-1.22-1.61-1.11-2.98.1-1.31.62-1.56-.27-2.97-.56-.9-1.7-1.79-1.33-2.88.16-.48.99-.75 1.27-1.24.24-.44.08-1.6.45-1.89 1.56-1.26 2.49 1.53 2.98 2.54 1.38 2.85 2.52 5.16 5.53 6.32 2.73 1.06 5.51 2.02 8.17 3.22 4.28 1.95 7.8 4.33 12.42 5.42 2.89.69 5.36 2.25 8.14 3.26q5.37 1.935 10.81 3.65a54.3 54.3 0 007.53 2.27c7.21 1.15 17.21.21 23.86 2.88a26.738 26.738 0 016.93 3.72c1.78 1.58 2.36 4.29 4.62 5.37.18 2.86-.89 6.46-.67 8.86.51 5.46 4.77 11.74 1.05 17.12a15.911 15.911 0 01-6.94 6.05c-3.61 1.52-10.81 3.8-7.63 9.09 2.89 4.81 10.07 2.54 14.43 1.82a125.027 125.027 0 0113.71-1.36c2.36-.12 4.17.6 5.69-1.38 1.41-1.81.89-4.52.68-6.59-.28-2.85-.26-3.39 1.11-5.69 1.4-2.38 1.27-2.98-.06-5.57-1.57-3.05-.99-2.81-.09-6.04.63-2.18-.11-4.35-.47-6.59-.81-5.07.47-10.25-.26-15.36-.69-4.79-2.59-10.45-.92-15.24 1.47-4.18 5.77-6.72 6.93-11.12.62-2.34 1.13-12.26 4.14-12.88 2.7-.55 9.55 9.24 11.25 10.94 2.08 2.09 4.29 3.95 5.97 6.39 1.33 1.94 2.09 4.19 3.56 6.04 2.66 3.37 5.53 6.12 7.53 9.89 2.27 4.26 2.93 10.6 6.59 14.15 1.99 1.92 4.1.73 5.98 1.96s1.09 4.47 1.99 6.33c2.08 4.35 6.86 4.06 8.05 9.41.7 3.08 1.02 7.04 3.28 9.47 2.76 2.95 8.6 3.18 11.4.07 3.1-3.45 2.09-8.27 1.9-12.35-.22-4.91-1.38-9.47-1.37-14.49.01-2.82-.23-3.47-2.18-5.36-1.42-1.36-2.47-3.23-4.19-4.25-1.29-.75-2.67-.4-3.84-1.66-.93-.99-1.45-2.23-2.75-3.27-4.86-3.91-7.16-10.51-9.75-15.8-1.96-4.02-5.72-6.77-8.23-10.43-1.58-2.31-2.67-4.09-5.01-5.43-2.38-1.36-3-2.01-4.1-4.94-.75-1.97-1.19-4.21-2.29-6.04-1.25-2.11-2.51-2.94-3.23-5.22-1.42-4.63-1.65-9.2-3.5-13.72-.74-1.84-2.19-3.56-2.86-5.43-.74-2.05-.83-4.25-1.59-6.4-1.47-4.13-.26-8.27-2.19-12.07-1.49-2.93-6.09-7.21-5.02-10.21.83-2.33 2.47-3.1 2.22-5.92-.09-.97-.82-1.72-.77-2.83.02-.82.88-1.24.77-2.46-.11-1.38-1.8-4.32-2.64-5.29-.56-.66-1.96-.98-2.32-1.77-.41-.94.63-1.79.36-2.83-.23-.9-1.28-1.17-1.59-1.98-.45-1.15-.05-1.88-.34-2.95-.48-1.7-1.88-2.85-3.08-4.34-2.53-3.12-4.47-7.52-7.9-9.66-1.96-1.24-3.99-.99-6.04-1.65-1.55-.51-3.84-3.35-5.26-.86-3.73-2.2-3.45-5.76-5.67-9.27 5.06 4.44 4.68-7.47 4.55-10.19-.23-5.4.68-9.57-2.33-14.56-1.88-3.11-5.54-5.54-8.87-7.07-5.26-2.45-14.58 1.19-15.67 7.3-4.6-.12-5.28 8.82-5.44 11.84-.13 2.84-.55 11.05 2 13.04.89.7 2.31-.28 2.99.34.67.6.37 1.58.69 2.32a22.887 22.887 0 003.2 5.66c-2.29.95-3.81 3.02-5.6 4.68-.77.71-3.61 2.41-3.9 3.28-.92 2.65 6.26 4.1 8.01 5.5-4.65 1.86-6.85 4.31-7.17 9.57-.13 2.07.35 4.17.15 6.23-.16 1.88-.09 3.7-.18 5.59-3.41.54-6.95 2.8-9.52 5.05a31.182 31.182 0 00-3.1 3.09 5.547 5.547 0 00-.99 1.38 4.408 4.408 0 01-.59 1.47c-.43.42-1.22.09-1.57.9a3.476 3.476 0 00.02 1.97 4.115 4.115 0 010 1.64 4.23 4.23 0 01-.25 1.58 4.347 4.347 0 01-1.3.68 1.993 1.993 0 00-1.3 1.01 6.558 6.558 0 00.06.82 1.864 1.864 0 01-.4.63 2.432 2.432 0 00-.47 1.62c.07.28.33.42.41.67a.905.905 0 01-.03.7 2.753 2.753 0 00.21 1.98c.51.53 1.17.31 1.3 1.15.18 1.27-.47 2.56-.06 3.83a5.175 5.175 0 002.19 2.44c.71.44 1.5.42 1.98 1.02a13.459 13.459 0 001.39 2.08 4.02 4.02 0 011.03.99 8.178 8.178 0 001.19 1.5 25.323 25.323 0 0010.05 5.59 30.94 30.94 0 0011.94 1.27 23.674 23.674 0 005.59-1.17c1.74-.61 3.79-1.35 4.94-2.87a4.866 4.866 0 01.63-1.1 2.174 2.174 0 01.93.07 1.315 1.315 0 01.88.13 5.564 5.564 0 01.39 2c.18.9.29 1.82.39 2.73.4 3.63-.46 6.6-.94 10.15-.75 5.47-1.89 10.98-2.42 16.48a93.907 93.907 0 00-.23 13.1 65.349 65.349 0 00-9.37-.39c-1.65-.02-2.79-.88-4.27-1.41a9.526 9.526 0 00-4.39-.28c-2.19.35-2.59.44-4.55-.59a40.683 40.683 0 00-7.23-2.59c-4.14-1.24-8.5-2.92-12.74-4.43-4.53-1.62-9.2-3.67-13.8-5.03-2.65-.78-5.33-.57-7.84-1.8-3.6-1.76-2.81-6.63-3.05-9.78-.4-5.49-.7-10.99-1.14-16.47-.34-4.2-1.48-7.5 1.25-10.91a39.484 39.484 0 004.34-6.34c1.92-3.73 1.96-7.58 2.59-11.58a26.162 26.162 0 00-.03-8.65c-.33-1.97-1.34-4.01-1.54-5.99-.16-1.6.55-2.17 1.19-3.49a4.622 4.622 0 00.07-3.58c-.39-1.42-1.26-2.7-1.76-4.07-1.37-3.79-5.35-9.3-3.43-13.49 1.44.54 2.37 1.61 3.96 1.9a9.145 9.145 0 004.5-.23c2.54-.93 5.73-2.87 7.09-5.18 3.06-5.19 1.71-11.88-.68-16.94a28.539 28.539 0 01-1.84-3.61c-.49-1.68-.49-3.43-.96-5.12a20.685 20.685 0 00-2.56-5.02 29.779 29.779 0 01-2.12-4.27c-.65-1.58-1.28-3.16-2.04-4.71a37.883 37.883 0 00-10.14-13.18 4.219 4.219 0 01-1.52-1.73c-.17-.92.92-2.14 1.18-3.02a7.439 7.439 0 00.36-3.14c-.5-3.42-3.45-4.17-5.66-6.24-2.19-2.05-1.92-3.89-1.31-6.62a10.954 10.954 0 00-1.8-7.98c-1.59-2.54-1.6-5.85-2.99-8.77a17.23 17.23 0 00-9.01-8.83c-4.12-1.88-8.98-3.49-13.39-1.73a8.615 8.615 0 00-2.49 1.27c-.69.61-.93 1.6-1.78 2.07-1.45.79-2.51 1.11-3.45 2.81-1.05 1.87-1.41 4.11-2.16 6.09-.56 1.47-1.43 2.89-2 4.31-1.2 2.91-2.49 5.7-3.96 8.56a10.16 10.16 0 00-1.25 5.09c0 1.76.69 3.57.47 5.3-.34 2.58-3.7 3.92-4.66 6.44-.44 1.12.2 3.08-.21 3.93-.72 1.56-1.47.22-1.88-.65-.87-1.85-.96-3.99-1.44-5.97a45.764 45.764 0 00-2.36-6.88c-1.49-3.54-2.04-8.26-4.69-11.19-1.58-1.73-4.36-2.92-6.41-4.04a80.645 80.645 0 00-9.21-3.8c-2.66-1.05-5.22-2.18-7.89-3.22a9.679 9.679 0 01-3.72-1.97c-1.8-1.91-1.74-5.27-2.91-7.65-1.06-2.17-2.12-5.73-5.04-5.85-.59-.02-1.45.57-1.89.48-1.24-.25-1.51-2.37-1.55-3.75-.09-2.95 1.8-5.17 2.54-7.96 2.22-8.36.8-17.38-6.88-22.35-2.68-1.73-6.07-3.34-9.26-3.45a14.756 14.756 0 01-3.79-.39 8.3 8.3 0 00-4.17-.08c-3.6.95-5.57 4.51-8.08 6.94-3.15 3.02-6.76 6.98-5.83 11.79a2.311 2.311 0 00.56 1.51c.48.54 1.17.13 1.51.72.62 1.02.28 2.58.46 3.7.21 1.27.6 2.64.92 3.89a9.934 9.934 0 01-.02 3.44 11.448 11.448 0 002.22 6.38c1.21 1.86 2.86 3.26 3.95 5.17 1.14 2.01.17 4.51 1.27 6.54-.84 1.11-1.97 1.72-2.39 3.15a1.658 1.658 0 000 1.63c.37.92 1.24 1.34 1.42 2.42a29.834 29.834 0 01-4.48 2.44c-8.86 4.36-12.82 11.99-12.82 21.85 0 3.76-.08 7.29 1.04 10.89.92 2.94 2.64 4.47.52 7.4a5.128 5.128 0 00-1.22 4.02c-.02 1.9-.78 3.29-1.03 5.1-.23 1.64.18 2.98-.48 4.49-.49 1.13-1.17 2.11-1.72 3.15-.67 1.27-.91 2.19-2.06 1.46-.88-.54-1.72-2.41-2.49-3.22-2.49-2.65-4-.62-4.81 2.04.18-.6-3.57-1.48-4.12-1.28-1.63.59-1.45 2.21-1.61 3.62-2.7-.07-4.42 3.24-2.06 5.1a2.046 2.046 0 00-.26 3.09c-.88.89-1.9 2.03-1.27 3.44zm101.82-18.79c-.13 1.18.41 2.42.12 3.59a19.968 19.968 0 01-1.18 2.81c.08-.16-.2-1.65-.2-1.99a17.382 17.382 0 000-2.5c-.33-2.17-1.32-5.41-.9-7.53a26.222 26.222 0 012.2 3.12c.68 1.16.08 1.42-.04 2.5zm14.62 11.73c0 1.66-.78 2.72-.86 4.31a.915.915 0 00-.01.17c-.09 1.72-.34 3.44-.37 5.17-.03 1.16.66 3.14.39 4.19-.31 1.12-.88.67-1.62 1.47-.5.57-.4 1.5-1.06 1.98-.78.58-2.65.37-3.59.78a50.622 50.622 0 01-7.3 2.4c1.25-1.32.42-3.7 1.68-5.19a40.92 40.92 0 003.3-4.39c1.85-2.9 3.91-5.69 5.78-8.5 1.29-1.93 1.17-6.39 3.46-7.53.1 1.68.2 3.49.2 5.14zm-24.81 115.07a49.12 49.12 0 00-6.25-5.28c1.03-2.99 2-6 2.94-9.12a134.081 134.081 0 004.18-17.61c.51-3.28 2.09-6.03 3.24-9.14 1.51-4.13 2.39-8.46 3.69-12.64 2.46-7.97 2.27-13.87 1.92-21.99-.08-1.85.7-2.04 1.26-3.6.51-1.43-.3-3.03 0-4.41.48-2.33 4.95-1.1 6.77-.93 2.13.19 4.26.27 6.36.59 1.65.25 3.67.96 5.26.23 2.5-1.14 2.61-4.48 3.72-6.46 1.81 1.38 1.76 4.27 2.78 6.11 1.31 2.35 1.46 4.59 1.46 7.26 0 1.73.24 3.34.31 5.02.09 1.89-.29 3.48.95 5.03.98 1.23 3.28 1.4 4.08 2.58.54.8.47 3.48.47 4.47-.04 3.98-.04 7.92.16 11.89.13 2.62.05 5.28.31 7.86a2.692 2.692 0 00.5 1.84c.41.55.93-.07 1.23.98.24.91-.53 3.25-.76 4.25-.49 2.07-.86 4.18-1.49 6.22-1.57 5.11-3.56 10.22-5.31 15.28-1.78 5.14-2.53 10.79-3.54 16.05-.25 1.26-1.15 2.14-1.44 3.26-.42 1.56.38 3.76.46 5.36.12 3.09.15 6.19.15 9.28 0 1.64-.06 3.26-.09 4.89a8.6 8.6 0 00-.46-.91c-.89-1.45-1.95-1.5-3.22-2.45-1.13-.84-1.17-2.11-2.21-2.94-1.27-1-2.77-.44-4.17-.98-1.49-.57-2.09-2.31-3.31-3.24a32.366 32.366 0 01-3.45-2.93c-5.11-5.03-11.23-8.93-16.5-13.82z" transform="translate(-956 -3481)" opacity=".3" fill-rule="evenodd"/></svg>