<svg id="concept02.svg" xmlns="http://www.w3.org/2000/svg" width="429.594" height="269.25"><defs><style>.cls-1{fill:#591902;fill-rule:evenodd}</style></defs><g id="bi"><path id="シェイプ_4" data-name="シェイプ 4" class="cls-1" d="M465.918 3691.21a1.154 1.154 0 01.06-.14l.291-.74c1.175-.33 2.1-.67 3.12-.98a9.552 9.552 0 00-1.194-1.16 1.268 1.268 0 00-.031-.26c1.37-.36 2.767-.86 5.76-1.45.024-.08.036-.1.06-.17l.291-.74c1.174-.33 2.1-.64 3.12-.95a10.316 10.316 0 00-1.194-1.17 2.659 2.659 0 00-.238-.95c.1-.31.143-.4-2.072-.19-.623-.12-1.365-.21-1.984-.38-.109-.28-.095-.64-.2-.93.578-.66 1.148-1.38 1.819-2.09.862-.33 1.038-.57 1.769-.86.1-.33.208-.71.3-1.04a4.355 4.355 0 00-.186-1.22c-.043-.21.628-.78-.341-.61-.564-.22-1.106-.48-1.764-.67a1.191 1.191 0 00.737-.83c-.864.21-1.738.43-2.6.59-2.291.12-.954-.81-4.356-.14-.274.52-3.081.76-3.036 1.38-3.924.47-6.908.14-10.09.45-2.5-.14-3.661.22-5.542.05-.776.28-3.251-.6-2.889.05a58.6 58.6 0 01-13.233-1.95c-.339 1.61-4.805-1.46-6.882-1.29-1.241-1.38-5.1-1.52-7.11-3.28a68.77 68.77 0 01-14.587-8.07 65.635 65.635 0 01-14.387-12.75c-.408.07-1.062-.92-1.606-1a100.532 100.532 0 01-5.1-6.42 76.392 76.392 0 01-7.655-12.94c-.492-.31-.793-1.97-1.642-1.83a9.092 9.092 0 00-1.872-4.59c-.088-1.03-1.239-3.21-.642-3.24a5.537 5.537 0 00-.761-1.88 11.334 11.334 0 01-.993-2.88c-.4-.8-.683-1.54-1.081-2.47.763.45-.017-2.16-.239-2.31a14.868 14.868 0 00-1.387-3.52c-.033-.19-.052-.28-.086-.5a3.848 3.848 0 00-.353-3.4 6.6 6.6 0 00-.831-4c-.1-.52-.165-1.07-.258-1.49.54.71.294-.88.716-.72-.864-3.3 0-9.06-.279-12.39.131-1.31.282-2.52.477-3.83a33.512 33.512 0 00.676-6.04c.06-.29.139-.6.239-.98.682-2.76 2.024-6.33 2.864-10.44 1.134-2.81 2.609-5.5 3.709-7.97a22.777 22.777 0 012.695-3.14 40.252 40.252 0 016.684-10.33c.415-.61 1.041-1.23 1.06-.83.654-.78 1.239-1.47 1.926-2.23a3.771 3.771 0 001.609-3l-1.4.43c.146-.6.239-1.1.325-1.6.368-.62.79-1.35 1.193-1.97.239-.22.464-.45.764-.74a95.085 95.085 0 0111.642-9.04c.136.29.286.57.424.86.812-.29 1.638-.55 2.445-.81a6.463 6.463 0 001.671-1.26c4.327-1.55 11.059-3.95 14.021-5.38 1.141-.4 2.4-.81 3.58-1.12 1.392-.28 2.683-.52 4.094-.76-.673 1.31 3.127-.54 4.669-.04 2.177-.27 1.723.47 4.215.09a14.55 14.55 0 011.552-.64 10.255 10.255 0 003.21-.43h.986a83.918 83.918 0 0115.551 1.97c1.378.31 2.731.67 4.089 1.03.955.24 2.024.45 3.077.74 3.079.99 4.535 1.64 7.443 2.37l.907.36c3.4 1.57 5.578 3.21 9.91 5.33a8.5 8.5 0 012.764 1.43 88.488 88.488 0 019.706 7.13c2.41 2.76 4.535 2.98 6.683 5.95a81.676 81.676 0 0118.451 28.31c.478.69.907 1.4 1.361 2.09.716 2.19 1.361 4.26 1.886 6.38-.478.95 1.241 4.66.74 5.61.405 1.24.5 3.47 1.1 3.62.907.83.238 2.45.62 3.78.072 2.43.263 4.38.191 6.99a14.065 14.065 0 00.263 4.19c-.6.71-.024 4.4-.74 5.07-.1 2.04-.239 4.06-.454 5.99a15.742 15.742 0 00-.668 2.21c.979 4.88-2.124 2.41-2.124 8.12a19.289 19.289 0 01-2.936 7.2c-1.695 2.38-.788 3.45-1.743 5.36a4.941 4.941 0 01-1.122.95 3.992 3.992 0 00-.716 1.69 12.794 12.794 0 01-2.267 3.61c-.5 1.17-1.075 1.14-1.194.83-.549.89-1.217 1.84-1.814 2.72-.764.97-1.48 1.88-2.292 2.83-.835.69-1.933 2.54-2.387 2.26-.5.59-.954 1.09-1.527 1.76l-1.241 1.31a115.805 115.805 0 01-3.414 3.14c-.573.4-1.074.78-1.527 1.14a1.9 1.9 0 00-.335.09l-.382-.59c-2.028.47-3.7 2.62-5.953 3.23-.814.86-3.611 1.69-3.836 2.34a16.336 16.336 0 01-4.162 2.4c-.9.95-4.216 1.88-3.82 2.54a6.508 6.508 0 002.59-.97c1.043-.24 2.149-.6 3.192-.91.133.27.257.48.386.74l-.117.14c-1.067.38-2.174.77-3.229 1.1-1.308.5-2.726 1-4.058 1.42a16.242 16.242 0 00-4.165 1.19c1.394-.21 2.78-.47 4.251-.8a97.64 97.64 0 005.105-1.48c.308-.12.669-.26 1.044-.4-.631.42-1.246.81-1.91 1.23a8.512 8.512 0 00-2.49 1.45c-.549.27-1.091.5-1.737.77-1.306.47-2.717.95-4.041 1.38-1.309.47-2.729.97-4.058 1.42a16.3 16.3 0 00-4.166 1.17c1.394-.19 2.781-.45 4.252-.79 1.747-.47 3.394-.95 5.1-1.5.385-.11.847-.3 1.323-.49a31.01 31.01 0 007.216-2.74c1.069-.33 2.13-.69 3.184-1.07.145.28.238.45.324.62a74.05 74.05 0 006.037-3.4c.716-.53 1.432-.98 2.1-1.43a72.658 72.658 0 005.9-3.33c3.079-2.14 5.514-3.48 8.116-5.47 3.1-3.07 6.731-5.38 9.357-8.54.525-.62 1.1-1.22 1.6-1.83.788-.84 1.575-1.77 2.291-2.65.573-.83 1.1-1.59 1.648-2.45.047.65.167 1.36.215 2.03.334.61 1.265.26 1.885.02a80.71 80.71 0 002-2.95c.5-.67.955-1.26 1.5-2.05.835-1.59 1.623-3.3 2.363-4.92a75.547 75.547 0 006.66-16.79c.668-1.34 1.05-5.24 1.5-6.4.144-1.17.311-2.31.406-3.45.072-.62.143-1.36.191-1.98.812.03.812-2.64.525-3.52a88.744 88.744 0 00-.214-10.08c-.024-.84-.048-1.69-.12-2.53.645-.4.1-3.37-.43-4.49l-.286-1.57a38.953 38.953 0 00-.191-4c.645.6.31-1.09.764-.59.363.35.746.68 1.146 1 .453 1.45.954 3.04 1.981 6.04.262 2.47.429 4.85.477 7.35-.62.4-.525 2.95.167 6.16.215-1.17.382-2.33.525-3.52.215.02.406.02.621.05.024 0 .1.02.119.02a12.428 12.428 0 00.1-1.64c-.048-.88-.1-1.76-.167-2.64a3.32 3.32 0 00-1.027-1.55 7.566 7.566 0 00.454-3.71c-.167-.97-.382-2.07-.645-3.14-.191-.97-.453-2.04-.692-3.02h-.167c-.334-.74-.692-1.35-1.05-2.09-.645-2.88-1.695-6.02-2.292-8.57a90.985 90.985 0 00-5.895-14.17 7.7 7.7 0 00-2.244-4.36 96.831 96.831 0 00-11.816-16.15 4.439 4.439 0 00-1.408-2.33 9.56 9.56 0 00-2.435-1.64c-1.122-1.31-2.22-2.48-3.318-3.64a83.184 83.184 0 00-5.466-4.88 70.266 70.266 0 00-2.578-2.21c-.835-.5-1.6-.91-2.53-1.43a98.901 98.901 0 00-4.344-2.73 12.4 12.4 0 00-3.438-1.98c-1-.62-1.981-1.26-2.912-1.81 1.241.34.358-.66 1.695-.4a16.467 16.467 0 00-3-1.64c-.9-.19-1.671-.36-2.573-.55l-.449-.19c.576-.19-.238-.71-.716-1.07a19.829 19.829 0 00-4.583-1.4c-1.076-.53-1.585-.88-2.115-1.17a13.793 13.793 0 00-4.633-1.21 81.1 81.1 0 00-3.549-.83c-1.31-.38-2.63-.74-3.96-1.07a22.548 22.548 0 00-4.137-.93c-1.071.04-2.134.12-3.2.19-2.625-.29-5.251-.5-7.76-.6-.876-.04-1.63-.07-2.508-.12a15.277 15.277 0 00-3.385-.95 22.548 22.548 0 00-4.34.36c-.377.02-.752.05-1.26.07a12.275 12.275 0 00-5.423.33c-.633.29-1.125.6-1.74.91a11 11 0 00-3.614.31c-3.2-.57-8.8.97-13.589 2.52-.79.5-1.444.95-2.213 1.47-2.258.74-4.483 1.6-6.683 2.5a3.935 3.935 0 00-2.929.76c-.688.91-4.38 2.21-5.934 3.93a7.329 7.329 0 00-2.065.81c-.781 1.04-5.449 2.59-6.445 4.68-.42.26-.955.57-1.473.88-.634.38-1.348.86-1.966 1.26-.767.62 1.63-.64.811-.04a12.358 12.358 0 00-3.318 3.3c1.58-.45 1.59-1 5.013-3.52a9.51 9.51 0 002.979-1.28v.05a5.034 5.034 0 002.177-1.27 18.681 18.681 0 013.263-1.52c.926-.62 1.947-1.33 3.017-1.97 1.456-.64 2.265-.95 3.172-1.34a93.171 93.171 0 013.783-1.95c-.362.55 2.261-.14 2.454.17 3.01-.94 6.065-1.74 9.154-2.38.447-.07.938-.14 1.432-.19a3.561 3.561 0 00-.742.41c.031.14.057.26.086.4a16.976 16.976 0 01-.79 1.67c-.43.23-.878.5-1.334.78a16.967 16.967 0 00-5.968 1.9c.031.15.058.24.084.38-.2.46-.387.93-.638 1.41a8.409 8.409 0 00-2.279 1.35c-.929.46-1.848.91-2.767 1.41a5.482 5.482 0 00-.62.24c0 .02.012.04.021.07a73.881 73.881 0 00-3.218 1.83c-1.432.81-2.816 1.69-4.179 2.59-1.273.67-2.54 1.38-3.819 2.14-2.609 1.5-5.106 3.21-7.529 4.9q-3.249 2.205-6.263 4.71a89.654 89.654 0 00-5.092 4.55 14.525 14.525 0 00-4.774 4.56c-.093.48-.188.98-.329 1.53-.272.35-.613.76-.955 1.19.115-1.03-.895.26-1.318.52-.615.93-1.193 1.88-1.685 2.78.363-.78.716-1.76 1.082-2.73 1.217-2.12 1.432-2.76.866-3.26-.628.97-1.27 1.92-1.8 2.8-.662.89-1.246 1.69-1.879 2.6 1.139-1.81 2.361-3.57 3.683-5.4.75-1.19.771-1.98.437-2.12-1 1.21-2.027 2.59-2.948 3.88-.788.52-.671-.26-.843-.33a86.647 86.647 0 00-6.409 12.48c-.343.88-.666 1.79-.954 2.69.312.62.682 1.17 1.04 1.81.077-.21.112-.31.2-.52.076.07.15.16.222.23a13.1 13.1 0 01-1.012 1.81 3.017 3.017 0 00-.54.76c-.334.43-.671.84-1.06 1.43a16.191 16.191 0 01-.238-1.71l-.323-.34c-.3.72-.568 1.31-.818 1.93-1.089 3.05.324 2.17-.175 4.57-.329 1.05-.6 2-.888 3.07a20.23 20.23 0 01-.864 3.49c.657 1.91-.954 2.79-1.3 5.55-.239-.17-.523-.36-.8-.55.317-1.74.663-3.45 1.088-5.16a.36.36 0 00-.129-.1c-.4.31-.78.65-1.193.95a59.6 59.6 0 00-.8 4.19 84.834 84.834 0 00-.821 4.62 55.633 55.633 0 00-.328 3.78c-.174 1.52-.238 2.62-.317 3.59-.208 1.02-.437 2.02-.609 2.93.573 2.87.5 6.35 1.239 11.49.038 1.16.165 2.47.239 3.64-.587-.22-1.144-.41-1.733-.62-.146-1.12-.239-2.24-.344-3.21-.11-1.98-.157-3.83-.176-5.81-.187-.09-.406-.19-.6-.28-.074-.6-.124-1.17-.184-1.64.308-1.29.6-2.6.955-3.88-.145-.41-.279-.81-.382-1.22-.1-2.9-.174-3.92-.943-3.9 0-.95 0-1.88.027-2.83a48.365 48.365 0 00.935-8.3 17.282 17.282 0 00-1.367 8.02c-.363 2.66-.645 5.33-.814 8.01.05.36.1.74.124 1.1.184.09.4.21.582.31-.033.78-.019 1.47-.028 2.23-.781 1.88-.074 5.12.353 8.11.174 1.91.391 3.93.687 5.81.222 1.14.494 2.28.7 3.31.339 1.45.666 2.9 1.07 4.35.076.64.238 1.4.338 2.04.146.55.239.98.4 1.55l.15 1.55c-.239-.05-.446-.1-.688-.15a.162.162 0 00-.136-.02 4.229 4.229 0 00.929 3.57c.367 1.09.687 2.09 1.091 3.16.41.6.847 1.17 1.231 1.64.1.41.186.74.239 1.05 0 .81-.3.76-.239 1.38.786 1.74 1.614 3.54 2.454 5.14.68 1.38 1.475 2.92 1.024 3.02a29.875 29.875 0 003.385 5.47c.7.81 1.454 1.62 2.184 2.43a5.37 5.37 0 002.265 2.83 4.769 4.769 0 00.189-1c.537.47 1.136.93 1.685 1.4 1.091 1.52 2.239 3.02 3.416 4.52a3.5 3.5 0 00.384 1.36c1.489 1.64 3.043 4.07 4.855 4.66a28.324 28.324 0 004.717 3.93c.432.42.792.73 1.234 1.14a8.693 8.693 0 002.428 2.9 6.329 6.329 0 002.9 1.66c.716.31 1.289.55 2.008.84a96.279 96.279 0 008.158 5.16c.239.24.526.43.879.74a9.553 9.553 0 003.067 2.26c1.222.31 3.456 2.07 5.156 1.8.916.43 1.881.81 2.8 1.22 1.559.74 3.091 1.47 4.815 2.21a37.772 37.772 0 0012.111 3.31 4.635 4.635 0 002.679.26 20.9 20.9 0 007.125.76c1.112.19 2.363.36 3.618.52 1.432.79.091 1.05 1.144 1.81 1.515.05 3.036.02 4.554 0 2.149 0 3.456-.14 5.2-.02.866-.12 1.862-.26 2.711-.41a28.418 28.418 0 005.6-.35c3.462-.19 4.004-.93 9.009-1.93z" transform="translate(-345.375 -3496)"/><path id="健" class="cls-1" d="M484.4 3567.72h-6.24l-.96-.12a.937.937 0 00.48-.48 19.654 19.654 0 012.52-3 18.74 18.74 0 013.96-4.2c2.28-1.56 2.4-3.12.12-4.8a2.037 2.037 0 00-.72-.72 8.274 8.274 0 00-3.36-1.8 34.644 34.644 0 00-5.64 1.32c-.36.12-.84.24-1.2.36a1.651 1.651 0 01-1.32-.12 1.7 1.7 0 01-.12-1.32 5.849 5.849 0 01.48-1.32c1.08-3.12.12-5.64-2.759-7.32-1.08-.6-2.16-1.32-3.12-1.92a1.309 1.309 0 00-1.44-.24 1.476 1.476 0 00-.84 1.32c-.24 3.84-.36 7.56-.36 11.28a1.036 1.036 0 01-1.32 1.2c-2.04.12-3.96.24-6 .36a3.087 3.087 0 00-1.8.12 1.535 1.535 0 00-1.2 1.2 3.751 3.751 0 001.08 1.32 4.055 4.055 0 001.44.72l6.84 1.92a1.245 1.245 0 01.72.96 50.834 50.834 0 01.36 6.12 2.339 2.339 0 01-.12.96 22.128 22.128 0 01-4.68 2.88 69.637 69.637 0 00-9.96 4.08 27.685 27.685 0 00-8.4 6.48.636.636 0 01-.36.24.536.536 0 010-.6 35.061 35.061 0 012.88-4.44 1.994 1.994 0 00.12-2.52 12.49 12.49 0 00-6.96-4.8c-1.2-.6-2.04-.24-2.76.96a10.094 10.094 0 01-3.36 4.92c-1.68 1.32-3.24 2.52-4.92 3.72q-2.16 1.26-3.959 2.52c-.72.72-1.44 1.32-2.16 2.04l3.239.36a50.509 50.509 0 006.12-1.44q1.62-.36 1.08 1.08c-.84 2.52-1.8 5.04-2.76 7.56-1.08 1.92-2.04 3.96-3.24 5.76a3 3 0 00-.48 1.68 9.256 9.256 0 006 5.76.726.726 0 00.72 0 4.569 4.569 0 012.28-1.68c.96-.24 1.8-.48 2.76-.72.84-.24 1.32.12 1.2 1.08a42.407 42.407 0 01-3.24 13.44 2.074 2.074 0 01-1.44.72c-2.64-.72-5.16-1.32-7.8-1.8a13.942 13.942 0 00-5.039.96c-1.68.72-1.68 1.56-.12 2.52a22.228 22.228 0 004.439 2.28c2.04.48 3.96.96 6 1.32a.856.856 0 01.96.84 25.814 25.814 0 01-6.96 10.08c-.84.72-1.44.6-1.92-.36a6.723 6.723 0 00-.479-.84.635.635 0 00-.96-.12c-.24.48-.6 1.08-.96 1.68l-.72 1.44a2.293 2.293 0 00.36 3.48 2.152 2.152 0 01.6.84c1.08 1.44 2.28 1.68 3.719.48 1.8-1.8 3.72-3.72 5.52-5.76a27.686 27.686 0 004.44-6.6 7.025 7.025 0 011.2-2.04 2.22 2.22 0 012.16-.84q1.44.36 2.52.72a85.78 85.78 0 0115.479 5.88c5.04 2.52 9.96 5.28 14.64 8.16 3.959 2.28 7.919 4.44 12 6.72a3.015 3.015 0 001.68.72 21.38 21.38 0 0012.839-.84 7.76 7.76 0 011.92-1.08l-1.92-2.16c-.359-.24-.719-.36-1.079-.6-5.4-1.68-10.68-3.6-15.84-5.64a73 73 0 01-7.559-3.6 33.566 33.566 0 01-3-2.64 2.373 2.373 0 01-.24-1.2 43 43 0 011.08-5.4c0-.6.12-1.2.12-1.8a1.447 1.447 0 01.96-1.44 5.018 5.018 0 011.8-.48 60.822 60.822 0 0015.719-6c1.32-.6 1.44-1.56.6-2.88a37.175 37.175 0 00-9.24-8.04l-.6-.72a1.287 1.287 0 00.72-.24 6.431 6.431 0 001.32-.6 2.613 2.613 0 001.08-.84 3.035 3.035 0 00-1.32-2.64 12.621 12.621 0 00-3.24-2.4 2.265 2.265 0 00-3.24-.72 2.735 2.735 0 01-1.32.36 1.534 1.534 0 01-.84-.6 1.023 1.023 0 010-.84 50.339 50.339 0 015.4-4.68l5.64-4.44c1.44-1.08 1.44-2.16 0-3.36a45.271 45.271 0 00-6.48-4.08h-.36c-1.2.36-2.4.72-3.48 1.08a1.315 1.315 0 01-.96 0 3.57 3.57 0 01-.119-2.52 3.722 3.722 0 011.079-2.16c.96-.36 2.04-.72 3.12-1.08a10.638 10.638 0 013.36-.84c4.08.24 8.28.6 12.36.96a2.471 2.471 0 001.8-.36 1.272 1.272 0 00-.36-1.56 10.828 10.828 0 00-3.24-3.36 6.417 6.417 0 00-4.44-1.2zm-21.359 56.4v3.84a5.944 5.944 0 01-.24 2.04 3.559 3.559 0 01-1.8-.84 58.437 58.437 0 00-10.44-4.56c-3.72-1.2-7.319-2.52-10.919-3.72a1.008 1.008 0 01-.96-1.56c1.08-2.28 2.04-4.68 3-6.96a24.575 24.575 0 001.92-7.2 5.616 5.616 0 00-.6-3.72 15.822 15.822 0 00-6.48-4.8c-.84-.24-1.08-.6-.72-1.32 1.08-3 2.16-6 3.12-8.88a1.2 1.2 0 011.56-.96 6.056 6.056 0 004.08-1.44 20.465 20.465 0 016-3.6c2.16-.72 4.44-1.44 6.72-2.04h.6a2.027 2.027 0 00-.24.6c-2.52 2.76-4.92 5.64-7.2 8.52a9.582 9.582 0 00-.6 3.12 10.614 10.614 0 002.76 0 19.482 19.482 0 013.36-1.32 7.761 7.761 0 013.72-.12 8.045 8.045 0 002.4 0c1.44.48 1.68 1.32.84 2.52q-4.32 3.78-9 7.56a2 2 0 00-.6 3.12 8.992 8.992 0 004.92 4.44c.72.24.84.72.24 1.2a23.337 23.337 0 01-8.52 6.72c-2.28 1.2-2.76 2.88-1.44 5.16a4.931 4.931 0 003.48 2.88 9.88 9.88 0 004.56.24 22.332 22.332 0 004.08-.48c1.558-.48 2.395 0 2.395 1.56zm8.519-19.32a6.21 6.21 0 015.64.24 17.007 17.007 0 014.32 3.96 2.4 2.4 0 01.24 1.8 5.92 5.92 0 01-4.32 2.88c-2.52.48-5.04.84-7.559 1.44-1.08.12-1.56-.36-1.32-1.44.12-2.76.36-5.4.72-8.16a2.826 2.826 0 011.08-.72 5.576 5.576 0 001.2-.6v.6zm-8.519 8.52c0 .48-.12 1.08-.12 1.68a1.169 1.169 0 01-.96 1.2 4.235 4.235 0 01-1.68.36c-1.2.12-2.52.24-3.84.24-.84.12-1.08-.24-.72-.96a13.6 13.6 0 015.88-7.32c.6-.48.96-.48.96.24.116 1.56.239 3.12.476 4.56zm.6-35.64v2.88c.36 1.68-.36 2.76-2.16 3-1.44.24-2.88.48-4.2.84a.765.765 0 01-.72 0 3.182 3.182 0 01.6-.72c1.32-1.56 2.76-3 4.2-4.56a8.775 8.775 0 011.92-1.68.3.3 0 01.356.24zm8.279 10.92a3.421 3.421 0 01.96-1.68 2.521 2.521 0 011.68-.84 1.089 1.089 0 01.36.84 11.42 11.42 0 00-2.52 2.28 1.2 1.2 0 01-.484-.6zm-.959-26.76l1.679-.72.36.36a14.382 14.382 0 01-1.44 1.32 2.6 2.6 0 01-.603-.96zm-59.038.24a97.02 97.02 0 00-1.44 8.52 234.67 234.67 0 01-15 53.28 4.731 4.731 0 01-.6 1.68v.48a3.08 3.08 0 00.6-.24 70.933 70.933 0 005.759-8.04 59.79 59.79 0 003.24-6.84c.24-.12.6-.24.84-.36a6.268 6.268 0 011.68 3l.72 20.16a8 8 0 01-1.08 2.52 4.89 4.89 0 00-.6 2.16 13.673 13.673 0 004.2 6.72q1.26 1.08 1.8-.36a20.755 20.755 0 001.44-5.52c0-3.48 0-7.08-.12-10.68a84.724 84.724 0 010-11.04 6.159 6.159 0 00-2.04-5.76 41.61 41.61 0 01-3.48-3 1.614 1.614 0 01-.96-2.52q3.6-7.92 6.48-16.2c1.92-7.44 3.72-14.88 5.28-22.44a7.561 7.561 0 011.2-3.48 2.916 2.916 0 00-.36-4.2 10.565 10.565 0 00-9.96-4.56c-.48.12-1.08.24-1.68.36.24.48.6.96.84 1.44a7.775 7.775 0 012.4 2.04 3.475 3.475 0 01.837 2.88z" transform="translate(-345.375 -3496)"/></g><path id="ニ.もっと健康に" class="cls-1" d="M388.163 3748.9c-.48-.78-.9-1.56-1.38-2.34a8.467 8.467 0 00-3.42-2.4 34.516 34.516 0 00-3.96-1.38 1 1 0 00-.72-.06 3.512 3.512 0 00-.78.12c-1.26-.12-2.58-.24-3.9-.36-1.2-.12-2.4-.24-3.66-.42a18.64 18.64 0 00-3.659 0 47.3 47.3 0 00-9 2.34 90 90 0 00-8.64 3.54 14.326 14.326 0 00-1.92.96 3.69 3.69 0 00-1.32 1.68.772.772 0 00.06.72 5.625 5.625 0 003.48 1.8 6.306 6.306 0 003.9-.54c1.86-.96 3.78-1.92 5.64-2.82a2.353 2.353 0 011.08-.24c.6-.06 1.14-.18 1.74-.24a7.852 7.852 0 001.68-.54 16.886 16.886 0 0110.979-1.38c.84.24 1.68.48 2.46.72a6.943 6.943 0 002.52.24c.06 0 .12.06.18.06l5.16 2.28 1.2.42a1.627 1.627 0 001.62-.54 2.216 2.216 0 00.66-1.62zm-21.363-18.65c1.559 0 3.179-.06 4.739-.18a20.339 20.339 0 004.68-1.02 14.921 14.921 0 001.68-.9 3.18 3.18 0 00.9-.48 2 2 0 001.02-.84 2.034 2.034 0 00-.12-1.86 3.93 3.93 0 00-1.32-1.5 6.422 6.422 0 01-.84-.96 2.59 2.59 0 00-2.46-.9c-1.92.66-3.84 1.26-5.759 1.86a38.119 38.119 0 01-5.88 1.38 46.8 46.8 0 00-6.96 1.62 1.8 1.8 0 00-.54.6c-.12.3-.3.54-.42.9a.929.929 0 00.66.48c.48.12.9.24 1.44.36a41.6 41.6 0 004.5 1.2 17.275 17.275 0 004.68.24zm37.5 21.59a85.3 85.3 0 01-3.839.66 1 1 0 00-.9 1.38c.6 1.74 1.2 3.48 1.68 5.22a3.832 3.832 0 001.5 1.98l1.621 1.26a9.469 9.469 0 001.619 1.08 7.319 7.319 0 001.02.42 1.332 1.332 0 00.96.06 1.3 1.3 0 00.84-.54 2.517 2.517 0 00.54-.84 13.844 13.844 0 00.6-1.68c.24-1.44.54-2.94.84-4.5a.853.853 0 00-.12-.36.634.634 0 01-.12-.3 5.8 5.8 0 00-1.56-2.04 9.922 9.922 0 00-2.16-1.32 7.5 7.5 0 00-2.521-.48zm51.9-26.45l-.18-.96a15.644 15.644 0 00-.3-2.88 6.961 6.961 0 00-1.08-2.58 4.041 4.041 0 00-1.32-1.14 2.729 2.729 0 00-1.68-.3.51.51 0 00-.42.42.467.467 0 00.18.42 3.853 3.853 0 011.56 3.48c-.18 2.22-.42 4.38-.66 6.54a2.265 2.265 0 01-1.2 1.38 18.418 18.418 0 00-1.56 1.5 14.354 14.354 0 01-.78 1.26 6.424 6.424 0 00-.78 1.26 1.855 1.855 0 00-.12 1.5 4.049 4.049 0 00.78 1.32 8.36 8.36 0 01.9 1.14.882.882 0 01.3.89c-.18 1.14-.36 2.22-.54 3.3a30.3 30.3 0 00-.36 3.36 5.85 5.85 0 01-2.52 4.92 1.313 1.313 0 00-.54.6c.3-.06.6-.12.84-.18a3.046 3.046 0 001.08-.54c.6-.54 1.02-.36 1.14.48a34.452 34.452 0 001.56 4.8 7.851 7.851 0 003.66 3.84 9.4 9.4 0 005.279 1.02 6.779 6.779 0 004.8-2.82 32.955 32.955 0 012.64-3.12 22.573 22.573 0 001.5-1.86 6.116 6.116 0 00.96-2.1l.9-4.14a13.223 13.223 0 00.24-2.16v-3.42a5.842 5.842 0 00-.36-2.04 10.819 10.819 0 00-1.86-3.05 6.916 6.916 0 00-2.94-1.98l-6.659-2.34c-.781-.12-1.621-.3-2.46-.36-.6-.12-.78-.42-.54-.96q.184-2.25.54-4.5zm-3.18 23.87a2.855 2.855 0 01.3-1.98 4.908 4.908 0 011.2-1.5 52.217 52.217 0 004.14-4.02 2.45 2.45 0 00.359-2.4 3.754 3.754 0 00-3.119-2.21 6.681 6.681 0 01-1.02-.12.636.636 0 01-.54-.78c.06-.36.12-.72.18-1.02a27.679 27.679 0 01.72-3.06.577.577 0 01.54-.48 18.024 18.024 0 012.519.3c.96.18 2.04.42 3.06.66l2.52 1.08a3.362 3.362 0 011.5.89c.42.49.78.97 1.14 1.45a9.081 9.081 0 011.56 7.97c-.42 1.2-.84 2.46-1.26 3.66a12.829 12.829 0 01-2.94 4.8 19.322 19.322 0 01-4.559 3.42 3.251 3.251 0 01-2.22.66 3.056 3.056 0 01-2.1-.9 4.325 4.325 0 01-1.26-1.98 42.729 42.729 0 01-.716-4.44zm.18-7.26c.12-.72.18-1.5.24-2.22a.5.5 0 01.72-.54 1.693 1.693 0 01.9.24.5.5 0 01.36.72 3.027 3.027 0 01-.42.78l-1.44 2.16-.24.24a.289.289 0 01-.12-.36 2.913 2.913 0 010-1.02zm70.679-4.01c-1.08.12-2.16.29-3.18.47a27.591 27.591 0 00-5.459 1.74 51.913 51.913 0 00-5.22 2.46c-1.5.72-3 1.44-4.44 2.04a24.385 24.385 0 01-4.74 1.56 6.545 6.545 0 01-.66.36c-.36.36-.3.6.12.78.3.06.6.18.9.24a2.984 2.984 0 00.96.18c.84-.12 1.62-.24 2.46-.42a7.042 7.042 0 002.4-.78 57.565 57.565 0 016.24-2.7c2.1-.78 4.2-1.56 6.359-2.34a9.565 9.565 0 013.48-.84 10.012 10.012 0 013.54.3 9.2 9.2 0 011.62.66 3 3 0 011.32 1.14 2.614 2.614 0 01.42 1.68 5.205 5.205 0 01-.3 1.68 3.546 3.546 0 01-.42 1.2 19.04 19.04 0 01-1.92 2.94 23.276 23.276 0 01-2.34 2.52 49.7 49.7 0 01-7.919 6.24 2.61 2.61 0 00-.42.36c.18-.06.359-.06.54-.12.84-.42 1.619-.84 2.4-1.26 1.14-.6 2.22-1.14 3.36-1.8.42-.24.84-.42 1.2-.6a3.4 3.4 0 001.08-.72 16.905 16.905 0 012.76-2.28c.96-.6 1.98-1.26 2.94-1.86a8.369 8.369 0 001.62-1.26 4.978 4.978 0 001.14-1.62 5.054 5.054 0 00.42-2.1 5.62 5.62 0 00-.42-2.22 7.591 7.591 0 00-1.2-1.86 8.483 8.483 0 00-2.4-2.22 7.7 7.7 0 00-3-1.2 14.693 14.693 0 00-3.237-.35zm59.34 20.87l3.72-.24q1.26 0 .54-1.08a3.852 3.852 0 00-2.04-1.86 5.345 5.345 0 00-2.76-.36 41.513 41.513 0 01-7.259-.3 39.466 39.466 0 01-4.44-1.02c-.42-.06-.54-.3-.18-.72.66-1.14 1.38-2.28 2.1-3.42a9.067 9.067 0 012.88-2.76c.18-.12.42-.3.66-.48a.635.635 0 01.78-.06 3.825 3.825 0 01.84.48 2.857 2.857 0 002.7.42.748.748 0 00.18-.72c-.42-.72-.9-1.5-1.32-2.22l-.18-.54a22.7 22.7 0 011.98-1.32c1.2-.66 2.34-1.26 3.42-1.86.9-.72 1.8-1.38 2.76-2.04a13.377 13.377 0 013-1.55 19.989 19.989 0 003-1.5 1.7 1.7 0 00.54-.6 1.446 1.446 0 00.3-.61 2.2 2.2 0 00-1.08-1.25 5.433 5.433 0 00-1.56-.78 3.217 3.217 0 00-1.68-.06 52.289 52.289 0 00-9.72 4.8c-1.079.72-2.159 1.43-3.239 2.03-.42.24-.66.18-.84-.24-.42-1.55-.9-3.17-1.38-4.68a22.9 22.9 0 01-.78-8.33l.18-5.22a3.453 3.453 0 00-1.2-3 .852.852 0 00-1.44.42 10.426 10.426 0 00-.6 1.14 32.208 32.208 0 00-1.08 16.5 17.189 17.189 0 001.44 4.61 22.069 22.069 0 003.42 3.72l.6.6a.484.484 0 01-.06.72 2.107 2.107 0 01-.6.48 3.442 3.442 0 01-.42.24c-2.04 1.56-4.08 3.12-6.06 4.8a1.844 1.844 0 00-.42 2.94 7.9 7.9 0 003.42 3 24.888 24.888 0 005.82 1.38c2.039.24 4.022.42 6.062.54zm5.58-24.06c-.18.19-.3.31-.42.43a30.658 30.658 0 01-2.88 2.7c-2.1 1.67-4.2 3.35-6.36 4.97a1.482 1.482 0 01-.479-.06 3.07 3.07 0 01-.361-.78.622.622 0 01.3-.96 1.339 1.339 0 001.08-1.26 1.655 1.655 0 01.72-.84 37.269 37.269 0 014.26-2.99 27.515 27.515 0 013.66-1.21h.48zm67.5-11.39h-3.12l-.48-.06a.468.468 0 00.24-.24 9.827 9.827 0 011.26-1.5 9.37 9.37 0 011.98-2.1c1.14-.78 1.2-1.56.06-2.4a1.019 1.019 0 00-.36-.36 4.137 4.137 0 00-1.68-.9 17.322 17.322 0 00-2.82.66c-.18.06-.42.12-.6.18a.826.826 0 01-.66-.06.85.85 0 01-.06-.66 2.925 2.925 0 01.24-.66 2.816 2.816 0 00-1.38-3.66c-.54-.3-1.08-.66-1.56-.96a.654.654 0 00-.72-.12.738.738 0 00-.42.66c-.12 1.92-.18 3.78-.18 5.64a.518.518 0 01-.66.6c-1.02.06-1.98.12-3 .18a1.544 1.544 0 00-.9.06.767.767 0 00-.6.6 1.876 1.876 0 00.54.66 2.028 2.028 0 00.72.36l3.42.96a.622.622 0 01.36.48 25.417 25.417 0 01.18 3.06 1.17 1.17 0 01-.06.48 11.064 11.064 0 01-2.34 1.44 34.819 34.819 0 00-4.98 2.04 13.847 13.847 0 00-4.2 3.24.318.318 0 01-.18.12.268.268 0 010-.3 17.531 17.531 0 011.44-2.22 1 1 0 00.06-1.26 6.245 6.245 0 00-3.48-2.4.94.94 0 00-1.38.48 5.047 5.047 0 01-1.68 2.46c-.84.66-1.62 1.26-2.46 1.86q-1.08.63-1.98 1.26c-.36.36-.72.66-1.08 1.02l1.62.18a25.254 25.254 0 003.06-.72q.81-.18.54.54c-.42 1.26-.9 2.51-1.38 3.78-.54.96-1.02 1.98-1.62 2.87a1.5 1.5 0 00-.24.84 4.628 4.628 0 003 2.88.363.363 0 00.36 0 2.284 2.284 0 011.14-.84c.48-.12.9-.24 1.38-.36.42-.12.66.06.6.54a21.2 21.2 0 01-1.62 6.72 1.037 1.037 0 01-.72.36 45.69 45.69 0 00-3.9-.9 6.974 6.974 0 00-2.52.48c-.84.36-.84.78-.06 1.26a11.1 11.1 0 002.22 1.14c1.02.24 1.98.48 3 .66a.428.428 0 01.48.42 12.907 12.907 0 01-3.48 5.04c-.42.36-.72.3-.96-.18a3.442 3.442 0 00-.24-.42.317.317 0 00-.48-.06c-.12.24-.3.54-.48.84l-.36.72a1.146 1.146 0 00.18 1.74 1.076 1.076 0 01.3.42 1.13 1.13 0 001.86.24c.9-.9 1.86-1.86 2.76-2.88a13.843 13.843 0 002.22-3.3 3.512 3.512 0 01.6-1.02 1.11 1.11 0 011.08-.42q.72.18 1.26.36a42.857 42.857 0 017.739 2.94c2.52 1.26 4.98 2.64 7.32 4.08 1.98 1.14 3.96 2.22 6 3.36a1.508 1.508 0 00.84.36 10.692 10.692 0 006.42-.42 3.875 3.875 0 01.959-.54l-.959-1.08c-.18-.12-.36-.18-.54-.3-2.7-.84-5.34-1.8-7.92-2.82a36.558 36.558 0 01-3.78-1.8 16.783 16.783 0 01-1.5-1.32 1.187 1.187 0 01-.12-.6 21.5 21.5 0 01.54-2.7c0-.3.06-.6.06-.9a.723.723 0 01.48-.72 2.514 2.514 0 01.9-.24 30.408 30.408 0 007.86-3c.66-.3.72-.78.3-1.44a18.587 18.587 0 00-4.62-4.02l-.3-.36a.643.643 0 00.36-.12 3.216 3.216 0 00.66-.3 1.307 1.307 0 00.54-.42 1.518 1.518 0 00-.66-1.32 6.05 6.05 0 00-1.62-1.19 1.133 1.133 0 00-1.62-.36 1.368 1.368 0 01-.66.18.765.765 0 01-.42-.3.507.507 0 010-.42 26.433 26.433 0 012.7-2.35l2.82-2.21c.72-.54.72-1.08 0-1.68a22.636 22.636 0 00-3.24-2.04h-.18c-.6.18-1.2.36-1.74.54a.657.657 0 01-.48 0 1.788 1.788 0 01-.06-1.26 1.862 1.862 0 01.54-1.08c.48-.18 1.02-.36 1.56-.54a5.319 5.319 0 011.68-.42c2.04.12 4.14.3 6.18.48a1.236 1.236 0 00.9-.18.636.636 0 00-.18-.78 5.414 5.414 0 00-1.62-1.68 3.208 3.208 0 00-2.218-.6zm-10.68 28.19v1.92a2.972 2.972 0 01-.12 1.02 1.779 1.779 0 01-.9-.42 29.218 29.218 0 00-5.22-2.28c-1.859-.6-3.659-1.26-5.459-1.86a.5.5 0 01-.48-.78c.54-1.14 1.02-2.34 1.5-3.48a12.287 12.287 0 00.96-3.6 2.808 2.808 0 00-.3-1.86 7.8 7.8 0 00-3.24-2.39c-.42-.12-.54-.3-.36-.66.54-1.5 1.08-3.01 1.56-4.44a.6.6 0 01.78-.48 3.028 3.028 0 002.04-.72 10.237 10.237 0 013-1.8c1.08-.36 2.22-.72 3.36-1.02h.3a1.014 1.014 0 00-.12.3 79.552 79.552 0 00-3.6 4.26 4.661 4.661 0 00-.3 1.55 4.556 4.556 0 001.38 0 9.741 9.741 0 011.68-.66 3.88 3.88 0 011.86-.06 4.023 4.023 0 001.2 0 .722.722 0 01.42 1.27q-2.16 1.89-4.5 3.77a1 1 0 00-.3 1.56 4.5 4.5 0 002.46 2.22c.36.12.42.36.12.6a11.673 11.673 0 01-4.259 3.36 1.625 1.625 0 00-.721 2.58 2.467 2.467 0 001.74 1.44 4.94 4.94 0 002.28.12 11.166 11.166 0 002.04-.24c.78-.24 1.203 0 1.203.78zm4.26-9.66a3.1 3.1 0 012.82.12 8.5 8.5 0 012.16 1.98 1.2 1.2 0 01.12.9 2.96 2.96 0 01-2.16 1.44c-1.26.24-2.52.42-3.78.72-.54.06-.78-.18-.66-.72.06-1.38.18-2.7.36-4.08a1.417 1.417 0 01.54-.36 2.8 2.8 0 00.6-.3v.3zm-4.26 4.26c0 .24-.06.54-.06.84a.584.584 0 01-.48.6 2.118 2.118 0 01-.84.18c-.6.06-1.26.12-1.92.12-.42.06-.54-.12-.36-.48a6.8 6.8 0 012.94-3.66c.3-.24.48-.24.48.12.064.78.121 1.56.244 2.28zm.3-17.81v1.44a1.121 1.121 0 01-1.08 1.5c-.72.12-1.44.24-2.1.42a.383.383 0 01-.36 0 1.591 1.591 0 01.3-.36c.66-.78 1.38-1.5 2.1-2.28a4.387 4.387 0 01.96-.84.151.151 0 01.184.12zm4.14 5.45a1.726 1.726 0 01.48-.83 1.261 1.261 0 01.84-.42.545.545 0 01.18.42 5.924 5.924 0 00-1.26 1.13.6.6 0 01-.236-.3zm-.48-13.37l.84-.36.18.18a7.191 7.191 0 01-.72.66 1.306 1.306 0 01-.296-.48zm-29.519.12c-.3 1.38-.54 2.82-.72 4.26a117.423 117.423 0 01-7.5 26.63 2.365 2.365 0 01-.3.84v.24a1.54 1.54 0 00.3-.12 35.461 35.461 0 002.879-4.02 29.9 29.9 0 001.62-3.42c.12-.06.3-.12.42-.18a3.134 3.134 0 01.84 1.5l.36 10.08a4 4 0 01-.54 1.26 2.445 2.445 0 00-.3 1.08 6.836 6.836 0 002.1 3.36q.63.54.9-.18a10.378 10.378 0 00.72-2.76c0-1.74 0-3.54-.06-5.34a42.362 42.362 0 010-5.52 3.079 3.079 0 00-1.02-2.88 20.8 20.8 0 01-1.74-1.5.807.807 0 01-.48-1.26c1.2-2.64 2.28-5.33 3.24-8.1.96-3.71 1.86-7.43 2.64-11.21a3.78 3.78 0 01.6-1.74 1.458 1.458 0 00-.18-2.1 5.282 5.282 0 00-4.98-2.28c-.24.06-.54.12-.84.18.12.24.3.48.42.72a3.888 3.888 0 011.2 1.02 1.737 1.737 0 01.425 1.44zm78.36 24.71c.119 6.06.179 10.02.3 11.94a4.9 4.9 0 01-2.039 4.08.591.591 0 01-.96.06c-.72-.66-1.38-1.32-2.1-1.92a1.048 1.048 0 01-.42-.84 2.487 2.487 0 01.18-.96 11.848 11.848 0 011.74-2.64c.72-.78 1.38-1.62 1.98-2.4a3.4 3.4 0 01.359-.48 1.14 1.14 0 00-.6.3c-1.56 1.08-3.06 2.22-4.56 3.36-.54.6-.96.66-1.44.06a2.6 2.6 0 00-.3-.06.33.33 0 00.18.3.63.63 0 01-.18 1.08c-.6.36-1.2.78-1.74 1.14-.6.6-1.02.48-1.26-.24a.6.6 0 00-1.02-.36c-1.56 1.14-1.68 2.34-.36 3.72a2.519 2.519 0 003.72.48c.84-.66 1.62-1.38 2.4-2.1a2.925 2.925 0 00.42-.18c1.08 1.26 2.1 2.52 3.12 3.84a4.419 4.419 0 002.22 1.68.763.763 0 00.719 0 12.145 12.145 0 001.56-1.5 7.069 7.069 0 01.66-1.14 3.208 3.208 0 00.6-2.22c-.06-1.8-.12-3.54-.12-5.28 0-.66.24-.84.78-.54a11.867 11.867 0 001.86.72 38.3 38.3 0 0111.7 5.34 11.656 11.656 0 002.16.9 1.088 1.088 0 001.2-.06 1.776 1.776 0 00.12-1.26 6.6 6.6 0 00-1.8-2.28 17.509 17.509 0 00-6.84-3.78 24.534 24.534 0 00-7.8-.84c-.3 0-.6-.06-.96-.06a.477.477 0 01-.54-.54 2.6 2.6 0 01.06-.96.933.933 0 01.36-.48c.66-.18 1.32-.36 1.98-.48.42-.12.84-.3 1.26-.42a18.06 18.06 0 002.46-.54c1.74-.66 3.48-1.44 5.16-2.22a1.894 1.894 0 00.84-2.94 3.5 3.5 0 00-2.76-1.8 1.73 1.73 0 00-1.14.36l-1.08.72a.541.541 0 00-.06.3.285.285 0 00.12.3c.36.42.3.72-.18 1.08a23.161 23.161 0 01-6.12 4.62 2.478 2.478 0 00-.66.42 2.355 2.355 0 01-.18-.84c.12-2.1.24-4.14.36-6.18a1.3 1.3 0 01.66-.72l2.7-.96c1.26-.48 2.58-.96 3.9-1.38q1.17-.63 2.16-1.26a1.474 1.474 0 00.66-1.01 7.376 7.376 0 00-.84-1.5.283.283 0 01-.06-.36 11.781 11.781 0 002.76-6.36 3.314 3.314 0 00-.66-3.06 10.119 10.119 0 00-4.44-2.76 3.51 3.51 0 00-2.7 0c-1.08.48-2.28.9-3.42 1.38a.583.583 0 01-.54-.06c-.06-.36-.18-.72-.24-1.14a7.2 7.2 0 00-.96-1.92c-.54-.72-.9-.66-1.2.18-.239 1.26-.479 2.52-.78 3.78a2.3 2.3 0 01-.66 1.02l-3.9 1.8a14.354 14.354 0 00-1.26.78.33.33 0 00-.18.3c.12 0 .24.06.36.06 1.56-.36 3.12-.6 4.8-.9.36-.18.481-.06.481.36 0 1.02 0 2.1-.061 3.18a.859.859 0 01-.6 1.01c-1.98.84-3.84 1.75-5.7 2.65a7.62 7.62 0 00-.72.6 2.577 2.577 0 00.96 0c1.26-.18 2.58-.36 3.84-.6h.42a1.312 1.312 0 00-.18.3c-.96 1.08-1.92 2.15-2.88 3.23a19.226 19.226 0 01-3.24 3 1.822 1.822 0 00-.72 1.26c.36 1.8 1.38 2.46 3.12 1.92 1.68-.54 3.36-1.14 4.98-1.74.605-.3.904-.06.785.66zm3.179-7.61a.382.382 0 000-.36 1.575 1.575 0 011.26-1.98c1.14-.55 1.26-1.21.36-2.04a1.81 1.81 0 00-.9-.54 1.126 1.126 0 01-.9-1.44c.12-1.02.24-1.98.3-3a.717.717 0 01.48-.54 27.359 27.359 0 014.5-1.08 6.06 6.06 0 012.46 1.08.7.7 0 01.12.6 3.825 3.825 0 01-.12.54 32.876 32.876 0 01-1.8 4.8 12.814 12.814 0 01-3.06 4.14 23.674 23.674 0 01-2.1 1.43c-.42.3-.6.24-.6-.3a4.784 4.784 0 00.001-1.31zm-3.24 1.13v.3a3.957 3.957 0 010 1.2 1.142 1.142 0 01-.6.96 4.033 4.033 0 01-1.08.42c-1.2.48-2.4.9-3.6 1.38a.657.657 0 01-.48 0 .551.551 0 01.06-.36 13.492 13.492 0 012.22-3.24 30.623 30.623 0 012.819-2.75c.361-.24.6-.12.6.36zm17.82-17.69h.78a.547.547 0 00.54-.78 8.773 8.773 0 00-.96-1.14 7.152 7.152 0 00-1.08-.9 3.175 3.175 0 00-1.26-.66h-3.66a49.357 49.357 0 00-9.9.66h-.6a.681.681 0 01.18-.48 2.645 2.645 0 00-.12-3.48 17.963 17.963 0 00-2.579-2.22 2.138 2.138 0 00-3.42.12c-.9.72-.84 1.32.24 1.8a.634.634 0 01.54.36 5.167 5.167 0 01.18 1.68 2.083 2.083 0 01-.6 1.5c-1.08 1.02-2.1 2.1-3.12 3.18a3.4 3.4 0 01-.78.48c-2.58 1.26-5.22 2.4-7.92 3.54-1.32.36-2.64.72-3.96 1.02a.763.763 0 00-.54.42.456.456 0 00.18.54 4.119 4.119 0 004.26 1.38c1.14-.36 2.22-.78 3.3-1.2a.541.541 0 00.3-.06v.24c-.54 1.92-1.08 3.84-1.68 5.76-1.38 3.54-2.82 7.07-4.26 10.55-.78 2.04-1.62 4.08-2.52 6.06a26.564 26.564 0 01-3.54 5.46 2.153 2.153 0 01-.659.36 3.334 3.334 0 01-.48-.78c.06-.6.119-1.26.18-1.86a.388.388 0 00.119-.36.379.379 0 00-.3.36c-.48 1.32-.9 2.64-1.32 4.02a.738.738 0 00.3.84 1.934 1.934 0 00.84.48 2.707 2.707 0 002.639-.72c.42-.3.84-.6 1.2-.9a22.488 22.488 0 002.64-4.32c.72-1.5 1.44-3.06 2.1-4.62 1.8-4.14 3.36-8.34 4.8-12.6q1.89-4.485 4.14-8.81a4.206 4.206 0 012.82-2.4c2.1-.66 4.2-1.26 6.239-1.92a30.167 30.167 0 015.7-1.26 27.529 27.529 0 019.66.48c.485.06.965.12 1.385.18zm-24.959 26.93a.743.743 0 00-.12.18.2.2 0 00-.3.06l-3.18 1.14c-.54.18-.54.42-.12.72a19.1 19.1 0 001.92.96.77.77 0 01.24.6c-.06.3-.12.54-.18.78a5.276 5.276 0 00.6-.36h.36c.9-.36 1.86-.72 2.82-1.14.78-.42.84-.96.18-1.56a19.938 19.938 0 00-2.216-1.38zm49.26-2.22c.18 2.58.42 5.16.78 7.74.36 2.22.78 4.5 1.2 6.72l.24.36a1.361 1.361 0 01.06-.24.285.285 0 01.12-.3.41.41 0 00.18.3.251.251 0 00.18.24v-.3a1.661 1.661 0 00.06-.54 38.258 38.258 0 00.42-5.22 54.335 54.335 0 01.72-12.48c.18-1.14.3-2.28.42-3.42l.48-8.75c.3-1.98.6-3.9.84-5.82a3.2 3.2 0 00-.36-1.44.879.879 0 00-.66-.12 2.456 2.456 0 00-.9.84c-.48 1.14-.96 2.22-1.44 3.36a20.93 20.93 0 00-1.2 3.42 49.44 49.44 0 00-1.02 7.86c-.116 2.57-.176 5.21-.116 7.79zm20.879-21.41v-.06a6.89 6.89 0 011.14.06c1.5.24 3.06.42 4.56.6.6 0 .78.3.48.78-1.32 2.58-2.64 5.04-4.08 7.5-1.56 2.46-3.12 4.86-4.68 7.25-.119.12-.24.3-.359.42v.24c.119 0 .179 0 .179-.12a14.779 14.779 0 001.62-1.02 5.58 5.58 0 001.26-1.38c1.08-1.79 2.16-3.59 3.36-5.39 1.2-1.74 2.46-3.48 3.66-5.28a1.258 1.258 0 01.66-.48 2.883 2.883 0 001.86-.6l1.68-1.14a2.256 2.256 0 00.84-.84 1.6 1.6 0 00.06-1.38 6.207 6.207 0 00-.66-1.26 4.361 4.361 0 00-1.56-1.2 9.059 9.059 0 00-1.8-.6 2.667 2.667 0 00-2.34 0c-2.1.9-4.14 1.8-6.18 2.76a2.406 2.406 0 00-.9.84 7.018 7.018 0 011.204.3zm11.4 31.61a.289.289 0 01.12-.24h.54a1.165 1.165 0 001.44-.72 1.631 1.631 0 00-.3-1.68 8.688 8.688 0 00-4.98-3.18c-3.3-.78-6.54-1.68-9.84-2.64a4.572 4.572 0 01-1.62-1.2c-.479-.48-.959-1.02-1.5-1.5a.458.458 0 01-.12-.3.45.45 0 00-.06-.3 1.312 1.312 0 00-.18.3 1.462 1.462 0 000 .72c.24.78.48 1.56.779 2.34a5.87 5.87 0 001.381 2.04 19.6 19.6 0 003.719 2.58 35.308 35.308 0 005.88 2.34c1.565.48 3.125 1.02 4.745 1.44z" transform="translate(-345.375 -3496)"/></svg>