<svg id="concept01.svg" xmlns="http://www.w3.org/2000/svg" width="474.724" height="267.66"><defs><style>.cls-1{fill:#fff;fill-rule:evenodd}</style></defs><g id="an"><path id="安" class="cls-1" d="M922.424 1072.27a22.518 22.518 0 018.73-18.46 59.779 59.779 0 0121.753-11.31 4.972 4.972 0 011.431-.14c-.143.29-.286.72-.429 1-1.431 3.01-2.862 6.01-4.15 9.02-3.435 7.87-6.727 15.88-10.018 24.04a5.18 5.18 0 01-3.435 3.44q-17.174 6.225-33.918 12.88c-1.431.57-1.574 1.43-.572 2.57a6.141 6.141 0 003.435 1.15 27.117 27.117 0 009.588-.86 51.031 51.031 0 008.873-3.44c3.721-1.71 7.442-3.57 11.163-5.43a2.413 2.413 0 01.859-.15.647.647 0 010 .72c-1.145 4.58-2.433 9.01-3.578 13.59a4.151 4.151 0 001.574 4.73 6.142 6.142 0 003.864 1.14 2.384 2.384 0 002.576-2.14 14 14 0 011.288-4.16c.859-2.43 2.433-3.14 4.866-2 1.145.43 2.29 1 3.721 1.43 3.148 1.15 6.3 2.29 9.3 3.58 1 .43 1 1 .286 1.72a107.6 107.6 0 01-5.3 6.15 48.375 48.375 0 01-16.315 9.16 74.159 74.159 0 01-18.461 3.58c-2.147.14-4.15.43-6.011.71a4.81 4.81 0 00-2 .29 4.517 4.517 0 012 .43 3.317 3.317 0 00.573.14 54.516 54.516 0 019.588.86 36.589 36.589 0 0014.741 0 81.98 81.98 0 0014.311-3.86 26.12 26.12 0 008.587-5.01 67.171 67.171 0 007.155-7.16c1-1.57 2-1.71 3.292-.43 3.578 3.44 6.869 7.02 10.161 10.74 5.438 7.01 10.733 13.88 16.172 20.89a1.643 1.643 0 010 2.43l-1.432 1.15a1.868 1.868 0 01-.429.57.433.433 0 00.573 0 5.668 5.668 0 015.437.29 2.194 2.194 0 002.29 0 3.131 3.131 0 00.43-2.72 68.222 68.222 0 00-5.295-8.87c-4.007-5.16-8.014-10.31-12.165-15.32a91.041 91.041 0 00-14.025-13.74.768.768 0 01-.286-1.14 63.881 63.881 0 007.156-14.74 3.685 3.685 0 00-.716-4.58 12.181 12.181 0 00-9.159-4.58 24.729 24.729 0 01-3.292-.43 19.236 19.236 0 012 2.72 2.391 2.391 0 011 3.29l-5.582 12.88c-.286 1-1 1.29-2.146.57-5.582-2.43-11.306-4.86-17.174-7.44a1.292 1.292 0 01-.429-1.43 72.319 72.319 0 013-7.73 3.558 3.558 0 012.147-1.57 70.686 70.686 0 0118.032-3.72c2.576-.29 5.438-.43 8.157-.72a124.485 124.485 0 0120.609-.43 45.166 45.166 0 0119.607 5.87 3.637 3.637 0 004.29-.29 5.212 5.212 0 00.15-3.86 11.888 11.888 0 00-9.59-7.16 144.445 144.445 0 00-15.459-1.43 160.307 160.307 0 00-42.934 4.87 5.48 5.48 0 01-1.574.14c.143-.43.286-1 .429-1.57a132.291 132.291 0 0117.03-34.64 3.232 3.232 0 011.718-.85c4.579-.58 9.159-1.15 13.739-1.86a12.712 12.712 0 0111.162 2.86c1.432 1 1.575 2 .287 3a159.022 159.022 0 01-14.884 12.88 79.317 79.317 0 01-17.174 10.02 5.149 5.149 0 00-2.289 1.57 23.834 23.834 0 002.862-.57c8.157-3.15 16.458-6.29 24.615-9.44q4.509-2.145 9.016-4.3c1.574-1 3.006-2 4.576-3.14a14.351 14.351 0 015.01-2.29 2.058 2.058 0 00.72-1.58 6.842 6.842 0 00-3.44-6.44 42.8 42.8 0 00-6.866-4.44 19.667 19.667 0 00-7.3-2.71 46.474 46.474 0 00-7.728-.29l-8.444 1.14h-2.147a10 10 0 001.431-1.28 1.89 1.89 0 00.573-.86 44.8 44.8 0 013.578-5.44 14.771 14.771 0 015.152-4.29 3.263 3.263 0 00.858-4.58 5.359 5.359 0 00-6.3-1.86 21.179 21.179 0 00-5.009 3.57 105.993 105.993 0 00-14.025 17.89 2.881 2.881 0 01-1.717 1.43 123.182 123.182 0 00-32.343 17.03 2 2 0 01-1 .29 1.822 1.822 0 01-.143-.86c.429-3.72.715-7.3 1-11.02a17.485 17.485 0 00-.859-3.72c-.859 1-1.717 2-2.576 3.15-2.29 7.44-4.866 14.88-7.3 22.47a5.409 5.409 0 00.573 5.29 27.971 27.971 0 004.007 5.01 23.229 23.229 0 003.291 1.43 8.093 8.093 0 001-3.14c.169 0 .169 0 .026-.15z" transform="translate(-723.156 -980)"/><path id="シェイプ_4" data-name="シェイプ 4" class="cls-1" d="M980.918 1175.2c.024-.05.033-.09.06-.14l.291-.74c1.174-.33 2.1-.66 3.12-.97a8.973 8.973 0 00-1.194-1.17 1.268 1.268 0 00-.031-.26c1.37-.36 2.767-.86 5.76-1.45l.06-.17.291-.74c1.174-.33 2.1-.64 3.12-.95a9.552 9.552 0 00-1.194-1.16 2.68 2.68 0 00-.238-.96c.1-.3.143-.4-2.072-.19-.623-.11-1.365-.21-1.984-.38-.109-.28-.1-.64-.2-.92.578-.67 1.148-1.38 1.819-2.1.862-.33 1.038-.57 1.769-.85l.3-1.05a4.232 4.232 0 00-.186-1.21c-.043-.22.628-.79-.341-.62-.564-.22-1.106-.48-1.764-.67a1.191 1.191 0 00.737-.83c-.864.21-1.738.43-2.6.59-2.291.12-.954-.8-4.356-.14-.274.52-3.082.76-3.036 1.38-3.924.48-6.908.14-10.09.45-2.5-.14-3.661.22-5.542.05-.776.29-3.251-.59-2.889.05a58.6 58.6 0 01-13.233-1.95c-.339 1.61-4.8-1.45-6.882-1.29-1.241-1.38-5.1-1.52-7.11-3.28a68.73 68.73 0 01-14.587-8.06 65.911 65.911 0 01-14.386-12.76c-.409.08-1.063-.92-1.607-.99-1.735-2.03-3.475-4.19-5.1-6.43a76 76 0 01-7.655-12.94c-.492-.31-.793-1.97-1.642-1.83a9.092 9.092 0 00-1.872-4.59c-.088-1.02-1.239-3.21-.642-3.24a5.62 5.62 0 00-.761-1.88 11.264 11.264 0 01-.993-2.87c-.4-.81-.683-1.55-1.082-2.48.764.45-.016-2.16-.238-2.31a14.868 14.868 0 00-1.387-3.52c-.033-.19-.052-.28-.086-.5a3.848 3.848 0 00-.353-3.4 6.564 6.564 0 00-.831-3.99c-.1-.53-.165-1.07-.258-1.5.54.71.294-.88.716-.72-.864-3.3 0-9.06-.279-12.39.131-1.31.282-2.52.478-3.83a33.6 33.6 0 00.675-6.04c.06-.29.139-.6.239-.98.682-2.76 2.024-6.32 2.864-10.44 1.134-2.81 2.609-5.5 3.71-7.97a23.934 23.934 0 012.694-3.14 40.2 40.2 0 016.684-10.32c.415-.62 1.041-1.24 1.06-.84a74.59 74.59 0 011.926-2.23 3.771 3.771 0 001.609-3l-1.4.43c.146-.6.239-1.1.325-1.6.368-.61.79-1.35 1.194-1.97.238-.21.463-.45.763-.74a95.085 95.085 0 0111.642-9.04c.136.29.286.57.424.86.812-.29 1.638-.55 2.445-.81a6.231 6.231 0 001.671-1.26c4.327-1.55 11.058-3.95 14.021-5.376 1.141-.4 2.4-.809 3.58-1.118 1.392-.286 2.683-.524 4.094-.761-.673 1.308 3.127-.548 4.669-.048 2.177-.261 1.723.476 4.215.1a14.57 14.57 0 011.552-.643 10.109 10.109 0 003.21-.428h.986a83 83 0 0115.551 1.974c1.378.309 2.731.666 4.089 1.023.955.238 2.024.452 3.077.738 3.079 1 4.535 1.643 7.443 2.383l.907.35c3.4 1.57 5.578 3.21 9.91 5.33a8.5 8.5 0 012.764 1.43 88.392 88.392 0 019.706 7.13c2.41 2.76 4.54 2.98 6.68 5.95a81.7 81.7 0 0118.45 28.31c.48.69.91 1.4 1.37 2.09.71 2.19 1.36 4.26 1.88 6.38-.48.95 1.24 4.66.74 5.61.41 1.24.5 3.48 1.1 3.62.91.83.24 2.45.62 3.78.07 2.43.26 4.38.19 7a14.3 14.3 0 00.26 4.18c-.59.72-.02 4.4-.74 5.07-.09 2.04-.24 4.07-.45 5.99a15.359 15.359 0 00-.67 2.22c.98 4.87-2.12 2.4-2.12 8.11a19.359 19.359 0 01-2.94 7.21c-1.69 2.37-.79 3.44-1.74 5.35a5.086 5.086 0 01-1.12.95 3.913 3.913 0 00-.72 1.69 12.714 12.714 0 01-2.27 3.61c-.5 1.17-1.07 1.15-1.19.84-.55.88-1.22 1.83-1.82 2.71-.76.97-1.47 1.88-2.29 2.83-.83.69-1.93 2.54-2.38 2.26-.5.59-.96 1.09-1.53 1.76l-1.24 1.31c-1.12 1.07-2.25 2.12-3.42 3.14-.57.4-1.07.78-1.52 1.14a1.887 1.887 0 00-.34.09l-.38-.59c-2.03.48-3.7 2.62-5.95 3.24-.82.85-3.61 1.68-3.84 2.33a16.313 16.313 0 01-4.161 2.4c-.9.95-4.216 1.88-3.819 2.54a6.362 6.362 0 002.589-.97c1.043-.24 2.149-.6 3.192-.91.133.27.257.48.386.74l-.117.15c-1.067.38-2.174.76-3.229 1.09-1.308.5-2.726 1-4.058 1.43a15.48 15.48 0 00-4.165 1.19c1.393-.22 2.78-.48 4.251-.81 1.747-.45 3.394-.93 5.105-1.48.308-.12.669-.26 1.043-.4-.63.43-1.245.81-1.909 1.24a8.091 8.091 0 00-2.49 1.45c-.549.26-1.09.5-1.737.76-1.306.47-2.717.95-4.042 1.38-1.308.47-2.728.97-4.057 1.42a16.715 16.715 0 00-4.166 1.17c1.394-.19 2.781-.45 4.252-.79 1.747-.47 3.394-.95 5.105-1.49.385-.12.847-.31 1.323-.5a31.01 31.01 0 007.216-2.74 75 75 0 003.188-1.07c.14.29.23.45.32.62 2.1-1.05 4.06-2.17 6.04-3.4.71-.53 1.43-.98 2.1-1.43 2.03-1.02 3.96-2.12 5.89-3.33 3.08-2.14 5.52-3.47 8.12-5.47 3.1-3.07 6.73-5.38 9.36-8.54.52-.62 1.09-1.21 1.59-1.83.79-.84 1.58-1.76 2.3-2.64.57-.84 1.09-1.6 1.64-2.45.05.64.17 1.35.22 2.02.33.62 1.26.26 1.88.02.67-.93 1.32-1.9 2.01-2.95.5-.66.95-1.26 1.5-2.04.84-1.6 1.63-3.31 2.37-4.93a75.741 75.741 0 006.66-16.79c.66-1.33 1.05-5.24 1.5-6.4.14-1.17.31-2.31.41-3.45.07-.62.14-1.36.19-1.98.81.03.81-2.64.52-3.52a89.209 89.209 0 00-.21-10.08c-.03-.83-.05-1.69-.12-2.52.64-.41.09-3.38-.43-4.5l-.29-1.57a38.25 38.25 0 00-.19-4c.64.6.31-1.09.76-.59.37.35.75.69 1.15 1 .45 1.45.95 3.04 1.98 6.04.26 2.47.43 4.85.48 7.35-.62.41-.53 2.95.17 6.16.21-1.16.38-2.33.52-3.52.22.03.41.03.62.05.02 0 .1.02.12.02a12.781 12.781 0 00.1-1.64c-.05-.88-.1-1.76-.17-2.64a3.318 3.318 0 00-1.03-1.55 7.569 7.569 0 00.46-3.71c-.17-.97-.39-2.07-.65-3.14-.19-.97-.45-2.04-.69-3.02h-.17c-.33-.74-.69-1.35-1.05-2.09-.64-2.88-1.69-6.02-2.29-8.56a89.671 89.671 0 00-5.9-14.18 7.693 7.693 0 00-2.24-4.36 97.362 97.362 0 00-11.81-16.15 4.514 4.514 0 00-1.41-2.33 9.587 9.587 0 00-2.44-1.64c-1.12-1.31-2.22-2.47-3.32-3.64-1.74-1.71-3.58-3.33-5.46-4.88-.79-.71-1.67-1.47-2.58-2.21-.84-.5-1.6-.9-2.53-1.427-1.41-.927-2.82-1.831-4.34-2.735a12.656 12.656 0 00-3.44-1.975c-1-.618-1.98-1.26-2.91-1.808 1.24.333.35-.666 1.69-.4a17.184 17.184 0 00-3-1.641c-.89-.191-1.67-.357-2.57-.547l-.45-.191c.58-.19-.24-.713-.71-1.07a19.87 19.87 0 00-4.588-1.4c-1.076-.523-1.585-.88-2.115-1.165a13.966 13.966 0 00-4.633-1.214 85.69 85.69 0 00-3.549-.832q-1.965-.571-3.96-1.07a22.793 22.793 0 00-4.137-.928c-1.071.047-2.133.119-3.2.191-2.625-.286-5.251-.5-7.76-.595-.876-.048-1.63-.072-2.508-.12a14.962 14.962 0 00-3.385-.951 21.777 21.777 0 00-4.34.357c-.377.024-.752.047-1.26.071a12.262 12.262 0 00-5.423.333c-.633.286-1.125.6-1.74.9a11.024 11.024 0 00-3.614.309c-3.2-.571-8.8.975-13.589 2.521-.79.5-1.444.952-2.213 1.475-2.258.738-4.483 1.594-6.683 2.5a3.914 3.914 0 00-2.929.761c-.688.9-4.38 2.213-5.934 3.925a7.555 7.555 0 00-2.065.809c-.781 1.046-5.449 2.593-6.445 4.686-.42.262-.955.571-1.473.88-.635.381-1.348.856-1.966 1.266-.767.61 1.63-.65.811-.05a12.344 12.344 0 00-3.318 3.3c1.58-.45 1.59-1 5.013-3.52a9.375 9.375 0 002.979-1.281v.047a5.014 5.014 0 002.177-1.26 18.915 18.915 0 013.263-1.523c.926-.619 1.947-1.332 3.017-1.974 1.456-.643 2.265-.952 3.172-1.333a83.957 83.957 0 013.783-1.95c-.362.547 2.261-.143 2.454.166a94.407 94.407 0 019.154-2.378c.447-.072.938-.143 1.433-.191a3.714 3.714 0 00-.743.405l.086.4a17.094 17.094 0 01-.79 1.664c-.43.238-.878.5-1.334.786a16.931 16.931 0 00-5.968 1.9c.031.142.058.238.084.38-.2.452-.387.928-.638 1.4a8.45 8.45 0 00-2.279 1.355c-.929.452-1.848.9-2.767 1.4-.207.071-.41.143-.62.238a.444.444 0 00.021.071 74.993 74.993 0 00-3.218 1.832c-1.432.81-2.816 1.69-4.179 2.59-1.273.67-2.54 1.38-3.819 2.14-2.609 1.5-5.106 3.22-7.529 4.9q-3.247 2.2-6.263 4.71a93.679 93.679 0 00-5.092 4.55 14.555 14.555 0 00-4.774 4.57c-.093.47-.188.97-.329 1.52-.272.35-.613.76-.955 1.19.115-1.03-.895.26-1.317.52a38.95 38.95 0 00-1.686 2.78c.363-.78.716-1.76 1.082-2.73 1.217-2.12 1.432-2.76.866-3.26-.628.97-1.27 1.93-1.8 2.81-.662.88-1.246 1.69-1.879 2.59 1.139-1.81 2.361-3.57 3.683-5.4.75-1.19.771-1.97.437-2.12-1 1.22-2.027 2.6-2.948 3.88-.788.52-.671-.26-.843-.33a86.239 86.239 0 00-6.409 12.49c-.343.88-.665 1.78-.954 2.68.312.62.682 1.17 1.04 1.81.077-.21.112-.31.2-.52.076.07.15.16.222.24a13.709 13.709 0 01-1.012 1.8 2.921 2.921 0 00-.54.77c-.334.42-.671.83-1.06 1.42a15.837 15.837 0 01-.238-1.71l-.323-.33c-.3.71-.568 1.3-.818 1.92-1.089 3.05.324 2.17-.175 4.57-.329 1.05-.6 2-.887 3.07a20.668 20.668 0 01-.865 3.5c.657 1.9-.954 2.78-1.3 5.54-.239-.17-.523-.36-.8-.55.317-1.73.663-3.45 1.088-5.16a.522.522 0 00-.129-.1c-.405.31-.78.65-1.193.96-.325 1.4-.571 2.73-.8 4.18-.308 1.48-.592 3.1-.821 4.62a55 55 0 00-.327 3.78c-.175 1.52-.239 2.62-.318 3.59-.208 1.03-.437 2.02-.609 2.93.573 2.88.5 6.35 1.239 11.49.038 1.16.165 2.47.239 3.64-.587-.22-1.144-.41-1.733-.62-.146-1.12-.239-2.24-.344-3.21-.11-1.98-.157-3.83-.176-5.81-.187-.09-.406-.19-.6-.28-.074-.6-.124-1.17-.184-1.64.308-1.29.6-2.6.955-3.88-.145-.41-.279-.81-.382-1.21-.1-2.91-.174-3.93-.943-3.91 0-.95 0-1.87.027-2.83a48.365 48.365 0 00.935-8.3 17.3 17.3 0 00-1.367 8.02 110.53 110.53 0 00-.814 8.02c.05.35.1.73.124 1.09.184.09.4.21.582.31-.033.78-.019 1.47-.028 2.23-.781 1.88-.074 5.12.353 8.12.174 1.9.391 3.92.687 5.8.222 1.14.494 2.28.7 3.31.339 1.45.666 2.9 1.07 4.35.076.64.238 1.4.339 2.05.145.54.238.97.4 1.54l.15 1.55c-.239-.05-.446-.1-.688-.14a.165.165 0 00-.136-.03 4.225 4.225 0 00.929 3.57c.367 1.09.687 2.09 1.091 3.16.41.6.847 1.17 1.231 1.65.1.4.186.73.239 1.04 0 .81-.3.76-.239 1.38.786 1.74 1.614 3.55 2.454 5.14.68 1.38 1.475 2.93 1.024 3.02a29.542 29.542 0 003.385 5.47c.7.81 1.454 1.62 2.184 2.43a5.333 5.333 0 002.265 2.83 4.769 4.769 0 00.189-1c.537.48 1.136.93 1.685 1.4 1.091 1.53 2.239 3.03 3.416 4.52a3.5 3.5 0 00.384 1.36c1.49 1.64 3.043 4.07 4.855 4.66a28.324 28.324 0 004.717 3.93c.432.43.792.74 1.234 1.14a8.693 8.693 0 002.428 2.9 6.437 6.437 0 002.9 1.67c.716.31 1.289.54 2.008.83a93.826 93.826 0 008.158 5.16c.239.24.525.43.879.74a9.553 9.553 0 003.067 2.26c1.222.31 3.456 2.07 5.156 1.81.916.42 1.881.81 2.8 1.21 1.559.74 3.091 1.47 4.815 2.21a37.517 37.517 0 0012.111 3.31 4.635 4.635 0 002.679.26 20.9 20.9 0 007.125.76c1.112.19 2.363.36 3.618.52 1.432.79.091 1.05 1.144 1.81 1.515.05 3.036.03 4.554 0 2.148 0 3.456-.14 5.2-.02.866-.12 1.862-.26 2.711-.41a28.418 28.418 0 005.605-.35c3.448-.183 3.99-.923 8.995-1.923z" transform="translate(-723.156 -980)"/></g><path id="一.もっと身近に" class="cls-1" d="M725.86 1225.01h-1.26c-.42.06-.96.12-1.44.18a5.975 5.975 0 01.6.66 1.553 1.553 0 00.66.42 13.384 13.384 0 008.459 1.32c1.92-.42 3.78-.84 5.64-1.32s3.72-.96 5.58-1.5c2.52-.72 5.1-1.5 7.68-2.28 2.52-.84 5.1-1.62 7.679-2.34a21.207 21.207 0 015.46-.9 40.815 40.815 0 015.4.36c.48.06.96.18 1.44.24s.96.18 1.44.24a1.014 1.014 0 00.6-.18 1.306 1.306 0 00.3-.48 1.292 1.292 0 00-.12-.66c-.3-.36-.6-.78-.96-1.2a10.819 10.819 0 00-1.2-1.08 5.71 5.71 0 00-2.16-.9 15.608 15.608 0 00-2.34-.3 43.01 43.01 0 00-10.32.78c-2.52.54-5.039 1.14-7.619 1.86-2.52.72-5.04 1.62-7.5 2.58-1.32.54-2.64 1.08-3.96 1.56-1.38.48-2.76.9-4.14 1.38-.84.3-1.68.6-2.58.84a18.871 18.871 0 01-2.64.66 13.532 13.532 0 01-2.699.06zm65.34 9.78c-1.26.24-2.58.48-3.84.66a1 1 0 00-.9 1.38c.6 1.74 1.2 3.48 1.68 5.22a3.828 3.828 0 001.5 1.98l1.62 1.26a9.516 9.516 0 001.62 1.08 7.319 7.319 0 001.02.42 1.33 1.33 0 00.959.06 1.3 1.3 0 00.84-.54 2.517 2.517 0 00.54-.84 13.844 13.844 0 00.6-1.68c.24-1.44.54-2.94.84-4.5a.853.853 0 00-.12-.36.634.634 0 01-.12-.3 5.8 5.8 0 00-1.56-2.04 9.915 9.915 0 00-2.159-1.32 7.5 7.5 0 00-2.52-.48zm57.9-26.46l-.18-.96a15.644 15.644 0 00-.3-2.88 6.961 6.961 0 00-1.08-2.58 4.041 4.041 0 00-1.32-1.14 2.729 2.729 0 00-1.68-.3.51.51 0 00-.42.42.467.467 0 00.18.42 3.853 3.853 0 011.56 3.48c-.18 2.22-.42 4.38-.66 6.54a2.265 2.265 0 01-1.2 1.38 18.418 18.418 0 00-1.56 1.5 14.354 14.354 0 01-.78 1.26 6.424 6.424 0 00-.78 1.26 1.862 1.862 0 00-.12 1.5 4.049 4.049 0 00.78 1.32 8.36 8.36 0 01.9 1.14.9.9 0 01.3.9c-.18 1.14-.36 2.22-.54 3.3a30.3 30.3 0 00-.36 3.36 5.85 5.85 0 01-2.52 4.92 1.313 1.313 0 00-.54.6c.3-.06.6-.12.84-.18a3.046 3.046 0 001.08-.54c.6-.54 1.02-.36 1.14.48a34.452 34.452 0 001.56 4.8 7.851 7.851 0 003.66 3.84 9.4 9.4 0 005.28 1.02 6.777 6.777 0 004.8-2.82 32.955 32.955 0 012.64-3.12 22.573 22.573 0 001.5-1.86 6.116 6.116 0 00.96-2.1l.9-4.14a13.223 13.223 0 00.24-2.16v-3.42a5.842 5.842 0 00-.36-2.04 10.731 10.731 0 00-1.86-3.06 7.1 7.1 0 00-2.94-1.98l-6.659-2.34c-.78-.12-1.62-.3-2.46-.36-.6-.12-.78-.42-.54-.96q.178-2.25.539-4.5zm-3.18 23.88a2.855 2.855 0 01.3-1.98 4.908 4.908 0 011.2-1.5 52.217 52.217 0 004.14-4.02 2.45 2.45 0 00.36-2.4 3.748 3.748 0 00-3.12-2.22 6.681 6.681 0 01-1.02-.12.636.636 0 01-.54-.78c.06-.36.12-.72.18-1.02a28.22 28.22 0 01.72-3.06.577.577 0 01.54-.48 18.038 18.038 0 012.52.3c.96.18 2.04.42 3.06.66l2.519 1.08a3.474 3.474 0 011.5.9c.42.48.78.96 1.14 1.44a9.108 9.108 0 011.56 7.98c-.42 1.2-.84 2.46-1.26 3.66a12.829 12.829 0 01-2.94 4.8 19.3 19.3 0 01-4.559 3.42 3.249 3.249 0 01-2.22.66 3.056 3.056 0 01-2.1-.9 4.325 4.325 0 01-1.26-1.98 42.729 42.729 0 01-.721-4.44zm.18-7.26c.12-.72.18-1.5.24-2.22a.5.5 0 01.72-.54 1.693 1.693 0 01.9.24.5.5 0 01.36.72 3.027 3.027 0 01-.42.78l-1.44 2.16-.24.24a.289.289 0 01-.12-.36 2.913 2.913 0 010-1.02zm76.679-4.02c-1.08.12-2.16.3-3.179.48a27.6 27.6 0 00-5.46 1.74 51.913 51.913 0 00-5.22 2.46c-1.5.72-3 1.44-4.44 2.04a24.385 24.385 0 01-4.74 1.56 6.545 6.545 0 01-.66.36c-.36.36-.3.6.12.78.3.06.6.18.9.24a2.984 2.984 0 00.96.18c.84-.12 1.62-.24 2.46-.42a7.042 7.042 0 002.4-.78 57.565 57.565 0 016.24-2.7c2.1-.78 4.2-1.56 6.36-2.34a9.565 9.565 0 013.48-.84 10.008 10.008 0 013.539.3 9.2 9.2 0 011.62.66 3 3 0 011.32 1.14 2.614 2.614 0 01.42 1.68 5.205 5.205 0 01-.3 1.68 3.546 3.546 0 01-.42 1.2 19.04 19.04 0 01-1.92 2.94 23.276 23.276 0 01-2.34 2.52 49.658 49.658 0 01-7.919 6.24 2.61 2.61 0 00-.42.36c.18-.06.36-.06.54-.12.84-.42 1.62-.84 2.4-1.26 1.14-.6 2.22-1.14 3.359-1.8.42-.24.84-.42 1.2-.6a3.4 3.4 0 001.08-.72 16.905 16.905 0 012.76-2.28c.96-.6 1.98-1.26 2.94-1.86a8.369 8.369 0 001.62-1.26 4.978 4.978 0 001.14-1.62 5.054 5.054 0 00.42-2.1 5.62 5.62 0 00-.42-2.22 7.591 7.591 0 00-1.2-1.86 8.483 8.483 0 00-2.4-2.22 7.7 7.7 0 00-3-1.2 14.11 14.11 0 00-3.241-.36zm65.34 20.88l3.72-.24q1.26 0 .54-1.08a3.852 3.852 0 00-2.04-1.86 5.343 5.343 0 00-2.759-.36 41.524 41.524 0 01-7.26-.3 39.466 39.466 0 01-4.44-1.02c-.42-.06-.54-.3-.18-.72.66-1.14 1.38-2.28 2.1-3.42a9.067 9.067 0 012.88-2.76c.18-.12.42-.3.66-.48a.635.635 0 01.78-.06 3.825 3.825 0 01.84.48 2.859 2.859 0 002.7.42.748.748 0 00.18-.72c-.42-.72-.9-1.5-1.32-2.22l-.18-.54a22.7 22.7 0 011.98-1.32c1.2-.66 2.339-1.26 3.419-1.86.9-.72 1.8-1.38 2.76-2.04a13.021 13.021 0 013-1.56 19.989 19.989 0 003-1.5 1.7 1.7 0 00.54-.6 1.413 1.413 0 00.3-.6 2.217 2.217 0 00-1.08-1.26 5.433 5.433 0 00-1.56-.78 3.217 3.217 0 00-1.68-.06 52.25 52.25 0 00-9.719 4.8c-1.08.72-2.16 1.44-3.24 2.04-.42.24-.66.18-.84-.24-.42-1.56-.9-3.18-1.38-4.68a22.971 22.971 0 01-.78-8.34l.18-5.22a3.453 3.453 0 00-1.2-3 .852.852 0 00-1.44.42 10.426 10.426 0 00-.6 1.14 32.208 32.208 0 00-1.08 16.5 17.258 17.258 0 001.44 4.62 22.069 22.069 0 003.42 3.72l.6.6a.484.484 0 01-.06.72 2.107 2.107 0 01-.6.48 3.442 3.442 0 01-.42.24c-2.04 1.56-4.08 3.12-6.06 4.8a1.844 1.844 0 00-.42 2.94 7.9 7.9 0 003.42 3 24.888 24.888 0 005.82 1.38c2.04.24 4.019.42 6.058.54zm5.58-24.06l-.42.42a30.658 30.658 0 01-2.88 2.7c-2.1 1.68-4.2 3.36-6.359 4.98a1.491 1.491 0 01-.48-.06 3.1 3.1 0 01-.36-.78.621.621 0 01.3-.96 1.339 1.339 0 001.08-1.26 1.655 1.655 0 01.72-.84 36.114 36.114 0 014.259-3 26.1 26.1 0 013.66-1.2h.48zm60 21.36a1.209 1.209 0 01-1.02 1.8l-.9.42a8.532 8.532 0 01-2.64.66 7.186 7.186 0 01-3.9-.66 27.906 27.906 0 01-3.54-1.8 6.984 6.984 0 01-.9-.36 1.467 1.467 0 00.54.66c3.24 2.16 6.54 4.26 9.84 6.36a12.579 12.579 0 002.52 1.32 1.694 1.694 0 001.08.12 4.159 4.159 0 002.22-1.14 6.226 6.226 0 001.32-2.58 8.67 8.67 0 00-.18-2.46c-.3-4.86-.54-9.78-.9-14.7a1.573 1.573 0 01.12-.9 31.224 31.224 0 012.22-2.58c2.34-2.46 4.68-4.92 6.96-7.44a11.608 11.608 0 014.38-3.6.932.932 0 00.54-1.44 20.541 20.541 0 00-2.82-3.18 1.2 1.2 0 00-1.02-.06 7.462 7.462 0 01-.96.24.186.186 0 01-.12.06c-1.26.12-1.56.66-.84 1.68a1.54 1.54 0 00.12.3 1.983 1.983 0 010 .84 59.949 59.949 0 01-7.98 9.06.923.923 0 01-.36.24.506.506 0 01-.12-.42c.24-1.5.36-2.94.48-4.38.12-2.4.3-4.86.48-7.26a5.992 5.992 0 00-1.32-3.54 5.72 5.72 0 00-3.24-1.98 1.227 1.227 0 00-.66 0c-2.16.3-4.32.66-6.42 1.08h-.54a1.306 1.306 0 01.48-.3l5.94-2.88a10.436 10.436 0 001.08-.66 1.043 1.043 0 00.72-1.62 3.262 3.262 0 00-1.38-2.16c-.72-.54-1.44-1.08-2.16-1.56a2.6 2.6 0 00-.3-.06 29.049 29.049 0 00-2.94 1.08c-.6.36-.66.72-.06 1.14.42.24.42.54.06.84-.96 1.02-1.92 2.04-2.94 3a47.8 47.8 0 01-3.66 3.3 17.355 17.355 0 01-4.2 2.52 9.315 9.315 0 01-1.26.24 5.7 5.7 0 00-1.26.54c.12.3.24.66.36 1.02a1.355 1.355 0 00.78.84 1.983 1.983 0 011.5 1.92 8.532 8.532 0 01.3 2.16 45.177 45.177 0 01-.06 5.7 17.5 17.5 0 01-1.2 5.46 3.853 3.853 0 00.18 2.34 4.432 4.432 0 001.32 1.86.951.951 0 01-.24 1.68c-2.52 1.14-5.04 2.22-7.56 3.36-1.02.48-1.2 1.14-.36 1.98a6.569 6.569 0 01.6.66 1.743 1.743 0 002.52.18 23.812 23.812 0 012.34-1.38c3-1.62 6-3.24 8.88-4.98.96-.48 1.92-1.02 2.82-1.56 1.56-.96 3.12-1.86 4.74-2.7a2.913 2.913 0 011.02 0c-.18.24-.42.48-.6.72-.06 0-.06.06-.06.12-2.16 1.92-4.26 3.78-6.36 5.58-2.1 1.86-4.26 3.6-6.54 5.28-2.22 1.62-4.5 3.3-6.78 4.86-2.22 1.44-4.5 2.76-6.84 4.14a.468.468 0 00-.24.18h.3a44.834 44.834 0 009.66-4.2c2.16-1.26 4.38-2.46 6.6-3.48a.458.458 0 01.3-.12 5.348 5.348 0 002.28-1.08 17.918 17.918 0 001.92-1.74 41.649 41.649 0 016.9-5.64c.48-.24.66-.12.6.42zm-1.44-16.98c-.66.24-1.38.48-2.1.78-2.82 1.08-5.58 2.22-8.4 3.36a1.375 1.375 0 01-1.08-.12 1.282 1.282 0 01-.48-1.02c.18-1.92.36-3.84.42-5.76a1.13 1.13 0 01.12-.48l.36.36a4.768 4.768 0 003.06 2.4.546.546 0 01.24.48 9.591 9.591 0 00-.3 1.26v.48a1.752 1.752 0 01.54-.12 1.019 1.019 0 00.36-.36 2.557 2.557 0 01.84-1.2c.42-.24.84-.54 1.26-.78a.853.853 0 01.36-.12 18.63 18.63 0 012.52-.48 1.425 1.425 0 001.44-1.2 4.948 4.948 0 00-.6-1.56 13.786 13.786 0 00-1.38-.9l-.54-.12a2.046 2.046 0 00-1.8-.54 8.989 8.989 0 00-1.92.48 7.6 7.6 0 00-1.08.36c-.96.42-1.32.12-1.02-.84a3.45 3.45 0 011.38-1.68c1.62-.96 3.18-1.8 4.8-2.58a2.439 2.439 0 001.14-1.44 1.369 1.369 0 00-.36-.72 6.376 6.376 0 00-.66-.54 3.949 3.949 0 00-1.68-.78 2.44 2.44 0 00-1.14 0c-1.02.42-2.04.78-3.06 1.14a8.772 8.772 0 01-1.2.3.826.826 0 00-.54.78.641.641 0 00.42.54c.84.36 1.68.66 2.46.96.42.12.48.36.18.66-.72.9-1.44 1.86-2.16 2.82-.54.66-1.08 1.32-1.56 1.98a1.053 1.053 0 00-.3.24.541.541 0 00-.06-.3c-.18-2.04-.36-4.08-.54-6.18a5.46 5.46 0 00-1.86-3.78c-.36-.3-.3-.54.12-.66 1.98-.96 3.96-1.86 5.94-2.76a5.553 5.553 0 011.38-.24c2.52.24 4.98.54 7.5.84a.773.773 0 01.78.84c-.3 5.16-.6 10.38-.9 15.6.061.66-.239.84-.899.6zm81.3-10.44v.3a4.433 4.433 0 001.26 0 1.546 1.546 0 00.78-.48.786.786 0 00-.24-.78 4.312 4.312 0 00-1.62-1.5c-.6-.36-1.26-.66-1.92-1.02a1.141 1.141 0 00-.78-.06 5.093 5.093 0 00-1.32.54c-2.22.42-4.44.9-6.6 1.5-2.82.9-5.64 1.86-8.34 2.88a.45.45 0 01-.54 0 2.741 2.741 0 01.42-2.34 1.329 1.329 0 00.3-1.8 8.36 8.36 0 00-1.14-.9.807.807 0 00-.36-.42 2.037 2.037 0 01.36-.36c.84-.42 1.74-.9 2.58-1.32a25.343 25.343 0 013.96-2.16 23.94 23.94 0 006.54-3 7.522 7.522 0 011.5-.54 1 1 0 001.02-1.62 5.357 5.357 0 00-1.8-1.86c-.78-.48-1.5-.96-2.22-1.44a.178.178 0 00-.24 0c-.96.24-1.92.42-2.82.66-.42.06-.54.3-.3.72a.587.587 0 01-.24 1.02c-2.1 1.68-4.2 3.36-6.3 4.98a25.59 25.59 0 01-2.94 2.04 9.489 9.489 0 01-3.36 1.26 3.214 3.214 0 00-1.44.96.887.887 0 000 .78 1.054 1.054 0 00.54.6 7.254 7.254 0 011.08.3.925.925 0 01.6.84 7.281 7.281 0 01.06 1.08c-.18 3.24-.42 6.48-.72 9.66a22.526 22.526 0 01-1.86 7.68c-.9 1.8-1.74 3.54-2.58 5.34a.892.892 0 00-.12.54 1.13 1.13 0 01.48-.12c.48-.36.96-.72 1.38-1.08a12.454 12.454 0 003.42-3.9c.54-1.56 1.08-3.06 1.68-4.62a17.71 17.71 0 001.62-5.04 7.059 7.059 0 01.42-1.2.634.634 0 01.42-.36 11.865 11.865 0 003.18-.84c1.02-.48 2.04-.9 3-1.26.42-.18.6-.06.6.36.06 1.68.06 3.36.06 5.16l.12 10.92c.06 2.4.24 4.8.42 7.14.06.3 0 .42-.12.48a1.341 1.341 0 01-.6-.18c-3.24-.72-6.6-1.32-9.96-1.74a35.881 35.881 0 00-10.14 0h-.48a.8.8 0 00.18-.42 34.056 34.056 0 002.46-3.54 3.827 3.827 0 00.18-3.42 6.178 6.178 0 00-2.04-2.76c-1.68-1.26-3.3-2.58-4.92-3.84a4.242 4.242 0 01-1.74-3.06 21.7 21.7 0 01.06-3.42 12.23 12.23 0 012.4-6 1.4 1.4 0 011.02-.6 2.179 2.179 0 001.92-2.04c0-.18.06-.36.06-.48a10.175 10.175 0 01-.24-1.32 3.594 3.594 0 00-.48-1.2 10.854 10.854 0 00-5.94-3.78 6.408 6.408 0 00-1.5.18 4.791 4.791 0 00.3 1.56c.42.72.9 1.44 1.38 2.16a6.917 6.917 0 011.38 5.76c-.6 2.4-1.2 4.8-1.86 7.2a6.826 6.826 0 001.26 6.18c.72.84 1.5 1.62 2.28 2.4a7.676 7.676 0 011.68 8.4 6.788 6.788 0 01-2.46 3.3 12.491 12.491 0 01-3.78 1.92 1.267 1.267 0 00-.6.24 5 5 0 00.48.72 24.629 24.629 0 002.4 1.74 4 4 0 00.72.36 1.192 1.192 0 001.74-.96 1.278 1.278 0 011.14-1.14c1.68-.24 3.36-.48 5.04-.66 1.62-.18 3.18-.3 4.86-.42a26.354 26.354 0 014.86.18c1.38.24 2.76.6 4.2.96l8.28 1.98c2.46.6 4.98 1.26 7.44 1.98a8.3 8.3 0 004.02-.12c.66-.18 1.32-.42 2.04-.6a3.245 3.245 0 002.1-.96c.54-.42.48-.78-.24-.9-2.28-.6-4.62-1.14-7.08-1.62-3.36-.66-6.84-1.32-10.32-1.86-.12-.06-.3-.12-.42-.18.06-.12.18-.3.24-.42a3.4 3.4 0 00.78-1.62 49.569 49.569 0 001.02-6.66l.36-9.42c0-1.92-.06-3.78-.06-5.64 0-.3.06-.66.06-1.08a1.01 1.01 0 01.42-.9 1.545 1.545 0 01.96-.42l1.98-.6zm29.82 17.1c.18 2.58.42 5.16.78 7.74.36 2.22.78 4.5 1.2 6.72l.24.36a1.361 1.361 0 01.06-.24.285.285 0 01.12-.3.41.41 0 00.18.3.251.251 0 00.18.24v-.3a1.661 1.661 0 00.06-.54 38.258 38.258 0 00.42-5.22 54.335 54.335 0 01.72-12.48c.18-1.14.3-2.28.42-3.42l.48-8.76c.3-1.98.6-3.9.84-5.82a3.2 3.2 0 00-.36-1.44.879.879 0 00-.66-.12 2.456 2.456 0 00-.9.84c-.48 1.14-.96 2.22-1.44 3.36a20.93 20.93 0 00-1.2 3.42 49.44 49.44 0 00-1.02 7.86c-.119 2.58-.179 5.22-.119 7.8zm20.88-21.42v-.06a6.89 6.89 0 011.14.06c1.5.24 3.06.42 4.56.6.6 0 .78.3.48.78-1.32 2.58-2.64 5.04-4.08 7.5a765.02 765.02 0 01-4.68 7.26c-.12.12-.24.3-.36.42v.24c.12 0 .18 0 .18-.12a14.779 14.779 0 001.62-1.02 5.58 5.58 0 001.26-1.38c1.08-1.8 2.16-3.6 3.36-5.4 1.2-1.74 2.46-3.48 3.66-5.28a1.258 1.258 0 01.66-.48 2.883 2.883 0 001.86-.6l1.68-1.14a2.256 2.256 0 00.84-.84 1.6 1.6 0 00.06-1.38 6.207 6.207 0 00-.66-1.26 4.361 4.361 0 00-1.56-1.2 9.059 9.059 0 00-1.8-.6 2.667 2.667 0 00-2.34 0c-2.1.9-4.14 1.8-6.18 2.76a2.406 2.406 0 00-.9.84 7.018 7.018 0 011.201.3zm11.4 31.62a.289.289 0 01.12-.24h.54a1.165 1.165 0 001.44-.72 1.631 1.631 0 00-.3-1.68 8.688 8.688 0 00-4.98-3.18c-3.3-.78-6.54-1.68-9.84-2.64a4.572 4.572 0 01-1.62-1.2c-.48-.48-.96-1.02-1.5-1.5a.458.458 0 01-.12-.3.45.45 0 00-.06-.3 1.312 1.312 0 00-.18.3 1.462 1.462 0 000 .72c.24.78.48 1.56.78 2.34a5.853 5.853 0 001.38 2.04 19.635 19.635 0 003.72 2.58 35.308 35.308 0 005.88 2.34c1.561.48 3.121 1.02 4.741 1.44z" transform="translate(-723.156 -980)"/></svg>