<svg xmlns="http://www.w3.org/2000/svg" width="856" height="51"><path d="M3.456 12.88c19.672 11.08 62.028 27.95 104.405-.13.94-.62 2.139.27 1.338 1C98.036 23.91 73.253 41.09 39.29 33.41c0 0-23.268-4.58-38.775-18.13-1.568-1.37 1.018-3.48 2.941-2.4zm15.224-4c15.416 7.29 48.534 18.03 81.178-3.39.724-.47 1.666.13 1.052.68-8.57 7.61-27.653 20.68-54.144 16.26 0 0-18.142-2.54-30.347-11.75-1.235-.93.754-2.52 2.261-1.8zm9.736-5.26C39.955 8.3 64.816 15.01 89.803.13c.555-.331 1.257.06.784.43-6.589 5.25-21.2 14.32-41.153 11.75 0 0-13.669-1.44-22.754-7.44-.919-.61.608-1.7 1.735-1.25zm56.039 22.36c19.672 11.07 62.028 27.95 104.405-.14.941-.62 2.139.28 1.338 1-11.163 10.16-35.945 27.34-69.909 19.67 0 0-23.267-4.58-38.774-18.14-1.569-1.37 1.018-3.47 2.94-2.39zm15.224-4.01c15.416 7.3 48.534 18.03 81.178-3.38.725-.48 1.666.13 1.052.67-8.57 7.62-27.653 20.68-54.144 16.26 0 0-18.142-2.54-30.346-11.74-1.235-.93.753-2.52 2.26-1.81zm9.736-5.25c11.539 4.67 36.4 11.39 61.386-3.5.555-.33 1.257.06.785.44-6.589 5.25-21.2 14.31-41.153 11.74 0 0-13.669-1.43-22.753-7.43-.919-.61.607-1.71 1.735-1.25zm61.927-3.84c19.672 11.08 62.028 27.95 104.405-.13.941-.62 2.139.27 1.338 1-11.163 10.16-35.946 27.34-69.909 19.66 0 0-23.267-4.58-38.774-18.13-1.57-1.37 1.017-3.48 2.94-2.4zm15.224-4c15.416 7.29 48.534 18.03 81.178-3.39.725-.47 1.666.13 1.052.68-8.57 7.61-27.653 20.68-54.144 16.26 0 0-18.142-2.54-30.347-11.75-1.234-.93.754-2.52 2.261-1.8zm9.736-5.26c11.539 4.68 36.4 11.39 61.386-3.49.555-.331 1.257.06.785.43-6.589 5.25-21.2 14.32-41.153 11.75 0 0-13.669-1.44-22.753-7.44-.919-.61.607-1.7 1.733-1.25zm50.812 22.82c19.672 11.07 62.028 27.94 104.405-.14.94-.62 2.139.27 1.338 1-11.164 10.16-35.946 27.34-69.909 19.67 0 0-23.268-4.58-38.775-18.14-1.573-1.37 1.018-3.48 2.941-2.39zm15.223-4.01c15.417 7.3 48.534 18.03 81.179-3.38.724-.48 1.666.12 1.051.67-8.57 7.61-27.652 20.68-54.143 16.26 0 0-18.142-2.54-30.347-11.75-1.235-.93.754-2.51 2.26-1.8zm9.736-5.25c11.539 4.67 36.4 11.39 61.387-3.5.555-.33 1.257.06.785.44-6.589 5.24-21.2 14.31-41.153 11.74 0 0-13.67-1.44-22.754-7.44-.919-.61.607-1.7 1.735-1.24zm61.928-4.3c19.672 11.08 62.028 27.95 104.405-.13.94-.62 2.139.27 1.338 1-11.164 10.16-35.946 27.34-69.909 19.66 0 0-23.268-4.58-38.775-18.13-1.569-1.37 1.018-3.48 2.94-2.4zm15.223-4c15.417 7.29 48.534 18.03 81.179-3.39.724-.47 1.666.13 1.051.68-8.569 7.61-27.652 20.68-54.143 16.26 0 0-18.142-2.54-30.347-11.75-1.235-.93.754-2.52 2.26-1.8zm9.736-5.26c11.539 4.68 36.4 11.39 61.387-3.49.555-.331 1.257.06.785.43-6.589 5.25-21.2 14.32-41.153 11.75 0 0-13.669-1.44-22.754-7.44-.919-.61.607-1.7 1.735-1.25zm55.957 21.61c19.672 11.07 62.028 27.95 104.405-.14.94-.62 2.139.27 1.338 1-11.163 10.16-35.946 27.34-69.909 19.67 0 0-23.267-4.58-38.774-18.14-1.57-1.37 1.017-3.47 2.94-2.39zm15.224-4.01c15.416 7.3 48.533 18.03 81.178-3.38.725-.48 1.666.13 1.052.67-8.57 7.62-27.653 20.68-54.144 16.26 0 0-18.142-2.54-30.346-11.74-1.236-.93.753-2.52 2.26-1.81zm9.735-5.25c11.539 4.67 36.4 11.39 61.387-3.5.555-.33 1.257.06.785.44-6.589 5.25-21.2 14.31-41.153 11.74 0 0-13.669-1.43-22.753-7.44-.919-.6.607-1.7 1.734-1.24zm61.928-3.09c19.672 11.08 62.028 27.95 104.4-.13.94-.62 2.139.27 1.338 1-11.163 10.16-35.946 27.34-69.909 19.66 0 0-23.268-4.58-38.775-18.13-1.564-1.37 1.023-3.48 2.942-2.4zm15.224-4c15.416 7.29 48.533 18.03 81.178-3.39.725-.47 1.666.13 1.052.68-8.57 7.61-27.653 20.68-54.144 16.26 0 0-18.142-2.54-30.347-11.75-1.235-.93.754-2.52 2.261-1.8zm9.735-5.26c11.539 4.68 36.4 11.39 61.387-3.49.555-.331 1.257.06.785.43-6.589 5.25-21.2 14.32-41.153 11.75 0 0-13.669-1.44-22.753-7.44-.92-.61.607-1.7 1.734-1.25zm50.812 22.07c19.672 11.07 62.029 27.94 104.406-.14.94-.62 2.138.27 1.338 1-11.164 10.16-35.946 27.34-69.909 19.67 0 0-23.268-4.58-38.775-18.14-1.569-1.37 1.018-3.48 2.94-2.39zm15.224-4.01c15.417 7.3 48.534 18.03 81.179-3.38.724-.48 1.666.12 1.051.67-8.57 7.61-27.652 20.68-54.143 16.26 0 0-18.142-2.54-30.347-11.75-1.239-.93.754-2.51 2.261-1.8zm9.736-5.25c11.539 4.67 36.4 11.38 61.387-3.5.555-.33 1.257.06.785.44-6.589 5.24-21.2 14.31-41.153 11.74 0 0-13.67-1.43-22.754-7.44-.919-.61.607-1.7 1.735-1.24zm61.928-3.55c19.672 11.08 62.028 27.95 104.4-.13.941-.62 2.14.27 1.339 1-11.164 10.16-35.946 27.34-69.909 19.66 0 0-23.268-4.58-38.775-18.13-1.565-1.37 1.022-3.48 2.945-2.4zm15.223-4c15.417 7.29 48.534 18.03 81.179-3.39.724-.47 1.666.13 1.051.68-8.57 7.61-27.652 20.68-54.143 16.26 0 0-18.142-2.54-30.347-11.75-1.235-.93.754-2.52 2.26-1.8zm9.736-5.26c11.539 4.68 36.4 11.39 61.387-3.49.555-.331 1.257.06.785.43-6.59 5.25-21.2 14.32-41.153 11.75 0 0-13.67-1.44-22.754-7.44-.919-.61.607-1.7 1.735-1.25zm47.628 24.47c19.672 11.07 62.029 27.94 104.406-.14.94-.62 2.138.27 1.338 1-11.164 10.16-35.946 27.34-69.909 19.67 0 0-23.268-4.58-38.775-18.14-1.569-1.37 1.018-3.48 2.94-2.39zm15.224-4.01c15.417 7.3 48.534 18.03 81.179-3.38.724-.48 1.666.12 1.051.67-8.57 7.61-27.652 20.68-54.143 16.26 0 0-18.142-2.54-30.347-11.75-1.235-.93.754-2.51 2.26-1.8zm9.736-5.25c11.539 4.67 36.4 11.39 61.387-3.5.555-.33 1.257.06.785.44-6.589 5.24-21.2 14.31-41.153 11.74 0 0-13.67-1.43-22.754-7.44-.919-.6.607-1.7 1.735-1.24zm61.927-5.95c19.672 11.08 62.028 27.95 104.406-.13.94-.62 2.138.27 1.338 1-11.164 10.16-35.946 27.34-69.909 19.66 0 0-23.268-4.58-38.775-18.13-1.569-1.37 1.018-3.48 2.94-2.4zm15.224-4c15.417 7.29 48.534 18.03 81.179-3.39.724-.47 1.666.13 1.051.68-8.57 7.61-27.652 20.68-54.143 16.26 0 0-18.142-2.54-30.347-11.75-1.235-.93.754-2.52 2.26-1.8zm9.736-5.26c11.539 4.68 36.4 11.39 61.387-3.49.555-.331 1.257.06.784.43-6.589 5.25-21.2 14.32-41.152 11.75 0 0-13.67-1.44-22.754-7.44-.919-.61.607-1.7 1.738-1.25zm50.812 24.92c19.672 11.08 62.028 27.95 104.4-.13.94-.62 2.14.27 1.34 1-11.161 10.16-35.943 27.34-69.906 19.66 0 0-23.268-4.58-38.775-18.13-1.568-1.37 1.019-3.48 2.941-2.4zm15.224-4c15.416 7.29 48.534 18.03 81.178-3.38.725-.48 1.666.12 1.052.67-8.57 7.61-27.653 20.68-54.144 16.26 0 0-18.141-2.54-30.346-11.75-1.235-.93.753-2.52 2.26-1.8zm9.736-5.26c11.539 4.68 36.4 11.39 61.387-3.49.554-.33 1.257.06.784.44-6.589 5.24-21.2 14.31-41.153 11.74 0 0-13.669-1.44-22.753-7.44-.919-.61.607-1.7 1.735-1.25zm61.927-6.4c19.674 11.08 62.024 27.95 104.4-.13.94-.62 2.14.27 1.34 1-11.16 10.16-35.95 27.34-69.91 19.66 0 0-23.267-4.58-38.774-18.13-1.565-1.37 1.022-3.48 2.948-2.4zm15.224-4c15.42 7.29 48.53 18.03 81.18-3.39.72-.47 1.66.13 1.05.68-8.57 7.61-27.65 20.68-54.14 16.26 0 0-18.15-2.54-30.35-11.75-1.235-.93.75-2.52 2.26-1.8zm9.74-5.26c11.53 4.68 36.4 11.39 61.38-3.49.56-.331 1.26.06.79.43-6.59 5.25-21.21 14.32-41.16 11.75 0 0-13.66-1.44-22.75-7.44-.92-.61.61-1.7 1.74-1.25zm55.95 23.72c19.67 11.07 62.03 27.94 104.41-.14.94-.62 2.14.27 1.34 1-11.17 10.16-35.95 27.34-69.91 19.67 0 0-23.27-4.58-38.78-18.14-1.57-1.37 1.02-3.48 2.94-2.39zm15.23-4.01c15.41 7.3 48.53 18.03 81.17-3.38.73-.48 1.67.12 1.06.67-8.57 7.61-27.66 20.68-54.15 16.26 0 0-18.14-2.54-30.34-11.75-1.24-.93.75-2.51 2.26-1.8zm9.73-5.25c11.54 4.67 36.4 11.38 61.39-3.5.55-.33 1.26.06.78.44-6.59 5.24-21.2 14.31-41.15 11.74 0 0-13.67-1.43-22.75-7.44-.92-.61.6-1.7 1.73-1.24zm61.93-5.2c19.67 11.08 62.03 27.95 104.4-.13.95-.62 2.14.27 1.34 1-11.16 10.16-35.94 27.34-69.91 19.66 0 0-23.26-4.58-38.77-18.13-1.57-1.37 1.02-3.48 2.94-2.4zm15.22-4c15.42 7.29 48.54 18.03 81.18-3.39.73-.47 1.67.13 1.05.68-8.57 7.61-27.65 20.68-54.14 16.26 0 0-18.14-2.54-30.35-11.75-1.23-.93.76-2.52 2.26-1.8zm9.74-5.26c11.54 4.68 36.4 11.39 61.39-3.49.55-.331 1.25.06.78.43-6.59 5.25-21.2 14.32-41.15 11.75 0 0-13.67-1.44-22.76-7.44-.92-.61.61-1.7 1.74-1.25zm50.81 24.17c19.67 11.08 62.03 27.95 104.41-.13.94-.62 2.13.27 1.33 1-11.16 10.16-35.94 27.34-69.9 19.66 0 0-23.27-4.58-38.78-18.13-1.57-1.37 1.02-3.48 2.94-2.4zm15.22-4c15.42 7.3 48.54 18.03 81.18-3.39.73-.47 1.67.13 1.05.68-8.57 7.61-27.65 20.68-54.14 16.26 0 0-18.14-2.54-30.35-11.75-1.23-.93.76-2.52 2.26-1.8zm9.74-5.26c11.54 4.68 36.4 11.39 61.39-3.49.55-.33 1.25.06.78.44-6.59 5.24-21.2 14.31-41.15 11.74 0 0-13.67-1.44-22.75-7.44-.92-.61.6-1.7 1.73-1.25zm61.93-5.65c19.67 11.08 62.03 27.95 104.4-.13.94-.62 2.14.27 1.34 1-11.16 10.16-35.94 27.34-69.91 19.66 0 0-23.27-4.58-38.77-18.13-1.57-1.37 1.02-3.48 2.94-2.4zm15.22-4c15.42 7.29 48.54 18.03 81.18-3.39.72-.47 1.67.13 1.05.68-8.57 7.61-27.65 20.68-54.14 16.26 0 0-18.14-2.54-30.35-11.75-1.23-.93.76-2.52 2.26-1.8zm9.74-5.26c11.54 4.68 36.4 11.39 61.38-3.49.56-.331 1.26.06.79.43-6.59 5.25-21.2 14.32-41.15 11.75 0 0-13.67-1.44-22.76-7.44-.92-.61.61-1.7 1.74-1.25zm54.63 23.36c19.68 11.07 62.03 27.95 104.41-.13.94-.63 2.14.27 1.34.99-11.17 10.16-35.95 27.35-69.91 19.67 0 0-23.27-4.58-38.78-18.13-1.57-1.38 1.02-3.48 2.94-2.4zm15.23-4.01c15.41 7.3 48.53 18.03 81.18-3.38.72-.47 1.66.13 1.05.67-8.57 7.62-27.66 20.68-54.15 16.26 0 0-18.14-2.54-30.34-11.74-1.24-.93.75-2.52 2.26-1.81zm9.73-5.25c11.54 4.67 36.4 11.39 61.39-3.49.55-.33 1.26.06.78.43-6.58 5.25-21.2 14.32-41.15 11.75 0 0-13.67-1.44-22.75-7.44-.92-.61.61-1.71 1.73-1.25zm61.93-4.84c19.67 11.08 62.03 27.95 104.41-.13.94-.62 2.13.27 1.33 1-11.16 10.16-35.94 27.34-69.91 19.66 0 0-23.26-4.58-38.77-18.13-1.57-1.37 1.02-3.48 2.94-2.4zm15.22-4c15.42 7.29 48.54 18.03 81.18-3.39.73-.47 1.67.13 1.05.68-8.57 7.61-27.65 20.68-54.14 16.26 0 0-18.14-2.54-30.35-11.75-1.23-.93.76-2.52 2.26-1.8zm9.74-5.26c11.54 4.68 36.4 11.39 61.39-3.49.55-.331 1.25.06.78.43-6.59 5.25-21.2 14.32-41.15 11.75 0 0-13.67-1.44-22.75-7.44-.92-.61.6-1.7 1.73-1.25zm55.96 22.15c19.67 11.07 62.02 27.95 104.4-.13.94-.63 2.14.27 1.34 1-11.16 10.16-35.95 27.34-69.91 19.66 0 0-23.27-4.58-38.77-18.13-1.57-1.37 1.01-3.48 2.94-2.4zm15.22-4c15.42 7.29 48.53 18.03 81.18-3.39.72-.47 1.66.13 1.05.68-8.57 7.61-27.65 20.68-54.14 16.26 0 0-18.14-2.55-30.35-11.75-1.23-.93.75-2.52 2.26-1.8zm9.74-5.26c11.54 4.67 36.4 11.39 61.38-3.49.56-.33 1.26.06.79.43-6.59 5.25-21.2 14.32-41.16 11.75 0 0-13.66-1.44-22.75-7.44-.92-.61.61-1.7 1.74-1.25zm61.92-3.63c19.68 11.08 62.03 27.95 104.41-.13.94-.62 2.14.27 1.34 1-11.17 10.16-35.95 27.34-69.91 19.66 0 0-23.27-4.58-38.78-18.13-1.57-1.37 1.02-3.48 2.94-2.4zm15.23-4c15.41 7.29 48.53 18.03 81.18-3.39.72-.47 1.66.13 1.05.68-8.57 7.61-27.65 20.68-54.15 16.26 0 0-18.14-2.54-30.34-11.75-1.24-.93.75-2.52 2.26-1.8zm9.73-5.26c11.54 4.68 36.4 11.39 61.39-3.49.55-.331 1.26.06.78.43-6.58 5.25-21.2 14.32-41.15 11.75 0 0-13.67-1.44-22.75-7.44-.92-.61.61-1.7 1.73-1.25zm50.82 22.61c19.67 11.07 62.02 27.95 104.4-.13.94-.63 2.14.27 1.34.99-11.16 10.16-35.95 27.35-69.91 19.67 0 0-23.27-4.58-38.78-18.14-1.56-1.37 1.02-3.47 2.95-2.39zm15.22-4.01c15.42 7.3 48.53 18.03 81.18-3.38.72-.47 1.66.13 1.05.67-8.57 7.62-27.65 20.68-54.14 16.27 0 0-18.15-2.55-30.35-11.75-1.24-.93.75-2.52 2.26-1.81zm9.73-5.25c11.54 4.67 36.41 11.39 61.39-3.49.56-.33 1.26.06.79.43-6.59 5.25-21.21 14.32-41.16 11.75 0 0-13.67-1.44-22.75-7.44-.92-.61.61-1.71 1.73-1.25zm61.93-4.09c19.67 11.08 62.03 27.95 104.41-.13.94-.62 2.14.27 1.34 1-11.17 10.16-35.95 27.34-69.91 19.66 0 0-23.27-4.58-38.78-18.13-1.57-1.37 1.02-3.48 2.94-2.4zm15.23-4c15.41 7.29 48.53 18.03 81.17-3.39.73-.47 1.67.13 1.06.68-8.57 7.61-27.66 20.68-54.15 16.26 0 0-18.14-2.54-30.34-11.75-1.24-.93.75-2.52 2.26-1.8zm9.73-5.26c11.54 4.68 36.4 11.39 61.39-3.49.55-.331 1.26.06.78.43-6.59 5.25-21.2 14.32-41.15 11.75 0 0-13.67-1.44-22.75-7.44-.92-.61.6-1.7 1.73-1.25z" fill="#bf8c4e" fill-rule="evenodd"/></svg>