<svg xmlns="http://www.w3.org/2000/svg" width="1920" height="51"><path d="M3.456 12.884c19.672 11.072 62.028 27.948 104.405-.135.94-.623 2.139.271 1.338 1-11.163 10.158-35.946 27.34-69.909 19.666 0 0-23.268-4.58-38.775-18.136-1.569-1.372 1.018-3.479 2.941-2.395zM18.68 8.877c15.416 7.3 48.534 18.031 81.178-3.382.724-.475 1.666.126 1.052.672-8.57 7.614-27.653 20.679-54.144 16.261 0 0-18.142-2.542-30.347-11.746-1.235-.932.754-2.517 2.261-1.805zm9.736-5.253C39.955 8.296 64.816 15.012 89.803.13c.554-.331 1.257.059.784.436-6.589 5.246-21.2 14.314-41.153 11.743 0 0-13.669-1.436-22.754-7.439-.918-.607.608-1.704 1.736-1.246zm56.039 22.355c19.672 11.073 62.028 27.948 104.405-.134.941-.623 2.139.27 1.339 1-11.164 10.158-35.946 27.34-69.91 19.665 0 0-23.267-4.58-38.774-18.135-1.569-1.375 1.018-3.475 2.94-2.396zm15.224-4.006c15.416 7.3 48.534 18.03 81.178-3.382.725-.476 1.666.126 1.052.671-8.57 7.615-27.653 20.68-54.144 16.262 0 0-18.142-2.543-30.346-11.746-1.235-.932.753-2.518 2.26-1.805zm9.736-5.254c11.539 4.673 36.4 11.389 61.386-3.494.555-.33 1.257.06.785.436-6.589 5.247-21.2 14.314-41.153 11.743 0 0-13.669-1.436-22.753-7.439-.919-.607.607-1.703 1.735-1.246zm61.927-3.835c19.672 11.072 62.028 27.948 104.405-.135.941-.623 2.139.271 1.338 1-11.163 10.158-35.946 27.34-69.909 19.666 0 0-23.267-4.58-38.774-18.136-1.57-1.372 1.017-3.479 2.94-2.395zm15.224-4.007c15.416 7.3 48.534 18.031 81.178-3.382.725-.475 1.666.126 1.052.672-8.57 7.614-27.653 20.679-54.144 16.261 0 0-18.141-2.542-30.347-11.746-1.234-.932.754-2.517 2.261-1.805zm9.736-5.253c11.539 4.672 36.4 11.388 61.386-3.494.555-.331 1.257.059.785.436-6.589 5.246-21.2 14.314-41.153 11.743 0 0-13.669-1.436-22.753-7.439-.919-.607.607-1.704 1.733-1.246zm50.812 22.813c19.672 11.073 62.028 27.948 104.405-.135.94-.623 2.139.271 1.338 1-11.164 10.158-35.946 27.34-69.909 19.665 0 0-23.268-4.58-38.775-18.136-1.573-1.371 1.018-3.476 2.941-2.394zm15.223-4.006c15.417 7.3 48.534 18.03 81.179-3.383.724-.475 1.666.126 1.051.672-8.569 7.614-27.652 20.679-54.143 16.261 0 0-18.142-2.542-30.347-11.745-1.235-.936.754-2.519 2.26-1.805zm9.736-5.255c11.539 4.674 36.4 11.39 61.387-3.493.555-.33 1.257.059.785.436-6.589 5.247-21.2 14.314-41.153 11.743 0 0-13.67-1.436-22.754-7.439-.919-.607.608-1.703 1.735-1.247zM334 12.884c19.672 11.072 62.028 27.948 104.405-.135.94-.623 2.139.271 1.338 1-11.164 10.158-35.946 27.34-69.909 19.666 0 0-23.268-4.58-38.775-18.136-1.568-1.372 1.019-3.479 2.941-2.395zm15.223-4.007c15.417 7.3 48.534 18.031 81.179-3.382.724-.475 1.666.126 1.051.672-8.569 7.614-27.652 20.679-54.143 16.261 0 0-18.142-2.542-30.347-11.746-1.234-.932.755-2.517 2.261-1.805zm9.736-5.253c11.539 4.672 36.4 11.388 61.387-3.494.555-.331 1.257.059.785.436-6.589 5.246-21.2 14.314-41.153 11.743 0 0-13.669-1.436-22.754-7.439-.918-.607.608-1.704 1.736-1.246zm55.957 21.605c19.672 11.072 62.028 27.948 104.405-.135.94-.623 2.139.271 1.338 1-11.163 10.158-35.946 27.339-69.909 19.665 0 0-23.267-4.58-38.774-18.136-1.569-1.371 1.018-3.476 2.941-2.394zm15.224-4.007c15.416 7.3 48.533 18.031 81.178-3.382.725-.475 1.666.127 1.052.672-8.57 7.615-27.653 20.679-54.144 16.261 0 0-18.142-2.542-30.346-11.746-1.235-.927.754-2.517 2.261-1.805zm9.735-5.254c11.54 4.673 36.4 11.389 61.387-3.493.555-.33 1.257.059.785.436-6.589 5.246-21.2 14.314-41.153 11.743 0 0-13.669-1.436-22.753-7.439-.918-.607.608-1.703 1.735-1.247zm61.928-3.084c19.672 11.072 62.028 27.948 104.4-.135.94-.623 2.139.271 1.338 1-11.163 10.158-35.946 27.34-69.909 19.666 0 0-23.268-4.58-38.775-18.136-1.563-1.372 1.024-3.479 2.943-2.395zm15.224-4.007c15.416 7.3 48.533 18.031 81.178-3.382.725-.475 1.666.126 1.052.672-8.57 7.614-27.653 20.679-54.144 16.261 0 0-18.142-2.542-30.347-11.746-1.234-.932.755-2.517 2.262-1.805zm9.735-5.253c11.539 4.672 36.4 11.388 61.387-3.494.555-.331 1.257.059.785.436-6.589 5.246-21.2 14.314-41.153 11.743 0 0-13.669-1.436-22.753-7.439-.919-.607.608-1.704 1.735-1.246zm50.812 22.063c19.672 11.073 62.029 27.948 104.406-.135.94-.623 2.138.271 1.338 1-11.164 10.159-35.946 27.34-69.909 19.666 0 0-23.268-4.581-38.775-18.136-1.568-1.372 1.019-3.482 2.941-2.395zM592.8 21.68c15.417 7.3 48.534 18.031 81.179-3.382.724-.476 1.666.126 1.051.672-8.57 7.615-27.652 20.679-54.143 16.261 0 0-18.142-2.542-30.347-11.746-1.24-.931.753-2.518 2.26-1.805zm9.736-5.254c11.539 4.673 36.4 11.389 61.387-3.493.555-.33 1.257.06.785.435-6.589 5.247-21.2 14.315-41.153 11.744 0 0-13.67-1.437-22.754-7.439-.92-.608.606-1.704 1.734-1.247zm61.928-3.542c19.672 11.072 62.028 27.948 104.405-.135.94-.623 2.139.271 1.338 1-11.164 10.158-35.946 27.34-69.909 19.666 0 0-23.268-4.58-38.775-18.136-1.57-1.372 1.017-3.479 2.94-2.395zm15.223-4.007c15.417 7.3 48.534 18.031 81.179-3.382.724-.475 1.666.126 1.051.672-8.57 7.614-27.652 20.679-54.143 16.261 0 0-18.142-2.542-30.347-11.746-1.236-.932.753-2.517 2.259-1.805zm9.736-5.253c11.539 4.672 36.4 11.388 61.387-3.494.555-.331 1.257.059.785.436-6.59 5.246-21.2 14.314-41.153 11.743 0 0-13.67-1.436-22.754-7.439-.92-.607.606-1.704 1.734-1.246zm47.628 24.463c19.672 11.073 62.029 27.949 104.406-.134.94-.624 2.138.27 1.338 1-11.164 10.158-35.946 27.34-69.909 19.665 0 0-23.268-4.58-38.775-18.135-1.57-1.373 1.017-3.477 2.939-2.396zm15.224-4.006c15.417 7.3 48.534 18.03 81.179-3.382.724-.476 1.666.126 1.051.671-8.57 7.615-27.652 20.68-54.143 16.262 0 0-18.142-2.542-30.347-11.746-1.236-.932.753-2.518 2.259-1.805zm9.736-5.254c11.539 4.673 36.4 11.388 61.387-3.494.555-.33 1.257.06.785.436-6.589 5.247-21.2 14.315-41.153 11.743 0 0-13.67-1.436-22.754-7.438-.92-.608.606-1.704 1.734-1.247zm61.927-5.943c19.672 11.072 62.028 27.948 104.406-.135.94-.623 2.138.271 1.338 1-11.164 10.158-35.946 27.34-69.909 19.666 0 0-23.268-4.58-38.775-18.136-1.57-1.372 1.017-3.479 2.939-2.395zm15.224-4.007c15.417 7.3 48.534 18.031 81.179-3.382.724-.475 1.666.126 1.051.672-8.57 7.614-27.652 20.679-54.143 16.261 0 0-18.142-2.542-30.347-11.746-1.236-.932.753-2.517 2.259-1.805zm9.736-5.253c11.539 4.672 36.4 11.388 61.387-3.494.555-.331 1.257.059.784.436-6.589 5.246-21.2 14.314-41.152 11.743 0 0-13.67-1.436-22.754-7.439-.92-.607.606-1.704 1.737-1.246zm50.812 24.921c19.672 11.073 62.028 27.948 104.4-.134.94-.624 2.14.271 1.34 1-11.161 10.158-35.943 27.34-69.906 19.665 0 0-23.268-4.58-38.775-18.135-1.569-1.373 1.018-3.478 2.94-2.396zm15.224-4.006c15.416 7.3 48.534 18.03 81.178-3.382.725-.476 1.666.125 1.052.671-8.57 7.615-27.653 20.68-54.144 16.262 0 0-18.141-2.543-30.346-11.746-1.236-.932.752-2.518 2.259-1.805zm9.736-5.255c11.539 4.674 36.4 11.39 61.387-3.493.554-.33 1.257.06.784.436-6.589 5.247-21.2 14.314-41.153 11.743 0 0-13.669-1.436-22.753-7.439-.92-.607.606-1.703 1.734-1.247zm61.927-6.4c19.674 11.072 62.024 27.948 104.4-.135.94-.623 2.14.271 1.34 1-11.16 10.158-35.95 27.34-69.91 19.666 0 0-23.267-4.58-38.774-18.136-1.566-1.372 1.021-3.479 2.947-2.395zm15.224-4.007c15.42 7.3 48.53 18.031 81.18-3.382.72-.475 1.66.126 1.05.672-8.57 7.614-27.65 20.679-54.14 16.261 0 0-18.15-2.542-30.35-11.746-1.236-.932.749-2.517 2.259-1.805zm9.74-5.253c11.53 4.672 36.4 11.388 61.38-3.494.56-.331 1.26.059.79.436-6.59 5.246-21.21 14.314-41.16 11.743 0 0-13.66-1.436-22.75-7.439-.921-.607.609-1.704 1.739-1.246zm55.95 23.713c19.67 11.072 62.03 27.948 104.41-.135.94-.623 2.14.271 1.34 1-11.17 10.159-35.95 27.34-69.91 19.666 0 0-23.27-4.58-38.78-18.136-1.571-1.372 1.019-3.477 2.939-2.395zm15.23-4.006c15.41 7.3 48.53 18.03 81.17-3.383.73-.475 1.67.126 1.06.673-8.57 7.614-27.66 20.678-54.15 16.26 0 0-18.14-2.542-30.34-11.746-1.241-.935.749-2.517 2.259-1.804zm9.73-5.255c11.54 4.673 36.4 11.389 61.39-3.493.55-.33 1.26.059.78.436-6.59 5.246-21.2 14.314-41.15 11.743 0 0-13.67-1.436-22.75-7.439-.921-.607.599-1.703 1.729-1.247zm61.93-5.192c19.67 11.072 62.03 27.948 104.4-.135.95-.623 2.14.271 1.34 1-11.16 10.158-35.94 27.34-69.91 19.666 0 0-23.26-4.58-38.77-18.136-1.571-1.372 1.019-3.479 2.939-2.395zm15.22-4.007c15.42 7.3 48.54 18.031 81.18-3.382.73-.475 1.67.126 1.05.672-8.57 7.614-27.65 20.679-54.14 16.261 0 0-18.14-2.542-30.35-11.746-1.231-.932.759-2.517 2.259-1.805zm9.74-5.253c11.54 4.672 36.4 11.388 61.39-3.494.55-.331 1.25.059.78.436-6.59 5.246-21.2 14.314-41.15 11.743 0 0-13.67-1.436-22.76-7.439-.921-.607.609-1.704 1.739-1.246zm50.81 24.171c19.67 11.073 62.03 27.948 104.41-.135.94-.623 2.14.271 1.33 1-11.16 10.159-35.94 27.34-69.9 19.665 0 0-23.27-4.579-38.78-18.135-1.571-1.372 1.019-3.477 2.939-2.395zm15.22-4.007c15.42 7.3 48.54 18.03 81.18-3.382.73-.476 1.67.126 1.05.672-8.57 7.615-27.65 20.679-54.14 16.261 0 0-18.14-2.542-30.35-11.746-1.231-.931.759-2.517 2.259-1.805zm9.74-5.254c11.54 4.673 36.4 11.389 61.39-3.493.55-.331 1.25.06.78.435-6.59 5.247-21.2 14.315-41.15 11.744 0 0-13.67-1.437-22.75-7.439-.921-.607.599-1.704 1.729-1.247zm61.93-5.65c19.67 11.072 62.03 27.948 104.4-.135.94-.623 2.14.271 1.34 1-11.16 10.158-35.94 27.34-69.91 19.666 0 0-23.27-4.58-38.77-18.136-1.571-1.372 1.019-3.479 2.939-2.395zm15.22-4.007c15.42 7.3 48.54 18.031 81.18-3.382.72-.475 1.67.126 1.05.672-8.57 7.614-27.65 20.679-54.14 16.261 0 0-18.14-2.542-30.35-11.746-1.231-.932.759-2.517 2.259-1.805zm9.74-5.253c11.54 4.672 36.4 11.388 61.38-3.494.56-.331 1.26.059.79.436-6.59 5.246-21.2 14.314-41.15 11.743 0 0-13.67-1.436-22.76-7.439-.921-.607.609-1.704 1.739-1.246zm54.63 23.358c19.68 11.072 62.03 27.948 104.41-.135.94-.623 2.14.271 1.34 1-11.17 10.158-35.95 27.34-69.91 19.666 0 0-23.27-4.581-38.78-18.136-1.571-1.372 1.019-3.477 2.939-2.395zm15.23-4.007c15.41 7.3 48.53 18.03 81.18-3.382.72-.476 1.66.126 1.05.672-8.57 7.614-27.66 20.679-54.15 16.261 0 0-18.14-2.542-30.34-11.746-1.241-.932.749-2.518 2.259-1.805zm9.73-5.254c11.54 4.673 36.4 11.389 61.39-3.493.55-.331 1.26.059.78.436-6.58 5.246-21.2 14.314-41.15 11.743 0 0-13.67-1.437-22.75-7.439-.921-.607.609-1.704 1.729-1.247zm61.93-4.837c19.67 11.072 62.03 27.948 104.41-.135.94-.623 2.13.271 1.33 1-11.16 10.158-35.94 27.34-69.91 19.666 0 0-23.26-4.58-38.77-18.136-1.571-1.372 1.019-3.479 2.939-2.395zm15.22-4.007c15.42 7.3 48.54 18.031 81.18-3.382.73-.475 1.67.126 1.05.672-8.57 7.614-27.65 20.679-54.14 16.261 0 0-18.14-2.542-30.35-11.746-1.231-.932.759-2.517 2.259-1.805zm9.74-5.253c11.54 4.672 36.4 11.388 61.39-3.494.55-.331 1.25.059.78.436-6.59 5.246-21.2 14.314-41.15 11.743 0 0-13.67-1.436-22.75-7.439-.921-.607.599-1.704 1.729-1.246zm55.96 22.15c19.67 11.072 62.02 27.948 104.4-.136.94-.623 2.14.272 1.34 1-11.16 10.158-35.95 27.34-69.91 19.665 0 0-23.27-4.58-38.77-18.135-1.571-1.368 1.009-3.477 2.939-2.394zm15.22-4.007c15.42 7.3 48.53 18.03 81.18-3.383.72-.475 1.66.127 1.05.673-8.57 7.614-27.65 20.679-54.14 16.26 0 0-18.14-2.542-30.35-11.746-1.231-.93.749-2.517 2.259-1.804zm9.74-5.254c11.54 4.673 36.4 11.389 61.38-3.494.56-.33 1.26.06.79.436-6.59 5.247-21.2 14.315-41.16 11.743 0 0-13.66-1.436-22.75-7.439-.921-.607.609-1.703 1.739-1.246zm61.92-3.629c19.68 11.072 62.03 27.948 104.41-.135.94-.623 2.14.271 1.34 1-11.17 10.158-35.95 27.34-69.91 19.666 0 0-23.27-4.58-38.78-18.136-1.571-1.372 1.019-3.479 2.939-2.395zm15.23-4.007c15.41 7.3 48.53 18.031 81.18-3.382.72-.475 1.66.126 1.05.672-8.57 7.614-27.65 20.679-54.15 16.261 0 0-18.14-2.542-30.34-11.746-1.241-.932.749-2.517 2.259-1.805zm9.73-5.253c11.54 4.672 36.4 11.388 61.39-3.494.55-.331 1.26.059.78.436-6.58 5.246-21.2 14.314-41.15 11.743 0 0-13.67-1.436-22.75-7.439-.921-.607.609-1.704 1.729-1.246zm50.82 22.607c19.67 11.073 62.02 27.949 104.4-.134.94-.624 2.14.27 1.34 1-11.16 10.158-35.95 27.339-69.91 19.665 0 0-23.27-4.58-38.78-18.135-1.561-1.373 1.019-3.478 2.949-2.396zm15.22-4.006c15.42 7.3 48.53 18.03 81.18-3.383.72-.475 1.66.127 1.05.673-8.57 7.614-27.65 20.678-54.14 16.261 0 0-18.15-2.543-30.35-11.746-1.241-.93.749-2.518 2.259-1.805zm9.73-5.254c11.54 4.673 36.41 11.388 61.39-3.494.56-.331 1.26.06.79.436-6.59 5.246-21.21 14.314-41.16 11.743 0 0-13.67-1.436-22.75-7.439-.921-.607.609-1.703 1.729-1.246zm61.93-4.087c19.67 11.072 62.03 27.948 104.41-.135.94-.623 2.14.271 1.34 1-11.17 10.158-35.95 27.34-69.91 19.666 0 0-23.27-4.58-38.78-18.136-1.571-1.372 1.019-3.479 2.939-2.395zm15.23-4.007c15.41 7.3 48.53 18.031 81.17-3.382.73-.475 1.67.126 1.06.672-8.57 7.614-27.66 20.679-54.15 16.261 0 0-18.14-2.542-30.34-11.746-1.241-.932.749-2.517 2.259-1.805zm9.73-5.253c11.54 4.672 36.4 11.388 61.39-3.494.55-.331 1.26.059.78.436-6.59 5.246-21.2 14.314-41.15 11.743 0 0-13.67-1.436-22.75-7.439-.921-.607.599-1.704 1.729-1.246z" fill="#bf8c4e" fill-rule="evenodd"/></svg>