<svg id="ken.svg" xmlns="http://www.w3.org/2000/svg" width="83.88" height="83.22"><defs><style>.cls-1{fill:#fff;fill-rule:evenodd}</style></defs><path id="シェイプ_3" data-name="シェイプ 3" class="cls-1" d="M1076.42 1061.19c.19-.45.37-.85.58-1.28a2.669 2.669 0 01.24-.32c.35-.05.68-.96 1.01-1.87.51-.88.6-1.16.37-1.36-.27.4-.54.8-.76 1.17-.28.38-.52.72-.79 1.1.48-.76.99-1.5 1.55-2.27.31-.5.32-.83.18-.89-.42.51-.85 1.08-1.23 1.62-.34.22-.29-.1-.36-.13a36.586 36.586 0 00-2.68 5.24c-.15.37-.28.75-.4 1.14.13.26.28.49.43.76.04-.09.05-.13.09-.22.18.19.33.33.48.48a32.361 32.361 0 011.29-3.17zm-.03-1.72c.2-.31.4-.63.6-.95a17.143 17.143 0 00-.94 1.64 2.593 2.593 0 01.34-.69zm-2.5 7.38a9.027 9.027 0 00.44-2.13 5.111 5.111 0 00-.84 2.64 1.3 1.3 0 00.4-.51zm48.73 51l.03-.06.12-.31c.49-.14.88-.28 1.31-.41a4.653 4.653 0 00-.5-.49c-.01-.04-.01-.07-.02-.11.58-.15 1.16-.36 2.41-.61a.212.212 0 00.03-.07l.12-.31c.49-.14.88-.27 1.31-.4a4.653 4.653 0 00-.5-.49 1.137 1.137 0 00-.11-.4c.04-.13.06-.17-.87-.08-.26-.05-.57-.09-.83-.16-.04-.12-.04-.27-.08-.39.24-.28.48-.58.76-.88.36-.14.44-.24.74-.36.04-.14.09-.3.13-.44a1.51 1.51 0 00-.08-.51c-.02-.09.27-.33-.14-.26-.24-.09-.46-.2-.74-.28a.516.516 0 00.31-.35c-.36.09-.73.18-1.09.25-.96.05-.4-.34-1.83-.06-.11.22-1.29.32-1.27.58-1.64.2-2.89.06-4.23.19-1.04-.06-1.53.09-2.32.02-.32.12-1.36-.25-1.21.02a24.3 24.3 0 01-5.54-.82c-.14.68-2.01-.61-2.88-.54-.52-.58-2.14-.64-2.98-1.38a28.649 28.649 0 01-6.11-3.39 27.507 27.507 0 01-6.03-5.36c-.17.03-.45-.39-.67-.42-.73-.85-1.46-1.76-2.14-2.7a32.02 32.02 0 01-3.21-5.44c-.2-.13-.33-.83-.69-.77a3.757 3.757 0 00-.78-1.93c-.04-.43-.52-1.35-.27-1.36a2.294 2.294 0 00-.32-.79 4.741 4.741 0 01-.42-1.21c-.16-.34-.28-.65-.45-1.04.32.19 0-.91-.1-.97a5.99 5.99 0 00-.58-1.48c-.01-.08-.02-.12-.03-.21a1.666 1.666 0 00-.15-1.43 2.718 2.718 0 00-.35-1.68c-.04-.22-.07-.45-.11-.63.23.3.13-.37.3-.3-.36-1.39 0-3.81-.12-5.21.06-.55.12-1.06.2-1.61a13.716 13.716 0 00.28-2.54l.1-.41c.29-1.16.85-2.66 1.2-4.39.48-1.18 1.1-2.31 1.56-3.35a9.351 9.351 0 011.13-1.32 16.757 16.757 0 012.79-4.34c.18-.26.44-.52.45-.35.27-.33.52-.62.8-.94a1.586 1.586 0 00.68-1.26l-.59.18c.06-.25.1-.46.14-.67.15-.26.33-.57.49-.83.1-.09.2-.19.32-.31a39.544 39.544 0 014.88-3.8l.18.36c.34-.12.69-.23 1.02-.34a2.571 2.571 0 00.7-.53c1.82-.65 4.64-1.66 5.88-2.26.48-.17 1-.34 1.49-.47.59-.12 1.13-.22 1.72-.32-.28.55 1.31-.23 1.96-.02.91-.11.72.2 1.76.04a6.715 6.715 0 01.65-.27 4.259 4.259 0 001.35-.18h.41a34.52 34.52 0 016.51.83c.58.13 1.15.28 1.72.43.4.1.84.19 1.29.31 1.29.42 1.89.69 3.11 1l.38.15c1.43.66 2.34 1.35 4.16 2.24a3.532 3.532 0 011.15.6 37.124 37.124 0 014.07 3c1.01 1.16 1.9 1.25 2.8 2.5a34.351 34.351 0 017.73 11.9c.2.29.38.59.57.88.3.92.57 1.79.79 2.68-.2.4.52 1.96.31 2.36.17.52.21 1.46.46 1.52.38.35.1 1.03.26 1.59.03 1.02.11 1.84.08 2.94a5.92 5.92 0 00.11 1.76c-.25.3-.01 1.85-.31 2.13-.04.86-.1 1.71-.19 2.52a6.576 6.576 0 00-.28.93c.41 2.05-.89 1.01-.89 3.41a8.115 8.115 0 01-1.23 3.03c-.71 1-.33 1.45-.73 2.25a2.045 2.045 0 01-.47.4 1.676 1.676 0 00-.3.71 5.378 5.378 0 01-.95 1.52c-.21.49-.45.48-.5.35-.23.37-.51.77-.76 1.14-.32.41-.62.79-.96 1.19-.35.29-.81 1.07-1 .95-.21.25-.4.46-.64.74l-.52.55c-.47.45-.94.89-1.43 1.32-.24.17-.45.33-.64.48a.737.737 0 00-.14.04l-.16-.25c-.85.2-1.55 1.1-2.49 1.36-.35.36-1.52.71-1.61.98a6.767 6.767 0 01-1.75 1.01c-.37.4-1.76.79-1.59 1.07a2.717 2.717 0 001.08-.41c.44-.1.9-.25 1.34-.38.05.11.11.2.16.31-.02.02-.03.04-.05.06-.45.16-.91.32-1.35.46-.55.21-1.14.42-1.7.6a6.527 6.527 0 00-1.75.5c.59-.09 1.17-.2 1.79-.34.73-.19 1.42-.39 2.13-.62.13-.05.28-.11.44-.17-.26.18-.52.34-.8.52a3.4 3.4 0 00-1.04.61c-.23.11-.46.21-.73.32-.55.2-1.14.4-1.69.58-.55.2-1.15.41-1.7.6a6.8 6.8 0 00-1.75.49c.59-.08 1.17-.19 1.79-.33.73-.2 1.42-.4 2.13-.63.16-.05.36-.13.56-.21a12.78 12.78 0 003.02-1.15c.45-.14.89-.29 1.34-.45.06.12.09.19.13.26.88-.44 1.7-.91 2.53-1.43.3-.22.6-.41.88-.6.85-.43 1.66-.89 2.47-1.4 1.29-.9 2.31-1.46 3.4-2.3 1.3-1.29 2.82-2.26 3.92-3.59.22-.26.46-.51.67-.77.33-.35.66-.74.96-1.11.24-.35.46-.67.69-1.03.02.27.07.57.09.85.14.26.53.11.79.01.28-.39.55-.8.84-1.24.21-.28.4-.53.63-.86.35-.67.68-1.39.99-2.07a31.834 31.834 0 002.79-7.06c.28-.56.44-2.2.63-2.69.06-.49.13-.97.17-1.45.03-.26.06-.57.08-.83.34.01.34-1.11.22-1.48a37.509 37.509 0 00-.09-4.24c-.01-.35-.02-.71-.05-1.06.27-.17.04-1.42-.18-1.89l-.12-.66a16.385 16.385 0 00-.08-1.68c.27.25.13-.46.32-.25a5.761 5.761 0 00.48.42c.19.61.4 1.28.83 2.54.11 1.04.18 2.04.2 3.09-.26.17-.22 1.24.07 2.59.09-.49.16-.98.22-1.48.09.01.17.01.26.02.01 0 .04.01.05.01a5.322 5.322 0 00.04-.69c-.02-.37-.04-.74-.07-1.11a1.375 1.375 0 00-.43-.65 3.2 3.2 0 00.19-1.56c-.07-.41-.16-.87-.27-1.32-.08-.41-.19-.86-.29-1.27h-.07c-.14-.31-.29-.57-.44-.88-.27-1.21-.71-2.53-.96-3.6a38.364 38.364 0 00-2.47-5.96 3.237 3.237 0 00-.94-1.83 40.633 40.633 0 00-4.95-6.79 1.862 1.862 0 00-.59-.98 3.993 3.993 0 00-1.02-.69c-.47-.55-.93-1.04-1.39-1.53-.73-.72-1.5-1.4-2.29-2.05-.33-.3-.7-.62-1.08-.93-.35-.21-.67-.38-1.06-.6-.59-.39-1.18-.77-1.82-1.15a5.224 5.224 0 00-1.44-.83c-.42-.26-.83-.53-1.22-.76.52.14.15-.28.71-.17a7.119 7.119 0 00-1.26-.69c-.37-.08-.69-.15-1.07-.23l-.19-.08c.24-.08-.1-.3-.31-.45a8.2 8.2 0 00-1.92-.59c-.45-.22-.66-.37-.88-.49a5.831 5.831 0 00-1.94-.51c-.51-.13-.97-.24-1.49-.35-.55-.16-1.1-.31-1.66-.45a9.5 9.5 0 00-1.73-.39c-.45.02-.9.05-1.34.08-1.1-.12-2.2-.21-3.25-.25-.37-.02-.68-.03-1.05-.05a6.412 6.412 0 00-1.42-.4 9.094 9.094 0 00-1.82.15c-.16.01-.31.02-.53.03a5.117 5.117 0 00-2.27.14c-.26.12-.47.25-.73.38a4.6 4.6 0 00-1.51.13c-1.34-.24-3.69.41-5.7 1.06-.33.21-.6.4-.92.62-.95.31-1.88.67-2.8 1.05a1.65 1.65 0 00-1.23.32c-.28.38-1.83.93-2.48 1.65a3.23 3.23 0 00-.87.34c-.32.44-2.28 1.09-2.69 1.97-.18.11-.4.24-.62.37-.27.16-.57.36-.82.53-.33.26.68-.27.34-.02-.48.43-1.44 1.13-1.39 1.39.66-.19.66-.42 2.1-1.48a4.043 4.043 0 001.25-.54v.02a2.091 2.091 0 00.91-.53 8.114 8.114 0 011.36-.64c.39-.26.82-.56 1.27-.83.61-.27.95-.4 1.33-.56.55-.3 1.06-.57 1.58-.82-.15.23.95-.06 1.03.07a39.5 39.5 0 013.84-1c.18-.03.39-.06.59-.08a1.487 1.487 0 00-.31.17 1.046 1.046 0 00.04.17 7.407 7.407 0 01-.34.7c-.18.1-.36.21-.55.33a7.069 7.069 0 00-2.5.8c.01.06.02.1.03.16-.08.19-.16.39-.26.59a3.481 3.481 0 00-.96.57c-.39.19-.77.38-1.16.59-.08.03-.17.06-.26.1a.037.037 0 01.01.03c-.45.24-.89.5-1.35.77-.59.34-1.18.71-1.75 1.09-.53.28-1.06.58-1.6.9-1.09.63-2.14 1.35-3.15 2.06-.91.61-1.78 1.28-2.63 1.98-.73.61-1.44 1.25-2.13 1.91a6.073 6.073 0 00-1.99 1.92c-.04.2-.08.41-.14.64-.12.15-.26.32-.4.5.05-.43-.38.11-.55.22-.26.39-.5.79-.71 1.17.15-.33.3-.74.46-1.15.5-.89.59-1.16.36-1.37-.27.41-.53.81-.76 1.18-.28.37-.52.71-.79 1.09.48-.76.99-1.5 1.55-2.27.31-.5.32-.83.18-.89-.42.51-.85 1.09-1.23 1.63-.33.22-.28-.11-.36-.14a36.723 36.723 0 00-2.68 5.25c-.15.37-.28.75-.4 1.13.13.26.29.49.43.76.04-.09.05-.13.09-.22.03.03.06.07.09.1a5.352 5.352 0 01-.42.76 1.2 1.2 0 00-.23.32 7.273 7.273 0 00-.44.6 5 5 0 01-.1-.72l-.14-.14c-.12.3-.23.55-.34.81-.46 1.28.14.91-.07 1.92-.14.44-.25.84-.38 1.29a8.677 8.677 0 01-.36 1.47c.28.8-.4 1.17-.54 2.33-.11-.07-.22-.15-.34-.23.14-.73.28-1.45.46-2.17a.106.106 0 00-.06-.04c-.16.13-.32.27-.49.4-.14.59-.24 1.15-.33 1.76-.13.62-.25 1.3-.35 1.94-.06.51-.11 1.07-.13 1.59-.08.64-.1 1.1-.14 1.51-.08.43-.18.85-.25 1.23.24 1.21.2 2.67.52 4.83.01.49.06 1.04.1 1.53l-.73-.26c-.06-.47-.1-.94-.14-1.35-.05-.83-.07-1.61-.07-2.44-.08-.04-.18-.08-.25-.12-.03-.25-.06-.49-.08-.69.13-.54.25-1.09.4-1.63-.06-.17-.11-.34-.16-.51-.04-1.22-.07-1.65-.39-1.64 0-.4 0-.79.01-1.19a20.209 20.209 0 00.39-3.49 7.29 7.29 0 00-.57 3.37c-.15 1.12-.27 2.24-.34 3.37.02.15.04.31.05.46.08.04.17.09.24.13-.01.33 0 .62-.01.94-.33.79-.03 2.15.15 3.41.07.8.16 1.65.29 2.44.09.48.2.96.29 1.39.14.61.28 1.22.45 1.83.03.27.1.59.14.86.06.23.1.41.17.65l.06.65c-.1-.02-.18-.04-.29-.06a.048.048 0 00-.05-.01 1.773 1.773 0 00.39 1.5c.15.46.28.88.45 1.33.17.25.36.49.52.69.04.17.08.31.1.44 0 .34-.12.32-.1.58.33.73.68 1.49 1.03 2.16.28.58.62 1.23.43 1.27a11.9 11.9 0 001.42 2.3c.29.34.61.68.91 1.02a2.251 2.251 0 00.95 1.19 1.65 1.65 0 00.08-.42c.22.2.48.39.71.59.45.64.93 1.27 1.43 1.9a1.335 1.335 0 00.16.57c.62.69 1.27 1.71 2.03 1.96a11.711 11.711 0 001.98 1.65c.18.18.33.31.51.48a3.691 3.691 0 001.02 1.22 2.679 2.679 0 001.22.7c.3.13.54.23.84.35a38.56 38.56 0 003.42 2.17c.1.1.22.18.37.31a3.837 3.837 0 001.28.95c.51.13 1.45.87 2.16.76.38.18.79.34 1.18.51.65.31 1.29.62 2.01.93a15.609 15.609 0 005.08 1.39 1.936 1.936 0 001.12.11 8.751 8.751 0 002.98.32c.47.08.99.15 1.52.22.6.33.04.44.48.76.63.02 1.27.01 1.91 0 .9 0 1.44-.06 2.17-.01.37-.05.78-.11 1.14-.17a11.746 11.746 0 002.35-.15c1.43-.08 1.66-.39 3.75-.81zm27.99-41.52c-.01-.35-.02-.7-.05-1.05.27-.18.04-1.42-.19-1.9-.03-.22-.07-.43-.11-.66 0-.53-.04-1.1-.08-1.68.15.14.17-.01.2-.15 0 .01 0 .01.01.01.38.35.1 1.02.26 1.59.03 1.02.11 1.83.08 2.93a6.006 6.006 0 00.11 1.77 2.273 2.273 0 00-.13 1.01c-.02-.63-.05-1.25-.1-1.87zm-.42 4.05a2.8 2.8 0 01-.04-1.15.289.289 0 00.06-.1c-.02.4-.04.8-.02 1.25zm3.37-3.24c-.02.4-.04.79-.02 1.24a2.754 2.754 0 01-.04-1.14.437.437 0 00.06-.1zm-67.4-24.14c-.09.11-.21.25-.32.4.12-.2.25-.43.38-.64-.02.08-.04.15-.06.24zm-6.56 10.84c-.09.33-.18.64-.27.98a9.153 9.153 0 01-.37 1.48c.28.79-.39 1.16-.54 2.33-.1-.07-.22-.15-.33-.24.26-.87.56-1.85.78-2.92.22-.55.48-1.1.73-1.63zm2.38 29.97l-.01-.01a.02.02 0 01.01.02v-.01zm-4.8-12.92c-.05-.1-.1-.21-.16-.34-.04-.22-.07-.44-.11-.62.23.3.12-.37.3-.3a9.487 9.487 0 01-.15-2.52c.05.68.12 1.45.25 2.33.01.5.07 1.04.1 1.53-.08-.03-.16-.05-.23-.08zm1.45 14.93a.02.02 0 00-.01-.02c.01 0 .01.01.01.02zm24.86 20.18c-.07 0-.18-.02-.3-.03-.3-.1-.66-.19-.98-.28.44.1.85.21 1.28.31zm1.29.52a1.416 1.416 0 01-.22-.07c-.03-.01-.05-.02-.08-.03.1.04.2.07.3.1zm27.42-11.69l-.07-.09c.09-.05.17-.09.25-.13.44-.11.9-.25 1.34-.38l.03.06c-.16.11-.34.22-.53.34a1.842 1.842 0 00-1.02.2zm-4.21-66.19a2.018 2.018 0 01-.76-.29 6.7 6.7 0 01.76.29zm-26.29-.12c-.15.24.95-.06 1.03.08a39.579 39.579 0 013.84-1.01l.96-.13c.81-.14 1.63-.23 2.45-.31a1.15 1.15 0 01.26.08c-.16.07-.31.15-.51.24 1.07.04.2.26-.24.45a.17.17 0 01-.07.01c-.16.01-.31.02-.53.04a4.825 4.825 0 00-2.27.14c-.27.12-.47.25-.73.38a4.549 4.549 0 00-1.51.12 10.037 10.037 0 00-3.84.51c.4-.21.78-.41 1.16-.6zm-21.96 18.96l.6-.96c-.29.5-.68 1.07-.94 1.64a2.543 2.543 0 01.34-.68zm18.97 56.9c.47.16.88.27 1.52.47a11.778 11.778 0 01-1.52-.47zm55.39-28.58c.33-.27.52-.94.54-2.29a5.727 5.727 0 00-.54 2.29zm-65.23-31.63c-.29.29-.58.58-.83.84-.11.14-.18.24-.26.34-.23.29-.48.64-.72.98-.5 1.69 1.07-1.2 1.71-1.56-.11-.1.31-.62.1-.6zm66.21 27.21a4.618 4.618 0 00.26-2.85c-.27.24-.29 1.27-.26 2.85z" transform="translate(-1072.12 -1035.78)"/><path id="健" class="cls-1" d="M1129.81 1066.65h-2.49l-.39-.05a.34.34 0 00.2-.19 7.493 7.493 0 011-1.2 7.658 7.658 0 011.59-1.68c.91-.62.96-1.25.05-1.92a.986.986 0 00-.29-.29 3.513 3.513 0 00-1.35-.72 14.285 14.285 0 00-2.25.53c-.15.05-.34.1-.48.14a.678.678 0 01-.53-.04.664.664 0 01-.05-.53 2.812 2.812 0 01.19-.53 2.255 2.255 0 00-1.1-2.93c-.43-.24-.87-.53-1.25-.77a.525.525 0 00-.58-.09.585.585 0 00-.33.53c-.1 1.53-.15 3.02-.15 4.51a.411.411 0 01-.52.48c-.82.05-1.59.09-2.4.14a1.188 1.188 0 00-.72.05.606.606 0 00-.48.48 1.527 1.527 0 00.43.53 1.711 1.711 0 00.57.29l2.74.76a.531.531 0 01.29.39 21.666 21.666 0 01.14 2.45.877.877 0 01-.05.38 8.479 8.479 0 01-1.87 1.15 27.87 27.87 0 00-3.98 1.64 10.893 10.893 0 00-3.36 2.59.243.243 0 01-.15.09.248.248 0 010-.24 13.464 13.464 0 011.16-1.77.8.8 0 00.04-1.01 5.006 5.006 0 00-2.78-1.92.745.745 0 00-1.1.38 4.006 4.006 0 01-1.35 1.97c-.67.53-1.29 1.01-1.97 1.49-.57.34-1.1.67-1.58 1.01-.29.29-.58.53-.86.81l1.29.15a21.339 21.339 0 002.45-.58c.43-.09.58.05.43.43-.33 1.01-.72 2.02-1.1 3.03-.43.77-.82 1.58-1.3 2.3a1.224 1.224 0 00-.19.67 3.707 3.707 0 002.4 2.31.286.286 0 00.29 0 1.79 1.79 0 01.91-.67c.38-.1.72-.2 1.1-.29.34-.1.53.05.48.43a16.886 16.886 0 01-1.29 5.38.833.833 0 01-.58.28c-1.05-.28-2.06-.52-3.12-.72a5.533 5.533 0 00-2.01.39c-.68.29-.68.62-.05 1.01a8.986 8.986 0 001.77.91c.82.19 1.59.38 2.4.53a.345.345 0 01.39.33 10.409 10.409 0 01-2.79 4.04c-.33.28-.57.24-.76-.15a2.9 2.9 0 00-.2-.33.244.244 0 00-.38-.05c-.1.19-.24.43-.38.67-.1.19-.2.38-.29.58a.91.91 0 00.14 1.39.807.807 0 01.24.33.9.9 0 001.49.2c.72-.72 1.49-1.49 2.21-2.31a11.092 11.092 0 001.77-2.64 2.891 2.891 0 01.48-.81.889.889 0 01.87-.34c.38.1.72.19 1.01.29a33.9 33.9 0 016.19 2.35c2.01 1.01 3.98 2.11 5.85 3.26 1.59.92 3.17 1.78 4.81 2.69a1.157 1.157 0 00.67.29 8.5 8.5 0 005.13-.34 3.31 3.31 0 01.77-.43l-.77-.86c-.14-.1-.28-.15-.43-.24-2.16-.67-4.27-1.44-6.33-2.26a28.177 28.177 0 01-3.03-1.44 14.3 14.3 0 01-1.2-1.05.938.938 0 01-.1-.48 16.548 16.548 0 01.44-2.16c0-.24.04-.48.04-.72a.582.582 0 01.39-.58 1.928 1.928 0 01.72-.19 24.558 24.558 0 006.29-2.4c.53-.24.57-.63.24-1.16a15.02 15.02 0 00-3.7-3.21l-.24-.29a.5.5 0 00.29-.1 2.073 2.073 0 00.53-.24 1.051 1.051 0 00.43-.33 1.213 1.213 0 00-.53-1.06 5.043 5.043 0 00-1.29-.96.918.918 0 00-1.3-.29 1.068 1.068 0 01-.53.15.693.693 0 01-.34-.24.491.491 0 010-.34 21.573 21.573 0 012.17-1.87l2.25-1.78c.58-.43.58-.86 0-1.34a18.208 18.208 0 00-2.59-1.63h-.14c-.49.14-.97.29-1.4.43a.5.5 0 01-.38 0 1.381 1.381 0 01-.05-1.01 1.506 1.506 0 01.43-.86c.39-.15.82-.29 1.25-.43a4.127 4.127 0 011.35-.34c1.63.1 3.31.24 4.94.38a1 1 0 00.72-.14.5.5 0 00-.14-.62 4.409 4.409 0 00-1.3-1.35 2.579 2.579 0 00-1.78-.48zm-8.54 22.56v1.54a2.31 2.31 0 01-.1.82 1.456 1.456 0 01-.72-.34 23.367 23.367 0 00-4.17-1.82c-1.49-.48-2.93-1.01-4.37-1.49a.409.409 0 01-.39-.63c.44-.91.82-1.87 1.2-2.78a9.444 9.444 0 00.77-2.88 2.224 2.224 0 00-.24-1.49 6.31 6.31 0 00-2.59-1.92c-.34-.1-.43-.24-.29-.53.43-1.2.87-2.4 1.25-3.55a.474.474 0 01.62-.38 2.47 2.47 0 001.64-.58 8.29 8.29 0 012.4-1.44c.86-.29 1.77-.58 2.68-.82h.24a1.283 1.283 0 00-.09.24 64.991 64.991 0 00-2.88 3.41 3.693 3.693 0 00-.24 1.25 4.047 4.047 0 001.1 0 8.035 8.035 0 011.35-.53 3.2 3.2 0 011.48-.05 3.091 3.091 0 00.96 0c.58.2.68.53.34 1.01q-1.725 1.515-3.6 3.03a.79.79 0 00-.24 1.24 3.572 3.572 0 001.97 1.78c.29.1.33.29.09.48a9.414 9.414 0 01-3.4 2.69 1.293 1.293 0 00-.58 2.06 1.955 1.955 0 001.39 1.15 3.825 3.825 0 001.83.1 9.563 9.563 0 001.63-.19c.62-.19.96 0 .96.62zm3.41-7.73a2.5 2.5 0 012.25.1 6.7 6.7 0 011.73 1.58.926.926 0 01.1.72 2.367 2.367 0 01-1.73 1.16c-1.01.19-2.02.33-3.03.57-.43.05-.62-.14-.52-.57.04-1.11.14-2.16.28-3.27a1.24 1.24 0 01.44-.29 1.956 1.956 0 00.48-.24v.24zm-3.41 3.41c0 .19-.05.43-.05.67a.459.459 0 01-.38.48 1.673 1.673 0 01-.68.15 14.818 14.818 0 01-1.53.09c-.34.05-.43-.09-.29-.38a5.432 5.432 0 012.35-2.93c.24-.19.39-.19.39.1a17.214 17.214 0 00.19 1.82zm.24-14.25v1.15a.9.9 0 01-.87 1.2c-.57.09-1.15.19-1.68.33a.28.28 0 01-.28 0 1 1 0 01.24-.28c.52-.63 1.1-1.2 1.68-1.83a3.543 3.543 0 01.76-.67.126.126 0 01.15.1zm3.31 4.36a1.377 1.377 0 01.38-.67 1.044 1.044 0 01.68-.33.437.437 0 01.14.33 4.871 4.871 0 00-1.01.91.467.467 0 01-.19-.24zm-.38-10.7l.67-.29.14.14a4.6 4.6 0 01-.57.53.884.884 0 01-.24-.38zm-23.62.09c-.24 1.11-.43 2.26-.58 3.41a93.913 93.913 0 01-6 21.32 1.809 1.809 0 01-.24.67v.19c.1-.05.19-.05.24-.09a29.486 29.486 0 002.31-3.22 23.756 23.756 0 001.29-2.74c.1-.05.24-.09.34-.14a2.569 2.569 0 01.67 1.2c.1 2.69.19 5.38.29 8.06a3.311 3.311 0 01-.43 1.01 1.9 1.9 0 00-.24.87 5.389 5.389 0 001.68 2.68c.33.29.57.24.72-.14a8.347 8.347 0 00.57-2.21c0-1.39 0-2.83-.05-4.27a36.21 36.21 0 010-4.42 2.442 2.442 0 00-.81-2.3 17.867 17.867 0 01-1.39-1.2.649.649 0 01-.39-1.01 72.89 72.89 0 002.59-6.48c.77-2.98 1.49-5.95 2.12-8.98a3.009 3.009 0 01.48-1.39 1.167 1.167 0 00-.15-1.68 4.214 4.214 0 00-3.98-1.82l-.67.14c.09.19.24.38.33.58a3.1 3.1 0 01.96.81 1.379 1.379 0 01.34 1.15z" transform="translate(-1072.12 -1035.78)"/></svg>