<svg xmlns="http://www.w3.org/2000/svg" width="342.939" height="50.44"><path d="M41.127 22.2a13 13 0 00-5.7-5.94 24.484 24.484 0 00-2.52-1.02c-.9-.3-1.86-.6-2.82-.84a4.734 4.734 0 00-2.879.06.905.905 0 01-.24-.24v-3.78a10.662 10.662 0 00-4.02-8.52 2.3 2.3 0 00-2.7-.54c-.36.12-.72.3-1.08.42-1.2.72-2.4 1.56-3.6 2.4a4.9 4.9 0 00-1.14 1.32c-.12.3-.24.6-.36.84-.42.42-.36.72.12 1.02a2.837 2.837 0 01.72.42 2.438 2.438 0 01.54.6c.18.66.36 1.32.48 1.98a3.4 3.4 0 01-.24 2.04 8.773 8.773 0 01-4.32 4.38 48.07 48.07 0 00-4.5 3.3 1.617 1.617 0 00-.42.48 1.368 1.368 0 00.66-.18l5.04-2.88a13.63 13.63 0 012.88-1.62 4.054 4.054 0 013.24 0 .944.944 0 00.72.06 33.477 33.477 0 003.42.48 1.131 1.131 0 01.54.24l-.48.36c-.42.3-.9.6-1.32.96q-5.31 3.42-10.62 7.02a2.178 2.178 0 01-1.02.42.719.719 0 00-.72.6c-.06.3-.12.66-.18 1.02a2.131 2.131 0 001.14.48c.96-.18 1.98-.36 3-.6a8.987 8.987 0 002.82-1.14c1.2-.84 2.34-1.68 3.48-2.58q1.08-.81 2.16-1.8c1.62-1.2 3.18-2.46 4.74-3.78a1.724 1.724 0 012.219-.06c.84.48 1.74.96 2.58 1.44a.908.908 0 01.42.84 17.142 17.142 0 01-1.44 6.9 35.77 35.77 0 01-10.2 13.8 40.683 40.683 0 01-7.14 4.68q-3.78 1.98-7.74 3.6a9.573 9.573 0 00-1.38.6c-.059.06-.179.12-.239.18a1 1 0 01.3.12 33.95 33.95 0 003.54-.9c2.28-1.02 4.56-2.04 6.78-3.06 2.46-1.14 4.92-2.22 7.38-3.36 1.62-.84 3.3-1.8 4.92-2.76a31.707 31.707 0 013-1.92 22.4 22.4 0 007.2-6.24 5.831 5.831 0 011.8-1.62 12.4 12.4 0 003.36-3.72 1.16 1.16 0 00.3-.54 5.186 5.186 0 00-.481-3.42zM5.848 34.26a5.721 5.721 0 00.24-3.6 4.242 4.242 0 01-.12-2.58l.72-1.2c.06-.18.12-.3.18-.48a.867.867 0 00-.42.12 1.8 1.8 0 00-.48.24c-.6.18-.9 0-.9-.66a22.6 22.6 0 00-.3-3.42 1.026 1.026 0 00-.42-.78.86.86 0 00-.66.3 9.909 9.909 0 00-1.619 2.28 11.186 11.186 0 00-1.74 2.94 3.033 3.033 0 00-.24 2.16 11.463 11.463 0 001.8 3.24 3.3 3.3 0 001.559 1.44 14.889 14.889 0 002.1.78 2.57 2.57 0 01.3-.78zm93.9-16.56a31.243 31.243 0 00-3.3-2.16 19.414 19.414 0 01-3.84-3.12 30.67 30.67 0 01-3.12-3.78 1.463 1.463 0 010-.72 4.25 4.25 0 01.06-.9 3.961 3.961 0 00-.06-.84 8.3 8.3 0 00-1.919-2.58 3.023 3.023 0 00-3.72-.9 11.032 11.032 0 00-2.4 1.14c-1.38.9-2.76 1.92-4.14 2.94a6.822 6.822 0 00-.9.96 8.574 8.574 0 001.2.84.77.77 0 00.6.24 1.075 1.075 0 011.2 1.38l.3 7.98a.856.856 0 01-.96.96c-2.88.72-5.7 1.44-8.58 2.22-1.32.42-2.64.84-4.02 1.2a11.039 11.039 0 00-7.019 4.02 5.438 5.438 0 00-.78 1.14.917.917 0 00.18 1.2 3.2 3.2 0 001.2.78 12.41 12.41 0 006.9 1.32 6.866 6.866 0 002.58-.84c.78-.72 1.62-1.5 2.4-2.34a18.059 18.059 0 017.14-4.86c.48-.18.66 0 .66.42a32.753 32.753 0 00-.24 3.42v1.44a23.741 23.741 0 01-4.68 13.8 6.434 6.434 0 01-1.74 1.62 13.474 13.474 0 01-7.44 2.16 2.317 2.317 0 01-1.26-.18 1.453 1.453 0 01-.839-1.02l-.36-.12c-.54.72-1.08 1.38-1.62 2.04a2.844 2.844 0 00-.6.6c-.24.54-.42 1.08-.66 1.62a1.331 1.331 0 00.72.78 14.406 14.406 0 002.28-.72c.18 0 .3-.06.479-.06.6 0 1.26-.06 1.86-.06a4.815 4.815 0 001.8-.36 57.12 57.12 0 007.8-4.68 18.557 18.557 0 004.02-3.78 47.448 47.448 0 003.24-4.5 6.147 6.147 0 00.96-1.74c.96-3.36 1.92-6.66 2.88-9.96a13.791 13.791 0 011.02-2.88.571.571 0 01.6-.48 13.827 13.827 0 019.059.72 4.364 4.364 0 001.74.42 2.157 2.157 0 00.66.12 15.571 15.571 0 002.4.18 1.1 1.1 0 00.48-.72 4.678 4.678 0 00-2.222-3.36zm-5.1-.66a1.021 1.021 0 00-.42-.06l-6.36.6c-.539.12-.779-.12-.719-.66.12-.78.3-1.56.42-2.28a28.16 28.16 0 00.359-3.24 1.907 1.907 0 00.18-.54.614.614 0 01.36.3c1.38 1.26 2.82 2.46 4.26 3.66.72.54 1.38 1.08 2.04 1.68a1.059 1.059 0 01.48.54h-.6zm60.66 2.76l-3.84-1.5a27.97 27.97 0 00-2.94-.96l-.12.12a1.14 1.14 0 01-.779-.12 3.349 3.349 0 01-.3-.48.527.527 0 00.42.06.554.554 0 00.239-.36 7.914 7.914 0 00-.419-1.92 6.586 6.586 0 00-1.44-2.52c-1.26-1.08-2.58-2.1-3.9-3.12a1.752 1.752 0 01-.54-.12 2.25 2.25 0 00-1.26 0 9.708 9.708 0 00-1.08.6.964.964 0 01-.66.3.406.406 0 01-.54-.36 22.782 22.782 0 01-.9-3.06 35.808 35.808 0 00-.6-3.66c-.48-1.26-1.2-1.44-2.22-.54a1.991 1.991 0 00-.96.9 11.087 11.087 0 00-.84.84 1.725 1.725 0 00-.42 1.08.5.5 0 00.72.54.585.585 0 01.54.24c.6 1.8 1.26 3.6 1.98 5.34a.631.631 0 01-.3.96l-3.42 1.98c-.24.12-.42.24-.66.36a3.878 3.878 0 00-2.28 1.08c-.6.6-1.2 1.26-1.74 1.92a1.634 1.634 0 00-.42 1.2.623.623 0 00.48.24l.54.18a4.137 4.137 0 00.6.24c.96.48 1.86.9 2.82 1.32.6.24.66.54.18 1.02-1.2 1.5-2.34 3-3.48 4.5a.967.967 0 01-.24.42 1.306 1.306 0 00.48-.3c1.74-1.32 3.48-2.7 5.28-4.02a1.02 1.02 0 011.08-.12 6.248 6.248 0 004.98.12.421.421 0 01.54.24l1.92 4.08a.685.685 0 01-.36.9 12.15 12.15 0 00-2.04.84c-4.5 1.86-8.94 3.72-13.38 5.52a2.192 2.192 0 01-.9.18.519.519 0 01-.36-.18c.24-1.26.48-2.46.6-3.66a1.407 1.407 0 00.12-.66 1.62 1.62 0 00-.66.3 97.844 97.844 0 00-4.079 5.7 8.144 8.144 0 00-.78 1.44 1.641 1.641 0 00.18 1.5c.36.48.66.96.96 1.38a5.052 5.052 0 005.219 2.04 13.982 13.982 0 006.24-2.4c.9-.42 1.8-.84 2.64-1.26 1.08-.48 2.1-.96 3.12-1.44 1.2-.6 2.34-1.2 3.48-1.86a9.059 9.059 0 001.56-1.08.934.934 0 011.02-.42 1.059 1.059 0 01.48.54c1.02 2.7 1.98 5.28 2.88 7.92a2.928 2.928 0 01-.66 3.24.68.68 0 000 1.2l2.879 3.06a2.155 2.155 0 00.6.42.6.6 0 001.02-.36c.12-.42.24-.9.36-1.32a1.86 1.86 0 00-.24-1.38 21.139 21.139 0 01-.9-2.52c-.6-1.86-1.14-3.72-1.62-5.64-.66-1.8-1.379-3.6-2.039-5.4a1.435 1.435 0 01.6-1.86c.539-.3 1.139-.6 1.739-.96l1.56-1.62c1.08-.78 2.1-1.62 3.18-2.52a5.35 5.35 0 001.26-1.92 1.181 1.181 0 01.6-.9 1.877 1.877 0 00.6-.3.7.7 0 00.24-.6 3.161 3.161 0 00-1.621-2.64zm-2.64 1.62a19.906 19.906 0 01-3.18 1.98 73.86 73.86 0 01-4.379 2.16c-.54.36-.9.24-1.02-.42l-1.26-4.86a7.143 7.143 0 00.54-.9 5.41 5.41 0 00.54-.6 1.864 1.864 0 012.34-.9h1.5a5.39 5.39 0 012.759.9 11.724 11.724 0 012.28 1.92 1.082 1.082 0 01-.119.72zm7.14-11.04a4.883 4.883 0 00-.9-2.4c-.54-.66-1.08-1.32-1.68-1.98a1.769 1.769 0 00-2.7-.18 2.355 2.355 0 01-.84.18q-1.08.45-.36 1.26a24.127 24.127 0 012.04 2.28 6.723 6.723 0 003.24 2.22c.9.24 1.32-.06 1.26-.96a.89.89 0 00-.061-.42zm-7.439 3.18a3.174 3.174 0 001.86 1.32 1.689 1.689 0 001.2-.24.946.946 0 00.42-1.08 1.581 1.581 0 00-.36-1.26 42.68 42.68 0 00-2.94-3.6 3.49 3.49 0 00-1.5-.72 1.024 1.024 0 00-1.32.96 2.118 2.118 0 00.18.84 40.865 40.865 0 002.46 3.78zm69.062 32.4a10.947 10.947 0 00-2.04-2.04 4.149 4.149 0 01-1.14-.6q-1.62-.9-3.24-1.98a15.176 15.176 0 01-1.32-.78 24.848 24.848 0 00-2.582-1.2 2.432 2.432 0 01-.54-.3.77.77 0 01-.24-.6 1.669 1.669 0 00-.48-1.26c-1.2-1.32-2.459-2.52-3.719-3.72a1.544 1.544 0 00-1.92-.3l-.96.18a.9.9 0 01-.66-.24.851.851 0 01.24-.84c1.38-.6 2.7-1.32 4.08-1.98a6.085 6.085 0 001.619-1.44 2.477 2.477 0 00.24-1.32c-.06-.9.3-1.2 1.08-.96a3.67 3.67 0 00.72.3.9.9 0 01.54 1.44c-.48.6-.96 1.2-1.5 1.8a1.591 1.591 0 00-.3.36c.12 0 .3-.06.42-.06a5.942 5.942 0 013.542 0 3.507 3.507 0 011.14.12 6.836 6.836 0 003.42 1.14 4.267 4.267 0 001.92-.42c-.06-.36-.12-.78-.18-1.14a4.635 4.635 0 00-.72-2.58 6.869 6.869 0 00-1.8-1.92 19.543 19.543 0 00-3.66-2.28 6.785 6.785 0 00-4.2-.6 2.278 2.278 0 00-2.159 1.44 3.189 3.189 0 01-.72 1.32 21.568 21.568 0 01-2.22.9l-2.34.9a.638.638 0 01-.48-.06l.24-.36a16.46 16.46 0 002.04-2.46 3.336 3.336 0 011.68-1.32 13.138 13.138 0 011.98-.72 1.265 1.265 0 00.839-.24q.27-.27-.18-.72a.151.151 0 00.12-.18 2.577 2.577 0 000-.96 7.561 7.561 0 00-.779-1.14 1.967 1.967 0 00-.36-.48.478.478 0 01-.12-.54.563.563 0 01.48-.36 15.621 15.621 0 001.679-1.02c.48-.12.96-.3 1.44-.42a5.777 5.777 0 011.922-.54 4.187 4.187 0 002.4-.72 2.52 2.52 0 001.2-1.98 3.12 3.12 0 00-.78-2.28 28.212 28.212 0 00-4.922-6.12 16.723 16.723 0 00-8.939-4.62 2.235 2.235 0 00-1.56.18 17.916 17.916 0 00-7.02 6c-.06.12-.12.3-.18.42a7.65 7.65 0 00.9 1.5 6.107 6.107 0 001.38 1.08c1.32.12 2.7.24 4.02.3v-.06c.24.06.48.06.72.12a.808.808 0 01.54.3 1.223 1.223 0 01-.3 1.26 18.31 18.31 0 01-1.32 1.92 2.432 2.432 0 01-.54.3 11.345 11.345 0 01-2.4-.48c-.36-.24-.78-.42-1.2-.72a1.461 1.461 0 00-1.32-.12c-1.02.3-2.1.54-3.18.84a2.5 2.5 0 00-1.26 1.08 5.158 5.158 0 00-.54 1.62 20.694 20.694 0 01-.66 3.24q-.9 2.52-1.98 5.04c-1.38 4.02-2.7 7.98-3.959 12a22.123 22.123 0 00-.72 4.8l-.48 2.76c-.18 1.02-.3 2.04-.42 3.06a9.022 9.022 0 000 1.8 3.27 3.27 0 00.72 1.44.5.5 0 00.72.06 5.41 5.41 0 00.6-.54 1.8 1.8 0 01.66-.84 1.253 1.253 0 001.139-1.56 4.216 4.216 0 01.6-2.4v-.36l-1.259-.18a1.462 1.462 0 01-.72 0 .577.577 0 01-.48-.54 3.17 3.17 0 01.06-.78c.12-1.68.3-3.36.48-5.04.54-2.22 1.139-4.32 1.8-6.48a1.651 1.651 0 01.48-.9 3.637 3.637 0 001.02-1.74 20.3 20.3 0 00.48-2.04 1.551 1.551 0 01.78-1.14 1.167 1.167 0 00.84-.54 2.023 2.023 0 00.3-1.02c.12-.24.18-.54.3-.84l3.18-6.72a1.059 1.059 0 01.54-.48 3.819 3.819 0 013.9 1.2c.48.48.96.9 1.44 1.38l.6.42a1.413 1.413 0 01-.78.3 5.688 5.688 0 00-4.2 2.16 1.446 1.446 0 01-.6.6l-1.74.84c-.72.3-.72.72-.12 1.14.84.66 1.68 1.32 2.52 1.86.66.3.66.66.06 1.02a.947.947 0 01-.48.3 8.486 8.486 0 00-2.16 1.44c-.6.6-1.2 1.26-1.8 1.92a.394.394 0 00-.3.48 11.881 11.881 0 001.44 2.1 5.987 5.987 0 001.62 1.32c.36.24.3.48-.06.66-.96.6-1.86 1.26-2.7 1.86a18.751 18.751 0 00-1.92 1.8.657.657 0 00-.06.66 8.669 8.669 0 001.74 2.94 5.858 5.858 0 002.94 1.74c.48.18.54.42.18.84a7.138 7.138 0 00-1.14 1.2.536.536 0 00.12.9 4.923 4.923 0 003.12 1.2c.48.24 1.02.42 1.56.66a6.1 6.1 0 001.68.78c1.38.24 2.82.42 4.2.54.6.06 1.2.12 1.8.12.78 0 1.5-.06 2.22-.12a4.631 4.631 0 012.16.42 2.247 2.247 0 001.259 0 20.108 20.108 0 013.24-.96l7.862-.9c.24 0 .54-.06.78-.06a1.7 1.7 0 00.78-.24 5.679 5.679 0 00.3-1.08 1.847 1.847 0 00-.005-1.14zm-27.541-8.58a1.312 1.312 0 01-.3-.18c.06-.06.12-.18.18-.24a3.947 3.947 0 00.24-.9 1.094 1.094 0 01.3-.66.716.716 0 01.54-.3.38.38 0 01.3.36 1.855 1.855 0 01.12.48 1.213 1.213 0 01-.3 1.2.81.81 0 01-1.082.24zm20.7 11.1a19.9 19.9 0 01-2.16.3h-5.221a.375.375 0 110-.6c0 .06.06.18.06.24 2.458 0 4.92.06 7.32.06zm.96-4.92a2.4 2.4 0 01-1.68 1.62c-1.14.3-2.282.66-3.482.96-2.759-.36-5.579-.72-8.4-1.08a4.134 4.134 0 01-.48-.18 2.61 2.61 0 00.36-.42 7.138 7.138 0 011.2-1.14c1.56-1.14 3.24-2.22 4.919-3.24a3.081 3.081 0 012.7-.3c.84.36 1.622.66 2.462 1.02a.882.882 0 01.3.36h-.48a6.949 6.949 0 00-1.082-.24 3.031 3.031 0 01.962.54c.9.54 1.8 1.14 2.7 1.74a.225.225 0 010 .36zm69.72-25.32a12.587 12.587 0 00-2.64-4.8 25.261 25.261 0 00-4.26-4.14 22.272 22.272 0 00-5.16-3 4.151 4.151 0 00-2.1 0 26.591 26.591 0 00-9.3 5.52c-2.46 2.16-4.8 4.44-7.08 6.78-.96.96-1.98 1.92-3 2.88a11.559 11.559 0 00-2.46 3.42 2.8 2.8 0 01-.3-.6l-.24-4.08a12.575 12.575 0 01-.12-3 11.316 11.316 0 00-.12-3.18 8.531 8.531 0 00-2.16-4.86 1.544 1.544 0 00-.9-.06c-.9 1.32-1.8 2.64-2.64 4.02a16.463 16.463 0 00-1.98 6.66 27.318 27.318 0 00.36 7.02 19.374 19.374 0 002.4 6.42c.54.96 1.14 1.92 1.68 2.88a9.206 9.206 0 002.22 2.58 1.4 1.4 0 01.42.42 32.032 32.032 0 002.64 2.34 12.042 12.042 0 003.12 1.68 3.69 3.69 0 00.84.06 1.977 1.977 0 01.84 0 12.2 12.2 0 005.7-.06 13.978 13.978 0 012.76-.48c.96-.06 1.86-.12 2.82-.12.36 0 .48.18.24.6-.66 1.08-1.32 2.16-1.92 3.24l-.18.54a1.591 1.591 0 00.36-.3 23.259 23.259 0 011.98-1.38 4.635 4.635 0 012.22-.72c1.08-.06 2.16-.06 3.3-.06a3.824 3.824 0 00.42-.12.638.638 0 01.48-.06 1.665 1.665 0 001.08 0 1.343 1.343 0 011.08-.06.51.51 0 00.3-.18 2.157 2.157 0 00.42-1.08 8.2 8.2 0 00.12-1.14 3.508 3.508 0 00-.24-1.14c-.84-1.02-1.74-2.04-2.64-3.06a13.248 13.248 0 00-3.12-2.64.662.662 0 010-.48 2.6 2.6 0 011.2-.66 2.283 2.283 0 001.02-.48c.3-.24.66-.48 1.02-.72.6-.54 1.2-1.08 1.8-1.56a15.563 15.563 0 002.34-1.5 6.857 6.857 0 012.46-1.26 1.312 1.312 0 00.3-.18q1.08-1.8 2.16-3.42a21.283 21.283 0 011.92-2.82 3.675 3.675 0 00.539-3.66zm-13.26-3.78a31.885 31.885 0 01-6.12 12.36 32.667 32.667 0 01-10.68 9.36 2.259 2.259 0 01-.9.54.8.8 0 01-.96-.12 10.446 10.446 0 01-.84-.72 6.9 6.9 0 01-1.92-3.18 31.694 31.694 0 01-1.32-7.8 37.02 37.02 0 007.44-6.24 6.9 6.9 0 011.8-1.68c.72-.54 1.38-1.02 2.04-1.5 1.14-.72 2.28-1.44 3.48-2.16a6.954 6.954 0 015.58-.6 12.7 12.7 0 011.86.54.791.791 0 01.539 1.2zm55.98-7.92a8.036 8.036 0 00-5.94-1.26c-.66.12-1.32.18-1.98.3a9.281 9.281 0 00-1.86.36 36.176 36.176 0 00-4.56 2.34 61.36 61.36 0 00-7.02 4.32 34.015 34.015 0 00-6.24 5.52c-.78.9-1.56 1.92-2.28 2.94a.851.851 0 00.24.84c1.74.6 3.42 1.08 5.16 1.5a2.9 2.9 0 003.12-.9 2.813 2.813 0 011.08-1.14c.78-.12 1.5-.24 2.28-.36a12.062 12.062 0 003.66-1.26c.72-.48 1.38-.96 2.1-1.44a7.39 7.39 0 012.28-1.14 13.334 13.334 0 003.12-1.74 7.876 7.876 0 013.6-1.44.648.648 0 01.9.72q0 5.85.18 11.7a16.057 16.057 0 01-1.56 7.68 6.388 6.388 0 01-1.56 2.04 4.022 4.022 0 01-2.34.9 21.13 21.13 0 00-8.58 1.98 38.167 38.167 0 01-3.48 1.8 7.124 7.124 0 00-2.82 1.5 27.858 27.858 0 00-2.34 2.28c-.36.42-.3.66.18.84a13.967 13.967 0 002.28.24c2.82-.3 5.64-.6 8.4-.96a3.133 3.133 0 001.26-.24c1.8-.66 3.54-1.38 5.22-2.1a.9.9 0 011.02.12 13.186 13.186 0 001.38 1.2 9.954 9.954 0 011.92 1.98 5.265 5.265 0 002.82 2.52 2.141 2.141 0 001.5.06 33.339 33.339 0 004.02-3 6.719 6.719 0 002.64-4.2c.06-.9.18-1.86.3-2.82a20.5 20.5 0 00.78-4.26l.24-7.02a21.856 21.856 0 01.9-4.8 16.01 16.01 0 011.2-2.76 22.52 22.52 0 00-1.02-2.82 26.814 26.814 0 00-10.201-10.02zm11.04-5.1a.507.507 0 00-.42 0c-.72.3-1.38.6-2.04.9a.534.534 0 00-.18.96c.78.84 1.56 1.74 2.4 2.58a5.456 5.456 0 002.88 1.98c.9.36 1.32.06 1.26-.96a3.833 3.833 0 00-.36-1.68 7.949 7.949 0 00-.96-1.5c-.36-.42-.72-.9-1.14-1.32a6.03 6.03 0 00-1.441-.96zm-4.62 6.66a5.751 5.751 0 002.58 2.76 1.274 1.274 0 001.38-.06 1.486 1.486 0 00.66-1.26c-.06-.3-.12-.48-.18-.72a10.968 10.968 0 00-1.68-2.64 7.88 7.88 0 00-2.58-1.86 1.389 1.389 0 00-1.44.24 1.6 1.6 0 00-.06 1.38 9.922 9.922 0 001.319 2.16z" fill="#333" fill-rule="evenodd"/></svg>