<svg xmlns="http://www.w3.org/2000/svg" width="856" height="1227.22"><path d="M-544.834 0H1434.83v1210.03s-255.8 36.21-280.45 3.56c-13.25-17.54-11.15-186.18-20.17-186.12-5.47.04-.42 185.2-5.92 185.23-137.859.84-281.131 1.1-332.727-.89-1.234-.05-9.479-157.2-18.247-157.17-9.86.03-3.877 157.97-13.839 158-117.682.37-242.186.7-365.909.95-7.938.02-2.691-150.18-10.628-150.16-4.9.01-10.3 149.64-15.2 149.65-127.179.25-197.01-5.12-314.628-5.04-6.395 0-8.225-165.93-13.535-162.19-6.6 4.65-5.915 158.37-8.95 158.84-24.547 3.84-261.065 7.12-343.348 7.12-29.829 0-23.065-158.11-30.955-148.38-11.648 14.36-.633 146.6-33.01 146.6h-172.148V0z" style="mix-blend-mode:multiply" fill="#192248" fill-rule="evenodd"/></svg>