<svg id="nutrients.svg" xmlns="http://www.w3.org/2000/svg" width="816" height="816"><defs><style>.cls-9{fill-rule:evenodd}.cls-5{fill:#dc476a;font-size:32px;font-family:&quot;Zen Maru Gothic&quot;;font-weight:500}.cls-9{fill:#4774dc}</style></defs><g id="beauty.svg"><g id="グループ_19" data-name="グループ 19" fill-rule="evenodd"><path id="楕円形_3" data-name="楕円形 3" d="M960.011 3363c-225.333 0-408-182.67-408-408s182.667-408 408-408" transform="translate(-552 -2547)" fill="#c36b5d"/><path id="楕円形_3-2" data-name="楕円形 3" d="M960.009 3305c-193.5 0-350.361-156.86-350.361-350.36s156.862-350.36 350.361-350.36" transform="translate(-552 -2547)" fill="#fce7e4"/><path id="楕円形_3_のコピー_2" data-name="楕円形 3 のコピー 2" d="M408.244 512.96a104.91 104.91 0 010-209.82" stroke="#dc476a" fill="#fff" stroke-width="2"/><path id="美容" d="M912.478 2915a11.319 11.319 0 013.12 5.6c3.039 2.2 5.8-4-2.72-5.88zm-7.838 17.68l.359 1.16h33.635a.979.979 0 001.08-.64c-1.44-1.32-3.84-3.12-3.84-3.12l-2.079 2.6h-10.359v-4.76h11.918a.957.957 0 001.04-.64c-1.36-1.24-3.639-2.96-3.639-2.96l-1.96 2.44h-7.359v-4.52h14a.926.926 0 001.08-.64c-1.48-1.32-3.8-3.12-3.8-3.12l-2.08 2.6h-6.559a40.275 40.275 0 004.759-4.48 1.238 1.238 0 001.48-.68l-4.559-1.52a53.407 53.407 0 01-2.88 6.68h-18.518l.32 1.16h13.438v4.52h-11.678l.32 1.16h11.358v4.76H904.64zm34.714 7.64a.93.93 0 001.04-.64c-1.44-1.32-3.92-3.16-3.92-3.16l-2.12 2.64h-11.717c.2-1.04.319-2.12.439-3.24a1.331 1.331 0 001.36-1.08l-4.879-.44a28.419 28.419 0 01-.52 4.76H903.76l.36 1.16h14.637c-1.36 4.44-4.959 7.64-15.357 10.4l.28.76c13.557-2.44 17.317-6.04 18.676-11.16h.6c2.56 6.48 7.439 9.36 15.238 10.96a3.606 3.606 0 012.52-2.96l.039-.44c-7.8-.72-13.837-2.64-16.877-7.56h15.478zm-3.88 24.28a40.554 40.554 0 01-1.959 4.36l.48.32a31.035 31.035 0 005.119-4.08 2.389 2.389 0 001.52-.4l-3.36-3.24-1.84 1.88H923.6v-3.4a1.33 1.33 0 001.44-1.08l-4.719-.44v4.92H909.4a12.145 12.145 0 00-.48-2.2h-.64a8.049 8.049 0 01-3.04 6.36 2.126 2.126 0 00-1.039 2.56c.559 1.04 2.2.96 3.239.08a7.069 7.069 0 002.04-5.64h26zm-10.958 2.84c2.96 1.68 6.8 4.8 8.2 7.44 3.719 1.56 4.6-6-7.839-7.84zm-16.717 8.68a28.521 28.521 0 0010.4-7.44c.92.16 1.24-.04 1.48-.44l-4.119-1.92a28.388 28.388 0 01-8.159 9.24zm20.8 6.44h-13.441l-1.84-.76a35.907 35.907 0 009.6-8.6 25.249 25.249 0 007.039 7.96zm-13.677 8.92v-7.72h14.037v7.72h-14.041zm5.119-20.76c-2.04 5.12-9.718 11.96-16.717 15.24l.28.56a46.069 46.069 0 008.2-3.8v12.72h.44c1.32 0 2.68-.72 2.68-1v-1.76h14.037v2.52h.52a4.253 4.253 0 002.64-.96v-10.08a3.266 3.266 0 001.4-.64 37.492 37.492 0 004.439 2.12 3.8 3.8 0 012.719-2.76l.041-.64c-6.559-1.76-13.518-5.2-17.078-9.48 1.04-.12 1.52-.32 1.68-.8z" transform="translate(-552 -2547)" fill="#dc476a"/></g><g id="グループ_20" data-name="グループ 20"><text id="ビタミンA" class="cls-5" x="209.925" y="259.119">ビタミンA</text><text id="コラーゲン" class="cls-5" x="119.925" y="366.117">コラーゲン</text><text id="ビタミンB2" class="cls-5" x="117.924" y="473.115">ビタミンB2</text><text id="ビタミンE" class="cls-5" x="195.924" y="579.12">ビタミンE</text></g></g><g id="health.svg"><g id="グループ_21" data-name="グループ 21"><path id="楕円形_3_のコピー" data-name="楕円形 3 のコピー" d="M959.989 3363c225.331 0 408-182.67 408-408s-182.67-408-408-408" transform="translate(-552 -2547)" fill="#5db6c3" fill-rule="evenodd"/><path id="楕円形_3_のコピー-2" data-name="楕円形 3 のコピー" d="M959.991 3305c193.309 0 350.019-156.93 350.019-350.5S1153.3 2604 959.991 2604" transform="translate(-552 -2547)" fill="#e4fcfc" fill-rule="evenodd"/><path id="楕円形_3_のコピー_3" data-name="楕円形 3 のコピー 3" d="M408.006 303.01a105 105 0 110 210" stroke="#4774dc" fill="#fff" stroke-width="2" fill-rule="evenodd"/><path id="健康" class="cls-9" d="M986.559 2925.2a70.212 70.212 0 003.039-8.44 1.357 1.357 0 001.52-.84l-4.559-1.36a77.827 77.827 0 01-6.479 20l.6.36a37.235 37.235 0 003.6-5.2v21.64h.56a3.574 3.574 0 002.4-.92v-23.84a1.391 1.391 0 001.239-.72zm20.161 4.56v-4.4h4.03v4.4h-4.03zm0-9.84h4.03v4.28h-4.03v-4.28zm4.47 12.08a3.777 3.777 0 002.36-.88v-5.76h3.64a.957.957 0 001.04-.64c-1.08-1.16-2.84-2.8-2.84-2.8l-1.56 2.28h-.28v-3.72a3.619 3.619 0 001.72-.8l-3.36-2.56-1.56 1.64h-3.63v-2.16c1.04-.16 1.36-.56 1.44-1.12l-4.44-.48v3.76h-4.883l.36 1.16h4.523v4.28h-7.243l.32 1.16h6.923v4.4h-5l.2.6-2.84-2.48-1.72 1.8h-1.839c1.519-3.4 3.119-7.28 4.039-9.64a3.234 3.234 0 001.88-.6l-3.28-2.76-1.56 1.64h-4l.36 1.16h3.64c-1.279 3.52-3.359 8.6-5.159 12.56a4.187 4.187 0 002.88.28l.68-1.52h2.679a47.586 47.586 0 01-1.8 11 23.848 23.848 0 01-3.08-7.2l-.56.24a30.479 30.479 0 003 8.76 19.662 19.662 0 01-4.679 7.24l.439.56a20.17 20.17 0 005.56-5.84c3.2 4 7.882 5.04 14.722 5.04h7.51a2.6 2.6 0 011.84-2.64v-.52c-2.32.04-7 .04-9.08.04-6.35 0-10.793-.72-13.993-3.72a36.091 36.091 0 003.16-12.56 2.3 2.3 0 001.32-.44l.04.12h4.643v4.04H998l.32 1.16h5.4v4.28h-7.043l.32 1.2h6.723v4.96h.56c1.12 0 2.44-.64 2.44-1.04v-3.92h9.15a.9.9 0 001.04-.64c-1.32-1.28-3.52-2.96-3.52-2.96l-1.88 2.4h-4.79v-4.28h7.51a.9.9 0 001.04-.64c-1.28-1.2-3.36-2.84-3.36-2.84l-1.84 2.32h-3.35v-4.04h4.03v1.12h.44zm-8.79 42.52h6.47v3.84h-6.47v-3.84zm0-4.8h6.47v3.68h-6.47v-3.68zm6.47 9.8v1.92h.48a5.333 5.333 0 002.44-.8 53.975 53.975 0 01-4.91 5.6 17.383 17.383 0 01-4.32-6.72h6.31zm3.12.92v-5.92h4.6a.954.954 0 001-.6c-1.08-1.24-3.04-3.04-3.04-3.04l-1.68 2.52h-.88v-3.2a2.691 2.691 0 001.52-.72l-3.44-2.64-1.56 1.72h-6.11v-2.28c.96-.16 1.36-.52 1.44-1.12l-4.6-.48v3.88H990l.36 1.16h8.879v3.68h-11.8v-8.92h28.951a.93.93 0 001.04-.64c-1.4-1.36-3.8-3.24-3.8-3.24l-2.08 2.72h-10.11V2960c1.04-.12 1.4-.52 1.48-1.08l-4.6-.48v4.88H988l-3.679-1.56v11.68c0 7.12-.28 14.88-3.719 21.12l.56.36c5.639-5.72 6.239-13.92 6.279-20.4h11.8v3.84h-9.559l.36 1.16h9.2v6.08c-5.48 2.32-10.839 4.44-13.2 5.24l2.6 3.32a1.307 1.307 0 00.64-1.08c4.36-2.76 7.6-5.04 9.959-6.68v4.72c0 .6-.2.8-.92.8-.8 0-4.8-.28-4.8-.28v.6a6.993 6.993 0 013.36 1.08 3.459 3.459 0 01.88 2.16c4.123-.4 4.643-1.76 4.643-4.16v-9.6c2.16 6.72 5.96 10.76 12.83 12.8a3.437 3.437 0 012.4-2.8v-.44a19.856 19.856 0 01-10.07-4.4 45.089 45.089 0 006.43-3.88 1.174 1.174 0 001.52-.32zm-22.712.64a12.1 12.1 0 013.92 5.12c2.919 1.84 4.959-3.92-3.52-5.44z" transform="translate(-552 -2547)"/></g><g id="グループ_22" data-name="グループ 22"><path id="ビタミンA-2" data-name="ビタミンA" class="cls-9" d="M1034.44 2743.11a1.438 1.438 0 00.26-1.09 1.36 1.36 0 00-.56-.99 1.459 1.459 0 00-1.11-.25q-3.645.57-6.09.72a17.951 17.951 0 01-3.91-.12 4.754 4.754 0 01-2.22-.89 3.285 3.285 0 01-.91-1.46 9.371 9.371 0 01-.31-2.83v-2.46c1.99-.47 4.02-1 6.11-1.59s4.08-1.2 5.96-1.84a1.41 1.41 0 00.84-.78 1.455 1.455 0 00.02-1.14 1.479 1.479 0 00-.78-.83 1.415 1.415 0 00-1.14-.03q-2.4.9-5.33 1.77t-5.68 1.56v-7.68a1.388 1.388 0 00-.43-1.04 1.429 1.429 0 00-1.04-.44 1.474 1.474 0 00-1.06.44 1.361 1.361 0 00-.44 1.04v13.02a14.634 14.634 0 00.46 3.79 5.455 5.455 0 001.74 2.83 6.615 6.615 0 002.98 1.4 18.236 18.236 0 004.66.25c1.88-.09 4.22-.36 7.02-.78a1.469 1.469 0 00.96-.58zm2.74-15.31a1.012 1.012 0 00-.31-.85c-.32-.34-.7-.72-1.15-1.13s-.82-.75-1.12-.98a1.449 1.449 0 00-.82-.3 1 1 0 00-.78.33.956.956 0 00-.29.75 1.036 1.036 0 00.35.72c.37.32.73.68 1.09 1.06s.69.76.99 1.12a1.234 1.234 0 00.8.4 1.073 1.073 0 00.84-.27 1.439 1.439 0 00.4-.85zm2.57-2.72a1.088 1.088 0 00-.35-.82q-.48-.48-1.17-1.08a10.587 10.587 0 00-1.17-.93 1.508 1.508 0 00-.81-.27.99.99 0 00-.79.36.844.844 0 00-.25.76 1.212 1.212 0 00.38.72 22.473 22.473 0 012.18 2.08 1.1 1.1 0 00.81.36 1.024 1.024 0 00.82-.33 1.187 1.187 0 00.35-.85zm15.35 17.34a36.15 36.15 0 005.55-4.78c.4.41.79.81 1.17 1.22s.7.77 1 1.12a1.655 1.655 0 001.04.56 1.513 1.513 0 001.14-.31 1.54 1.54 0 00.22-2.21c-.34-.42-.73-.87-1.16-1.32s-.91-.94-1.4-1.43c.62-.79 1.19-1.6 1.72-2.43a25.077 25.077 0 001.39-2.53q1.44-2.97.46-4.8t-4.46-1.82h-3.23c.12-.24.25-.46.36-.67s.22-.43.31-.64a1.463 1.463 0 00.03-1.16 1.38 1.38 0 00-.77-.8 1.365 1.365 0 00-1.12-.03 1.5 1.5 0 00-.83.77 21.747 21.747 0 01-2.19 3.74 27.461 27.461 0 01-3.11 3.6 29 29 0 01-3.72 3.12 1.272 1.272 0 00-.61.93 1.483 1.483 0 00.25 1.12 1.379 1.379 0 00.95.61 1.579 1.579 0 001.1-.22 25.526 25.526 0 002.5-2.05c.87-.81 1.74-1.69 2.59-2.63s1.63-1.87 2.34-2.81h5.15a1.648 1.648 0 011.61.61 2.138 2.138 0 01-.27 1.82c-.36.77-.76 1.5-1.18 2.21s-.89 1.39-1.38 2.08q-.825-.735-1.65-1.44c-.54-.47-1.05-.91-1.52-1.31a1.375 1.375 0 00-1.08-.31 1.515 1.515 0 00-1 .56 1.379 1.379 0 00-.32 1.06 1.574 1.574 0 00.55 1.02 18.227 18.227 0 011.42 1.22c.52.49 1.08 1.01 1.68 1.57a30.9 30.9 0 01-4.97 4.27 36.061 36.061 0 01-6.32 3.44 1.421 1.421 0 00-.8.83 1.366 1.366 0 00.03 1.12 1.411 1.411 0 00.81.78 1.548 1.548 0 001.14-.01 37.131 37.131 0 006.58-3.67zm40.62 3.68a1.53 1.53 0 00.99-.52 1.467 1.467 0 00.32-1.11 1.436 1.436 0 00-.54-1.01q-1.575-1.215-3.7-2.56c-1.42-.89-2.88-1.76-4.38-2.59s-2.92-1.54-4.24-2.14a1.44 1.44 0 00-1.15-.03 1.467 1.467 0 00-.84.76 1.6 1.6 0 00-.01 1.16 1.429 1.429 0 00.75.83c1.24.53 2.57 1.18 4 1.95s2.82 1.58 4.18 2.45a38.5 38.5 0 013.53 2.51 1.344 1.344 0 001.09.3zm-2.77-10.89a1.374 1.374 0 00.91-.64 1.45 1.45 0 00-.41-2.05c-.51-.32-1.18-.69-1.99-1.12s-1.68-.86-2.6-1.31-1.84-.87-2.72-1.27-1.66-.71-2.32-.94a1.383 1.383 0 00-1.14.1 1.365 1.365 0 00-.72.86 1.475 1.475 0 00.08 1.15 1.418 1.418 0 00.85.74c.55.17 1.23.43 2.05.78s1.65.74 2.52 1.15 1.71.84 2.48 1.25 1.41.79 1.88 1.11a1.559 1.559 0 001.13.19zm1.99-6.88a1.45 1.45 0 00.94-.58 1.533 1.533 0 00.26-1.12 1.433 1.433 0 00-.61-.96c-.47-.32-1.11-.71-1.91-1.17s-1.66-.92-2.59-1.4-1.83-.93-2.7-1.35-1.62-.74-2.24-.97a1.259 1.259 0 00-1.12.01 1.53 1.53 0 00-.77.85 1.366 1.366 0 00.03 1.12 1.5 1.5 0 00.83.77c.58.21 1.26.5 2.05.86s1.61.76 2.45 1.2 1.64.87 2.4 1.3a17.341 17.341 0 011.87 1.18 1.474 1.474 0 001.11.26zm23.77 12.83a60.161 60.161 0 005.49-3.22 55.988 55.988 0 004.83-3.53 26.048 26.048 0 003.46-3.36 1.474 1.474 0 00.32-1.09 1.422 1.422 0 00-.55-.99 1.478 1.478 0 00-1.08-.34 1.369 1.369 0 00-1 .53 24.655 24.655 0 01-3.28 3.26 40.7 40.7 0 01-4.38 3.22 56.281 56.281 0 01-5.04 2.88 47.757 47.757 0 01-5.25 2.29 1.548 1.548 0 00-.85.78 1.376 1.376 0 00-.04 1.14 1.445 1.445 0 00.76.83 1.367 1.367 0 001.12.03 45.806 45.806 0 005.49-2.43zm-1.12-9.66a1.466 1.466 0 00.98-.58 1.419 1.419 0 00.3-1.09 1.476 1.476 0 00-.56-.99c-.43-.34-.99-.77-1.69-1.3s-1.43-1.04-2.16-1.56-1.38-.96-1.91-1.3a1.3 1.3 0 00-1.12-.19 1.488 1.488 0 00-.93.7 1.388 1.388 0 00-.16 1.11 1.518 1.518 0 00.68.91c.53.32 1.12.7 1.77 1.15s1.3.92 1.95 1.41 1.24.96 1.75 1.41a1.343 1.343 0 001.1.32zm21.91 13.66a1.511 1.511 0 001.56-1.12l1.76-4.61h9.25l1.73 4.61a1.542 1.542 0 001.6 1.12h.48a1.048 1.048 0 00.99-.43 1.386 1.386 0 000-1.17l-7.68-19.71a1.57 1.57 0 00-1.6-1.09h-.22a1.562 1.562 0 00-1.6 1.09l-7.68 19.71a1.345 1.345 0 00.01 1.17 1.061 1.061 0 00.98.43h.42zm8-18.21l3.58 9.73h-7.26z" transform="translate(-552 -2547)"/><path id="ビタミンB1" class="cls-9" d="M1074.44 2819.11a1.438 1.438 0 00.26-1.09 1.36 1.36 0 00-.56-.99 1.459 1.459 0 00-1.11-.25q-3.645.57-6.09.72a17.951 17.951 0 01-3.91-.12 4.754 4.754 0 01-2.22-.89 3.23 3.23 0 01-.91-1.46 9.371 9.371 0 01-.31-2.83v-2.46c1.99-.47 4.02-1 6.11-1.59s4.08-1.2 5.96-1.84a1.41 1.41 0 00.84-.78 1.455 1.455 0 00.02-1.14 1.479 1.479 0 00-.78-.83 1.415 1.415 0 00-1.14-.03c-1.6.59-3.38 1.19-5.33 1.77s-3.84 1.11-5.68 1.56v-7.68a1.388 1.388 0 00-.43-1.04 1.429 1.429 0 00-1.04-.44 1.474 1.474 0 00-1.06.44 1.361 1.361 0 00-.44 1.04v13.02a14.634 14.634 0 00.46 3.79 5.455 5.455 0 001.74 2.83 6.615 6.615 0 002.98 1.4 18.236 18.236 0 004.66.25c1.88-.09 4.22-.36 7.02-.78a1.469 1.469 0 00.96-.58zm2.74-15.31a1.012 1.012 0 00-.31-.85c-.32-.34-.7-.72-1.15-1.13s-.82-.75-1.12-.98a1.449 1.449 0 00-.82-.3 1.038 1.038 0 00-.78.33.956.956 0 00-.29.75 1.036 1.036 0 00.35.72c.37.32.73.68 1.09 1.06s.69.76.99 1.12a1.234 1.234 0 00.8.4 1.073 1.073 0 00.84-.27 1.439 1.439 0 00.4-.85zm2.57-2.72a1.088 1.088 0 00-.35-.82q-.48-.48-1.17-1.08a10.587 10.587 0 00-1.17-.93 1.508 1.508 0 00-.81-.27 1.022 1.022 0 00-.79.36.844.844 0 00-.25.76 1.212 1.212 0 00.38.72 22.473 22.473 0 012.18 2.08 1.1 1.1 0 00.81.36 1.024 1.024 0 00.82-.33 1.187 1.187 0 00.35-.85zm15.35 17.34a36.15 36.15 0 005.55-4.78c.4.41.79.81 1.17 1.22s.7.77 1 1.12a1.655 1.655 0 001.04.56 1.513 1.513 0 001.14-.31 1.54 1.54 0 00.22-2.21c-.34-.42-.73-.87-1.16-1.32s-.91-.94-1.4-1.43c.62-.79 1.19-1.6 1.72-2.43a25.077 25.077 0 001.39-2.53q1.44-2.97.46-4.8t-4.46-1.82h-3.23c.12-.24.25-.46.36-.67s.22-.43.31-.64a1.463 1.463 0 00.03-1.16 1.38 1.38 0 00-.77-.8 1.365 1.365 0 00-1.12-.03 1.5 1.5 0 00-.83.77 21.747 21.747 0 01-2.19 3.74 27.461 27.461 0 01-3.11 3.6 29.845 29.845 0 01-3.72 3.12 1.272 1.272 0 00-.61.93 1.483 1.483 0 00.25 1.12 1.379 1.379 0 00.95.61 1.579 1.579 0 001.1-.22 25.526 25.526 0 002.5-2.05c.87-.81 1.74-1.69 2.59-2.63s1.63-1.87 2.34-2.81h5.15a1.648 1.648 0 011.61.61 2.138 2.138 0 01-.27 1.82c-.36.77-.76 1.5-1.18 2.21s-.89 1.4-1.38 2.08q-.825-.735-1.65-1.44c-.54-.47-1.05-.91-1.52-1.31a1.375 1.375 0 00-1.08-.31 1.515 1.515 0 00-1 .56 1.379 1.379 0 00-.32 1.06 1.574 1.574 0 00.55 1.02 18.227 18.227 0 011.42 1.22c.52.49 1.08 1.01 1.68 1.57a30.9 30.9 0 01-4.97 4.27 36.729 36.729 0 01-6.32 3.44 1.421 1.421 0 00-.8.83 1.366 1.366 0 00.03 1.12 1.411 1.411 0 00.81.78 1.548 1.548 0 001.14-.01 37.773 37.773 0 006.58-3.67zm40.62 3.68a1.53 1.53 0 00.99-.52 1.467 1.467 0 00.32-1.11 1.436 1.436 0 00-.54-1.01q-1.575-1.215-3.7-2.56c-1.42-.89-2.88-1.76-4.38-2.59s-2.92-1.55-4.24-2.14a1.536 1.536 0 00-1.99.73 1.6 1.6 0 00-.01 1.16 1.429 1.429 0 00.75.83c1.24.53 2.57 1.18 4 1.95s2.82 1.58 4.18 2.45a38.5 38.5 0 013.53 2.51 1.344 1.344 0 001.09.3zm-2.77-10.89a1.374 1.374 0 00.91-.64 1.45 1.45 0 00-.41-2.05c-.51-.32-1.18-.69-1.99-1.12s-1.68-.86-2.6-1.31-1.84-.87-2.72-1.27-1.66-.71-2.32-.94a1.383 1.383 0 00-1.14.1 1.365 1.365 0 00-.72.86 1.475 1.475 0 00.08 1.15 1.418 1.418 0 00.85.74c.55.17 1.23.43 2.05.78s1.65.74 2.52 1.15 1.7.84 2.48 1.25 1.41.79 1.88 1.11a1.559 1.559 0 001.13.19zm1.99-6.88a1.45 1.45 0 00.94-.58 1.533 1.533 0 00.26-1.12 1.433 1.433 0 00-.61-.96c-.47-.32-1.11-.71-1.91-1.17s-1.66-.92-2.59-1.4-1.83-.93-2.7-1.35-1.62-.74-2.24-.97a1.259 1.259 0 00-1.12.01 1.53 1.53 0 00-.77.85 1.366 1.366 0 00.03 1.12 1.5 1.5 0 00.83.77c.58.21 1.26.5 2.05.86s1.61.76 2.45 1.2 1.64.87 2.4 1.3a17.341 17.341 0 011.87 1.18 1.474 1.474 0 001.11.26zm23.77 12.83a60.161 60.161 0 005.49-3.22 55.988 55.988 0 004.83-3.53 26.048 26.048 0 003.46-3.36 1.474 1.474 0 00.32-1.09 1.422 1.422 0 00-.55-.99 1.478 1.478 0 00-1.08-.34 1.369 1.369 0 00-1 .53 24.655 24.655 0 01-3.28 3.26 40.7 40.7 0 01-4.38 3.22q-2.415 1.545-5.04 2.88a47.757 47.757 0 01-5.25 2.29 1.548 1.548 0 00-.85.78 1.376 1.376 0 00-.04 1.14 1.445 1.445 0 00.76.83 1.367 1.367 0 001.12.03 45.806 45.806 0 005.49-2.43zm-1.12-9.66a1.466 1.466 0 00.98-.58 1.419 1.419 0 00.3-1.09 1.476 1.476 0 00-.56-.99c-.43-.34-.99-.77-1.69-1.3s-1.43-1.04-2.16-1.56-1.38-.96-1.91-1.3a1.3 1.3 0 00-1.12-.19 1.488 1.488 0 00-.93.7 1.388 1.388 0 00-.16 1.11 1.518 1.518 0 00.68.91c.53.32 1.12.7 1.77 1.15s1.3.92 1.95 1.41 1.24.96 1.75 1.41a1.343 1.343 0 001.1.32zm31.15 13.66a7.814 7.814 0 005.17-1.5 5.586 5.586 0 001.78-4.52 6.163 6.163 0 00-1.17-3.76 5.07 5.07 0 00-2.99-2 4.585 4.585 0 002.27-1.79 5.5 5.5 0 00.86-3.17 5.255 5.255 0 00-1.68-4.2 6.822 6.822 0 00-4.65-1.46h-7.49a1.233 1.233 0 00-1.38 1.41v19.58a1.233 1.233 0 001.38 1.41h7.9zm-6.36-10.14h5.98a4.529 4.529 0 013.01.99 3.424 3.424 0 011.18 2.78 3.489 3.489 0 01-.99 2.74 4.745 4.745 0 01-3.17.88h-6.01v-7.39zm0-9.51h5.44q3.675 0 3.68 3.33a3.371 3.371 0 01-.9 2.46 3.434 3.434 0 01-2.59.93h-5.63v-6.72zm23.48 18.11v-19.39q0-1.53-1.08-1.53a3.441 3.441 0 00-1.86.54l-4.16 2.56a1.254 1.254 0 00-.54 1.98c.44.79 1.1.9 1.98.32l2.94-1.85v17.37a1.294 1.294 0 001.38 1.54 1.276 1.276 0 001.34-1.54z" transform="translate(-552 -2547)"/><path id="ビタミンD" class="cls-9" d="M1104.44 2895.11a1.438 1.438 0 00.26-1.09 1.36 1.36 0 00-.56-.99 1.459 1.459 0 00-1.11-.25q-3.645.57-6.09.72a17.951 17.951 0 01-3.91-.12 4.754 4.754 0 01-2.22-.89 3.23 3.23 0 01-.91-1.46 9.371 9.371 0 01-.31-2.83v-2.46c1.99-.47 4.02-1 6.11-1.59s4.08-1.2 5.96-1.84a1.41 1.41 0 00.84-.78 1.455 1.455 0 00.02-1.14 1.479 1.479 0 00-.78-.83 1.415 1.415 0 00-1.14-.03q-2.4.9-5.33 1.77t-5.68 1.56v-7.68a1.388 1.388 0 00-.43-1.04 1.429 1.429 0 00-1.04-.44 1.474 1.474 0 00-1.06.44 1.361 1.361 0 00-.44 1.04v13.02a14.689 14.689 0 00.46 3.79 5.455 5.455 0 001.74 2.83 6.615 6.615 0 002.98 1.4 18.236 18.236 0 004.66.25c1.88-.09 4.22-.36 7.02-.78a1.469 1.469 0 00.96-.58zm2.74-15.31a1.012 1.012 0 00-.31-.85c-.32-.34-.7-.72-1.15-1.13s-.82-.75-1.12-.98a1.449 1.449 0 00-.82-.3 1.038 1.038 0 00-.78.33.956.956 0 00-.29.75 1.036 1.036 0 00.35.72c.37.32.73.68 1.09 1.06s.69.76.99 1.12a1.234 1.234 0 00.8.4 1.073 1.073 0 00.84-.27 1.439 1.439 0 00.4-.85zm2.57-2.72a1.088 1.088 0 00-.35-.82q-.48-.48-1.17-1.08a10.587 10.587 0 00-1.17-.93 1.508 1.508 0 00-.81-.27 1.022 1.022 0 00-.79.36.844.844 0 00-.25.76 1.212 1.212 0 00.38.72 22.473 22.473 0 012.18 2.08 1.1 1.1 0 00.81.36 1.024 1.024 0 00.82-.33 1.187 1.187 0 00.35-.85zm15.35 17.34a36.15 36.15 0 005.55-4.78c.4.41.79.81 1.17 1.22s.7.77 1 1.12a1.655 1.655 0 001.04.56 1.513 1.513 0 001.14-.31 1.54 1.54 0 00.22-2.21c-.34-.42-.73-.87-1.16-1.32s-.91-.94-1.4-1.43c.62-.79 1.19-1.6 1.72-2.43a25.077 25.077 0 001.39-2.53q1.44-2.97.46-4.8t-4.46-1.82h-3.23c.12-.24.25-.46.36-.67s.22-.43.31-.64a1.463 1.463 0 00.03-1.16 1.38 1.38 0 00-.77-.8 1.365 1.365 0 00-1.12-.03 1.5 1.5 0 00-.83.77 22.131 22.131 0 01-2.19 3.74 27.461 27.461 0 01-3.11 3.6 29 29 0 01-3.72 3.12 1.272 1.272 0 00-.61.93 1.483 1.483 0 00.25 1.12 1.379 1.379 0 00.95.61 1.579 1.579 0 001.1-.22 25.526 25.526 0 002.5-2.05c.87-.81 1.74-1.69 2.59-2.63s1.63-1.87 2.34-2.81h5.15a1.648 1.648 0 011.61.61 2.138 2.138 0 01-.27 1.82c-.36.77-.76 1.5-1.18 2.21s-.89 1.4-1.38 2.08q-.825-.735-1.65-1.44c-.54-.47-1.05-.91-1.52-1.31a1.375 1.375 0 00-1.08-.31 1.515 1.515 0 00-1 .56 1.379 1.379 0 00-.32 1.06 1.574 1.574 0 00.55 1.02 18.227 18.227 0 011.42 1.22c.52.49 1.08 1.01 1.68 1.57a30.9 30.9 0 01-4.97 4.27 36.729 36.729 0 01-6.32 3.44 1.421 1.421 0 00-.8.83 1.366 1.366 0 00.03 1.12 1.411 1.411 0 00.81.78 1.548 1.548 0 001.14-.01 37.131 37.131 0 006.58-3.67zm40.62 3.68a1.53 1.53 0 00.99-.52 1.467 1.467 0 00.32-1.11 1.436 1.436 0 00-.54-1.01q-1.575-1.215-3.7-2.56c-1.42-.89-2.88-1.76-4.38-2.59s-2.92-1.54-4.24-2.14a1.44 1.44 0 00-1.15-.03 1.467 1.467 0 00-.84.76 1.6 1.6 0 00-.01 1.16 1.429 1.429 0 00.75.83c1.24.53 2.57 1.18 4 1.95s2.82 1.58 4.18 2.45a38.5 38.5 0 013.53 2.51 1.344 1.344 0 001.09.3zm-2.77-10.89a1.374 1.374 0 00.91-.64 1.45 1.45 0 00-.41-2.05c-.51-.32-1.18-.69-1.99-1.12s-1.68-.86-2.6-1.31-1.84-.87-2.72-1.27-1.66-.71-2.32-.94a1.383 1.383 0 00-1.14.1 1.365 1.365 0 00-.72.86 1.478 1.478 0 00.08 1.15 1.418 1.418 0 00.85.74c.55.17 1.23.43 2.05.78s1.65.74 2.52 1.15 1.7.84 2.48 1.25 1.41.79 1.88 1.11a1.559 1.559 0 001.13.19zm1.99-6.88a1.45 1.45 0 00.94-.58 1.533 1.533 0 00.26-1.12 1.433 1.433 0 00-.61-.96c-.47-.32-1.11-.71-1.91-1.17s-1.66-.92-2.59-1.4-1.83-.93-2.7-1.35-1.62-.74-2.24-.97a1.228 1.228 0 00-1.12.01 1.53 1.53 0 00-.77.85 1.366 1.366 0 00.03 1.12 1.5 1.5 0 00.83.77c.58.21 1.26.5 2.05.86s1.61.76 2.45 1.2 1.64.87 2.4 1.3a17.341 17.341 0 011.87 1.18 1.474 1.474 0 001.11.26zm23.77 12.83a60.161 60.161 0 005.49-3.22 55.988 55.988 0 004.83-3.53 26.048 26.048 0 003.46-3.36 1.474 1.474 0 00.32-1.09 1.422 1.422 0 00-.55-.99 1.478 1.478 0 00-1.08-.34 1.369 1.369 0 00-1 .53 24.655 24.655 0 01-3.28 3.26 40.7 40.7 0 01-4.38 3.22q-2.415 1.545-5.04 2.88a49.744 49.744 0 01-5.25 2.29 1.548 1.548 0 00-.85.78 1.376 1.376 0 00-.04 1.14 1.445 1.445 0 00.76.83 1.367 1.367 0 001.12.03 45.806 45.806 0 005.49-2.43zm-1.12-9.66a1.466 1.466 0 00.98-.58 1.419 1.419 0 00.3-1.09 1.476 1.476 0 00-.56-.99c-.43-.34-.99-.77-1.69-1.3s-1.43-1.04-2.16-1.56-1.38-.96-1.91-1.3a1.273 1.273 0 00-1.12-.19 1.488 1.488 0 00-.93.7 1.388 1.388 0 00-.16 1.11 1.518 1.518 0 00.68.91c.53.32 1.12.7 1.77 1.15s1.3.92 1.95 1.41 1.24.96 1.75 1.41a1.343 1.343 0 001.1.32zm28.75 13.66a11.809 11.809 0 005.94-1.38 8.955 8.955 0 003.68-3.9 14.584 14.584 0 000-11.86 9.015 9.015 0 00-3.68-3.88 11.809 11.809 0 00-5.94-1.38h-5.37a1.345 1.345 0 00-1.51 1.54v19.32a1.345 1.345 0 001.51 1.54h5.37zm-3.96-19.65h3.77a8.6 8.6 0 014.47 1.07 6.889 6.889 0 012.67 2.96 11.371 11.371 0 010 8.82 6.829 6.829 0 01-2.67 2.98 8.6 8.6 0 01-4.47 1.07h-3.77v-16.9z" transform="translate(-552 -2547)"/><path id="カルシウム" class="cls-9" d="M1125.98 2974.28a1.5 1.5 0 001.02-.45 30.629 30.629 0 004.86-7.33 43.731 43.731 0 003.27-9.21l2.08-.1a7.032 7.032 0 013.21.37 2.3 2.3 0 011.28 1.92 13.729 13.729 0 01-.27 4.11 18.877 18.877 0 01-1.07 4 5.493 5.493 0 01-1.44 2.13 3.268 3.268 0 01-1.78.75 7.828 7.828 0 01-2.08-.09 1.435 1.435 0 00-1.1.25 1.408 1.408 0 00-.59.96 1.3 1.3 0 00.24 1.11 1.465 1.465 0 00.97.59 9.373 9.373 0 004.47-.24 6.218 6.218 0 003.26-2.8 17.687 17.687 0 002.03-6.18 15.787 15.787 0 00.16-5.71 4.468 4.468 0 00-2.22-3.18 9.8 9.8 0 00-5.17-.84l-1.41.04c.13-.88.24-1.75.34-2.61s.15-1.74.18-2.61a1.372 1.372 0 00-.39-1.07 1.522 1.522 0 00-1.02-.47 1.391 1.391 0 00-1.06.39 1.448 1.448 0 00-.48 1.02c-.04.94-.11 1.87-.19 2.79s-.21 1.81-.38 2.68l-6.72.29a1.452 1.452 0 00-1.03.48 1.509 1.509 0 00.1 2.11 1.382 1.382 0 001.05.39l6.02-.32a36.825 36.825 0 01-2.86 7.92 27.722 27.722 0 01-4.44 6.45 1.4 1.4 0 00-.38 1.05 1.452 1.452 0 00.48 1.03 1.421 1.421 0 001.06.38zm52.24-7.02a49.2 49.2 0 003.31-1.59 1.412 1.412 0 00.72-.88 1.486 1.486 0 00-.08-1.1 1.5 1.5 0 00-.88-.74 1.415 1.415 0 00-1.14.1c-.85.45-1.85.93-3.01 1.44s-2.31.98-3.48 1.41c-1.54.57-2.67.69-3.4.35a2.192 2.192 0 01-1.08-2.21v-9.82a1.49 1.49 0 10-2.98 0v9.82a6.106 6.106 0 001.09 3.97 4.1 4.1 0 003.02 1.44 10.962 10.962 0 004.4-.77c1.13-.43 2.3-.9 3.51-1.42zm-19.41-.05a14.971 14.971 0 003.1-5.03 17.413 17.413 0 001.09-6.24 1.42 1.42 0 00-.43-1.04 1.46 1.46 0 00-1.04-.43 1.506 1.506 0 00-1.06.43 1.4 1.4 0 00-.45 1.04 17.216 17.216 0 01-.64 4.71 11.068 11.068 0 01-2.2 4.14 11.859 11.859 0 01-4.39 3.12 1.38 1.38 0 00-.77.8 1.526 1.526 0 000 1.15 1.451 1.451 0 00.84.77 1.367 1.367 0 001.12-.03 14.842 14.842 0 004.83-3.39zm37.52 2.88a50.085 50.085 0 005.55-3.52 44.813 44.813 0 004.96-4.18 28.841 28.841 0 003.68-4.3 1.487 1.487 0 00.24-1.12 1.334 1.334 0 00-.62-.93 1.39 1.39 0 00-1.11-.24 1.407 1.407 0 00-.94.62 28.01 28.01 0 01-3.46 4.08 37.108 37.108 0 01-4.49 3.81 40.809 40.809 0 01-5.06 3.15 31.374 31.374 0 01-5.1 2.18 1.451 1.451 0 00-.87.74 1.37 1.37 0 00-.09 1.12 1.444 1.444 0 00.73.86 1.415 1.415 0 001.12.1 32.266 32.266 0 005.46-2.37zm-2.69-7.57a1.4 1.4 0 00.98-.5 1.432 1.432 0 00.36-1.1 1.361 1.361 0 00-.52-1.01c-.39-.3-.9-.65-1.54-1.05s-1.3-.8-1.98-1.19-1.28-.69-1.8-.93a1.513 1.513 0 00-1.98.68 1.523 1.523 0 00-.08 1.13 1.3 1.3 0 00.75.85c.39.17.89.43 1.51.78s1.22.72 1.82 1.09a13.5 13.5 0 011.38.95 1.675 1.675 0 001.1.3zm3.41-5.54a1.389 1.389 0 001.02-.46 1.426 1.426 0 00-.06-2.08 14.457 14.457 0 00-1.49-1.17c-.63-.44-1.27-.86-1.92-1.28s-1.22-.75-1.71-1.01a1.468 1.468 0 00-1.11-.14 1.435 1.435 0 00-.91.69 1.431 1.431 0 00.55 2.01c.38.2.87.48 1.47.87s1.19.77 1.77 1.17a11.572 11.572 0 011.33 1 1.438 1.438 0 001.06.4zm37.17 13.62a19.171 19.171 0 004.11-4.48 17.106 17.106 0 002.11-4.64 19.5 19.5 0 00.69-3.47 3.664 3.664 0 00-.82-2.61 4.96 4.96 0 00-2.73-1.71 21.552 21.552 0 00-5.04-.56v-4.03a1.468 1.468 0 00-1.48-1.48 1.49 1.49 0 00-1.05.42 1.383 1.383 0 00-.45 1.06v4.03a32.991 32.991 0 00-3.7.22 8.941 8.941 0 00-2.43.61 4.69 4.69 0 00-1.61 1.15 3.94 3.94 0 00-1.06 2.75 25.867 25.867 0 00.42 4.42 1.386 1.386 0 00.59.96 1.483 1.483 0 001.1.26 1.412 1.412 0 00.96-.6 1.43 1.43 0 00.26-1.1 20.48 20.48 0 01-.34-3.23 2.286 2.286 0 01.37-1.44 2.223 2.223 0 011.1-.71 9 9 0 012.07-.3c.89-.05 2.09-.08 3.58-.08a33.179 33.179 0 014.66.26 3.2 3.2 0 012.22.99 1.915 1.915 0 01.26 1.26 12.458 12.458 0 01-.42 2.13 13.834 13.834 0 01-1.82 3.97 16.016 16.016 0 01-3.52 3.71 25.779 25.779 0 01-5.79 3.26 1.352 1.352 0 00-.77.8 1.464 1.464 0 00.81 1.92 1.5 1.5 0 001.14 0 26.139 26.139 0 006.58-3.74zm40.65-.02a1.223 1.223 0 00-.13-1.1 25.423 25.423 0 00-1.48-2.24c-.66-.9-1.37-1.83-2.15-2.82s-1.52-1.89-2.24-2.75-1.32-1.53-1.81-2.05a1.373 1.373 0 00-1.02-.46 1.438 1.438 0 00-1.06.4 1.4 1.4 0 00-.46 1.04 1.445 1.445 0 00.4 1.07c.43.43.91.95 1.46 1.55s1.08 1.26 1.61 1.94c-1.49.21-3.16.42-4.99.62s-3.64.39-5.41.56q1.32-1.98 2.61-4.25c.86-1.52 1.66-3.01 2.38-4.47s1.34-2.79 1.83-3.98a1.338 1.338 0 000-1.14 1.479 1.479 0 00-.83-.78 1.338 1.338 0 00-1.14 0 1.447 1.447 0 00-.78.83c-.39.96-.87 2.06-1.44 3.28s-1.21 2.49-1.89 3.79-1.39 2.56-2.13 3.78-1.46 2.3-2.16 3.26c-.47.05-.92.08-1.34.12s-.83.06-1.19.11a1.408 1.408 0 00-1.01.48 1.448 1.448 0 00-.36 1.09 1.344 1.344 0 00.49 1 1.465 1.465 0 001.07.37 268.163 268.163 0 009.16-.94c1.67-.2 3.28-.42 4.84-.64s2.97-.44 4.21-.66c.49.66.93 1.28 1.33 1.86s.7 1.05.91 1.44a1.513 1.513 0 00.88.7 1.34 1.34 0 001.11-.09 1.629 1.629 0 00.73-.92z" transform="translate(-552 -2547)"/><path id="DHA_EPA" data-name="DHA・EPA" class="cls-9" d="M1088.34 3047.16a11.809 11.809 0 005.94-1.38 9.009 9.009 0 003.68-3.9 14.584 14.584 0 000-11.86 9.015 9.015 0 00-3.68-3.88 11.809 11.809 0 00-5.94-1.38h-5.37a1.345 1.345 0 00-1.51 1.54v19.32a1.345 1.345 0 001.51 1.54h5.37zm-3.96-19.65h3.77a8.6 8.6 0 014.47 1.07 6.889 6.889 0 012.67 2.96 11.371 11.371 0 010 8.82 6.829 6.829 0 01-2.67 2.98 8.6 8.6 0 01-4.47 1.07h-3.77v-16.9zm20.16 19.65a1.23 1.23 0 001.37-1.41v-8.99h11.23v8.99a1.233 1.233 0 001.38 1.41h.19a1.233 1.233 0 001.38-1.41v-19.58a1.233 1.233 0 00-1.38-1.41h-.19a1.233 1.233 0 00-1.38 1.41v7.87h-11.23v-7.87a1.23 1.23 0 00-1.37-1.41h-.16a1.233 1.233 0 00-1.38 1.41v19.58a1.233 1.233 0 001.38 1.41h.16zm20.48 0a1.511 1.511 0 001.56-1.12l1.76-4.61h9.25l1.73 4.61a1.542 1.542 0 001.6 1.12h.48a1.048 1.048 0 00.99-.43 1.386 1.386 0 000-1.17l-7.68-19.71a1.57 1.57 0 00-1.6-1.09h-.22a1.562 1.562 0 00-1.6 1.09l-7.68 19.71a1.345 1.345 0 00.01 1.17 1.061 1.061 0 00.98.43h.42zm8-18.21l3.58 9.73h-7.26zm28.67 8.24a3.164 3.164 0 000-4.4 3.164 3.164 0 00-4.4 0 3.111 3.111 0 004.4 4.4zm29.6 9.97a1.383 1.383 0 100-2.75h-10.43v-7.3h9.05a1.281 1.281 0 001.51-1.37 1.3 1.3 0 00-1.51-1.41h-9.05v-6.82h10.04a1.384 1.384 0 100-2.75h-11.45a1.345 1.345 0 00-1.51 1.54v19.32a1.345 1.345 0 001.51 1.54h11.84zm8.22-1.54v-8.48h7.11a7.316 7.316 0 004.91-1.5 5.934 5.934 0 001.74-4.74 5.789 5.789 0 00-1.74-4.67 7.417 7.417 0 00-4.91-1.47h-8.52a1.326 1.326 0 00-1.5 1.5v19.36a1.457 1.457 0 102.91 0zm0-18.11h6.75a4.649 4.649 0 012.93.8 3.117 3.117 0 011.01 2.59 3.2 3.2 0 01-1.01 2.64 4.527 4.527 0 01-2.93.82h-6.75v-6.85zm17.28 19.65a1.522 1.522 0 001.57-1.12l1.76-4.61h9.25l1.73 4.61a1.527 1.527 0 001.6 1.12h.48a1.048 1.048 0 00.99-.43 1.386 1.386 0 000-1.17l-7.68-19.71a1.57 1.57 0 00-1.6-1.09h-.23a1.57 1.57 0 00-1.6 1.09l-7.68 19.71a1.34 1.34 0 00.02 1.17 1.061 1.061 0 00.98.43h.41zm8-18.21l3.59 9.73h-7.27z" transform="translate(-552 -2547)"/><path id="不飽和脂肪酸" class="cls-9" d="M1056.31 3120.58a1.44 1.44 0 00.45-1.1v-19.3c.38-.47.76-.94 1.14-1.42s.73-.96 1.07-1.42h8.7a1.323 1.323 0 00.99-.42 1.354 1.354 0 00.42-.99 1.435 1.435 0 00-1.41-1.41h-25.53a1.417 1.417 0 00-1.41 1.41 1.384 1.384 0 00.41.99 1.36 1.36 0 001 .42h13.31a44.018 44.018 0 01-4.02 4.24 53.907 53.907 0 01-5.04 4.14 41.028 41.028 0 01-5.44 3.36 1.4 1.4 0 00-.86.94 1.45 1.45 0 00.16 1.17 1.432 1.432 0 00.97.74 1.736 1.736 0 001.2-.19 49.3 49.3 0 005.99-3.75 45.119 45.119 0 005.28-4.51v16a1.413 1.413 0 00.46 1.1 1.532 1.532 0 001.07.44 1.51 1.51 0 001.09-.44zm11.65-8.46a1.563 1.563 0 001.15-.48 1.5 1.5 0 00-.06-2.24c-.54-.49-1.17-1.05-1.91-1.66s-1.51-1.26-2.32-1.92-1.61-1.31-2.41-1.92-1.54-1.17-2.23-1.64a1.416 1.416 0 00-1.08-.25 1.419 1.419 0 00-1.22 1.52 1.186 1.186 0 00.48.91 90.81 90.81 0 014.4 3.57c.78.67 1.52 1.33 2.24 1.97s1.33 1.21 1.84 1.72a1.573 1.573 0 001.12.42zm27.68 8.96a11.522 11.522 0 003.25-.37 3.505 3.505 0 001.92-1.33 7.043 7.043 0 001.04-2.65 1.472 1.472 0 00-.08-1.06 1.223 1.223 0 00-.75-.64 1.736 1.736 0 00-1.17.02 1.106 1.106 0 00-.72.85 5.416 5.416 0 01-.56 1.6 1.776 1.776 0 01-1.04.75 7.792 7.792 0 01-2.08.21h-2.63a4.119 4.119 0 01-2.22-.42 2.039 2.039 0 01-.59-1.76v-3.65a2.1 2.1 0 01.35-1.41 1.988 1.988 0 011.44-.38 5.243 5.243 0 002.11-.34 1.981 1.981 0 001.09-1.26 8.484 8.484 0 00.32-2.62 8.638 8.638 0 00-.32-2.66 2.029 2.029 0 00-1.12-1.28 5.8 5.8 0 00-2.24-.35h-3.65c.28-.43.55-.88.8-1.36s.51-.97.77-1.46h5.57a3.174 3.174 0 012.11.51 2.559 2.559 0 01.51 1.92c0 .6-.01 1.27-.03 2.02s-.05 1.49-.08 2.22-.06 1.41-.1 2a10.8 10.8 0 01-.14 1.38 3.61 3.61 0 01-.35 1.12 1.185 1.185 0 01-.75.53 11.606 11.606 0 01-1.56.24 1.192 1.192 0 00-.96.48 1.457 1.457 0 00-.25 1.05 1.234 1.234 0 00.49.9 1.736 1.736 0 001.04.32 6.594 6.594 0 003.51-.83 4.072 4.072 0 001.42-2.88 36.389 36.389 0 00.32-3.86c.07-1.57.11-3.26.13-5.07a4.632 4.632 0 00-1.1-3.49 5.4 5.4 0 00-3.7-1.02h-4.96c.21-.51.41-1.02.59-1.52s.34-.99.47-1.46a1.294 1.294 0 00-.08-.99 1.268 1.268 0 00-.79-.61 1.356 1.356 0 00-1.05.1 1.235 1.235 0 00-.64.8 29.123 29.123 0 01-1.08 2.94 35.163 35.163 0 01-1.55 3.22 23.028 23.028 0 01-1.82 2.86 1.01 1.01 0 00-.19.93 1.153 1.153 0 00.57.77 1.4 1.4 0 00.96.17 1.433 1.433 0 00.87-.46 1.212 1.212 0 00.38.72 1.119 1.119 0 00.8.3h2.59a2.863 2.863 0 011.6.29 2.071 2.071 0 01.35 1.51 2.037 2.037 0 01-.36 1.48 2.7 2.7 0 01-1.59.31 3.649 3.649 0 00-2.69.77 3.838 3.838 0 00-.73 2.68v4.93c0 1.62.4 2.74 1.21 3.36a6.967 6.967 0 004.13.93h3.01zm-19.18-.88c1.05-.33 2.12-.68 3.2-1.04s2.01-.69 2.8-.99c.14.3.29.6.43.89a6.579 6.579 0 01.33.84 1.178 1.178 0 00.72.68 1.361 1.361 0 001.01-.04 1.336 1.336 0 00.72-.72 1.228 1.228 0 00-.05-1.04c-.19-.45-.45-.99-.78-1.6s-.68-1.25-1.04-1.88-.68-1.15-.96-1.58a1.2 1.2 0 00-.78-.56 1.352 1.352 0 00-.95.11 1.26 1.26 0 00-.59.69.947.947 0 00.08.88c.11.15.22.32.34.51s.22.39.33.58c-.53.19-1.13.39-1.81.61s-1.36.42-2.06.64v-4.93h3.68a4.015 4.015 0 002.82-.77 3.546 3.546 0 00.76-2.56v-4.19a3.659 3.659 0 00-.73-2.53 3.5 3.5 0 00-2.63-.8h-.28v-2.14a1.138 1.138 0 00-.37-.88 1.247 1.247 0 00-.88-.34 1.313 1.313 0 00-.9.34 1.113 1.113 0 00-.38.88v2.14h-.35a3.636 3.636 0 00-2.61.74 3.4 3.4 0 00-.75 2.49v13.35c-.32.08-.64.17-.95.25s-.59.16-.85.23a1.136 1.136 0 00-.84.59 1.52 1.52 0 00-.12 1.04 1.3 1.3 0 00.64.83 1.5 1.5 0 001.09.1c.75-.22 1.65-.49 2.71-.82zm-.82-20.29c.62-.61 1.22-1.22 1.79-1.85a20.186 20.186 0 001.44-1.72 1.278 1.278 0 01.83-.59 1.246 1.246 0 01.87.5c.27.28.62.6 1.02.97s.82.75 1.23 1.12.78.7 1.08.98a1.373 1.373 0 001.02.35 1.225 1.225 0 00.93-.48 1.412 1.412 0 00.32-.96 1.054 1.054 0 00-.48-.83c-.39-.3-.83-.65-1.35-1.06s-1.01-.82-1.5-1.24-.9-.8-1.22-1.12a2.75 2.75 0 00-2.14-.98 2.86 2.86 0 00-2.02 1.26c-.38.49-.89 1.08-1.53 1.76s-1.3 1.35-1.99 2-1.29 1.2-1.82 1.65a1.153 1.153 0 00-.43.83 1.247 1.247 0 00.3.93 1.183 1.183 0 00.91.43 1.423 1.423 0 00.98-.33c.55-.47 1.14-1.01 1.76-1.62zm1.76 7.92h4.64v.64a1.768 1.768 0 01-.29 1.19 1.805 1.805 0 01-1.21.28h-3.14v-2.11zm0-2.78a1.481 1.481 0 01.29-1.09 2.04 2.04 0 011.25-.26h1.6a1.805 1.805 0 011.21.28 1.656 1.656 0 01.29 1.16v.61h-4.64v-.7zm53.89 12.08a5.414 5.414 0 001.31-4.08v-11.17c0-1.92-.44-3.29-1.31-4.11s-2.43-1.23-4.67-1.23c-2.27 0-3.83.41-4.71 1.23s-1.31 2.19-1.31 4.11v11.14c0 1.92.44 3.29 1.31 4.11s2.44 1.23 4.71 1.23c2.24 0 3.79-.41 4.67-1.23zm-17.7 4.25a1.356 1.356 0 00.42-1.04v-11.23c.51.62 1.04 1.22 1.6 1.79s1.03 1.05 1.44 1.41a1.554 1.554 0 001.05.39 1.259 1.259 0 001-.45 1.425 1.425 0 00.33-1.06 1.272 1.272 0 00-.53-.96c-.44-.34-.98-.8-1.6-1.37s-1.22-1.19-1.8-1.83-1.09-1.2-1.49-1.69v-1.25h4.19a1.251 1.251 0 00.96-.4 1.411 1.411 0 00.35-.95 1.318 1.318 0 00-.35-.92 1.244 1.244 0 00-.96-.39h-4.19v-4.83c.72-.21 1.41-.42 2.06-.62s1.21-.39 1.68-.56a1.194 1.194 0 00.74-.68 1.46 1.46 0 000-1.05 1.346 1.346 0 00-1.86-.77c-.57.23-1.28.49-2.13.75s-1.75.52-2.72.77-1.93.46-2.88.66-1.79.34-2.54.44a1.2 1.2 0 00-.88.5 1.25 1.25 0 00-.18 1.01 1.409 1.409 0 00.63.91 1.6 1.6 0 001.07.18c.62-.11 1.28-.23 2-.37s1.43-.3 2.16-.47v4.13h-5.22a1.244 1.244 0 00-.96.39 1.318 1.318 0 00-.35.92 1.411 1.411 0 00.35.95 1.251 1.251 0 00.96.4h5.06c-.32.7-.73 1.49-1.23 2.35s-1.06 1.73-1.67 2.59-1.21 1.68-1.8 2.45a24.8 24.8 0 01-1.64 1.92 1.118 1.118 0 00-.33.99 1.365 1.365 0 00.53.93 1.35 1.35 0 001.07.24 1.874 1.874 0 001.01-.53 31.511 31.511 0 002.09-2.62c.76-1.05 1.47-2.11 2.13-3.2v11.13a1.356 1.356 0 00.42 1.04 1.342 1.342 0 00.99.4 1.411 1.411 0 001.02-.4zm10.51-6.41a3.343 3.343 0 01-.59-2.24v-10.59a3.276 3.276 0 01.59-2.23 3.639 3.639 0 012.52-.62 3.512 3.512 0 012.49.62 3.281 3.281 0 01.58 2.23v10.59a3.289 3.289 0 01-.58 2.25 3.455 3.455 0 01-2.49.63 3.572 3.572 0 01-2.52-.64zm22.29 5.76a4.355 4.355 0 001.03-3.27v-20.25a6.2 6.2 0 00-.39-2.45 2.271 2.271 0 00-1.34-1.25 7.922 7.922 0 00-2.69-.37 8.027 8.027 0 00-2.7.37 2.373 2.373 0 00-1.38 1.25 6 6 0 00-.4 2.45v9.66a47.528 47.528 0 01-.26 5.33 19.506 19.506 0 01-.84 3.97 18.155 18.155 0 01-1.62 3.44 1.209 1.209 0 00-.1.97 1.331 1.331 0 00.71.82 1.364 1.364 0 001.05.03 1.559 1.559 0 00.84-.67 19.3 19.3 0 001.96-4.74 28.1 28.1 0 00.82-5.85h3.65v7.07a1.754 1.754 0 01-.34 1.33 3.209 3.209 0 01-1.45.4 1.572 1.572 0 00-1.06.48 1.226 1.226 0 00-.35.96 1.407 1.407 0 00.46.91 1.46 1.46 0 001.01.37 4.87 4.87 0 003.39-.96zm11.27.77a9.79 9.79 0 003.42-.48 3.128 3.128 0 001.78-1.62 7.316 7.316 0 00.52-3.02v-4.29a7.259 7.259 0 00-.52-3.04 3.13 3.13 0 00-1.78-1.6 9.79 9.79 0 00-3.42-.48h-1.54a9.844 9.844 0 00-3.41.48 3.089 3.089 0 00-1.79 1.6 7.243 7.243 0 00-.53 3.04v4.29a7.3 7.3 0 00.53 3.02 3.088 3.088 0 001.79 1.62 9.844 9.844 0 003.41.48h1.54zm.67-16.36a15.726 15.726 0 003.98-.4 4.343 4.343 0 002.29-1.34 5.841 5.841 0 001.15-2.61 1.6 1.6 0 00-.11-1.09 1.33 1.33 0 00-.82-.67 1.42 1.42 0 00-1.16.05 1.287 1.287 0 00-.72.91 3.826 3.826 0 01-.66 1.57 2.277 2.277 0 01-1.34.74 14.22 14.22 0 01-2.61.19h-1.7a13.3 13.3 0 01-2.54-.19 1.71 1.71 0 01-1.19-.74 3.314 3.314 0 01-.3-1.57v-.54c1.09-.19 2.25-.42 3.49-.69s2.46-.57 3.68-.9 2.34-.68 3.39-1.07a1.279 1.279 0 00.7-.69 1.326 1.326 0 000-1.07 1.132 1.132 0 00-.73-.7 1.648 1.648 0 00-1.19.06c-.81.3-1.77.63-2.89.98s-2.26.68-3.41.97-2.17.55-3.04.74v-3.39a1.226 1.226 0 00-.4-.99 1.412 1.412 0 00-.98-.36 1.366 1.366 0 00-.94.36 1.226 1.226 0 00-.4.99v6.59a6.16 6.16 0 00.59 2.93 3.289 3.289 0 002.07 1.5 15.078 15.078 0 004.09.43h1.7zm-4.5 13.27a2.64 2.64 0 01-.59-2.03v-1.06h7.3v1.06a2.6 2.6 0 01-.6 2.03 3.722 3.722 0 01-2.28.49h-1.54a3.778 3.778 0 01-2.29-.49zm-.59-6.32a2.625 2.625 0 01.59-2.03 3.7 3.7 0 012.29-.5h1.54a3.64 3.64 0 012.28.5 2.584 2.584 0 01.6 2.03v.86h-7.3v-.86zm-12.1-9.22h3.59v4.87h-3.59v-4.87zm0-5.63a1.647 1.647 0 01.37-1.25 2.372 2.372 0 011.46-.32 2.223 2.223 0 011.44.32 1.808 1.808 0 01.32 1.25v3.2h-3.59v-3.2zm37.38 23.31a4.6 4.6 0 00.99-3.31v-20a6.44 6.44 0 00-.38-2.43 2.334 2.334 0 00-1.35-1.28 7.461 7.461 0 00-2.72-.39 7.6 7.6 0 00-2.73.39 2.3 2.3 0 00-1.36 1.28 6.227 6.227 0 00-.39 2.43v9.41a40.765 40.765 0 01-.59 7.6 14.5 14.5 0 01-2.03 5.29 1.242 1.242 0 00-.16 1 1.168 1.168 0 00.64.8 1.51 1.51 0 001.06.06 1.392 1.392 0 00.89-.67 18.224 18.224 0 001.92-4.69 29.413 29.413 0 00.8-5.81h3.68v6.79a2.122 2.122 0 01-.33 1.42 2.691 2.691 0 01-1.59.4 1.472 1.472 0 00-1.04.45 1.208 1.208 0 00-.37.96 1.46 1.46 0 001.51 1.31 4.937 4.937 0 003.55-1.01zm13.02.47a3.736 3.736 0 001.99-1.33 6.006 6.006 0 00.99-2.58q.315-1.725.48-3.42c.11-1.13.19-2.48.26-4.03.06-1.73-.29-2.94-1.04-3.62a5.835 5.835 0 00-3.89-1.02h-2.21c.02-.43.03-.86.03-1.28v-2.37h8.42a1.279 1.279 0 00.93-.4 1.347 1.347 0 00.38-.95 1.314 1.314 0 00-1.31-1.31h-6.5v-4.99a1.405 1.405 0 00-1.47-1.47 1.387 1.387 0 00-1.02.41 1.432 1.432 0 00-.42 1.06v4.99h-5.79a1.314 1.314 0 00-.95.39 1.241 1.241 0 00-.4.92 1.366 1.366 0 001.35 1.35h3.97v1.02a46.583 46.583 0 01-.48 7.11 19.018 19.018 0 01-1.65 5.45 15.033 15.033 0 01-3.19 4.31 1.133 1.133 0 00-.36.99 1.337 1.337 0 00.46.96 1.464 1.464 0 001.12.29 1.821 1.821 0 001.02-.52 17.339 17.339 0 003.92-5.87 26.851 26.851 0 001.75-7.47h2.14a3.142 3.142 0 011.95.43 2.09 2.09 0 01.48 1.68c-.04 1.47-.12 2.71-.24 3.71a28.316 28.316 0 01-.46 2.85 3.716 3.716 0 01-.54 1.35 1.909 1.909 0 01-1.06.68 8.093 8.093 0 01-2.02.24 1.77 1.77 0 00-1.1.42 1.263 1.263 0 00-.4 1.06 1.242 1.242 0 00.48 1 1.682 1.682 0 001.06.34 12.068 12.068 0 003.32-.38zm-18.33-18.15h3.58v4.93h-3.58v-4.93zm0-5.63a1.7 1.7 0 01.35-1.26 2.12 2.12 0 011.44-.34 2.148 2.148 0 011.46.34 1.8 1.8 0 01.33 1.26v3.2h-3.58v-3.2zm48.41 20.35a21.581 21.581 0 006.31 3.81 1.866 1.866 0 001.2.1 1.387 1.387 0 00.85-.8 1.2 1.2 0 00.01-1.06 1.342 1.342 0 00-.72-.74 23.259 23.259 0 01-3.05-1.34 16.811 16.811 0 01-2.71-1.76 20.363 20.363 0 002.5-3.36 2.728 2.728 0 00.3-2.91c-.48-.81-1.48-1.22-2.99-1.22h-2.91c.1-.23.22-.46.33-.67s.23-.43.34-.64a1.087 1.087 0 00.1-.91 1.3 1.3 0 00-.61-.72 1.214 1.214 0 00-.98-.1 1.18 1.18 0 00-.78.64 21.64 21.64 0 01-2.27 3.68 22.4 22.4 0 01-3.04 3.33 1.2 1.2 0 00-.21.26 1.844 1.844 0 00-.15.28v-6.43a.379.379 0 01.1.13c.02.04.04.08.06.13a1.2 1.2 0 00.9.38 1.5 1.5 0 00.96-.32 14.511 14.511 0 002.66-2.65 16.075 16.075 0 001.85-3.14 1.173 1.173 0 00.05-.88 1.122 1.122 0 00-.59-.66.245.245 0 00-.16-.06c.36-.04.73-.08 1.1-.11s.74-.07 1.11-.11v3.32q0 2.115.96 2.82a5.914 5.914 0 003.36.7 5.167 5.167 0 002.92-.7 3.868 3.868 0 001.43-2.56 1.262 1.262 0 00-.11-.94 1.289 1.289 0 00-.79-.6 1.31 1.31 0 00-.99.08 1.246 1.246 0 00-.64.79 2.519 2.519 0 01-.56 1.2 1.947 1.947 0 01-1.26.3 3.359 3.359 0 01-1.49-.22 1.117 1.117 0 01-.4-1.06v-3.36c.45-.04.88-.08 1.29-.13s.8-.08 1.14-.12c.13.15.25.3.37.46s.22.3.3.43a1.067 1.067 0 00.8.47 1.284 1.284 0 00.9-.24 1.256 1.256 0 00.49-.77 1.116 1.116 0 00-.2-.87c-.3-.42-.68-.91-1.12-1.47s-.91-1.11-1.38-1.66-.9-1.03-1.28-1.41a.98.98 0 00-.8-.38 1.154 1.154 0 00-.83.32 1.169 1.169 0 00-.39.73.958.958 0 00.26.8c.19.22.4.46.62.72s.46.55.69.85c-.77.06-1.63.13-2.57.21s-1.92.14-2.9.21c.32-.6.66-1.27 1.02-2.02s.65-1.38.87-1.89a1.113 1.113 0 00.05-.91 1.132 1.132 0 00-.72-.66 1.274 1.274 0 00-1.03-.01 1.329 1.329 0 00-.7.75c-.13.34-.32.82-.58 1.44s-.53 1.25-.81 1.89-.54 1.17-.76 1.6c-.4.02-.8.04-1.18.05s-.73.02-1.02.04a1.232 1.232 0 00-.87.4 1.123 1.123 0 00-.29.82 1.173 1.173 0 001.32 1.15c.49-.04 1.04-.08 1.66-.13s1.29-.09 2.02-.16a1.18 1.18 0 00-.52.52 12.654 12.654 0 01-1.63 2.68 10.731 10.731 0 01-2.33 2.24 1.331 1.331 0 00-.36.39v-.71a5.884 5.884 0 00-.83-3.6 3.978 3.978 0 00-3.01-1.16v-3.97h3.3a1.214 1.214 0 00.91-.37 1.255 1.255 0 000-1.78 1.277 1.277 0 00-.91-.35h-11.49a1.257 1.257 0 00-.88.35 1.255 1.255 0 000 1.78 1.194 1.194 0 00.88.37h3.52v3.97a3.88 3.88 0 00-2.91 1.2 5.766 5.766 0 00-.83 3.56v10.6a7.882 7.882 0 00.45 3 2.542 2.542 0 001.5 1.46 8.253 8.253 0 002.88.4h2.59a8.3 8.3 0 002.9-.4 2.58 2.58 0 001.49-1.46 8.114 8.114 0 00.44-3v-1.38a1.313 1.313 0 00.23.32 1.161 1.161 0 00.89.42 1.287 1.287 0 00.9-.36 22.112 22.112 0 002.27-2.27 21.679 21.679 0 002.4 3.36 22.1 22.1 0 01-6.14 3.27 1.437 1.437 0 00-.8.73 1.229 1.229 0 00-.03 1.06 1.245 1.245 0 00.76.7 1.68 1.68 0 001.12-.06 22.87 22.87 0 006.88-3.94zm-18.4-6.78a.944.944 0 00.77.11 1.085 1.085 0 00.64-.43 8.646 8.646 0 001.09-1.95 10.23 10.23 0 00.56-2.36 26.567 26.567 0 00.18-3.4h1.02v5.37a2.054 2.054 0 00.58 1.65 2.929 2.929 0 001.92.5h.86v2.72h-7.62v-2.21zm.52 6.85a2.676 2.676 0 01-.52-1.96v-.44h7.62v.44a2.729 2.729 0 01-.51 1.96 3.061 3.061 0 01-2.02.48h-2.59a2.969 2.969 0 01-1.98-.48zm15.23-7.11l.03-.03h3.42a1.369 1.369 0 011.19.34 1.3 1.3 0 01-.32 1.16 14.861 14.861 0 01-1.63 2.15 15.5 15.5 0 01-2.69-3.62zm-9.47-2.73a.931.931 0 01-.2-.69v-4.32a1.594 1.594 0 011.22.64 3.477 3.477 0 01.32 1.73v2.81h-.58a1.206 1.206 0 01-.76-.17zm-6.28-2.64a3.4 3.4 0 01.31-1.68 1.433 1.433 0 011.1-.66 21.76 21.76 0 01-.13 2.62 9.317 9.317 0 01-.41 1.94 6.576 6.576 0 01-.87 1.68v-3.9zm3.27-8.77h.99v3.93h-.99v-3.93z" transform="translate(-552 -2547)"/><path id="鉄分" class="cls-9" d="M1019.21 3197.32a17.642 17.642 0 002.67-5.01 26.491 26.491 0 002.58 4.71 23.913 23.913 0 003.34 3.96 1.534 1.534 0 001.09.42 1.323 1.323 0 001.05-.48 1.4 1.4 0 00.36-1.02 1.256 1.256 0 00-.48-.93 20.86 20.86 0 01-6.72-10.21h5.44a1.19 1.19 0 00.88-.35 1.338 1.338 0 000-1.76 1.153 1.153 0 00-.88-.35h-5.64v-5.09h4.45a1.253 1.253 0 00.9-.35 1.24 1.24 0 00-.9-2.12h-4.45v-5.02a1.246 1.246 0 00-.38-.99 1.355 1.355 0 00-.96-.35 1.24 1.24 0 00-1.31 1.34v5.02h-2.37c.13-.51.24-1.01.34-1.52s.18-.98.27-1.45a1.39 1.39 0 00-.21-.95 1.178 1.178 0 00-.82-.49 1.321 1.321 0 00-1.04.21 1.269 1.269 0 00-.52.88c-.13.83-.32 1.73-.56 2.72s-.53 1.94-.85 2.88-.65 1.78-.99 2.52a1.154 1.154 0 00.01 1.01 1.224 1.224 0 00.75.66 1.433 1.433 0 001.76-.87 20.655 20.655 0 001.19-3.13h3.04v5.09h-5.38a1.139 1.139 0 00-.86.35 1.23 1.23 0 00.86 2.11h5.19a14.012 14.012 0 01-2.29 6.08 17.364 17.364 0 01-4.53 4.38 1.234 1.234 0 00-.56.88 1.374 1.374 0 00.24 1.01 1.329 1.329 0 001.02.53 1.808 1.808 0 001.12-.34 18.906 18.906 0 004.15-3.98zm-15.83 3.22c.52-.11 1.14-.24 1.88-.39s1.5-.31 2.3-.48 1.56-.32 2.29-.46 1.34-.26 1.84-.37.8-.17.91-.19a1.29 1.29 0 00.78-.59 1.16 1.16 0 00.08-.95 1.075 1.075 0 00-1.44-.83c-.15.02-.51.09-1.1.19l-2.1.39v-8.13h3.17a1.072 1.072 0 00.85-.34 1.226 1.226 0 00.3-.85 1.16 1.16 0 00-.3-.81 1.072 1.072 0 00-.85-.34h-3.17v-3.01h2.34a1.081 1.081 0 00.86-.35 1.154 1.154 0 00.32-.83 1.193 1.193 0 00-.32-.86 1.088 1.088 0 00-.86-.36h-7.39a1.11 1.11 0 00-.87.36 1.237 1.237 0 00-.32.86 1.2 1.2 0 00.32.83 1.1 1.1 0 00.87.35h2.4v3.01h-4.07a1.072 1.072 0 00-.83.34 1.133 1.133 0 00-.32.81 1.2 1.2 0 00.32.85 1.072 1.072 0 00.83.34h4.07v8.61q-1.575.315-2.85.54c-.85.15-1.36.23-1.5.26a1.521 1.521 0 00-.92.56 1.131 1.131 0 00-.2 1 1.238 1.238 0 00.57.88 1.643 1.643 0 001.15.15c.13-.02.45-.09.96-.19zm.1-19.94c.6-.68 1.19-1.38 1.78-2.1s1.07-1.33 1.45-1.87a1.131 1.131 0 01.79-.59 1.285 1.285 0 01.78.56c.3.3.66.67 1.09 1.12s.86.9 1.29 1.34.81.83 1.11 1.12a1.449 1.449 0 001.02.37 1.271 1.271 0 00.96-.43 1.441 1.441 0 00.37-1.01 1.181 1.181 0 00-.46-.91q-.585-.51-1.32-1.2a54.646 54.646 0 01-2.62-2.61 3.247 3.247 0 00-2.38-1.29 2.806 2.806 0 00-2.2 1.39c-.27.38-.63.85-1.07 1.39s-.9 1.1-1.39 1.68-.98 1.13-1.46 1.65-.91.95-1.292 1.29a1.114 1.114 0 00-.416.88 1.315 1.315 0 00.352.92 1.459 1.459 0 001.006.43 1.312 1.312 0 001.01-.4c.47-.47 1-1.05 1.6-1.73zm1.86 14.9a1.216 1.216 0 000-.92c-.09-.32-.22-.71-.4-1.18s-.37-.94-.56-1.41-.36-.84-.48-1.12a1.148 1.148 0 00-.66-.7 1.3 1.3 0 00-.91 0 1.219 1.219 0 00-.66.59.947.947 0 00-.01.91c.14.3.31.68.49 1.15s.37.94.56 1.41.34.88.45 1.22a.97.97 0 00.59.64 1.36 1.36 0 00.95-.03 1.145 1.145 0 00.64-.56zm5.64-.07a1.091 1.091 0 00.66-.59c.15-.28.32-.64.53-1.09s.4-.9.61-1.36.36-.82.49-1.1a1.155 1.155 0 000-.93 1.2 1.2 0 00-.64-.61 1.254 1.254 0 00-.99.02 1.238 1.238 0 00-.64.72c-.11.28-.25.63-.43 1.07s-.37.87-.55 1.31-.34.81-.49 1.11a.9.9 0 00-.02.8 1.152 1.152 0 00.59.6 1.175 1.175 0 00.88.05zm40.47 5.38a4.3 4.3 0 002.29-1.76 9.648 9.648 0 001.2-3.57c.12-.79.24-1.6.33-2.42s.18-1.71.24-2.67a7.208 7.208 0 00-.3-3.18 2.956 2.956 0 00-1.76-1.68 10.541 10.541 0 00-3.7-.51h-10.27a1.425 1.425 0 00-1.04.41 1.367 1.367 0 00-.43 1.03 1.42 1.42 0 00.43 1.04 1.443 1.443 0 001.04.43h3.97a12.709 12.709 0 01-1.15 4.3 11.975 11.975 0 01-2.71 3.7 12.978 12.978 0 01-4.37 2.62 1.561 1.561 0 00-.88.77 1.263 1.263 0 00-.04 1.09 1.439 1.439 0 00.88.83 1.771 1.771 0 001.2-.03 15.742 15.742 0 005.32-3.17 13.789 13.789 0 003.28-4.58 16.537 16.537 0 001.38-5.53h3.23a6.9 6.9 0 011.97.21 1.186 1.186 0 01.85.8 4.54 4.54 0 01.09 1.74c-.06.79-.14 1.54-.24 2.24s-.19 1.37-.3 1.98a6.3 6.3 0 01-.7 2.18 2.083 2.083 0 01-1.35.91 12.765 12.765 0 01-2.53.24 1.85 1.85 0 00-1.21.47 1.348 1.348 0 00-.45 1.13 1.57 1.57 0 001.82 1.47 12.633 12.633 0 003.91-.49zm9.39-13.3a1.69 1.69 0 001.14-.73 1.481 1.481 0 00.25-1.25 1.575 1.575 0 00-.77-1.03 28.134 28.134 0 01-3.13-2.27 24.077 24.077 0 01-2.8-2.72 22.4 22.4 0 01-2.13-2.81 11.213 11.213 0 00-1.57-2.16 3.782 3.782 0 00-1.84-1.04 12.033 12.033 0 00-3.02-.29h-2.05a1.289 1.289 0 00-.99.41 1.452 1.452 0 00-.39 1.03 1.429 1.429 0 00.44 1.04 1.388 1.388 0 001.04.43h1.95a7.065 7.065 0 011.71.16 2.349 2.349 0 011.07.59 5.719 5.719 0 01.93 1.27 25.475 25.475 0 002.3 3.13 36.171 36.171 0 003.11 3.23 26.609 26.609 0 003.42 2.72 1.711 1.711 0 001.33.29zm-23.06-2.75a44.145 44.145 0 003.16-3.39 27.727 27.727 0 002.48-3.49 1.345 1.345 0 00.17-1.15 1.535 1.535 0 00-.72-.93 1.388 1.388 0 00-1.15-.19 1.548 1.548 0 00-.96.7 25.5 25.5 0 01-1.57 2.27 35.266 35.266 0 01-4.35 4.72 19.045 19.045 0 01-2.3 1.81 1.488 1.488 0 00-.69 1.03 1.426 1.426 0 00.3 1.18 1.47 1.47 0 001.14.56 2.094 2.094 0 001.26-.37 31.628 31.628 0 003.23-2.75z" transform="translate(-552 -2547)"/></g></g></svg>