<svg xmlns="http://www.w3.org/2000/svg" width="54" height="70.219"><path d="M5.234 3.449C.487 6.533-.446 16.172 1.346 24.029a71.039 71.039 0 009.369 22.055A73.67 73.67 0 0027 63.646c6.431 4.843 15.6 7.92 20.348 4.837 2.4-1.559 5.967-5.82 6.13-6.583l-2.551-3.94-7.014-10.831c-.521-.8-3.789-.069-5.45.873-2.24 1.271-4.3 4.681-4.3 4.681-1.535.889-2.822 0-5.509-1.236-3.3-1.521-7.018-6.252-9.974-10.535-2.7-4.451-5.5-9.775-5.537-13.417-.033-2.964-.316-4.5 1.121-5.543 0 0 3.95-.5 6.022-2.025 1.536-1.134 3.54-3.824 3.019-4.628L16.288 4.467 13.737.527c-.763-.163-6.102 1.361-8.503 2.922z" fill="#fff" stroke="#fff" fill-rule="evenodd"/></svg>