<svg id="an.svg" xmlns="http://www.w3.org/2000/svg" width="83.88" height="83.22" viewBox="0 0 83.88 83.22">
  <defs>
    <style>
      .cls-1 {
        fill: #fff;
        fill-rule: evenodd;
      }
    </style>
  </defs>
  <path id="シェイプ_3" data-name="シェイプ 3" class="cls-1" d="M1302.42,1061.19c0.19-.45.37-0.85,0.58-1.28a2.669,2.669,0,0,1,.24-0.32c0.35-.05.68-0.96,1.01-1.87,0.51-.88.6-1.16,0.37-1.36-0.27.4-.54,0.8-0.76,1.17-0.28.38-.52,0.72-0.79,1.1,0.48-.76.99-1.5,1.55-2.27,0.31-.5.32-0.83,0.18-0.89-0.42.51-.85,1.08-1.23,1.62-0.34.22-.29-0.1-0.36-0.13a36.586,36.586,0,0,0-2.68,5.24c-0.15.37-.28,0.75-0.4,1.14,0.13,0.26.28,0.49,0.43,0.76,0.04-.09.05-0.13,0.09-0.22,0.18,0.19.33,0.33,0.48,0.48A32.361,32.361,0,0,1,1302.42,1061.19Zm-0.03-1.72c0.2-.31.4-0.63,0.6-0.95-0.29.5-.68,1.07-0.94,1.64A2.593,2.593,0,0,1,1302.39,1059.47Zm-2.5,7.38a9.027,9.027,0,0,0,.44-2.13,5.111,5.111,0,0,0-.84,2.64A1.3,1.3,0,0,0,1299.89,1066.85Zm48.73,51,0.03-.06,0.12-.31c0.49-.14.88-0.28,1.31-0.41a4.653,4.653,0,0,0-.5-0.49c-0.01-.04-0.01-0.07-0.02-0.11,0.58-.15,1.16-0.36,2.41-0.61a0.212,0.212,0,0,0,.03-0.07l0.12-.31c0.49-.14.88-0.27,1.31-0.4a4.653,4.653,0,0,0-.5-0.49,1.137,1.137,0,0,0-.11-0.4c0.04-.13.06-0.17-0.87-0.08-0.26-.05-0.57-0.09-0.83-0.16-0.04-.12-0.04-0.27-0.08-0.39,0.24-.28.48-0.58,0.76-0.88,0.36-.14.44-0.24,0.74-0.36,0.04-.14.09-0.3,0.13-0.44a1.51,1.51,0,0,0-.08-0.51c-0.02-.09.27-0.33-0.14-0.26-0.24-.09-0.46-0.2-0.74-0.28a0.516,0.516,0,0,0,.31-0.35c-0.36.09-.73,0.18-1.09,0.25-0.96.05-.4-0.34-1.83-0.06-0.11.22-1.29,0.32-1.27,0.58-1.64.2-2.89,0.06-4.23,0.19-1.04-.06-1.53.09-2.32,0.02-0.32.12-1.36-.25-1.21,0.02a24.3,24.3,0,0,1-5.54-.82c-0.14.68-2.01-.61-2.88-0.54-0.52-.58-2.14-0.64-2.98-1.38a28.649,28.649,0,0,1-6.11-3.39,27.507,27.507,0,0,1-6.03-5.36c-0.17.03-.45-0.39-0.67-0.42-0.73-.85-1.46-1.76-2.14-2.7a32.02,32.02,0,0,1-3.21-5.44c-0.2-.13-0.33-0.83-0.69-0.77a3.757,3.757,0,0,0-.78-1.93c-0.04-.43-0.52-1.35-0.27-1.36a2.294,2.294,0,0,0-.32-0.79,4.741,4.741,0,0,1-.42-1.21c-0.16-.34-0.28-0.65-0.45-1.04,0.32,0.19,0-.91-0.1-0.97a5.99,5.99,0,0,0-.58-1.48c-0.01-.08-0.02-0.12-0.03-0.21a1.666,1.666,0,0,0-.15-1.43,2.718,2.718,0,0,0-.35-1.68c-0.04-.22-0.07-0.45-0.11-0.63,0.23,0.3.13-.37,0.3-0.3-0.36-1.39,0-3.81-.12-5.21,0.06-.55.12-1.06,0.2-1.61a13.716,13.716,0,0,0,.28-2.54c0.03-.12.06-0.25,0.1-0.41,0.29-1.16.85-2.66,1.2-4.39,0.48-1.18,1.1-2.31,1.56-3.35a9.351,9.351,0,0,1,1.13-1.32,16.757,16.757,0,0,1,2.79-4.34c0.18-.26.44-0.52,0.45-0.35,0.27-.33.52-0.62,0.8-0.94a1.586,1.586,0,0,0,.68-1.26c-0.2.06-.39,0.12-0.59,0.18,0.06-.25.1-0.46,0.14-0.67,0.15-.26.33-0.57,0.49-0.83,0.1-.09.2-0.19,0.32-0.31a39.544,39.544,0,0,1,4.88-3.8l0.18,0.36c0.34-.12.69-0.23,1.02-0.34a2.571,2.571,0,0,0,.7-0.53c1.82-.65,4.64-1.66,5.88-2.26,0.48-.17,1-0.34,1.49-0.47,0.59-.12,1.13-0.22,1.72-0.32-0.28.55,1.31-.23,1.96-0.02,0.91-.11.72,0.2,1.76,0.04a6.715,6.715,0,0,1,.65-0.27,4.259,4.259,0,0,0,1.35-.18h0.41a34.52,34.52,0,0,1,6.51.83c0.58,0.13,1.15.28,1.72,0.43,0.4,0.1.84,0.19,1.29,0.31,1.29,0.42,1.89.69,3.11,1l0.38,0.15c1.43,0.66,2.34,1.35,4.16,2.24a3.532,3.532,0,0,1,1.15.6,37.124,37.124,0,0,1,4.07,3c1.01,1.16,1.9,1.25,2.8,2.5a34.351,34.351,0,0,1,7.73,11.9c0.2,0.29.38,0.59,0.57,0.88,0.3,0.92.57,1.79,0.79,2.68-0.2.4,0.52,1.96,0.31,2.36,0.17,0.52.21,1.46,0.46,1.52,0.38,0.35.1,1.03,0.26,1.59,0.03,1.02.11,1.84,0.08,2.94a5.92,5.92,0,0,0,.11,1.76c-0.25.3-.01,1.85-0.31,2.13-0.04.86-.1,1.71-0.19,2.52a6.576,6.576,0,0,0-.28.93c0.41,2.05-.89,1.01-0.89,3.41a8.115,8.115,0,0,1-1.23,3.03c-0.71,1-.33,1.45-0.73,2.25a2.045,2.045,0,0,1-.47.4,1.676,1.676,0,0,0-.3.71,5.378,5.378,0,0,1-.95,1.52c-0.21.49-.45,0.48-0.5,0.35-0.23.37-.51,0.77-0.76,1.14-0.32.41-.62,0.79-0.96,1.19-0.35.29-.81,1.07-1,0.95-0.21.25-.4,0.46-0.64,0.74l-0.52.55c-0.47.45-.94,0.89-1.43,1.32-0.24.17-.45,0.33-0.64,0.48a0.737,0.737,0,0,0-.14.04l-0.16-.25c-0.85.2-1.55,1.1-2.49,1.36-0.35.36-1.52,0.71-1.61,0.98a6.767,6.767,0,0,1-1.75,1.01c-0.37.4-1.76,0.79-1.59,1.07a2.717,2.717,0,0,0,1.08-.41c0.44-.1.9-0.25,1.34-0.38,0.05,0.11.11,0.2,0.16,0.31-0.02.02-.03,0.04-0.05,0.06-0.45.16-.91,0.32-1.35,0.46-0.55.21-1.14,0.42-1.7,0.6a6.527,6.527,0,0,0-1.75.5c0.59-.09,1.17-0.2,1.79-0.34,0.73-.19,1.42-0.39,2.13-0.62,0.13-.05.28-0.11,0.44-0.17-0.26.18-.52,0.34-0.8,0.52a3.4,3.4,0,0,0-1.04.61c-0.23.11-.46,0.21-0.73,0.32-0.55.2-1.14,0.4-1.69,0.58-0.55.2-1.15,0.41-1.7,0.6a6.8,6.8,0,0,0-1.75.49c0.59-.08,1.17-0.19,1.79-0.33,0.73-.2,1.42-0.4,2.13-0.63,0.16-.05.36-0.13,0.56-0.21a12.78,12.78,0,0,0,3.02-1.15c0.45-.14.89-0.29,1.34-0.45,0.06,0.12.09,0.19,0.13,0.26,0.88-.44,1.7-0.91,2.53-1.43,0.3-.22.6-0.41,0.88-0.6,0.85-.43,1.66-0.89,2.47-1.4,1.29-.9,2.31-1.46,3.4-2.3,1.3-1.29,2.82-2.26,3.92-3.59,0.22-.26.46-0.51,0.67-0.77,0.33-.35.66-0.74,0.96-1.11,0.24-.35.46-0.67,0.69-1.03,0.02,0.27.07,0.57,0.09,0.85,0.14,0.26.53,0.11,0.79,0.01,0.28-.39.55-0.8,0.84-1.24,0.21-.28.4-0.53,0.63-0.86,0.35-.67.68-1.39,0.99-2.07a31.834,31.834,0,0,0,2.79-7.06c0.28-.56.44-2.2,0.63-2.69,0.06-.49.13-0.97,0.17-1.45,0.03-.26.06-0.57,0.08-0.83,0.34,0.01.34-1.11,0.22-1.48a37.509,37.509,0,0,0-.09-4.24c-0.01-.35-0.02-0.71-0.05-1.06,0.27-.17.04-1.42-0.18-1.89l-0.12-.66a16.385,16.385,0,0,0-.08-1.68c0.27,0.25.13-.46,0.32-0.25a5.761,5.761,0,0,0,.48.42c0.19,0.61.4,1.28,0.83,2.54,0.11,1.04.18,2.04,0.2,3.09-0.26.17-.22,1.24,0.07,2.59,0.09-.49.16-0.98,0.22-1.48,0.09,0.01.17,0.01,0.26,0.02,0.01,0,.04.01,0.05,0.01a5.322,5.322,0,0,0,.04-0.69c-0.02-.37-0.04-0.74-0.07-1.11a1.375,1.375,0,0,0-.43-0.65,3.2,3.2,0,0,0,.19-1.56c-0.07-.41-0.16-0.87-0.27-1.32-0.08-.41-0.19-0.86-0.29-1.27h-0.07c-0.14-.31-0.29-0.57-0.44-0.88-0.27-1.21-.71-2.53-0.96-3.6a38.364,38.364,0,0,0-2.47-5.96,3.237,3.237,0,0,0-.94-1.83,40.633,40.633,0,0,0-4.95-6.79,1.862,1.862,0,0,0-.59-0.98,3.993,3.993,0,0,0-1.02-.69c-0.47-.55-0.93-1.04-1.39-1.53-0.73-.72-1.5-1.4-2.29-2.05-0.33-.3-0.7-0.62-1.08-0.93-0.35-.21-0.67-0.38-1.06-0.6-0.59-.39-1.18-0.77-1.82-1.15a5.224,5.224,0,0,0-1.44-.83c-0.42-.26-0.83-0.53-1.22-0.76,0.52,0.14.15-.28,0.71-0.17a7.119,7.119,0,0,0-1.26-.69c-0.37-.08-0.69-0.15-1.07-0.23-0.05-.02-0.14-0.06-0.19-0.08,0.24-.08-0.1-0.3-0.31-0.45a8.2,8.2,0,0,0-1.92-.59c-0.45-.22-0.66-0.37-0.88-0.49a5.831,5.831,0,0,0-1.94-.51c-0.51-.13-0.97-0.24-1.49-0.35-0.55-.16-1.1-0.31-1.66-0.45a9.5,9.5,0,0,0-1.73-.39c-0.45.02-.9,0.05-1.34,0.08-1.1-.12-2.2-0.21-3.25-0.25-0.37-.02-0.68-0.03-1.05-0.05a6.412,6.412,0,0,0-1.42-.4,9.094,9.094,0,0,0-1.82.15c-0.16.01-.31,0.02-0.53,0.03a5.117,5.117,0,0,0-2.27.14c-0.26.12-.47,0.25-0.73,0.38a4.6,4.6,0,0,0-1.51.13c-1.34-.24-3.69.41-5.7,1.06-0.33.21-.6,0.4-0.92,0.62-0.95.31-1.88,0.67-2.8,1.05a1.65,1.65,0,0,0-1.23.32c-0.28.38-1.83,0.93-2.48,1.65a3.23,3.23,0,0,0-.87.34c-0.32.44-2.28,1.09-2.69,1.97-0.18.11-.4,0.24-0.62,0.37-0.27.16-.57,0.36-0.82,0.53-0.33.26,0.68-.27,0.34-0.02-0.48.43-1.44,1.13-1.39,1.39,0.66-.19.66-0.42,2.1-1.48a4.043,4.043,0,0,0,1.25-.54v0.02a2.091,2.091,0,0,0,.91-0.53,8.114,8.114,0,0,1,1.36-.64c0.39-.26.82-0.56,1.27-0.83,0.61-.27.95-0.4,1.33-0.56,0.55-.3,1.06-0.57,1.58-0.82-0.15.23,0.95-.06,1.03,0.07a39.5,39.5,0,0,1,3.84-1c0.18-.03.39-0.06,0.59-0.08a1.487,1.487,0,0,0-.31.17,1.046,1.046,0,0,0,.04.17,7.407,7.407,0,0,1-.34.7c-0.18.1-.36,0.21-0.55,0.33a7.069,7.069,0,0,0-2.5.8c0.01,0.06.02,0.1,0.03,0.16-0.08.19-.16,0.39-0.26,0.59a3.481,3.481,0,0,0-.96.57c-0.39.19-.77,0.38-1.16,0.59-0.08.03-.17,0.06-0.26,0.1a0.037,0.037,0,0,1,.01.03c-0.45.24-.89,0.5-1.35,0.77-0.59.34-1.18,0.71-1.75,1.09-0.53.28-1.06,0.58-1.6,0.9-1.09.63-2.14,1.35-3.15,2.06-0.91.61-1.78,1.28-2.63,1.98-0.73.61-1.44,1.25-2.13,1.91a6.073,6.073,0,0,0-1.99,1.92c-0.04.2-.08,0.41-0.14,0.64-0.12.15-.26,0.32-0.4,0.5,0.05-.43-0.38.11-0.55,0.22-0.26.39-.5,0.79-0.71,1.17,0.15-.33.3-0.74,0.46-1.15,0.5-.89.59-1.16,0.36-1.37-0.27.41-.53,0.81-0.76,1.18-0.28.37-.52,0.71-0.79,1.09,0.48-.76.99-1.5,1.55-2.27,0.31-.5.32-0.83,0.18-0.89-0.42.51-.85,1.09-1.23,1.63-0.33.22-.28-0.11-0.36-0.14a36.723,36.723,0,0,0-2.68,5.25c-0.15.37-.28,0.75-0.4,1.13,0.13,0.26.29,0.49,0.43,0.76,0.04-.09.05-0.13,0.09-0.22,0.03,0.03.06,0.07,0.09,0.1a5.352,5.352,0,0,1-.42.76,1.2,1.2,0,0,0-.23.32,7.273,7.273,0,0,0-.44.6,5,5,0,0,1-.1-0.72l-0.14-.14c-0.12.3-.23,0.55-0.34,0.81-0.46,1.28.14,0.91-.07,1.92-0.14.44-.25,0.84-0.38,1.29a8.677,8.677,0,0,1-.36,1.47c0.28,0.8-.4,1.17-0.54,2.33-0.11-.07-0.22-0.15-0.34-0.23,0.14-.73.28-1.45,0.46-2.17a0.106,0.106,0,0,0-.06-0.04c-0.16.13-.32,0.27-0.49,0.4-0.14.59-.24,1.15-0.33,1.76-0.13.62-.25,1.3-0.35,1.94-0.06.51-.11,1.07-0.13,1.59-0.08.64-.1,1.1-0.14,1.51-0.08.43-.18,0.85-0.25,1.23,0.24,1.21.2,2.67,0.52,4.83,0.01,0.49.06,1.04,0.1,1.53l-0.73-.26c-0.06-.47-0.1-0.94-0.14-1.35-0.05-.83-0.07-1.61-0.07-2.44-0.08-.04-0.18-0.08-0.25-0.12-0.03-.25-0.06-0.49-0.08-0.69,0.13-.54.25-1.09,0.4-1.63-0.06-.17-0.11-0.34-0.16-0.51-0.04-1.22-.07-1.65-0.39-1.64,0-.4,0-0.79.01-1.19a20.209,20.209,0,0,0,.39-3.49,7.29,7.29,0,0,0-.57,3.37c-0.15,1.12-.27,2.24-0.34,3.37,0.02,0.15.04,0.31,0.05,0.46,0.08,0.04.17,0.09,0.24,0.13-0.01.33,0,.62-0.01,0.94-0.33.79-.03,2.15,0.15,3.41,0.07,0.8.16,1.65,0.29,2.44,0.09,0.48.2,0.96,0.29,1.39,0.14,0.61.28,1.22,0.45,1.83,0.03,0.27.1,0.59,0.14,0.86,0.06,0.23.1,0.41,0.17,0.65l0.06,0.65c-0.1-.02-0.18-0.04-0.29-0.06a0.048,0.048,0,0,0-.05-0.01,1.773,1.773,0,0,0,.39,1.5c0.15,0.46.28,0.88,0.45,1.33,0.17,0.25.36,0.49,0.52,0.69,0.04,0.17.08,0.31,0.1,0.44,0,0.34-.12.32-0.1,0.58,0.33,0.73.68,1.49,1.03,2.16,0.28,0.58.62,1.23,0.43,1.27a11.9,11.9,0,0,0,1.42,2.3c0.29,0.34.61,0.68,0.91,1.02a2.251,2.251,0,0,0,.95,1.19,1.65,1.65,0,0,0,.08-0.42c0.23,0.2.48,0.39,0.71,0.59,0.45,0.64.93,1.27,1.43,1.9a1.335,1.335,0,0,0,.16.57c0.62,0.69,1.27,1.71,2.03,1.96a11.711,11.711,0,0,0,1.98,1.65c0.18,0.18.33,0.31,0.51,0.48a3.691,3.691,0,0,0,1.02,1.22,2.679,2.679,0,0,0,1.22.7c0.3,0.13.54,0.23,0.84,0.35a38.56,38.56,0,0,0,3.42,2.17c0.1,0.1.22,0.18,0.37,0.31a3.837,3.837,0,0,0,1.28.95c0.51,0.13,1.45.87,2.16,0.76,0.38,0.18.79,0.34,1.18,0.51,0.65,0.31,1.29.62,2.01,0.93a15.609,15.609,0,0,0,5.08,1.39,1.936,1.936,0,0,0,1.12.11,8.751,8.751,0,0,0,2.98.32c0.47,0.08.99,0.15,1.52,0.22,0.6,0.33.04,0.44,0.48,0.76,0.63,0.02,1.27.01,1.91,0,0.9,0,1.44-.06,2.17-0.01,0.37-.05.78-0.11,1.14-0.17a11.746,11.746,0,0,0,2.35-.15C1346.3,1118.58,1346.53,1118.27,1348.62,1117.85Zm27.99-41.52c-0.01-.35-0.02-0.7-0.05-1.05,0.27-.18.04-1.42-0.19-1.9-0.03-.22-0.07-0.43-0.11-0.66,0-.53-0.04-1.1-0.08-1.68,0.15,0.14.17-.01,0.2-0.15,0,0.01,0,.01.01,0.01,0.38,0.35.1,1.02,0.26,1.59,0.03,1.02.11,1.83,0.08,2.93a6.006,6.006,0,0,0,.11,1.77,2.273,2.273,0,0,0-.13,1.01C1376.69,1077.57,1376.66,1076.95,1376.61,1076.33Zm-0.42,4.05a2.8,2.8,0,0,1-.04-1.15,0.289,0.289,0,0,0,.06-0.1C1376.19,1079.53,1376.17,1079.93,1376.19,1080.38Zm3.37-3.24c-0.02.4-.04,0.79-0.02,1.24a2.754,2.754,0,0,1-.04-1.14A0.437,0.437,0,0,0,1379.56,1077.14Zm-67.4-24.14c-0.09.11-.21,0.25-0.32,0.4,0.12-.2.25-0.43,0.38-0.64C1312.2,1052.84,1312.18,1052.91,1312.16,1053Zm-6.56,10.84c-0.09.33-.18,0.64-0.27,0.98a9.153,9.153,0,0,1-.37,1.48c0.28,0.79-.39,1.16-0.54,2.33-0.1-.07-0.22-0.15-0.33-0.24,0.26-.87.56-1.85,0.78-2.92C1305.09,1064.92,1305.35,1064.37,1305.6,1063.84Zm2.38,29.97-0.01-.01a0.02,0.02,0,0,1,.01.02v-0.01Zm-4.8-12.92c-0.05-.1-0.1-0.21-0.16-0.34-0.04-.22-0.07-0.44-0.11-0.62,0.23,0.3.12-.37,0.3-0.3a9.487,9.487,0,0,1-.15-2.52c0.05,0.68.12,1.45,0.25,2.33,0.01,0.5.07,1.04,0.1,1.53C1303.33,1080.94,1303.25,1080.92,1303.18,1080.89Zm1.45,14.93a0.02,0.02,0,0,0-.01-0.02h0C1304.63,1095.8,1304.63,1095.81,1304.63,1095.82Zm24.86,20.18c-0.07,0-.18-0.02-0.3-0.03-0.3-.1-0.66-0.19-0.98-0.28C1328.65,1115.79,1329.06,1115.9,1329.49,1116Zm1.29,0.52a1.416,1.416,0,0,1-.22-0.07c-0.03-.01-0.05-0.02-0.08-0.03C1330.58,1116.46,1330.68,1116.49,1330.78,1116.52Zm27.42-11.69-0.07-.09c0.09-.05.17-0.09,0.25-0.13,0.44-.11.9-0.25,1.34-0.38l0.03,0.06c-0.16.11-.34,0.22-0.53,0.34A1.842,1.842,0,0,0,1358.2,1104.83Zm-4.21-66.19a2.018,2.018,0,0,1-.76-0.29A6.7,6.7,0,0,1,1353.99,1038.64Zm-26.29-.12c-0.15.24,0.95-.06,1.03,0.08a39.579,39.579,0,0,1,3.84-1.01l0.96-.13c0.81-.14,1.63-0.23,2.45-0.31a1.15,1.15,0,0,1,.26.08c-0.16.07-.31,0.15-0.51,0.24,1.07,0.04.2,0.26-.24,0.45a0.17,0.17,0,0,1-.07.01c-0.16.01-.31,0.02-0.53,0.04a4.825,4.825,0,0,0-2.27.14c-0.27.12-.47,0.25-0.73,0.38a4.549,4.549,0,0,0-1.51.12,10.037,10.037,0,0,0-3.84.51C1326.94,1038.91,1327.32,1038.71,1327.7,1038.52Zm-21.96,18.96,0.6-.96c-0.29.5-.68,1.07-0.94,1.64A2.543,2.543,0,0,1,1305.74,1057.48Zm18.97,56.9c0.47,0.16.88,0.27,1.52,0.47A11.778,11.778,0,0,1,1324.71,1114.38Zm55.39-28.58c0.33-.27.52-0.94,0.54-2.29A5.727,5.727,0,0,0,1380.1,1085.8Zm-65.23-31.63c-0.29.29-.58,0.58-0.83,0.84-0.11.14-.18,0.24-0.26,0.34-0.23.29-.48,0.64-0.72,0.98-0.5,1.69,1.07-1.2,1.71-1.56C1314.66,1054.67,1315.08,1054.15,1314.87,1054.17Zm66.21,27.21a4.618,4.618,0,0,0,.26-2.85C1381.07,1078.77,1381.05,1079.8,1381.08,1081.38Z" transform="translate(-1298.12 -1035.78)"/>
  <path id="安" class="cls-1" d="M1327.02,1074.47a7.564,7.564,0,0,1,2.93-6.2,20.176,20.176,0,0,1,7.29-3.79,1.6,1.6,0,0,1,.48-0.05c-0.04.1-.09,0.24-0.14,0.34-0.48,1.01-.96,2.01-1.39,3.02-1.15,2.64-2.26,5.33-3.36,8.07a1.741,1.741,0,0,1-1.15,1.15q-5.775,2.085-11.38,4.32c-0.48.19-.53,0.48-0.19,0.86a2.04,2.04,0,0,0,1.15.39,9.114,9.114,0,0,0,3.21-.29,17.454,17.454,0,0,0,2.98-1.15c1.25-.58,2.5-1.2,3.75-1.83a0.972,0.972,0,0,1,.28-0.04,0.205,0.205,0,0,1,0,.24c-0.38,1.53-.81,3.02-1.2,4.56a1.385,1.385,0,0,0,.53,1.58,2.071,2.071,0,0,0,1.3.38,0.794,0.794,0,0,0,.86-0.72,4.779,4.779,0,0,1,.43-1.39,1.047,1.047,0,0,1,1.64-.67c0.38,0.14.76,0.34,1.24,0.48,1.06,0.38,2.12.77,3.12,1.2,0.34,0.14.34,0.34,0.1,0.58-0.58.72-1.15,1.39-1.78,2.06a16.172,16.172,0,0,1-5.47,3.07,24.234,24.234,0,0,1-6.19,1.2c-0.72.05-1.39,0.15-2.02,0.24a1.565,1.565,0,0,0-.67.1,1.6,1.6,0,0,1,.67.14,1.238,1.238,0,0,0,.19.05,18.447,18.447,0,0,1,3.22.29,12.138,12.138,0,0,0,4.95,0,27.223,27.223,0,0,0,4.8-1.3,8.746,8.746,0,0,0,2.88-1.68,22.658,22.658,0,0,0,2.4-2.4c0.33-.53.67-0.57,1.1-0.14,1.2,1.15,2.3,2.35,3.41,3.6,1.82,2.35,3.6,4.66,5.42,7.01a0.545,0.545,0,0,1,0,.81l-0.48.39a0.586,0.586,0,0,1-.14.19,0.137,0.137,0,0,0,.19,0,1.9,1.9,0,0,1,1.83.1,0.74,0.74,0,0,0,.76,0,1.064,1.064,0,0,0,.15-0.92,24.055,24.055,0,0,0-1.78-2.97c-1.34-1.73-2.69-3.46-4.08-5.14a30.581,30.581,0,0,0-4.7-4.61,0.25,0.25,0,0,1-.1-0.38,21.559,21.559,0,0,0,2.4-4.95,1.228,1.228,0,0,0-.24-1.53,4.1,4.1,0,0,0-3.07-1.54,10.521,10.521,0,0,1-1.11-.14,6.952,6.952,0,0,1,.68.91,0.8,0.8,0,0,1,.33,1.1l-1.87,4.32c-0.1.34-.34,0.44-0.72,0.2-1.87-.82-3.79-1.64-5.76-2.5a0.44,0.44,0,0,1-.14-0.48,23.106,23.106,0,0,1,1-2.59,1.252,1.252,0,0,1,.72-0.53,24.218,24.218,0,0,1,6.05-1.25c0.87-.09,1.83-0.14,2.74-0.24a40.909,40.909,0,0,1,6.91-.14,15.07,15.07,0,0,1,6.58,1.97,1.227,1.227,0,0,0,1.44-.1,1.771,1.771,0,0,0,.05-1.3,4.007,4.007,0,0,0-3.22-2.4,47.95,47.95,0,0,0-5.18-.48,54.044,54.044,0,0,0-14.41,1.64,2.073,2.073,0,0,1-.52.04c0.04-.14.09-0.33,0.14-0.52a44.378,44.378,0,0,1,5.71-11.62,1.1,1.1,0,0,1,.58-0.29c1.53-.19,3.07-0.38,4.61-0.62a4.228,4.228,0,0,1,3.74.96c0.48,0.33.53,0.67,0.1,1a54.462,54.462,0,0,1-5,4.33,26.709,26.709,0,0,1-5.76,3.36,1.651,1.651,0,0,0-.76.52,6.751,6.751,0,0,0,.96-0.19c2.73-1.05,5.52-2.11,8.25-3.17l3.03-1.44c0.53-.33,1.01-0.67,1.53-1.05a4.784,4.784,0,0,1,1.68-.77,0.682,0.682,0,0,0,.24-0.53,2.285,2.285,0,0,0-1.15-2.16,14.352,14.352,0,0,0-2.3-1.49,6.569,6.569,0,0,0-2.45-.91,16.078,16.078,0,0,0-2.59-.1l-2.84.39h-0.72a3.4,3.4,0,0,0,.48-0.43,0.66,0.66,0,0,0,.2-0.29,13.391,13.391,0,0,1,1.2-1.83,5.045,5.045,0,0,1,1.72-1.44,1.083,1.083,0,0,0,.29-1.53,1.814,1.814,0,0,0-2.11-.63,7.311,7.311,0,0,0-1.68,1.2,35.317,35.317,0,0,0-4.7,6,0.951,0.951,0,0,1-.58.48,41.325,41.325,0,0,0-10.85,5.72,0.214,0.214,0,1,1-.38-0.19c0.14-1.25.24-2.45,0.33-3.7a5.652,5.652,0,0,0-.29-1.25c-0.28.34-.57,0.67-0.86,1.06-0.77,2.49-1.63,4.99-2.45,7.53a1.834,1.834,0,0,0,.19,1.78,9.835,9.835,0,0,0,1.35,1.68,7.3,7.3,0,0,0,1.1.48,2.808,2.808,0,0,0,.34-1.06C1327.07,1074.51,1327.07,1074.51,1327.02,1074.47Z" transform="translate(-1298.12 -1035.78)"/>
</svg>
