<svg id="bi.svg" xmlns="http://www.w3.org/2000/svg" width="83.875" height="83.22" viewBox="0 0 83.875 83.22">
  <defs>
    <style>
      .cls-1 {
        fill: #fff;
        fill-rule: evenodd;
      }
    </style>
  </defs>
  <path id="シェイプ_3" data-name="シェイプ 3" class="cls-1" d="M851.421,1061.19c0.185-.45.367-0.85,0.575-1.28a2.824,2.824,0,0,1,.248-0.32c0.346-.05.678-0.96,1.01-1.87,0.51-.88.6-1.16,0.363-1.36-0.263.4-.532,0.8-0.756,1.17-0.278.38-.522,0.72-0.787,1.1,0.477-.76.989-1.5,1.543-2.27,0.313-.5.323-0.83,0.183-0.89-0.42.51-.849,1.08-1.235,1.62-0.33.22-.281-0.1-0.354-0.13a36.284,36.284,0,0,0-2.684,5.24c-0.144.37-.279,0.75-0.4,1.14,0.132,0.26.287,0.49,0.436,0.76,0.033-.09.048-0.13,0.085-0.22,0.185,0.19.329,0.33,0.479,0.48A32.638,32.638,0,0,1,851.421,1061.19Zm-0.035-1.72c0.206-.31.4-0.63,0.606-0.95a17.355,17.355,0,0,0-.939,1.64A2.652,2.652,0,0,1,851.386,1059.47Zm-2.494,7.38a9.568,9.568,0,0,0,.44-2.13,5.029,5.029,0,0,0-.842,2.64A1.332,1.332,0,0,0,848.892,1066.85Zm48.732,51c0.01-.02.015-0.04,0.025-0.06l0.122-.31c0.492-.14.878-0.28,1.307-0.41a4.118,4.118,0,0,0-.5-0.49,0.59,0.59,0,0,0-.013-0.11c0.574-.15,1.159-0.36,2.413-0.61,0.01-.03.015-0.04,0.025-0.07l0.122-.31c0.492-.14.878-0.27,1.307-0.4a4.047,4.047,0,0,0-.5-0.49,1.107,1.107,0,0,0-.1-0.4c0.042-.13.06-0.17-0.868-0.08-0.261-.05-0.572-0.09-0.831-0.16-0.047-.12-0.04-0.27-0.084-0.39,0.242-.28.482-0.58,0.763-0.88,0.361-.14.435-0.24,0.741-0.36,0.041-.14.087-0.3,0.127-0.44a1.8,1.8,0,0,0-.078-0.51c-0.018-.09.263-0.33-0.143-0.26-0.236-.09-0.464-0.2-0.74-0.28a0.5,0.5,0,0,0,.31-0.35c-0.363.09-.728,0.18-1.09,0.25-0.96.05-.4-0.34-1.825-0.06-0.115.22-1.291,0.32-1.272,0.58-1.644.2-2.894,0.06-4.227,0.19-1.049-.06-1.534.09-2.322,0.02-0.325.12-1.362-.25-1.21,0.02a24.363,24.363,0,0,1-5.544-.82c-0.142.68-2.013-.61-2.883-0.54-0.52-.58-2.137-0.64-2.979-1.38a28.681,28.681,0,0,1-6.111-3.39,27.586,27.586,0,0,1-6.027-5.36c-0.171.03-.445-0.39-0.673-0.42-0.727-.85-1.456-1.76-2.138-2.7a32.138,32.138,0,0,1-3.207-5.44c-0.206-.13-0.332-0.83-0.688-0.77a3.822,3.822,0,0,0-.784-1.93c-0.037-.43-0.519-1.35-0.269-1.36a2.319,2.319,0,0,0-.319-0.79,4.784,4.784,0,0,1-.416-1.21c-0.166-.34-0.286-0.65-0.453-1.04,0.32,0.19-.007-0.91-0.1-0.97a6.2,6.2,0,0,0-.581-1.48c-0.014-.08-0.022-0.12-0.036-0.21a1.623,1.623,0,0,0-.148-1.43,2.772,2.772,0,0,0-.348-1.68c-0.041-.22-0.069-0.45-0.108-0.63,0.226,0.3.123-.37,0.3-0.3-0.362-1.39,0-3.81-.117-5.21,0.055-.55.118-1.06,0.2-1.61a14.162,14.162,0,0,0,.283-2.54c0.025-.12.058-0.25,0.1-0.41,0.286-1.16.848-2.66,1.2-4.39,0.475-1.18,1.093-2.31,1.554-3.35a9.834,9.834,0,0,1,1.129-1.32,16.88,16.88,0,0,1,2.8-4.34c0.174-.26.436-0.52,0.443-0.35,0.275-.33.52-0.62,0.808-0.94a1.589,1.589,0,0,0,.674-1.26l-0.585.18c0.061-.25.1-0.46,0.136-0.67,0.154-.26.33-0.57,0.5-0.83,0.1-.09.193-0.19,0.319-0.31a39.823,39.823,0,0,1,4.878-3.8c0.057,0.12.12,0.24,0.177,0.36,0.341-.12.687-0.23,1.025-0.34a2.661,2.661,0,0,0,.7-0.53c1.813-.65,4.633-1.66,5.874-2.26,0.478-.17,1.006-0.34,1.5-0.47,0.583-.12,1.124-0.22,1.715-0.32-0.282.55,1.31-.23,1.956-0.02,0.912-.11.722,0.2,1.766,0.04a6.138,6.138,0,0,1,.65-0.27,4.211,4.211,0,0,0,1.345-.18h0.413a34.656,34.656,0,0,1,6.515.83c0.577,0.13,1.144.28,1.713,0.43,0.4,0.1.848,0.19,1.289,0.31,1.29,0.42,1.895.69,3.118,1l0.38,0.15c1.425,0.66,2.337,1.35,4.152,2.24a3.576,3.576,0,0,1,1.158.6,37.591,37.591,0,0,1,4.068,3c1.013,1.16,1.9,1.25,2.8,2.5a34.353,34.353,0,0,1,7.726,11.9c0.2,0.29.383,0.59,0.569,0.88,0.3,0.92.567,1.79,0.791,2.68-0.2.4,0.517,1.96,0.314,2.36,0.168,0.52.207,1.46,0.453,1.52,0.38,0.35.1,1.03,0.26,1.59,0.033,1.02.114,1.84,0.085,2.94a5.7,5.7,0,0,0,.112,1.76c-0.252.3-.017,1.85-0.31,2.13-0.043.86-.107,1.71-0.192,2.52a5.857,5.857,0,0,0-.277.93c0.41,2.05-.9,1.01-0.892,3.41a8.131,8.131,0,0,1-1.233,3.03c-0.712,1-.329,1.45-0.733,2.25a2.049,2.049,0,0,1-.464.4,1.7,1.7,0,0,0-.3.71,5.531,5.531,0,0,1-.946,1.52c-0.209.49-.455,0.48-0.5,0.35-0.236.37-.51,0.77-0.762,1.14-0.323.41-.623,0.79-0.963,1.19-0.348.29-.811,1.07-1,0.95-0.207.25-.4,0.46-0.64,0.74-0.162.17-.327,0.35-0.519,0.55-0.47.45-.939,0.89-1.426,1.32-0.239.17-.449,0.33-0.641,0.48a0.854,0.854,0,0,0-.145.04l-0.159-.25c-0.844.2-1.55,1.1-2.492,1.36-0.341.36-1.513,0.71-1.607,0.98a6.867,6.867,0,0,1-1.744,1.01c-0.377.4-1.766,0.79-1.6,1.07a2.719,2.719,0,0,0,1.085-.41c0.437-.1.9-0.25,1.337-0.38,0.056,0.11.108,0.2,0.162,0.31l-0.049.06c-0.447.16-.911,0.32-1.353,0.46-0.548.21-1.142,0.42-1.7,0.6a6.507,6.507,0,0,0-1.745.5c0.584-.09,1.165-0.2,1.781-0.34,0.732-.19,1.422-0.39,2.139-0.62,0.129-.05.28-0.11,0.437-0.17-0.264.18-.522,0.34-0.8,0.52a3.478,3.478,0,0,0-1.043.61c-0.23.11-.457,0.21-0.728,0.32-0.547.2-1.138,0.4-1.693,0.58-0.548.2-1.143,0.41-1.7,0.6a6.775,6.775,0,0,0-1.745.49c0.584-.08,1.165-0.19,1.781-0.33,0.732-.2,1.422-0.4,2.139-0.63,0.16-.05.355-0.13,0.554-0.21a12.8,12.8,0,0,0,3.023-1.15q0.672-.21,1.334-0.45c0.061,0.12.1,0.19,0.136,0.26,0.878-.44,1.7-0.91,2.524-1.43,0.309-.22.6-0.41,0.883-0.6,0.857-.43,1.66-0.89,2.469-1.4,1.294-.9,2.313-1.46,3.407-2.3,1.3-1.29,2.82-2.26,3.914-3.59,0.223-.26.459-0.51,0.673-0.77,0.328-.35.657-0.74,0.956-1.11,0.243-.35.458-0.67,0.688-1.03,0.029,0.27.071,0.57,0.092,0.85,0.143,0.26.536,0.11,0.788,0.01,0.289-.39.553-0.8,0.848-1.24,0.206-.28.4-0.53,0.622-0.86,0.356-.67.689-1.39,1-2.07a31.918,31.918,0,0,0,2.786-7.06c0.283-.56.441-2.2,0.628-2.69,0.067-.49.132-0.97,0.178-1.45,0.025-.26.059-0.57,0.076-0.83,0.342,0.01.336-1.11,0.217-1.48a37.045,37.045,0,0,0-.088-4.24c-0.011-.35-0.024-0.71-0.047-1.06,0.264-.17.037-1.42-0.187-1.89-0.031-.22-0.071-0.44-0.112-0.66,0-.53-0.038-1.1-0.085-1.68,0.269,0.25.132-.46,0.325-0.25,0.17,0.17.32,0.29,0.475,0.42,0.19,0.61.405,1.28,0.835,2.54,0.109,1.04.175,2.04,0.192,3.09-0.253.17-.213,1.24,0.071,2.59,0.1-.49.166-0.98,0.226-1.48,0.09,0.01.168,0.01,0.259,0.02,0.013,0,.039.01,0.052,0.01,0.022-.23.035-0.46,0.036-0.69q-0.026-.555-0.072-1.11a1.323,1.323,0,0,0-.433-0.65,3.057,3.057,0,0,0,.2-1.56c-0.072-.41-0.165-0.87-0.271-1.32-0.085-.41-0.192-0.86-0.294-1.27h-0.065c-0.14-.31-0.291-0.57-0.443-0.88-0.265-1.21-.709-2.53-0.959-3.6a38.637,38.637,0,0,0-2.465-5.96,3.247,3.247,0,0,0-.945-1.83,40.422,40.422,0,0,0-4.952-6.79,1.885,1.885,0,0,0-.586-0.98,4.073,4.073,0,0,0-1.022-.69c-0.469-.55-0.925-1.04-1.389-1.53-0.728-.72-1.5-1.4-2.295-2.05-0.325-.3-0.7-0.62-1.072-0.93-0.354-.21-0.669-0.38-1.067-0.6-0.581-.39-1.172-0.77-1.816-1.15a5.378,5.378,0,0,0-1.438-.83c-0.422-.26-0.837-0.53-1.227-0.76,0.522,0.14.153-.28,0.71-0.17a7,7,0,0,0-1.251-.69c-0.376-.08-0.7-0.15-1.078-0.23l-0.188-.08c0.241-.08-0.1-0.3-0.3-0.45a8.244,8.244,0,0,0-1.92-.59c-0.452-.22-0.664-0.37-0.886-0.49a5.824,5.824,0,0,0-1.941-.51c-0.51-.13-0.966-0.24-1.487-0.35q-0.823-.24-1.659-0.45a9.526,9.526,0,0,0-1.734-.39c-0.448.02-.893,0.05-1.338,0.08-1.1-.12-2.2-0.21-3.251-0.25-0.367-.02-0.683-0.03-1.051-0.05a6.231,6.231,0,0,0-1.418-.4,9.091,9.091,0,0,0-1.818.15c-0.158.01-.315,0.02-0.528,0.03a5.114,5.114,0,0,0-2.272.14c-0.265.12-.471,0.25-0.729,0.38a4.618,4.618,0,0,0-1.514.13c-1.339-.24-3.685.41-5.693,1.06-0.331.21-.605,0.4-0.927,0.62-0.946.31-1.878,0.67-2.8,1.05a1.637,1.637,0,0,0-1.227.32c-0.288.38-1.835,0.93-2.486,1.65a3.168,3.168,0,0,0-.865.34c-0.327.44-2.283,1.09-2.7,1.97-0.176.11-.4,0.24-0.616,0.37-0.267.16-.566,0.36-0.825,0.53-0.321.26,0.683-.27,0.34-0.02a5.164,5.164,0,0,0-1.39,1.39c0.662-.19.666-0.42,2.1-1.48a3.959,3.959,0,0,0,1.248-.54v0.02a2.1,2.1,0,0,0,.912-0.53,7.946,7.946,0,0,1,1.367-.64c0.388-.26.816-0.56,1.264-0.83,0.61-.27.949-0.4,1.329-0.56,0.55-.3,1.065-0.57,1.585-0.82-0.152.23,0.947-.06,1.028,0.07a39.479,39.479,0,0,1,3.835-1c0.187-.03.393-0.06,0.6-0.08a1.578,1.578,0,0,0-.311.17c0.013,0.06.024,0.11,0.036,0.17a7.024,7.024,0,0,1-.332.7c-0.18.1-.367,0.21-0.558,0.33a7.086,7.086,0,0,0-2.5.8c0.013,0.06.024,0.1,0.035,0.16-0.082.19-.162,0.39-0.267,0.59a3.539,3.539,0,0,0-.955.57c-0.389.19-.775,0.38-1.159,0.59a2.773,2.773,0,0,0-.26.1c0,0.01,0,.02.009,0.03-0.449.24-.9,0.5-1.348,0.77-0.6.34-1.18,0.71-1.751,1.09-0.533.28-1.064,0.58-1.6,0.9-1.093.63-2.139,1.35-3.154,2.06a32.649,32.649,0,0,0-2.624,1.98c-0.739.61-1.447,1.25-2.133,1.91a6.093,6.093,0,0,0-2,1.92c-0.039.2-.079,0.41-0.138,0.64-0.114.15-.257,0.32-0.4,0.5,0.048-.43-0.375.11-0.552,0.22-0.258.39-.5,0.79-0.706,1.17,0.152-.33.3-0.74,0.453-1.15,0.51-.89.6-1.16,0.363-1.37-0.263.41-.532,0.81-0.756,1.18-0.278.37-.522,0.71-0.787,1.09,0.477-.76.989-1.5,1.543-2.27,0.314-.5.323-0.83,0.183-0.89-0.42.51-.849,1.09-1.235,1.63-0.33.22-.281-0.11-0.353-0.14a36.318,36.318,0,0,0-2.685,5.25c-0.144.37-.279,0.75-0.4,1.13,0.131,0.26.286,0.49,0.436,0.76,0.032-.09.047-0.13,0.084-0.22,0.032,0.03.063,0.07,0.093,0.1a5.733,5.733,0,0,1-.424.76,1.242,1.242,0,0,0-.226.32c-0.14.18-.281,0.35-0.445,0.6a6.964,6.964,0,0,1-.1-0.72l-0.135-.14c-0.126.3-.238,0.55-0.343,0.81-0.456,1.28.136,0.91-.072,1.92-0.139.44-.252,0.84-0.373,1.29a8.66,8.66,0,0,1-.362,1.47c0.275,0.8-.4,1.17-0.546,2.33-0.1-.07-0.219-0.15-0.334-0.23,0.133-.73.278-1.45,0.456-2.17a0.145,0.145,0,0,0-.055-0.04c-0.169.13-.326,0.27-0.494,0.4-0.136.59-.239,1.15-0.334,1.76-0.129.62-.248,1.3-0.344,1.94-0.06.51-.113,1.07-0.137,1.59-0.073.64-.1,1.1-0.133,1.51-0.087.43-.183,0.85-0.255,1.23,0.24,1.21.208,2.67,0.519,4.83,0.016,0.49.069,1.04,0.1,1.53-0.246-.09-0.479-0.17-0.726-0.26-0.061-.47-0.1-0.94-0.144-1.35-0.046-.83-0.066-1.61-0.074-2.44-0.078-.04-0.17-0.08-0.249-0.12-0.031-.25-0.052-0.49-0.077-0.69,0.13-.54.253-1.09,0.4-1.63a5,5,0,0,1-.161-0.51c-0.04-1.22-.073-1.65-0.395-1.64,0-.4,0-0.79.011-1.19a20.476,20.476,0,0,0,.392-3.49,7.282,7.282,0,0,0-.573,3.37c-0.152,1.12-.27,2.24-0.341,3.37,0.021,0.15.043,0.31,0.052,0.46,0.076,0.04.167,0.09,0.244,0.13-0.014.33-.008,0.62-0.012,0.94-0.327.79-.031,2.15,0.148,3.41,0.073,0.8.164,1.65,0.288,2.44,0.093,0.48.207,0.96,0.294,1.39,0.142,0.61.278,1.22,0.448,1.83,0.032,0.27.1,0.59,0.142,0.86,0.061,0.23.1,0.41,0.168,0.65l0.063,0.65c-0.1-.02-0.187-0.04-0.288-0.06a0.061,0.061,0,0,0-.057-0.01,1.779,1.779,0,0,0,.389,1.5c0.154,0.46.288,0.88,0.457,1.33,0.172,0.25.355,0.49,0.516,0.69,0.04,0.17.078,0.31,0.1,0.44,0,0.34-.124.32-0.1,0.58,0.329,0.73.676,1.49,1.028,2.16,0.285,0.58.618,1.23,0.429,1.27a12.458,12.458,0,0,0,1.418,2.3c0.293,0.34.609,0.68,0.915,1.02a2.25,2.25,0,0,0,.948,1.19,1.9,1.9,0,0,0,.08-0.42c0.225,0.2.476,0.39,0.705,0.59,0.458,0.64.939,1.27,1.432,1.9a1.481,1.481,0,0,0,.161.57c0.624,0.69,1.275,1.71,2.034,1.96a11.823,11.823,0,0,0,1.975,1.65c0.182,0.18.333,0.31,0.518,0.48a3.634,3.634,0,0,0,1.017,1.22,2.666,2.666,0,0,0,1.216.7c0.3,0.13.54,0.23,0.841,0.35a39.727,39.727,0,0,0,3.418,2.17c0.1,0.1.22,0.18,0.368,0.31a3.988,3.988,0,0,0,1.285.95c0.512,0.13,1.448.87,2.16,0.76,0.384,0.18.788,0.34,1.175,0.51,0.653,0.31,1.295.62,2.017,0.93a15.667,15.667,0,0,0,5.074,1.39,1.948,1.948,0,0,0,1.122.11,8.77,8.77,0,0,0,2.985.32c0.466,0.08.99,0.15,1.516,0.22,0.6,0.33.038,0.44,0.479,0.76,0.635,0.02,1.272.01,1.908,0,0.9,0,1.448-.06,2.178-0.01,0.363-.05.78-0.11,1.136-0.17a11.716,11.716,0,0,0,2.348-.15C895.3,1118.58,895.527,1118.27,897.624,1117.85Zm27.984-41.52c-0.01-.35-0.023-0.7-0.046-1.05,0.264-.18.037-1.42-0.187-1.9-0.032-.22-0.072-0.43-0.112-0.66,0-.53-0.038-1.1-0.085-1.68,0.151,0.14.174-.01,0.2-0.15,0,0.01.007,0.01,0.011,0.01,0.381,0.35.1,1.02,0.26,1.59,0.033,1.02.114,1.83,0.086,2.93a5.749,5.749,0,0,0,.111,1.77,2.2,2.2,0,0,0-.138,1.01C925.689,1077.57,925.657,1076.95,925.608,1076.33Zm-0.418,4.05a2.669,2.669,0,0,1-.037-1.15,0.229,0.229,0,0,0,.052-0.1C925.19,1079.53,925.168,1079.93,925.19,1080.38Zm3.366-3.24c-0.015.4-.037,0.79-0.015,1.24a2.623,2.623,0,0,1-.037-1.14A0.309,0.309,0,0,0,928.556,1077.14ZM861.16,1053c-0.093.11-.2,0.25-0.32,0.4,0.118-.2.248-0.43,0.376-0.64C861.2,1052.84,861.181,1052.91,861.16,1053Zm-6.557,10.84c-0.1.33-.185,0.64-0.277,0.98a8.681,8.681,0,0,1-.362,1.48c0.275,0.79-.4,1.16-0.545,2.33-0.1-.07-0.217-0.15-0.332-0.24,0.264-.87.564-1.85,0.785-2.92C854.1,1064.92,854.349,1064.37,854.6,1063.84Zm2.373,29.97c0-.01,0-0.01,0-0.01s0.008,0.01.012,0.02S856.979,1093.81,856.976,1093.81Zm-4.8-12.92c-0.043-.1-0.094-0.21-0.157-0.34-0.041-.22-0.069-0.44-0.108-0.62,0.226,0.3.123-.37,0.3-0.3a9.821,9.821,0,0,1-.154-2.52c0.055,0.68.125,1.45,0.253,2.33,0.015,0.5.068,1.04,0.1,1.53C852.331,1080.94,852.253,1080.92,852.176,1080.89Zm1.457,14.93c0-.01,0-0.01-0.008-0.02h0A0.029,0.029,0,0,1,853.633,1095.82ZM878.489,1116c-0.071,0-.18-0.02-0.3-0.03-0.3-.1-0.665-0.19-0.976-0.28C877.646,1115.79,878.063,1115.9,878.489,1116Zm1.295,0.52a1.451,1.451,0,0,1-.228-0.07l-0.071-.03C879.584,1116.46,879.684,1116.49,879.784,1116.52Zm27.411-11.69-0.062-.09c0.084-.05.167-0.09,0.249-0.13,0.437-.11.9-0.25,1.337-0.38,0.011,0.02.022,0.04,0.032,0.06-0.162.11-.337,0.22-0.532,0.34A1.857,1.857,0,0,0,907.2,1104.83Zm-4.205-66.19a2,2,0,0,1-.762-0.29A6.386,6.386,0,0,1,902.99,1038.64Zm-26.285-.12c-0.153.24,0.946-.06,1.027,0.08a39.639,39.639,0,0,1,3.835-1.01c0.3-.04.66-0.09,0.962-0.13,0.812-.14,1.632-0.23,2.448-0.31a1,1,0,0,1,.258.08c-0.154.07-.31,0.15-0.507,0.24,1.072,0.04.2,0.26-.238,0.45a0.168,0.168,0,0,1-.07.01c-0.158.01-.315,0.02-0.528,0.04a4.839,4.839,0,0,0-2.272.14c-0.265.12-.472,0.25-0.729,0.38a4.592,4.592,0,0,0-1.515.12,10.038,10.038,0,0,0-3.837.51C875.935,1038.91,876.318,1038.71,876.705,1038.52Zm-21.968,18.96c0.206-.32.4-0.64,0.606-0.96a17.355,17.355,0,0,0-.939,1.64A2.6,2.6,0,0,1,854.737,1057.48Zm18.977,56.9c0.463,0.16.879,0.27,1.518,0.47A11.673,11.673,0,0,1,873.714,1114.38Zm55.39-28.58c0.324-.27.511-0.94,0.538-2.29A5.684,5.684,0,0,0,929.1,1085.8Zm-65.237-31.63c-0.291.29-.574,0.58-0.83,0.84-0.1.14-.18,0.24-0.257,0.34-0.234.29-.477,0.64-0.723,0.98-0.5,1.69,1.075-1.2,1.708-1.56C863.66,1054.67,864.081,1054.15,863.867,1054.17Zm66.212,27.21a4.607,4.607,0,0,0,.262-2.85C930.069,1078.77,930.049,1079.8,930.079,1081.38Z" transform="translate(-847.125 -1035.78)"/>
  <path id="美" class="cls-1" d="M886.956,1070.14c0.528-.15.768,0.09,0.768,0.62a11.769,11.769,0,0,0,.048,1.3c0.1,0.38-.048.57-0.48,0.57-0.816.2-1.584,0.34-2.4,0.53-1.441.34-2.833,0.67-4.273,1.11-0.1.09-.24,0.19-0.336,0.28l0.336,0.2c1.1,0.19,2.16.33,3.265,0.43a14.863,14.863,0,0,0,3.264-.1c0.24,0,.48.05,0.72,0.05a2.926,2.926,0,0,0-.048.62,0.655,0.655,0,0,1-.192.53,15.519,15.519,0,0,1-6.289,3.6,0.991,0.991,0,0,0-.576.58,7.017,7.017,0,0,0,.72,1.73,1.179,1.179,0,0,0,.768.28,19.358,19.358,0,0,0,3.265-.28,114.234,114.234,0,0,1,12.817-2.02,0.765,0.765,0,0,0,.48-0.53,2.015,2.015,0,0,0-.816-0.96,7.012,7.012,0,0,0-1.152-.53,2.119,2.119,0,0,0-1.2-.19c-1.393.19-2.737,0.48-4.033,0.72-0.384.15-.528,0-0.48-0.33a10.719,10.719,0,0,0,.24-1.78,1.429,1.429,0,0,1,.288-0.38c1.248-.72,2.5-1.4,3.793-2.02a0.613,0.613,0,0,0,.288-1.01c-0.673-.57-1.393-1.1-2.065-1.63a0.97,0.97,0,0,0-1.44-.1c-0.336.29-.576,0.24-0.816-0.19a8.992,8.992,0,0,0-.864-1.15,0.511,0.511,0,0,0-.192-0.34c0.1-.04.24-0.09,0.384-0.14a8.53,8.53,0,0,0,2.208-.29c1.68-.48,3.265-1.01,4.849-1.58,0.384-.15.48-0.34,0.24-0.68a5.11,5.11,0,0,0-2.5-1.72,0.679,0.679,0,0,0-.337.09l-4.848,1.39a47.2,47.2,0,0,1-10.081,2.21,1.1,1.1,0,0,0-.576.24,1.526,1.526,0,0,0-.288.24,0.287,0.287,0,0,1,.288.15,17.6,17.6,0,0,0,3.6.53C884.508,1070.19,885.756,1070.19,886.956,1070.14Zm-3.072,9.89H883.4c0.048-.05.144-0.1,0.192-0.15,1.153-.62,2.3-1.25,3.5-1.82a1.285,1.285,0,0,1,.624-0.15,3.06,3.06,0,0,1,.048.68,3.592,3.592,0,0,1-.048.76,0.441,0.441,0,0,1-.288.2C886.236,1079.74,885.084,1079.88,883.884,1080.03Zm24.53,7.48c0.528-.04.672-0.28,0.48-0.72a0.715,0.715,0,0,0-.336-0.57,7.812,7.812,0,0,0-2.4-1.97c-0.912-.48-1.872-0.91-2.832-1.3h-0.24a1.08,1.08,0,0,1-.912.53,3.748,3.748,0,0,1-1.056.05,49.449,49.449,0,0,0-9.649,1.06,0.45,0.45,0,0,1-.72-0.29,3.068,3.068,0,0,0-1.488-1.78,1.462,1.462,0,0,1-.48-0.24,0.749,0.749,0,0,0-.432-0.19,17.643,17.643,0,0,0-2.112.96,0.582,0.582,0,0,0-.1.62c0.288,0.29.624,0.63,0.96,0.92a3.534,3.534,0,0,0,.336.57,2.158,2.158,0,0,1-.672.34c-1.44.33-2.88,0.72-4.321,1.1-2.784.82-5.616,1.68-8.4,2.55a18.9,18.9,0,0,0-2.4.62,1.008,1.008,0,0,0-.72.53,1.359,1.359,0,0,0,.384.48,4.356,4.356,0,0,0,2.689,1.2,5.437,5.437,0,0,0,1.488-.43c2.448-.87,4.944-1.78,7.44-2.69l3.313-1.11c0.288-.14.384-0.04,0.288,0.29a12.876,12.876,0,0,1-4.657,6.92,27.665,27.665,0,0,1-6.768,3.79,1.749,1.749,0,0,1-.336.24,0.753,0.753,0,0,0,.432.09,13.408,13.408,0,0,0,2.688-.33,31.458,31.458,0,0,0,4.416-1.78,10.478,10.478,0,0,0,4.081-2.88,17.892,17.892,0,0,1,1.44-1.73,8.4,8.4,0,0,0,2.592-5.04,0.66,0.66,0,0,1,.624-0.57c2.016-.29,3.984-0.53,5.905-0.82a24.248,24.248,0,0,1,10.9,1.39A3.234,3.234,0,0,1,908.414,1087.51Zm-16.994,3.7a0.159,0.159,0,0,1-.048.14,1.363,1.363,0,0,0-.72.05l-0.72.48a2.138,2.138,0,0,0,.624.39,24.4,24.4,0,0,1,2.688.91,42.912,42.912,0,0,1,4.081,2.5,20.33,20.33,0,0,1,3.5,3.21,3.961,3.961,0,0,0,2.976,1.39,1.679,1.679,0,0,0,.432-0.28,1.95,1.95,0,0,0,.24-1.83,7.454,7.454,0,0,0-2.064-2.78,17.785,17.785,0,0,0-5.328-2.79C895.212,1092.12,893.34,1091.64,891.42,1091.21Zm5.809-28.42c0.384-.09.768-0.24,1.2-0.33,0.912-.34,1.824-0.72,2.688-1.11a0.954,0.954,0,0,0,.336-0.77,4.258,4.258,0,0,0-1.008-1.82,14.3,14.3,0,0,0-1.632-1.39,2.286,2.286,0,0,0-2.448-.63,12.833,12.833,0,0,0-2.305.77,1.589,1.589,0,0,0-.24.48c0.144,0.05.288,0.1,0.48,0.15,0.432,0.09.864,0.24,1.345,0.33a0.46,0.46,0,0,1,.144.77,25.094,25.094,0,0,1-2.257,2.74,27.771,27.771,0,0,1-2.688,2.59,1.771,1.771,0,0,1-.288.43,2.571,2.571,0,0,1,.384-0.19A10.524,10.524,0,0,1,897.229,1062.79Zm-19.154-2.83c0.1,0.53.192,1.06,0.288,1.58a2.5,2.5,0,0,0,.72,1.35c0.432,0.43.864,0.81,1.344,1.25a22.222,22.222,0,0,0,2.688,1.39,0.971,0.971,0,0,0,1.009-.19,2.372,2.372,0,0,0,0-1.16,1.545,1.545,0,0,0-.577-0.86,2.178,2.178,0,0,1-.24-2.16,1,1,0,0,0,.192-0.38,1.615,1.615,0,0,0-.1-0.82,1.435,1.435,0,0,0-.624.19,1.861,1.861,0,0,1-.384.19,2.668,2.668,0,0,0-.672.2,0.87,0.87,0,0,1-.672,0,4.324,4.324,0,0,1-1.344-1.68c-0.24-.53-0.576-0.58-1.056-0.24C878.459,1059.1,878.267,1059.53,878.075,1059.96Z" transform="translate(-847.125 -1035.78)"/>
</svg>
