<svg xmlns="http://www.w3.org/2000/svg" width="395" height="207.75" viewBox="0 0 395 207.75">
  <defs>
    <style>
      .cls-1 {
        fill: #bf8c4e;
        fill-rule: evenodd;
        opacity: 0.3;
      }
    </style>
  </defs>
  <path id="cloud2.svg" class="cls-1" d="M1947.55,2545.43h0l-0.12-.12a22.812,22.812,0,0,0-13.11-5.74c-0.7-.06-1.43-0.09-2.17-0.09H1820.07a17.29,17.29,0,0,1-9.74-31.16,16.955,16.955,0,0,1,9.74-3.36h51.19a15.573,15.573,0,0,0,6.92-1.64h0.03a0.328,0.328,0,0,0,.14-0.06,18.226,18.226,0,0,0,6.39-5.33,25.93,25.93,0,0,0,5.28-16.1c0-9.44-4.57-17.86-11.64-21.42a0.317,0.317,0,0,1-.15-0.06h-0.05a15.825,15.825,0,0,0-6.92-1.62H1745.1a9.888,9.888,0,0,1-3.81-.76h0c-5.4-2.3-9.03-8.92-9.03-16.48s3.63-14.18,9.03-16.48a9.743,9.743,0,0,1,3.84-.79h187.05c0.65,0,1.29-.03,1.94-0.09h0.26a22.812,22.812,0,0,0,13.08-5.74,1.2,1.2,0,0,0,.11-0.12h0a9.428,9.428,0,0,0,.85-0.82,22.887,22.887,0,0,0,6.78-16.39,23.142,23.142,0,0,0-7.63-17.16h0a0.911,0.911,0,0,0-.11-0.12,22.942,22.942,0,0,0-13.11-5.74c-0.7-.05-1.44-0.08-2.17-0.08H1579.39a23.145,23.145,0,0,0,0,46.29h39.08a16.9,16.9,0,0,1,6.42,1.23,17.186,17.186,0,0,1,10.73,16.01,17.992,17.992,0,0,1-1,5.86,16.981,16.981,0,0,1-4.04,6.35,17.244,17.244,0,0,1-5.72,3.8,16.794,16.794,0,0,1-6.42,1.23h-74.77a16.07,16.07,0,0,0-10.9,4.36,0.453,0.453,0,0,1-.12.12l-0.03.03c-4.78,4.29-7.62,11.24-7.62,18.62s2.87,14.36,7.62,18.66h0l0.09,0.09a16.2,16.2,0,0,0,10.94,4.35h190.83a17.526,17.526,0,0,1,4.78.68,17.3,17.3,0,0,1,9.74,25.81,16.024,16.024,0,0,1-2.41,2.97,16.7,16.7,0,0,1-7.33,4.36,17.517,17.517,0,0,1-4.78.67h-75.79a22.987,22.987,0,0,0-10.99,2.83h-0.03c-0.09.06-.18,0.09-0.26,0.14a23.189,23.189,0,0,0,0,40.32c0.08,0.06.2,0.09,0.29,0.15h0a22.868,22.868,0,0,0,11.02,2.82h273.43c0.65,0,1.29-.03,1.94-0.09h0.26a22.865,22.865,0,0,0,13.08-5.73l0.12-.12h0c0.29-.27.58-0.53,0.85-0.83a22.9,22.9,0,0,0,6.77-16.39,23.147,23.147,0,0,0-7.62-17.15v0.03Zm-136.07-2a21.516,21.516,0,0,0,5.54,1.58v34.82h-5.54v-36.4Zm11.4,1.91h5.54v34.52h-5.54v-34.52Zm11.41,0h5.54v34.52h-5.54v-34.52Zm11.4,0h5.54v34.52h-5.54v-34.52Zm11.41,0h5.54v34.52h-5.54v-34.52Zm11.4,0h5.54v34.52h-5.54v-34.52Zm11.41,0h5.54v34.52h-5.54v-34.52Zm11.4,0h5.54v34.52h-5.54v-34.52Zm11.41,0h5.54v34.52h-5.54v-34.52Zm11.4,0h5.54v34.52h-5.54v-34.52Zm11.41,0h5.54v34.52h-5.54v-34.52Zm11.4,0.73a16.71,16.71,0,0,1,5.54,2.86v27.31a16.873,16.873,0,0,1-5.54,2.85v-33.02Zm-131.38-6.23v40.02h-5.54v-46.97A23.691,23.691,0,0,0,1805.55,2539.84Zm-51.19-6.1a22.891,22.891,0,0,0,0-23.04v-46.14h5.54v115.3h-5.54v-46.12Zm11.41-69.18h5.54v115.3h-5.54v-115.3Zm11.4,0h5.54v115.3h-5.54v-115.3Zm11.41,0h5.54v115.3h-5.54v-115.3Zm11.4,46.97v-46.97h5.54v40.02A23.185,23.185,0,0,0,1799.98,2511.53Zm51.19-12.48h-5.54v-34.49h5.54v34.49Zm5.87-34.49h5.54v34.49h-5.54v-34.49Zm-17.27,34.49h-5.54v-34.49h5.54v34.49Zm-11.41,0h-5.54v-34.49h5.54v34.49Zm-11.4.29a24.438,24.438,0,0,0-5.54,1.59v-36.4h5.54v34.81Zm67.08-17.56a20.4,20.4,0,0,1-4.02,12.47,0.64,0.64,0,0,1-.14.15v-25.19a20.293,20.293,0,0,1,4.16,12.59v-0.02ZM1874.01,2465v33.52a9.584,9.584,0,0,1-2.87.47h-2.7V2464.5h2.7a10.833,10.833,0,0,1,2.87.47V2465Zm-142.46-39.75v-41.5h5.54v36.73a19.587,19.587,0,0,0-5.54,4.8v-0.03Zm-91.27,23.42a23.265,23.265,0,0,0,0-14.57v-50.35h5.54v115.3h-5.54v-50.38Zm11.46-64.92h5.55v115.3h-5.55v-115.3Zm11.41,0h5.54v115.3h-5.54v-115.3Zm11.41,0h5.54v115.3h-5.54v-115.3Zm11.4,0h5.54v115.3h-5.54v-115.3Zm11.41,0h5.54v115.3h-5.54v-115.3Zm11.4,0h5.54v115.3h-5.54v-115.3Zm11.41,0h5.54v115.3h-5.54v-115.3Zm22.81,34.73v-34.73h5.54v34.52h-3.52A15.2,15.2,0,0,0,1742.99,2418.48Zm199.51-3.8a16.807,16.807,0,0,1-5.54,2.86v-33.05a16.972,16.972,0,0,1,5.54,2.85v27.34Zm-11.4,3.59h-5.54v-34.52h5.54v34.52Zm-11.41,0h-5.54v-34.52h5.54v34.52Zm-11.4,0h-5.54v-34.52h5.54v34.52Zm-11.41,0h-5.54v-34.52h5.54v34.52Zm-11.4,0h-5.54v-34.52h5.54v34.52Zm-11.41,0h-5.54v-34.52h5.54v34.52Zm-11.4,0h-5.54v-34.52h5.54v34.52Zm-11.41,0h-5.54v-34.52h5.54v34.52Zm-11.4,0h-5.55v-34.52h5.55v34.52Zm-11.41,0h-5.54v-34.52h5.54v34.52Zm-11.4,0h-5.55v-34.52h5.55v34.52Zm-11.41,0h-5.54v-34.52h5.54v34.52Zm-11.4,0h-5.55v-34.52h5.55v34.52Zm-11.41,0h-5.54v-34.52h5.54v34.52Zm-11.4,0h-5.55v-34.52h5.55v34.52Zm-11.41,0h-5.54v-34.52h5.54v34.52ZM1949.36,2401a17.421,17.421,0,0,1-.91,5.53v-11.04A17.391,17.391,0,0,1,1949.36,2401Zm-377.48-15.48a17.477,17.477,0,0,1,5.54-1.65v34.25a17.207,17.207,0,0,1-5.54-1.64v-30.96Zm11.4-1.77h5.55v34.52h-5.55v-34.52Zm11.41,0h5.54v34.52h-5.54v-34.52Zm11.41,0h5.54v34.52h-5.54v-34.52ZM1562.2,2401a17.04,17.04,0,0,1,3.82-10.8v21.6A17.04,17.04,0,0,1,1562.2,2401Zm55.33,17.27v-34.52h5.54v34.99a24,24,0,0,0-4.6-.47h-0.94Zm11.4,2.53v-37.05h5.55v41.05A23.705,23.705,0,0,0,1628.93,2420.8Zm5.55,37.23v41.02h-5.55v-37.02A22.829,22.829,0,0,0,1634.48,2458.03Zm-11.41,6.06v34.96h-5.54v-34.49h0.94A22.027,22.027,0,0,0,1623.07,2464.09Zm-85.41,2.59a9.982,9.982,0,0,1,5.55-2.06v34.4a10.212,10.212,0,0,1-5.55-2.06v-30.28Zm11.41-2.12h5.54v34.49h-5.54v-34.49Zm11.4,0h5.55v34.49h-5.55v-34.49Zm11.41,0h5.54v34.49h-5.54v-34.49Zm11.4,0h5.55v34.49h-5.55v-34.49Zm11.41,0h5.54v34.49h-5.54v-34.49Zm11.41,0h5.54v34.49h-5.54v-34.49Zm-75.24,17.24a22.509,22.509,0,0,1,.91-6.35v12.71A22.527,22.527,0,0,1,1530.86,2481.8Zm200.75,17.25v-41.52a19.525,19.525,0,0,0,5.54,4.82v36.88a19.629,19.629,0,0,0-2.67-.18h-2.87Zm11.41,1.65v-36.35a15.2,15.2,0,0,0,2.02.21h3.52v39.32A22.721,22.721,0,0,0,1743.02,2500.7Zm5.54,39.81v39.32h-5.54v-36.2a21.689,21.689,0,0,0,5.54-3.15v0.03Zm-11.41,4.62v34.7h-5.54v-34.52h2.87A26.6,26.6,0,0,0,1737.15,2545.13Zm-85.41,1.71a16.281,16.281,0,0,1,5.55-1.41v34.34a16.754,16.754,0,0,1-5.55-1.41v-31.52Zm11.41-1.5h5.54v34.52h-5.54v-34.52Zm11.41,0h5.54v34.52h-5.54v-34.52Zm11.4,0h5.54v34.52h-5.54v-34.52Zm11.41,0h5.54v34.52h-5.54v-34.52Zm11.4,0h5.54v34.52h-5.54v-34.52Zm11.41,0h5.54v34.52h-5.54v-34.52Zm-78.7,17.24a17.305,17.305,0,0,1,4.37-11.42v22.87A17.3,17.3,0,0,1,1641.48,2562.58Zm306.89,5.53v-11.03A17.347,17.347,0,0,1,1948.37,2568.11Z" transform="translate(-1525 -2377.97)"/>
</svg>
