<svg xmlns="http://www.w3.org/2000/svg" width="429.812" height="126.5" viewBox="0 0 429.812 126.5">
  <defs>
    <style>
      .cls-1 {
        fill: #591902;
        fill-rule: evenodd;
        opacity: 0.3;
      }
    </style>
  </defs>
  <path id="cloud.svg" class="cls-1" d="M435.775,1978.93a0.285,0.285,0,0,1-.08-0.04h-0.04a14.1,14.1,0,0,0-6.036-1.37H237.646a9.935,9.935,0,0,1-2.767-.38,10.217,10.217,0,0,1-5.775-4.28,10.292,10.292,0,0,1,0-11.16,10.255,10.255,0,0,1,5.775-4.29,9.944,9.944,0,0,1,2.767-.39H422.7a13.835,13.835,0,0,0,6.055-1.37h0.02a0.1,0.1,0,0,0,.06-0.02,13.485,13.485,0,0,0,3.89-2.78,14.161,14.161,0,0,0,4.171-10.09,14.406,14.406,0,0,0-8.061-12.88,0.073,0.073,0,0,1-.06-0.02h-0.02a14.028,14.028,0,0,0-6.055-1.37H358.837a9.881,9.881,0,0,1-5.774-1.88,10.248,10.248,0,0,1,.02-16.72,10.01,10.01,0,0,1,5.754-1.88h14.618a14.166,14.166,0,0,0,6.918-1.81h0a0.776,0.776,0,0,0,.22-0.12,13.562,13.562,0,0,0,2.888-2.26,14.166,14.166,0,0,0,4.17-10.1,14.324,14.324,0,0,0-7.058-12.33,2.182,2.182,0,0,1-.22-0.12h0a14.484,14.484,0,0,0-6.938-1.82H120.606a14.727,14.727,0,0,0-4.472.71,0.726,0.726,0,0,0-.14.06h0a14.223,14.223,0,0,0-7.9,6.79,1.378,1.378,0,0,0-.06.16v0.04a14.376,14.376,0,0,0-1.584,6.53,14.125,14.125,0,0,0,1.584,6.53v0.02c0.02,0.04.04,0.1,0.06,0.14a14.138,14.138,0,0,0,7.9,6.8h0.02a0.424,0.424,0,0,1,.14.06,14.494,14.494,0,0,0,4.452.7h27.931a10.618,10.618,0,0,1,2.366.28,10.275,10.275,0,0,1,5.775,3.81,10.3,10.3,0,0,1,0,12.32,11.358,11.358,0,0,1-.942,1.08,9.878,9.878,0,0,1-4.833,2.71,10.618,10.618,0,0,1-2.366.28H28.188a12.861,12.861,0,0,0-1.544.08,13.954,13.954,0,0,0-8.061,3.69l-0.06.06h0a14.28,14.28,0,0,0,0,20.87h0l0.04,0.05a14.016,14.016,0,0,0,8.041,3.68h0.241c0.441,0.04.882,0.08,1.323,0.08h83.394a10.165,10.165,0,0,1,4.351.97,10.324,10.324,0,0,1,5.775,8.16h0a10.75,10.75,0,0,1,.06,1.11,7.262,7.262,0,0,1-.06,1.13,10.12,10.12,0,0,1-2.947,6.13,9.643,9.643,0,0,1-2.848,2.01,9.894,9.894,0,0,1-4.351.97H35.126a13.2,13.2,0,0,0-1.564.08,13.964,13.964,0,0,0-8.061,3.69l-0.06.06-0.02.02a14.269,14.269,0,0,0,0,20.86h0a0.076,0.076,0,0,0,.04.04,13.966,13.966,0,0,0,8.041,3.69h0.24c0.441,0.04.882,0.08,1.343,0.08H429.619a14.113,14.113,0,0,0,6.036-1.37h0.02a0.1,0.1,0,0,0,.08-0.04,13.836,13.836,0,0,0,3.89-2.79,14.144,14.144,0,0,0,4.171-10.09,14.337,14.337,0,0,0-8.041-12.86v0.1Zm-185.6,2.62h2.908v20.5h-2.908v-20.5Zm-4.01,20.5h-2.907v-20.5h2.907v20.5Zm10.928-20.5H260v20.5H257.1v-20.5Zm6.918,0h2.907v20.5h-2.907v-20.5Zm6.918,0h2.907v20.5h-2.907v-20.5Zm6.918,0h2.907v20.5H277.85v-20.5Zm6.917,0h2.908v20.5h-2.908v-20.5Zm6.918,0h2.908v20.5h-2.908v-20.5Zm6.918,0h2.907v20.5H298.6v-20.5Zm6.918,0h2.907v20.5h-2.907v-20.5Zm6.917,0h2.908v20.5h-2.908v-20.5Zm6.918,0h2.908v20.5h-2.908v-20.5Zm6.918,0h2.907v20.5h-2.907v-20.5Zm6.918,0H336.1v20.5h-2.907v-20.5Zm6.917,0h2.908v20.5h-2.908v-20.5Zm6.918,0h2.908v20.5h-2.908v-20.5Zm6.918,0h2.908v20.5h-2.908v-20.5Zm6.918,0h2.907v20.5h-2.907v-20.5Zm6.918,0h2.907v20.5h-2.907v-20.5Zm6.917,0h2.908v20.5H374.7v-20.5Zm6.918,0h2.907v20.5h-2.907v-20.5Zm6.918,0h2.907v20.5h-2.907v-20.5Zm6.918,0h2.907v20.5h-2.907v-20.5Zm6.917,0h2.908v20.5h-2.908v-20.5Zm6.918,0H412.2v20.5h-2.908v-20.5Zm6.918,0h2.907v20.5h-2.907v-20.5Zm6.918,0h2.907v20.5h-2.907v-20.5Zm6.917,0.02a10.1,10.1,0,0,1,2.908.52v19.41a10.1,10.1,0,0,1-2.908.53v-20.46Zm-190.73-.02v20.5H236.4v-20.58c0.441,0.04.862,0.08,1.3,0.08h1.6Zm-6.917-1.09v21.59h-2.908v-23.16a13.094,13.094,0,0,0,2.908,1.55v0.02Zm-72.066-54.25a14.043,14.043,0,0,0,0-15.9v-26.82h2.908v118.56h-2.908v-75.84Zm6.918-42.72h2.908v118.56h-2.908V1883.49Zm6.918,0h2.907v118.56h-2.907V1883.49Zm6.918,0h2.907v118.56h-2.907V1883.49Zm6.918,0h2.907v118.56H188V1883.49Zm6.917,0h2.908v118.56h-2.908V1883.49Zm6.918,0h2.908v118.56h-2.908V1883.49Zm6.918,0h2.907v118.56h-2.907V1883.49Zm6.918,0h2.907v118.56H215.67V1883.49Zm6.917,0H225.5v76.6a14.032,14.032,0,0,0,0,14.39v27.57h-2.908V1883.49Zm6.918,72.18v-72.18h2.908v70.61A15.072,15.072,0,0,0,229.505,1955.67Zm6.918-2.58v-69.6h2.907v69.52h-1.6C237.285,1953.01,236.864,1953.05,236.423,1953.09Zm106.654-.08h-2.908v-69.52h2.908v69.52Zm-6.918,0h-2.907v-69.52h2.907v69.52Zm-6.918,0h-2.907v-69.52h2.907v69.52Zm-6.917,0h-2.908v-69.52h2.908v69.52Zm-6.918,0H312.5v-69.52h2.908v69.52Zm-6.918,0h-2.907v-69.52h2.907v69.52Zm-6.918,0h-2.907v-69.52h2.907v69.52Zm-6.917,0h-2.908v-69.52h2.908v69.52Zm-6.918,0h-2.908v-69.52h2.908v69.52Zm-6.918,0h-2.908v-69.52h2.908v69.52Zm-6.918,0h-2.907v-69.52H273.9v69.52Zm-6.918,0h-2.907v-69.52h2.907v69.52Zm-6.917,0h-2.908v-69.52h2.908v69.52Zm-6.918,0h-2.908v-69.52h2.908v69.52Zm-6.918,0h-2.907v-69.52h2.907v69.52Zm107.757-21.44a13.323,13.323,0,0,0,2.907.79v20.65h-2.907v-21.44Zm72.065,20.9a10.088,10.088,0,0,1-2.907.52v-20.45a10.211,10.211,0,0,1,2.907.52v19.41Zm-6.917.54h-2.908v-20.49h2.908v20.49Zm-6.918,0h-2.908v-20.49h2.908v20.49Zm-6.918,0h-2.908v-20.49H405.3v20.49Zm-6.918,0h-2.907v-20.49h2.907v20.49Zm-6.918,0h-2.907v-20.49h2.907v20.49Zm-6.917,0h-2.908v-20.49h2.908v20.49Zm-6.918,0h-2.908v-20.49h2.908v20.49Zm-6.918,0H367.8v-20.49h2.907v20.49Zm-6.918,0h-2.907v-20.49h2.907v20.49Zm69.158-10.23a10.057,10.057,0,0,1-2.907,7.13v-14.25A10.4,10.4,0,0,1,432.948,1942.78Zm-82.993-13.55v23.78h-2.908v-27.06A13.935,13.935,0,0,0,349.955,1929.23Zm-2.908-18.66v-27.08h2.908v23.78a13.935,13.935,0,0,0-2.908,3.28v0.02Zm30.579-7.46a9.969,9.969,0,0,1-2.908.81v-20.35a10.458,10.458,0,0,1,2.908.8v18.74Zm-6.918.89H367.8v-20.51h2.907V1904Zm-6.918,0h-2.907v-20.51h2.907V1904Zm-6.917.16a13.3,13.3,0,0,0-2.908.79v-21.46h2.908v20.67Zm26.808-10.42a10.2,10.2,0,0,1-2.045,6.11v-12.27a10.312,10.312,0,0,1,2.045,6.14v0.02ZM132.6,1883.49H135.5v20.49H132.6v-20.49Zm-4.01,20.49h-2.907v-20.49h2.907v20.49Zm10.928-20.49h2.908v20.49h-2.908v-20.49Zm-27.671,15.41v-10.34a10,10,0,0,1,2.907-3.16v16.67A10.273,10.273,0,0,1,111.843,1898.9Zm6.918,4.9v-20.13a11.053,11.053,0,0,1,1.824-.18h1.083v20.49h-1.083A9.248,9.248,0,0,1,118.761,1903.8Zm27.671,0.18v-20.49h2.907v20.53c-0.28,0-.541-0.04-0.822-0.04h-2.085Zm6.918,0.91v-21.4h2.907v22.79a14.464,14.464,0,0,0-2.907-1.41v0.02Zm2.907,25.31v71.85H153.35v-70.4a13.233,13.233,0,0,0,2.907-1.47v0.02Zm-6.918,2.28v69.57h-2.907v-69.53h2.085C148.8,1932.52,149.059,1932.48,149.339,1932.48Zm-23.66,36.15c0.04-.44.08-0.88,0.08-1.33s-0.04-.88-0.08-1.33v-33.45h2.907v69.53h-2.907v-33.42h0Zm6.917-36.09H135.5v69.51H132.6v-69.51Zm6.918,0h2.908v69.51h-2.908v-69.51ZM114.75,1953.4a13.431,13.431,0,0,0-2.907-.35v-20.49h2.907v20.84Zm-92.8-18.69a10.056,10.056,0,0,1,2.907-1.59v19.31a10.3,10.3,0,0,1-2.907-1.59v-16.13Zm6.918-2.19h2.907v20.49H28.87v-20.49Zm6.918,0H38.7v20.49H35.788v-20.49Zm6.918,0h2.907v20.49H42.705v-20.49Zm6.918,0h2.908v20.49H49.623v-20.49Zm6.918,0h2.907v20.49H56.541v-20.49Zm6.918,0h2.908v20.49H63.459v-20.49Zm6.918,0h2.908v20.49H70.377v-20.49Zm6.918,0H80.2v20.49H77.294v-20.49Zm6.918,0H87.12v20.49H84.212v-20.49Zm6.918,0h2.907v20.49H91.13v-20.49Zm6.918,0h2.907v20.49H98.048v-20.49Zm6.917,0h2.908v20.49h-2.908v-20.49Zm13.836,22.49v-22.49h2.907v24.79A13.809,13.809,0,0,0,118.8,1955.01Zm2.907,22.27v24.77H118.8v-22.51a13.5,13.5,0,0,0,2.807-2.14c0.04-.04.06-0.08,0.08-0.1Zm-92.818,6.47a9.6,9.6,0,0,1,2.907-1.59v19.3a10.055,10.055,0,0,1-2.907-1.59v-16.12Zm6.918-2.2h2.907v20.5H35.808v-20.5Zm6.918,0h2.907v20.5H42.726v-20.5Zm6.918,0h2.907v20.5H49.643v-20.5Zm6.918,0h2.908v20.5H56.561v-20.5Zm6.918,0h2.908v20.5H63.479v-20.5Zm6.918,0H73.3v20.5H70.4v-20.5Zm6.918,0h2.907v20.5H77.314v-20.5Zm6.918,0H87.14v20.5H84.232v-20.5Zm6.918,0h2.907v20.5H91.15v-20.5Zm6.918,0h2.907v20.5H98.068v-20.5Zm6.917,0h2.908v20.5h-2.908v-20.5Zm6.918,0a12.846,12.846,0,0,0,2.908-.34v20.86H111.9v-20.52Zm325.055,17.39v-14.27a10.324,10.324,0,0,1,2.908,7.12,10.139,10.139,0,0,1-2.908,7.13v0.02Z" transform="translate(-14 -1879.47)"/>
</svg>
