<svg id="concept02.svg" xmlns="http://www.w3.org/2000/svg" width="429.594" height="269.25" viewBox="0 0 429.594 269.25">
  <defs>
    <style>
      .cls-1 {
        fill: #591902;
        fill-rule: evenodd;
      }
    </style>
  </defs>
  <g id="bi">
    <path id="シェイプ_4" data-name="シェイプ 4" class="cls-1" d="M465.918,3691.21a1.154,1.154,0,0,1,.06-0.14l0.291-.74c1.175-.33,2.1-0.67,3.12-0.98a9.552,9.552,0,0,0-1.194-1.16,1.268,1.268,0,0,0-.031-0.26c1.37-.36,2.767-0.86,5.76-1.45,0.024-.08.036-0.1,0.06-0.17l0.291-.74c1.174-.33,2.1-0.64,3.12-0.95a10.316,10.316,0,0,0-1.194-1.17,2.659,2.659,0,0,0-.238-0.95c0.1-.31.143-0.4-2.072-0.19-0.623-.12-1.365-0.21-1.984-0.38-0.109-.28-0.095-0.64-0.2-0.93,0.578-.66,1.148-1.38,1.819-2.09,0.862-.33,1.038-0.57,1.769-0.86,0.1-.33.208-0.71,0.3-1.04a4.355,4.355,0,0,0-.186-1.22c-0.043-.21.628-0.78-0.341-0.61-0.564-.22-1.106-0.48-1.764-0.67a1.191,1.191,0,0,0,.737-0.83c-0.864.21-1.738,0.43-2.6,0.59-2.291.12-.954-0.81-4.356-0.14-0.274.52-3.081,0.76-3.036,1.38-3.924.47-6.908,0.14-10.09,0.45-2.5-.14-3.661.22-5.542,0.05-0.776.28-3.251-.6-2.889,0.05a58.6,58.6,0,0,1-13.233-1.95c-0.339,1.61-4.805-1.46-6.882-1.29-1.241-1.38-5.1-1.52-7.11-3.28a68.77,68.77,0,0,1-14.587-8.07,65.635,65.635,0,0,1-14.387-12.75c-0.408.07-1.062-.92-1.606-1-1.735-2.02-3.475-4.18-5.1-6.42a76.392,76.392,0,0,1-7.655-12.94c-0.492-.31-0.793-1.97-1.642-1.83a9.092,9.092,0,0,0-1.872-4.59c-0.088-1.03-1.239-3.21-.642-3.24a5.537,5.537,0,0,0-.761-1.88,11.334,11.334,0,0,1-.993-2.88c-0.4-.8-0.683-1.54-1.081-2.47,0.763,0.45-.017-2.16-0.239-2.31a14.868,14.868,0,0,0-1.387-3.52c-0.033-.19-0.052-0.28-0.086-0.5a3.848,3.848,0,0,0-.353-3.4,6.6,6.6,0,0,0-.831-4c-0.1-.52-0.165-1.07-0.258-1.49,0.54,0.71.294-.88,0.716-0.72-0.864-3.3,0-9.06-.279-12.39,0.131-1.31.282-2.52,0.477-3.83a33.512,33.512,0,0,0,.676-6.04c0.06-.29.139-0.6,0.239-0.98,0.682-2.76,2.024-6.33,2.864-10.44,1.134-2.81,2.609-5.5,3.709-7.97a22.777,22.777,0,0,1,2.695-3.14,40.252,40.252,0,0,1,6.684-10.33c0.415-.61,1.041-1.23,1.06-0.83,0.654-.78,1.239-1.47,1.926-2.23a3.771,3.771,0,0,0,1.609-3l-1.4.43c0.146-.6.239-1.1,0.325-1.6,0.368-.62.79-1.35,1.193-1.97,0.239-.22.464-0.45,0.764-0.74a95.085,95.085,0,0,1,11.642-9.04c0.136,0.29.286,0.57,0.424,0.86,0.812-.29,1.638-0.55,2.445-0.81a6.463,6.463,0,0,0,1.671-1.26c4.327-1.55,11.059-3.95,14.021-5.38,1.141-.4,2.4-0.81,3.58-1.12,1.392-.28,2.683-0.52,4.094-0.76-0.673,1.31,3.127-.54,4.669-0.04,2.177-.27,1.723.47,4.215,0.09a14.55,14.55,0,0,1,1.552-.64,10.255,10.255,0,0,0,3.21-.43h0.986a83.918,83.918,0,0,1,15.551,1.97c1.378,0.31,2.731.67,4.089,1.03,0.955,0.24,2.024.45,3.077,0.74,3.079,0.99,4.535,1.64,7.443,2.37l0.907,0.36c3.4,1.57,5.578,3.21,9.91,5.33a8.5,8.5,0,0,1,2.764,1.43,88.488,88.488,0,0,1,9.706,7.13c2.41,2.76,4.535,2.98,6.683,5.95a81.676,81.676,0,0,1,18.451,28.31c0.478,0.69.907,1.4,1.361,2.09,0.716,2.19,1.361,4.26,1.886,6.38-0.478.95,1.241,4.66,0.74,5.61,0.405,1.24.5,3.47,1.1,3.62,0.907,0.83.238,2.45,0.62,3.78,0.072,2.43.263,4.38,0.191,6.99a14.065,14.065,0,0,0,.263,4.19c-0.6.71-.024,4.4-0.74,5.07-0.1,2.04-.239,4.06-0.454,5.99a15.742,15.742,0,0,0-.668,2.21c0.979,4.88-2.124,2.41-2.124,8.12a19.289,19.289,0,0,1-2.936,7.2c-1.695,2.38-.788,3.45-1.743,5.36a4.941,4.941,0,0,1-1.122.95,3.992,3.992,0,0,0-.716,1.69,12.794,12.794,0,0,1-2.267,3.61c-0.5,1.17-1.075,1.14-1.194.83-0.549.89-1.217,1.84-1.814,2.72-0.764.97-1.48,1.88-2.292,2.83-0.835.69-1.933,2.54-2.387,2.26-0.5.59-.954,1.09-1.527,1.76l-1.241,1.31c-1.122,1.07-2.244,2.11-3.414,3.14-0.573.4-1.074,0.78-1.527,1.14a1.9,1.9,0,0,0-.335.09l-0.382-.59c-2.028.47-3.7,2.62-5.953,3.23-0.814.86-3.611,1.69-3.836,2.34a16.336,16.336,0,0,1-4.162,2.4c-0.9.95-4.216,1.88-3.82,2.54a6.508,6.508,0,0,0,2.59-.97c1.043-.24,2.149-0.6,3.192-0.91,0.133,0.27.257,0.48,0.386,0.74l-0.117.14c-1.067.38-2.174,0.77-3.229,1.1-1.308.5-2.726,1-4.058,1.42a16.242,16.242,0,0,0-4.165,1.19c1.394-.21,2.78-0.47,4.251-0.8,1.747-.46,3.394-0.93,5.105-1.48,0.308-.12.669-0.26,1.044-0.4-0.631.42-1.246,0.81-1.91,1.23a8.512,8.512,0,0,0-2.49,1.45c-0.549.27-1.091,0.5-1.737,0.77-1.306.47-2.717,0.95-4.041,1.38-1.309.47-2.729,0.97-4.058,1.42a16.3,16.3,0,0,0-4.166,1.17c1.394-.19,2.781-0.45,4.252-0.79,1.747-.47,3.394-0.95,5.1-1.5,0.385-.11.847-0.3,1.323-0.49a31.01,31.01,0,0,0,7.216-2.74c1.069-.33,2.13-0.69,3.184-1.07,0.145,0.28.238,0.45,0.324,0.62,2.1-1.05,4.058-2.17,6.037-3.4,0.716-.53,1.432-0.98,2.1-1.43,2.029-1.02,3.963-2.12,5.9-3.33,3.079-2.14,5.514-3.48,8.116-5.47,3.1-3.07,6.731-5.38,9.357-8.54,0.525-.62,1.1-1.22,1.6-1.83,0.788-.84,1.575-1.77,2.291-2.65,0.573-.83,1.1-1.59,1.648-2.45,0.047,0.65.167,1.36,0.215,2.03,0.334,0.61,1.265.26,1.885,0.02,0.669-.93,1.313-1.9,2-2.95,0.5-.67.955-1.26,1.5-2.05,0.835-1.59,1.623-3.3,2.363-4.92a75.547,75.547,0,0,0,6.66-16.79c0.668-1.34,1.05-5.24,1.5-6.4,0.144-1.17.311-2.31,0.406-3.45,0.072-.62.143-1.36,0.191-1.98,0.812,0.03.812-2.64,0.525-3.52a88.744,88.744,0,0,0-.214-10.08c-0.024-.84-0.048-1.69-0.12-2.53,0.645-.4.1-3.37-0.43-4.49l-0.286-1.57a38.953,38.953,0,0,0-.191-4c0.645,0.6.31-1.09,0.764-.59,0.363,0.35.746,0.68,1.146,1,0.453,1.45.954,3.04,1.981,6.04,0.262,2.47.429,4.85,0.477,7.35-0.62.4-.525,2.95,0.167,6.16,0.215-1.17.382-2.33,0.525-3.52,0.215,0.02.406,0.02,0.621,0.05,0.024,0,.1.02,0.119,0.02a12.428,12.428,0,0,0,.1-1.64c-0.048-.88-0.1-1.76-0.167-2.64a3.32,3.32,0,0,0-1.027-1.55,7.566,7.566,0,0,0,.454-3.71c-0.167-.97-0.382-2.07-0.645-3.14-0.191-.97-0.453-2.04-0.692-3.02h-0.167c-0.334-.74-0.692-1.35-1.05-2.09-0.645-2.88-1.695-6.02-2.292-8.57a90.985,90.985,0,0,0-5.895-14.17,7.7,7.7,0,0,0-2.244-4.36,96.831,96.831,0,0,0-11.816-16.15,4.439,4.439,0,0,0-1.408-2.33,9.56,9.56,0,0,0-2.435-1.64c-1.122-1.31-2.22-2.48-3.318-3.64-1.742-1.71-3.58-3.33-5.466-4.88-0.788-.71-1.671-1.47-2.578-2.21-0.835-.5-1.6-0.91-2.53-1.43-1.408-.93-2.817-1.83-4.344-2.73a12.4,12.4,0,0,0-3.438-1.98c-1-.62-1.981-1.26-2.912-1.81,1.241,0.34.358-.66,1.695-0.4a16.467,16.467,0,0,0-3-1.64c-0.9-.19-1.671-0.36-2.573-0.55l-0.449-.19c0.576-.19-0.238-0.71-0.716-1.07a19.829,19.829,0,0,0-4.583-1.4c-1.076-.53-1.585-0.88-2.115-1.17a13.793,13.793,0,0,0-4.633-1.21c-1.217-.31-2.306-0.57-3.549-0.83-1.31-.38-2.63-0.74-3.96-1.07a22.548,22.548,0,0,0-4.137-.93c-1.071.04-2.134,0.12-3.2,0.19-2.625-.29-5.251-0.5-7.76-0.6-0.876-.04-1.63-0.07-2.508-0.12a15.277,15.277,0,0,0-3.385-.95,22.548,22.548,0,0,0-4.34.36c-0.377.02-.752,0.05-1.26,0.07a12.275,12.275,0,0,0-5.423.33c-0.633.29-1.125,0.6-1.74,0.91a11,11,0,0,0-3.614.31c-3.2-.57-8.8.97-13.589,2.52-0.79.5-1.444,0.95-2.213,1.47-2.258.74-4.483,1.6-6.683,2.5a3.935,3.935,0,0,0-2.929.76c-0.688.91-4.38,2.21-5.934,3.93a7.329,7.329,0,0,0-2.065.81c-0.781,1.04-5.449,2.59-6.445,4.68-0.42.26-.955,0.57-1.473,0.88-0.634.38-1.348,0.86-1.966,1.26-0.767.62,1.63-.64,0.811-0.04a12.358,12.358,0,0,0-3.318,3.3c1.58-.45,1.59-1,5.013-3.52a9.51,9.51,0,0,0,2.979-1.28v0.05a5.034,5.034,0,0,0,2.177-1.27,18.681,18.681,0,0,1,3.263-1.52c0.926-.62,1.947-1.33,3.017-1.97,1.456-.64,2.265-0.95,3.172-1.34,1.313-.71,2.542-1.35,3.783-1.95-0.362.55,2.261-.14,2.454,0.17,3.01-.94,6.065-1.74,9.154-2.38,0.447-.07.938-0.14,1.432-0.19a3.561,3.561,0,0,0-.742.41c0.031,0.14.057,0.26,0.086,0.4a16.976,16.976,0,0,1-.79,1.67c-0.43.23-.878,0.5-1.334,0.78a16.967,16.967,0,0,0-5.968,1.9c0.031,0.15.058,0.24,0.084,0.38-0.2.46-.387,0.93-0.638,1.41a8.409,8.409,0,0,0-2.279,1.35c-0.929.46-1.848,0.91-2.767,1.41a5.482,5.482,0,0,0-.62.24c0,0.02.012,0.04,0.021,0.07-1.072.57-2.148,1.19-3.218,1.83-1.432.81-2.816,1.69-4.179,2.59-1.273.67-2.54,1.38-3.819,2.14-2.609,1.5-5.106,3.21-7.529,4.9q-3.249,2.205-6.263,4.71c-1.764,1.45-3.454,2.98-5.092,4.55a14.525,14.525,0,0,0-4.774,4.56c-0.093.48-.188,0.98-0.329,1.53-0.272.35-.613,0.76-0.955,1.19,0.115-1.03-.895.26-1.318,0.52-0.615.93-1.193,1.88-1.685,2.78,0.363-.78.716-1.76,1.082-2.73,1.217-2.12,1.432-2.76.866-3.26-0.628.97-1.27,1.92-1.8,2.8-0.662.89-1.246,1.69-1.879,2.6,1.139-1.81,2.361-3.57,3.683-5.4,0.75-1.19.771-1.98,0.437-2.12-1,1.21-2.027,2.59-2.948,3.88-0.788.52-.671-0.26-0.843-0.33a86.647,86.647,0,0,0-6.409,12.48c-0.343.88-.666,1.79-0.954,2.69,0.312,0.62.682,1.17,1.04,1.81,0.077-.21.112-0.31,0.2-0.52,0.076,0.07.15,0.16,0.222,0.23a13.1,13.1,0,0,1-1.012,1.81,3.017,3.017,0,0,0-.54.76c-0.334.43-.671,0.84-1.06,1.43a16.191,16.191,0,0,1-.238-1.71l-0.323-.34c-0.3.72-.568,1.31-0.818,1.93-1.089,3.05.324,2.17-.175,4.57-0.329,1.05-.6,2-0.888,3.07a20.23,20.23,0,0,1-.864,3.49c0.657,1.91-.954,2.79-1.3,5.55-0.239-.17-0.523-0.36-0.8-0.55,0.317-1.74.663-3.45,1.088-5.16a0.36,0.36,0,0,0-.129-0.1c-0.4.31-.78,0.65-1.193,0.95-0.325,1.41-.571,2.74-0.8,4.19-0.308,1.48-.592,3.09-0.821,4.62-0.144,1.21-.268,2.54-0.328,3.78-0.174,1.52-.238,2.62-0.317,3.59-0.208,1.02-.437,2.02-0.609,2.93,0.573,2.87.5,6.35,1.239,11.49,0.038,1.16.165,2.47,0.239,3.64-0.587-.22-1.144-0.41-1.733-0.62-0.146-1.12-.239-2.24-0.344-3.21-0.11-1.98-.157-3.83-0.176-5.81-0.187-.09-0.406-0.19-0.6-0.28-0.074-.6-0.124-1.17-0.184-1.64,0.308-1.29.6-2.6,0.955-3.88-0.145-.41-0.279-0.81-0.382-1.22-0.1-2.9-.174-3.92-0.943-3.9,0-.95,0-1.88.027-2.83a48.365,48.365,0,0,0,.935-8.3,17.282,17.282,0,0,0-1.367,8.02c-0.363,2.66-.645,5.33-0.814,8.01,0.05,0.36.1,0.74,0.124,1.1,0.184,0.09.4,0.21,0.582,0.31-0.033.78-.019,1.47-0.028,2.23-0.781,1.88-.074,5.12.353,8.11,0.174,1.91.391,3.93,0.687,5.81,0.222,1.14.494,2.28,0.7,3.31,0.339,1.45.666,2.9,1.07,4.35,0.076,0.64.238,1.4,0.338,2.04,0.146,0.55.239,0.98,0.4,1.55l0.15,1.55c-0.239-.05-0.446-0.1-0.688-0.15a0.162,0.162,0,0,0-.136-0.02,4.229,4.229,0,0,0,.929,3.57c0.367,1.09.687,2.09,1.091,3.16,0.41,0.6.847,1.17,1.231,1.64,0.1,0.41.186,0.74,0.239,1.05,0,0.81-.3.76-0.239,1.38,0.786,1.74,1.614,3.54,2.454,5.14,0.68,1.38,1.475,2.92,1.024,3.02a29.875,29.875,0,0,0,3.385,5.47c0.7,0.81,1.454,1.62,2.184,2.43a5.37,5.37,0,0,0,2.265,2.83,4.769,4.769,0,0,0,.189-1c0.537,0.47,1.136.93,1.685,1.4,1.091,1.52,2.239,3.02,3.416,4.52a3.5,3.5,0,0,0,.384,1.36c1.489,1.64,3.043,4.07,4.855,4.66a28.324,28.324,0,0,0,4.717,3.93c0.432,0.42.792,0.73,1.234,1.14a8.693,8.693,0,0,0,2.428,2.9,6.329,6.329,0,0,0,2.9,1.66c0.716,0.31,1.289.55,2.008,0.84a96.279,96.279,0,0,0,8.158,5.16c0.239,0.24.526,0.43,0.879,0.74a9.553,9.553,0,0,0,3.067,2.26c1.222,0.31,3.456,2.07,5.156,1.8,0.916,0.43,1.881.81,2.8,1.22,1.559,0.74,3.091,1.47,4.815,2.21a37.772,37.772,0,0,0,12.111,3.31,4.635,4.635,0,0,0,2.679.26,20.9,20.9,0,0,0,7.125.76c1.112,0.19,2.363.36,3.618,0.52,1.432,0.79.091,1.05,1.144,1.81,1.515,0.05,3.036.02,4.554,0,2.149,0,3.456-.14,5.2-0.02,0.866-.12,1.862-0.26,2.711-0.41a28.418,28.418,0,0,0,5.6-.35C460.371,3692.95,460.913,3692.21,465.918,3691.21Z" transform="translate(-345.375 -3496)"/>
    <path id="健" class="cls-1" d="M484.4,3567.72h-6.24l-0.96-.12a0.937,0.937,0,0,0,.48-0.48,19.654,19.654,0,0,1,2.52-3,18.74,18.74,0,0,1,3.96-4.2c2.28-1.56,2.4-3.12.12-4.8a2.037,2.037,0,0,0-.72-0.72,8.274,8.274,0,0,0-3.36-1.8,34.644,34.644,0,0,0-5.64,1.32c-0.36.12-.84,0.24-1.2,0.36a1.651,1.651,0,0,1-1.32-.12,1.7,1.7,0,0,1-.12-1.32,5.849,5.849,0,0,1,.48-1.32c1.08-3.12.12-5.64-2.759-7.32-1.08-.6-2.16-1.32-3.12-1.92a1.309,1.309,0,0,0-1.44-.24,1.476,1.476,0,0,0-.84,1.32c-0.24,3.84-.36,7.56-0.36,11.28a1.036,1.036,0,0,1-1.32,1.2c-2.04.12-3.96,0.24-6,.36a3.087,3.087,0,0,0-1.8.12,1.535,1.535,0,0,0-1.2,1.2,3.751,3.751,0,0,0,1.08,1.32,4.055,4.055,0,0,0,1.44.72l6.84,1.92a1.245,1.245,0,0,1,.72.96,50.834,50.834,0,0,1,.36,6.12,2.339,2.339,0,0,1-.12.96,22.128,22.128,0,0,1-4.68,2.88,69.637,69.637,0,0,0-9.96,4.08,27.685,27.685,0,0,0-8.4,6.48,0.636,0.636,0,0,1-.36.24,0.536,0.536,0,0,1,0-.6,35.061,35.061,0,0,1,2.88-4.44,1.994,1.994,0,0,0,.12-2.52,12.49,12.49,0,0,0-6.96-4.8c-1.2-.6-2.04-0.24-2.76.96a10.094,10.094,0,0,1-3.36,4.92c-1.68,1.32-3.24,2.52-4.92,3.72q-2.16,1.26-3.959,2.52c-0.72.72-1.44,1.32-2.16,2.04l3.239,0.36a50.509,50.509,0,0,0,6.12-1.44q1.62-.36,1.08,1.08c-0.84,2.52-1.8,5.04-2.76,7.56-1.08,1.92-2.04,3.96-3.24,5.76a3,3,0,0,0-.48,1.68,9.256,9.256,0,0,0,6,5.76,0.726,0.726,0,0,0,.72,0,4.569,4.569,0,0,1,2.28-1.68c0.96-.24,1.8-0.48,2.76-0.72,0.84-.24,1.32.12,1.2,1.08a42.407,42.407,0,0,1-3.24,13.44,2.074,2.074,0,0,1-1.44.72c-2.64-.72-5.16-1.32-7.8-1.8a13.942,13.942,0,0,0-5.039.96c-1.68.72-1.68,1.56-.12,2.52a22.228,22.228,0,0,0,4.439,2.28c2.04,0.48,3.96.96,6,1.32a0.856,0.856,0,0,1,.96.84,25.814,25.814,0,0,1-6.96,10.08c-0.84.72-1.44,0.6-1.92-.36a6.723,6.723,0,0,0-.479-0.84,0.635,0.635,0,0,0-.96-0.12c-0.24.48-.6,1.08-0.96,1.68l-0.72,1.44a2.293,2.293,0,0,0,.36,3.48,2.152,2.152,0,0,1,.6.84c1.08,1.44,2.28,1.68,3.719.48,1.8-1.8,3.72-3.72,5.52-5.76a27.686,27.686,0,0,0,4.44-6.6,7.025,7.025,0,0,1,1.2-2.04,2.22,2.22,0,0,1,2.16-.84q1.44,0.36,2.52.72a85.78,85.78,0,0,1,15.479,5.88c5.04,2.52,9.96,5.28,14.64,8.16,3.959,2.28,7.919,4.44,12,6.72a3.015,3.015,0,0,0,1.68.72,21.38,21.38,0,0,0,12.839-.84,7.76,7.76,0,0,1,1.92-1.08l-1.92-2.16c-0.359-.24-0.719-0.36-1.079-0.6-5.4-1.68-10.68-3.6-15.84-5.64a73,73,0,0,1-7.559-3.6,33.566,33.566,0,0,1-3-2.64,2.373,2.373,0,0,1-.24-1.2,43,43,0,0,1,1.08-5.4c0-.6.12-1.2,0.12-1.8a1.447,1.447,0,0,1,.96-1.44,5.018,5.018,0,0,1,1.8-.48,60.822,60.822,0,0,0,15.719-6c1.32-.6,1.44-1.56.6-2.88a37.175,37.175,0,0,0-9.24-8.04l-0.6-.72a1.287,1.287,0,0,0,.72-0.24,6.431,6.431,0,0,0,1.32-.6,2.613,2.613,0,0,0,1.08-.84,3.035,3.035,0,0,0-1.32-2.64,12.621,12.621,0,0,0-3.24-2.4,2.265,2.265,0,0,0-3.24-.72,2.735,2.735,0,0,1-1.32.36,1.534,1.534,0,0,1-.84-0.6,1.023,1.023,0,0,1,0-.84,50.339,50.339,0,0,1,5.4-4.68l5.64-4.44c1.44-1.08,1.44-2.16,0-3.36a45.271,45.271,0,0,0-6.48-4.08h-0.36c-1.2.36-2.4,0.72-3.48,1.08a1.315,1.315,0,0,1-.96,0,3.57,3.57,0,0,1-.119-2.52,3.722,3.722,0,0,1,1.079-2.16c0.96-.36,2.04-0.72,3.12-1.08a10.638,10.638,0,0,1,3.36-.84c4.08,0.24,8.28.6,12.36,0.96a2.471,2.471,0,0,0,1.8-.36,1.272,1.272,0,0,0-.36-1.56,10.828,10.828,0,0,0-3.24-3.36A6.417,6.417,0,0,0,484.4,3567.72Zm-21.359,56.4v3.84a5.944,5.944,0,0,1-.24,2.04,3.559,3.559,0,0,1-1.8-.84,58.437,58.437,0,0,0-10.44-4.56c-3.72-1.2-7.319-2.52-10.919-3.72a1.008,1.008,0,0,1-.96-1.56c1.08-2.28,2.04-4.68,3-6.96a24.575,24.575,0,0,0,1.92-7.2,5.616,5.616,0,0,0-.6-3.72,15.822,15.822,0,0,0-6.48-4.8c-0.84-.24-1.08-0.6-0.72-1.32,1.08-3,2.16-6,3.12-8.88a1.2,1.2,0,0,1,1.56-.96,6.056,6.056,0,0,0,4.08-1.44,20.465,20.465,0,0,1,6-3.6c2.16-.72,4.44-1.44,6.72-2.04h0.6a2.027,2.027,0,0,0-.24.6c-2.52,2.76-4.92,5.64-7.2,8.52a9.582,9.582,0,0,0-.6,3.12,10.614,10.614,0,0,0,2.76,0,19.482,19.482,0,0,1,3.36-1.32,7.761,7.761,0,0,1,3.72-.12,8.045,8.045,0,0,0,2.4,0c1.44,0.48,1.68,1.32.84,2.52q-4.32,3.78-9,7.56a2,2,0,0,0-.6,3.12,8.992,8.992,0,0,0,4.92,4.44c0.72,0.24.84,0.72,0.24,1.2a23.337,23.337,0,0,1-8.52,6.72c-2.28,1.2-2.76,2.88-1.44,5.16a4.931,4.931,0,0,0,3.48,2.88,9.88,9.88,0,0,0,4.56.24,22.332,22.332,0,0,0,4.08-.48C462.2,3622.08,463.037,3622.56,463.037,3624.12Zm8.519-19.32a6.21,6.21,0,0,1,5.64.24,17.007,17.007,0,0,1,4.32,3.96,2.4,2.4,0,0,1,.24,1.8,5.92,5.92,0,0,1-4.32,2.88c-2.52.48-5.04,0.84-7.559,1.44-1.08.12-1.56-.36-1.32-1.44,0.12-2.76.36-5.4,0.72-8.16a2.826,2.826,0,0,1,1.08-.72,5.576,5.576,0,0,0,1.2-.6v0.6Zm-8.519,8.52c0,0.48-.12,1.08-0.12,1.68a1.169,1.169,0,0,1-.96,1.2,4.235,4.235,0,0,1-1.68.36c-1.2.12-2.52,0.24-3.84,0.24-0.84.12-1.08-.24-0.72-0.96a13.6,13.6,0,0,1,5.88-7.32c0.6-.48.96-0.48,0.96,0.24C462.677,3610.32,462.8,3611.88,463.037,3613.32Zm0.6-35.64v2.88c0.36,1.68-.36,2.76-2.16,3-1.44.24-2.88,0.48-4.2,0.84a0.765,0.765,0,0,1-.72,0,3.182,3.182,0,0,1,.6-0.72c1.32-1.56,2.76-3,4.2-4.56a8.775,8.775,0,0,1,1.92-1.68A0.3,0.3,0,0,1,463.637,3577.68Zm8.279,10.92a3.421,3.421,0,0,1,.96-1.68,2.521,2.521,0,0,1,1.68-.84,1.089,1.089,0,0,1,.36.84,11.42,11.42,0,0,0-2.52,2.28A1.2,1.2,0,0,1,471.916,3588.6Zm-0.959-26.76,1.679-.72,0.36,0.36a14.382,14.382,0,0,1-1.44,1.32A2.6,2.6,0,0,1,470.957,3561.84Zm-59.038.24c-0.6,2.76-1.08,5.64-1.44,8.52a234.67,234.67,0,0,1-15,53.28,4.731,4.731,0,0,1-.6,1.68v0.48a3.08,3.08,0,0,0,.6-0.24,70.933,70.933,0,0,0,5.759-8.04,59.79,59.79,0,0,0,3.24-6.84c0.24-.12.6-0.24,0.84-0.36a6.268,6.268,0,0,1,1.68,3l0.72,20.16a8,8,0,0,1-1.08,2.52,4.89,4.89,0,0,0-.6,2.16,13.673,13.673,0,0,0,4.2,6.72q1.26,1.08,1.8-.36a20.755,20.755,0,0,0,1.44-5.52c0-3.48,0-7.08-.12-10.68a84.724,84.724,0,0,1,0-11.04,6.159,6.159,0,0,0-2.04-5.76,41.61,41.61,0,0,1-3.48-3,1.614,1.614,0,0,1-.96-2.52q3.6-7.92,6.48-16.2c1.92-7.44,3.72-14.88,5.28-22.44a7.561,7.561,0,0,1,1.2-3.48,2.916,2.916,0,0,0-.36-4.2,10.565,10.565,0,0,0-9.96-4.56c-0.48.12-1.08,0.24-1.68,0.36,0.24,0.48.6,0.96,0.84,1.44a7.775,7.775,0,0,1,2.4,2.04A3.475,3.475,0,0,1,411.919,3562.08Z" transform="translate(-345.375 -3496)"/>
  </g>
  <path id="ニ.もっと健康に" class="cls-1" d="M388.163,3748.9c-0.48-.78-0.9-1.56-1.38-2.34a8.467,8.467,0,0,0-3.42-2.4,34.516,34.516,0,0,0-3.96-1.38,1,1,0,0,0-.72-0.06,3.512,3.512,0,0,0-.78.12c-1.26-.12-2.58-0.24-3.9-0.36-1.2-.12-2.4-0.24-3.66-0.42a18.64,18.64,0,0,0-3.659,0,47.3,47.3,0,0,0-9,2.34,90,90,0,0,0-8.64,3.54,14.326,14.326,0,0,0-1.92.96,3.69,3.69,0,0,0-1.32,1.68,0.772,0.772,0,0,0,.06.72,5.625,5.625,0,0,0,3.48,1.8,6.306,6.306,0,0,0,3.9-.54c1.86-.96,3.78-1.92,5.64-2.82a2.353,2.353,0,0,1,1.08-.24c0.6-.06,1.14-0.18,1.74-0.24a7.852,7.852,0,0,0,1.68-.54,16.886,16.886,0,0,1,10.979-1.38c0.84,0.24,1.68.48,2.46,0.72a6.943,6.943,0,0,0,2.52.24c0.06,0,.12.06,0.18,0.06l5.16,2.28,1.2,0.42a1.627,1.627,0,0,0,1.62-.54A2.216,2.216,0,0,0,388.163,3748.9ZM366.8,3730.25c1.559,0,3.179-.06,4.739-0.18a20.339,20.339,0,0,0,4.68-1.02,14.921,14.921,0,0,0,1.68-.9,3.18,3.18,0,0,0,.9-0.48,2,2,0,0,0,1.02-.84,2.034,2.034,0,0,0-.12-1.86,3.93,3.93,0,0,0-1.32-1.5,6.422,6.422,0,0,1-.84-0.96,2.59,2.59,0,0,0-2.46-.9c-1.92.66-3.84,1.26-5.759,1.86a38.119,38.119,0,0,1-5.88,1.38,46.8,46.8,0,0,0-6.96,1.62,1.8,1.8,0,0,0-.54.6c-0.12.3-.3,0.54-0.42,0.9a0.929,0.929,0,0,0,.66.48c0.48,0.12.9,0.24,1.44,0.36a41.6,41.6,0,0,0,4.5,1.2A17.275,17.275,0,0,0,366.8,3730.25Zm37.5,21.59c-1.259.24-2.579,0.48-3.839,0.66a1,1,0,0,0-.9,1.38c0.6,1.74,1.2,3.48,1.68,5.22a3.832,3.832,0,0,0,1.5,1.98l1.621,1.26a9.469,9.469,0,0,0,1.619,1.08,7.319,7.319,0,0,0,1.02.42,1.332,1.332,0,0,0,.96.06,1.3,1.3,0,0,0,.84-0.54,2.517,2.517,0,0,0,.54-0.84,13.844,13.844,0,0,0,.6-1.68c0.24-1.44.54-2.94,0.84-4.5a0.853,0.853,0,0,0-.12-0.36,0.634,0.634,0,0,1-.12-0.3,5.8,5.8,0,0,0-1.56-2.04,9.922,9.922,0,0,0-2.16-1.32A7.5,7.5,0,0,0,404.3,3751.84Zm51.9-26.45-0.18-.96a15.644,15.644,0,0,0-.3-2.88,6.961,6.961,0,0,0-1.08-2.58,4.041,4.041,0,0,0-1.32-1.14,2.729,2.729,0,0,0-1.68-.3,0.51,0.51,0,0,0-.42.42,0.467,0.467,0,0,0,.18.42,3.853,3.853,0,0,1,1.56,3.48c-0.18,2.22-.42,4.38-0.66,6.54a2.265,2.265,0,0,1-1.2,1.38,18.418,18.418,0,0,0-1.56,1.5,14.354,14.354,0,0,1-.78,1.26,6.424,6.424,0,0,0-.78,1.26,1.855,1.855,0,0,0-.12,1.5,4.049,4.049,0,0,0,.78,1.32,8.36,8.36,0,0,1,.9,1.14,0.882,0.882,0,0,1,.3.89c-0.18,1.14-.36,2.22-0.54,3.3a30.3,30.3,0,0,0-.36,3.36,5.85,5.85,0,0,1-2.52,4.92,1.313,1.313,0,0,0-.54.6c0.3-.06.6-0.12,0.84-0.18a3.046,3.046,0,0,0,1.08-.54c0.6-.54,1.02-0.36,1.14.48a34.452,34.452,0,0,0,1.56,4.8,7.851,7.851,0,0,0,3.66,3.84,9.4,9.4,0,0,0,5.279,1.02,6.779,6.779,0,0,0,4.8-2.82,32.955,32.955,0,0,1,2.64-3.12,22.573,22.573,0,0,0,1.5-1.86,6.116,6.116,0,0,0,.96-2.1l0.9-4.14a13.223,13.223,0,0,0,.24-2.16v-3.42a5.842,5.842,0,0,0-.36-2.04,10.819,10.819,0,0,0-1.86-3.05,6.916,6.916,0,0,0-2.94-1.98l-6.659-2.34c-0.781-.12-1.621-0.3-2.46-0.36-0.6-.12-0.78-0.42-0.54-0.96Q455.844,3727.64,456.2,3725.39Zm-3.18,23.87a2.855,2.855,0,0,1,.3-1.98,4.908,4.908,0,0,1,1.2-1.5,52.217,52.217,0,0,0,4.14-4.02,2.45,2.45,0,0,0,.359-2.4,3.754,3.754,0,0,0-3.119-2.21,6.681,6.681,0,0,1-1.02-.12,0.636,0.636,0,0,1-.54-0.78c0.06-.36.12-0.72,0.18-1.02a27.679,27.679,0,0,1,.72-3.06,0.577,0.577,0,0,1,.54-0.48,18.024,18.024,0,0,1,2.519.3c0.96,0.18,2.04.42,3.06,0.66l2.52,1.08a3.362,3.362,0,0,1,1.5.89c0.42,0.49.78,0.97,1.14,1.45a9.081,9.081,0,0,1,1.56,7.97c-0.42,1.2-.84,2.46-1.26,3.66a12.829,12.829,0,0,1-2.94,4.8,19.322,19.322,0,0,1-4.559,3.42,3.251,3.251,0,0,1-2.22.66,3.056,3.056,0,0,1-2.1-.9,4.325,4.325,0,0,1-1.26-1.98A42.729,42.729,0,0,1,453.024,3749.26Zm0.18-7.26c0.12-.72.18-1.5,0.24-2.22a0.5,0.5,0,0,1,.72-0.54,1.693,1.693,0,0,1,.9.24,0.5,0.5,0,0,1,.36.72,3.027,3.027,0,0,1-.42.78l-1.44,2.16-0.24.24a0.289,0.289,0,0,1-.12-0.36A2.913,2.913,0,0,1,453.2,3742Zm70.679-4.01c-1.08.12-2.16,0.29-3.18,0.47a27.591,27.591,0,0,0-5.459,1.74,51.913,51.913,0,0,0-5.22,2.46c-1.5.72-3,1.44-4.44,2.04a24.385,24.385,0,0,1-4.74,1.56,6.545,6.545,0,0,1-.66.36c-0.36.36-.3,0.6,0.12,0.78,0.3,0.06.6,0.18,0.9,0.24a2.984,2.984,0,0,0,.96.18c0.84-.12,1.62-0.24,2.46-0.42a7.042,7.042,0,0,0,2.4-.78,57.565,57.565,0,0,1,6.24-2.7c2.1-.78,4.2-1.56,6.359-2.34a9.565,9.565,0,0,1,3.48-.84,10.012,10.012,0,0,1,3.54.3,9.2,9.2,0,0,1,1.62.66,3,3,0,0,1,1.32,1.14,2.614,2.614,0,0,1,.42,1.68,5.205,5.205,0,0,1-.3,1.68,3.546,3.546,0,0,1-.42,1.2,19.04,19.04,0,0,1-1.92,2.94,23.276,23.276,0,0,1-2.34,2.52,49.7,49.7,0,0,1-7.919,6.24,2.61,2.61,0,0,0-.42.36c0.18-.06.359-0.06,0.54-0.12,0.84-.42,1.619-0.84,2.4-1.26,1.14-.6,2.22-1.14,3.36-1.8,0.42-.24.84-0.42,1.2-0.6a3.4,3.4,0,0,0,1.08-.72,16.905,16.905,0,0,1,2.76-2.28c0.96-.6,1.98-1.26,2.94-1.86a8.369,8.369,0,0,0,1.62-1.26,4.978,4.978,0,0,0,1.14-1.62,5.054,5.054,0,0,0,.42-2.1,5.62,5.62,0,0,0-.42-2.22,7.591,7.591,0,0,0-1.2-1.86,8.483,8.483,0,0,0-2.4-2.22,7.7,7.7,0,0,0-3-1.2A14.693,14.693,0,0,0,523.883,3737.99Zm59.34,20.87,3.72-.24q1.26,0,.54-1.08a3.852,3.852,0,0,0-2.04-1.86,5.345,5.345,0,0,0-2.76-.36,41.513,41.513,0,0,1-7.259-.3,39.466,39.466,0,0,1-4.44-1.02c-0.42-.06-0.54-0.3-0.18-0.72,0.66-1.14,1.38-2.28,2.1-3.42a9.067,9.067,0,0,1,2.88-2.76c0.18-.12.42-0.3,0.66-0.48a0.635,0.635,0,0,1,.78-0.06,3.825,3.825,0,0,1,.84.48,2.857,2.857,0,0,0,2.7.42,0.748,0.748,0,0,0,.18-0.72c-0.42-.72-0.9-1.5-1.32-2.22l-0.18-.54a22.7,22.7,0,0,1,1.98-1.32c1.2-.66,2.34-1.26,3.42-1.86,0.9-.72,1.8-1.38,2.76-2.04a13.377,13.377,0,0,1,3-1.55,19.989,19.989,0,0,0,3-1.5,1.7,1.7,0,0,0,.54-0.6,1.446,1.446,0,0,0,.3-0.61,2.2,2.2,0,0,0-1.08-1.25,5.433,5.433,0,0,0-1.56-.78,3.217,3.217,0,0,0-1.68-.06,52.289,52.289,0,0,0-9.72,4.8c-1.079.72-2.159,1.43-3.239,2.03-0.42.24-.66,0.18-0.84-0.24-0.42-1.55-.9-3.17-1.38-4.68a22.9,22.9,0,0,1-.78-8.33l0.18-5.22a3.453,3.453,0,0,0-1.2-3,0.852,0.852,0,0,0-1.44.42,10.426,10.426,0,0,0-.6,1.14,32.208,32.208,0,0,0-1.08,16.5,17.189,17.189,0,0,0,1.44,4.61,22.069,22.069,0,0,0,3.42,3.72l0.6,0.6a0.484,0.484,0,0,1-.06.72,2.107,2.107,0,0,1-.6.48,3.442,3.442,0,0,1-.42.24c-2.04,1.56-4.08,3.12-6.06,4.8a1.844,1.844,0,0,0-.42,2.94,7.9,7.9,0,0,0,3.42,3,24.888,24.888,0,0,0,5.82,1.38C579.2,3758.56,581.183,3758.74,583.223,3758.86Zm5.58-24.06c-0.18.19-.3,0.31-0.42,0.43a30.658,30.658,0,0,1-2.88,2.7c-2.1,1.67-4.2,3.35-6.36,4.97a1.482,1.482,0,0,1-.479-0.06,3.07,3.07,0,0,1-.361-0.78,0.622,0.622,0,0,1,.3-0.96,1.339,1.339,0,0,0,1.08-1.26,1.655,1.655,0,0,1,.72-0.84,37.269,37.269,0,0,1,4.26-2.99,27.515,27.515,0,0,1,3.66-1.21h0.48Zm67.5-11.39h-3.12l-0.48-.06a0.468,0.468,0,0,0,.24-0.24,9.827,9.827,0,0,1,1.26-1.5,9.37,9.37,0,0,1,1.98-2.1c1.14-.78,1.2-1.56.06-2.4a1.019,1.019,0,0,0-.36-0.36,4.137,4.137,0,0,0-1.68-.9,17.322,17.322,0,0,0-2.82.66c-0.18.06-.42,0.12-0.6,0.18a0.826,0.826,0,0,1-.66-0.06,0.85,0.85,0,0,1-.06-0.66,2.925,2.925,0,0,1,.24-0.66,2.816,2.816,0,0,0-1.38-3.66c-0.54-.3-1.08-0.66-1.56-0.96a0.654,0.654,0,0,0-.72-0.12,0.738,0.738,0,0,0-.42.66c-0.12,1.92-.18,3.78-0.18,5.64a0.518,0.518,0,0,1-.66.6c-1.02.06-1.98,0.12-3,.18a1.544,1.544,0,0,0-.9.06,0.767,0.767,0,0,0-.6.6,1.876,1.876,0,0,0,.54.66,2.028,2.028,0,0,0,.72.36l3.42,0.96a0.622,0.622,0,0,1,.36.48,25.417,25.417,0,0,1,.18,3.06,1.17,1.17,0,0,1-.06.48,11.064,11.064,0,0,1-2.34,1.44,34.819,34.819,0,0,0-4.98,2.04,13.847,13.847,0,0,0-4.2,3.24,0.318,0.318,0,0,1-.18.12,0.268,0.268,0,0,1,0-.3,17.531,17.531,0,0,1,1.44-2.22,1,1,0,0,0,.06-1.26,6.245,6.245,0,0,0-3.48-2.4,0.94,0.94,0,0,0-1.38.48,5.047,5.047,0,0,1-1.68,2.46c-0.84.66-1.62,1.26-2.46,1.86q-1.08.63-1.98,1.26c-0.36.36-.72,0.66-1.08,1.02l1.62,0.18a25.254,25.254,0,0,0,3.06-.72q0.81-.18.54,0.54c-0.42,1.26-.9,2.51-1.38,3.78-0.54.96-1.02,1.98-1.62,2.87a1.5,1.5,0,0,0-.24.84,4.628,4.628,0,0,0,3,2.88,0.363,0.363,0,0,0,.36,0,2.284,2.284,0,0,1,1.14-.84c0.48-.12.9-0.24,1.38-0.36,0.42-.12.66,0.06,0.6,0.54a21.2,21.2,0,0,1-1.62,6.72,1.037,1.037,0,0,1-.72.36c-1.32-.36-2.58-0.66-3.9-0.9a6.974,6.974,0,0,0-2.52.48c-0.84.36-.84,0.78-0.06,1.26a11.1,11.1,0,0,0,2.22,1.14c1.02,0.24,1.98.48,3,.66a0.428,0.428,0,0,1,.48.42,12.907,12.907,0,0,1-3.48,5.04c-0.42.36-.72,0.3-0.96-0.18a3.442,3.442,0,0,0-.24-0.42,0.317,0.317,0,0,0-.48-0.06c-0.12.24-.3,0.54-0.48,0.84l-0.36.72a1.146,1.146,0,0,0,.18,1.74,1.076,1.076,0,0,1,.3.42,1.13,1.13,0,0,0,1.86.24c0.9-.9,1.86-1.86,2.76-2.88a13.843,13.843,0,0,0,2.22-3.3,3.512,3.512,0,0,1,.6-1.02,1.11,1.11,0,0,1,1.08-.42q0.72,0.18,1.26.36a42.857,42.857,0,0,1,7.739,2.94c2.52,1.26,4.98,2.64,7.32,4.08,1.98,1.14,3.96,2.22,6,3.36a1.508,1.508,0,0,0,.84.36,10.692,10.692,0,0,0,6.42-.42,3.875,3.875,0,0,1,.959-0.54l-0.959-1.08c-0.18-.12-0.36-0.18-0.54-0.3-2.7-.84-5.34-1.8-7.92-2.82a36.558,36.558,0,0,1-3.78-1.8,16.783,16.783,0,0,1-1.5-1.32,1.187,1.187,0,0,1-.12-0.6,21.5,21.5,0,0,1,.54-2.7c0-.3.06-0.6,0.06-0.9a0.723,0.723,0,0,1,.48-0.72,2.514,2.514,0,0,1,.9-0.24,30.408,30.408,0,0,0,7.86-3c0.66-.3.72-0.78,0.3-1.44a18.587,18.587,0,0,0-4.62-4.02l-0.3-.36a0.643,0.643,0,0,0,.36-0.12,3.216,3.216,0,0,0,.66-0.3,1.307,1.307,0,0,0,.54-0.42,1.518,1.518,0,0,0-.66-1.32,6.05,6.05,0,0,0-1.62-1.19,1.133,1.133,0,0,0-1.62-.36,1.368,1.368,0,0,1-.66.18,0.765,0.765,0,0,1-.42-0.3,0.507,0.507,0,0,1,0-.42,26.433,26.433,0,0,1,2.7-2.35l2.82-2.21c0.72-.54.72-1.08,0-1.68a22.636,22.636,0,0,0-3.24-2.04h-0.18c-0.6.18-1.2,0.36-1.74,0.54a0.657,0.657,0,0,1-.48,0,1.788,1.788,0,0,1-.06-1.26,1.862,1.862,0,0,1,.54-1.08c0.48-.18,1.02-0.36,1.56-0.54a5.319,5.319,0,0,1,1.68-.42c2.04,0.12,4.14.3,6.18,0.48a1.236,1.236,0,0,0,.9-0.18,0.636,0.636,0,0,0-.18-0.78,5.414,5.414,0,0,0-1.62-1.68A3.208,3.208,0,0,0,656.3,3723.41Zm-10.68,28.19v1.92a2.972,2.972,0,0,1-.12,1.02,1.779,1.779,0,0,1-.9-0.42,29.218,29.218,0,0,0-5.22-2.28c-1.859-.6-3.659-1.26-5.459-1.86a0.5,0.5,0,0,1-.48-0.78c0.54-1.14,1.02-2.34,1.5-3.48a12.287,12.287,0,0,0,.96-3.6,2.808,2.808,0,0,0-.3-1.86,7.8,7.8,0,0,0-3.24-2.39c-0.42-.12-0.54-0.3-0.36-0.66,0.54-1.5,1.08-3.01,1.56-4.44a0.6,0.6,0,0,1,.78-0.48,3.028,3.028,0,0,0,2.04-.72,10.237,10.237,0,0,1,3-1.8c1.08-.36,2.22-0.72,3.36-1.02h0.3a1.014,1.014,0,0,0-.12.3c-1.26,1.38-2.46,2.82-3.6,4.26a4.661,4.661,0,0,0-.3,1.55,4.556,4.556,0,0,0,1.38,0,9.741,9.741,0,0,1,1.68-.66,3.88,3.88,0,0,1,1.86-.06,4.023,4.023,0,0,0,1.2,0,0.722,0.722,0,0,1,.42,1.27q-2.16,1.89-4.5,3.77a1,1,0,0,0-.3,1.56,4.5,4.5,0,0,0,2.46,2.22c0.36,0.12.42,0.36,0.12,0.6a11.673,11.673,0,0,1-4.259,3.36,1.625,1.625,0,0,0-.721,2.58,2.467,2.467,0,0,0,1.74,1.44,4.94,4.94,0,0,0,2.28.12,11.166,11.166,0,0,0,2.04-.24C645.2,3750.58,645.623,3750.82,645.623,3751.6Zm4.26-9.66a3.1,3.1,0,0,1,2.82.12,8.5,8.5,0,0,1,2.16,1.98,1.2,1.2,0,0,1,.12.9,2.96,2.96,0,0,1-2.16,1.44c-1.26.24-2.52,0.42-3.78,0.72-0.54.06-.78-0.18-0.66-0.72,0.06-1.38.18-2.7,0.36-4.08a1.417,1.417,0,0,1,.54-0.36,2.8,2.8,0,0,0,.6-0.3v0.3Zm-4.26,4.26c0,0.24-.06.54-0.06,0.84a0.584,0.584,0,0,1-.48.6,2.118,2.118,0,0,1-.84.18c-0.6.06-1.26,0.12-1.92,0.12-0.42.06-.54-0.12-0.36-0.48a6.8,6.8,0,0,1,2.94-3.66c0.3-.24.48-0.24,0.48,0.12C645.443,3744.7,645.5,3745.48,645.623,3746.2Zm0.3-17.81v1.44a1.121,1.121,0,0,1-1.08,1.5c-0.72.12-1.44,0.24-2.1,0.42a0.383,0.383,0,0,1-.36,0,1.591,1.591,0,0,1,.3-0.36c0.66-.78,1.38-1.5,2.1-2.28a4.387,4.387,0,0,1,.96-0.84A0.151,0.151,0,0,1,645.923,3728.39Zm4.14,5.45a1.726,1.726,0,0,1,.48-0.83,1.261,1.261,0,0,1,.84-0.42,0.545,0.545,0,0,1,.18.42,5.924,5.924,0,0,0-1.26,1.13A0.6,0.6,0,0,1,650.063,3733.84Zm-0.48-13.37,0.84-.36,0.18,0.18a7.191,7.191,0,0,1-.72.66A1.306,1.306,0,0,1,649.583,3720.47Zm-29.519.12c-0.3,1.38-.54,2.82-0.72,4.26a117.423,117.423,0,0,1-7.5,26.63,2.365,2.365,0,0,1-.3.84v0.24a1.54,1.54,0,0,0,.3-0.12,35.461,35.461,0,0,0,2.879-4.02,29.9,29.9,0,0,0,1.62-3.42c0.12-.06.3-0.12,0.42-0.18a3.134,3.134,0,0,1,.84,1.5l0.36,10.08a4,4,0,0,1-.54,1.26,2.445,2.445,0,0,0-.3,1.08,6.836,6.836,0,0,0,2.1,3.36q0.63,0.54.9-.18a10.378,10.378,0,0,0,.72-2.76c0-1.74,0-3.54-.06-5.34a42.362,42.362,0,0,1,0-5.52,3.079,3.079,0,0,0-1.02-2.88,20.8,20.8,0,0,1-1.74-1.5,0.807,0.807,0,0,1-.48-1.26c1.2-2.64,2.28-5.33,3.24-8.1,0.96-3.71,1.86-7.43,2.64-11.21a3.78,3.78,0,0,1,.6-1.74,1.458,1.458,0,0,0-.18-2.1,5.282,5.282,0,0,0-4.98-2.28c-0.24.06-.54,0.12-0.84,0.18,0.12,0.24.3,0.48,0.42,0.72a3.888,3.888,0,0,1,1.2,1.02A1.737,1.737,0,0,1,620.064,3720.59Zm78.36,24.71c0.119,6.06.179,10.02,0.3,11.94a4.9,4.9,0,0,1-2.039,4.08,0.591,0.591,0,0,1-.96.06c-0.72-.66-1.38-1.32-2.1-1.92a1.048,1.048,0,0,1-.42-0.84,2.487,2.487,0,0,1,.18-0.96,11.848,11.848,0,0,1,1.74-2.64c0.72-.78,1.38-1.62,1.98-2.4a3.4,3.4,0,0,1,.359-0.48,1.14,1.14,0,0,0-.6.3c-1.56,1.08-3.06,2.22-4.56,3.36-0.54.6-.96,0.66-1.44,0.06a2.6,2.6,0,0,0-.3-0.06,0.33,0.33,0,0,0,.18.3,0.63,0.63,0,0,1-.18,1.08c-0.6.36-1.2,0.78-1.74,1.14-0.6.6-1.02,0.48-1.26-.24a0.6,0.6,0,0,0-1.02-.36c-1.56,1.14-1.68,2.34-.36,3.72a2.519,2.519,0,0,0,3.72.48c0.84-.66,1.62-1.38,2.4-2.1a2.925,2.925,0,0,0,.42-0.18c1.08,1.26,2.1,2.52,3.12,3.84a4.419,4.419,0,0,0,2.22,1.68,0.763,0.763,0,0,0,.719,0,12.145,12.145,0,0,0,1.56-1.5,7.069,7.069,0,0,1,.66-1.14,3.208,3.208,0,0,0,.6-2.22c-0.06-1.8-.12-3.54-0.12-5.28,0-.66.24-0.84,0.78-0.54a11.867,11.867,0,0,0,1.86.72,38.3,38.3,0,0,1,11.7,5.34,11.656,11.656,0,0,0,2.16.9,1.088,1.088,0,0,0,1.2-.06,1.776,1.776,0,0,0,.12-1.26,6.6,6.6,0,0,0-1.8-2.28,17.509,17.509,0,0,0-6.84-3.78,24.534,24.534,0,0,0-7.8-.84c-0.3,0-.6-0.06-0.96-0.06a0.477,0.477,0,0,1-.54-0.54,2.6,2.6,0,0,1,.06-0.96,0.933,0.933,0,0,1,.36-0.48c0.66-.18,1.32-0.36,1.98-0.48,0.42-.12.84-0.3,1.26-0.42a18.06,18.06,0,0,0,2.46-.54c1.74-.66,3.48-1.44,5.16-2.22a1.894,1.894,0,0,0,.84-2.94,3.5,3.5,0,0,0-2.76-1.8,1.73,1.73,0,0,0-1.14.36l-1.08.72a0.541,0.541,0,0,0-.06.3,0.285,0.285,0,0,0,.12.3c0.36,0.42.3,0.72-.18,1.08a23.161,23.161,0,0,1-6.12,4.62,2.478,2.478,0,0,0-.66.42,2.355,2.355,0,0,1-.18-0.84c0.12-2.1.24-4.14,0.36-6.18a1.3,1.3,0,0,1,.66-0.72l2.7-.96c1.26-.48,2.58-0.96,3.9-1.38q1.17-.63,2.16-1.26a1.474,1.474,0,0,0,.66-1.01,7.376,7.376,0,0,0-.84-1.5,0.283,0.283,0,0,1-.06-0.36,11.781,11.781,0,0,0,2.76-6.36,3.314,3.314,0,0,0-.66-3.06,10.119,10.119,0,0,0-4.44-2.76,3.51,3.51,0,0,0-2.7,0c-1.08.48-2.28,0.9-3.42,1.38a0.583,0.583,0,0,1-.54-0.06c-0.06-.36-0.18-0.72-0.24-1.14a7.2,7.2,0,0,0-.96-1.92c-0.54-.72-0.9-0.66-1.2.18-0.239,1.26-.479,2.52-0.78,3.78a2.3,2.3,0,0,1-.66,1.02l-3.9,1.8a14.354,14.354,0,0,0-1.26.78,0.33,0.33,0,0,0-.18.3c0.12,0,.24.06,0.36,0.06,1.56-.36,3.12-0.6,4.8-0.9,0.36-.18.481-0.06,0.481,0.36,0,1.02,0,2.1-.061,3.18a0.859,0.859,0,0,1-.6,1.01c-1.98.84-3.84,1.75-5.7,2.65a7.62,7.62,0,0,0-.72.6,2.577,2.577,0,0,0,.96,0c1.26-.18,2.58-0.36,3.84-0.6h0.42a1.312,1.312,0,0,0-.18.3c-0.96,1.08-1.92,2.15-2.88,3.23a19.226,19.226,0,0,1-3.24,3,1.822,1.822,0,0,0-.72,1.26c0.36,1.8,1.38,2.46,3.12,1.92,1.68-.54,3.36-1.14,4.98-1.74C698.244,3744.34,698.543,3744.58,698.424,3745.3Zm3.179-7.61a0.382,0.382,0,0,0,0-.36,1.575,1.575,0,0,1,1.26-1.98c1.14-.55,1.26-1.21.36-2.04a1.81,1.81,0,0,0-.9-0.54,1.126,1.126,0,0,1-.9-1.44c0.12-1.02.24-1.98,0.3-3a0.717,0.717,0,0,1,.48-0.54,27.359,27.359,0,0,1,4.5-1.08,6.06,6.06,0,0,1,2.46,1.08,0.7,0.7,0,0,1,.12.6,3.825,3.825,0,0,1-.12.54,32.876,32.876,0,0,1-1.8,4.8,12.814,12.814,0,0,1-3.06,4.14,23.674,23.674,0,0,1-2.1,1.43c-0.42.3-.6,0.24-0.6-0.3A4.784,4.784,0,0,0,701.6,3737.69Zm-3.24,1.13v0.3a3.957,3.957,0,0,1,0,1.2,1.142,1.142,0,0,1-.6.96,4.033,4.033,0,0,1-1.08.42c-1.2.48-2.4,0.9-3.6,1.38a0.657,0.657,0,0,1-.48,0,0.551,0.551,0,0,1,.06-0.36,13.492,13.492,0,0,1,2.22-3.24,30.623,30.623,0,0,1,2.819-2.75c0.361-.24.6-0.12,0.6,0.36Zm17.82-17.69h0.78a0.547,0.547,0,0,0,.54-0.78,8.773,8.773,0,0,0-.96-1.14,7.152,7.152,0,0,0-1.08-.9,3.175,3.175,0,0,0-1.26-.66h-3.66a49.357,49.357,0,0,0-9.9.66h-0.6a0.681,0.681,0,0,1,.18-0.48,2.645,2.645,0,0,0-.12-3.48,17.963,17.963,0,0,0-2.579-2.22,2.138,2.138,0,0,0-3.42.12c-0.9.72-.84,1.32,0.24,1.8a0.634,0.634,0,0,1,.54.36,5.167,5.167,0,0,1,.18,1.68,2.083,2.083,0,0,1-.6,1.5c-1.08,1.02-2.1,2.1-3.12,3.18a3.4,3.4,0,0,1-.78.48c-2.58,1.26-5.22,2.4-7.92,3.54-1.32.36-2.64,0.72-3.96,1.02a0.763,0.763,0,0,0-.54.42,0.456,0.456,0,0,0,.18.54,4.119,4.119,0,0,0,4.26,1.38c1.14-.36,2.22-0.78,3.3-1.2a0.541,0.541,0,0,0,.3-0.06v0.24c-0.54,1.92-1.08,3.84-1.68,5.76-1.38,3.54-2.82,7.07-4.26,10.55-0.78,2.04-1.62,4.08-2.52,6.06a26.564,26.564,0,0,1-3.54,5.46,2.153,2.153,0,0,1-.659.36,3.334,3.334,0,0,1-.48-0.78c0.06-.6.119-1.26,0.18-1.86a0.388,0.388,0,0,0,.119-0.36,0.379,0.379,0,0,0-.3.36c-0.48,1.32-.9,2.64-1.32,4.02a0.738,0.738,0,0,0,.3.84,1.934,1.934,0,0,0,.84.48,2.707,2.707,0,0,0,2.639-.72c0.42-.3.84-0.6,1.2-0.9a22.488,22.488,0,0,0,2.64-4.32c0.72-1.5,1.44-3.06,2.1-4.62,1.8-4.14,3.36-8.34,4.8-12.6q1.89-4.485,4.14-8.81a4.206,4.206,0,0,1,2.82-2.4c2.1-.66,4.2-1.26,6.239-1.92a30.167,30.167,0,0,1,5.7-1.26,27.529,27.529,0,0,1,9.66.48C715.283,3721.01,715.763,3721.07,716.183,3721.13Zm-24.959,26.93a0.743,0.743,0,0,0-.12.18,0.2,0.2,0,0,0-.3.06l-3.18,1.14c-0.54.18-.54,0.42-0.12,0.72a19.1,19.1,0,0,0,1.92.96,0.77,0.77,0,0,1,.24.6c-0.06.3-.12,0.54-0.18,0.78a5.276,5.276,0,0,0,.6-0.36h0.36c0.9-.36,1.86-0.72,2.82-1.14,0.78-.42.84-0.96,0.18-1.56A19.938,19.938,0,0,0,691.224,3748.06Zm49.26-2.22c0.18,2.58.42,5.16,0.78,7.74,0.36,2.22.78,4.5,1.2,6.72l0.24,0.36a1.361,1.361,0,0,1,.06-0.24,0.285,0.285,0,0,1,.12-0.3,0.41,0.41,0,0,0,.18.3,0.251,0.251,0,0,0,.18.24v-0.3a1.661,1.661,0,0,0,.06-0.54,38.258,38.258,0,0,0,.42-5.22,54.335,54.335,0,0,1,.72-12.48c0.18-1.14.3-2.28,0.42-3.42l0.48-8.75c0.3-1.98.6-3.9,0.84-5.82a3.2,3.2,0,0,0-.36-1.44,0.879,0.879,0,0,0-.66-0.12,2.456,2.456,0,0,0-.9.84c-0.48,1.14-.96,2.22-1.44,3.36a20.93,20.93,0,0,0-1.2,3.42,49.44,49.44,0,0,0-1.02,7.86C740.484,3740.62,740.424,3743.26,740.484,3745.84Zm20.879-21.41v-0.06a6.89,6.89,0,0,1,1.14.06c1.5,0.24,3.06.42,4.56,0.6,0.6,0,.78.3,0.48,0.78-1.32,2.58-2.64,5.04-4.08,7.5-1.56,2.46-3.12,4.86-4.68,7.25-0.119.12-.24,0.3-0.359,0.42v0.24c0.119,0,.179,0,0.179-0.12a14.779,14.779,0,0,0,1.62-1.02,5.58,5.58,0,0,0,1.26-1.38c1.08-1.79,2.16-3.59,3.36-5.39,1.2-1.74,2.46-3.48,3.66-5.28a1.258,1.258,0,0,1,.66-0.48,2.883,2.883,0,0,0,1.86-.6l1.68-1.14a2.256,2.256,0,0,0,.84-0.84,1.6,1.6,0,0,0,.06-1.38,6.207,6.207,0,0,0-.66-1.26,4.361,4.361,0,0,0-1.56-1.2,9.059,9.059,0,0,0-1.8-.6,2.667,2.667,0,0,0-2.34,0c-2.1.9-4.14,1.8-6.18,2.76a2.406,2.406,0,0,0-.9.84A7.018,7.018,0,0,1,761.363,3724.43Zm11.4,31.61a0.289,0.289,0,0,1,.12-0.24h0.54a1.165,1.165,0,0,0,1.44-.72,1.631,1.631,0,0,0-.3-1.68,8.688,8.688,0,0,0-4.98-3.18c-3.3-.78-6.54-1.68-9.84-2.64a4.572,4.572,0,0,1-1.62-1.2c-0.479-.48-0.959-1.02-1.5-1.5a0.458,0.458,0,0,1-.12-0.3,0.45,0.45,0,0,0-.06-0.3,1.312,1.312,0,0,0-.18.3,1.462,1.462,0,0,0,0,.72c0.24,0.78.48,1.56,0.779,2.34a5.87,5.87,0,0,0,1.381,2.04,19.6,19.6,0,0,0,3.719,2.58,35.308,35.308,0,0,0,5.88,2.34C769.583,3755.08,771.143,3755.62,772.763,3756.04Z" transform="translate(-345.375 -3496)"/>
</svg>
