<svg id="concept02-thumbnail.svg" xmlns="http://www.w3.org/2000/svg" width="620.38" height="592" viewBox="0 0 620.38 592">
  <defs>
    <style>
      .cls-1 {
        fill: #5db6c3;
      }

      .cls-1, .cls-2, .cls-3, .cls-4, .cls-5 {
        fill-rule: evenodd;
      }

      .cls-2 {
        fill: #e4fcfc;
      }

      .cls-3 {
        fill: #fff;
        stroke: #4774dc;
        stroke-width: 2px;
      }

      .cls-4 {
        fill: #4774dc;
      }

      .cls-5 {
        opacity: 0.3;
      }
    </style>
  </defs>
  <g id="health.svg">
    <g id="グループ_21" data-name="グループ 21">
      <path id="楕円形_3_のコピー" data-name="楕円形 3 のコピー" class="cls-1" d="M957,4073c163.472,0,295.992-132.52,295.992-295.99s-132.52-296-295.992-296" transform="translate(-956 -3481)"/>
      <path id="楕円形_3_のコピー-2" data-name="楕円形 3 のコピー" class="cls-2" d="M957,4030.92c140.241,0,253.931-113.84,253.931-254.28S1097.24,3522.36,957,3522.36" transform="translate(-956 -3481)"/>
      <path id="楕円形_3_のコピー_3" data-name="楕円形 3 のコピー 3" class="cls-3" d="M957.01,3700.84a76.175,76.175,0,1,1,0,152.35" transform="translate(-956 -3481)"/>
      <path id="健康" class="cls-4" d="M976.274,3755.39a51.99,51.99,0,0,0,2.205-6.12,0.983,0.983,0,0,0,1.1-.61l-3.307-.99a56.5,56.5,0,0,1-4.7,14.51l0.436,0.26a26.94,26.94,0,0,0,2.611-3.77v15.69h0.406a2.619,2.619,0,0,0,1.741-.66v-17.3a1,1,0,0,0,.9-0.52Zm14.623,3.31v-3.2h2.93v3.2H990.9Zm0-7.14h2.93v3.1H990.9v-3.1Zm3.249,8.76a2.7,2.7,0,0,0,1.712-.64v-4.18h2.64a0.691,0.691,0,0,0,.755-0.46c-0.784-.84-2.06-2.03-2.06-2.03l-1.132,1.65h-0.2v-2.7a2.507,2.507,0,0,0,1.248-.58l-2.437-1.85-1.132,1.19H990.9v-1.57a0.989,0.989,0,0,0,1.044-.81l-3.22-.35v2.73h-3.54l0.261,0.84h3.279v3.1h-5.252l0.232,0.84h5.02v3.2h-3.627l0.145,0.43-2.06-1.8-1.248,1.31H980.6c1.1-2.47,2.263-5.28,2.93-6.99a2.374,2.374,0,0,0,1.364-.44l-2.379-2-1.132,1.19h-2.9l0.261,0.84h2.64c-0.928,2.55-2.437,6.24-3.743,9.11a2.99,2.99,0,0,0,2.089.2l0.494-1.1h1.944a34.5,34.5,0,0,1-1.306,7.98,17.365,17.365,0,0,1-2.234-5.22l-0.406.17a22.166,22.166,0,0,0,2.176,6.36,14.281,14.281,0,0,1-3.395,5.25l0.319,0.4a14.706,14.706,0,0,0,4.033-4.23c2.321,2.9,5.716,3.65,10.677,3.65h5.455a1.877,1.877,0,0,1,1.335-1.91v-0.38c-1.683.03-5.078,0.03-6.587,0.03-4.613,0-7.833-.52-10.154-2.7a26.216,26.216,0,0,0,2.292-9.11,1.639,1.639,0,0,0,.957-0.32l0.029,0.09h3.366v2.93h-4.149l0.232,0.84h3.917v3.1h-5.107l0.232,0.88h4.875v3.59h0.406c0.812,0,1.77-.46,1.77-0.75v-2.84h6.644a0.658,0.658,0,0,0,.754-0.47c-0.957-.93-2.553-2.15-2.553-2.15l-1.364,1.74H990.9v-3.1h5.454a0.653,0.653,0,0,0,.755-0.46c-0.929-.87-2.437-2.06-2.437-2.06l-1.335,1.68H990.9v-2.93h2.93v0.81h0.319Zm-6.383,30.85h4.7v2.78h-4.7v-2.78Zm0-3.48h4.7v2.67h-4.7v-2.67Zm4.7,7.11v1.39h0.348a3.9,3.9,0,0,0,1.77-.58,39.079,39.079,0,0,1-3.569,4.06,12.6,12.6,0,0,1-3.134-4.87h4.585Zm2.263,0.66v-4.29h3.336a0.7,0.7,0,0,0,.726-0.44c-0.784-.9-2.205-2.2-2.205-2.2l-1.219,1.83h-0.638v-2.32a1.926,1.926,0,0,0,1.1-.53l-2.5-1.91-1.132,1.25h-4.439v-1.66a1,1,0,0,0,1.045-.81l-3.337-.35v2.82h-6.7l0.261,0.84h6.441v2.67h-8.559v-6.47h21.006a0.678,0.678,0,0,0,.755-0.47c-1.016-.98-2.757-2.35-2.757-2.35l-1.509,1.97h-7.34v-2.4a0.98,0.98,0,0,0,1.073-.79l-3.336-.35v3.54h-7.486l-2.669-1.13v8.48c0,5.16-.2,10.79-2.7,15.31l0.406,0.27c4.091-4.15,4.526-10.1,4.555-14.8h8.559v2.78h-6.934l0.261,0.85h6.673v4.41c-3.975,1.68-7.863,3.22-9.575,3.8l1.886,2.4a0.927,0.927,0,0,0,.465-0.78c3.162-2,5.512-3.65,7.224-4.84v3.42c0,0.43-.145.58-0.667,0.58-0.581,0-3.482-.2-3.482-0.2v0.43a5.111,5.111,0,0,1,2.437.79,2.483,2.483,0,0,1,.639,1.56c2.988-.29,3.365-1.27,3.365-3.02v-6.96c1.567,4.88,4.323,7.81,9.314,9.29a2.508,2.508,0,0,1,1.741-2.04v-0.31a14.468,14.468,0,0,1-7.312-3.2,32.476,32.476,0,0,0,4.671-2.81,0.856,0.856,0,0,0,1.1-.23Zm-16.48.47a8.744,8.744,0,0,1,2.843,3.71c2.118,1.34,3.6-2.84-2.553-3.95Z" transform="translate(-956 -3481)"/>
    </g>
    <g id="グループ_22" data-name="グループ 22">
      <path id="ビタミンA" class="cls-4" d="M1011.01,3623.29a1.06,1.06,0,0,0,.19-0.79,0.987,0.987,0,0,0-.41-0.72,1.041,1.041,0,0,0-.8-0.19c-1.77.28-3.24,0.45-4.42,0.52a12.45,12.45,0,0,1-2.84-.08,3.375,3.375,0,0,1-1.61-.65,2.427,2.427,0,0,1-.66-1.05,6.944,6.944,0,0,1-.22-2.06v-1.79c1.44-.34,2.92-0.72,4.43-1.15s2.96-.87,4.32-1.33a1.048,1.048,0,0,0,.63-1.39,1.1,1.1,0,0,0-.57-0.61,1.041,1.041,0,0,0-.83-0.02c-1.16.43-2.44,0.86-3.86,1.29s-2.79.8-4.12,1.12v-5.57a1.044,1.044,0,0,0-.315-0.75,1.022,1.022,0,0,0-.754-0.31,1.061,1.061,0,0,0-.767.31,1.01,1.01,0,0,0-.324.75v9.45a10.67,10.67,0,0,0,.336,2.75,3.958,3.958,0,0,0,1.265,2.06,4.92,4.92,0,0,0,2.159,1.01,13.274,13.274,0,0,0,3.38.18c1.37-.07,3.07-0.26,5.09-0.57A1,1,0,0,0,1011.01,3623.29Zm1.99-11.11a0.758,0.758,0,0,0-.23-0.62c-0.23-.24-0.51-0.52-0.83-0.82s-0.6-.54-0.81-0.71a1.079,1.079,0,0,0-.6-0.22,0.729,0.729,0,0,0-.56.24,0.656,0.656,0,0,0-.21.55,0.738,0.738,0,0,0,.25.52,9.486,9.486,0,0,1,.79.77q0.39,0.42.72,0.81a0.878,0.878,0,0,0,.58.29,0.738,0.738,0,0,0,.6-0.2A0.962,0.962,0,0,0,1013,3612.18Zm1.86-1.98a0.764,0.764,0,0,0-.25-0.59c-0.23-.23-0.52-0.49-0.85-0.79a7.124,7.124,0,0,0-.85-0.67,1.158,1.158,0,0,0-.59-0.2,0.705,0.705,0,0,0-.57.27,0.624,0.624,0,0,0-.18.55,0.84,0.84,0,0,0,.28.52,14.876,14.876,0,0,1,1.57,1.51,0.794,0.794,0,0,0,.6.26,0.724,0.724,0,0,0,.59-0.24A0.845,0.845,0,0,0,1014.86,3610.2Zm11.14,12.59a25.992,25.992,0,0,0,4.02-3.47c0.3,0.29.58,0.58,0.85,0.88s0.52,0.56.73,0.81a1.174,1.174,0,0,0,.76.41,1.108,1.108,0,0,0,.82-0.22,1.089,1.089,0,0,0,.42-0.77,1.13,1.13,0,0,0-.26-0.84c-0.24-.3-0.53-0.63-0.84-0.96s-0.66-.68-1.01-1.03a21.609,21.609,0,0,0,1.24-1.77,18.286,18.286,0,0,0,1.01-1.83c0.69-1.44.81-2.6,0.33-3.48s-1.55-1.33-3.23-1.33h-2.35q0.135-.255.27-0.48a4.958,4.958,0,0,0,.22-0.47,1.042,1.042,0,0,0,.02-0.83,0.947,0.947,0,0,0-.56-0.58,0.993,0.993,0,0,0-.81-0.03,1.067,1.067,0,0,0-.6.56,15.456,15.456,0,0,1-1.59,2.72,21.023,21.023,0,0,1-2.25,2.61,22.392,22.392,0,0,1-2.71,2.26,0.942,0.942,0,0,0-.44.68,1.075,1.075,0,0,0,.19.81,1,1,0,0,0,.68.44,1.126,1.126,0,0,0,.8-0.16,17.071,17.071,0,0,0,1.81-1.49c0.64-.59,1.26-1.22,1.88-1.9s1.19-1.37,1.7-2.05h3.74a1.2,1.2,0,0,1,1.17.45,1.575,1.575,0,0,1-.2,1.32,16.255,16.255,0,0,1-.86,1.6c-0.31.51-.64,1.01-1,1.51-0.4-.36-0.8-0.71-1.19-1.05s-0.76-.65-1.1-0.95a1.037,1.037,0,0,0-.79-0.22,1.061,1.061,0,0,0-.72.41,0.96,0.96,0,0,0-.24.76,1.162,1.162,0,0,0,.4.75,11.407,11.407,0,0,1,1.03.88c0.38,0.36.79,0.73,1.22,1.14a21.865,21.865,0,0,1-3.61,3.1,26.459,26.459,0,0,1-4.58,2.49,1.054,1.054,0,0,0-.58.61,0.956,0.956,0,0,0,.02.81,1,1,0,0,0,.59.57,1.158,1.158,0,0,0,.82-0.01A27.526,27.526,0,0,0,1026,3622.79Zm29.47,2.67a1.124,1.124,0,0,0,.72-0.39,1.086,1.086,0,0,0,.23-0.8,1.019,1.019,0,0,0-.4-0.73,32.047,32.047,0,0,0-2.68-1.86c-1.03-.65-2.09-1.27-3.18-1.88s-2.11-1.12-3.07-1.55a1.084,1.084,0,0,0-1.44.53,1.111,1.111,0,0,0-.01.84,1,1,0,0,0,.54.6c0.9,0.39,1.87.86,2.9,1.42s2.05,1.15,3.03,1.77a28,28,0,0,1,2.57,1.83A1.015,1.015,0,0,0,1055.47,3625.46Zm-2.01-7.91a0.959,0.959,0,0,0,.66-0.46,0.98,0.98,0,0,0,.16-0.81,1,1,0,0,0-.46-0.68q-0.555-.345-1.44-0.81c-0.59-.31-1.22-0.63-1.89-0.95s-1.33-.63-1.98-0.92-1.2-.51-1.68-0.68a0.986,0.986,0,0,0-.82.07,0.962,0.962,0,0,0-.53.62,1.108,1.108,0,0,0,.06.84,1.021,1.021,0,0,0,.62.53c0.4,0.13.9,0.32,1.48,0.57s1.2,0.53,1.84.84,1.23,0.6,1.8.9,1.01,0.57,1.36.8A1.081,1.081,0,0,0,1053.46,3617.55Zm1.44-4.99a1.049,1.049,0,0,0,.68-0.42,1.065,1.065,0,0,0,.19-0.81,1.021,1.021,0,0,0-.44-0.7q-0.51-.345-1.38-0.84c-0.58-.34-1.21-0.68-1.88-1.02s-1.33-.68-1.97-0.98-1.17-.54-1.62-0.71a0.921,0.921,0,0,0-.81.01,1.134,1.134,0,0,0-.56.62,0.993,0.993,0,0,0,.02.81,1.118,1.118,0,0,0,.61.56c0.41,0.15.91,0.36,1.48,0.63s1.17,0.55,1.78.87,1.19,0.63,1.74.94a14.6,14.6,0,0,1,1.36.85A1.011,1.011,0,0,0,1054.9,3612.56Zm17.25,9.31c1.37-.71,2.69-1.49,3.98-2.33a41.272,41.272,0,0,0,3.5-2.57,17.308,17.308,0,0,0,2.51-2.44,1.021,1.021,0,0,0,.23-0.79,1.042,1.042,0,0,0-.39-0.72,1.127,1.127,0,0,0-.79-0.24,0.994,0.994,0,0,0-.72.38,17.758,17.758,0,0,1-2.38,2.37,27.8,27.8,0,0,1-3.18,2.33,38.529,38.529,0,0,1-3.66,2.09,32.947,32.947,0,0,1-3.8,1.66,1.119,1.119,0,0,0-.62.57,1,1,0,0,0-.03.83,1.044,1.044,0,0,0,1.37.62A32.84,32.84,0,0,0,1072.15,3621.87Zm-0.82-7.01a1.045,1.045,0,0,0,.71-0.42,0.978,0.978,0,0,0,.22-0.79,1.094,1.094,0,0,0-.4-0.72c-0.31-.25-0.72-0.56-1.23-0.94s-1.04-.76-1.57-1.14-0.99-.69-1.38-0.94a0.971,0.971,0,0,0-.81-0.14,1.079,1.079,0,0,0-.68.52,0.97,0.97,0,0,0-.11.8,1.106,1.106,0,0,0,.48.66c0.39,0.23.82,0.51,1.29,0.83s0.95,0.67,1.42,1.03,0.89,0.69,1.26,1.02A0.947,0.947,0,0,0,1071.33,3614.86Zm15.9,9.91a1.092,1.092,0,0,0,1.13-.81l1.28-3.34h6.71l1.25,3.34a1.127,1.127,0,0,0,1.16.81h0.35a0.755,0.755,0,0,0,.72-0.31,0.96,0.96,0,0,0,0-.85l-5.57-14.3a1.137,1.137,0,0,0-1.16-.79h-0.16a1.129,1.129,0,0,0-1.16.79l-5.58,14.3a0.951,0.951,0,0,0,.02.85,0.75,0.75,0,0,0,.7.31h0.31Zm5.8-13.21,2.6,7.06h-5.27Z" transform="translate(-956 -3481)"/>
      <path id="ビタミンB1" class="cls-4" d="M1040.03,3678.42a1.039,1.039,0,0,0,.19-0.79,0.987,0.987,0,0,0-.41-0.72,1.036,1.036,0,0,0-.8-0.18c-1.77.28-3.24,0.45-4.42,0.52a13.058,13.058,0,0,1-2.84-.08,3.375,3.375,0,0,1-1.61-.65,2.373,2.373,0,0,1-.66-1.06,6.868,6.868,0,0,1-.22-2.05v-1.79c1.44-.34,2.91-0.72,4.43-1.15s2.96-.87,4.32-1.33a1.013,1.013,0,0,0,.61-0.57,1.085,1.085,0,0,0,.02-0.83,1.081,1.081,0,0,0-1.4-.62c-1.16.43-2.45,0.86-3.86,1.28s-2.79.81-4.12,1.13v-5.57a1.075,1.075,0,0,0-1.07-1.07,1.125,1.125,0,0,0-.77.31,1.051,1.051,0,0,0-.32.76v9.45a10.854,10.854,0,0,0,.33,2.75,3.969,3.969,0,0,0,1.27,2.05,4.821,4.821,0,0,0,2.16,1.01,12.774,12.774,0,0,0,3.38.19c1.37-.07,3.07-0.26,5.09-0.57A1.045,1.045,0,0,0,1040.03,3678.42Zm1.98-11.11a0.7,0.7,0,0,0-.22-0.61c-0.23-.25-0.51-0.52-0.83-0.83s-0.6-.53-0.81-0.7a1.009,1.009,0,0,0-.6-0.22,0.736,0.736,0,0,0-.57.24,0.667,0.667,0,0,0-.2.55,0.758,0.758,0,0,0,.25.52c0.26,0.23.53,0.49,0.79,0.76s0.5,0.55.72,0.82a0.9,0.9,0,0,0,.58.29,0.774,0.774,0,0,0,.6-0.2A0.974,0.974,0,0,0,1042.01,3667.31Zm1.87-1.97a0.75,0.75,0,0,0-.25-0.59c-0.23-.23-0.52-0.5-0.85-0.79a7.124,7.124,0,0,0-.85-0.67,1.072,1.072,0,0,0-.59-0.2,0.705,0.705,0,0,0-.57.27,0.6,0.6,0,0,0-.18.54,0.815,0.815,0,0,0,.28.52,17.2,17.2,0,0,1,1.57,1.51,0.841,0.841,0,0,0,.6.27,0.724,0.724,0,0,0,.59-0.24A0.845,0.845,0,0,0,1043.88,3665.34Zm11.13,12.58a25.1,25.1,0,0,0,4.03-3.47c0.3,0.3.58,0.59,0.85,0.88s0.51,0.57.73,0.82a1.162,1.162,0,0,0,.76.4,1.1,1.1,0,0,0,1.24-.98,1.13,1.13,0,0,0-.26-0.84q-0.375-.465-0.84-0.96l-1.01-1.04c0.44-.57.86-1.16,1.24-1.76a18.286,18.286,0,0,0,1.01-1.83c0.69-1.44.81-2.6,0.33-3.49s-1.55-1.32-3.23-1.32h-2.35c0.09-.17.18-0.33,0.27-0.49a4.806,4.806,0,0,0,.22-0.46,1.067,1.067,0,0,0,.02-0.84,0.973,0.973,0,0,0-.56-0.58,0.993,0.993,0,0,0-.81-0.02,1.035,1.035,0,0,0-.6.56,15.389,15.389,0,0,1-1.59,2.71,19.667,19.667,0,0,1-2.25,2.61,22.476,22.476,0,0,1-2.71,2.27,0.923,0.923,0,0,0-.44.67,1.055,1.055,0,0,0,.19.81,0.951,0.951,0,0,0,.68.44,1.078,1.078,0,0,0,.8-0.16,16.673,16.673,0,0,0,1.81-1.48c0.64-.59,1.26-1.23,1.88-1.91s1.19-1.36,1.7-2.04h3.74a1.221,1.221,0,0,1,1.17.44,1.609,1.609,0,0,1-.2,1.32,16.425,16.425,0,0,1-.86,1.61c-0.31.51-.64,1.01-1,1.51-0.4-.36-0.8-0.71-1.19-1.05s-0.77-.66-1.11-0.95a0.966,0.966,0,0,0-.78-0.22,1.05,1.05,0,0,0-.72.4,0.983,0.983,0,0,0-.24.77,1.119,1.119,0,0,0,.4.74c0.31,0.24.65,0.53,1.03,0.89s0.79,0.73,1.22,1.13a21.8,21.8,0,0,1-3.61,3.1,25.577,25.577,0,0,1-4.59,2.5,1.068,1.068,0,0,0-.58.6,0.993,0.993,0,0,0,.03.81,1,1,0,0,0,.59.57,1.107,1.107,0,0,0,.82-0.01A26.452,26.452,0,0,0,1055.01,3677.92Zm29.48,2.67a1.112,1.112,0,0,0,.72-0.38,1.086,1.086,0,0,0,.23-0.8,1,1,0,0,0-.4-0.73,32.047,32.047,0,0,0-2.68-1.86c-1.03-.65-2.09-1.28-3.18-1.88s-2.11-1.12-3.07-1.56a1.1,1.1,0,0,0-1.44.54,1.135,1.135,0,0,0-.02.83,1.1,1.1,0,0,0,.55.61c0.9,0.38,1.87.86,2.9,1.41s2.05,1.15,3.03,1.78a29.493,29.493,0,0,1,2.57,1.82A0.978,0.978,0,0,0,1084.49,3680.59Zm-2.01-7.9a1.107,1.107,0,0,0,.82-1.28,0.978,0.978,0,0,0-.46-0.67q-0.555-.345-1.44-0.81t-1.89-.96c-0.68-.32-1.33-0.63-1.98-0.91s-1.2-.52-1.68-0.69a1.025,1.025,0,0,0-.82.07,1,1,0,0,0-.53.63,1.083,1.083,0,0,0,.06.83,1.006,1.006,0,0,0,.62.54,13.3,13.3,0,0,1,1.48.57c0.59,0.25,1.2.53,1.84,0.83s1.23,0.61,1.8.91a15.632,15.632,0,0,1,1.35.8A1.162,1.162,0,0,0,1082.48,3672.69Zm1.44-4.99a1.049,1.049,0,0,0,.68-0.42,1.12,1.12,0,0,0,.19-0.81,1.034,1.034,0,0,0-.44-0.7c-0.34-.23-0.8-0.51-1.38-0.85s-1.21-.67-1.88-1.02-1.33-.67-1.97-0.97-1.17-.54-1.62-0.71a0.889,0.889,0,0,0-.81.01,1.115,1.115,0,0,0-.56.61,1.017,1.017,0,0,0,.02.82,1.067,1.067,0,0,0,.61.55c0.41,0.16.91,0.37,1.48,0.63s1.17,0.55,1.78.87,1.19,0.63,1.74.94a14.458,14.458,0,0,1,1.36.86A1.084,1.084,0,0,0,1083.92,3667.7Zm17.25,9.31c1.37-.72,2.69-1.49,3.98-2.34a41.247,41.247,0,0,0,3.5-2.56,17.845,17.845,0,0,0,2.51-2.44,1.021,1.021,0,0,0,.23-0.79,1.042,1.042,0,0,0-.39-0.72,1.082,1.082,0,0,0-.79-0.24,0.959,0.959,0,0,0-.72.38,19.726,19.726,0,0,1-2.38,2.37,30.417,30.417,0,0,1-3.18,2.33,40.831,40.831,0,0,1-3.66,2.09,35.636,35.636,0,0,1-3.8,1.66,1.119,1.119,0,0,0-.62.57,0.979,0.979,0,0,0-.03.82,1.067,1.067,0,0,0,.55.61,1.017,1.017,0,0,0,.82.02A32.84,32.84,0,0,0,1101.17,3677.01Zm-0.82-7.02a1,1,0,0,0,.71-0.41,0.988,0.988,0,0,0,.22-0.79,1.05,1.05,0,0,0-.4-0.72c-0.31-.25-0.72-0.56-1.23-0.94s-1.04-.76-1.57-1.14-1-.69-1.38-0.94a0.937,0.937,0,0,0-.81-0.14,1.1,1.1,0,0,0-.68.51,0.981,0.981,0,0,0-.11.8,1.051,1.051,0,0,0,.48.66c0.39,0.24.82,0.51,1.29,0.84s0.95,0.67,1.42,1.02,0.89,0.7,1.26,1.02A0.947,0.947,0,0,0,1100.35,3669.99Zm22.6,9.92a5.7,5.7,0,0,0,3.75-1.09,4.058,4.058,0,0,0,1.29-3.28,4.408,4.408,0,0,0-.85-2.72,3.635,3.635,0,0,0-2.17-1.46,3.287,3.287,0,0,0,1.65-1.3,3.96,3.96,0,0,0,.63-2.29,3.855,3.855,0,0,0-1.22-3.06,5.01,5.01,0,0,0-3.38-1.05h-5.43a0.892,0.892,0,0,0-1,1.02v14.21a0.892,0.892,0,0,0,1,1.02h5.73Zm-4.62-7.36h4.35a3.293,3.293,0,0,1,2.18.72,2.932,2.932,0,0,1,.14,4,3.4,3.4,0,0,1-2.3.64h-4.37v-5.36Zm0-6.9h3.95c1.78,0,2.67.81,2.67,2.42a2.289,2.289,0,0,1-2.53,2.46h-4.09v-4.88Zm17.04,13.14v-14.06c0-.75-0.26-1.12-0.79-1.12a2.438,2.438,0,0,0-1.34.4l-3.02,1.85a0.917,0.917,0,0,0-.39,1.44,0.88,0.88,0,0,0,1.44.23l2.13-1.34v12.6a0.938,0.938,0,0,0,1,1.12,0.927,0.927,0,0,0,.97-1.12h0Z" transform="translate(-956 -3481)"/>
      <path id="ビタミンD" class="cls-4" d="M1061.79,3733.56a1.008,1.008,0,0,0,.19-0.79,0.956,0.956,0,0,0-.41-0.72,1.074,1.074,0,0,0-.8-0.19c-1.76.28-3.24,0.46-4.42,0.53a12.267,12.267,0,0,1-2.83-.09,3.417,3.417,0,0,1-1.62-.65,2.427,2.427,0,0,1-.66-1.05,6.944,6.944,0,0,1-.22-2.06v-1.78c1.44-.34,2.92-0.73,4.44-1.15s2.95-.87,4.31-1.34a1.031,1.031,0,0,0,.62-0.57,1.017,1.017,0,0,0,.01-0.82,1.052,1.052,0,0,0-.57-0.6,0.979,0.979,0,0,0-.82-0.03q-1.74.66-3.87,1.29c-1.41.43-2.79,0.8-4.12,1.13v-5.57a1.059,1.059,0,0,0-1.07-1.07,1.042,1.042,0,0,0-.76.31,1.007,1.007,0,0,0-.33.76v9.44a10.541,10.541,0,0,0,.34,2.76,3.994,3.994,0,0,0,1.26,2.05,4.821,4.821,0,0,0,2.16,1.01,13.72,13.72,0,0,0,3.38.19q2.055-.105,5.1-0.57A1.047,1.047,0,0,0,1061.79,3733.56Zm1.99-11.11a0.762,0.762,0,0,0-.22-0.62c-0.23-.24-0.51-0.52-0.84-0.82s-0.59-.54-0.81-0.71a1.049,1.049,0,0,0-.59-0.22,0.747,0.747,0,0,0-.57.25,0.626,0.626,0,0,0-.21.54,0.749,0.749,0,0,0,.26.52c0.26,0.24.52,0.49,0.78,0.77s0.51,0.55.72,0.81a0.878,0.878,0,0,0,.58.29,0.742,0.742,0,0,0,.61-0.19A0.974,0.974,0,0,0,1063.78,3722.45Zm1.87-1.97a0.794,0.794,0,0,0-.26-0.6c-0.23-.23-0.51-0.49-0.85-0.78a8.38,8.38,0,0,0-.84-0.68,1.224,1.224,0,0,0-.59-0.2,0.77,0.77,0,0,0-.57.27,0.613,0.613,0,0,0-.19.55,0.815,0.815,0,0,0,.28.52,16.054,16.054,0,0,1,1.58,1.51,0.8,0.8,0,0,0,.59.27,0.75,0.75,0,0,0,.59-0.25A0.832,0.832,0,0,0,1065.65,3720.48Zm11.13,12.58a26.549,26.549,0,0,0,4.03-3.47c0.29,0.29.57,0.59,0.84,0.88s0.52,0.57.74,0.81a1.132,1.132,0,0,0,.75.41,1.116,1.116,0,0,0,.99-1.82c-0.25-.31-0.53-0.63-0.85-0.97s-0.65-.67-1.01-1.03a20.752,20.752,0,0,0,1.24-1.76,17.557,17.557,0,0,0,1.01-1.84c0.7-1.44.81-2.6,0.34-3.48s-1.55-1.32-3.24-1.32h-2.35c0.1-.17.19-0.34,0.27-0.49a3.81,3.81,0,0,0,.22-0.46,1.068,1.068,0,0,0,.03-0.84,1.065,1.065,0,0,0-1.37-.6,1.067,1.067,0,0,0-.61.55,15.1,15.1,0,0,1-1.59,2.72,21.023,21.023,0,0,1-2.25,2.61,22.3,22.3,0,0,1-2.7,2.26,0.954,0.954,0,0,0-.45.68,1.12,1.12,0,0,0,.19.81,1,1,0,0,0,.68.44,1.152,1.152,0,0,0,.81-0.16,17.889,17.889,0,0,0,1.81-1.49c0.63-.59,1.26-1.22,1.88-1.9s1.18-1.36,1.69-2.04h3.74a1.2,1.2,0,0,1,1.17.44,1.575,1.575,0,0,1-.2,1.32c-0.26.56-.55,1.09-0.85,1.6s-0.65,1.02-1,1.51c-0.41-.35-0.8-0.7-1.2-1.04s-0.76-.66-1.1-0.96a1.067,1.067,0,0,0-.79-0.22,1.107,1.107,0,0,0-.72.41,0.965,0.965,0,0,0-.23.77,1.106,1.106,0,0,0,.39.74,13.276,13.276,0,0,1,1.04.88c0.37,0.36.78,0.74,1.21,1.14a21.865,21.865,0,0,1-3.61,3.1,25.8,25.8,0,0,1-4.58,2.49,1.085,1.085,0,0,0-.58.61,0.993,0.993,0,0,0,.02.81,1.031,1.031,0,0,0,.59.57,1.134,1.134,0,0,0,.83-0.01A27.076,27.076,0,0,0,1076.78,3733.06Zm29.47,2.67a1.158,1.158,0,0,0,.72-0.38,1.056,1.056,0,0,0,.23-0.8,1.045,1.045,0,0,0-.39-0.74c-0.76-.58-1.65-1.2-2.68-1.85s-2.09-1.28-3.18-1.88-2.12-1.13-3.08-1.56a1.067,1.067,0,0,0-.84-0.02,1.082,1.082,0,0,0-.6.55,1.16,1.16,0,0,0-.01.84,1,1,0,0,0,.54.6c0.9,0.39,1.87.86,2.91,1.42s2.04,1.15,3.03,1.78a27.26,27.26,0,0,1,2.56,1.82A1.026,1.026,0,0,0,1106.25,3735.73Zm-2.01-7.91a0.959,0.959,0,0,0,.66-0.46,1.022,1.022,0,0,0,.17-0.81,1.043,1.043,0,0,0-.47-0.68q-0.555-.345-1.44-0.81c-0.59-.31-1.22-0.63-1.89-0.95s-1.33-.63-1.97-0.92-1.21-.51-1.69-0.68a1.028,1.028,0,0,0-.82.07,1,1,0,0,0-.52.62,1.061,1.061,0,0,0,.06.84,1,1,0,0,0,.61.53c0.4,0.13.9,0.32,1.49,0.57s1.2,0.54,1.83.84,1.24,0.6,1.8.9,1.02,0.57,1.36.8A1.045,1.045,0,0,0,1104.24,3727.82Zm1.44-4.99a1,1,0,0,0,.69-0.41,1.084,1.084,0,0,0,.18-0.82,0.969,0.969,0,0,0-.44-0.69c-0.34-.24-0.8-0.52-1.38-0.85s-1.21-.67-1.88-1.02-1.33-.68-1.96-0.98-1.18-.54-1.63-0.71a0.889,0.889,0,0,0-.81.02,1.118,1.118,0,0,0-.56.61,0.955,0.955,0,0,0,.03.81,1.035,1.035,0,0,0,.6.56c0.42,0.16.91,0.36,1.49,0.63s1.16,0.55,1.77.87,1.19,0.63,1.74.94a12.662,12.662,0,0,1,1.36.86A1.054,1.054,0,0,0,1105.68,3722.83Zm17.25,9.31a45,45,0,0,0,3.98-2.33,38,38,0,0,0,3.51-2.57,18.4,18.4,0,0,0,2.51-2.43,1.087,1.087,0,0,0,.23-0.79,1.014,1.014,0,0,0-.4-0.72,1.076,1.076,0,0,0-.79-0.25,1.006,1.006,0,0,0-.72.39,17.724,17.724,0,0,1-2.38,2.36,29.087,29.087,0,0,1-3.18,2.34c-1.17.75-2.38,1.44-3.65,2.09a36.965,36.965,0,0,1-3.81,1.66,1.116,1.116,0,0,0-.62.57,0.979,0.979,0,0,0-.03.82,1.035,1.035,0,0,0,.56.6,0.955,0.955,0,0,0,.81.03A34.614,34.614,0,0,0,1122.93,3732.14Zm-0.81-7.01a1.03,1.03,0,0,0,.71-0.42,1.015,1.015,0,0,0,.22-0.79,1.107,1.107,0,0,0-.41-0.72c-0.31-.24-0.72-0.56-1.23-0.94s-1.03-.75-1.57-1.13-0.99-.7-1.38-0.94a0.937,0.937,0,0,0-.81-0.14,1.015,1.015,0,0,0-.67.51,0.942,0.942,0,0,0-.12.8,1.065,1.065,0,0,0,.49.66q0.57,0.345,1.29.84,0.7,0.48,1.41,1.02c0.47,0.35.9,0.69,1.27,1.02A0.938,0.938,0,0,0,1122.12,3725.13Zm20.86,9.91a8.627,8.627,0,0,0,4.3-.99,6.547,6.547,0,0,0,2.67-2.84,10.509,10.509,0,0,0,0-8.6,6.608,6.608,0,0,0-2.67-2.82,8.627,8.627,0,0,0-4.3-1h-3.9a0.974,0.974,0,0,0-1.09,1.12v14.02a0.971,0.971,0,0,0,1.09,1.11h3.9Zm-2.88-14.25h2.74a6.17,6.17,0,0,1,3.24.78,4.849,4.849,0,0,1,1.93,2.15,8.063,8.063,0,0,1,0,6.39,4.873,4.873,0,0,1-1.93,2.16,6.17,6.17,0,0,1-3.24.78h-2.74v-12.26Z" transform="translate(-956 -3481)"/>
      <path id="カルシウム" class="cls-4" d="M1077.42,3790.99a1.071,1.071,0,0,0,.74-0.32,22.474,22.474,0,0,0,3.53-5.32,32.065,32.065,0,0,0,2.37-6.68l1.51-.07a4.981,4.981,0,0,1,2.33.26,1.679,1.679,0,0,1,.93,1.4,10.123,10.123,0,0,1-.2,2.98,14.176,14.176,0,0,1-.78,2.9,3.865,3.865,0,0,1-1.04,1.54,2.46,2.46,0,0,1-1.29.55,5.61,5.61,0,0,1-1.51-.07,1.041,1.041,0,0,0-.8.19,1.023,1.023,0,0,0-.43.69,0.983,0.983,0,0,0,.17.8,1.05,1.05,0,0,0,.71.43,6.65,6.65,0,0,0,3.24-.17,4.544,4.544,0,0,0,2.37-2.03,12.943,12.943,0,0,0,1.47-4.48,11.4,11.4,0,0,0,.12-4.15,3.271,3.271,0,0,0-1.61-2.31,7.112,7.112,0,0,0-3.75-.6l-1.03.02c0.1-.63.18-1.26,0.25-1.89s0.11-1.26.13-1.89a1.032,1.032,0,0,0-.28-0.78,1.1,1.1,0,0,0-.75-0.34,1.03,1.03,0,0,0-.76.28,1.063,1.063,0,0,0-.35.75c-0.03.68-.08,1.35-0.14,2.02a17.948,17.948,0,0,1-.28,1.95l-4.87.2a1.126,1.126,0,0,0-.75.35,1.023,1.023,0,0,0-.27.79,1.072,1.072,0,0,0,.34.75,1,1,0,0,0,.77.27l4.36-.23a26.313,26.313,0,0,1-2.07,5.75,19.91,19.91,0,0,1-3.22,4.68,1.015,1.015,0,0,0-.28.76,1.06,1.06,0,0,0,.35.74A0.965,0.965,0,0,0,1077.42,3790.99Zm37.9-5.09c0.87-.38,1.67-0.77,2.4-1.15a1.1,1.1,0,0,0,.46-1.44,1.108,1.108,0,0,0-.64-0.54,1.063,1.063,0,0,0-.82.07c-0.62.33-1.35,0.68-2.18,1.05s-1.68.71-2.53,1.02a3.418,3.418,0,0,1-2.46.26,1.6,1.6,0,0,1-.79-1.61v-7.12a1.064,1.064,0,0,0-.32-0.78,1.1,1.1,0,0,0-1.53,0,1.055,1.055,0,0,0-.31.78v7.12a4.4,4.4,0,0,0,.79,2.88,2.936,2.936,0,0,0,2.19,1.05,7.994,7.994,0,0,0,3.19-.56C1113.59,3786.62,1114.44,3786.28,1115.32,3785.9Zm-14.08-.04a10.935,10.935,0,0,0,2.25-3.64,12.871,12.871,0,0,0,.79-4.53,1.093,1.093,0,0,0-1.07-1.07,1.091,1.091,0,0,0-.77.32,1.013,1.013,0,0,0-.32.75,12.478,12.478,0,0,1-.47,3.41,8.052,8.052,0,0,1-1.6,3.01,8.649,8.649,0,0,1-3.18,2.26,1,1,0,0,0-.56.58,1.213,1.213,0,0,0,0,.84,1.118,1.118,0,0,0,.61.56,0.993,0.993,0,0,0,.81-0.03A10.7,10.7,0,0,0,1101.24,3785.86Zm27.22,2.09a34.7,34.7,0,0,0,4.02-2.55,31.974,31.974,0,0,0,3.6-3.03,20.222,20.222,0,0,0,2.67-3.12,1.084,1.084,0,0,0,.18-0.82,1.1,1.1,0,0,0-1.26-.84,1.017,1.017,0,0,0-.68.45,20.686,20.686,0,0,1-2.51,2.96,28.409,28.409,0,0,1-3.26,2.76,31.5,31.5,0,0,1-3.67,2.29,23.619,23.619,0,0,1-3.7,1.58,1.067,1.067,0,0,0-.63.53,1,1,0,0,0-.07.81,1.05,1.05,0,0,0,.54.63,1,1,0,0,0,.81.07A22.857,22.857,0,0,0,1128.46,3787.95Zm-1.95-5.49a0.966,0.966,0,0,0,.7-0.36,1.034,1.034,0,0,0,.27-0.8,0.979,0.979,0,0,0-.38-0.73c-0.28-.22-0.65-0.47-1.12-0.77s-0.94-.58-1.44-0.86-0.92-.5-1.3-0.67a1.081,1.081,0,0,0-.81-0.05,1.119,1.119,0,0,0-.63.54,1.107,1.107,0,0,0-.05.82,0.928,0.928,0,0,0,.54.62,10.954,10.954,0,0,1,1.09.57c0.45,0.25.89,0.52,1.33,0.79s0.76,0.5,1,.68A1.2,1.2,0,0,0,1126.51,3782.46Zm2.47-4.01a1.011,1.011,0,0,0,.74-0.34,1.039,1.039,0,0,0-.05-1.51,9.725,9.725,0,0,0-1.07-.85c-0.46-.31-0.93-0.62-1.4-0.93s-0.88-.54-1.24-0.73a1.055,1.055,0,0,0-.8-0.1,0.982,0.982,0,0,0-.66.5,0.959,0.959,0,0,0-.12.81,1.015,1.015,0,0,0,.51.65,11.379,11.379,0,0,1,1.07.63c0.43,0.27.86,0.56,1.29,0.84a7.431,7.431,0,0,1,.96.74A1.088,1.088,0,0,0,1128.98,3778.45Zm26.96,9.87a13.661,13.661,0,0,0,2.99-3.25,12.472,12.472,0,0,0,1.53-3.36,13.872,13.872,0,0,0,.5-2.52,2.689,2.689,0,0,0-.59-1.89,3.629,3.629,0,0,0-1.99-1.25,15.622,15.622,0,0,0-3.66-.4v-2.93a1,1,0,0,0-.31-0.76,1.06,1.06,0,0,0-.75-0.31,1.107,1.107,0,0,0-.77.31,0.969,0.969,0,0,0-.32.76v2.93a23.85,23.85,0,0,0-2.69.16,6.438,6.438,0,0,0-1.76.44,3.307,3.307,0,0,0-1.17.84,2.866,2.866,0,0,0-.77,1.99,20.017,20.017,0,0,0,.3,3.21,1.023,1.023,0,0,0,.43.69,1.041,1.041,0,0,0,.8.19,1.021,1.021,0,0,0,.7-0.43,1.084,1.084,0,0,0,.19-0.8,14,14,0,0,1-.25-2.35,1.687,1.687,0,0,1,.27-1.04,1.588,1.588,0,0,1,.8-0.51,6.678,6.678,0,0,1,1.5-.22c0.65-.04,1.51-0.06,2.6-0.06a22.848,22.848,0,0,1,3.37.19,2.317,2.317,0,0,1,1.62.72,1.379,1.379,0,0,1,.18.91,8.924,8.924,0,0,1-.3,1.55,9.851,9.851,0,0,1-1.32,2.87,11.454,11.454,0,0,1-2.55,2.7,18.78,18.78,0,0,1-4.21,2.37,0.932,0.932,0,0,0-.55.58,1.035,1.035,0,0,0,0,.81,1.087,1.087,0,0,0,1.41.58A19.105,19.105,0,0,0,1155.94,3788.32Zm29.5-.01a0.939,0.939,0,0,0-.09-0.8q-0.375-.645-1.08-1.62c-0.48-.65-1-1.34-1.56-2.05s-1.11-1.37-1.63-1.99-0.95-1.12-1.31-1.49a1.011,1.011,0,0,0-.74-0.34,1.1,1.1,0,0,0-.77.29,1.085,1.085,0,0,0-.33.76,1.069,1.069,0,0,0,.29.78c0.31,0.31.66,0.68,1.05,1.12s0.79,0.91,1.18,1.41c-1.09.15-2.29,0.3-3.62,0.45s-2.64.28-3.93,0.41q0.96-1.44,1.89-3.09c0.63-1.1,1.21-2.18,1.73-3.24s0.97-2.02,1.33-2.89a1,1,0,0,0,0-.83,1.051,1.051,0,0,0-.61-0.56,0.911,0.911,0,0,0-.82,0,1.052,1.052,0,0,0-.57.6c-0.28.7-.63,1.49-1.04,2.38s-0.88,1.81-1.37,2.75-1.01,1.86-1.55,2.74-1.05,1.67-1.57,2.37c-0.34.03-.66,0.06-0.97,0.08s-0.6.05-.86,0.08a1.019,1.019,0,0,0-.73.35,1.1,1.1,0,0,0-.27.79,1.03,1.03,0,0,0,.36.73,1.128,1.128,0,0,0,.78.27c0.93-.08,1.97-0.18,3.11-0.29s2.32-.25,3.53-0.4,2.38-.3,3.52-0.46,2.15-.32,3.05-0.48q0.54,0.72.96,1.35a11.556,11.556,0,0,1,.66,1.04,1.091,1.091,0,0,0,.64.51,0.928,0.928,0,0,0,.8-0.07A1.106,1.106,0,0,0,1185.44,3788.31Z" transform="translate(-956 -3481)"/>
      <path id="DHA_EPA" data-name="DHA・EPA" class="cls-4" d="M1050.12,3843.87a8.627,8.627,0,0,0,4.3-1,6.577,6.577,0,0,0,2.67-2.83,10.532,10.532,0,0,0,0-8.61,6.608,6.608,0,0,0-2.67-2.82,8.627,8.627,0,0,0-4.3-.99h-3.9a0.971,0.971,0,0,0-1.09,1.11v14.02a0.978,0.978,0,0,0,1.09,1.12h3.9Zm-2.88-14.26h2.74a6.17,6.17,0,0,1,3.24.78,4.908,4.908,0,0,1,1.93,2.15,8.177,8.177,0,0,1,0,6.39,4.933,4.933,0,0,1-1.93,2.16,6.17,6.17,0,0,1-3.24.78h-2.74v-12.26Zm14.62,14.26a0.9,0.9,0,0,0,1-1.03v-6.52h8.15v6.52a0.9,0.9,0,0,0,1,1.03h0.14a0.9,0.9,0,0,0,1-1.03v-14.2a0.9,0.9,0,0,0-1-1.02h-0.14a0.892,0.892,0,0,0-1,1.02v5.71h-8.15v-5.71a0.892,0.892,0,0,0-1-1.02h-0.11a0.892,0.892,0,0,0-1,1.02v14.2a0.9,0.9,0,0,0,1,1.03h0.11Zm14.86,0a1.119,1.119,0,0,0,1.14-.82l1.28-3.34h6.7l1.26,3.34a1.12,1.12,0,0,0,1.16.82h0.35a0.781,0.781,0,0,0,.72-0.32,1.032,1.032,0,0,0,0-.85l-5.57-14.3a1.153,1.153,0,0,0-1.17-.78h-0.16a1.14,1.14,0,0,0-1.16.78l-5.57,14.3a0.989,0.989,0,0,0,.01.85,0.774,0.774,0,0,0,.71.32h0.3Zm5.8-13.21,2.6,7.05h-5.26Zm20.81,5.97a2.259,2.259,0,0,0-3.2-3.19A2.259,2.259,0,1,0,1103.33,3836.63Zm21.47,7.24a1.005,1.005,0,1,0,0-2h-7.57v-5.29h6.57a1.013,1.013,0,1,0,0-2.02h-6.57v-4.95h7.29a1,1,0,1,0,0-1.99h-8.31a0.971,0.971,0,0,0-1.09,1.11v14.02a0.978,0.978,0,0,0,1.09,1.12h8.59Zm5.97-1.12v-6.15h5.15a5.264,5.264,0,0,0,3.56-1.09,4.285,4.285,0,0,0,1.27-3.44,4.173,4.173,0,0,0-1.27-3.39,5.364,5.364,0,0,0-3.56-1.06h-6.18a0.965,0.965,0,0,0-1.09,1.09v14.04a1.062,1.062,0,1,0,2.12,0h0Zm0-13.14h4.89a3.357,3.357,0,0,1,2.13.58,2.262,2.262,0,0,1,.73,1.88,2.335,2.335,0,0,1-.73,1.92,3.357,3.357,0,0,1-2.13.59h-4.89v-4.97Zm12.53,14.26a1.119,1.119,0,0,0,1.14-.82l1.28-3.34h6.71l1.25,3.34a1.127,1.127,0,0,0,1.16.82h0.35a0.781,0.781,0,0,0,.72-0.32,1.032,1.032,0,0,0,0-.85l-5.57-14.3a1.14,1.14,0,0,0-1.16-.78h-0.17a1.14,1.14,0,0,0-1.16.78l-5.57,14.3a0.989,0.989,0,0,0,.01.85,0.774,0.774,0,0,0,.71.32h0.3Zm5.81-13.21,2.6,7.05h-5.27Z" transform="translate(-956 -3481)"/>
      <path id="不飽和脂肪酸" class="cls-4" d="M1026.88,3897.13a1.077,1.077,0,0,0,.32-0.8v-14c0.28-.34.56-0.68,0.83-1.03s0.53-.69.77-1.03h6.32a0.982,0.982,0,0,0,.72-0.3,1.015,1.015,0,0,0,.3-0.72,0.982,0.982,0,0,0-.3-0.72,0.954,0.954,0,0,0-.72-0.31h-18.53a0.97,0.97,0,0,0-.72.31,0.982,0.982,0,0,0-.3.72,1.015,1.015,0,0,0,.3.72,1,1,0,0,0,.72.3h9.66a29.992,29.992,0,0,1-2.91,3.07,38.556,38.556,0,0,1-3.66,3.01,29.7,29.7,0,0,1-3.95,2.44,1.015,1.015,0,0,0-.62.68,1.094,1.094,0,0,0,.11.85,1.047,1.047,0,0,0,.71.53,1.167,1.167,0,0,0,.87-0.14,35.08,35.08,0,0,0,4.34-2.71,31.946,31.946,0,0,0,3.83-3.28v11.61a1.056,1.056,0,0,0,.34.8A1.123,1.123,0,0,0,1026.88,3897.13Zm8.45-6.14a1.1,1.1,0,0,0,.83-0.35,1.039,1.039,0,0,0,.34-0.82,1.09,1.09,0,0,0-.38-0.8c-0.39-.36-0.85-0.76-1.38-1.21s-1.1-.91-1.69-1.39-1.17-.95-1.75-1.39-1.12-.85-1.61-1.19a1.031,1.031,0,0,0-.79-0.18,1.011,1.011,0,0,0-.68.39,1.027,1.027,0,0,0-.2.71,0.864,0.864,0,0,0,.34.66c0.45,0.34.96,0.74,1.51,1.18s1.12,0.92,1.69,1.41,1.1,0.96,1.62,1.43,0.96,0.88,1.34,1.25A1.127,1.127,0,0,0,1035.33,3890.99Zm20.08,6.5a8.9,8.9,0,0,0,2.36-.26,2.549,2.549,0,0,0,1.39-.97,5.06,5.06,0,0,0,.75-1.92,1.064,1.064,0,0,0-.05-0.77,0.87,0.87,0,0,0-.55-0.46,1.24,1.24,0,0,0-.85.01,0.815,0.815,0,0,0-.52.61,3.572,3.572,0,0,1-.41,1.16,1.228,1.228,0,0,1-.75.55,5.691,5.691,0,0,1-1.51.15h-1.9a3.069,3.069,0,0,1-1.62-.3,1.517,1.517,0,0,1-.43-1.28v-2.65a1.545,1.545,0,0,1,.26-1.02,1.454,1.454,0,0,1,1.04-.28,4.039,4.039,0,0,0,1.54-.24,1.469,1.469,0,0,0,.79-0.92,6.233,6.233,0,0,0,.23-1.9,6.361,6.361,0,0,0-.23-1.93,1.5,1.5,0,0,0-.82-0.93,4.133,4.133,0,0,0-1.62-.25h-2.65c0.2-.31.4-0.64,0.58-0.99s0.37-.7.56-1.05h4.04a2.269,2.269,0,0,1,1.53.37,1.813,1.813,0,0,1,.37,1.39c0,0.43-.01.92-0.02,1.46l-0.06,1.62c-0.02.53-.05,1.01-0.07,1.45a8.077,8.077,0,0,1-.1.99,2.726,2.726,0,0,1-.26.82,0.882,0.882,0,0,1-.54.38,6.68,6.68,0,0,1-1.13.17,0.9,0.9,0,0,0-.7.35,1.125,1.125,0,0,0-.18.77,0.894,0.894,0,0,0,.36.65,1.26,1.26,0,0,0,.75.23,4.753,4.753,0,0,0,2.54-.6,2.956,2.956,0,0,0,1.04-2.09c0.1-.73.18-1.66,0.23-2.8s0.08-2.36.09-3.68a3.364,3.364,0,0,0-.8-2.53,3.921,3.921,0,0,0-2.68-.74h-3.6c0.16-.37.3-0.74,0.43-1.1s0.24-.72.34-1.06a0.939,0.939,0,0,0-.06-0.72,0.916,0.916,0,0,0-.57-0.44,0.976,0.976,0,0,0-.77.07,0.931,0.931,0,0,0-.46.58,22.354,22.354,0,0,1-.78,2.13c-0.33.79-.71,1.57-1.12,2.34a16.394,16.394,0,0,1-1.33,2.07,0.792,0.792,0,0,0-.14.68,0.887,0.887,0,0,0,.42.56,1.063,1.063,0,0,0,.7.12,1.05,1.05,0,0,0,.62-0.33,0.987,0.987,0,0,0,.28.52,0.808,0.808,0,0,0,.58.22h1.88a2.109,2.109,0,0,1,1.17.21,1.51,1.51,0,0,1,.25,1.09,1.463,1.463,0,0,1-.27,1.08,1.945,1.945,0,0,1-1.15.22,2.643,2.643,0,0,0-1.95.56,2.827,2.827,0,0,0-.53,1.95v3.57a2.9,2.9,0,0,0,.88,2.44,5.07,5.07,0,0,0,3,.67h2.18Zm-13.92-.64c0.77-.24,1.54-0.49,2.32-0.75s1.46-.5,2.03-0.72c0.11,0.22.22,0.43,0.32,0.65a6.228,6.228,0,0,1,.24.6,0.855,0.855,0,0,0,.52.5,0.954,0.954,0,0,0,.74-0.03,0.98,0.98,0,0,0,.52-0.52,0.887,0.887,0,0,0-.04-0.76c-0.14-.32-0.33-0.71-0.57-1.16s-0.49-.9-0.75-1.36-0.5-.84-0.7-1.15a0.893,0.893,0,0,0-.57-0.4,0.945,0.945,0,0,0-.68.08,0.927,0.927,0,0,0-.43.5,0.667,0.667,0,0,0,.06.64,2.973,2.973,0,0,1,.24.37c0.09,0.14.17,0.28,0.25,0.41q-0.585.21-1.32,0.45c-0.48.15-.98,0.31-1.49,0.46v-3.57h2.67a2.877,2.877,0,0,0,2.04-.56,2.569,2.569,0,0,0,.56-1.86v-3.04a2.6,2.6,0,0,0-.54-1.83,2.5,2.5,0,0,0-1.9-.58h-0.21v-1.56a0.824,0.824,0,0,0-.27-0.64,0.926,0.926,0,0,0-.64-0.24,0.987,0.987,0,0,0-.65.24,0.824,0.824,0,0,0-.27.64v1.56h-0.26a2.637,2.637,0,0,0-1.89.53,2.45,2.45,0,0,0-.55,1.81v9.68c-0.23.06-.46,0.12-0.68,0.19l-0.62.16a0.809,0.809,0,0,0-.61.43,1.006,1.006,0,0,0-.08.75,0.933,0.933,0,0,0,.46.61,1.112,1.112,0,0,0,.79.07C1040.07,3897.29,1040.73,3897.09,1041.49,3896.85Zm-0.59-14.71c0.45-.45.88-0.89,1.3-1.35a15.213,15.213,0,0,0,1.04-1.24,0.924,0.924,0,0,1,.61-0.43,0.9,0.9,0,0,1,.63.36c0.2,0.2.44,0.44,0.74,0.71s0.59,0.54.89,0.81,0.56,0.51.78,0.71a1.014,1.014,0,0,0,.74.25,0.867,0.867,0,0,0,.68-0.35,1.011,1.011,0,0,0,.23-0.69,0.8,0.8,0,0,0-.35-0.61c-0.28-.21-0.6-0.47-0.98-0.76s-0.73-.6-1.09-0.91-0.65-.58-0.88-0.81a2,2,0,0,0-1.55-.71,2.115,2.115,0,0,0-1.47.92c-0.28.35-.65,0.78-1.11,1.28s-0.95.97-1.44,1.45-0.94.87-1.32,1.19a0.895,0.895,0,0,0-.1,1.28,0.872,0.872,0,0,0,.67.31,0.982,0.982,0,0,0,.7-0.24C1040.03,3882.97,1040.45,3882.58,1040.9,3882.14Zm1.28,5.74h3.36v0.47a1.212,1.212,0,0,1-.21.85,1.289,1.289,0,0,1-.88.21h-2.27v-1.53Zm0-2.02a1.084,1.084,0,0,1,.21-0.79,1.507,1.507,0,0,1,.9-0.18h1.16a1.37,1.37,0,0,1,.88.19,1.23,1.23,0,0,1,.21.85v0.44h-3.36v-0.51Zm39.09,8.77a3.913,3.913,0,0,0,.95-2.96v-8.11a3.934,3.934,0,0,0-.95-2.98,6.939,6.939,0,0,0-6.8,0,3.934,3.934,0,0,0-.95,2.98v8.08a3.944,3.944,0,0,0,.95,2.99A6.939,6.939,0,0,0,1081.27,3894.63Zm-12.84,3.08a0.994,0.994,0,0,0,.31-0.75v-8.15c0.37,0.45.75,0.88,1.16,1.3s0.75,0.76,1.04,1.02a1.125,1.125,0,0,0,.77.28,0.934,0.934,0,0,0,.72-0.32,1.064,1.064,0,0,0,.24-0.77,0.92,0.92,0,0,0-.38-0.7,12.015,12.015,0,0,1-1.16-1q-0.675-.615-1.32-1.32c-0.42-.46-0.78-0.87-1.07-1.23v-0.9h3.04a0.883,0.883,0,0,0,.69-0.29,1.039,1.039,0,0,0,.26-0.69,0.954,0.954,0,0,0-.26-0.67,0.876,0.876,0,0,0-.69-0.28h-3.04v-3.51c0.52-.15,1.02-0.3,1.49-0.45s0.88-.28,1.22-0.41a0.864,0.864,0,0,0,.54-0.48,1.13,1.13,0,0,0,0-.77,1.015,1.015,0,0,0-.55-0.58,0.973,0.973,0,0,0-.8.02c-0.42.17-.93,0.36-1.55,0.55s-1.26.38-1.97,0.56-1.4.33-2.09,0.47-1.3.25-1.84,0.33a0.856,0.856,0,0,0-.64.36,0.877,0.877,0,0,0-.13.73,1.017,1.017,0,0,0,.45.66,1.206,1.206,0,0,0,.78.13c0.45-.08.93-0.17,1.45-0.27s1.04-.21,1.57-0.34v3h-3.79a0.876,0.876,0,0,0-.69.28,0.954,0.954,0,0,0-.26.67,1.039,1.039,0,0,0,.26.69,0.883,0.883,0,0,0,.69.29h3.67c-0.23.51-.53,1.07-0.89,1.7s-0.77,1.26-1.21,1.88-0.88,1.22-1.31,1.78a17.776,17.776,0,0,1-1.18,1.39,0.787,0.787,0,0,0-.25.72,0.989,0.989,0,0,0,.39.67,0.966,0.966,0,0,0,.77.18,1.393,1.393,0,0,0,.73-0.38,20.891,20.891,0,0,0,1.52-1.91c0.55-.76,1.07-1.53,1.55-2.32v8.08a0.987,0.987,0,0,0,.3.75,0.973,0.973,0,0,0,.72.29A1,1,0,0,0,1068.43,3897.71Zm7.63-4.65a2.378,2.378,0,0,1-.43-1.63v-7.68a2.318,2.318,0,0,1,.43-1.61,2.541,2.541,0,0,1,1.82-.46,2.5,2.5,0,0,1,1.81.46,2.375,2.375,0,0,1,.42,1.61v7.68a2.432,2.432,0,0,1-.42,1.64A3.848,3.848,0,0,1,1076.06,3893.06Zm16.17,4.18a3.187,3.187,0,0,0,.74-2.37v-14.7a4.452,4.452,0,0,0-.28-1.77,1.647,1.647,0,0,0-.97-0.91,7.48,7.48,0,0,0-3.91,0,1.674,1.674,0,0,0-1,.91,4.261,4.261,0,0,0-.29,1.77v7.02a32.781,32.781,0,0,1-.19,3.86,14.008,14.008,0,0,1-.61,2.88,12.793,12.793,0,0,1-1.18,2.49,0.919,0.919,0,0,0-.07.71,0.945,0.945,0,0,0,.52.59,1,1,0,0,0,.76.03,1.142,1.142,0,0,0,.61-0.49,13.887,13.887,0,0,0,1.42-3.44,20.28,20.28,0,0,0,.6-4.24h2.64v5.13a1.289,1.289,0,0,1-.24.96,2.3,2.3,0,0,1-1.06.29,1.133,1.133,0,0,0-.76.35,0.882,0.882,0,0,0-.26.7,1.014,1.014,0,0,0,.34.66,1.051,1.051,0,0,0,.73.26A3.58,3.58,0,0,0,1092.23,3897.24Zm8.17,0.55a7.172,7.172,0,0,0,2.48-.34,2.247,2.247,0,0,0,1.29-1.18,5.174,5.174,0,0,0,.39-2.19v-3.11a5.211,5.211,0,0,0-.39-2.21,2.248,2.248,0,0,0-1.29-1.16,7.141,7.141,0,0,0-2.48-.35h-1.11a7.259,7.259,0,0,0-2.48.35,2.3,2.3,0,0,0-1.3,1.16,5.387,5.387,0,0,0-.38,2.21v3.11a5.349,5.349,0,0,0,.38,2.19,2.3,2.3,0,0,0,1.3,1.18,7.288,7.288,0,0,0,2.48.34h1.11Zm0.49-11.86a11.69,11.69,0,0,0,2.89-.29,3.214,3.214,0,0,0,1.66-.97,4.341,4.341,0,0,0,.83-1.9,1.118,1.118,0,0,0-.08-0.79,0.932,0.932,0,0,0-.59-0.48,1.047,1.047,0,0,0-.85.03,0.951,0.951,0,0,0-.52.66,2.9,2.9,0,0,1-.47,1.14,1.7,1.7,0,0,1-.98.54,10.123,10.123,0,0,1-1.89.13h-1.23a9.647,9.647,0,0,1-1.85-.13,1.271,1.271,0,0,1-.86-0.54,2.447,2.447,0,0,1-.22-1.14v-0.39c0.79-.14,1.64-0.31,2.53-0.5s1.79-.41,2.67-0.65,1.71-.5,2.46-0.78a0.867,0.867,0,0,0,.51-0.5,0.939,0.939,0,0,0,0-.77,0.855,0.855,0,0,0-.53-0.52,1.232,1.232,0,0,0-.86.05c-0.59.22-1.29,0.45-2.1,0.71s-1.64.49-2.47,0.71-1.57.39-2.21,0.53v-2.46a0.887,0.887,0,0,0-.29-0.72,1.028,1.028,0,0,0-.71-0.25,0.987,0.987,0,0,0-.68.25,0.919,0.919,0,0,0-.29.72v4.78a4.4,4.4,0,0,0,.43,2.13,2.335,2.335,0,0,0,1.5,1.09,10.983,10.983,0,0,0,2.97.31h1.23Zm-3.26,9.62a1.881,1.881,0,0,1-.43-1.47v-0.77h5.29v0.77a1.881,1.881,0,0,1-.43,1.47,2.725,2.725,0,0,1-1.66.36h-1.11A2.7,2.7,0,0,1,1097.63,3895.55Zm-0.43-4.58a1.922,1.922,0,0,1,.43-1.48,2.778,2.778,0,0,1,1.66-.36h1.11a2.8,2.8,0,0,1,1.66.36,1.922,1.922,0,0,1,.43,1.48v0.63h-5.29v-0.63Zm-8.78-6.69h2.6v3.53h-2.6v-3.53Zm0-4.08a1.191,1.191,0,0,1,.27-0.91,1.724,1.724,0,0,1,1.05-.23,1.624,1.624,0,0,1,1.05.23,1.348,1.348,0,0,1,.23.91v2.32h-2.6v-2.32Zm27.12,16.91a3.344,3.344,0,0,0,.72-2.4V3880.2a4.711,4.711,0,0,0-.28-1.77,1.727,1.727,0,0,0-.98-0.93,5.637,5.637,0,0,0-1.97-.27,5.841,5.841,0,0,0-1.99.27,1.7,1.7,0,0,0-.98.93,4.518,4.518,0,0,0-.28,1.77v6.82a29.714,29.714,0,0,1-.43,5.52,10.837,10.837,0,0,1-1.47,3.84,0.9,0.9,0,0,0-.12.72,0.865,0.865,0,0,0,.46.58,1.058,1.058,0,0,0,.77.04,1.006,1.006,0,0,0,.65-0.48,13.149,13.149,0,0,0,1.39-3.4,20.87,20.87,0,0,0,.58-4.22h2.67v4.92a1.555,1.555,0,0,1-.24,1.04,1.931,1.931,0,0,1-1.15.29,1.04,1.04,0,0,0-.75.32,0.869,0.869,0,0,0-.27.7,1,1,0,0,0,.35.68,1.071,1.071,0,0,0,.74.27A3.568,3.568,0,0,0,1115.54,3897.11Zm9.45,0.34a2.722,2.722,0,0,0,1.43-.97,4.117,4.117,0,0,0,.72-1.87,23.852,23.852,0,0,0,.35-2.48c0.08-.82.14-1.8,0.19-2.93a3.276,3.276,0,0,0-.76-2.62,4.238,4.238,0,0,0-2.82-.74h-1.6c0.02-.31.02-0.62,0.02-0.93v-1.72h6.11a0.865,0.865,0,0,0,.67-0.29,0.929,0.929,0,0,0,.28-0.68,0.913,0.913,0,0,0-.28-0.68,0.929,0.929,0,0,0-.67-0.28h-4.71v-3.62a1.025,1.025,0,0,0-.3-0.76,1.064,1.064,0,0,0-.77-0.3,1.011,1.011,0,0,0-.74.3,1.032,1.032,0,0,0-.31.76v3.62h-4.2a0.97,0.97,0,0,0-.68.28,0.886,0.886,0,0,0-.29.68,0.991,0.991,0,0,0,.97.97h2.88v0.74a32.867,32.867,0,0,1-.35,5.16,14.02,14.02,0,0,1-1.19,3.96,11.188,11.188,0,0,1-2.31,3.12,0.851,0.851,0,0,0-.27.72,0.981,0.981,0,0,0,.34.7,1.03,1.03,0,0,0,.81.2,1.279,1.279,0,0,0,.74-0.37,12.71,12.71,0,0,0,2.85-4.26,19.516,19.516,0,0,0,1.26-5.42h1.56a2.256,2.256,0,0,1,1.41.32,1.453,1.453,0,0,1,.35,1.21c-0.03,1.07-.09,1.97-0.17,2.7s-0.2,1.41-.34,2.06a2.565,2.565,0,0,1-.39.98,1.427,1.427,0,0,1-.77.5,5.764,5.764,0,0,1-1.46.17,1.3,1.3,0,0,0-.8.3,0.9,0.9,0,0,0-.29.77,0.913,0.913,0,0,0,.34.73,1.281,1.281,0,0,0,.77.24A8.926,8.926,0,0,0,1124.99,3897.45Zm-13.31-13.17h2.6v3.58h-2.6v-3.58Zm0-4.08a1.263,1.263,0,0,1,.26-0.92,2.417,2.417,0,0,1,2.1,0,1.32,1.32,0,0,1,.24.92v2.32h-2.6v-2.32Zm35.13,14.76a15.635,15.635,0,0,0,4.57,2.76,1.268,1.268,0,0,0,.87.07,0.956,0.956,0,0,0,.62-0.58,0.879,0.879,0,0,0,.01-0.76,0.985,0.985,0,0,0-.52-0.54,15.842,15.842,0,0,1-2.22-.97,12.025,12.025,0,0,1-1.96-1.28,14.7,14.7,0,0,0,1.81-2.44,1.981,1.981,0,0,0,.22-2.11,2.317,2.317,0,0,0-2.17-.88h-2.11a4.442,4.442,0,0,1,.24-0.49c0.08-.15.17-0.31,0.24-0.46a0.742,0.742,0,0,0,.07-0.66,0.915,0.915,0,0,0-.44-0.53,0.9,0.9,0,0,0-.71-0.07,0.877,0.877,0,0,0-.57.47,15.941,15.941,0,0,1-1.64,2.67,16.185,16.185,0,0,1-2.21,2.41,1.245,1.245,0,0,0-.15.19,1.024,1.024,0,0,0-.1.21v-4.67a0.55,0.55,0,0,1,.07.09,1.037,1.037,0,0,0,.04.1,0.869,0.869,0,0,0,.65.28,1.1,1.1,0,0,0,.7-0.24,10.634,10.634,0,0,0,1.93-1.92,10.91,10.91,0,0,0,1.34-2.28,0.891,0.891,0,0,0,.04-0.64,0.824,0.824,0,0,0-.43-0.47,0.166,0.166,0,0,0-.12-0.05c0.26-.03.53-0.06,0.8-0.08s0.54-.05.8-0.08v2.41a2.43,2.43,0,0,0,.7,2.05,4.3,4.3,0,0,0,2.44.51,3.753,3.753,0,0,0,2.12-.51,2.826,2.826,0,0,0,1.03-1.86,0.868,0.868,0,0,0-.08-0.69,0.885,0.885,0,0,0-.57-0.43,1,1,0,0,0-.72.06,0.912,0.912,0,0,0-.46.57,1.754,1.754,0,0,1-.41.87,1.356,1.356,0,0,1-.91.22,2.416,2.416,0,0,1-1.08-.16,0.8,0.8,0,0,1-.29-0.77v-2.43c0.32-.04.64-0.07,0.94-0.1s0.57-.06.82-0.09c0.09,0.11.18,0.22,0.27,0.34s0.16,0.22.22,0.31a0.783,0.783,0,0,0,.58.34,0.923,0.923,0,0,0,.65-0.18,0.894,0.894,0,0,0,.36-0.55,0.811,0.811,0,0,0-.15-0.63c-0.22-.31-0.49-0.67-0.81-1.07s-0.66-.8-1-1.21-0.65-.74-0.93-1.02a0.754,0.754,0,0,0-.58-0.28,0.888,0.888,0,0,0-.61.24,0.825,0.825,0,0,0-.27.53,0.693,0.693,0,0,0,.18.58c0.14,0.15.29,0.33,0.45,0.52s0.33,0.4.5,0.62c-0.55.04-1.18,0.09-1.86,0.15s-1.39.1-2.11,0.15c0.24-.43.48-0.92,0.75-1.46s0.47-1,.62-1.37a0.8,0.8,0,0,0-.48-1.14,0.933,0.933,0,0,0-.75-0.01,0.969,0.969,0,0,0-.51.54q-0.135.375-.42,1.05c-0.18.45-.38,0.9-0.59,1.37s-0.39.85-.54,1.16c-0.3.01-.58,0.03-0.86,0.03s-0.53.02-.74,0.04a0.821,0.821,0,0,0-.63.29,0.748,0.748,0,0,0-.21.59,0.882,0.882,0,0,0,.28.63,0.917,0.917,0,0,0,.67.21c0.36-.03.76-0.07,1.21-0.1s0.93-.07,1.46-0.11a0.874,0.874,0,0,0-.37.37,9.569,9.569,0,0,1-1.18,1.95,8.144,8.144,0,0,1-1.7,1.62,0.83,0.83,0,0,0-.25.28v-0.51a4.27,4.27,0,0,0-.61-2.61,2.893,2.893,0,0,0-2.18-.85v-2.88h2.39a0.889,0.889,0,0,0,.66-0.26,0.869,0.869,0,0,0,.27-0.64,0.86,0.86,0,0,0-.27-0.65,0.93,0.93,0,0,0-.66-0.26h-8.33a0.9,0.9,0,0,0-.64.26,0.86,0.86,0,0,0-.27.65,0.869,0.869,0,0,0,.27.64,0.86,0.86,0,0,0,.64.26h2.55v2.88a2.868,2.868,0,0,0-2.11.87,4.262,4.262,0,0,0-.61,2.59v7.69a5.7,5.7,0,0,0,.33,2.18,1.85,1.85,0,0,0,1.09,1.05,5.923,5.923,0,0,0,2.09.29h1.88a5.873,5.873,0,0,0,2.1-.29,1.861,1.861,0,0,0,1.08-1.05,5.7,5.7,0,0,0,.33-2.18v-1a0.785,0.785,0,0,0,.16.23,0.849,0.849,0,0,0,.65.3,0.931,0.931,0,0,0,.65-0.25,16.064,16.064,0,0,0,1.65-1.65,15.836,15.836,0,0,0,1.74,2.44,16.035,16.035,0,0,1-4.46,2.36,1.1,1.1,0,0,0-.58.54,0.879,0.879,0,0,0-.02.76,0.863,0.863,0,0,0,.55.51,1.231,1.231,0,0,0,.82-0.04,16.47,16.47,0,0,0,4.99-2.86h0Zm-13.35-4.92a0.646,0.646,0,0,0,.56.08,0.794,0.794,0,0,0,.46-0.31,6.494,6.494,0,0,0,.79-1.42,7.435,7.435,0,0,0,.41-1.7,21.249,21.249,0,0,0,.12-2.48h0.75v3.9a1.538,1.538,0,0,0,.41,1.2,2.158,2.158,0,0,0,1.4.36h0.62v1.97h-5.52v-1.6Zm0.37,4.97a1.968,1.968,0,0,1-.37-1.42v-0.32h5.52v0.32a1.968,1.968,0,0,1-.37,1.42,2.212,2.212,0,0,1-1.46.35h-1.88A2.184,2.184,0,0,1,1133.83,3895.01Zm11.05-5.16,0.02-.02h2.49a0.98,0.98,0,0,1,.86.25,0.956,0.956,0,0,1-.24.84,9.7,9.7,0,0,1-1.18,1.56,11.235,11.235,0,0,1-1.95-2.63h0Zm-6.87-1.98a0.678,0.678,0,0,1-.14-0.5v-3.13a1.144,1.144,0,0,1,.88.46,2.448,2.448,0,0,1,.23,1.25V3888h-0.41A0.831,0.831,0,0,1,1138.01,3887.87Zm-4.55-1.92a2.478,2.478,0,0,1,.22-1.21,1.033,1.033,0,0,1,.8-0.48,17.033,17.033,0,0,1-.09,1.9,6.712,6.712,0,0,1-.3,1.41,5.069,5.069,0,0,1-.63,1.22v-2.84Zm2.37-6.36h0.72v2.86h-0.72v-2.86Z" transform="translate(-956 -3481)"/>
      <path id="鉄分" class="cls-4" d="M999.96,3952.8a12.7,12.7,0,0,0,1.94-3.63,18.97,18.97,0,0,0,1.87,3.41,17.879,17.879,0,0,0,2.42,2.88,1.128,1.128,0,0,0,.79.3,0.953,0.953,0,0,0,.77-0.35,1,1,0,0,0,.25-0.74,0.868,0.868,0,0,0-.34-0.67,15.055,15.055,0,0,1-4.88-7.41h3.95a0.859,0.859,0,0,0,.64-0.25,0.884,0.884,0,0,0,.24-0.63,0.916,0.916,0,0,0-.24-0.65,0.859,0.859,0,0,0-.64-0.25h-4.09v-3.7h3.23a0.882,0.882,0,0,0,.65-0.25,0.852,0.852,0,0,0,.25-0.63,0.857,0.857,0,0,0-.9-0.9h-3.23v-3.65a0.913,0.913,0,0,0-.28-0.72,0.978,0.978,0,0,0-.69-0.25,0.961,0.961,0,0,0-.69.25,0.943,0.943,0,0,0-.27.72v3.65H999q0.14-.555.244-1.11,0.1-.54.2-1.05a0.991,0.991,0,0,0-.15-0.69,0.886,0.886,0,0,0-.592-0.36,1.056,1.056,0,0,0-.755.15,0.936,0.936,0,0,0-.383.64c-0.093.61-.228,1.26-0.406,1.98s-0.383,1.4-.615,2.08a18.926,18.926,0,0,1-.72,1.84,0.835,0.835,0,0,0,.012.73,0.887,0.887,0,0,0,.545.48,1.089,1.089,0,0,0,.755-0.06,1.077,1.077,0,0,0,.522-0.57,15.405,15.405,0,0,0,.859-2.28h2.2v3.7h-3.9a0.851,0.851,0,0,0-.627.25,0.886,0.886,0,0,0-.255.65,0.863,0.863,0,0,0,.882.88h3.766a10.048,10.048,0,0,1-1.665,4.41,12.273,12.273,0,0,1-3.285,3.18,0.9,0.9,0,0,0-.406.64,0.96,0.96,0,0,0,.917,1.12,1.4,1.4,0,0,0,.813-0.25A13.62,13.62,0,0,0,999.96,3952.8Zm-11.48,2.34c0.371-.08.824-0.17,1.358-0.28s1.091-.23,1.672-0.35,1.133-.24,1.659-0.34,0.971-.19,1.335-0.26,0.584-.13.662-0.14a0.916,0.916,0,0,0,.569-0.43,0.853,0.853,0,0,0,.058-0.69,0.778,0.778,0,0,0-1.045-.6c-0.108.01-.375,0.06-0.8,0.14s-0.933.17-1.521,0.28v-5.9h2.3a0.793,0.793,0,0,0,.615-0.24,0.9,0.9,0,0,0,.221-0.62,0.846,0.846,0,0,0-.221-0.59,0.793,0.793,0,0,0-.615-0.24h-2.3v-2.19h1.695a0.8,0.8,0,0,0,.627-0.25,0.868,0.868,0,0,0,.232-0.61,0.892,0.892,0,0,0-.232-0.62,0.81,0.81,0,0,0-.627-0.26h-5.362a0.807,0.807,0,0,0-.627.26,0.892,0.892,0,0,0-.232.62,0.868,0.868,0,0,0,.232.61,0.8,0.8,0,0,0,.627.25H990.5v2.19h-2.949a0.8,0.8,0,0,0-.6.24,0.82,0.82,0,0,0-.232.59,0.875,0.875,0,0,0,.232.62,0.8,0.8,0,0,0,.6.24H990.5v6.24c-0.759.16-1.448,0.29-2.066,0.4s-0.984.17-1.092,0.18a1.153,1.153,0,0,0-.661.41,0.833,0.833,0,0,0-.151.73,0.911,0.911,0,0,0,.418.64,1.188,1.188,0,0,0,.836.11C987.876,3955.26,988.109,3955.21,988.48,3955.14Zm0.07-14.47c0.433-.49.862-1,1.288-1.52s0.778-.97,1.056-1.36a0.851,0.851,0,0,1,.569-0.43,0.953,0.953,0,0,1,.569.41q0.324,0.33.789,0.81c0.31,0.33.623,0.65,0.94,0.98l0.8,0.81a1.037,1.037,0,0,0,.743.27,0.93,0.93,0,0,0,.7-0.32,1.04,1.04,0,0,0,.267-0.73,0.834,0.834,0,0,0-.337-0.66q-0.418-.375-0.952-0.87c-0.356-.33-0.7-0.67-1.044-1.01s-0.627-.63-0.859-0.88a2.33,2.33,0,0,0-1.73-.94,2.03,2.03,0,0,0-1.59,1.01c-0.2.28-.461,0.61-0.778,1.01s-0.654.8-1.01,1.22-0.708.81-1.056,1.19a11.827,11.827,0,0,1-.94.94,0.81,0.81,0,0,0-.3.64,0.925,0.925,0,0,0,.255.66,1.059,1.059,0,0,0,.732.32,0.99,0.99,0,0,0,.731-0.29Q987.9,3941.42,988.55,3940.67Zm1.346,10.81a0.812,0.812,0,0,0,0-.66,8.988,8.988,0,0,0-.29-0.86q-0.2-.51-0.406-1.02c-0.14-.34-0.256-0.61-0.349-0.82a0.86,0.86,0,0,0-.475-0.51,1.069,1.069,0,0,0-.662,0,0.966,0.966,0,0,0-.476.43,0.708,0.708,0,0,0-.012.67c0.108,0.21.228,0.49,0.36,0.83s0.267,0.68.406,1.02,0.248,0.64.325,0.88a0.7,0.7,0,0,0,.43.47,0.957,0.957,0,0,0,.685-0.02A0.81,0.81,0,0,0,989.9,3951.48Zm4.1-.05a0.8,0.8,0,0,0,.475-0.43c0.109-.2.236-0.46,0.384-0.79s0.293-.65.441-0.98,0.267-.6.359-0.8a0.862,0.862,0,0,0,0-.68,0.889,0.889,0,0,0-.464-0.44,0.941,0.941,0,0,0-.72.01,0.9,0.9,0,0,0-.464.53c-0.078.2-.182,0.46-0.313,0.77s-0.264.64-.395,0.96-0.252.58-.36,0.8a0.659,0.659,0,0,0-.011.58,0.814,0.814,0,0,0,.429.44A0.885,0.885,0,0,0,993.994,3951.43Zm29.356,3.9a3.11,3.11,0,0,0,1.66-1.27,7.111,7.111,0,0,0,.87-2.59c0.09-.57.17-1.16,0.24-1.75s0.13-1.25.18-1.94a5.44,5.44,0,0,0-.22-2.31,2.147,2.147,0,0,0-1.28-1.22,7.542,7.542,0,0,0-2.68-.37h-7.45a1.057,1.057,0,0,0-.76.3,0.982,0.982,0,0,0-.31.74,1.026,1.026,0,0,0,.31.76,1.066,1.066,0,0,0,.76.31h2.88a9.515,9.515,0,0,1-.84,3.12,8.611,8.611,0,0,1-1.96,2.68,9.542,9.542,0,0,1-3.17,1.91,1.066,1.066,0,0,0-.64.55,0.915,0.915,0,0,0-.03.79,1.078,1.078,0,0,0,.63.61,1.3,1.3,0,0,0,.87-0.03,11.48,11.48,0,0,0,3.87-2.29,10.2,10.2,0,0,0,2.38-3.32,12.123,12.123,0,0,0,1-4.02H1022a5.08,5.08,0,0,1,1.43.15,0.885,0.885,0,0,1,.62.58,3.667,3.667,0,0,1,.07,1.27q-0.075.855-.18,1.62c-0.07.51-.14,0.99-0.22,1.44a4.348,4.348,0,0,1-.51,1.58,1.5,1.5,0,0,1-.98.66,9,9,0,0,1-1.83.17,1.364,1.364,0,0,0-.88.34,1.018,1.018,0,0,0-.33.83,1.142,1.142,0,0,0,1.33,1.06A9.1,9.1,0,0,0,1023.35,3955.33Zm6.81-9.64a1.208,1.208,0,0,0,.83-0.54,1.041,1.041,0,0,0,.18-0.9,1.093,1.093,0,0,0-.55-0.74,19.313,19.313,0,0,1-2.28-1.65,18.132,18.132,0,0,1-2.03-1.98,14.761,14.761,0,0,1-1.54-2.04,9.3,9.3,0,0,0-1.14-1.57,2.859,2.859,0,0,0-1.34-.75,8.966,8.966,0,0,0-2.19-.21h-1.49a0.951,0.951,0,0,0-.72.3,1.079,1.079,0,0,0-.27.75,1.058,1.058,0,0,0,1.06,1.06h1.42a5.012,5.012,0,0,1,1.24.12,1.763,1.763,0,0,1,.78.43,3.911,3.911,0,0,1,.67.92,18.875,18.875,0,0,0,1.67,2.27,24.839,24.839,0,0,0,2.26,2.35,20.759,20.759,0,0,0,2.48,1.97A1.256,1.256,0,0,0,1030.16,3945.69Zm-16.72-2a29.632,29.632,0,0,0,2.28-2.46,19.288,19.288,0,0,0,1.8-2.53,1,1,0,0,0,.13-0.84,1.161,1.161,0,0,0-.52-0.67,1.008,1.008,0,0,0-.84-0.14,1.176,1.176,0,0,0-.69.51,19.189,19.189,0,0,1-1.14,1.65c-0.45.59-.95,1.18-1.49,1.76s-1.1,1.15-1.67,1.66a14.12,14.12,0,0,1-1.67,1.32,1.059,1.059,0,0,0-.5.74,1.079,1.079,0,0,0,.22.86,1.037,1.037,0,0,0,.82.4,1.567,1.567,0,0,0,.92-0.26A23.469,23.469,0,0,0,1013.44,3943.69Z" transform="translate(-956 -3481)"/>
    </g>
  </g>
  <path id="シェイプ_6" data-name="シェイプ 6" class="cls-5" d="M1352.5,3857.79c-0.09,1.72-.34,3.44-0.37,5.17-0.03,1.16.66,3.14,0.39,4.19-0.31,1.12-.88.67-1.62,1.47-0.5.57-.4,1.5-1.06,1.98-0.78.58-2.65,0.37-3.59,0.78a50.622,50.622,0,0,1-7.3,2.4c1.25-1.32.42-3.7,1.68-5.19a40.92,40.92,0,0,0,3.3-4.39c1.85-2.9,3.91-5.69,5.78-8.5,1.29-1.93,1.17-6.39,3.46-7.53,0.1,1.68.2,3.49,0.2,5.14s-0.78,2.72-.86,4.31A0.915,0.915,0,0,0,1352.5,3857.79Zm-13.63-12.62a19.968,19.968,0,0,1-1.18,2.81c0.08-.16-0.2-1.65-0.2-1.99a17.382,17.382,0,0,0,0-2.5c-0.33-2.17-1.32-5.41-.9-7.53a26.222,26.222,0,0,1,2.2,3.12c0.68,1.16.08,1.42-.04,2.5C1338.62,3842.76,1339.16,3844,1338.87,3845.17Zm-13.62,108.81a134.081,134.081,0,0,0,4.18-17.61c0.51-3.28,2.09-6.03,3.24-9.14,1.51-4.13,2.39-8.46,3.69-12.64,2.46-7.97,2.27-13.87,1.92-21.99-0.08-1.85.7-2.04,1.26-3.6,0.51-1.43-.3-3.03,0-4.41,0.48-2.33,4.95-1.1,6.77-.93,2.13,0.19,4.26.27,6.36,0.59,1.65,0.25,3.67.96,5.26,0.23,2.5-1.14,2.61-4.48,3.72-6.46,1.81,1.38,1.76,4.27,2.78,6.11,1.31,2.35,1.46,4.59,1.46,7.26,0,1.73.24,3.34,0.31,5.02,0.09,1.89-.29,3.48.95,5.03,0.98,1.23,3.28,1.4,4.08,2.58,0.54,0.8.47,3.48,0.47,4.47-0.04,3.98-.04,7.92.16,11.89,0.13,2.62.05,5.28,0.31,7.86a2.692,2.692,0,0,0,.5,1.84c0.41,0.55.93-.07,1.23,0.98,0.24,0.91-.53,3.25-0.76,4.25-0.49,2.07-.86,4.18-1.49,6.22-1.57,5.11-3.56,10.22-5.31,15.28-1.78,5.14-2.53,10.79-3.54,16.05-0.25,1.26-1.15,2.14-1.44,3.26-0.42,1.56.38,3.76,0.46,5.36,0.12,3.09.15,6.19,0.15,9.28,0,1.64-.06,3.26-0.09,4.89a8.6,8.6,0,0,0-.46-0.91c-0.89-1.45-1.95-1.5-3.22-2.45-1.13-.84-1.17-2.11-2.21-2.94-1.27-1-2.77-.44-4.17-0.98-1.49-.57-2.09-2.31-3.31-3.24a32.366,32.366,0,0,1-3.45-2.93c-5.11-5.03-11.23-8.93-16.5-13.82a49.12,49.12,0,0,0-6.25-5.28C1323.34,3960.11,1324.31,3957.1,1325.25,3953.98Zm-88.32-93.61c0.72,1.64,2.11.93,3.47,1.41,1.42,5.47,11.68,2.73,14.88,1.04,6.05-3.21,13.46-1.91,17.66-8.01a27.862,27.862,0,0,1,3.71,7.37c0.67,3.06-.4,4.19,1.26,7.21,1.5,2.7,1.77,3.47,1.26,6.6-0.39,2.36-1.14,4.41-1.74,6.71-0.84,3.19.14,3.32,0.8,6,1.27,5.13-.14,11.41.37,16.68,0.57,5.92,2.03,11.63,2.56,17.53a184.753,184.753,0,0,0,3.36,24.37c0.63,2.71,2.1,5,2.86,7.39s0.2,5.03.46,7.52c0.44,4.13,1.76,10.07,1.12,14.14-0.68,4.33-3.29,9.45-4.66,13.65-1.94,5.9-4.5,11.8-6,17.9-1.47,6-1.34,11.74-4.74,17.14-2.2,3.48-8.91,8.98-5.65,12.95-2.29,2.83-7.71,6.53-11.38,6.31-3.03-.19-6.07-1.52-7.93,1.77-1.53,2.7-.06,4.16,1.81,6.07,3.71,3.82,8.16,5.82,13.06,7.71,4.53,1.76,8.82,4.37,13.25,6.31,1.85,0.8,4.4,1.57,6.56,1.11,2.85-.6,2.54-2.11,3.45-4.66,1.44-4,4.21-8.26,4.83-12.31,0.42-2.72-.15-4.73.93-7.25a59.6,59.6,0,0,0,3.08-8.3c1.78-6.52,4.48-12.64,6.62-19.11,2.77-8.37,5.95-16.56,8.91-24.86a60.408,60.408,0,0,0,6.79,6.08c4.97,3.9,10.13,7.76,15.46,11.17,4.56,2.92,8.3,7.11,12.91,9.85,1.63,0.97,2.9,1.15,3.33,3.21,0.48,2.31-.53,4.83-0.87,7.1-0.42,2.78-1.22,5.91,1.2,7.95,2.31,1.95,5.66.86,7.88-.76a17.779,17.779,0,0,0,4.01-4.43c0,0.16.01,0.32,0.01,0.48-0.01,4.03.2,8.09,0.35,12.12,0.09,1.94-.51,3.8-0.59,5.72-0.23,5.25-6.44,8.03-10.96,9.44-2.42.75-5.75,1.52-6.51,4.3-2.14,7.79,13.78,8.68,18.21,7.56,2.14-.55,4.19-1.53,6.36-1.73,2.75-.26,5.24,1.09,7.93,1.21,2.37,0.1,4.73.5,7.06,0.51,4.97,0.01,4.17-5,4.18-8.55,0.01-1.19-.51-2.93-0.04-4,0.72-1.64,1.85-1.8,1.33-3.98-0.38-1.55-1.14-2.74-.97-4.45a20.309,20.309,0,0,0,.31-4.26c-0.17-1.91-.92-3.51-0.35-5.48,0.63-2.22,1.01-2.78.23-5.06a15.543,15.543,0,0,1-.83-3.87c-0.13-2.15.01-4.3-.14-6.44-0.21-2.69-.63-5.28-0.63-8,0-3.78-.16-7.53-0.16-11.31,0-2.35-.32-4.99.35-7.29,0.56-1.94,1.48-3.79.91-5.9-0.3-1.15-1.22-1.61-1.11-2.98,0.1-1.31.62-1.56-.27-2.97-0.56-.9-1.7-1.79-1.33-2.88,0.16-.48.99-0.75,1.27-1.24,0.24-.44.08-1.6,0.45-1.89,1.56-1.26,2.49,1.53,2.98,2.54,1.38,2.85,2.52,5.16,5.53,6.32,2.73,1.06,5.51,2.02,8.17,3.22,4.28,1.95,7.8,4.33,12.42,5.42,2.89,0.69,5.36,2.25,8.14,3.26q5.37,1.935,10.81,3.65a54.3,54.3,0,0,0,7.53,2.27c7.21,1.15,17.21.21,23.86,2.88a26.738,26.738,0,0,1,6.93,3.72c1.78,1.58,2.36,4.29,4.62,5.37,0.18,2.86-.89,6.46-0.67,8.86,0.51,5.46,4.77,11.74,1.05,17.12a15.911,15.911,0,0,1-6.94,6.05c-3.61,1.52-10.81,3.8-7.63,9.09,2.89,4.81,10.07,2.54,14.43,1.82a125.027,125.027,0,0,1,13.71-1.36c2.36-.12,4.17.6,5.69-1.38,1.41-1.81.89-4.52,0.68-6.59-0.28-2.85-.26-3.39,1.11-5.69,1.4-2.38,1.27-2.98-.06-5.57-1.57-3.05-.99-2.81-0.09-6.04,0.63-2.18-.11-4.35-0.47-6.59-0.81-5.07.47-10.25-.26-15.36-0.69-4.79-2.59-10.45-.92-15.24,1.47-4.18,5.77-6.72,6.93-11.12,0.62-2.34,1.13-12.26,4.14-12.88,2.7-.55,9.55,9.24,11.25,10.94,2.08,2.09,4.29,3.95,5.97,6.39,1.33,1.94,2.09,4.19,3.56,6.04,2.66,3.37,5.53,6.12,7.53,9.89,2.27,4.26,2.93,10.6,6.59,14.15,1.99,1.92,4.1.73,5.98,1.96s1.09,4.47,1.99,6.33c2.08,4.35,6.86,4.06,8.05,9.41,0.7,3.08,1.02,7.04,3.28,9.47,2.76,2.95,8.6,3.18,11.4.07,3.1-3.45,2.09-8.27,1.9-12.35-0.22-4.91-1.38-9.47-1.37-14.49,0.01-2.82-.23-3.47-2.18-5.36-1.42-1.36-2.47-3.23-4.19-4.25-1.29-.75-2.67-0.4-3.84-1.66-0.93-.99-1.45-2.23-2.75-3.27-4.86-3.91-7.16-10.51-9.75-15.8-1.96-4.02-5.72-6.77-8.23-10.43-1.58-2.31-2.67-4.09-5.01-5.43-2.38-1.36-3-2.01-4.1-4.94-0.75-1.97-1.19-4.21-2.29-6.04-1.25-2.11-2.51-2.94-3.23-5.22-1.42-4.63-1.65-9.2-3.5-13.72-0.74-1.84-2.19-3.56-2.86-5.43-0.74-2.05-.83-4.25-1.59-6.4-1.47-4.13-.26-8.27-2.19-12.07-1.49-2.93-6.09-7.21-5.02-10.21,0.83-2.33,2.47-3.1,2.22-5.92-0.09-.97-0.82-1.72-0.77-2.83,0.02-.82.88-1.24,0.77-2.46-0.11-1.38-1.8-4.32-2.64-5.29-0.56-.66-1.96-0.98-2.32-1.77-0.41-.94.63-1.79,0.36-2.83-0.23-.9-1.28-1.17-1.59-1.98-0.45-1.15-.05-1.88-0.34-2.95-0.48-1.7-1.88-2.85-3.08-4.34-2.53-3.12-4.47-7.52-7.9-9.66-1.96-1.24-3.99-.99-6.04-1.65-1.55-.51-3.84-3.35-5.26-0.86-3.73-2.2-3.45-5.76-5.67-9.27,5.06,4.44,4.68-7.47,4.55-10.19-0.23-5.4.68-9.57-2.33-14.56-1.88-3.11-5.54-5.54-8.87-7.07-5.26-2.45-14.58,1.19-15.67,7.3-4.6-.12-5.28,8.82-5.44,11.84-0.13,2.84-.55,11.05,2,13.04,0.89,0.7,2.31-.28,2.99.34,0.67,0.6.37,1.58,0.69,2.32a22.887,22.887,0,0,0,3.2,5.66c-2.29.95-3.81,3.02-5.6,4.68-0.77.71-3.61,2.41-3.9,3.28-0.92,2.65,6.26,4.1,8.01,5.5-4.65,1.86-6.85,4.31-7.17,9.57-0.13,2.07.35,4.17,0.15,6.23-0.16,1.88-.09,3.7-0.18,5.59-3.41.54-6.95,2.8-9.52,5.05a31.182,31.182,0,0,0-3.1,3.09,5.547,5.547,0,0,0-.99,1.38,4.408,4.408,0,0,1-.59,1.47c-0.43.42-1.22,0.09-1.57,0.9a3.476,3.476,0,0,0,.02,1.97,4.115,4.115,0,0,1,0,1.64,4.23,4.23,0,0,1-.25,1.58,4.347,4.347,0,0,1-1.3.68,1.993,1.993,0,0,0-1.3,1.01,6.558,6.558,0,0,0,.06.82,1.864,1.864,0,0,1-.4.63,2.432,2.432,0,0,0-.47,1.62c0.07,0.28.33,0.42,0.41,0.67a0.905,0.905,0,0,1-.03.7,2.753,2.753,0,0,0,.21,1.98c0.51,0.53,1.17.31,1.3,1.15,0.18,1.27-.47,2.56-0.06,3.83a5.175,5.175,0,0,0,2.19,2.44c0.71,0.44,1.5.42,1.98,1.02a13.459,13.459,0,0,0,1.39,2.08,4.02,4.02,0,0,1,1.03.99,8.178,8.178,0,0,0,1.19,1.5,25.323,25.323,0,0,0,10.05,5.59,30.94,30.94,0,0,0,11.94,1.27,23.674,23.674,0,0,0,5.59-1.17c1.74-.61,3.79-1.35,4.94-2.87a4.866,4.866,0,0,1,.63-1.1,2.174,2.174,0,0,1,.93.07,1.315,1.315,0,0,1,.88.13,5.564,5.564,0,0,1,.39,2c0.18,0.9.29,1.82,0.39,2.73,0.4,3.63-.46,6.6-0.94,10.15-0.75,5.47-1.89,10.98-2.42,16.48a93.907,93.907,0,0,0-.23,13.1,65.349,65.349,0,0,0-9.37-.39c-1.65-.02-2.79-0.88-4.27-1.41a9.526,9.526,0,0,0-4.39-.28c-2.19.35-2.59,0.44-4.55-.59a40.683,40.683,0,0,0-7.23-2.59c-4.14-1.24-8.5-2.92-12.74-4.43-4.53-1.62-9.2-3.67-13.8-5.03-2.65-.78-5.33-0.57-7.84-1.8-3.6-1.76-2.81-6.63-3.05-9.78-0.4-5.49-.7-10.99-1.14-16.47-0.34-4.2-1.48-7.5,1.25-10.91a39.484,39.484,0,0,0,4.34-6.34c1.92-3.73,1.96-7.58,2.59-11.58a26.162,26.162,0,0,0-.03-8.65c-0.33-1.97-1.34-4.01-1.54-5.99-0.16-1.6.55-2.17,1.19-3.49a4.622,4.622,0,0,0,.07-3.58c-0.39-1.42-1.26-2.7-1.76-4.07-1.37-3.79-5.35-9.3-3.43-13.49,1.44,0.54,2.37,1.61,3.96,1.9a9.145,9.145,0,0,0,4.5-.23c2.54-.93,5.73-2.87,7.09-5.18,3.06-5.19,1.71-11.88-.68-16.94a28.539,28.539,0,0,1-1.84-3.61c-0.49-1.68-.49-3.43-0.96-5.12a20.685,20.685,0,0,0-2.56-5.02,29.779,29.779,0,0,1-2.12-4.27c-0.65-1.58-1.28-3.16-2.04-4.71a37.883,37.883,0,0,0-10.14-13.18,4.219,4.219,0,0,1-1.52-1.73c-0.17-.92.92-2.14,1.18-3.02a7.439,7.439,0,0,0,.36-3.14c-0.5-3.42-3.45-4.17-5.66-6.24-2.19-2.05-1.92-3.89-1.31-6.62a10.954,10.954,0,0,0-1.8-7.98c-1.59-2.54-1.6-5.85-2.99-8.77a17.23,17.23,0,0,0-9.01-8.83c-4.12-1.88-8.98-3.49-13.39-1.73a8.615,8.615,0,0,0-2.49,1.27c-0.69.61-.93,1.6-1.78,2.07-1.45.79-2.51,1.11-3.45,2.81-1.05,1.87-1.41,4.11-2.16,6.09-0.56,1.47-1.43,2.89-2,4.31-1.2,2.91-2.49,5.7-3.96,8.56a10.16,10.16,0,0,0-1.25,5.09c0,1.76.69,3.57,0.47,5.3-0.34,2.58-3.7,3.92-4.66,6.44-0.44,1.12.2,3.08-.21,3.93-0.72,1.56-1.47.22-1.88-.65-0.87-1.85-.96-3.99-1.44-5.97a45.764,45.764,0,0,0-2.36-6.88c-1.49-3.54-2.04-8.26-4.69-11.19-1.58-1.73-4.36-2.92-6.41-4.04a80.645,80.645,0,0,0-9.21-3.8c-2.66-1.05-5.22-2.18-7.89-3.22a9.679,9.679,0,0,1-3.72-1.97c-1.8-1.91-1.74-5.27-2.91-7.65-1.06-2.17-2.12-5.73-5.04-5.85-0.59-.02-1.45.57-1.89,0.48-1.24-.25-1.51-2.37-1.55-3.75-0.09-2.95,1.8-5.17,2.54-7.96,2.22-8.36.8-17.38-6.88-22.35-2.68-1.73-6.07-3.34-9.26-3.45a14.756,14.756,0,0,1-3.79-.39,8.3,8.3,0,0,0-4.17-.08c-3.6.95-5.57,4.51-8.08,6.94-3.15,3.02-6.76,6.98-5.83,11.79a2.311,2.311,0,0,0,.56,1.51c0.48,0.54,1.17.13,1.51,0.72,0.62,1.02.28,2.58,0.46,3.7,0.21,1.27.6,2.64,0.92,3.89a9.934,9.934,0,0,1-.02,3.44,11.448,11.448,0,0,0,2.22,6.38c1.21,1.86,2.86,3.26,3.95,5.17,1.14,2.01.17,4.51,1.27,6.54-0.84,1.11-1.97,1.72-2.39,3.15a1.658,1.658,0,0,0,0,1.63c0.37,0.92,1.24,1.34,1.42,2.42a29.834,29.834,0,0,1-4.48,2.44c-8.86,4.36-12.82,11.99-12.82,21.85,0,3.76-.08,7.29,1.04,10.89,0.92,2.94,2.64,4.47.52,7.4a5.128,5.128,0,0,0-1.22,4.02c-0.02,1.9-.78,3.29-1.03,5.1-0.23,1.64.18,2.98-.48,4.49-0.49,1.13-1.17,2.11-1.72,3.15-0.67,1.27-.91,2.19-2.06,1.46-0.88-.54-1.72-2.41-2.49-3.22-2.49-2.65-4-.62-4.81,2.04,0.18-.6-3.57-1.48-4.12-1.28-1.63.59-1.45,2.21-1.61,3.62-2.7-.07-4.42,3.24-2.06,5.1a2.046,2.046,0,0,0-.26,3.09C1237.32,3857.82,1236.3,3858.96,1236.93,3860.37Zm101.82-18.79c-0.13,1.18.41,2.42,0.12,3.59a19.968,19.968,0,0,1-1.18,2.81c0.08-.16-0.2-1.65-0.2-1.99a17.382,17.382,0,0,0,0-2.5c-0.33-2.17-1.32-5.41-.9-7.53a26.222,26.222,0,0,1,2.2,3.12C1339.47,3840.24,1338.87,3840.5,1338.75,3841.58Zm14.62,11.73c0,1.66-.78,2.72-0.86,4.31a0.915,0.915,0,0,0-.01.17c-0.09,1.72-.34,3.44-0.37,5.17-0.03,1.16.66,3.14,0.39,4.19-0.31,1.12-.88.67-1.62,1.47-0.5.57-.4,1.5-1.06,1.98-0.78.58-2.65,0.37-3.59,0.78a50.622,50.622,0,0,1-7.3,2.4c1.25-1.32.42-3.7,1.68-5.19a40.92,40.92,0,0,0,3.3-4.39c1.85-2.9,3.91-5.69,5.78-8.5,1.29-1.93,1.17-6.39,3.46-7.53C1353.27,3849.85,1353.37,3851.66,1353.37,3853.31Zm-24.81,115.07a49.12,49.12,0,0,0-6.25-5.28c1.03-2.99,2-6,2.94-9.12a134.081,134.081,0,0,0,4.18-17.61c0.51-3.28,2.09-6.03,3.24-9.14,1.51-4.13,2.39-8.46,3.69-12.64,2.46-7.97,2.27-13.87,1.92-21.99-0.08-1.85.7-2.04,1.26-3.6,0.51-1.43-.3-3.03,0-4.41,0.48-2.33,4.95-1.1,6.77-.93,2.13,0.19,4.26.27,6.36,0.59,1.65,0.25,3.67.96,5.26,0.23,2.5-1.14,2.61-4.48,3.72-6.46,1.81,1.38,1.76,4.27,2.78,6.11,1.31,2.35,1.46,4.59,1.46,7.26,0,1.73.24,3.34,0.31,5.02,0.09,1.89-.29,3.48.95,5.03,0.98,1.23,3.28,1.4,4.08,2.58,0.54,0.8.47,3.48,0.47,4.47-0.04,3.98-.04,7.92.16,11.89,0.13,2.62.05,5.28,0.31,7.86a2.692,2.692,0,0,0,.5,1.84c0.41,0.55.93-.07,1.23,0.98,0.24,0.91-.53,3.25-0.76,4.25-0.49,2.07-.86,4.18-1.49,6.22-1.57,5.11-3.56,10.22-5.31,15.28-1.78,5.14-2.53,10.79-3.54,16.05-0.25,1.26-1.15,2.14-1.44,3.26-0.42,1.56.38,3.76,0.46,5.36,0.12,3.09.15,6.19,0.15,9.28,0,1.64-.06,3.26-0.09,4.89a8.6,8.6,0,0,0-.46-0.91c-0.89-1.45-1.95-1.5-3.22-2.45-1.13-.84-1.17-2.11-2.21-2.94-1.27-1-2.77-.44-4.17-0.98-1.49-.57-2.09-2.31-3.31-3.24a32.366,32.366,0,0,1-3.45-2.93C1339.95,3977.17,1333.83,3973.27,1328.56,3968.38Z" transform="translate(-956 -3481)"/>
</svg>
