<svg id="concept03.svg" xmlns="http://www.w3.org/2000/svg" width="423.53" height="268.59" viewBox="0 0 423.53 268.59">
  <defs>
    <style>
      .cls-1 {
        fill: #591902;
        fill-rule: evenodd;
      }
    </style>
  </defs>
  <g id="bi">
    <path id="シェイプ_4" data-name="シェイプ 4" class="cls-1" d="M1153.92,4481.21a0.591,0.591,0,0,1,.06-0.14l0.29-.74c1.17-.33,2.09-0.67,3.12-0.98a10.023,10.023,0,0,0-1.19-1.16,2.024,2.024,0,0,0-.04-0.26c1.37-.36,2.77-0.86,5.76-1.45a1.772,1.772,0,0,0,.06-0.17l0.3-.74c1.17-.33,2.09-0.64,3.11-0.95a10.123,10.123,0,0,0-1.19-1.17,2.611,2.611,0,0,0-.24-0.95c0.1-.31.15-0.4-2.07-0.19-0.62-.12-1.36-0.21-1.98-0.38-0.11-.28-0.1-0.64-0.2-0.93,0.58-.66,1.15-1.38,1.82-2.09,0.86-.33,1.04-0.57,1.77-0.86,0.09-.33.2-0.71,0.3-1.04a4.253,4.253,0,0,0-.19-1.22c-0.04-.21.63-0.78-0.34-0.61a18.575,18.575,0,0,0-1.76-.67,1.209,1.209,0,0,0,.74-0.83c-0.87.21-1.74,0.43-2.61,0.59-2.29.12-.95-0.81-4.35-0.14-0.28.52-3.08,0.76-3.04,1.38-3.92.47-6.91,0.14-10.09,0.45-2.5-.14-3.66.22-5.54,0.05-0.78.28-3.25-.6-2.89,0.05a58.573,58.573,0,0,1-13.23-1.95c-0.34,1.61-4.81-1.46-6.88-1.29-1.24-1.38-5.1-1.52-7.11-3.28a68.548,68.548,0,0,1-14.59-8.07,65.742,65.742,0,0,1-14.39-12.75c-0.41.07-1.06-.92-1.6-1-1.74-2.02-3.48-4.18-5.11-6.42a76.565,76.565,0,0,1-7.65-12.94c-0.49-.31-0.79-1.97-1.64-1.83a9.13,9.13,0,0,0-1.88-4.59c-0.08-1.03-1.23-3.21-.64-3.24a5.4,5.4,0,0,0-.76-1.88,11.288,11.288,0,0,1-.99-2.88c-0.4-.8-0.68-1.54-1.08-2.47,0.76,0.45-.02-2.16-0.24-2.31a15.006,15.006,0,0,0-1.39-3.52c-0.03-.19-0.05-0.28-0.08-0.5a3.86,3.86,0,0,0-.36-3.4,6.51,6.51,0,0,0-.83-4c-0.1-.52-0.16-1.07-0.26-1.49,0.54,0.71.3-.88,0.72-0.72-0.86-3.3,0-9.06-.28-12.39,0.13-1.31.28-2.52,0.48-3.83a33.148,33.148,0,0,0,.67-6.04c0.06-.29.14-0.6,0.24-0.98,0.68-2.76,2.03-6.33,2.87-10.44,1.13-2.81,2.61-5.5,3.71-7.97a22.4,22.4,0,0,1,2.69-3.14,40.291,40.291,0,0,1,6.68-10.33c0.42-.61,1.04-1.23,1.06-0.83,0.66-.78,1.24-1.47,1.93-2.23a3.786,3.786,0,0,0,1.61-3l-1.4.43c0.15-.6.24-1.1,0.33-1.6,0.36-.62.79-1.35,1.19-1.97,0.24-.22.46-0.45,0.76-0.74a95.243,95.243,0,0,1,11.65-9.04c0.13,0.29.28,0.57,0.42,0.86,0.81-.29,1.64-0.55,2.44-0.81a6.49,6.49,0,0,0,1.68-1.26c4.32-1.55,11.05-3.95,14.02-5.38,1.14-.4,2.4-0.81,3.58-1.12,1.39-.28,2.68-0.52,4.09-0.76-0.67,1.31,3.13-.54,4.67-0.04,2.18-.27,1.72.47,4.22,0.09a14.022,14.022,0,0,1,1.55-.64,10.278,10.278,0,0,0,3.21-.43h0.98a83.758,83.758,0,0,1,15.55,1.97c1.38,0.31,2.73.67,4.09,1.03,0.96,0.24,2.03.45,3.08,0.74,3.08,0.99,4.54,1.64,7.44,2.37l0.91,0.36c3.4,1.57,5.58,3.21,9.91,5.33a8.445,8.445,0,0,1,2.76,1.43,88.06,88.06,0,0,1,9.71,7.13c2.41,2.76,4.54,2.98,6.68,5.95a81.6,81.6,0,0,1,18.45,28.31c0.48,0.69.91,1.4,1.37,2.09,0.71,2.19,1.36,4.26,1.88,6.38-0.48.95,1.24,4.66,0.74,5.61,0.41,1.24.5,3.47,1.1,3.62,0.91,0.83.24,2.45,0.62,3.78,0.07,2.43.26,4.38,0.19,6.99a14.368,14.368,0,0,0,.26,4.19c-0.59.71-.02,4.4-0.74,5.07-0.09,2.04-.24,4.06-0.45,5.99a15.619,15.619,0,0,0-.67,2.21c0.98,4.88-2.12,2.41-2.12,8.12a19.313,19.313,0,0,1-2.94,7.2c-1.69,2.38-.79,3.45-1.74,5.36a5.086,5.086,0,0,1-1.12.95,3.913,3.913,0,0,0-.72,1.69,12.714,12.714,0,0,1-2.27,3.61c-0.5,1.17-1.07,1.14-1.19.83-0.55.88-1.22,1.84-1.82,2.72-0.76.97-1.47,1.88-2.29,2.83-0.83.69-1.93,2.54-2.38,2.26-0.5.59-.96,1.09-1.53,1.76l-1.24,1.31c-1.12,1.07-2.25,2.11-3.42,3.14-0.57.4-1.07,0.78-1.52,1.14a1.887,1.887,0,0,0-.34.09l-0.38-.59c-2.03.47-3.7,2.62-5.95,3.23-0.82.86-3.61,1.69-3.84,2.34a16.273,16.273,0,0,1-4.16,2.4c-0.9.95-4.22,1.88-3.82,2.54a6.519,6.519,0,0,0,2.59-.97c1.04-.24,2.15-0.6,3.19-0.91,0.13,0.27.26,0.48,0.39,0.74l-0.12.14c-1.07.38-2.17,0.76-3.23,1.1-1.31.5-2.73,1-4.06,1.43a15.829,15.829,0,0,0-4.16,1.18c1.39-.21,2.78-0.47,4.25-0.8,1.75-.46,3.39-0.93,5.1-1.48,0.31-.12.67-0.26,1.05-0.4-0.63.43-1.25,0.81-1.91,1.23a8.512,8.512,0,0,0-2.49,1.45c-0.55.27-1.09,0.5-1.74,0.77-1.31.47-2.72,0.95-4.04,1.38-1.31.47-2.73,0.97-4.06,1.42a16.314,16.314,0,0,0-4.16,1.17c1.39-.19,2.78-0.45,4.25-0.79,1.74-.47,3.39-0.95,5.1-1.5,0.39-.11.85-0.3,1.33-0.49a30.982,30.982,0,0,0,7.21-2.74c1.07-.33,2.13-0.69,3.19-1.07,0.14,0.28.23,0.45,0.32,0.62,2.1-1.05,4.06-2.17,6.04-3.4,0.71-.53,1.43-0.98,2.1-1.43,2.03-1.02,3.96-2.12,5.89-3.33,3.08-2.14,5.52-3.48,8.12-5.47,3.1-3.07,6.73-5.38,9.36-8.54,0.52-.62,1.09-1.22,1.59-1.84,0.79-.83,1.58-1.76,2.3-2.64,0.57-.83,1.09-1.59,1.64-2.45,0.05,0.65.17,1.36,0.22,2.03,0.33,0.61,1.26.26,1.88,0.02,0.67-.93,1.32-1.9,2.01-2.95,0.5-.67.95-1.26,1.5-2.05,0.84-1.59,1.63-3.3,2.37-4.92a75.741,75.741,0,0,0,6.66-16.79c0.66-1.34,1.05-5.24,1.5-6.4,0.14-1.17.31-2.31,0.41-3.45,0.07-.62.14-1.36,0.19-1.98,0.81,0.03.81-2.64,0.52-3.52a89.209,89.209,0,0,0-.21-10.08c-0.03-.84-0.05-1.69-0.12-2.53,0.64-.4.09-3.37-0.43-4.49l-0.29-1.57a38.121,38.121,0,0,0-.19-4c0.64,0.6.31-1.09,0.76-.59,0.37,0.35.75,0.68,1.15,1,0.45,1.45.95,3.04,1.98,6.04,0.26,2.47.43,4.85,0.48,7.35-0.62.4-.53,2.95,0.17,6.16,0.21-1.17.38-2.33,0.52-3.52,0.22,0.02.41,0.02,0.62,0.05,0.02,0,.1.02,0.12,0.02a12.781,12.781,0,0,0,.1-1.64c-0.05-.88-0.1-1.76-0.17-2.64a3.318,3.318,0,0,0-1.03-1.55,7.569,7.569,0,0,0,.46-3.71c-0.17-.97-0.39-2.07-0.65-3.14-0.19-.97-0.45-2.04-0.69-3.02h-0.17c-0.33-.74-0.69-1.35-1.05-2.09-0.64-2.88-1.69-6.02-2.29-8.57a89.955,89.955,0,0,0-5.9-14.17,7.693,7.693,0,0,0-2.24-4.36,97.362,97.362,0,0,0-11.81-16.15,4.514,4.514,0,0,0-1.41-2.33,9.587,9.587,0,0,0-2.44-1.64c-1.12-1.31-2.22-2.48-3.32-3.64-1.74-1.71-3.58-3.33-5.46-4.88-0.79-.71-1.67-1.47-2.58-2.21-0.84-.5-1.6-0.9-2.53-1.43-1.41-.93-2.82-1.83-4.34-2.73a12.569,12.569,0,0,0-3.44-1.98c-1-.62-1.98-1.26-2.91-1.81,1.24,0.34.35-.66,1.69-0.4a16.484,16.484,0,0,0-3-1.64c-0.89-.19-1.67-0.36-2.57-0.55l-0.45-.19c0.58-.19-0.24-0.71-0.71-1.07a19.959,19.959,0,0,0-4.59-1.4c-1.07-.53-1.58-0.88-2.11-1.17a13.783,13.783,0,0,0-4.64-1.21c-1.21-.31-2.3-0.57-3.55-0.83-1.3-.39-2.62-0.74-3.96-1.07a22.439,22.439,0,0,0-4.13-.93c-1.07.05-2.14,0.12-3.2,0.19-2.62-.29-5.25-0.5-7.76-0.6-0.87-.05-1.63-0.07-2.51-0.12a14.646,14.646,0,0,0-3.38-.95,22.508,22.508,0,0,0-4.34.36c-0.38.02-.75,0.05-1.26,0.07a12.263,12.263,0,0,0-5.42.33c-0.64.29-1.13,0.6-1.74,0.91a11.022,11.022,0,0,0-3.62.31c-3.19-.57-8.79.97-13.59,2.52-0.79.5-1.44,0.95-2.21,1.47-2.26.74-4.48,1.6-6.68,2.5a3.933,3.933,0,0,0-2.93.76c-0.69.91-4.38,2.22-5.94,3.93a7.31,7.31,0,0,0-2.06.81c-0.78,1.04-5.45,2.59-6.45,4.68-0.42.26-.95,0.57-1.47,0.88-0.63.38-1.35,0.86-1.97,1.26-0.76.62,1.63-.64,0.82-0.04a12.266,12.266,0,0,0-3.32,3.3c1.58-.45,1.59-1,5.01-3.52a9.505,9.505,0,0,0,2.98-1.28v0.04a4.95,4.95,0,0,0,2.18-1.26,18.586,18.586,0,0,1,3.26-1.52c0.93-.62,1.95-1.33,3.02-1.97,1.45-.65,2.26-0.95,3.17-1.34,1.31-.71,2.54-1.35,3.78-1.95-0.36.55,2.26-.14,2.46,0.17,3.01-.94,6.06-1.74,9.15-2.38,0.45-.07.94-0.14,1.43-0.19a3.572,3.572,0,0,0-.74.41c0.03,0.14.06,0.26,0.09,0.4-0.24.57-.5,1.13-0.79,1.67-0.43.23-.88,0.5-1.34,0.78a17.03,17.03,0,0,0-5.97,1.9c0.04,0.15.06,0.24,0.09,0.38-0.2.46-.39,0.93-0.64,1.41a8.324,8.324,0,0,0-2.28,1.35c-0.93.46-1.85,0.91-2.77,1.41-0.2.07-.41,0.14-0.62,0.23,0.01,0.03.02,0.05,0.03,0.08-1.08.57-2.15,1.19-3.22,1.83-1.43.81-2.82,1.69-4.18,2.59-1.27.67-2.54,1.38-3.82,2.14-2.61,1.5-5.11,3.21-7.53,4.9a78.123,78.123,0,0,0-6.26,4.71c-1.77,1.45-3.46,2.98-5.09,4.55a14.477,14.477,0,0,0-4.78,4.56c-0.09.48-.19,0.98-0.33,1.53-0.27.35-.61,0.76-0.95,1.19,0.11-1.03-.9.26-1.32,0.52-0.62.93-1.19,1.88-1.69,2.78,0.37-.78.72-1.76,1.09-2.73,1.21-2.12,1.43-2.76.86-3.26-0.63.97-1.27,1.92-1.8,2.8-0.66.88-1.25,1.69-1.88,2.6,1.14-1.81,2.36-3.57,3.68-5.4,0.75-1.19.77-1.98,0.44-2.12-1,1.21-2.03,2.59-2.95,3.88-0.79.52-.67-0.26-0.84-0.34a86.56,86.56,0,0,0-6.41,12.49c-0.34.88-.67,1.79-0.96,2.69,0.32,0.62.69,1.17,1.05,1.81a5.546,5.546,0,0,1,.2-0.52c0.07,0.07.15,0.16,0.22,0.23a13.3,13.3,0,0,1-1.01,1.81,2.85,2.85,0,0,0-.54.76c-0.34.43-.67,0.84-1.06,1.43a16.738,16.738,0,0,1-.24-1.71l-0.32-.34c-0.31.72-.57,1.31-0.82,1.93-1.09,3.05.32,2.17-.18,4.57-0.33,1.05-.6,2-0.89,3.07a20.1,20.1,0,0,1-.86,3.5c0.66,1.9-.95,2.78-1.3,5.54-0.24-.17-0.53-0.36-0.8-0.55,0.32-1.74.66-3.45,1.09-5.16a0.642,0.642,0,0,0-.13-0.1c-0.41.31-.78,0.65-1.19,0.95-0.33,1.41-.57,2.74-0.8,4.19-0.31,1.48-.59,3.09-0.82,4.62-0.15,1.21-.27,2.54-0.33,3.78-0.17,1.52-.24,2.62-0.32,3.59-0.2,1.02-.43,2.02-0.61,2.93,0.58,2.87.5,6.35,1.24,11.49,0.04,1.16.17,2.47,0.24,3.64-0.59-.22-1.14-0.41-1.73-0.62-0.15-1.12-.24-2.24-0.34-3.21-0.11-1.98-.16-3.83-0.18-5.81-0.19-.09-0.41-0.19-0.6-0.28-0.07-.6-0.12-1.17-0.18-1.64,0.31-1.29.6-2.6,0.96-3.88-0.15-.41-0.28-0.81-0.39-1.22-0.09-2.9-.17-3.92-0.94-3.9,0-.95,0-1.88.03-2.83a48.161,48.161,0,0,0,.93-8.3,17.361,17.361,0,0,0-1.37,8.02c-0.36,2.66-.64,5.33-0.81,8.01,0.05,0.36.1,0.74,0.12,1.1,0.19,0.09.4,0.21,0.59,0.31-0.04.78-.02,1.47-0.03,2.23-0.78,1.88-.08,5.12.35,8.11,0.18,1.91.39,3.93,0.69,5.81,0.22,1.14.49,2.28,0.7,3.31,0.34,1.45.67,2.9,1.07,4.35,0.08,0.64.24,1.4,0.34,2.04,0.15,0.55.24,0.98,0.4,1.55l0.15,1.55c-0.24-.05-0.45-0.1-0.69-0.15a0.153,0.153,0,0,0-.13-0.02,4.21,4.21,0,0,0,.93,3.57c0.36,1.09.68,2.09,1.09,3.16,0.41,0.6.84,1.17,1.23,1.64,0.09,0.41.18,0.74,0.24,1.05,0,0.81-.3.76-0.24,1.38,0.78,1.74,1.61,3.54,2.45,5.14,0.68,1.38,1.48,2.92,1.03,3.02a29.634,29.634,0,0,0,3.38,5.47c0.7,0.81,1.45,1.62,2.18,2.43a5.427,5.427,0,0,0,2.27,2.83,4.9,4.9,0,0,0,.19-1c0.54,0.47,1.13.93,1.68,1.4,1.09,1.52,2.24,3.02,3.42,4.52a3.543,3.543,0,0,0,.38,1.36c1.49,1.64,3.05,4.07,4.86,4.66a27.828,27.828,0,0,0,4.72,3.93c0.43,0.42.79,0.73,1.23,1.14a8.6,8.6,0,0,0,2.43,2.9,6.312,6.312,0,0,0,2.9,1.66c0.72,0.31,1.29.55,2.01,0.84a93.407,93.407,0,0,0,8.16,5.16c0.23,0.24.52,0.43,0.87,0.74a9.63,9.63,0,0,0,3.07,2.26c1.22,0.31,3.46,2.07,5.16,1.8,0.91,0.43,1.88.81,2.8,1.22,1.56,0.74,3.09,1.47,4.82,2.21a37.724,37.724,0,0,0,12.11,3.31,4.639,4.639,0,0,0,2.68.26,20.873,20.873,0,0,0,7.12.76c1.11,0.19,2.36.36,3.62,0.52,1.43,0.79.09,1.05,1.14,1.81,1.52,0.05,3.04.02,4.56,0,2.15,0,3.45-.14,5.2-0.02,0.86-.12,1.86-0.26,2.71-0.41a28.392,28.392,0,0,0,5.6-.35C1148.37,4482.95,1148.91,4482.21,1153.92,4481.21Z" transform="translate(-1033.38 -4286)"/>
    <path id="美" class="cls-1" d="M1125.76,4363.72c1.32-.36,1.92.24,1.92,1.56a29.242,29.242,0,0,0,.12,3.24c0.24,0.96-.12,1.44-1.2,1.44-2.04.48-3.96,0.84-6,1.32-3.6.84-7.08,1.68-10.68,2.76-0.24.24-.6,0.48-0.84,0.72l0.84,0.48c2.76,0.48,5.4.84,8.16,1.08a37.152,37.152,0,0,0,8.16-.24c0.6,0,1.2.12,1.8,0.12a7.381,7.381,0,0,0-.12,1.56,1.639,1.639,0,0,1-.48,1.32,38.8,38.8,0,0,1-15.72,9,2.437,2.437,0,0,0-1.44,1.44,17.271,17.271,0,0,0,1.8,4.32,2.942,2.942,0,0,0,1.92.72,47.913,47.913,0,0,0,8.16-.72,291.449,291.449,0,0,1,32.04-5.04,1.887,1.887,0,0,0,1.2-1.32,5.014,5.014,0,0,0-2.04-2.4,16.015,16.015,0,0,0-2.88-1.32,5.3,5.3,0,0,0-3-.48c-3.48.48-6.84,1.2-10.08,1.8-0.96.36-1.32,0-1.2-.84a26.4,26.4,0,0,0,.6-4.44,3.934,3.934,0,0,1,.72-0.96c3.12-1.8,6.24-3.48,9.48-5.04q1.8-.9.72-2.52c-1.68-1.44-3.48-2.76-5.16-4.08a2.416,2.416,0,0,0-3.6-.24c-0.84.72-1.44,0.6-2.04-.48a22.516,22.516,0,0,0-2.16-2.88,1.215,1.215,0,0,0-.48-0.84,8.268,8.268,0,0,1,.96-0.36,21.108,21.108,0,0,0,5.52-.72c4.2-1.2,8.16-2.52,12.12-3.96,0.96-.36,1.2-0.84.6-1.68a12.81,12.81,0,0,0-6.24-4.32,1.734,1.734,0,0,0-.84.24l-12.12,3.48a119.55,119.55,0,0,1-25.2,5.52,2.634,2.634,0,0,0-1.44.6,3.182,3.182,0,0,0-.72.6,0.726,0.726,0,0,1,.72.36,44,44,0,0,0,9,1.32C1119.64,4363.84,1122.76,4363.84,1125.76,4363.72Zm-7.68,24.72h-1.2c0.12-.12.36-0.24,0.48-0.36,2.88-1.56,5.76-3.12,8.76-4.56a3.322,3.322,0,0,1,1.56-.36,7.38,7.38,0,0,1,.12,1.68,9.106,9.106,0,0,1-.12,1.92,1.1,1.1,0,0,1-.72.48C1123.96,4387.72,1121.08,4388.08,1118.08,4388.44Zm61.32,18.72c1.32-.12,1.68-0.72,1.2-1.8a1.83,1.83,0,0,0-.84-1.44,19.677,19.677,0,0,0-6-4.92,75.406,75.406,0,0,0-7.08-3.24h-0.6a2.718,2.718,0,0,1-2.28,1.32,9.755,9.755,0,0,1-2.64.12,124.751,124.751,0,0,0-24.12,2.64,1.117,1.117,0,0,1-1.8-.72,7.634,7.634,0,0,0-3.72-4.44,3.754,3.754,0,0,1-1.2-.6,1.787,1.787,0,0,0-1.08-.48,41.866,41.866,0,0,0-5.28,2.4,1.473,1.473,0,0,0-.24,1.56c0.72,0.72,1.56,1.56,2.4,2.28a8.95,8.95,0,0,0,.84,1.44,5.5,5.5,0,0,1-1.68.84c-3.6.84-7.2,1.8-10.8,2.76-6.96,2.04-14.04,4.2-21,6.36a48.857,48.857,0,0,0-6,1.56,2.513,2.513,0,0,0-1.8,1.32,3.267,3.267,0,0,0,.96,1.2,10.83,10.83,0,0,0,6.72,3,13.261,13.261,0,0,0,3.72-1.08c6.12-2.16,12.36-4.44,18.6-6.72l8.28-2.76q1.08-.54.72,0.72a32.15,32.15,0,0,1-11.64,17.28,68.852,68.852,0,0,1-16.92,9.48,3.647,3.647,0,0,1-.84.6,1.783,1.783,0,0,0,1.08.24,33.207,33.207,0,0,0,6.72-.84,78.584,78.584,0,0,0,11.04-4.44,26.414,26.414,0,0,0,10.2-7.2,42.916,42.916,0,0,1,3.6-4.32,32.326,32.326,0,0,0,3.6-4.44,31.4,31.4,0,0,0,2.88-8.16,1.667,1.667,0,0,1,1.56-1.44c5.04-.72,9.96-1.32,14.76-2.04a60.262,60.262,0,0,1,27.24,3.48A6.765,6.765,0,0,1,1179.4,4407.16Zm-42.48,9.24a0.441,0.441,0,0,1-.12.36,3.087,3.087,0,0,0-1.8.12l-1.8,1.2a5.5,5.5,0,0,0,1.56.96,63.193,63.193,0,0,1,6.72,2.28,110.317,110.317,0,0,1,10.2,6.24,50.905,50.905,0,0,1,8.76,8.04,9.959,9.959,0,0,0,7.44,3.48,4.188,4.188,0,0,0,1.08-.72,4.845,4.845,0,0,0,.6-4.56,18.55,18.55,0,0,0-5.16-6.96,44.193,44.193,0,0,0-13.32-6.96C1146.4,4418.68,1141.72,4417.48,1136.92,4416.4Zm14.52-71.04c0.96-.24,1.92-0.6,3-0.84,2.28-.84,4.56-1.8,6.72-2.76a2.388,2.388,0,0,0,.84-1.92,10.653,10.653,0,0,0-2.52-4.56,36.846,36.846,0,0,0-4.08-3.48,5.671,5.671,0,0,0-6.12-1.56,29.51,29.51,0,0,0-5.76,1.92,3.754,3.754,0,0,0-.6,1.2c0.36,0.12.72,0.24,1.2,0.36,1.08,0.24,2.16.6,3.36,0.84a1.145,1.145,0,0,1,.36,1.92,60.944,60.944,0,0,1-5.64,6.84,68.311,68.311,0,0,1-6.72,6.48,4.188,4.188,0,0,1-.72,1.08,7.075,7.075,0,0,1,.96-0.48A26.4,26.4,0,0,1,1151.44,4345.36Zm-47.88-7.08,0.72,3.96a6.17,6.17,0,0,0,1.8,3.36c1.08,1.08,2.16,2.04,3.36,3.12a50.993,50.993,0,0,0,6.72,3.48,2.4,2.4,0,0,0,2.52-.48,5.85,5.85,0,0,0,0-2.88,3.862,3.862,0,0,0-1.44-2.16,5.449,5.449,0,0,1-.6-5.4,2.412,2.412,0,0,0,.48-0.96,4,4,0,0,0-.24-2.04,3.4,3.4,0,0,0-1.56.48,7.075,7.075,0,0,1-.96.48,6.879,6.879,0,0,0-1.68.48,2.05,2.05,0,0,1-1.68,0,10.666,10.666,0,0,1-3.36-4.2c-0.6-1.32-1.44-1.44-2.64-.6C1104.52,4336.12,1104.04,4337.2,1103.56,4338.28Z" transform="translate(-1033.38 -4286)"/>
  </g>
  <path id="三.もっと美しく" class="cls-1" d="M1050.98,4525.42a2,2,0,0,1-.84-0.06,0.4,0.4,0,0,1-.18-0.66c0.96-2.16,2.04-4.2,3.18-6.24a19.33,19.33,0,0,1,3.3-4.02,10.012,10.012,0,0,1,4.62-2.52l1.8-.54,3.65-.96a0.925,0.925,0,0,0,.84-1.26,7.472,7.472,0,0,0-1.2-2.16c-0.78-.78-1.62-1.44-2.46-2.16a1.259,1.259,0,0,0-1.85,0,14.535,14.535,0,0,1-3.54,1.92,9.408,9.408,0,0,1-4.44.6,22.1,22.1,0,0,1-4.5-.84,14,14,0,0,0-2.1-.36c-0.9.06-1.08,0.42-.6,1.14a10.31,10.31,0,0,0,1.98,1.98,5.385,5.385,0,0,0,2.52,1.14c1.74,0.36,3.54.72,5.4,1.02,0.72,0.06.84,0.36,0.3,0.9-3.3,4.08-6.54,8.22-9.72,12.36a1.677,1.677,0,0,0-.18,2.28,11.992,11.992,0,0,0,.6,1.26,4.27,4.27,0,0,0,3.42,2.58c0.84-.06,1.62-0.12,2.4-0.24a0.833,0.833,0,0,0,.66-0.12,2.478,2.478,0,0,1-.42.66,175.032,175.032,0,0,1-16.02,13.68,12.168,12.168,0,0,0-1.38,1.08,19.561,19.561,0,0,0-1.98,1.86,1.022,1.022,0,0,0-.18,1.02,14.138,14.138,0,0,0,1.32,2.28,3,3,0,0,0,1.62,1.08,4.158,4.158,0,0,0,1.92-.06,14.2,14.2,0,0,0,4.26-2.4,27.985,27.985,0,0,1,2.82-1.8,10.317,10.317,0,0,1,3.24-1.08,22.408,22.408,0,0,0,2.76-.54,30.107,30.107,0,0,1,7.32-1.62c1.5-.12,2.99-0.36,4.55-0.6a18.129,18.129,0,0,1,5.1.36c1.74,0.36,3.42.72,5.1,1.08,1.44,0.42,2.88.84,4.26,1.32a1.076,1.076,0,0,0,1.26-1.74,9.071,9.071,0,0,0-5.94-3.84,38.48,38.48,0,0,0-17.15.48c-2.94.66-5.88,1.38-8.82,2.1a90.685,90.685,0,0,0-8.64,2.82h-0.3a1.591,1.591,0,0,1,.3-0.36,9.792,9.792,0,0,0,1.2-1.02c1.68-1.68,3.36-3.3,4.92-4.98,1.02-1.02,1.98-2.04,2.94-3.06,1.56-1.26,3.06-2.52,4.5-3.9a16.812,16.812,0,0,1,7.02-4.32,14.732,14.732,0,0,0,4.25-2.34c0.12-.18.3-0.36,0.42-0.54a0.9,0.9,0,0,1,.54-0.42c0-.12-0.06-0.3-0.06-0.42l-0.24-.36a10.287,10.287,0,0,0-.96-1.38c-0.29-.18-0.6-0.36-0.89-0.54a5.093,5.093,0,0,1-.96-0.66,1.015,1.015,0,0,0-1.02-.42,1.829,1.829,0,0,0-.96.48,14.333,14.333,0,0,1-4.2,2.04A29.475,29.475,0,0,1,1050.98,4525.42Zm42.24,15.42c-1.26.24-2.58,0.48-3.84,0.66a1,1,0,0,0-.9,1.38c0.6,1.74,1.2,3.48,1.68,5.22a3.828,3.828,0,0,0,1.5,1.98l1.62,1.26a9.516,9.516,0,0,0,1.62,1.08,7.319,7.319,0,0,0,1.02.42,1.332,1.332,0,0,0,.96.06,1.3,1.3,0,0,0,.84-0.54,2.517,2.517,0,0,0,.54-0.84,13.844,13.844,0,0,0,.6-1.68c0.24-1.44.54-2.94,0.84-4.5a0.853,0.853,0,0,0-.12-0.36,0.634,0.634,0,0,1-.12-0.3,5.8,5.8,0,0,0-1.56-2.04,9.922,9.922,0,0,0-2.16-1.32A7.5,7.5,0,0,0,1093.22,4540.84Zm51.9-26.46-0.18-.96a15.644,15.644,0,0,0-.3-2.88,6.961,6.961,0,0,0-1.08-2.58,4.041,4.041,0,0,0-1.32-1.14,2.729,2.729,0,0,0-1.68-.3,0.51,0.51,0,0,0-.42.42,0.467,0.467,0,0,0,.18.42,3.853,3.853,0,0,1,1.56,3.48c-0.18,2.22-.42,4.38-0.66,6.54a2.265,2.265,0,0,1-1.2,1.38,18.418,18.418,0,0,0-1.56,1.5,14.354,14.354,0,0,1-.78,1.26,6.424,6.424,0,0,0-.78,1.26,1.862,1.862,0,0,0-.12,1.5,4.049,4.049,0,0,0,.78,1.32,8.36,8.36,0,0,1,.9,1.14,0.9,0.9,0,0,1,.3.9c-0.18,1.14-.36,2.22-0.54,3.3a30.3,30.3,0,0,0-.36,3.36,5.85,5.85,0,0,1-2.52,4.92,1.313,1.313,0,0,0-.54.6c0.3-.06.6-0.12,0.84-0.18a3.046,3.046,0,0,0,1.08-.54c0.6-.54,1.02-0.36,1.14.48a34.452,34.452,0,0,0,1.56,4.8,7.851,7.851,0,0,0,3.66,3.84,9.4,9.4,0,0,0,5.28,1.02,6.739,6.739,0,0,0,4.79-2.82,32.955,32.955,0,0,1,2.64-3.12,22.573,22.573,0,0,0,1.5-1.86,6.116,6.116,0,0,0,.96-2.1l0.9-4.14a13.223,13.223,0,0,0,.24-2.16v-3.42a5.842,5.842,0,0,0-.36-2.04,10.731,10.731,0,0,0-1.86-3.06,7.1,7.1,0,0,0-2.94-1.98q-3.315-1.17-6.65-2.34c-0.78-.12-1.62-0.3-2.46-0.36-0.6-.12-0.78-0.42-0.54-0.96Q1144.76,4516.63,1145.12,4514.38Zm-3.18,23.88a2.855,2.855,0,0,1,.3-1.98,4.908,4.908,0,0,1,1.2-1.5,52.217,52.217,0,0,0,4.14-4.02,2.45,2.45,0,0,0,.36-2.4,3.748,3.748,0,0,0-3.12-2.22,6.681,6.681,0,0,1-1.02-.12,0.636,0.636,0,0,1-.54-0.78c0.06-.36.12-0.72,0.18-1.02a28.22,28.22,0,0,1,.72-3.06,0.577,0.577,0,0,1,.54-0.48,18.038,18.038,0,0,1,2.52.3c0.96,0.18,2.04.42,3.06,0.66,0.84,0.36,1.68.72,2.51,1.08a3.474,3.474,0,0,1,1.5.9c0.42,0.48.78,0.96,1.14,1.44a9.108,9.108,0,0,1,1.56,7.98c-0.42,1.2-.84,2.46-1.26,3.66a12.829,12.829,0,0,1-2.94,4.8,19.054,19.054,0,0,1-4.55,3.42,3.249,3.249,0,0,1-2.22.66,3.056,3.056,0,0,1-2.1-.9,4.325,4.325,0,0,1-1.26-1.98A42.729,42.729,0,0,1,1141.94,4538.26Zm0.18-7.26c0.12-.72.18-1.5,0.24-2.22a0.5,0.5,0,0,1,.72-0.54,1.693,1.693,0,0,1,.9.24,0.5,0.5,0,0,1,.36.72,3.027,3.027,0,0,1-.42.78l-1.44,2.16-0.24.24a0.289,0.289,0,0,1-.12-0.36A2.912,2.912,0,0,1,1142.12,4531Zm70.67-4.02c-1.07.12-2.15,0.3-3.17,0.48a27.6,27.6,0,0,0-5.46,1.74,51.913,51.913,0,0,0-5.22,2.46c-1.5.72-3,1.44-4.44,2.04a24.385,24.385,0,0,1-4.74,1.56,6.545,6.545,0,0,1-.66.36c-0.36.36-.3,0.6,0.12,0.78,0.3,0.06.6,0.18,0.9,0.24a2.984,2.984,0,0,0,.96.18c0.84-.12,1.62-0.24,2.46-0.42a7.042,7.042,0,0,0,2.4-.78,57.565,57.565,0,0,1,6.24-2.7c2.1-.78,4.2-1.56,6.36-2.34a9.565,9.565,0,0,1,3.48-.84,9.976,9.976,0,0,1,3.53.3,9.2,9.2,0,0,1,1.62.66,3,3,0,0,1,1.32,1.14,2.614,2.614,0,0,1,.42,1.68,5.205,5.205,0,0,1-.3,1.68,3.546,3.546,0,0,1-.42,1.2,19.04,19.04,0,0,1-1.92,2.94,24.233,24.233,0,0,1-2.33,2.52,49.665,49.665,0,0,1-7.92,6.24,2.61,2.61,0,0,0-.42.36c0.18-.06.36-0.06,0.54-0.12,0.84-.42,1.62-0.84,2.4-1.26,1.14-.6,2.22-1.14,3.35-1.8,0.42-.24.84-0.42,1.21-0.6a3.359,3.359,0,0,0,1.07-.72,16.905,16.905,0,0,1,2.76-2.28c0.96-.6,1.98-1.26,2.94-1.86a8.369,8.369,0,0,0,1.62-1.26,4.978,4.978,0,0,0,1.14-1.62,5.054,5.054,0,0,0,.42-2.1,5.62,5.62,0,0,0-.42-2.22,7.591,7.591,0,0,0-1.2-1.86,8.483,8.483,0,0,0-2.4-2.22,7.7,7.7,0,0,0-3-1.2A14.047,14.047,0,0,0,1212.79,4526.98Zm59.35,20.88,3.71-.24q1.26,0,.54-1.08a3.852,3.852,0,0,0-2.04-1.86,5.308,5.308,0,0,0-2.75-.36,41.524,41.524,0,0,1-7.26-.3,39.466,39.466,0,0,1-4.44-1.02c-0.42-.06-0.54-0.3-0.18-0.72,0.66-1.14,1.38-2.28,2.1-3.42a9.067,9.067,0,0,1,2.88-2.76c0.18-.12.42-0.3,0.66-0.48a0.635,0.635,0,0,1,.78-0.06,3.825,3.825,0,0,1,.84.48,2.859,2.859,0,0,0,2.7.42,0.748,0.748,0,0,0,.18-0.72c-0.42-.72-0.9-1.5-1.32-2.22l-0.18-.54a22.7,22.7,0,0,1,1.98-1.32c1.2-.66,2.34-1.26,3.41-1.86,0.9-.72,1.8-1.38,2.76-2.04a13.021,13.021,0,0,1,3-1.56,19.989,19.989,0,0,0,3-1.5,1.7,1.7,0,0,0,.54-0.6,1.413,1.413,0,0,0,.3-0.6,2.217,2.217,0,0,0-1.08-1.26,5.433,5.433,0,0,0-1.56-.78,3.217,3.217,0,0,0-1.68-.06,52.2,52.2,0,0,0-9.71,4.8c-1.08.72-2.16,1.44-3.24,2.04-0.42.24-.66,0.18-0.84-0.24-0.42-1.56-.9-3.18-1.38-4.68a22.971,22.971,0,0,1-.78-8.34l0.18-5.22a3.453,3.453,0,0,0-1.2-3,0.852,0.852,0,0,0-1.44.42,10.426,10.426,0,0,0-.6,1.14,32.208,32.208,0,0,0-1.08,16.5,17.258,17.258,0,0,0,1.44,4.62,22.069,22.069,0,0,0,3.42,3.72l0.6,0.6a0.484,0.484,0,0,1-.06.72,2.107,2.107,0,0,1-.6.48,3.442,3.442,0,0,1-.42.24c-2.04,1.56-4.08,3.12-6.06,4.8a1.844,1.844,0,0,0-.42,2.94,7.9,7.9,0,0,0,3.42,3,24.888,24.888,0,0,0,5.82,1.38C1268.12,4547.56,1270.1,4547.74,1272.14,4547.86Zm5.57-24.06-0.42.42a30.658,30.658,0,0,1-2.88,2.7c-2.1,1.68-4.19,3.36-6.35,4.98a1.491,1.491,0,0,1-.48-0.06,3.1,3.1,0,0,1-.36-0.78,0.621,0.621,0,0,1,.3-0.96,1.339,1.339,0,0,0,1.08-1.26,1.655,1.655,0,0,1,.72-0.84,36.851,36.851,0,0,1,4.25-3,26.1,26.1,0,0,1,3.66-1.2h0.48Zm45.19-6.9c0.66-.18.96,0.12,0.96,0.78a14.621,14.621,0,0,0,.06,1.62c0.12,0.48-.06.72-0.6,0.72-1.02.24-1.98,0.42-3,.66-1.8.42-3.54,0.84-5.34,1.38-0.12.12-.3,0.24-0.42,0.36l0.42,0.24c1.38,0.24,2.7.42,4.08,0.54a18.576,18.576,0,0,0,4.08-.12c0.3,0,.6.06,0.9,0.06a3.691,3.691,0,0,0-.06.78,0.82,0.82,0,0,1-.24.66,19.4,19.4,0,0,1-7.86,4.5,1.218,1.218,0,0,0-.72.72,8.635,8.635,0,0,0,.9,2.16,1.471,1.471,0,0,0,.96.36,23.957,23.957,0,0,0,4.08-.36,145.924,145.924,0,0,1,16.01-2.52,0.944,0.944,0,0,0,.6-0.66,2.507,2.507,0,0,0-1.02-1.2,8.008,8.008,0,0,0-1.44-.66,2.651,2.651,0,0,0-1.5-.24c-1.73.24-3.41,0.6-5.03,0.9-0.48.18-.66,0-0.6-0.42a13.2,13.2,0,0,0,.3-2.22,1.967,1.967,0,0,1,.36-0.48c1.56-.9,3.11-1.74,4.74-2.52a0.766,0.766,0,0,0,.35-1.26c-0.83-.72-1.73-1.38-2.57-2.04a1.208,1.208,0,0,0-1.8-.12c-0.42.36-.72,0.3-1.02-0.24a11.258,11.258,0,0,0-1.08-1.44,0.607,0.607,0,0,0-.24-0.42,4.134,4.134,0,0,1,.48-0.18,10.554,10.554,0,0,0,2.76-.36c2.1-.6,4.07-1.26,6.05-1.98,0.48-.18.6-0.42,0.3-0.84a6.405,6.405,0,0,0-3.12-2.16,0.867,0.867,0,0,0-.42.12l-6.05,1.74a59.775,59.775,0,0,1-12.6,2.76,1.317,1.317,0,0,0-.72.3,1.591,1.591,0,0,0-.36.3,0.363,0.363,0,0,1,.36.18,22,22,0,0,0,4.5.66C1319.84,4516.96,1321.4,4516.96,1322.9,4516.9Zm-3.84,12.36h-0.6c0.06-.06.18-0.12,0.24-0.18,1.44-.78,2.88-1.56,4.38-2.28a1.661,1.661,0,0,1,.78-0.18,3.69,3.69,0,0,1,.06.84,4.553,4.553,0,0,1-.06.96,0.551,0.551,0,0,1-.36.24C1322,4528.9,1320.56,4529.08,1319.06,4529.26Zm30.65,9.36c0.66-.06.84-0.36,0.6-0.9a0.915,0.915,0,0,0-.42-0.72,9.838,9.838,0,0,0-3-2.46,37.7,37.7,0,0,0-3.54-1.62h-0.3a1.359,1.359,0,0,1-1.14.66,4.877,4.877,0,0,1-1.32.06,62.273,62.273,0,0,0-12.05,1.32,0.559,0.559,0,0,1-.9-0.36,3.817,3.817,0,0,0-1.86-2.22,1.877,1.877,0,0,1-.6-0.3,0.894,0.894,0,0,0-.54-0.24,20.933,20.933,0,0,0-2.64,1.2,0.736,0.736,0,0,0-.12.78c0.36,0.36.78,0.78,1.2,1.14a4.475,4.475,0,0,0,.42.72,2.748,2.748,0,0,1-.84.42c-1.8.42-3.6,0.9-5.4,1.38-3.48,1.02-7.02,2.1-10.5,3.18a24.428,24.428,0,0,0-3,.78,1.257,1.257,0,0,0-.9.66,1.634,1.634,0,0,0,.48.6,5.415,5.415,0,0,0,3.36,1.5,6.631,6.631,0,0,0,1.86-.54c3.06-1.08,6.18-2.22,9.3-3.36l4.14-1.38q0.54-.27.36,0.36a16.075,16.075,0,0,1-5.82,8.64,34.426,34.426,0,0,1-8.46,4.74,1.823,1.823,0,0,1-.42.3,0.892,0.892,0,0,0,.54.12,16.6,16.6,0,0,0,3.36-.42,39.292,39.292,0,0,0,5.52-2.22,13.207,13.207,0,0,0,5.1-3.6,21.458,21.458,0,0,1,1.8-2.16,16.163,16.163,0,0,0,1.8-2.22,15.7,15.7,0,0,0,1.44-4.08,0.834,0.834,0,0,1,.78-0.72c2.52-.36,4.97-0.66,7.37-1.02a30.131,30.131,0,0,1,13.62,1.74A3.383,3.383,0,0,1,1349.71,4538.62Zm-21.23,4.62a0.22,0.22,0,0,1-.06.18,1.544,1.544,0,0,0-.9.06l-0.9.6a2.748,2.748,0,0,0,.78.48,31.6,31.6,0,0,1,3.36,1.14,55,55,0,0,1,5.09,3.12,25.453,25.453,0,0,1,4.38,4.02,4.979,4.979,0,0,0,3.72,1.74,2.094,2.094,0,0,0,.54-0.36,2.422,2.422,0,0,0,.3-2.28,9.275,9.275,0,0,0-2.58-3.48,22.1,22.1,0,0,0-6.66-3.48C1333.21,4544.38,1330.88,4543.78,1328.48,4543.24Zm7.25-35.52c0.48-.12.96-0.3,1.5-0.42,1.14-.42,2.28-0.9,3.36-1.38a1.194,1.194,0,0,0,.42-0.96,5.326,5.326,0,0,0-1.26-2.28,18.423,18.423,0,0,0-2.04-1.74,2.836,2.836,0,0,0-3.06-.78,14.659,14.659,0,0,0-2.87.96,1.877,1.877,0,0,0-.3.6c0.18,0.06.36,0.12,0.6,0.18,0.54,0.12,1.07.3,1.67,0.42a0.578,0.578,0,0,1,.19.96,30.472,30.472,0,0,1-2.82,3.42,34.155,34.155,0,0,1-3.36,3.24,2.094,2.094,0,0,1-.36.54,3.538,3.538,0,0,1,.48-0.24A13.192,13.192,0,0,1,1335.73,4507.72Zm-23.93-3.54,0.36,1.98a3.085,3.085,0,0,0,.9,1.68c0.54,0.54,1.08,1.02,1.68,1.56a25.5,25.5,0,0,0,3.36,1.74,1.2,1.2,0,0,0,1.26-.24,2.925,2.925,0,0,0,0-1.44,1.931,1.931,0,0,0-.72-1.08,2.724,2.724,0,0,1-.3-2.7,1.206,1.206,0,0,0,.24-0.48,2,2,0,0,0-.12-1.02,1.7,1.7,0,0,0-.78.24,3.538,3.538,0,0,1-.48.24,3.439,3.439,0,0,0-.84.24,1.025,1.025,0,0,1-.84,0,5.333,5.333,0,0,1-1.68-2.1c-0.3-.66-0.72-0.72-1.32-0.3C1312.28,4503.1,1312.04,4503.64,1311.8,4504.18Zm75.78,7.5a6.984,6.984,0,0,0-4.56-6.6,3.147,3.147,0,0,0-1.02-.12,2.984,2.984,0,0,0-.06,1.26,3.814,3.814,0,0,0,.36,1.08,4.722,4.722,0,0,1,.24,1.2,20.243,20.243,0,0,1-.06,5.04c-0.42,4.26-.9,8.52-1.38,12.78a26.036,26.036,0,0,0,1.86,12.12,28.448,28.448,0,0,0,7.08,10.14,5.091,5.091,0,0,0,1.56.66,1.433,1.433,0,0,1,.54.18,1.255,1.255,0,0,1,.36.24,1.341,1.341,0,0,0,.18-0.6,1.009,1.009,0,0,0-.3-0.66c-1.56-2.88-3.06-5.82-4.56-8.7-0.6-1.38-1.2-2.76-1.68-4.14a15.253,15.253,0,0,1-1.38-7.08,61.376,61.376,0,0,1,2.52-15.48A8.514,8.514,0,0,0,1387.58,4511.68Zm68.09,36.6a0.967,0.967,0,0,0,1.08-.54,1.646,1.646,0,0,0,.06-1.2,11.008,11.008,0,0,0-2.4-4.62,51.354,51.354,0,0,0-6.47-6.12,31.693,31.693,0,0,0-7.62-4.56,2.568,2.568,0,0,1-.96-0.84,1.287,1.287,0,0,1-.3-1.2,13.287,13.287,0,0,1,2.16-4.2,17.2,17.2,0,0,1,3.36-3.24c3.36-2.88,6.84-5.7,10.31-8.46a2.034,2.034,0,0,0,.54-0.84,3.165,3.165,0,0,0-.48-3,7.406,7.406,0,0,0-2.4-2.16,0.883,0.883,0,0,0-1.31.6,3.277,3.277,0,0,0-.06,1.08,2.963,2.963,0,0,1-.78,2.28c-1.26,1.62-2.52,3.18-3.9,4.68a34.963,34.963,0,0,1-4.38,4.08c-1.14.96-2.22,1.92-3.3,3a16.27,16.27,0,0,0-2.64,3.42,11.992,11.992,0,0,0-.6,1.26,2.9,2.9,0,0,0-.06,1.44,7.338,7.338,0,0,0,4.44,4.86,17.767,17.767,0,0,1,3.18,1.68,43.3,43.3,0,0,1,4.08,3.36,11.227,11.227,0,0,1,3.6,5.16,8.082,8.082,0,0,0,2.22,2.88,8.254,8.254,0,0,0,1.19.9A1.983,1.983,0,0,0,1455.67,4548.28Z" transform="translate(-1033.38 -4286)"/>
</svg>
