<svg id="concept01.svg" xmlns="http://www.w3.org/2000/svg" width="474.724" height="267.66" viewBox="0 0 474.724 267.66">
  <defs>
    <style>
      .cls-1 {
        fill: #fff;
        fill-rule: evenodd;
      }
    </style>
  </defs>
  <g id="an">
    <path id="安" class="cls-1" d="M922.424,1072.27a22.518,22.518,0,0,1,8.73-18.46,59.779,59.779,0,0,1,21.753-11.31,4.972,4.972,0,0,1,1.431-.14c-0.143.29-.286,0.72-0.429,1-1.431,3.01-2.862,6.01-4.15,9.02-3.435,7.87-6.727,15.88-10.018,24.04a5.18,5.18,0,0,1-3.435,3.44q-17.174,6.225-33.918,12.88c-1.431.57-1.574,1.43-.572,2.57a6.141,6.141,0,0,0,3.435,1.15,27.117,27.117,0,0,0,9.588-.86,51.031,51.031,0,0,0,8.873-3.44c3.721-1.71,7.442-3.57,11.163-5.43a2.413,2.413,0,0,1,.859-0.15,0.647,0.647,0,0,1,0,.72c-1.145,4.58-2.433,9.01-3.578,13.59a4.151,4.151,0,0,0,1.574,4.73,6.142,6.142,0,0,0,3.864,1.14,2.384,2.384,0,0,0,2.576-2.14,14,14,0,0,1,1.288-4.16c0.859-2.43,2.433-3.14,4.866-2,1.145,0.43,2.29,1,3.721,1.43,3.148,1.15,6.3,2.29,9.3,3.58,1,0.43,1,1,.286,1.72-1.717,2.14-3.434,4.15-5.3,6.15a48.375,48.375,0,0,1-16.315,9.16,74.159,74.159,0,0,1-18.461,3.58c-2.147.14-4.15,0.43-6.011,0.71a4.81,4.81,0,0,0-2,.29,4.517,4.517,0,0,1,2,.43,3.317,3.317,0,0,0,.573.14,54.516,54.516,0,0,1,9.588.86,36.589,36.589,0,0,0,14.741,0,81.98,81.98,0,0,0,14.311-3.86,26.12,26.12,0,0,0,8.587-5.01,67.171,67.171,0,0,0,7.155-7.16c1-1.57,2-1.71,3.292-.43,3.578,3.44,6.869,7.02,10.161,10.74,5.438,7.01,10.733,13.88,16.172,20.89a1.643,1.643,0,0,1,0,2.43l-1.432,1.15a1.868,1.868,0,0,1-.429.57,0.433,0.433,0,0,0,.573,0,5.668,5.668,0,0,1,5.437.29,2.194,2.194,0,0,0,2.29,0,3.131,3.131,0,0,0,.43-2.72,68.222,68.222,0,0,0-5.295-8.87c-4.007-5.16-8.014-10.31-12.165-15.32a91.041,91.041,0,0,0-14.025-13.74,0.768,0.768,0,0,1-.286-1.14,63.881,63.881,0,0,0,7.156-14.74,3.685,3.685,0,0,0-.716-4.58,12.181,12.181,0,0,0-9.159-4.58,24.729,24.729,0,0,1-3.292-.43,19.236,19.236,0,0,1,2,2.72,2.391,2.391,0,0,1,1,3.29l-5.582,12.88c-0.286,1-1,1.29-2.146.57-5.582-2.43-11.306-4.86-17.174-7.44a1.292,1.292,0,0,1-.429-1.43,72.319,72.319,0,0,1,3-7.73,3.558,3.558,0,0,1,2.147-1.57,70.686,70.686,0,0,1,18.032-3.72c2.576-.29,5.438-0.43,8.157-0.72a124.485,124.485,0,0,1,20.609-.43,45.166,45.166,0,0,1,19.607,5.87,3.637,3.637,0,0,0,4.29-.29,5.212,5.212,0,0,0,.15-3.86,11.888,11.888,0,0,0-9.59-7.16,144.445,144.445,0,0,0-15.459-1.43,160.307,160.307,0,0,0-42.934,4.87,5.48,5.48,0,0,1-1.574.14c0.143-.43.286-1,0.429-1.57a132.291,132.291,0,0,1,17.03-34.64,3.232,3.232,0,0,1,1.718-.85c4.579-.58,9.159-1.15,13.739-1.86a12.712,12.712,0,0,1,11.162,2.86c1.432,1,1.575,2,.287,3a159.022,159.022,0,0,1-14.884,12.88,79.317,79.317,0,0,1-17.174,10.02,5.149,5.149,0,0,0-2.289,1.57,23.834,23.834,0,0,0,2.862-.57c8.157-3.15,16.458-6.29,24.615-9.44q4.509-2.145,9.016-4.3c1.574-1,3.006-2,4.576-3.14a14.351,14.351,0,0,1,5.01-2.29,2.058,2.058,0,0,0,.72-1.58,6.842,6.842,0,0,0-3.44-6.44,42.8,42.8,0,0,0-6.866-4.44,19.667,19.667,0,0,0-7.3-2.71,46.474,46.474,0,0,0-7.728-.29l-8.444,1.14h-2.147a10,10,0,0,0,1.431-1.28,1.89,1.89,0,0,0,.573-0.86,44.8,44.8,0,0,1,3.578-5.44,14.771,14.771,0,0,1,5.152-4.29,3.263,3.263,0,0,0,.858-4.58,5.359,5.359,0,0,0-6.3-1.86,21.179,21.179,0,0,0-5.009,3.57,105.993,105.993,0,0,0-14.025,17.89,2.881,2.881,0,0,1-1.717,1.43,123.182,123.182,0,0,0-32.343,17.03,2,2,0,0,1-1,.29,1.822,1.822,0,0,1-.143-0.86c0.429-3.72.715-7.3,1-11.02a17.485,17.485,0,0,0-.859-3.72c-0.859,1-1.717,2-2.576,3.15-2.29,7.44-4.866,14.88-7.3,22.47a5.409,5.409,0,0,0,.573,5.29,27.971,27.971,0,0,0,4.007,5.01,23.229,23.229,0,0,0,3.291,1.43,8.093,8.093,0,0,0,1-3.14C922.567,1072.42,922.567,1072.42,922.424,1072.27Z" transform="translate(-723.156 -980)"/>
    <path id="シェイプ_4" data-name="シェイプ 4" class="cls-1" d="M980.918,1175.2c0.024-.05.033-0.09,0.06-0.14l0.291-.74c1.174-.33,2.1-0.66,3.12-0.97a8.973,8.973,0,0,0-1.194-1.17,1.268,1.268,0,0,0-.031-0.26c1.37-.36,2.767-0.86,5.76-1.45,0.024-.07.036-0.1,0.06-0.17l0.291-.74c1.174-.33,2.1-0.64,3.12-0.95a9.552,9.552,0,0,0-1.194-1.16,2.68,2.68,0,0,0-.238-0.96c0.1-.3.143-0.4-2.072-0.19-0.623-.11-1.365-0.21-1.984-0.38-0.109-.28-0.1-0.64-0.2-0.92,0.578-.67,1.148-1.38,1.819-2.1,0.862-.33,1.038-0.57,1.769-0.85l0.3-1.05a4.232,4.232,0,0,0-.186-1.21c-0.043-.22.628-0.79-0.341-0.62-0.564-.22-1.106-0.48-1.764-0.67a1.191,1.191,0,0,0,.737-0.83c-0.864.21-1.738,0.43-2.6,0.59-2.291.12-.954-0.8-4.356-0.14-0.274.52-3.082,0.76-3.036,1.38-3.924.48-6.908,0.14-10.09,0.45-2.5-.14-3.661.22-5.542,0.05-0.776.29-3.251-.59-2.889,0.05a58.6,58.6,0,0,1-13.233-1.95c-0.339,1.61-4.8-1.45-6.882-1.29-1.241-1.38-5.1-1.52-7.11-3.28a68.73,68.73,0,0,1-14.587-8.06,65.911,65.911,0,0,1-14.386-12.76c-0.409.08-1.063-.92-1.607-0.99-1.735-2.03-3.475-4.19-5.1-6.43a76,76,0,0,1-7.655-12.94c-0.492-.31-0.793-1.97-1.642-1.83a9.092,9.092,0,0,0-1.872-4.59c-0.088-1.02-1.239-3.21-.642-3.24a5.62,5.62,0,0,0-.761-1.88,11.264,11.264,0,0,1-.993-2.87c-0.4-.81-0.683-1.55-1.082-2.48,0.764,0.45-.016-2.16-0.238-2.31a14.868,14.868,0,0,0-1.387-3.52c-0.033-.19-0.052-0.28-0.086-0.5a3.848,3.848,0,0,0-.353-3.4,6.564,6.564,0,0,0-.831-3.99c-0.1-.53-0.165-1.07-0.258-1.5,0.54,0.71.294-.88,0.716-0.72-0.864-3.3,0-9.06-.279-12.39,0.131-1.31.282-2.52,0.478-3.83a33.6,33.6,0,0,0,.675-6.04c0.06-.29.139-0.6,0.239-0.98,0.682-2.76,2.024-6.32,2.864-10.44,1.134-2.81,2.609-5.5,3.71-7.97a23.934,23.934,0,0,1,2.694-3.14,40.2,40.2,0,0,1,6.684-10.32c0.415-.62,1.041-1.24,1.06-0.84,0.654-.78,1.238-1.47,1.926-2.23a3.771,3.771,0,0,0,1.609-3l-1.4.43c0.146-.6.239-1.1,0.325-1.6,0.368-.61.79-1.35,1.194-1.97,0.238-.21.463-0.45,0.763-0.74a95.085,95.085,0,0,1,11.642-9.04c0.136,0.29.286,0.57,0.424,0.86,0.812-.29,1.638-0.55,2.445-0.81a6.231,6.231,0,0,0,1.671-1.26c4.327-1.55,11.058-3.95,14.021-5.376,1.141-.4,2.4-0.809,3.58-1.118,1.392-.286,2.683-0.524,4.094-0.761-0.673,1.308,3.127-.548,4.669-0.048,2.177-.261,1.723.476,4.215,0.1a14.57,14.57,0,0,1,1.552-.643,10.109,10.109,0,0,0,3.21-.428h0.986a83,83,0,0,1,15.551,1.974c1.378,0.309,2.731.666,4.089,1.023,0.955,0.238,2.024.452,3.077,0.738,3.079,1,4.535,1.643,7.443,2.383l0.907,0.35c3.4,1.57,5.578,3.21,9.91,5.33a8.5,8.5,0,0,1,2.764,1.43,88.392,88.392,0,0,1,9.706,7.13c2.41,2.76,4.54,2.98,6.68,5.95a81.7,81.7,0,0,1,18.45,28.31c0.48,0.69.91,1.4,1.37,2.09,0.71,2.19,1.36,4.26,1.88,6.38-0.48.95,1.24,4.66,0.74,5.61,0.41,1.24.5,3.48,1.1,3.62,0.91,0.83.24,2.45,0.62,3.78,0.07,2.43.26,4.38,0.19,7a14.3,14.3,0,0,0,.26,4.18c-0.59.72-.02,4.4-0.74,5.07-0.09,2.04-.24,4.07-0.45,5.99a15.359,15.359,0,0,0-.67,2.22c0.98,4.87-2.12,2.4-2.12,8.11a19.359,19.359,0,0,1-2.94,7.21c-1.69,2.37-.79,3.44-1.74,5.35a5.086,5.086,0,0,1-1.12.95,3.913,3.913,0,0,0-.72,1.69,12.714,12.714,0,0,1-2.27,3.61c-0.5,1.17-1.07,1.15-1.19.84-0.55.88-1.22,1.83-1.82,2.71-0.76.97-1.47,1.88-2.29,2.83-0.83.69-1.93,2.54-2.38,2.26-0.5.59-.96,1.09-1.53,1.76l-1.24,1.31c-1.12,1.07-2.25,2.12-3.42,3.14-0.57.4-1.07,0.78-1.52,1.14a1.887,1.887,0,0,0-.34.09l-0.38-.59c-2.03.48-3.7,2.62-5.95,3.24-0.82.85-3.61,1.68-3.84,2.33a16.313,16.313,0,0,1-4.161,2.4c-0.9.95-4.216,1.88-3.819,2.54a6.362,6.362,0,0,0,2.589-.97c1.043-.24,2.149-0.6,3.192-0.91,0.133,0.27.257,0.48,0.386,0.74l-0.117.15c-1.067.38-2.174,0.76-3.229,1.09-1.308.5-2.726,1-4.058,1.43a15.48,15.48,0,0,0-4.165,1.19c1.393-.22,2.78-0.48,4.251-0.81,1.747-.45,3.394-0.93,5.105-1.48,0.308-.12.669-0.26,1.043-0.4-0.63.43-1.245,0.81-1.909,1.24a8.091,8.091,0,0,0-2.49,1.45c-0.549.26-1.09,0.5-1.737,0.76-1.306.47-2.717,0.95-4.042,1.38-1.308.47-2.728,0.97-4.057,1.42a16.715,16.715,0,0,0-4.166,1.17c1.394-.19,2.781-0.45,4.252-0.79,1.747-.47,3.394-0.95,5.105-1.49,0.385-.12.847-0.31,1.323-0.5a31.01,31.01,0,0,0,7.216-2.74c1.069-.33,2.128-0.69,3.188-1.07,0.14,0.29.23,0.45,0.32,0.62,2.1-1.05,4.06-2.17,6.04-3.4,0.71-.53,1.43-0.98,2.1-1.43,2.03-1.02,3.96-2.12,5.89-3.33,3.08-2.14,5.52-3.47,8.12-5.47,3.1-3.07,6.73-5.38,9.36-8.54,0.52-.62,1.09-1.21,1.59-1.83,0.79-.84,1.58-1.76,2.3-2.64,0.57-.84,1.09-1.6,1.64-2.45,0.05,0.64.17,1.35,0.22,2.02,0.33,0.62,1.26.26,1.88,0.02,0.67-.93,1.32-1.9,2.01-2.95,0.5-.66.95-1.26,1.5-2.04,0.84-1.6,1.63-3.31,2.37-4.93a75.741,75.741,0,0,0,6.66-16.79c0.66-1.33,1.05-5.24,1.5-6.4,0.14-1.17.31-2.31,0.41-3.45,0.07-.62.14-1.36,0.19-1.98,0.81,0.03.81-2.64,0.52-3.52a89.209,89.209,0,0,0-.21-10.08c-0.03-.83-0.05-1.69-0.12-2.52,0.64-.41.09-3.38-0.43-4.5l-0.29-1.57a38.25,38.25,0,0,0-.19-4c0.64,0.6.31-1.09,0.76-.59,0.37,0.35.75,0.69,1.15,1,0.45,1.45.95,3.04,1.98,6.04,0.26,2.47.43,4.85,0.48,7.35-0.62.41-.53,2.95,0.17,6.16,0.21-1.16.38-2.33,0.52-3.52,0.22,0.03.41,0.03,0.62,0.05,0.02,0,.1.02,0.12,0.02a12.781,12.781,0,0,0,.1-1.64c-0.05-.88-0.1-1.76-0.17-2.64a3.318,3.318,0,0,0-1.03-1.55,7.569,7.569,0,0,0,.46-3.71c-0.17-.97-0.39-2.07-0.65-3.14-0.19-.97-0.45-2.04-0.69-3.02h-0.17c-0.33-.74-0.69-1.35-1.05-2.09-0.64-2.88-1.69-6.02-2.29-8.56a89.671,89.671,0,0,0-5.9-14.18,7.693,7.693,0,0,0-2.24-4.36,97.362,97.362,0,0,0-11.81-16.15,4.514,4.514,0,0,0-1.41-2.33,9.587,9.587,0,0,0-2.44-1.64c-1.12-1.31-2.22-2.47-3.32-3.64-1.74-1.71-3.58-3.33-5.46-4.88-0.79-.71-1.67-1.47-2.58-2.21-0.84-.5-1.6-0.9-2.53-1.427-1.41-.927-2.82-1.831-4.34-2.735a12.656,12.656,0,0,0-3.44-1.975c-1-.618-1.98-1.26-2.91-1.808,1.24,0.333.35-.666,1.69-0.4a17.184,17.184,0,0,0-3-1.641c-0.89-.191-1.67-0.357-2.57-0.547l-0.45-.191c0.58-.19-0.24-0.713-0.71-1.07a19.87,19.87,0,0,0-4.588-1.4c-1.076-.523-1.585-0.88-2.115-1.165a13.966,13.966,0,0,0-4.633-1.214c-1.217-.309-2.306-0.57-3.549-0.832q-1.965-.571-3.96-1.07a22.793,22.793,0,0,0-4.137-.928c-1.071.047-2.133,0.119-3.2,0.191-2.625-.286-5.251-0.5-7.76-0.595-0.876-.048-1.63-0.072-2.508-0.12a14.962,14.962,0,0,0-3.385-.951,21.777,21.777,0,0,0-4.34.357c-0.377.024-.752,0.047-1.26,0.071a12.262,12.262,0,0,0-5.423.333c-0.633.286-1.125,0.6-1.74,0.9a11.024,11.024,0,0,0-3.614.309c-3.2-.571-8.8.975-13.589,2.521-0.79.5-1.444,0.952-2.213,1.475-2.258.738-4.483,1.594-6.683,2.5a3.914,3.914,0,0,0-2.929.761c-0.688.9-4.38,2.213-5.934,3.925a7.555,7.555,0,0,0-2.065.809c-0.781,1.046-5.449,2.593-6.445,4.686-0.42.262-.955,0.571-1.473,0.88-0.635.381-1.348,0.856-1.966,1.266-0.767.61,1.63-.65,0.811-0.05a12.344,12.344,0,0,0-3.318,3.3c1.58-.45,1.59-1,5.013-3.52a9.375,9.375,0,0,0,2.979-1.281v0.047a5.014,5.014,0,0,0,2.177-1.26,18.915,18.915,0,0,1,3.263-1.523c0.926-.619,1.947-1.332,3.017-1.974,1.456-.643,2.265-0.952,3.172-1.333,1.313-.713,2.542-1.355,3.783-1.95-0.362.547,2.261-.143,2.454,0.166a94.407,94.407,0,0,1,9.154-2.378c0.447-.072.938-0.143,1.433-0.191a3.714,3.714,0,0,0-.743.405c0.031,0.143.057,0.261,0.086,0.4a17.094,17.094,0,0,1-.79,1.664c-0.43.238-.878,0.5-1.334,0.786a16.931,16.931,0,0,0-5.968,1.9c0.031,0.142.058,0.238,0.084,0.38-0.2.452-.387,0.928-0.638,1.4a8.45,8.45,0,0,0-2.279,1.355c-0.929.452-1.848,0.9-2.767,1.4-0.207.071-.41,0.143-0.62,0.238a0.444,0.444,0,0,0,.021.071c-1.072.571-2.148,1.192-3.218,1.832-1.432.81-2.816,1.69-4.179,2.59-1.273.67-2.54,1.38-3.819,2.14-2.609,1.5-5.106,3.22-7.529,4.9q-3.247,2.2-6.263,4.71c-1.764,1.46-3.454,2.98-5.092,4.55a14.555,14.555,0,0,0-4.774,4.57c-0.093.47-.188,0.97-0.329,1.52-0.272.35-.613,0.76-0.955,1.19,0.115-1.03-.895.26-1.317,0.52-0.616.93-1.194,1.88-1.686,2.78,0.363-.78.716-1.76,1.082-2.73,1.217-2.12,1.432-2.76.866-3.26-0.628.97-1.27,1.93-1.8,2.81-0.662.88-1.246,1.69-1.879,2.59,1.139-1.81,2.361-3.57,3.683-5.4,0.75-1.19.771-1.97,0.437-2.12-1,1.22-2.027,2.6-2.948,3.88-0.788.52-.671-0.26-0.843-0.33a86.239,86.239,0,0,0-6.409,12.49c-0.343.88-.665,1.78-0.954,2.68,0.312,0.62.682,1.17,1.04,1.81,0.077-.21.112-0.31,0.2-0.52,0.076,0.07.15,0.16,0.222,0.24a13.709,13.709,0,0,1-1.012,1.8,2.921,2.921,0,0,0-.54.77c-0.334.42-.671,0.83-1.06,1.42a15.837,15.837,0,0,1-.238-1.71l-0.323-.33c-0.3.71-.568,1.3-0.818,1.92-1.089,3.05.324,2.17-.175,4.57-0.329,1.05-.6,2-0.887,3.07a20.668,20.668,0,0,1-.865,3.5c0.657,1.9-.954,2.78-1.3,5.54-0.239-.17-0.523-0.36-0.8-0.55,0.317-1.73.663-3.45,1.088-5.16a0.522,0.522,0,0,0-.129-0.1c-0.405.31-.78,0.65-1.193,0.96-0.325,1.4-.571,2.73-0.8,4.18-0.308,1.48-.592,3.1-0.821,4.62-0.144,1.21-.268,2.54-0.327,3.78-0.175,1.52-.239,2.62-0.318,3.59-0.208,1.03-.437,2.02-0.609,2.93,0.573,2.88.5,6.35,1.239,11.49,0.038,1.16.165,2.47,0.239,3.64-0.587-.22-1.144-0.41-1.733-0.62-0.146-1.12-.239-2.24-0.344-3.21-0.11-1.98-.157-3.83-0.176-5.81-0.187-.09-0.406-0.19-0.6-0.28-0.074-.6-0.124-1.17-0.184-1.64,0.308-1.29.6-2.6,0.955-3.88-0.145-.41-0.279-0.81-0.382-1.21-0.1-2.91-.174-3.93-0.943-3.91,0-.95,0-1.87.027-2.83a48.365,48.365,0,0,0,.935-8.3,17.3,17.3,0,0,0-1.367,8.02c-0.363,2.66-.645,5.33-0.814,8.02,0.05,0.35.1,0.73,0.124,1.09,0.184,0.09.4,0.21,0.582,0.31-0.033.78-.019,1.47-0.028,2.23-0.781,1.88-.074,5.12.353,8.12,0.174,1.9.391,3.92,0.687,5.8,0.222,1.14.494,2.28,0.7,3.31,0.339,1.45.666,2.9,1.07,4.35,0.076,0.64.238,1.4,0.339,2.05,0.145,0.54.238,0.97,0.4,1.54l0.15,1.55c-0.239-.05-0.446-0.1-0.688-0.14a0.165,0.165,0,0,0-.136-0.03,4.225,4.225,0,0,0,.929,3.57c0.367,1.09.687,2.09,1.091,3.16,0.41,0.6.847,1.17,1.231,1.65,0.1,0.4.186,0.73,0.239,1.04,0,0.81-.3.76-0.239,1.38,0.786,1.74,1.614,3.55,2.454,5.14,0.68,1.38,1.475,2.93,1.024,3.02a29.542,29.542,0,0,0,3.385,5.47c0.7,0.81,1.454,1.62,2.184,2.43a5.333,5.333,0,0,0,2.265,2.83,4.769,4.769,0,0,0,.189-1c0.537,0.48,1.136.93,1.685,1.4,1.091,1.53,2.239,3.03,3.416,4.52a3.5,3.5,0,0,0,.384,1.36c1.49,1.64,3.043,4.07,4.855,4.66a28.324,28.324,0,0,0,4.717,3.93c0.432,0.43.792,0.74,1.234,1.14a8.693,8.693,0,0,0,2.428,2.9,6.437,6.437,0,0,0,2.9,1.67c0.716,0.31,1.289.54,2.008,0.83a93.826,93.826,0,0,0,8.158,5.16c0.239,0.24.525,0.43,0.879,0.74a9.553,9.553,0,0,0,3.067,2.26c1.222,0.31,3.456,2.07,5.156,1.81,0.916,0.42,1.881.81,2.8,1.21,1.559,0.74,3.091,1.47,4.815,2.21a37.517,37.517,0,0,0,12.111,3.31,4.635,4.635,0,0,0,2.679.26,20.9,20.9,0,0,0,7.125.76c1.112,0.19,2.363.36,3.618,0.52,1.432,0.79.091,1.05,1.144,1.81,1.515,0.05,3.036.03,4.554,0,2.148,0,3.456-.14,5.2-0.02,0.866-.12,1.862-0.26,2.711-0.41a28.418,28.418,0,0,0,5.605-.35C975.371,1176.94,975.913,1176.2,980.918,1175.2Z" transform="translate(-723.156 -980)"/>
  </g>
  <path id="一.もっと身近に" class="cls-1" d="M725.86,1225.01H724.6c-0.42.06-.96,0.12-1.44,0.18a5.975,5.975,0,0,1,.6.66,1.553,1.553,0,0,0,.66.42,13.384,13.384,0,0,0,8.459,1.32c1.92-.42,3.78-0.84,5.64-1.32s3.72-.96,5.58-1.5c2.52-.72,5.1-1.5,7.68-2.28,2.52-.84,5.1-1.62,7.679-2.34a21.207,21.207,0,0,1,5.46-.9,40.815,40.815,0,0,1,5.4.36c0.48,0.06.96,0.18,1.44,0.24s0.96,0.18,1.44.24a1.014,1.014,0,0,0,.6-0.18,1.306,1.306,0,0,0,.3-0.48,1.292,1.292,0,0,0-.12-0.66c-0.3-.36-0.6-0.78-0.96-1.2a10.819,10.819,0,0,0-1.2-1.08,5.71,5.71,0,0,0-2.16-.9,15.608,15.608,0,0,0-2.34-.3,43.01,43.01,0,0,0-10.32.78c-2.52.54-5.039,1.14-7.619,1.86-2.52.72-5.04,1.62-7.5,2.58-1.32.54-2.64,1.08-3.96,1.56-1.38.48-2.76,0.9-4.14,1.38-0.84.3-1.68,0.6-2.58,0.84a18.871,18.871,0,0,1-2.64.66A13.532,13.532,0,0,1,725.86,1225.01Zm65.34,9.78c-1.26.24-2.58,0.48-3.84,0.66a1,1,0,0,0-.9,1.38c0.6,1.74,1.2,3.48,1.68,5.22a3.828,3.828,0,0,0,1.5,1.98l1.62,1.26a9.516,9.516,0,0,0,1.62,1.08,7.319,7.319,0,0,0,1.02.42,1.33,1.33,0,0,0,.959.06,1.3,1.3,0,0,0,.84-0.54,2.517,2.517,0,0,0,.54-0.84,13.844,13.844,0,0,0,.6-1.68c0.24-1.44.54-2.94,0.84-4.5a0.853,0.853,0,0,0-.12-0.36,0.634,0.634,0,0,1-.12-0.3,5.8,5.8,0,0,0-1.56-2.04,9.915,9.915,0,0,0-2.159-1.32A7.5,7.5,0,0,0,791.2,1234.79Zm57.9-26.46-0.18-.96a15.644,15.644,0,0,0-.3-2.88,6.961,6.961,0,0,0-1.08-2.58,4.041,4.041,0,0,0-1.32-1.14,2.729,2.729,0,0,0-1.68-.3,0.51,0.51,0,0,0-.42.42,0.467,0.467,0,0,0,.18.42,3.853,3.853,0,0,1,1.56,3.48c-0.18,2.22-.42,4.38-0.66,6.54a2.265,2.265,0,0,1-1.2,1.38,18.418,18.418,0,0,0-1.56,1.5,14.354,14.354,0,0,1-.78,1.26,6.424,6.424,0,0,0-.78,1.26,1.862,1.862,0,0,0-.12,1.5,4.049,4.049,0,0,0,.78,1.32,8.36,8.36,0,0,1,.9,1.14,0.9,0.9,0,0,1,.3.9c-0.18,1.14-.36,2.22-0.54,3.3a30.3,30.3,0,0,0-.36,3.36,5.85,5.85,0,0,1-2.52,4.92,1.313,1.313,0,0,0-.54.6c0.3-.06.6-0.12,0.84-0.18a3.046,3.046,0,0,0,1.08-.54c0.6-.54,1.02-0.36,1.14.48a34.452,34.452,0,0,0,1.56,4.8,7.851,7.851,0,0,0,3.66,3.84,9.4,9.4,0,0,0,5.28,1.02,6.777,6.777,0,0,0,4.8-2.82,32.955,32.955,0,0,1,2.64-3.12,22.573,22.573,0,0,0,1.5-1.86,6.116,6.116,0,0,0,.96-2.1l0.9-4.14a13.223,13.223,0,0,0,.24-2.16v-3.42a5.842,5.842,0,0,0-.36-2.04,10.731,10.731,0,0,0-1.86-3.06,7.1,7.1,0,0,0-2.94-1.98l-6.659-2.34c-0.78-.12-1.62-0.3-2.46-0.36-0.6-.12-0.78-0.42-0.54-0.96Q848.739,1210.58,849.1,1208.33Zm-3.18,23.88a2.855,2.855,0,0,1,.3-1.98,4.908,4.908,0,0,1,1.2-1.5,52.217,52.217,0,0,0,4.14-4.02,2.45,2.45,0,0,0,.36-2.4,3.748,3.748,0,0,0-3.12-2.22,6.681,6.681,0,0,1-1.02-.12,0.636,0.636,0,0,1-.54-0.78c0.06-.36.12-0.72,0.18-1.02a28.22,28.22,0,0,1,.72-3.06,0.577,0.577,0,0,1,.54-0.48,18.038,18.038,0,0,1,2.52.3c0.96,0.18,2.04.42,3.06,0.66l2.519,1.08a3.474,3.474,0,0,1,1.5.9c0.42,0.48.78,0.96,1.14,1.44a9.108,9.108,0,0,1,1.56,7.98c-0.42,1.2-.84,2.46-1.26,3.66a12.829,12.829,0,0,1-2.94,4.8,19.3,19.3,0,0,1-4.559,3.42,3.249,3.249,0,0,1-2.22.66,3.056,3.056,0,0,1-2.1-.9,4.325,4.325,0,0,1-1.26-1.98A42.729,42.729,0,0,1,845.919,1232.21Zm0.18-7.26c0.12-.72.18-1.5,0.24-2.22a0.5,0.5,0,0,1,.72-0.54,1.693,1.693,0,0,1,.9.24,0.5,0.5,0,0,1,.36.72,3.027,3.027,0,0,1-.42.78l-1.44,2.16-0.24.24a0.289,0.289,0,0,1-.12-0.36A2.913,2.913,0,0,1,846.1,1224.95Zm76.679-4.02c-1.08.12-2.16,0.3-3.179,0.48a27.6,27.6,0,0,0-5.46,1.74,51.913,51.913,0,0,0-5.22,2.46c-1.5.72-3,1.44-4.44,2.04a24.385,24.385,0,0,1-4.74,1.56,6.545,6.545,0,0,1-.66.36c-0.36.36-.3,0.6,0.12,0.78,0.3,0.06.6,0.18,0.9,0.24a2.984,2.984,0,0,0,.96.18c0.84-.12,1.62-0.24,2.46-0.42a7.042,7.042,0,0,0,2.4-.78,57.565,57.565,0,0,1,6.24-2.7c2.1-.78,4.2-1.56,6.36-2.34a9.565,9.565,0,0,1,3.48-.84,10.008,10.008,0,0,1,3.539.3,9.2,9.2,0,0,1,1.62.66,3,3,0,0,1,1.32,1.14,2.614,2.614,0,0,1,.42,1.68,5.205,5.205,0,0,1-.3,1.68,3.546,3.546,0,0,1-.42,1.2,19.04,19.04,0,0,1-1.92,2.94,23.276,23.276,0,0,1-2.34,2.52,49.658,49.658,0,0,1-7.919,6.24,2.61,2.61,0,0,0-.42.36c0.18-.06.36-0.06,0.54-0.12,0.84-.42,1.62-0.84,2.4-1.26,1.14-.6,2.22-1.14,3.359-1.8,0.42-.24.84-0.42,1.2-0.6a3.4,3.4,0,0,0,1.08-.72,16.905,16.905,0,0,1,2.76-2.28c0.96-.6,1.98-1.26,2.94-1.86a8.369,8.369,0,0,0,1.62-1.26,4.978,4.978,0,0,0,1.14-1.62,5.054,5.054,0,0,0,.42-2.1,5.62,5.62,0,0,0-.42-2.22,7.591,7.591,0,0,0-1.2-1.86,8.483,8.483,0,0,0-2.4-2.22,7.7,7.7,0,0,0-3-1.2A14.11,14.11,0,0,0,922.778,1220.93Zm65.34,20.88,3.72-.24q1.26,0,.54-1.08a3.852,3.852,0,0,0-2.04-1.86,5.343,5.343,0,0,0-2.759-.36,41.524,41.524,0,0,1-7.26-.3,39.466,39.466,0,0,1-4.44-1.02c-0.42-.06-0.54-0.3-0.18-0.72,0.66-1.14,1.38-2.28,2.1-3.42a9.067,9.067,0,0,1,2.88-2.76c0.18-.12.42-0.3,0.66-0.48a0.635,0.635,0,0,1,.78-0.06,3.825,3.825,0,0,1,.84.48,2.859,2.859,0,0,0,2.7.42,0.748,0.748,0,0,0,.18-0.72c-0.42-.72-0.9-1.5-1.32-2.22l-0.18-.54a22.7,22.7,0,0,1,1.98-1.32c1.2-.66,2.339-1.26,3.419-1.86,0.9-.72,1.8-1.38,2.76-2.04a13.021,13.021,0,0,1,3-1.56,19.989,19.989,0,0,0,3-1.5,1.7,1.7,0,0,0,.54-0.6,1.413,1.413,0,0,0,.3-0.6,2.217,2.217,0,0,0-1.08-1.26,5.433,5.433,0,0,0-1.56-.78,3.217,3.217,0,0,0-1.68-.06,52.25,52.25,0,0,0-9.719,4.8c-1.08.72-2.16,1.44-3.24,2.04-0.42.24-.66,0.18-0.84-0.24-0.42-1.56-.9-3.18-1.38-4.68a22.971,22.971,0,0,1-.78-8.34l0.18-5.22a3.453,3.453,0,0,0-1.2-3,0.852,0.852,0,0,0-1.44.42,10.426,10.426,0,0,0-.6,1.14,32.208,32.208,0,0,0-1.08,16.5,17.258,17.258,0,0,0,1.44,4.62,22.069,22.069,0,0,0,3.42,3.72l0.6,0.6a0.484,0.484,0,0,1-.06.72,2.107,2.107,0,0,1-.6.48,3.442,3.442,0,0,1-.42.24c-2.04,1.56-4.08,3.12-6.06,4.8a1.844,1.844,0,0,0-.42,2.94,7.9,7.9,0,0,0,3.42,3,24.888,24.888,0,0,0,5.82,1.38C984.1,1241.51,986.079,1241.69,988.118,1241.81Zm5.58-24.06-0.42.42a30.658,30.658,0,0,1-2.88,2.7c-2.1,1.68-4.2,3.36-6.359,4.98a1.491,1.491,0,0,1-.48-0.06,3.1,3.1,0,0,1-.36-0.78,0.621,0.621,0,0,1,.3-0.96,1.339,1.339,0,0,0,1.08-1.26,1.655,1.655,0,0,1,.72-0.84,36.114,36.114,0,0,1,4.259-3,26.1,26.1,0,0,1,3.66-1.2h0.48Zm60,21.36a1.209,1.209,0,0,1-1.02,1.8l-0.9.42a8.532,8.532,0,0,1-2.64.66,7.186,7.186,0,0,1-3.9-.66,27.906,27.906,0,0,1-3.54-1.8,6.984,6.984,0,0,1-.9-0.36,1.467,1.467,0,0,0,.54.66c3.24,2.16,6.54,4.26,9.84,6.36a12.579,12.579,0,0,0,2.52,1.32,1.694,1.694,0,0,0,1.08.12,4.159,4.159,0,0,0,2.22-1.14,6.226,6.226,0,0,0,1.32-2.58,8.67,8.67,0,0,0-.18-2.46c-0.3-4.86-.54-9.78-0.9-14.7a1.573,1.573,0,0,1,.12-0.9,31.224,31.224,0,0,1,2.22-2.58c2.34-2.46,4.68-4.92,6.96-7.44a11.608,11.608,0,0,1,4.38-3.6,0.932,0.932,0,0,0,.54-1.44,20.541,20.541,0,0,0-2.82-3.18,1.2,1.2,0,0,0-1.02-.06,7.462,7.462,0,0,1-.96.24,0.186,0.186,0,0,1-.12.06c-1.26.12-1.56,0.66-.84,1.68a1.54,1.54,0,0,0,.12.3,1.983,1.983,0,0,1,0,.84,59.949,59.949,0,0,1-7.98,9.06,0.923,0.923,0,0,1-.36.24,0.506,0.506,0,0,1-.12-0.42c0.24-1.5.36-2.94,0.48-4.38,0.12-2.4.3-4.86,0.48-7.26a5.992,5.992,0,0,0-1.32-3.54,5.72,5.72,0,0,0-3.24-1.98,1.227,1.227,0,0,0-.66,0c-2.16.3-4.32,0.66-6.42,1.08h-0.54a1.306,1.306,0,0,1,.48-0.3l5.94-2.88a10.436,10.436,0,0,0,1.08-.66,1.043,1.043,0,0,0,.72-1.62,3.262,3.262,0,0,0-1.38-2.16c-0.72-.54-1.44-1.08-2.16-1.56a2.6,2.6,0,0,0-.3-0.06,29.049,29.049,0,0,0-2.94,1.08c-0.6.36-.66,0.72-0.06,1.14,0.42,0.24.42,0.54,0.06,0.84-0.96,1.02-1.92,2.04-2.94,3a47.8,47.8,0,0,1-3.66,3.3,17.355,17.355,0,0,1-4.2,2.52,9.315,9.315,0,0,1-1.26.24,5.7,5.7,0,0,0-1.26.54c0.12,0.3.24,0.66,0.36,1.02a1.355,1.355,0,0,0,.78.84,1.983,1.983,0,0,1,1.5,1.92,8.532,8.532,0,0,1,.3,2.16,45.177,45.177,0,0,1-.06,5.7,17.5,17.5,0,0,1-1.2,5.46,3.853,3.853,0,0,0,.18,2.34,4.432,4.432,0,0,0,1.32,1.86,0.951,0.951,0,0,1-.24,1.68c-2.52,1.14-5.04,2.22-7.56,3.36-1.02.48-1.2,1.14-.36,1.98a6.569,6.569,0,0,1,.6.66,1.743,1.743,0,0,0,2.52.18,23.812,23.812,0,0,1,2.34-1.38c3-1.62,6-3.24,8.88-4.98,0.96-.48,1.92-1.02,2.82-1.56,1.56-.96,3.12-1.86,4.74-2.7a2.913,2.913,0,0,1,1.02,0c-0.18.24-.42,0.48-0.6,0.72-0.06,0-.06.06-0.06,0.12-2.16,1.92-4.26,3.78-6.36,5.58-2.1,1.86-4.26,3.6-6.54,5.28-2.22,1.62-4.5,3.3-6.78,4.86-2.22,1.44-4.5,2.76-6.84,4.14a0.468,0.468,0,0,0-.24.18h0.3a44.834,44.834,0,0,0,9.66-4.2c2.16-1.26,4.38-2.46,6.6-3.48a0.458,0.458,0,0,1,.3-0.12,5.348,5.348,0,0,0,2.28-1.08,17.918,17.918,0,0,0,1.92-1.74,41.649,41.649,0,0,1,6.9-5.64c0.48-.24.66-0.12,0.6,0.42Zm-1.44-16.98c-0.66.24-1.38,0.48-2.1,0.78-2.82,1.08-5.58,2.22-8.4,3.36a1.375,1.375,0,0,1-1.08-.12,1.282,1.282,0,0,1-.48-1.02c0.18-1.92.36-3.84,0.42-5.76a1.13,1.13,0,0,1,.12-0.48l0.36,0.36a4.768,4.768,0,0,0,3.06,2.4,0.546,0.546,0,0,1,.24.48,9.591,9.591,0,0,0-.3,1.26v0.48a1.752,1.752,0,0,1,.54-0.12,1.019,1.019,0,0,0,.36-0.36,2.557,2.557,0,0,1,.84-1.2c0.42-.24.84-0.54,1.26-0.78a0.853,0.853,0,0,1,.36-0.12,18.63,18.63,0,0,1,2.52-.48,1.425,1.425,0,0,0,1.44-1.2,4.948,4.948,0,0,0-.6-1.56,13.786,13.786,0,0,0-1.38-.9l-0.54-.12a2.046,2.046,0,0,0-1.8-.54,8.989,8.989,0,0,0-1.92.48,7.6,7.6,0,0,0-1.08.36c-0.96.42-1.32,0.12-1.02-.84a3.45,3.45,0,0,1,1.38-1.68c1.62-.96,3.18-1.8,4.8-2.58a2.439,2.439,0,0,0,1.14-1.44,1.369,1.369,0,0,0-.36-0.72,6.376,6.376,0,0,0-.66-0.54,3.949,3.949,0,0,0-1.68-.78,2.44,2.44,0,0,0-1.14,0c-1.02.42-2.04,0.78-3.06,1.14a8.772,8.772,0,0,1-1.2.3,0.826,0.826,0,0,0-.54.78,0.641,0.641,0,0,0,.42.54c0.84,0.36,1.68.66,2.46,0.96,0.42,0.12.48,0.36,0.18,0.66-0.72.9-1.44,1.86-2.16,2.82-0.54.66-1.08,1.32-1.56,1.98a1.053,1.053,0,0,0-.3.24,0.541,0.541,0,0,0-.06-0.3c-0.18-2.04-.36-4.08-0.54-6.18a5.46,5.46,0,0,0-1.86-3.78c-0.36-.3-0.3-0.54.12-0.66,1.98-.96,3.96-1.86,5.94-2.76a5.553,5.553,0,0,1,1.38-.24c2.52,0.24,4.98.54,7.5,0.84a0.773,0.773,0,0,1,.78.84c-0.3,5.16-.6,10.38-0.9,15.6C1053.22,1222.19,1052.92,1222.37,1052.26,1222.13Zm81.3-10.44v0.3a4.433,4.433,0,0,0,1.26,0,1.546,1.546,0,0,0,.78-0.48,0.786,0.786,0,0,0-.24-0.78,4.312,4.312,0,0,0-1.62-1.5c-0.6-.36-1.26-0.66-1.92-1.02a1.141,1.141,0,0,0-.78-0.06,5.093,5.093,0,0,0-1.32.54c-2.22.42-4.44,0.9-6.6,1.5-2.82.9-5.64,1.86-8.34,2.88a0.45,0.45,0,0,1-.54,0,2.741,2.741,0,0,1,.42-2.34,1.329,1.329,0,0,0,.3-1.8,8.36,8.36,0,0,0-1.14-.9,0.807,0.807,0,0,0-.36-0.42,2.037,2.037,0,0,1,.36-0.36c0.84-.42,1.74-0.9,2.58-1.32a25.343,25.343,0,0,1,3.96-2.16,23.94,23.94,0,0,0,6.54-3,7.522,7.522,0,0,1,1.5-.54,1,1,0,0,0,1.02-1.62,5.357,5.357,0,0,0-1.8-1.86c-0.78-.48-1.5-0.96-2.22-1.44a0.178,0.178,0,0,0-.24,0c-0.96.24-1.92,0.42-2.82,0.66-0.42.06-.54,0.3-0.3,0.72a0.587,0.587,0,0,1-.24,1.02c-2.1,1.68-4.2,3.36-6.3,4.98a25.59,25.59,0,0,1-2.94,2.04,9.489,9.489,0,0,1-3.36,1.26,3.214,3.214,0,0,0-1.44.96,0.887,0.887,0,0,0,0,.78,1.054,1.054,0,0,0,.54.6,7.254,7.254,0,0,1,1.08.3,0.925,0.925,0,0,1,.6.84,7.281,7.281,0,0,1,.06,1.08c-0.18,3.24-.42,6.48-0.72,9.66a22.526,22.526,0,0,1-1.86,7.68c-0.9,1.8-1.74,3.54-2.58,5.34a0.892,0.892,0,0,0-.12.54,1.13,1.13,0,0,1,.48-0.12c0.48-.36.96-0.72,1.38-1.08a12.454,12.454,0,0,0,3.42-3.9c0.54-1.56,1.08-3.06,1.68-4.62a17.71,17.71,0,0,0,1.62-5.04,7.059,7.059,0,0,1,.42-1.2,0.634,0.634,0,0,1,.42-0.36,11.865,11.865,0,0,0,3.18-.84c1.02-.48,2.04-0.9,3-1.26,0.42-.18.6-0.06,0.6,0.36,0.06,1.68.06,3.36,0.06,5.16l0.12,10.92c0.06,2.4.24,4.8,0.42,7.14,0.06,0.3,0,.42-0.12.48a1.341,1.341,0,0,1-.6-0.18c-3.24-.72-6.6-1.32-9.96-1.74a35.881,35.881,0,0,0-10.14,0h-0.48a0.8,0.8,0,0,0,.18-0.42,34.056,34.056,0,0,0,2.46-3.54,3.827,3.827,0,0,0,.18-3.42,6.178,6.178,0,0,0-2.04-2.76c-1.68-1.26-3.3-2.58-4.92-3.84a4.242,4.242,0,0,1-1.74-3.06,21.7,21.7,0,0,1,.06-3.42,12.23,12.23,0,0,1,2.4-6,1.4,1.4,0,0,1,1.02-.6,2.179,2.179,0,0,0,1.92-2.04c0-.18.06-0.36,0.06-0.48a10.175,10.175,0,0,1-.24-1.32,3.594,3.594,0,0,0-.48-1.2,10.854,10.854,0,0,0-5.94-3.78,6.408,6.408,0,0,0-1.5.18,4.791,4.791,0,0,0,.3,1.56c0.42,0.72.9,1.44,1.38,2.16a6.917,6.917,0,0,1,1.38,5.76c-0.6,2.4-1.2,4.8-1.86,7.2a6.826,6.826,0,0,0,1.26,6.18c0.72,0.84,1.5,1.62,2.28,2.4a7.676,7.676,0,0,1,1.68,8.4,6.788,6.788,0,0,1-2.46,3.3,12.491,12.491,0,0,1-3.78,1.92,1.267,1.267,0,0,0-.6.24,5,5,0,0,0,.48.72,24.629,24.629,0,0,0,2.4,1.74,4,4,0,0,0,.72.36,1.192,1.192,0,0,0,1.74-.96,1.278,1.278,0,0,1,1.14-1.14c1.68-.24,3.36-0.48,5.04-0.66,1.62-.18,3.18-0.3,4.86-0.42a26.354,26.354,0,0,1,4.86.18c1.38,0.24,2.76.6,4.2,0.96l8.28,1.98c2.46,0.6,4.98,1.26,7.44,1.98a8.3,8.3,0,0,0,4.02-.12c0.66-.18,1.32-0.42,2.04-0.6a3.245,3.245,0,0,0,2.1-.96c0.54-.42.48-0.78-0.24-0.9-2.28-.6-4.62-1.14-7.08-1.62-3.36-.66-6.84-1.32-10.32-1.86-0.12-.06-0.3-0.12-0.42-0.18,0.06-.12.18-0.3,0.24-0.42a3.4,3.4,0,0,0,.78-1.62,49.569,49.569,0,0,0,1.02-6.66c0.12-3.12.24-6.3,0.36-9.42,0-1.92-.06-3.78-0.06-5.64,0-.3.06-0.66,0.06-1.08a1.01,1.01,0,0,1,.42-0.9,1.545,1.545,0,0,1,.96-0.42l1.98-.6Zm29.82,17.1c0.18,2.58.42,5.16,0.78,7.74,0.36,2.22.78,4.5,1.2,6.72l0.24,0.36a1.361,1.361,0,0,1,.06-0.24,0.285,0.285,0,0,1,.12-0.3,0.41,0.41,0,0,0,.18.3,0.251,0.251,0,0,0,.18.24v-0.3a1.661,1.661,0,0,0,.06-0.54,38.258,38.258,0,0,0,.42-5.22,54.335,54.335,0,0,1,.72-12.48c0.18-1.14.3-2.28,0.42-3.42l0.48-8.76c0.3-1.98.6-3.9,0.84-5.82a3.2,3.2,0,0,0-.36-1.44,0.879,0.879,0,0,0-.66-0.12,2.456,2.456,0,0,0-.9.84c-0.48,1.14-.96,2.22-1.44,3.36a20.93,20.93,0,0,0-1.2,3.42,49.44,49.44,0,0,0-1.02,7.86C1163.38,1223.57,1163.32,1226.21,1163.38,1228.79Zm20.88-21.42v-0.06a6.89,6.89,0,0,1,1.14.06c1.5,0.24,3.06.42,4.56,0.6,0.6,0,.78.3,0.48,0.78-1.32,2.58-2.64,5.04-4.08,7.5-1.56,2.46-3.12,4.86-4.68,7.26-0.12.12-.24,0.3-0.36,0.42v0.24c0.12,0,.18,0,0.18-0.12a14.779,14.779,0,0,0,1.62-1.02,5.58,5.58,0,0,0,1.26-1.38c1.08-1.8,2.16-3.6,3.36-5.4,1.2-1.74,2.46-3.48,3.66-5.28a1.258,1.258,0,0,1,.66-0.48,2.883,2.883,0,0,0,1.86-.6l1.68-1.14a2.256,2.256,0,0,0,.84-0.84,1.6,1.6,0,0,0,.06-1.38,6.207,6.207,0,0,0-.66-1.26,4.361,4.361,0,0,0-1.56-1.2,9.059,9.059,0,0,0-1.8-.6,2.667,2.667,0,0,0-2.34,0c-2.1.9-4.14,1.8-6.18,2.76a2.406,2.406,0,0,0-.9.84A7.018,7.018,0,0,1,1184.26,1207.37Zm11.4,31.62a0.289,0.289,0,0,1,.12-0.24h0.54a1.165,1.165,0,0,0,1.44-.72,1.631,1.631,0,0,0-.3-1.68,8.688,8.688,0,0,0-4.98-3.18c-3.3-.78-6.54-1.68-9.84-2.64a4.572,4.572,0,0,1-1.62-1.2c-0.48-.48-0.96-1.02-1.5-1.5a0.458,0.458,0,0,1-.12-0.3,0.45,0.45,0,0,0-.06-0.3,1.312,1.312,0,0,0-.18.3,1.462,1.462,0,0,0,0,.72c0.24,0.78.48,1.56,0.78,2.34a5.853,5.853,0,0,0,1.38,2.04,19.635,19.635,0,0,0,3.72,2.58,35.308,35.308,0,0,0,5.88,2.34C1192.48,1238.03,1194.04,1238.57,1195.66,1238.99Z" transform="translate(-723.156 -980)"/>
</svg>
