<svg xmlns="http://www.w3.org/2000/svg" width="856" height="51" viewBox="0 0 856 51">
  <defs>
    <style>
      .cls-1 {
        fill: #bf8c4e;
        fill-rule: evenodd;
      }
    </style>
  </defs>
  <path id="frame02-sp.svg" class="cls-1" d="M3.456,1012.88c19.672,11.08,62.028,27.95,104.405-.13,0.94-.62,2.139.27,1.338,1-11.163,10.16-35.946,27.34-69.909,19.66,0,0-23.268-4.58-38.775-18.13C-1.053,1013.91,1.533,1011.8,3.456,1012.88Zm15.224-4c15.416,7.29,48.534,18.03,81.178-3.39,0.724-.47,1.666.13,1.052,0.68-8.57,7.61-27.653,20.68-54.144,16.26,0,0-18.142-2.54-30.347-11.75C15.184,1009.75,17.173,1008.16,18.68,1008.88Zm9.736-5.26c11.539,4.68,36.4,11.39,61.387-3.49,0.555-.331,1.257.06,0.784,0.43-6.589,5.25-21.2,14.32-41.153,11.75,0,0-13.669-1.44-22.754-7.44C25.761,1004.26,27.288,1003.17,28.415,1003.62Zm56.039,22.36c19.672,11.07,62.028,27.95,104.405-.14,0.941-.62,2.139.28,1.338,1-11.163,10.16-35.945,27.34-69.909,19.67,0,0-23.267-4.58-38.774-18.14C79.946,1027,82.533,1024.9,84.455,1025.98Zm15.224-4.01c15.416,7.3,48.534,18.03,81.178-3.38,0.725-.48,1.666.13,1.052,0.67-8.57,7.62-27.653,20.68-54.144,16.26,0,0-18.142-2.54-30.346-11.74C96.184,1022.85,98.172,1021.26,99.679,1021.97Zm9.736-5.25c11.539,4.67,36.4,11.39,61.386-3.5,0.555-.33,1.257.06,0.785,0.44-6.589,5.25-21.2,14.31-41.153,11.74,0,0-13.669-1.43-22.753-7.43C106.761,1017.36,108.287,1016.26,109.415,1016.72Zm61.927-3.84c19.672,11.08,62.028,27.95,104.405-.13,0.941-.62,2.139.27,1.338,1-11.163,10.16-35.946,27.34-69.909,19.66,0,0-23.267-4.58-38.774-18.13C166.832,1013.91,169.419,1011.8,171.342,1012.88Zm15.224-4c15.416,7.29,48.534,18.03,81.178-3.39,0.725-.47,1.666.13,1.052,0.68-8.57,7.61-27.653,20.68-54.144,16.26,0,0-18.142-2.54-30.347-11.75C183.071,1009.75,185.059,1008.16,186.566,1008.88Zm9.736-5.26c11.539,4.68,36.4,11.39,61.386-3.49,0.555-.331,1.257.06,0.785,0.43-6.589,5.25-21.2,14.32-41.153,11.75,0,0-13.669-1.44-22.753-7.44C193.648,1004.26,195.174,1003.17,196.3,1003.62Zm50.812,22.82c19.672,11.07,62.028,27.94,104.405-.14,0.94-.62,2.139.27,1.338,1-11.164,10.16-35.946,27.34-69.909,19.67,0,0-23.268-4.58-38.775-18.14C242.6,1027.46,245.191,1025.35,247.114,1026.44Zm15.223-4.01c15.417,7.3,48.534,18.03,81.179-3.38,0.724-.48,1.666.12,1.051,0.67-8.57,7.61-27.652,20.68-54.143,16.26,0,0-18.142-2.54-30.347-11.75C258.842,1023.3,260.831,1021.72,262.337,1022.43Zm9.736-5.25c11.539,4.67,36.4,11.39,61.387-3.5,0.555-.33,1.257.06,0.785,0.44-6.589,5.24-21.2,14.31-41.153,11.74,0,0-13.67-1.44-22.754-7.44C269.419,1017.81,270.945,1016.72,272.073,1017.18Zm61.928-4.3c19.672,11.08,62.028,27.95,104.405-.13,0.94-.62,2.139.27,1.338,1-11.164,10.16-35.946,27.34-69.909,19.66,0,0-23.268-4.58-38.775-18.13C329.491,1013.91,332.078,1011.8,334,1012.88Zm15.223-4c15.417,7.29,48.534,18.03,81.179-3.39,0.724-.47,1.666.13,1.051,0.68-8.569,7.61-27.652,20.68-54.143,16.26,0,0-18.142-2.54-30.347-11.75C345.729,1009.75,347.718,1008.16,349.224,1008.88Zm9.736-5.26c11.539,4.68,36.4,11.39,61.387-3.49,0.555-.331,1.257.06,0.785,0.43-6.589,5.25-21.2,14.32-41.153,11.75,0,0-13.669-1.44-22.754-7.44C356.306,1004.26,357.832,1003.17,358.96,1003.62Zm55.957,21.61c19.672,11.07,62.028,27.95,104.405-.14,0.94-.62,2.139.27,1.338,1-11.163,10.16-35.946,27.34-69.909,19.67,0,0-23.267-4.58-38.774-18.14C410.407,1026.25,412.994,1024.15,414.917,1025.23Zm15.224-4.01c15.416,7.3,48.533,18.03,81.178-3.38,0.725-.48,1.666.13,1.052,0.67-8.57,7.62-27.653,20.68-54.144,16.26,0,0-18.142-2.54-30.346-11.74C426.645,1022.1,428.634,1020.51,430.141,1021.22Zm9.735-5.25c11.539,4.67,36.4,11.39,61.387-3.5,0.555-.33,1.257.06,0.785,0.44-6.589,5.25-21.2,14.31-41.153,11.74,0,0-13.669-1.43-22.753-7.44C437.223,1016.61,438.749,1015.51,439.876,1015.97Zm61.928-3.09c19.672,11.08,62.028,27.95,104.4-.13,0.94-.62,2.139.27,1.338,1-11.163,10.16-35.946,27.34-69.909,19.66,0,0-23.268-4.58-38.775-18.13C497.294,1013.91,499.881,1011.8,501.8,1012.88Zm15.224-4c15.416,7.29,48.533,18.03,81.178-3.39,0.725-.47,1.666.13,1.052,0.68-8.57,7.61-27.653,20.68-54.144,16.26,0,0-18.142-2.54-30.347-11.75C513.532,1009.75,515.521,1008.16,517.028,1008.88Zm9.735-5.26c11.539,4.68,36.4,11.39,61.387-3.49,0.555-.331,1.257.06,0.785,0.43-6.589,5.25-21.2,14.32-41.153,11.75,0,0-13.669-1.44-22.753-7.44C524.109,1004.26,525.636,1003.17,526.763,1003.62Zm50.812,22.07c19.672,11.07,62.029,27.94,104.406-.14,0.94-.62,2.138.27,1.338,1-11.164,10.16-35.946,27.34-69.909,19.67,0,0-23.268-4.58-38.775-18.14C573.066,1026.71,575.653,1024.6,577.575,1025.69Zm15.224-4.01c15.417,7.3,48.534,18.03,81.179-3.38,0.724-.48,1.666.12,1.051,0.67-8.57,7.61-27.652,20.68-54.143,16.26,0,0-18.142-2.54-30.347-11.75C589.3,1022.55,591.293,1020.97,592.8,1021.68Zm9.736-5.25c11.539,4.67,36.4,11.38,61.387-3.5,0.555-.33,1.257.06,0.785,0.44-6.589,5.24-21.2,14.31-41.153,11.74,0,0-13.67-1.43-22.754-7.44C599.881,1017.06,601.407,1015.97,602.535,1016.43Zm61.928-3.55c19.672,11.08,62.028,27.95,104.4-.13,0.941-.62,2.14.27,1.339,1-11.164,10.16-35.946,27.34-69.909,19.66,0,0-23.268-4.58-38.775-18.13C659.953,1013.91,662.54,1011.8,664.463,1012.88Zm15.223-4c15.417,7.29,48.534,18.03,81.179-3.39,0.724-.47,1.666.13,1.051,0.68-8.57,7.61-27.652,20.68-54.143,16.26,0,0-18.142-2.54-30.347-11.75C676.191,1009.75,678.18,1008.16,679.686,1008.88Zm9.736-5.26c11.539,4.68,36.4,11.39,61.387-3.49,0.555-.331,1.257.06,0.785,0.43-6.59,5.25-21.2,14.32-41.153,11.75,0,0-13.67-1.44-22.754-7.44C686.768,1004.26,688.294,1003.17,689.422,1003.62Zm47.628,24.47c19.672,11.07,62.029,27.94,104.406-.14,0.94-.62,2.138.27,1.338,1-11.164,10.16-35.946,27.34-69.909,19.67,0,0-23.268-4.58-38.775-18.14C732.541,1029.11,735.128,1027,737.05,1028.09Zm15.224-4.01c15.417,7.3,48.534,18.03,81.179-3.38,0.724-.48,1.666.12,1.051,0.67-8.57,7.61-27.652,20.68-54.143,16.26,0,0-18.142-2.54-30.347-11.75C748.779,1024.95,750.768,1023.37,752.274,1024.08Zm9.736-5.25c11.539,4.67,36.4,11.39,61.387-3.5,0.555-.33,1.257.06,0.785,0.44-6.589,5.24-21.2,14.31-41.153,11.74,0,0-13.67-1.43-22.754-7.44C759.356,1019.47,760.882,1018.37,762.01,1018.83Zm61.927-5.95c19.672,11.08,62.028,27.95,104.406-.13,0.94-.62,2.138.27,1.338,1-11.164,10.16-35.946,27.34-69.909,19.66,0,0-23.268-4.58-38.775-18.13C819.428,1013.91,822.015,1011.8,823.937,1012.88Zm15.224-4c15.417,7.29,48.534,18.03,81.179-3.39,0.724-.47,1.666.13,1.051,0.68-8.57,7.61-27.652,20.68-54.143,16.26,0,0-18.142-2.54-30.347-11.75C835.666,1009.75,837.655,1008.16,839.161,1008.88Zm9.736-5.26c11.539,4.68,36.4,11.39,61.387-3.49,0.555-.331,1.257.06,0.784,0.43-6.589,5.25-21.2,14.32-41.152,11.75,0,0-13.67-1.44-22.754-7.44C846.243,1004.26,847.769,1003.17,848.9,1003.62Zm50.812,24.92c19.672,11.08,62.028,27.95,104.4-.13,0.94-.62,2.14.27,1.34,1-11.161,10.16-35.943,27.34-69.906,19.66,0,0-23.268-4.58-38.775-18.13C895.2,1029.57,897.787,1027.46,899.709,1028.54Zm15.224-4c15.416,7.29,48.534,18.03,81.178-3.38,0.725-.48,1.666.12,1.052,0.67-8.57,7.61-27.653,20.68-54.144,16.26,0,0-18.141-2.54-30.346-11.75C911.438,1025.41,913.426,1023.82,914.933,1024.54Zm9.736-5.26c11.539,4.68,36.4,11.39,61.387-3.49,0.554-.33,1.257.06,0.784,0.44-6.589,5.24-21.2,14.31-41.153,11.74,0,0-13.669-1.44-22.753-7.44C922.015,1019.92,923.541,1018.83,924.669,1019.28Zm61.927-6.4c19.674,11.08,62.024,27.95,104.4-.13,0.94-.62,2.14.27,1.34,1-11.16,10.16-35.95,27.34-69.91,19.66,0,0-23.267-4.58-38.774-18.13C982.087,1013.91,984.674,1011.8,986.6,1012.88Zm15.224-4c15.42,7.29,48.53,18.03,81.18-3.39,0.72-.47,1.66.13,1.05,0.68-8.57,7.61-27.65,20.68-54.14,16.26,0,0-18.15-2.54-30.35-11.75C998.325,1009.75,1000.31,1008.16,1001.82,1008.88Zm9.74-5.26c11.53,4.68,36.4,11.39,61.38-3.49,0.56-.331,1.26.06,0.79,0.43-6.59,5.25-21.21,14.32-41.16,11.75,0,0-13.66-1.44-22.75-7.44C1008.9,1004.26,1010.43,1003.17,1011.56,1003.62Zm55.95,23.72c19.67,11.07,62.03,27.94,104.41-.14,0.94-.62,2.14.27,1.34,1-11.17,10.16-35.95,27.34-69.91,19.67,0,0-23.27-4.58-38.78-18.14C1063,1028.36,1065.59,1026.25,1067.51,1027.34Zm15.23-4.01c15.41,7.3,48.53,18.03,81.17-3.38,0.73-.48,1.67.12,1.06,0.67-8.57,7.61-27.66,20.68-54.15,16.26,0,0-18.14-2.54-30.34-11.75C1079.24,1024.2,1081.23,1022.62,1082.74,1023.33Zm9.73-5.25c11.54,4.67,36.4,11.38,61.39-3.5,0.55-.33,1.26.06,0.78,0.44-6.59,5.24-21.2,14.31-41.15,11.74,0,0-13.67-1.43-22.75-7.44C1089.82,1018.71,1091.34,1017.62,1092.47,1018.08Zm61.93-5.2c19.67,11.08,62.03,27.95,104.4-.13,0.95-.62,2.14.27,1.34,1-11.16,10.16-35.94,27.34-69.91,19.66,0,0-23.26-4.58-38.77-18.13C1149.89,1013.91,1152.48,1011.8,1154.4,1012.88Zm15.22-4c15.42,7.29,48.54,18.03,81.18-3.39,0.73-.47,1.67.13,1.05,0.68-8.57,7.61-27.65,20.68-54.14,16.26,0,0-18.14-2.54-30.35-11.75C1166.13,1009.75,1168.12,1008.16,1169.62,1008.88Zm9.74-5.26c11.54,4.68,36.4,11.39,61.39-3.49,0.55-.331,1.25.06,0.78,0.43-6.59,5.25-21.2,14.32-41.15,11.75,0,0-13.67-1.44-22.76-7.44C1176.7,1004.26,1178.23,1003.17,1179.36,1003.62Zm50.81,24.17c19.67,11.08,62.03,27.95,104.41-.13,0.94-.62,2.13.27,1.33,1-11.16,10.16-35.94,27.34-69.9,19.66,0,0-23.27-4.58-38.78-18.13C1225.66,1028.82,1228.25,1026.71,1230.17,1027.79Zm15.22-4c15.42,7.3,48.54,18.03,81.18-3.39,0.73-.47,1.67.13,1.05,0.68-8.57,7.61-27.65,20.68-54.14,16.26,0,0-18.14-2.54-30.35-11.75C1241.9,1024.66,1243.89,1023.07,1245.39,1023.79Zm9.74-5.26c11.54,4.68,36.4,11.39,61.39-3.49,0.55-.33,1.25.06,0.78,0.44-6.59,5.24-21.2,14.31-41.15,11.74,0,0-13.67-1.44-22.75-7.44C1252.48,1019.17,1254,1018.08,1255.13,1018.53Zm61.93-5.65c19.67,11.08,62.03,27.95,104.4-.13,0.94-.62,2.14.27,1.34,1-11.16,10.16-35.94,27.34-69.91,19.66,0,0-23.27-4.58-38.77-18.13C1312.55,1013.91,1315.14,1011.8,1317.06,1012.88Zm15.22-4c15.42,7.29,48.54,18.03,81.18-3.39,0.72-.47,1.67.13,1.05,0.68-8.57,7.61-27.65,20.68-54.14,16.26,0,0-18.14-2.54-30.35-11.75C1328.79,1009.75,1330.78,1008.16,1332.28,1008.88Zm9.74-5.26c11.54,4.68,36.4,11.39,61.38-3.49,0.56-.331,1.26.06,0.79,0.43-6.59,5.25-21.2,14.32-41.15,11.75,0,0-13.67-1.44-22.76-7.44C1339.36,1004.26,1340.89,1003.17,1342.02,1003.62Zm54.63,23.36c19.68,11.07,62.03,27.95,104.41-.13,0.94-.63,2.14.27,1.34,0.99-11.17,10.16-35.95,27.35-69.91,19.67,0,0-23.27-4.58-38.78-18.13C1392.14,1028,1394.73,1025.9,1396.65,1026.98Zm15.23-4.01c15.41,7.3,48.53,18.03,81.18-3.38,0.72-.47,1.66.13,1.05,0.67-8.57,7.62-27.66,20.68-54.15,16.26,0,0-18.14-2.54-30.34-11.74C1408.38,1023.85,1410.37,1022.26,1411.88,1022.97Zm9.73-5.25c11.54,4.67,36.4,11.39,61.39-3.49,0.55-.33,1.26.06,0.78,0.43-6.58,5.25-21.2,14.32-41.15,11.75,0,0-13.67-1.44-22.75-7.44C1418.96,1018.36,1420.49,1017.26,1421.61,1017.72Zm61.93-4.84c19.67,11.08,62.03,27.95,104.41-.13,0.94-.62,2.13.27,1.33,1-11.16,10.16-35.94,27.34-69.91,19.66,0,0-23.26-4.58-38.77-18.13C1479.03,1013.91,1481.62,1011.8,1483.54,1012.88Zm15.22-4c15.42,7.29,48.54,18.03,81.18-3.39,0.73-.47,1.67.13,1.05,0.68-8.57,7.61-27.65,20.68-54.14,16.26,0,0-18.14-2.54-30.35-11.75C1495.27,1009.75,1497.26,1008.16,1498.76,1008.88Zm9.74-5.26c11.54,4.68,36.4,11.39,61.39-3.49,0.55-.331,1.25.06,0.78,0.43-6.59,5.25-21.2,14.32-41.15,11.75,0,0-13.67-1.44-22.75-7.44C1505.85,1004.26,1507.37,1003.17,1508.5,1003.62Zm55.96,22.15c19.67,11.07,62.02,27.95,104.4-.13,0.94-.63,2.14.27,1.34,1-11.16,10.16-35.95,27.34-69.91,19.66,0,0-23.27-4.58-38.77-18.13C1559.95,1026.8,1562.53,1024.69,1564.46,1025.77Zm15.22-4c15.42,7.29,48.53,18.03,81.18-3.39,0.72-.47,1.66.13,1.05,0.68-8.57,7.61-27.65,20.68-54.14,16.26,0,0-18.14-2.55-30.35-11.75C1576.19,1022.64,1578.17,1021.05,1579.68,1021.77Zm9.74-5.26c11.54,4.67,36.4,11.39,61.38-3.49,0.56-.33,1.26.06,0.79,0.43-6.59,5.25-21.2,14.32-41.16,11.75,0,0-13.66-1.44-22.75-7.44C1586.76,1017.15,1588.29,1016.06,1589.42,1016.51Zm61.92-3.63c19.68,11.08,62.03,27.95,104.41-.13,0.94-.62,2.14.27,1.34,1-11.17,10.16-35.95,27.34-69.91,19.66,0,0-23.27-4.58-38.78-18.13C1646.83,1013.91,1649.42,1011.8,1651.34,1012.88Zm15.23-4c15.41,7.29,48.53,18.03,81.18-3.39,0.72-.47,1.66.13,1.05,0.68-8.57,7.61-27.65,20.68-54.15,16.26,0,0-18.14-2.54-30.34-11.75C1663.07,1009.75,1665.06,1008.16,1666.57,1008.88Zm9.73-5.26c11.54,4.68,36.4,11.39,61.39-3.49,0.55-.331,1.26.06,0.78,0.43-6.58,5.25-21.2,14.32-41.15,11.75,0,0-13.67-1.44-22.75-7.44C1673.65,1004.26,1675.18,1003.17,1676.3,1003.62Zm50.82,22.61c19.67,11.07,62.02,27.95,104.4-.13,0.94-.63,2.14.27,1.34,0.99-11.16,10.16-35.95,27.35-69.91,19.67,0,0-23.27-4.58-38.78-18.14C1722.61,1027.25,1725.19,1025.15,1727.12,1026.23Zm15.22-4.01c15.42,7.3,48.53,18.03,81.18-3.38,0.72-.47,1.66.13,1.05,0.67-8.57,7.62-27.65,20.68-54.14,16.27,0,0-18.15-2.55-30.35-11.75C1738.84,1023.1,1740.83,1021.51,1742.34,1022.22Zm9.73-5.25c11.54,4.67,36.41,11.39,61.39-3.49,0.56-.33,1.26.06,0.79,0.43-6.59,5.25-21.21,14.32-41.16,11.75,0,0-13.67-1.44-22.75-7.44C1749.42,1017.61,1750.95,1016.51,1752.07,1016.97Zm61.93-4.09c19.67,11.08,62.03,27.95,104.41-.13,0.94-.62,2.14.27,1.34,1-11.17,10.16-35.95,27.34-69.91,19.66,0,0-23.27-4.58-38.78-18.13C1809.49,1013.91,1812.08,1011.8,1814,1012.88Zm15.23-4c15.41,7.29,48.53,18.03,81.17-3.39,0.73-.47,1.67.13,1.06,0.68-8.57,7.61-27.66,20.68-54.15,16.26,0,0-18.14-2.54-30.34-11.75C1825.73,1009.75,1827.72,1008.16,1829.23,1008.88Zm9.73-5.26c11.54,4.68,36.4,11.39,61.39-3.49,0.55-.331,1.26.06,0.78,0.43-6.59,5.25-21.2,14.32-41.15,11.75,0,0-13.67-1.44-22.75-7.44C1836.31,1004.26,1837.83,1003.17,1838.96,1003.62Z" transform="translate(0 -1000)"/>
</svg>
