<svg xmlns="http://www.w3.org/2000/svg" width="1920" height="51" viewBox="0 0 1920 51">
  <defs>
    <style>
      .cls-1 {
        fill: #bf8c4e;
        fill-rule: evenodd;
      }
    </style>
  </defs>
  <path id="frame02.svg" class="cls-1" d="M3.456,512.884c19.672,11.072,62.028,27.948,104.405-.135,0.94-.623,2.139.271,1.338,1-11.163,10.158-35.946,27.34-69.909,19.666,0,0-23.268-4.58-38.775-18.136C-1.054,513.907,1.533,511.8,3.456,512.884Zm15.224-4.007c15.416,7.3,48.534,18.031,81.178-3.382,0.724-.475,1.666.126,1.052,0.672-8.57,7.614-27.653,20.679-54.144,16.261,0,0-18.142-2.542-30.347-11.746C15.184,509.75,17.173,508.165,18.68,508.877Zm9.736-5.253c11.539,4.672,36.4,11.388,61.387-3.494,0.554-.331,1.257.059,0.784,0.436-6.589,5.246-21.2,14.314-41.153,11.743,0,0-13.669-1.436-22.754-7.439C25.762,504.263,27.288,503.166,28.416,503.624Zm56.039,22.355c19.672,11.073,62.028,27.948,104.405-.134,0.941-.623,2.139.27,1.339,1-11.164,10.158-35.946,27.34-69.91,19.665,0,0-23.267-4.58-38.774-18.135C79.946,527,82.533,524.9,84.455,525.979Zm15.224-4.006c15.416,7.3,48.534,18.03,81.178-3.382,0.725-.476,1.666.126,1.052,0.671-8.57,7.615-27.653,20.68-54.144,16.262,0,0-18.142-2.543-30.346-11.746C96.184,522.846,98.172,521.26,99.679,521.973Zm9.736-5.254c11.539,4.673,36.4,11.389,61.386-3.494,0.555-.33,1.257.06,0.785,0.436-6.589,5.247-21.2,14.314-41.153,11.743,0,0-13.669-1.436-22.753-7.439C106.761,517.358,108.287,516.262,109.415,516.719Zm61.927-3.835c19.672,11.072,62.028,27.948,104.405-.135,0.941-.623,2.139.271,1.338,1-11.163,10.158-35.946,27.34-69.909,19.666,0,0-23.267-4.58-38.774-18.136C166.832,513.907,169.419,511.8,171.342,512.884Zm15.224-4.007c15.416,7.3,48.534,18.031,81.178-3.382,0.725-.475,1.666.126,1.052,0.672-8.57,7.614-27.653,20.679-54.144,16.261,0,0-18.141-2.542-30.347-11.746C183.071,509.75,185.059,508.165,186.566,508.877Zm9.736-5.253c11.539,4.672,36.4,11.388,61.386-3.494,0.555-.331,1.257.059,0.785,0.436-6.589,5.246-21.2,14.314-41.153,11.743,0,0-13.669-1.436-22.753-7.439C193.648,504.263,195.174,503.166,196.3,503.624Zm50.812,22.813c19.672,11.073,62.028,27.948,104.405-.135,0.94-.623,2.139.271,1.338,1-11.164,10.158-35.946,27.34-69.909,19.665,0,0-23.268-4.58-38.775-18.136C242.6,527.46,245.191,525.355,247.114,526.437Zm15.223-4.006c15.417,7.3,48.534,18.03,81.179-3.383,0.724-.475,1.666.126,1.051,0.672-8.569,7.614-27.652,20.679-54.143,16.261,0,0-18.142-2.542-30.347-11.745C258.842,523.3,260.831,521.717,262.337,522.431Zm9.736-5.255c11.539,4.674,36.4,11.39,61.387-3.493,0.555-.33,1.257.059,0.785,0.436-6.589,5.247-21.2,14.314-41.153,11.743,0,0-13.67-1.436-22.754-7.439C269.419,517.816,270.946,516.72,272.073,517.176ZM334,512.884c19.672,11.072,62.028,27.948,104.405-.135,0.94-.623,2.139.271,1.338,1-11.164,10.158-35.946,27.34-69.909,19.666,0,0-23.268-4.58-38.775-18.136C329.491,513.907,332.078,511.8,334,512.884Zm15.223-4.007c15.417,7.3,48.534,18.031,81.179-3.382,0.724-.475,1.666.126,1.051,0.672-8.569,7.614-27.652,20.679-54.143,16.261,0,0-18.142-2.542-30.347-11.746C345.729,509.75,347.718,508.165,349.224,508.877Zm9.736-5.253c11.539,4.672,36.4,11.388,61.387-3.494,0.555-.331,1.257.059,0.785,0.436-6.589,5.246-21.2,14.314-41.153,11.743,0,0-13.669-1.436-22.754-7.439C356.306,504.263,357.832,503.166,358.96,503.624Zm55.957,21.605c19.672,11.072,62.028,27.948,104.405-.135,0.94-.623,2.139.271,1.338,1-11.163,10.158-35.946,27.339-69.909,19.665,0,0-23.267-4.58-38.774-18.136C410.407,526.252,412.994,524.147,414.917,525.229Zm15.224-4.007c15.416,7.3,48.533,18.031,81.178-3.382,0.725-.475,1.666.127,1.052,0.672-8.57,7.615-27.653,20.679-54.144,16.261,0,0-18.142-2.542-30.346-11.746C426.645,522.1,428.634,520.51,430.141,521.222Zm9.735-5.254c11.54,4.673,36.4,11.389,61.387-3.493,0.555-.33,1.257.059,0.785,0.436-6.589,5.246-21.2,14.314-41.153,11.743,0,0-13.669-1.436-22.753-7.439C437.223,516.608,438.749,515.512,439.876,515.968Zm61.928-3.084c19.672,11.072,62.028,27.948,104.4-.135,0.94-.623,2.139.271,1.338,1-11.163,10.158-35.946,27.34-69.909,19.666,0,0-23.268-4.58-38.775-18.136C497.294,513.907,499.881,511.8,501.8,512.884Zm15.224-4.007c15.416,7.3,48.533,18.031,81.178-3.382,0.725-.475,1.666.126,1.052,0.672-8.57,7.614-27.653,20.679-54.144,16.261,0,0-18.142-2.542-30.347-11.746C513.532,509.75,515.521,508.165,517.028,508.877Zm9.735-5.253c11.539,4.672,36.4,11.388,61.387-3.494,0.555-.331,1.257.059,0.785,0.436-6.589,5.246-21.2,14.314-41.153,11.743,0,0-13.669-1.436-22.753-7.439C524.109,504.263,525.636,503.166,526.763,503.624Zm50.812,22.063c19.672,11.073,62.029,27.948,104.406-.135,0.94-.623,2.138.271,1.338,1-11.164,10.159-35.946,27.34-69.909,19.666,0,0-23.268-4.581-38.775-18.136C573.066,526.71,575.653,524.6,577.575,525.687ZM592.8,521.68c15.417,7.3,48.534,18.031,81.179-3.382,0.724-.476,1.666.126,1.051,0.672-8.57,7.615-27.652,20.679-54.143,16.261,0,0-18.142-2.542-30.347-11.746C589.3,522.554,591.293,520.967,592.8,521.68Zm9.736-5.254c11.539,4.673,36.4,11.389,61.387-3.493,0.555-.33,1.257.06,0.785,0.435-6.589,5.247-21.2,14.315-41.153,11.744,0,0-13.67-1.437-22.754-7.439C599.881,517.065,601.407,515.969,602.535,516.426Zm61.928-3.542c19.672,11.072,62.028,27.948,104.405-.135,0.94-.623,2.139.271,1.338,1-11.164,10.158-35.946,27.34-69.909,19.666,0,0-23.268-4.58-38.775-18.136C659.953,513.907,662.54,511.8,664.463,512.884Zm15.223-4.007c15.417,7.3,48.534,18.031,81.179-3.382,0.724-.475,1.666.126,1.051,0.672-8.57,7.614-27.652,20.679-54.143,16.261,0,0-18.142-2.542-30.347-11.746C676.191,509.75,678.18,508.165,679.686,508.877Zm9.736-5.253c11.539,4.672,36.4,11.388,61.387-3.494,0.555-.331,1.257.059,0.785,0.436-6.59,5.246-21.2,14.314-41.153,11.743,0,0-13.67-1.436-22.754-7.439C686.768,504.263,688.294,503.166,689.422,503.624Zm47.628,24.463c19.672,11.073,62.029,27.949,104.406-.134,0.94-.624,2.138.27,1.338,1-11.164,10.158-35.946,27.34-69.909,19.665,0,0-23.268-4.58-38.775-18.135C732.541,529.11,735.128,527.006,737.05,528.087Zm15.224-4.006c15.417,7.3,48.534,18.03,81.179-3.382,0.724-.476,1.666.126,1.051,0.671-8.57,7.615-27.652,20.68-54.143,16.262,0,0-18.142-2.542-30.347-11.746C748.779,524.954,750.768,523.368,752.274,524.081Zm9.736-5.254c11.539,4.673,36.4,11.388,61.387-3.494,0.555-.33,1.257.06,0.785,0.436-6.589,5.247-21.2,14.315-41.153,11.743,0,0-13.67-1.436-22.754-7.438C759.356,519.466,760.882,518.37,762.01,518.827Zm61.927-5.943c19.672,11.072,62.028,27.948,104.406-.135,0.94-.623,2.138.271,1.338,1-11.164,10.158-35.946,27.34-69.909,19.666,0,0-23.268-4.58-38.775-18.136C819.428,513.907,822.015,511.8,823.937,512.884Zm15.224-4.007c15.417,7.3,48.534,18.031,81.179-3.382,0.724-.475,1.666.126,1.051,0.672-8.57,7.614-27.652,20.679-54.143,16.261,0,0-18.142-2.542-30.347-11.746C835.666,509.75,837.655,508.165,839.161,508.877Zm9.736-5.253c11.539,4.672,36.4,11.388,61.387-3.494,0.555-.331,1.257.059,0.784,0.436-6.589,5.246-21.2,14.314-41.152,11.743,0,0-13.67-1.436-22.754-7.439C846.243,504.263,847.769,503.166,848.9,503.624Zm50.812,24.921c19.672,11.073,62.028,27.948,104.4-.134,0.94-.624,2.14.271,1.34,1-11.161,10.158-35.943,27.34-69.906,19.665,0,0-23.268-4.58-38.775-18.135C895.2,529.568,897.787,527.463,899.709,528.545Zm15.224-4.006c15.416,7.3,48.534,18.03,81.178-3.382,0.725-.476,1.666.125,1.052,0.671-8.57,7.615-27.653,20.68-54.144,16.262,0,0-18.141-2.543-30.346-11.746C911.438,525.412,913.426,523.826,914.933,524.539Zm9.736-5.255c11.539,4.674,36.4,11.39,61.387-3.493,0.554-.33,1.257.06,0.784,0.436-6.589,5.247-21.2,14.314-41.153,11.743,0,0-13.669-1.436-22.753-7.439C922.015,519.924,923.541,518.828,924.669,519.284Zm61.927-6.4c19.674,11.072,62.024,27.948,104.4-.135,0.94-.623,2.14.271,1.34,1-11.16,10.158-35.95,27.34-69.91,19.666,0,0-23.267-4.58-38.774-18.136C982.087,513.907,984.674,511.8,986.6,512.884Zm15.224-4.007c15.42,7.3,48.53,18.031,81.18-3.382,0.72-.475,1.66.126,1.05,0.672-8.57,7.614-27.65,20.679-54.14,16.261,0,0-18.15-2.542-30.35-11.746C998.325,509.75,1000.31,508.165,1001.82,508.877Zm9.74-5.253c11.53,4.672,36.4,11.388,61.38-3.494,0.56-.331,1.26.059,0.79,0.436-6.59,5.246-21.21,14.314-41.16,11.743,0,0-13.66-1.436-22.75-7.439C1008.9,504.263,1010.43,503.166,1011.56,503.624Zm55.95,23.713c19.67,11.072,62.03,27.948,104.41-.135,0.94-.623,2.14.271,1.34,1-11.17,10.159-35.95,27.34-69.91,19.666,0,0-23.27-4.58-38.78-18.136C1063,528.36,1065.59,526.255,1067.51,527.337Zm15.23-4.006c15.41,7.3,48.53,18.03,81.17-3.383,0.73-.475,1.67.126,1.06,0.673-8.57,7.614-27.66,20.678-54.15,16.26,0,0-18.14-2.542-30.34-11.746C1079.24,524.2,1081.23,522.618,1082.74,523.331Zm9.73-5.255c11.54,4.673,36.4,11.389,61.39-3.493,0.55-.33,1.26.059,0.78,0.436-6.59,5.246-21.2,14.314-41.15,11.743,0,0-13.67-1.436-22.75-7.439C1089.82,518.716,1091.34,517.62,1092.47,518.076Zm61.93-5.192c19.67,11.072,62.03,27.948,104.4-.135,0.95-.623,2.14.271,1.34,1-11.16,10.158-35.94,27.34-69.91,19.666,0,0-23.26-4.58-38.77-18.136C1149.89,513.907,1152.48,511.8,1154.4,512.884Zm15.22-4.007c15.42,7.3,48.54,18.031,81.18-3.382,0.73-.475,1.67.126,1.05,0.672-8.57,7.614-27.65,20.679-54.14,16.261,0,0-18.14-2.542-30.35-11.746C1166.13,509.75,1168.12,508.165,1169.62,508.877Zm9.74-5.253c11.54,4.672,36.4,11.388,61.39-3.494,0.55-.331,1.25.059,0.78,0.436-6.59,5.246-21.2,14.314-41.15,11.743,0,0-13.67-1.436-22.76-7.439C1176.7,504.263,1178.23,503.166,1179.36,503.624Zm50.81,24.171c19.67,11.073,62.03,27.948,104.41-.135,0.94-.623,2.14.271,1.33,1-11.16,10.159-35.94,27.34-69.9,19.665,0,0-23.27-4.579-38.78-18.135C1225.66,528.818,1228.25,526.713,1230.17,527.795Zm15.22-4.007c15.42,7.3,48.54,18.03,81.18-3.382,0.73-.476,1.67.126,1.05,0.672-8.57,7.615-27.65,20.679-54.14,16.261,0,0-18.14-2.542-30.35-11.746C1241.9,524.662,1243.89,523.076,1245.39,523.788Zm9.74-5.254c11.54,4.673,36.4,11.389,61.39-3.493,0.55-.331,1.25.06,0.78,0.435-6.59,5.247-21.2,14.315-41.15,11.744,0,0-13.67-1.437-22.75-7.439C1252.48,519.174,1254,518.077,1255.13,518.534Zm61.93-5.65c19.67,11.072,62.03,27.948,104.4-.135,0.94-.623,2.14.271,1.34,1-11.16,10.158-35.94,27.34-69.91,19.666,0,0-23.27-4.58-38.77-18.136C1312.55,513.907,1315.14,511.8,1317.06,512.884Zm15.22-4.007c15.42,7.3,48.54,18.031,81.18-3.382,0.72-.475,1.67.126,1.05,0.672-8.57,7.614-27.65,20.679-54.14,16.261,0,0-18.14-2.542-30.35-11.746C1328.79,509.75,1330.78,508.165,1332.28,508.877Zm9.74-5.253c11.54,4.672,36.4,11.388,61.38-3.494,0.56-.331,1.26.059,0.79,0.436-6.59,5.246-21.2,14.314-41.15,11.743,0,0-13.67-1.436-22.76-7.439C1339.36,504.263,1340.89,503.166,1342.02,503.624Zm54.63,23.358c19.68,11.072,62.03,27.948,104.41-.135,0.94-.623,2.14.271,1.34,1-11.17,10.158-35.95,27.34-69.91,19.666,0,0-23.27-4.581-38.78-18.136C1392.14,528.005,1394.73,525.9,1396.65,526.982Zm15.23-4.007c15.41,7.3,48.53,18.03,81.18-3.382,0.72-.476,1.66.126,1.05,0.672-8.57,7.614-27.66,20.679-54.15,16.261,0,0-18.14-2.542-30.34-11.746C1408.38,523.848,1410.37,522.262,1411.88,522.975Zm9.73-5.254c11.54,4.673,36.4,11.389,61.39-3.493,0.55-.331,1.26.059,0.78,0.436-6.58,5.246-21.2,14.314-41.15,11.743,0,0-13.67-1.437-22.75-7.439C1418.96,518.361,1420.49,517.264,1421.61,517.721Zm61.93-4.837c19.67,11.072,62.03,27.948,104.41-.135,0.94-.623,2.13.271,1.33,1-11.16,10.158-35.94,27.34-69.91,19.666,0,0-23.26-4.58-38.77-18.136C1479.03,513.907,1481.62,511.8,1483.54,512.884Zm15.22-4.007c15.42,7.3,48.54,18.031,81.18-3.382,0.73-.475,1.67.126,1.05,0.672-8.57,7.614-27.65,20.679-54.14,16.261,0,0-18.14-2.542-30.35-11.746C1495.27,509.75,1497.26,508.165,1498.76,508.877Zm9.74-5.253c11.54,4.672,36.4,11.388,61.39-3.494,0.55-.331,1.25.059,0.78,0.436-6.59,5.246-21.2,14.314-41.15,11.743,0,0-13.67-1.436-22.75-7.439C1505.85,504.263,1507.37,503.166,1508.5,503.624Zm55.96,22.15c19.67,11.072,62.02,27.948,104.4-.136,0.94-.623,2.14.272,1.34,1-11.16,10.158-35.95,27.34-69.91,19.665,0,0-23.27-4.58-38.77-18.135C1559.95,526.8,1562.53,524.691,1564.46,525.774Zm15.22-4.007c15.42,7.3,48.53,18.03,81.18-3.383,0.72-.475,1.66.127,1.05,0.673-8.57,7.614-27.65,20.679-54.14,16.26,0,0-18.14-2.542-30.35-11.746C1576.19,522.641,1578.17,521.054,1579.68,521.767Zm9.74-5.254c11.54,4.673,36.4,11.389,61.38-3.494,0.56-.33,1.26.06,0.79,0.436-6.59,5.247-21.2,14.315-41.16,11.743,0,0-13.66-1.436-22.75-7.439C1586.76,517.152,1588.29,516.056,1589.42,516.513Zm61.92-3.629c19.68,11.072,62.03,27.948,104.41-.135,0.94-.623,2.14.271,1.34,1-11.17,10.158-35.95,27.34-69.91,19.666,0,0-23.27-4.58-38.78-18.136C1646.83,513.907,1649.42,511.8,1651.34,512.884Zm15.23-4.007c15.41,7.3,48.53,18.031,81.18-3.382,0.72-.475,1.66.126,1.05,0.672-8.57,7.614-27.65,20.679-54.15,16.261,0,0-18.14-2.542-30.34-11.746C1663.07,509.75,1665.06,508.165,1666.57,508.877Zm9.73-5.253c11.54,4.672,36.4,11.388,61.39-3.494,0.55-.331,1.26.059,0.78,0.436-6.58,5.246-21.2,14.314-41.15,11.743,0,0-13.67-1.436-22.75-7.439C1673.65,504.263,1675.18,503.166,1676.3,503.624Zm50.82,22.607c19.67,11.073,62.02,27.949,104.4-.134,0.94-.624,2.14.27,1.34,1-11.16,10.158-35.95,27.339-69.91,19.665,0,0-23.27-4.58-38.78-18.135C1722.61,527.254,1725.19,525.149,1727.12,526.231Zm15.22-4.006c15.42,7.3,48.53,18.03,81.18-3.383,0.72-.475,1.66.127,1.05,0.673-8.57,7.614-27.65,20.678-54.14,16.261,0,0-18.15-2.543-30.35-11.746C1738.84,523.1,1740.83,521.512,1742.34,522.225Zm9.73-5.254c11.54,4.673,36.41,11.388,61.39-3.494,0.56-.331,1.26.06,0.79,0.436-6.59,5.246-21.21,14.314-41.16,11.743,0,0-13.67-1.436-22.75-7.439C1749.42,517.61,1750.95,516.514,1752.07,516.971Zm61.93-4.087c19.67,11.072,62.03,27.948,104.41-.135,0.94-.623,2.14.271,1.34,1-11.17,10.158-35.95,27.34-69.91,19.666,0,0-23.27-4.58-38.78-18.136C1809.49,513.907,1812.08,511.8,1814,512.884Zm15.23-4.007c15.41,7.3,48.53,18.031,81.17-3.382,0.73-.475,1.67.126,1.06,0.672-8.57,7.614-27.66,20.679-54.15,16.261,0,0-18.14-2.542-30.34-11.746C1825.73,509.75,1827.72,508.165,1829.23,508.877Zm9.73-5.253c11.54,4.672,36.4,11.388,61.39-3.494,0.55-.331,1.26.059,0.78,0.436-6.59,5.246-21.2,14.314-41.15,11.743,0,0-13.67-1.436-22.75-7.439C1836.31,504.263,1837.83,503.166,1838.96,503.624Z" transform="translate(0 -500)"/>
</svg>
