<svg id="ken.svg" xmlns="http://www.w3.org/2000/svg" width="83.88" height="83.22" viewBox="0 0 83.88 83.22">
  <defs>
    <style>
      .cls-1 {
        fill: #fff;
        fill-rule: evenodd;
      }
    </style>
  </defs>
  <path id="シェイプ_3" data-name="シェイプ 3" class="cls-1" d="M1076.42,1061.19c0.19-.45.37-0.85,0.58-1.28a2.669,2.669,0,0,1,.24-0.32c0.35-.05.68-0.96,1.01-1.87,0.51-.88.6-1.16,0.37-1.36-0.27.4-.54,0.8-0.76,1.17-0.28.38-.52,0.72-0.79,1.1,0.48-.76.99-1.5,1.55-2.27,0.31-.5.32-0.83,0.18-0.89-0.42.51-.85,1.08-1.23,1.62-0.34.22-.29-0.1-0.36-0.13a36.586,36.586,0,0,0-2.68,5.24c-0.15.37-.28,0.75-0.4,1.14,0.13,0.26.28,0.49,0.43,0.76,0.04-.09.05-0.13,0.09-0.22,0.18,0.19.33,0.33,0.48,0.48A32.361,32.361,0,0,1,1076.42,1061.19Zm-0.03-1.72c0.2-.31.4-0.63,0.6-0.95a17.143,17.143,0,0,0-.94,1.64A2.593,2.593,0,0,1,1076.39,1059.47Zm-2.5,7.38a9.027,9.027,0,0,0,.44-2.13,5.111,5.111,0,0,0-.84,2.64A1.3,1.3,0,0,0,1073.89,1066.85Zm48.73,51,0.03-.06,0.12-.31c0.49-.14.88-0.28,1.31-0.41a4.653,4.653,0,0,0-.5-0.49c-0.01-.04-0.01-0.07-0.02-0.11,0.58-.15,1.16-0.36,2.41-0.61a0.212,0.212,0,0,0,.03-0.07l0.12-.31c0.49-.14.88-0.27,1.31-0.4a4.653,4.653,0,0,0-.5-0.49,1.137,1.137,0,0,0-.11-0.4c0.04-.13.06-0.17-0.87-0.08-0.26-.05-0.57-0.09-0.83-0.16-0.04-.12-0.04-0.27-0.08-0.39,0.24-.28.48-0.58,0.76-0.88,0.36-.14.44-0.24,0.74-0.36,0.04-.14.09-0.3,0.13-0.44a1.51,1.51,0,0,0-.08-0.51c-0.02-.09.27-0.33-0.14-0.26-0.24-.09-0.46-0.2-0.74-0.28a0.516,0.516,0,0,0,.31-0.35c-0.36.09-.73,0.18-1.09,0.25-0.96.05-.4-0.34-1.83-0.06-0.11.22-1.29,0.32-1.27,0.58-1.64.2-2.89,0.06-4.23,0.19-1.04-.06-1.53.09-2.32,0.02-0.32.12-1.36-.25-1.21,0.02a24.3,24.3,0,0,1-5.54-.82c-0.14.68-2.01-.61-2.88-0.54-0.52-.58-2.14-0.64-2.98-1.38a28.649,28.649,0,0,1-6.11-3.39,27.507,27.507,0,0,1-6.03-5.36c-0.17.03-.45-0.39-0.67-0.42-0.73-.85-1.46-1.76-2.14-2.7a32.02,32.02,0,0,1-3.21-5.44c-0.2-.13-0.33-0.83-0.69-0.77a3.757,3.757,0,0,0-.78-1.93c-0.04-.43-0.52-1.35-0.27-1.36a2.294,2.294,0,0,0-.32-0.79,4.741,4.741,0,0,1-.42-1.21c-0.16-.34-0.28-0.65-0.45-1.04,0.32,0.19,0-.91-0.1-0.97a5.99,5.99,0,0,0-.58-1.48c-0.01-.08-0.02-0.12-0.03-0.21a1.666,1.666,0,0,0-.15-1.43,2.718,2.718,0,0,0-.35-1.68c-0.04-.22-0.07-0.45-0.11-0.63,0.23,0.3.13-.37,0.3-0.3-0.36-1.39,0-3.81-.12-5.21,0.06-.55.12-1.06,0.2-1.61a13.716,13.716,0,0,0,.28-2.54c0.03-.12.06-0.25,0.1-0.41,0.29-1.16.85-2.66,1.2-4.39,0.48-1.18,1.1-2.31,1.56-3.35a9.351,9.351,0,0,1,1.13-1.32,16.757,16.757,0,0,1,2.79-4.34c0.18-.26.44-0.52,0.45-0.35,0.27-.33.52-0.62,0.8-0.94a1.586,1.586,0,0,0,.68-1.26c-0.2.06-.39,0.12-0.59,0.18,0.06-.25.1-0.46,0.14-0.67,0.15-.26.33-0.57,0.49-0.83,0.1-.09.2-0.19,0.32-0.31a39.544,39.544,0,0,1,4.88-3.8l0.18,0.36c0.34-.12.69-0.23,1.02-0.34a2.571,2.571,0,0,0,.7-0.53c1.82-.65,4.64-1.66,5.88-2.26,0.48-.17,1-0.34,1.49-0.47,0.59-.12,1.13-0.22,1.72-0.32-0.28.55,1.31-.23,1.96-0.02,0.91-.11.72,0.2,1.76,0.04a6.715,6.715,0,0,1,.65-0.27,4.259,4.259,0,0,0,1.35-.18h0.41a34.52,34.52,0,0,1,6.51.83c0.58,0.13,1.15.28,1.72,0.43,0.4,0.1.84,0.19,1.29,0.31,1.29,0.42,1.89.69,3.11,1l0.38,0.15c1.43,0.66,2.34,1.35,4.16,2.24a3.532,3.532,0,0,1,1.15.6,37.124,37.124,0,0,1,4.07,3c1.01,1.16,1.9,1.25,2.8,2.5a34.351,34.351,0,0,1,7.73,11.9c0.2,0.29.38,0.59,0.57,0.88,0.3,0.92.57,1.79,0.79,2.68-0.2.4,0.52,1.96,0.31,2.36,0.17,0.52.21,1.46,0.46,1.52,0.38,0.35.1,1.03,0.26,1.59,0.03,1.02.11,1.84,0.08,2.94a5.92,5.92,0,0,0,.11,1.76c-0.25.3-.01,1.85-0.31,2.13-0.04.86-.1,1.71-0.19,2.52a6.576,6.576,0,0,0-.28.93c0.41,2.05-.89,1.01-0.89,3.41a8.115,8.115,0,0,1-1.23,3.03c-0.71,1-.33,1.45-0.73,2.25a2.045,2.045,0,0,1-.47.4,1.676,1.676,0,0,0-.3.71,5.378,5.378,0,0,1-.95,1.52c-0.21.49-.45,0.48-0.5,0.35-0.23.37-.51,0.77-0.76,1.14-0.32.41-.62,0.79-0.96,1.19-0.35.29-.81,1.07-1,0.95-0.21.25-.4,0.46-0.64,0.74l-0.52.55c-0.47.45-.94,0.89-1.43,1.32-0.24.17-.45,0.33-0.64,0.48a0.737,0.737,0,0,0-.14.04l-0.16-.25c-0.85.2-1.55,1.1-2.49,1.36-0.35.36-1.52,0.71-1.61,0.98a6.767,6.767,0,0,1-1.75,1.01c-0.37.4-1.76,0.79-1.59,1.07a2.717,2.717,0,0,0,1.08-.41c0.44-.1.9-0.25,1.34-0.38,0.05,0.11.11,0.2,0.16,0.31-0.02.02-.03,0.04-0.05,0.06-0.45.16-.91,0.32-1.35,0.46-0.55.21-1.14,0.42-1.7,0.6a6.527,6.527,0,0,0-1.75.5c0.59-.09,1.17-0.2,1.79-0.34,0.73-.19,1.42-0.39,2.13-0.62,0.13-.05.28-0.11,0.44-0.17-0.26.18-.52,0.34-0.8,0.52a3.4,3.4,0,0,0-1.04.61c-0.23.11-.46,0.21-0.73,0.32-0.55.2-1.14,0.4-1.69,0.58-0.55.2-1.15,0.41-1.7,0.6a6.8,6.8,0,0,0-1.75.49c0.59-.08,1.17-0.19,1.79-0.33,0.73-.2,1.42-0.4,2.13-0.63,0.16-.05.36-0.13,0.56-0.21a12.78,12.78,0,0,0,3.02-1.15c0.45-.14.89-0.29,1.34-0.45,0.06,0.12.09,0.19,0.13,0.26,0.88-.44,1.7-0.91,2.53-1.43,0.3-.22.6-0.41,0.88-0.6,0.85-.43,1.66-0.89,2.47-1.4,1.29-.9,2.31-1.46,3.4-2.3,1.3-1.29,2.82-2.26,3.92-3.59,0.22-.26.46-0.51,0.67-0.77,0.33-.35.66-0.74,0.96-1.11,0.24-.35.46-0.67,0.69-1.03,0.02,0.27.07,0.57,0.09,0.85,0.14,0.26.53,0.11,0.79,0.01,0.28-.39.55-0.8,0.84-1.24,0.21-.28.4-0.53,0.63-0.86,0.35-.67.68-1.39,0.99-2.07a31.834,31.834,0,0,0,2.79-7.06c0.28-.56.44-2.2,0.63-2.69,0.06-.49.13-0.97,0.17-1.45,0.03-.26.06-0.57,0.08-0.83,0.34,0.01.34-1.11,0.22-1.48a37.509,37.509,0,0,0-.09-4.24c-0.01-.35-0.02-0.71-0.05-1.06,0.27-.17.04-1.42-0.18-1.89l-0.12-.66a16.385,16.385,0,0,0-.08-1.68c0.27,0.25.13-.46,0.32-0.25a5.761,5.761,0,0,0,.48.42c0.19,0.61.4,1.28,0.83,2.54,0.11,1.04.18,2.04,0.2,3.09-0.26.17-.22,1.24,0.07,2.59,0.09-.49.16-0.98,0.22-1.48,0.09,0.01.17,0.01,0.26,0.02,0.01,0,.04.01,0.05,0.01a5.322,5.322,0,0,0,.04-0.69c-0.02-.37-0.04-0.74-0.07-1.11a1.375,1.375,0,0,0-.43-0.65,3.2,3.2,0,0,0,.19-1.56c-0.07-.41-0.16-0.87-0.27-1.32-0.08-.41-0.19-0.86-0.29-1.27h-0.07c-0.14-.31-0.29-0.57-0.44-0.88-0.27-1.21-.71-2.53-0.96-3.6a38.364,38.364,0,0,0-2.47-5.96,3.237,3.237,0,0,0-.94-1.83,40.633,40.633,0,0,0-4.95-6.79,1.862,1.862,0,0,0-.59-0.98,3.993,3.993,0,0,0-1.02-.69c-0.47-.55-0.93-1.04-1.39-1.53-0.73-.72-1.5-1.4-2.29-2.05-0.33-.3-0.7-0.62-1.08-0.93-0.35-.21-0.67-0.38-1.06-0.6-0.59-.39-1.18-0.77-1.82-1.15a5.224,5.224,0,0,0-1.44-.83c-0.42-.26-0.83-0.53-1.22-0.76,0.52,0.14.15-.28,0.71-0.17a7.119,7.119,0,0,0-1.26-.69c-0.37-.08-0.69-0.15-1.07-0.23-0.05-.02-0.14-0.06-0.19-0.08,0.24-.08-0.1-0.3-0.31-0.45a8.2,8.2,0,0,0-1.92-.59c-0.45-.22-0.66-0.37-0.88-0.49a5.831,5.831,0,0,0-1.94-.51c-0.51-.13-0.97-0.24-1.49-0.35-0.55-.16-1.1-0.31-1.66-0.45a9.5,9.5,0,0,0-1.73-.39c-0.45.02-.9,0.05-1.34,0.08-1.1-.12-2.2-0.21-3.25-0.25-0.37-.02-0.68-0.03-1.05-0.05a6.412,6.412,0,0,0-1.42-.4,9.094,9.094,0,0,0-1.82.15c-0.16.01-.31,0.02-0.53,0.03a5.117,5.117,0,0,0-2.27.14c-0.26.12-.47,0.25-0.73,0.38a4.6,4.6,0,0,0-1.51.13c-1.34-.24-3.69.41-5.7,1.06-0.33.21-.6,0.4-0.92,0.62-0.95.31-1.88,0.67-2.8,1.05a1.65,1.65,0,0,0-1.23.32c-0.28.38-1.83,0.93-2.48,1.65a3.23,3.23,0,0,0-.87.34c-0.32.44-2.28,1.09-2.69,1.97-0.18.11-.4,0.24-0.62,0.37-0.27.16-.57,0.36-0.82,0.53-0.33.26,0.68-.27,0.34-0.02-0.48.43-1.44,1.13-1.39,1.39,0.66-.19.66-0.42,2.1-1.48a4.043,4.043,0,0,0,1.25-.54v0.02a2.091,2.091,0,0,0,.91-0.53,8.114,8.114,0,0,1,1.36-.64c0.39-.26.82-0.56,1.27-0.83,0.61-.27.95-0.4,1.33-0.56,0.55-.3,1.06-0.57,1.58-0.82-0.15.23,0.95-.06,1.03,0.07a39.5,39.5,0,0,1,3.84-1c0.18-.03.39-0.06,0.59-0.08a1.487,1.487,0,0,0-.31.17,1.046,1.046,0,0,0,.04.17,7.407,7.407,0,0,1-.34.7c-0.18.1-.36,0.21-0.55,0.33a7.069,7.069,0,0,0-2.5.8c0.01,0.06.02,0.1,0.03,0.16-0.08.19-.16,0.39-0.26,0.59a3.481,3.481,0,0,0-.96.57c-0.39.19-.77,0.38-1.16,0.59-0.08.03-.17,0.06-0.26,0.1a0.037,0.037,0,0,1,.01.03c-0.45.24-.89,0.5-1.35,0.77-0.59.34-1.18,0.71-1.75,1.09-0.53.28-1.06,0.58-1.6,0.9-1.09.63-2.14,1.35-3.15,2.06-0.91.61-1.78,1.28-2.63,1.98-0.73.61-1.44,1.25-2.13,1.91a6.073,6.073,0,0,0-1.99,1.92c-0.04.2-.08,0.41-0.14,0.64-0.12.15-.26,0.32-0.4,0.5,0.05-.43-0.38.11-0.55,0.22-0.26.39-.5,0.79-0.71,1.17,0.15-.33.3-0.74,0.46-1.15,0.5-.89.59-1.16,0.36-1.37-0.27.41-.53,0.81-0.76,1.18-0.28.37-.52,0.71-0.79,1.09,0.48-.76.99-1.5,1.55-2.27,0.31-.5.32-0.83,0.18-0.89-0.42.51-.85,1.09-1.23,1.63-0.33.22-.28-0.11-0.36-0.14a36.723,36.723,0,0,0-2.68,5.25c-0.15.37-.28,0.75-0.4,1.13,0.13,0.26.29,0.49,0.43,0.76,0.04-.09.05-0.13,0.09-0.22,0.03,0.03.06,0.07,0.09,0.1a5.352,5.352,0,0,1-.42.76,1.2,1.2,0,0,0-.23.32,7.273,7.273,0,0,0-.44.6,5,5,0,0,1-.1-0.72l-0.14-.14c-0.12.3-.23,0.55-0.34,0.81-0.46,1.28.14,0.91-.07,1.92-0.14.44-.25,0.84-0.38,1.29a8.677,8.677,0,0,1-.36,1.47c0.28,0.8-.4,1.17-0.54,2.33-0.11-.07-0.22-0.15-0.34-0.23,0.14-.73.28-1.45,0.46-2.17a0.106,0.106,0,0,0-.06-0.04c-0.16.13-.32,0.27-0.49,0.4-0.14.59-.24,1.15-0.33,1.76-0.13.62-.25,1.3-0.35,1.94-0.06.51-.11,1.07-0.13,1.59-0.08.64-.1,1.1-0.14,1.51-0.08.43-.18,0.85-0.25,1.23,0.24,1.21.2,2.67,0.52,4.83,0.01,0.49.06,1.04,0.1,1.53l-0.73-.26c-0.06-.47-0.1-0.94-0.14-1.35-0.05-.83-0.07-1.61-0.07-2.44-0.08-.04-0.18-0.08-0.25-0.12-0.03-.25-0.06-0.49-0.08-0.69,0.13-.54.25-1.09,0.4-1.63-0.06-.17-0.11-0.34-0.16-0.51-0.04-1.22-.07-1.65-0.39-1.64,0-.4,0-0.79.01-1.19a20.209,20.209,0,0,0,.39-3.49,7.29,7.29,0,0,0-.57,3.37c-0.15,1.12-.27,2.24-0.34,3.37,0.02,0.15.04,0.31,0.05,0.46,0.08,0.04.17,0.09,0.24,0.13-0.01.33,0,.62-0.01,0.94-0.33.79-.03,2.15,0.15,3.41,0.07,0.8.16,1.65,0.29,2.44,0.09,0.48.2,0.96,0.29,1.39,0.14,0.61.28,1.22,0.45,1.83,0.03,0.27.1,0.59,0.14,0.86,0.06,0.23.1,0.41,0.17,0.65l0.06,0.65c-0.1-.02-0.18-0.04-0.29-0.06a0.048,0.048,0,0,0-.05-0.01,1.773,1.773,0,0,0,.39,1.5c0.15,0.46.28,0.88,0.45,1.33,0.17,0.25.36,0.49,0.52,0.69,0.04,0.17.08,0.31,0.1,0.44,0,0.34-.12.32-0.1,0.58,0.33,0.73.68,1.49,1.03,2.16,0.28,0.58.62,1.23,0.43,1.27a11.9,11.9,0,0,0,1.42,2.3c0.29,0.34.61,0.68,0.91,1.02a2.251,2.251,0,0,0,.95,1.19,1.65,1.65,0,0,0,.08-0.42c0.22,0.2.48,0.39,0.71,0.59,0.45,0.64.93,1.27,1.43,1.9a1.335,1.335,0,0,0,.16.57c0.62,0.69,1.27,1.71,2.03,1.96a11.711,11.711,0,0,0,1.98,1.65c0.18,0.18.33,0.31,0.51,0.48a3.691,3.691,0,0,0,1.02,1.22,2.679,2.679,0,0,0,1.22.7c0.3,0.13.54,0.23,0.84,0.35a38.56,38.56,0,0,0,3.42,2.17c0.1,0.1.22,0.18,0.37,0.31a3.837,3.837,0,0,0,1.28.95c0.51,0.13,1.45.87,2.16,0.76,0.38,0.18.79,0.34,1.18,0.51,0.65,0.31,1.29.62,2.01,0.93a15.609,15.609,0,0,0,5.08,1.39,1.936,1.936,0,0,0,1.12.11,8.751,8.751,0,0,0,2.98.32c0.47,0.08.99,0.15,1.52,0.22,0.6,0.33.04,0.44,0.48,0.76,0.63,0.02,1.27.01,1.91,0,0.9,0,1.44-.06,2.17-0.01,0.37-.05.78-0.11,1.14-0.17a11.746,11.746,0,0,0,2.35-.15C1120.3,1118.58,1120.53,1118.27,1122.62,1117.85Zm27.99-41.52c-0.01-.35-0.02-0.7-0.05-1.05,0.27-.18.04-1.42-0.19-1.9-0.03-.22-0.07-0.43-0.11-0.66,0-.53-0.04-1.1-0.08-1.68,0.15,0.14.17-.01,0.2-0.15,0,0.01,0,.01.01,0.01,0.38,0.35.1,1.02,0.26,1.59,0.03,1.02.11,1.83,0.08,2.93a6.006,6.006,0,0,0,.11,1.77,2.273,2.273,0,0,0-.13,1.01C1150.69,1077.57,1150.66,1076.95,1150.61,1076.33Zm-0.42,4.05a2.8,2.8,0,0,1-.04-1.15,0.289,0.289,0,0,0,.06-0.1C1150.19,1079.53,1150.17,1079.93,1150.19,1080.38Zm3.37-3.24c-0.02.4-.04,0.79-0.02,1.24a2.754,2.754,0,0,1-.04-1.14A0.437,0.437,0,0,0,1153.56,1077.14Zm-67.4-24.14c-0.09.11-.21,0.25-0.32,0.4,0.12-.2.25-0.43,0.38-0.64C1086.2,1052.84,1086.18,1052.91,1086.16,1053Zm-6.56,10.84c-0.09.33-.18,0.64-0.27,0.98a9.153,9.153,0,0,1-.37,1.48c0.28,0.79-.39,1.16-0.54,2.33-0.1-.07-0.22-0.15-0.33-0.24,0.26-.87.56-1.85,0.78-2.92C1079.09,1064.92,1079.35,1064.37,1079.6,1063.84Zm2.38,29.97-0.01-.01a0.02,0.02,0,0,1,.01.02v-0.01Zm-4.8-12.92c-0.05-.1-0.1-0.21-0.16-0.34-0.04-.22-0.07-0.44-0.11-0.62,0.23,0.3.12-.37,0.3-0.3a9.487,9.487,0,0,1-.15-2.52c0.05,0.68.12,1.45,0.25,2.33,0.01,0.5.07,1.04,0.1,1.53C1077.33,1080.94,1077.25,1080.92,1077.18,1080.89Zm1.45,14.93a0.02,0.02,0,0,0-.01-0.02h0C1078.63,1095.8,1078.63,1095.81,1078.63,1095.82Zm24.86,20.18c-0.07,0-.18-0.02-0.3-0.03-0.3-.1-0.66-0.19-0.98-0.28C1102.65,1115.79,1103.06,1115.9,1103.49,1116Zm1.29,0.52a1.416,1.416,0,0,1-.22-0.07c-0.03-.01-0.05-0.02-0.08-0.03C1104.58,1116.46,1104.68,1116.49,1104.78,1116.52Zm27.42-11.69-0.07-.09c0.09-.05.17-0.09,0.25-0.13,0.44-.11.9-0.25,1.34-0.38l0.03,0.06c-0.16.11-.34,0.22-0.53,0.34A1.842,1.842,0,0,0,1132.2,1104.83Zm-4.21-66.19a2.018,2.018,0,0,1-.76-0.29A6.7,6.7,0,0,1,1127.99,1038.64Zm-26.29-.12c-0.15.24,0.95-.06,1.03,0.08a39.579,39.579,0,0,1,3.84-1.01l0.96-.13c0.81-.14,1.63-0.23,2.45-0.31a1.15,1.15,0,0,1,.26.08c-0.16.07-.31,0.15-0.51,0.24,1.07,0.04.2,0.26-.24,0.45a0.17,0.17,0,0,1-.07.01c-0.16.01-.31,0.02-0.53,0.04a4.825,4.825,0,0,0-2.27.14c-0.27.12-.47,0.25-0.73,0.38a4.549,4.549,0,0,0-1.51.12,10.037,10.037,0,0,0-3.84.51C1100.94,1038.91,1101.32,1038.71,1101.7,1038.52Zm-21.96,18.96,0.6-.96c-0.29.5-.68,1.07-0.94,1.64A2.543,2.543,0,0,1,1079.74,1057.48Zm18.97,56.9c0.47,0.16.88,0.27,1.52,0.47A11.778,11.778,0,0,1,1098.71,1114.38Zm55.39-28.58c0.33-.27.52-0.94,0.54-2.29A5.727,5.727,0,0,0,1154.1,1085.8Zm-65.23-31.63c-0.29.29-.58,0.58-0.83,0.84-0.11.14-.18,0.24-0.26,0.34-0.23.29-.48,0.64-0.72,0.98-0.5,1.69,1.07-1.2,1.71-1.56C1088.66,1054.67,1089.08,1054.15,1088.87,1054.17Zm66.21,27.21a4.618,4.618,0,0,0,.26-2.85C1155.07,1078.77,1155.05,1079.8,1155.08,1081.38Z" transform="translate(-1072.12 -1035.78)"/>
  <path id="健" class="cls-1" d="M1129.81,1066.65h-2.49l-0.39-.05a0.34,0.34,0,0,0,.2-0.19,7.493,7.493,0,0,1,1-1.2,7.658,7.658,0,0,1,1.59-1.68c0.91-.62.96-1.25,0.05-1.92a0.986,0.986,0,0,0-.29-0.29,3.513,3.513,0,0,0-1.35-.72,14.285,14.285,0,0,0-2.25.53c-0.15.05-.34,0.1-0.48,0.14a0.678,0.678,0,0,1-.53-0.04,0.664,0.664,0,0,1-.05-0.53,2.812,2.812,0,0,1,.19-0.53,2.255,2.255,0,0,0-1.1-2.93c-0.43-.24-0.87-0.53-1.25-0.77a0.525,0.525,0,0,0-.58-0.09,0.585,0.585,0,0,0-.33.53c-0.1,1.53-.15,3.02-0.15,4.51a0.411,0.411,0,0,1-.52.48c-0.82.05-1.59,0.09-2.4,0.14a1.188,1.188,0,0,0-.72.05,0.606,0.606,0,0,0-.48.48,1.527,1.527,0,0,0,.43.53,1.711,1.711,0,0,0,.57.29l2.74,0.76a0.531,0.531,0,0,1,.29.39,21.666,21.666,0,0,1,.14,2.45,0.877,0.877,0,0,1-.05.38,8.479,8.479,0,0,1-1.87,1.15,27.87,27.87,0,0,0-3.98,1.64,10.893,10.893,0,0,0-3.36,2.59,0.243,0.243,0,0,1-.15.09,0.248,0.248,0,0,1,0-.24,13.464,13.464,0,0,1,1.16-1.77,0.8,0.8,0,0,0,.04-1.01,5.006,5.006,0,0,0-2.78-1.92,0.745,0.745,0,0,0-1.1.38,4.006,4.006,0,0,1-1.35,1.97c-0.67.53-1.29,1.01-1.97,1.49-0.57.34-1.1,0.67-1.58,1.01-0.29.29-.58,0.53-0.86,0.81l1.29,0.15a21.339,21.339,0,0,0,2.45-.58c0.43-.09.58,0.05,0.43,0.43-0.33,1.01-.72,2.02-1.1,3.03-0.43.77-.82,1.58-1.3,2.3a1.224,1.224,0,0,0-.19.67,3.707,3.707,0,0,0,2.4,2.31,0.286,0.286,0,0,0,.29,0,1.79,1.79,0,0,1,.91-0.67c0.38-.1.72-0.2,1.1-0.29,0.34-.1.53,0.05,0.48,0.43a16.886,16.886,0,0,1-1.29,5.38,0.833,0.833,0,0,1-.58.28c-1.05-.28-2.06-0.52-3.12-0.72a5.533,5.533,0,0,0-2.01.39c-0.68.29-.68,0.62-0.05,1.01a8.986,8.986,0,0,0,1.77.91c0.82,0.19,1.59.38,2.4,0.53a0.345,0.345,0,0,1,.39.33,10.409,10.409,0,0,1-2.79,4.04c-0.33.28-.57,0.24-0.76-0.15a2.9,2.9,0,0,0-.2-0.33,0.244,0.244,0,0,0-.38-0.05c-0.1.19-.24,0.43-0.38,0.67-0.1.19-.2,0.38-0.29,0.58a0.91,0.91,0,0,0,.14,1.39,0.807,0.807,0,0,1,.24.33,0.9,0.9,0,0,0,1.49.2c0.72-.72,1.49-1.49,2.21-2.31a11.092,11.092,0,0,0,1.77-2.64,2.891,2.891,0,0,1,.48-0.81,0.889,0.889,0,0,1,.87-0.34c0.38,0.1.72,0.19,1.01,0.29a33.9,33.9,0,0,1,6.19,2.35c2.01,1.01,3.98,2.11,5.85,3.26,1.59,0.92,3.17,1.78,4.81,2.69a1.157,1.157,0,0,0,.67.29,8.5,8.5,0,0,0,5.13-.34,3.31,3.31,0,0,1,.77-0.43l-0.77-.86c-0.14-.1-0.28-0.15-0.43-0.24-2.16-.67-4.27-1.44-6.33-2.26a28.177,28.177,0,0,1-3.03-1.44,14.3,14.3,0,0,1-1.2-1.05,0.938,0.938,0,0,1-.1-0.48,16.548,16.548,0,0,1,.44-2.16c0-.24.04-0.48,0.04-0.72a0.582,0.582,0,0,1,.39-0.58,1.928,1.928,0,0,1,.72-0.19,24.558,24.558,0,0,0,6.29-2.4c0.53-.24.57-0.63,0.24-1.16a15.02,15.02,0,0,0-3.7-3.21l-0.24-.29a0.5,0.5,0,0,0,.29-0.1,2.073,2.073,0,0,0,.53-0.24,1.051,1.051,0,0,0,.43-0.33,1.213,1.213,0,0,0-.53-1.06,5.043,5.043,0,0,0-1.29-.96,0.918,0.918,0,0,0-1.3-.29,1.068,1.068,0,0,1-.53.15,0.693,0.693,0,0,1-.34-0.24,0.491,0.491,0,0,1,0-.34,21.573,21.573,0,0,1,2.17-1.87l2.25-1.78c0.58-.43.58-0.86,0-1.34a18.208,18.208,0,0,0-2.59-1.63h-0.14c-0.49.14-.97,0.29-1.4,0.43a0.5,0.5,0,0,1-.38,0,1.381,1.381,0,0,1-.05-1.01,1.506,1.506,0,0,1,.43-0.86c0.39-.15.82-0.29,1.25-0.43a4.127,4.127,0,0,1,1.35-.34c1.63,0.1,3.31.24,4.94,0.38a1,1,0,0,0,.72-0.14,0.5,0.5,0,0,0-.14-0.62,4.409,4.409,0,0,0-1.3-1.35A2.579,2.579,0,0,0,1129.81,1066.65Zm-8.54,22.56v1.54a2.31,2.31,0,0,1-.1.82,1.456,1.456,0,0,1-.72-0.34,23.367,23.367,0,0,0-4.17-1.82c-1.49-.48-2.93-1.01-4.37-1.49a0.409,0.409,0,0,1-.39-0.63c0.44-.91.82-1.87,1.2-2.78a9.444,9.444,0,0,0,.77-2.88,2.224,2.224,0,0,0-.24-1.49,6.31,6.31,0,0,0-2.59-1.92c-0.34-.1-0.43-0.24-0.29-0.53,0.43-1.2.87-2.4,1.25-3.55a0.474,0.474,0,0,1,.62-0.38,2.47,2.47,0,0,0,1.64-.58,8.29,8.29,0,0,1,2.4-1.44c0.86-.29,1.77-0.58,2.68-0.82h0.24a1.283,1.283,0,0,0-.09.24c-1.01,1.11-1.97,2.26-2.88,3.41a3.693,3.693,0,0,0-.24,1.25,4.047,4.047,0,0,0,1.1,0,8.035,8.035,0,0,1,1.35-.53,3.2,3.2,0,0,1,1.48-.05,3.091,3.091,0,0,0,.96,0c0.58,0.2.68,0.53,0.34,1.01q-1.725,1.515-3.6,3.03a0.79,0.79,0,0,0-.24,1.24,3.572,3.572,0,0,0,1.97,1.78c0.29,0.1.33,0.29,0.09,0.48a9.414,9.414,0,0,1-3.4,2.69,1.293,1.293,0,0,0-.58,2.06,1.955,1.955,0,0,0,1.39,1.15,3.825,3.825,0,0,0,1.83.1,9.563,9.563,0,0,0,1.63-.19C1120.93,1088.4,1121.27,1088.59,1121.27,1089.21Zm3.41-7.73a2.5,2.5,0,0,1,2.25.1,6.7,6.7,0,0,1,1.73,1.58,0.926,0.926,0,0,1,.1.72,2.367,2.367,0,0,1-1.73,1.16c-1.01.19-2.02,0.33-3.03,0.57-0.43.05-.62-0.14-0.52-0.57,0.04-1.11.14-2.16,0.28-3.27a1.24,1.24,0,0,1,.44-0.29,1.956,1.956,0,0,0,.48-0.24v0.24Zm-3.41,3.41c0,0.19-.05.43-0.05,0.67a0.459,0.459,0,0,1-.38.48,1.673,1.673,0,0,1-.68.15,14.818,14.818,0,0,1-1.53.09c-0.34.05-.43-0.09-0.29-0.38a5.432,5.432,0,0,1,2.35-2.93c0.24-.19.39-0.19,0.39,0.1A17.214,17.214,0,0,0,1121.27,1084.89Zm0.24-14.25v1.15a0.9,0.9,0,0,1-.87,1.2c-0.57.09-1.15,0.19-1.68,0.33a0.28,0.28,0,0,1-.28,0,1,1,0,0,1,.24-0.28c0.52-.63,1.1-1.2,1.68-1.83a3.543,3.543,0,0,1,.76-0.67A0.126,0.126,0,0,1,1121.51,1070.64Zm3.31,4.36a1.377,1.377,0,0,1,.38-0.67,1.044,1.044,0,0,1,.68-0.33,0.437,0.437,0,0,1,.14.33,4.871,4.871,0,0,0-1.01.91A0.467,0.467,0,0,1,1124.82,1075Zm-0.38-10.7,0.67-.29,0.14,0.14a4.6,4.6,0,0,1-.57.53A0.884,0.884,0,0,1,1124.44,1064.3Zm-23.62.09c-0.24,1.11-.43,2.26-0.58,3.41a93.913,93.913,0,0,1-6,21.32,1.809,1.809,0,0,1-.24.67v0.19c0.1-.05.19-0.05,0.24-0.09a29.486,29.486,0,0,0,2.31-3.22,23.756,23.756,0,0,0,1.29-2.74c0.1-.05.24-0.09,0.34-0.14a2.569,2.569,0,0,1,.67,1.2c0.1,2.69.19,5.38,0.29,8.06a3.311,3.311,0,0,1-.43,1.01,1.9,1.9,0,0,0-.24.87,5.389,5.389,0,0,0,1.68,2.68c0.33,0.29.57,0.24,0.72-.14a8.347,8.347,0,0,0,.57-2.21c0-1.39,0-2.83-.05-4.27a36.21,36.21,0,0,1,0-4.42,2.442,2.442,0,0,0-.81-2.3,17.867,17.867,0,0,1-1.39-1.2,0.649,0.649,0,0,1-.39-1.01c0.96-2.11,1.83-4.27,2.59-6.48,0.77-2.98,1.49-5.95,2.12-8.98a3.009,3.009,0,0,1,.48-1.39,1.167,1.167,0,0,0-.15-1.68,4.214,4.214,0,0,0-3.98-1.82l-0.67.14c0.09,0.19.24,0.38,0.33,0.58a3.1,3.1,0,0,1,.96.81A1.379,1.379,0,0,1,1100.82,1064.39Z" transform="translate(-1072.12 -1035.78)"/>
</svg>
