<svg xmlns="http://www.w3.org/2000/svg" width="339.321" height="50.43" viewBox="0 0 339.321 50.43">
  <path id="logo" d="M43.08-23.52c.06-.78.12-1.56.18-2.4a3.522,3.522,0,0,0-1.44-2.46,2.7,2.7,0,0,0-2.7-.36,31.523,31.523,0,0,0-6.3,3.3C28.56-22.5,24.3-19.56,20.1-16.5c-.42.24-.78.42-1.14.6-.42.24-.6.12-.6-.36a8.611,8.611,0,0,1,.48-2.76c.96-2.4,1.98-4.74,3.06-7.08a1.112,1.112,0,0,1,.12-.42,1.255,1.255,0,0,0-.36.24,37.232,37.232,0,0,0-8.64,12.54,2.651,2.651,0,0,0-.36.96,1.165,1.165,0,0,0,.3.96c.3.24.54.48.78.66a3.43,3.43,0,0,0,.42.48,4.232,4.232,0,0,0,4.5.42,28.9,28.9,0,0,0,4.32-2.94,18.223,18.223,0,0,0,3.66-3.78c1.02-1.2,2.1-2.4,3.24-3.54a9.8,9.8,0,0,1,2.52-1.86,20.47,20.47,0,0,1,2.88-1.32l1.74-.66a3.35,3.35,0,0,1,1.38-.36,1.219,1.219,0,0,1,1.2.66,5.788,5.788,0,0,1,.84,2.28c.06,1.5.06,3,.06,4.56a42.966,42.966,0,0,1-1.62,9.48A18.045,18.045,0,0,1,37.62-4.5a8.448,8.448,0,0,1-2.1,2.76,2.519,2.519,0,0,1-3.48.06,13.789,13.789,0,0,1-3.48-5.16c-.6-1.26-1.14-2.52-1.8-3.72,0-.12-.12-.24-.3-.36a.892.892,0,0,0,.12.54l2.7,6.66A32.315,32.315,0,0,0,31.02-.18a3.93,3.93,0,0,0,2.46,2.22,2.4,2.4,0,0,0,2.46-.6c.54-.42,1.14-.9,1.74-1.32A9.488,9.488,0,0,0,39.42-1.2a3.378,3.378,0,0,0,1.26-1.74,14.943,14.943,0,0,0,.54-2.22c.36-2.1.78-4.2,1.14-6.24.24-1.26.48-2.52.66-3.84,0-1.14.12-2.28.18-3.42a11.035,11.035,0,0,0-.18-3.42A11.561,11.561,0,0,1,43.08-23.52ZM43.26-39a5.08,5.08,0,0,1-.84-1.14,14.6,14.6,0,0,0-6.78-6.12.45.45,0,0,0-.54,0,4.567,4.567,0,0,0-3.42,1.74,3.328,3.328,0,0,1-.48.36c-1.02.54-2.04,1.14-2.94,1.68a1.015,1.015,0,0,0-.18,1.68c.24.24.42.42.42.72a2.659,2.659,0,0,1-.18.9c-.12.36-.24.66-.36.96a2.232,2.232,0,0,0-.06,1.86,1.487,1.487,0,0,1,0,1.02c-.48.6-.9,1.2-1.38,1.86a4.635,4.635,0,0,0-.72,2.22c0,.18-.06.36-.06.48a.541.541,0,0,0,.36-.36c1.2-1.02,2.4-2.1,3.54-3.18a2.146,2.146,0,0,1,2.22-.36c1.62.6,3.24,1.14,4.92,1.62a3.757,3.757,0,0,0,1.62.18,1.939,1.939,0,0,0,1.44-.78,7.709,7.709,0,0,1,2.1-1.08,4.02,4.02,0,0,0,1.08-.42,1.375,1.375,0,0,0,.72-.9,7.261,7.261,0,0,0,.06-1.14Q43.53-38.19,43.26-39ZM86.1-27a7.543,7.543,0,0,0,2.7-.72,4.368,4.368,0,0,0,1.68-1.02,2.735,2.735,0,0,0,.9-1.62,5.8,5.8,0,0,0-.24-1.74,20.241,20.241,0,0,0-.6-2.04,1.111,1.111,0,0,0-1.56-.78,1.9,1.9,0,0,1-.96-.24,3.881,3.881,0,0,1,.24-.78l.66-.9c.6-1.2,1.14-2.46,1.8-3.72-.12,0-.24-.06-.24-.12-.06-.36-.12-.66-.18-1.02-1.08-1.44-2.16-2.82-3.3-4.26a1.082,1.082,0,0,0-.72-.12,8.431,8.431,0,0,0-1.86,1.26,14.455,14.455,0,0,0-3.66,4.2,4.707,4.707,0,0,0-.66,1.08,14.286,14.286,0,0,1-1.08,1.8,3.052,3.052,0,0,0-.6,1.92,2.019,2.019,0,0,1-.48,1.02l-.9.9a7.462,7.462,0,0,1-2.16,1.14c-.78.3-1.56.54-2.34.78a13.361,13.361,0,0,0-1.92.54,1.141,1.141,0,0,0-.78.3,2.128,2.128,0,0,0-.24,3.06,6.9,6.9,0,0,0,2.04,1.92,2.278,2.278,0,0,1,1.32,1.56,3.371,3.371,0,0,1-.12,2.04,1.171,1.171,0,0,0-.06.42c-.96,3.18-1.86,6.42-2.76,9.72a4.017,4.017,0,0,0,0,1.2c.06.18.12.24.3.24a3.834,3.834,0,0,1,.9-.78,1.565,1.565,0,0,0,.66-.96,9,9,0,0,1,2.58-4.44.968.968,0,0,1,.54-.18c.06.12.06.18.12.24h.06a1.312,1.312,0,0,1,.18-.3,3.3,3.3,0,0,1,.42-.54c.36-.48.66-.96,1.02-1.44a1.959,1.959,0,0,1,1.5-.78c1.14-1.26,2.28-2.58,3.42-3.9A8.181,8.181,0,0,1,86.1-27Zm24.66,6.42a22.057,22.057,0,0,0-.9-2.82c-.42-.9-.9-1.74-1.38-2.64a3.176,3.176,0,0,0-2.34-1.44c-2.64-.3-5.22-.48-7.8-.72a7.867,7.867,0,0,0-4.08.72,14.65,14.65,0,0,0-3.36,2.34,2.423,2.423,0,0,0-.9,2.16c.3,3,.66,6,1.02,9l.72,4.68c.24.54,0,.72-.6.54-2.04-.18-4.08-.42-6.18-.54a4.007,4.007,0,0,0-2.22.12,2.657,2.657,0,0,0-.9.72c-.24.36-.54.66-.72.96A.85.85,0,0,0,81-6.3c.96.96,1.92,1.98,2.76,3a4.107,4.107,0,0,1,1.02,1.26A10.838,10.838,0,0,0,88.02,2.1a1.033,1.033,0,0,0,.72.12,2.69,2.69,0,0,1,.72-.06A1.931,1.931,0,0,0,91.62.78,10.259,10.259,0,0,1,92.4-.6c.42-.36.84-.72,1.32-1.14a2.035,2.035,0,0,0,.6-1.56c.18,0,.3,0,.36-.12a.312.312,0,0,0,.12-.24c-.06-.12-.18-.24-.24-.36h.66l5.16,1.38a5.664,5.664,0,0,0,.54.18c.24.06.3.24.3.48a.745.745,0,0,0,.36.48c.72.24,1.44.48,2.16.66a3.315,3.315,0,0,0,1.32.06,2.691,2.691,0,0,1-.06-.66,1.6,1.6,0,0,0-.18-.72,12.12,12.12,0,0,0-2.7-2.22c-2.16-1.08-4.38-2.16-6.6-3.24a1.178,1.178,0,0,1-.78-.54,42.2,42.2,0,0,1-1.14-4.56c-.36-2.04-.66-4.14-.96-6.12a9.009,9.009,0,0,1,.78-6.24.717.717,0,0,1,.54-.48c.78-.18,1.5-.36,2.28-.48a2.859,2.859,0,0,1,1.74.12,6.754,6.754,0,0,1,1.62.78,9.783,9.783,0,0,1,1.74,1.38l.96.96a11.234,11.234,0,0,1,1.74,1.2,10.944,10.944,0,0,0,4.86,2.76C110.4-18.54,111-19.08,110.76-20.58ZM91.08-5.1A4.827,4.827,0,0,1,88.5-3.66a.22.22,0,0,1-.18-.06c.12-.06.12-.24-.06-.42-.18-.24-.12-.36.24-.42l-.24-.12-.48.12a4.372,4.372,0,0,1-1.8-.3A2.17,2.17,0,0,1,84.6-6a.379.379,0,0,1-.06-.42.344.344,0,0,1,.42-.12,1.021,1.021,0,0,0,.42-.06c1.8.3,3.6.6,5.46.84C91.26-5.64,91.38-5.46,91.08-5.1Zm47.04-10.44c.9-.78,1.74-1.56,2.64-2.4,2.1-1.86,4.2-3.72,6.24-5.64a1.86,1.86,0,0,1,.78-.36.644.644,0,0,1,.72.36,14.962,14.962,0,0,0,2.52,3.6c.96,1.02,1.98,2.04,3.06,3,.48.48.42.84-.12,1.2a.77.77,0,0,1-.6.24c-2.1,1.08-4.14,2.16-6.18,3.3a2.246,2.246,0,0,0-.6.36.742.742,0,0,1-.18.12.458.458,0,0,1,.3.12c1.08-.3,2.1-.6,3.12-.9.84-.48,1.74-.96,2.64-1.44a5.685,5.685,0,0,1,1.5-.66,2.369,2.369,0,0,1,1.68.3,3.04,3.04,0,0,0,3.18-.18,1.752,1.752,0,0,1,.54-.12c.42.24.54.12.36-.3a1.321,1.321,0,0,0-.06-.48,2.864,2.864,0,0,0-.3-2.1,5.3,5.3,0,0,0-1.32-1.68l-4.74-5.22a2.414,2.414,0,0,1-.36-1.56,3.18,3.18,0,0,1,.48-1.62,22.229,22.229,0,0,0,2.22-2.52,10.713,10.713,0,0,0,1.8-4.56,3.625,3.625,0,0,0-1.08-2.88A4.942,4.942,0,0,0,153.6-39c-.6,0-.84-.24-.9-.78a4.464,4.464,0,0,0-1.8-3.48c-.9-.66-1.8-1.26-2.7-1.86a1.656,1.656,0,0,0-2.1.48,9.223,9.223,0,0,1-1.14,1.02l-1.08,1.98a.283.283,0,0,0,.06.36,6.28,6.28,0,0,1,1.2,2.46,20.61,20.61,0,0,1,.54,2.64c0,.12-.06.24-.06.36a1.014,1.014,0,0,0-.3-.12c-2.4-1.02-4.92-2.04-7.38-3.06a.9.9,0,0,0-.66.24,2.336,2.336,0,0,1-1.32,1.5,2.107,2.107,0,0,0-1.02,1.02,26.169,26.169,0,0,0,.18,3.06,15.151,15.151,0,0,1-.42,2.88c-.6,2.04-1.32,4.02-2.04,6.06-.18.9-.42,1.8-.66,2.76l-.72,2.16a4.485,4.485,0,0,0,2.16,3.78A3.785,3.785,0,0,0,138.12-15.54Zm-2.4-4.8a10.6,10.6,0,0,1-1.14-3.36,4.923,4.923,0,0,1,.12-1.32,13.38,13.38,0,0,0,.24-1.38,4.849,4.849,0,0,1,.6-1.86c.3-.54.66-1.08.96-1.62a.935.935,0,0,1,1.38-.3c1.5.6,3.06,1.26,4.68,1.8a2.571,2.571,0,0,0,3.3-1.44,2.068,2.068,0,0,1,.72-.72,1.6,1.6,0,0,1,.18.72,1.661,1.661,0,0,1,.18.78,2.274,2.274,0,0,1-.36.78c-1.2,1.8-2.46,3.54-3.78,5.16a9.187,9.187,0,0,1-6.3,3.18A1.255,1.255,0,0,1,135.72-20.34ZM163.26-.78a14.371,14.371,0,0,0-5.4-3.84,3.1,3.1,0,0,0-.66-.12,1.859,1.859,0,0,1,.36.78c.12,0,.18,0,.24.12,1.14.78,2.34,1.5,3.48,2.28.12.12.18.24.12.3A1.64,1.64,0,0,1,159.72.42c-1.74.12-3.48.18-5.28.18a28.82,28.82,0,0,1-12.12-3.3,5.531,5.531,0,0,1-2.88-2.46,3.18,3.18,0,0,1-.48-.9.859.859,0,0,1,.18-.9,3.852,3.852,0,0,1,.78-.6c1.02-.72,2.04-1.38,3.12-2.1.12-.06.18-.18.24-.24h-.24a9.941,9.941,0,0,0-4.2,1.92,14.793,14.793,0,0,0-3.06,3.36c-.12.18-.18.36-.3.54a2.406,2.406,0,0,0,1.62,2.04c.96.36,1.86.72,2.82,1.08a5.091,5.091,0,0,0,1.68.6c1.14.24,2.22.48,3.42.72a16.771,16.771,0,0,0,3.42.48c1.14.12,2.22.3,3.36.48a15.608,15.608,0,0,0,3.36.42,4.122,4.122,0,0,0,2.16-.54.87.87,0,0,1,1.26,0,3.054,3.054,0,0,0,1.32.3,17.765,17.765,0,0,0,3.12.24,1.533,1.533,0,0,0,.9-.72.543.543,0,0,0,0-.6A11.9,11.9,0,0,0,163.26-.78Zm8.58-37.98a12.786,12.786,0,0,0-6.66-5.22,1.693,1.693,0,0,0-.9.24.933.933,0,0,1-1.02.84l-.36.12a1.311,1.311,0,0,1,.18.3c.36.42.66.78.96,1.2a2,2,0,0,1,.42,1.5,1.4,1.4,0,0,0,.54.66,20.124,20.124,0,0,0,2.16,1.26c.9.42,1.8.72,2.64,1.02,0-.12,0-.18.06-.18l1.08-.18C172.02-37.26,172.32-37.8,171.84-38.76ZM166.56-36c-1.2-.9-2.4-1.8-3.66-2.7a2.643,2.643,0,0,0-1.5-.66,1.739,1.739,0,0,0-1.5.36c-.6.3-.66.72-.24,1.2.42.6.84,1.2,1.2,1.8a1.4,1.4,0,0,0,.42.66l4.74,1.74a1.877,1.877,0,0,1,.6-.3,1.573,1.573,0,0,0,.54-.3,2.584,2.584,0,0,0-.24-1.32Zm63.9,34.86a10.946,10.946,0,0,0-2.04-2.04,4.149,4.149,0,0,1-1.14-.6q-1.62-.9-3.24-1.98a15.174,15.174,0,0,1-1.32-.78,24.818,24.818,0,0,0-2.58-1.2,2.432,2.432,0,0,1-.54-.3.77.77,0,0,1-.24-.6,1.669,1.669,0,0,0-.48-1.26c-1.2-1.32-2.46-2.52-3.72-3.72a1.544,1.544,0,0,0-1.92-.3l-.96.18a.9.9,0,0,1-.66-.24.851.851,0,0,1,.24-.84c1.38-.6,2.7-1.32,4.08-1.98a6.089,6.089,0,0,0,1.62-1.44,2.477,2.477,0,0,0,.24-1.32c-.06-.9.3-1.2,1.08-.96a3.67,3.67,0,0,0,.72.3c.72.3.9.72.54,1.44-.48.6-.96,1.2-1.5,1.8a1.591,1.591,0,0,0-.3.36c.12,0,.3-.06.42-.06a5.936,5.936,0,0,1,3.54,0,3.507,3.507,0,0,1,1.14.12,6.836,6.836,0,0,0,3.42,1.14,4.267,4.267,0,0,0,1.92-.42c-.06-.36-.12-.78-.18-1.14a4.635,4.635,0,0,0-.72-2.58,6.87,6.87,0,0,0-1.8-1.92,19.543,19.543,0,0,0-3.66-2.28,6.779,6.779,0,0,0-4.2-.6,2.28,2.28,0,0,0-2.16,1.44,3.189,3.189,0,0,1-.72,1.32,21.568,21.568,0,0,1-2.22.9l-2.34.9a.637.637,0,0,1-.48-.06l.24-.36a16.46,16.46,0,0,0,2.04-2.46A3.336,3.336,0,0,1,214.26-24a13.138,13.138,0,0,1,1.98-.72,1.27,1.27,0,0,0,.84-.24q.27-.27-.18-.72c.06,0,.12-.06.12-.18a2.577,2.577,0,0,0,0-.96,7.641,7.641,0,0,0-.78-1.14,1.967,1.967,0,0,0-.36-.48.477.477,0,0,1-.12-.54.563.563,0,0,1,.48-.36,15.635,15.635,0,0,0,1.68-1.02c.48-.12.96-.3,1.44-.42a5.779,5.779,0,0,1,1.92-.54,4.187,4.187,0,0,0,2.4-.72,2.52,2.52,0,0,0,1.2-1.98,3.12,3.12,0,0,0-.78-2.28,28.262,28.262,0,0,0-4.92-6.12,16.729,16.729,0,0,0-8.94-4.62,2.235,2.235,0,0,0-1.56.18,17.916,17.916,0,0,0-7.02,6c-.06.12-.12.3-.18.42a7.65,7.65,0,0,0,.9,1.5,6.107,6.107,0,0,0,1.38,1.08c1.32.12,2.7.24,4.02.3v-.06c.24.06.48.06.72.12a.808.808,0,0,1,.54.3,1.223,1.223,0,0,1-.3,1.26,18.31,18.31,0,0,1-1.32,1.92,2.432,2.432,0,0,1-.54.3,11.345,11.345,0,0,1-2.4-.48c-.36-.24-.78-.42-1.2-.72a1.461,1.461,0,0,0-1.32-.12c-1.02.3-2.1.54-3.18.84a2.5,2.5,0,0,0-1.26,1.08,5.159,5.159,0,0,0-.54,1.62,20.7,20.7,0,0,1-.66,3.24q-.9,2.52-1.98,5.04c-1.38,4.02-2.7,7.98-3.96,12a22.123,22.123,0,0,0-.72,4.8l-.48,2.76c-.18,1.02-.3,2.04-.42,3.06a9.023,9.023,0,0,0,0,1.8,3.27,3.27,0,0,0,.72,1.44c.3.24.54.24.72.06a5.41,5.41,0,0,0,.6-.54,1.8,1.8,0,0,1,.66-.84A1.253,1.253,0,0,0,192.6-.24a4.216,4.216,0,0,1,.6-2.4V-3l-1.26-.18a1.463,1.463,0,0,1-.72,0,.577.577,0,0,1-.48-.54,3.17,3.17,0,0,1,.06-.78c.12-1.68.3-3.36.48-5.04.54-2.22,1.14-4.32,1.8-6.48a1.651,1.651,0,0,1,.48-.9,3.637,3.637,0,0,0,1.02-1.74,20.3,20.3,0,0,0,.48-2.04,1.551,1.551,0,0,1,.78-1.14,1.167,1.167,0,0,0,.84-.54,2.023,2.023,0,0,0,.3-1.02c.12-.24.18-.54.3-.84l3.18-6.72a1.059,1.059,0,0,1,.54-.48,3.819,3.819,0,0,1,3.9,1.2c.48.48.96.9,1.44,1.38l.6.42a1.413,1.413,0,0,1-.78.3,5.688,5.688,0,0,0-4.2,2.16,1.446,1.446,0,0,1-.6.6l-1.74.84c-.72.3-.72.72-.12,1.14.84.66,1.68,1.32,2.52,1.86.66.3.66.66.06,1.02a.947.947,0,0,1-.48.3,8.486,8.486,0,0,0-2.16,1.44c-.6.6-1.2,1.26-1.8,1.92-.24.12-.36.24-.3.48a11.881,11.881,0,0,0,1.44,2.1,5.987,5.987,0,0,0,1.62,1.32c.36.24.3.48-.06.66-.96.6-1.86,1.26-2.7,1.86a18.752,18.752,0,0,0-1.92,1.8.657.657,0,0,0-.06.66,8.669,8.669,0,0,0,1.74,2.94,5.858,5.858,0,0,0,2.94,1.74c.48.18.54.42.18.84a7.138,7.138,0,0,0-1.14,1.2.536.536,0,0,0,.12.9,4.923,4.923,0,0,0,3.12,1.2c.48.24,1.02.42,1.56.66a6.1,6.1,0,0,0,1.68.78c1.38.24,2.82.42,4.2.54.6.06,1.2.12,1.8.12.78,0,1.5-.06,2.22-.12a4.631,4.631,0,0,1,2.16.42,2.25,2.25,0,0,0,1.26,0,20.109,20.109,0,0,1,3.24-.96l7.86-.9c.24,0,.54-.06.78-.06a1.7,1.7,0,0,0,.78-.24,5.68,5.68,0,0,0,.3-1.08A1.847,1.847,0,0,0,230.46-1.14ZM202.92-9.72a1.312,1.312,0,0,1-.3-.18c.06-.06.12-.18.18-.24a3.948,3.948,0,0,0,.24-.9,1.094,1.094,0,0,1,.3-.66.716.716,0,0,1,.54-.3.38.38,0,0,1,.3.36,1.855,1.855,0,0,1,.12.48,1.213,1.213,0,0,1-.3,1.2A.81.81,0,0,1,202.92-9.72Zm20.7,11.1a19.9,19.9,0,0,1-2.16.3h-5.22a2.8,2.8,0,0,1-.6-.3,2.8,2.8,0,0,1,.6-.3c0,.06.06.18.06.24C218.76,1.32,221.22,1.38,223.62,1.38Zm.96-4.92a2.4,2.4,0,0,1-1.68,1.62c-1.14.3-2.28.66-3.48.96-2.76-.36-5.58-.72-8.4-1.08a4.133,4.133,0,0,1-.48-.18,2.61,2.61,0,0,0,.36-.42,7.138,7.138,0,0,1,1.2-1.14c1.56-1.14,3.24-2.22,4.92-3.24a3.081,3.081,0,0,1,2.7-.3c.84.36,1.62.66,2.46,1.02a.882.882,0,0,1,.3.36H222a6.976,6.976,0,0,0-1.08-.24,3.043,3.043,0,0,1,.96.54c.9.54,1.8,1.14,2.7,1.74A.225.225,0,0,1,224.58-3.54ZM294.3-28.86a12.586,12.586,0,0,0-2.64-4.8,25.261,25.261,0,0,0-4.26-4.14,22.272,22.272,0,0,0-5.16-3,4.151,4.151,0,0,0-2.1,0,26.591,26.591,0,0,0-9.3,5.52c-2.46,2.16-4.8,4.44-7.08,6.78-.96.96-1.98,1.92-3,2.88a11.559,11.559,0,0,0-2.46,3.42,2.8,2.8,0,0,1-.3-.6l-.24-4.08a12.572,12.572,0,0,1-.12-3,11.315,11.315,0,0,0-.12-3.18,8.531,8.531,0,0,0-2.16-4.86,1.544,1.544,0,0,0-.9-.06c-.9,1.32-1.8,2.64-2.64,4.02a16.463,16.463,0,0,0-1.98,6.66,27.318,27.318,0,0,0,.36,7.02,19.373,19.373,0,0,0,2.4,6.42c.54.96,1.14,1.92,1.68,2.88A9.207,9.207,0,0,0,256.5-8.4a1.4,1.4,0,0,1,.42.42,32.032,32.032,0,0,0,2.64,2.34,12.042,12.042,0,0,0,3.12,1.68,3.69,3.69,0,0,0,.84.06,1.977,1.977,0,0,1,.84,0,12.2,12.2,0,0,0,5.7-.06,13.977,13.977,0,0,1,2.76-.48c.96-.06,1.86-.12,2.82-.12.36,0,.48.18.24.6-.66,1.08-1.32,2.16-1.92,3.24l-.18.54a1.592,1.592,0,0,0,.36-.3,23.254,23.254,0,0,1,1.98-1.38,4.635,4.635,0,0,1,2.22-.72c1.08-.06,2.16-.06,3.3-.06a3.823,3.823,0,0,0,.42-.12.638.638,0,0,1,.48-.06,1.665,1.665,0,0,0,1.08,0,1.343,1.343,0,0,1,1.08-.06c.12-.06.24-.06.3-.18a2.157,2.157,0,0,0,.42-1.08,8.2,8.2,0,0,0,.12-1.14,3.508,3.508,0,0,0-.24-1.14c-.84-1.02-1.74-2.04-2.64-3.06a13.248,13.248,0,0,0-3.12-2.64.663.663,0,0,1,0-.48,2.6,2.6,0,0,1,1.2-.66,2.283,2.283,0,0,0,1.02-.48c.3-.24.66-.48,1.02-.72.6-.54,1.2-1.08,1.8-1.56a15.563,15.563,0,0,0,2.34-1.5,6.857,6.857,0,0,1,2.46-1.26,1.311,1.311,0,0,0,.3-.18q1.08-1.8,2.16-3.42a21.284,21.284,0,0,1,1.92-2.82A3.675,3.675,0,0,0,294.3-28.86Zm-13.26-3.78a31.886,31.886,0,0,1-6.12,12.36,32.667,32.667,0,0,1-10.68,9.36,2.259,2.259,0,0,1-.9.54.8.8,0,0,1-.96-.12,10.447,10.447,0,0,1-.84-.72,6.9,6.9,0,0,1-1.92-3.18,31.7,31.7,0,0,1-1.32-7.8,37.02,37.02,0,0,0,7.44-6.24,6.9,6.9,0,0,1,1.8-1.68c.72-.54,1.38-1.02,2.04-1.5,1.14-.72,2.28-1.44,3.48-2.16a6.954,6.954,0,0,1,5.58-.6,12.7,12.7,0,0,1,1.86.54A.791.791,0,0,1,281.04-32.64Zm55.98-7.92a8.036,8.036,0,0,0-5.94-1.26c-.66.12-1.32.18-1.98.3a9.282,9.282,0,0,0-1.86.36,36.176,36.176,0,0,0-4.56,2.34,61.36,61.36,0,0,0-7.02,4.32,34.014,34.014,0,0,0-6.24,5.52c-.78.9-1.56,1.92-2.28,2.94a.851.851,0,0,0,.24.84c1.74.6,3.42,1.08,5.16,1.5a2.9,2.9,0,0,0,3.12-.9,2.813,2.813,0,0,1,1.08-1.14c.78-.12,1.5-.24,2.28-.36a12.062,12.062,0,0,0,3.66-1.26c.72-.48,1.38-.96,2.1-1.44a7.39,7.39,0,0,1,2.28-1.14,13.333,13.333,0,0,0,3.12-1.74,7.876,7.876,0,0,1,3.6-1.44q.9-.18.9.72,0,5.85.18,11.7a16.057,16.057,0,0,1-1.56,7.68,6.388,6.388,0,0,1-1.56,2.04,4.022,4.022,0,0,1-2.34.9,21.13,21.13,0,0,0-8.58,1.98,38.168,38.168,0,0,1-3.48,1.8,7.124,7.124,0,0,0-2.82,1.5,27.858,27.858,0,0,0-2.34,2.28c-.36.42-.3.66.18.84a13.967,13.967,0,0,0,2.28.24c2.82-.3,5.64-.6,8.4-.96a3.133,3.133,0,0,0,1.26-.24c1.8-.66,3.54-1.38,5.22-2.1a.9.9,0,0,1,1.02.12,13.183,13.183,0,0,0,1.38,1.2,9.955,9.955,0,0,1,1.92,1.98,5.265,5.265,0,0,0,2.82,2.52,2.141,2.141,0,0,0,1.5.06,33.337,33.337,0,0,0,4.02-3,6.719,6.719,0,0,0,2.64-4.2c.06-.9.18-1.86.3-2.82a20.494,20.494,0,0,0,.78-4.26l.24-7.02a21.855,21.855,0,0,1,.9-4.8,16.011,16.011,0,0,1,1.2-2.76,22.516,22.516,0,0,0-1.02-2.82A26.814,26.814,0,0,0,337.02-40.56Zm11.04-5.1a.507.507,0,0,0-.42,0c-.72.3-1.38.6-2.04.9-.48.24-.54.6-.18.96.78.84,1.56,1.74,2.4,2.58a5.456,5.456,0,0,0,2.88,1.98c.9.36,1.32.06,1.26-.96a3.833,3.833,0,0,0-.36-1.68,7.949,7.949,0,0,0-.96-1.5c-.36-.42-.72-.9-1.14-1.32A6.029,6.029,0,0,0,348.06-45.66ZM343.44-39a5.751,5.751,0,0,0,2.58,2.76,1.274,1.274,0,0,0,1.38-.06,1.486,1.486,0,0,0,.66-1.26c-.06-.3-.12-.48-.18-.72a10.969,10.969,0,0,0-1.68-2.64,7.88,7.88,0,0,0-2.58-1.86,1.389,1.389,0,0,0-1.44.24,1.6,1.6,0,0,0-.06,1.38A9.922,9.922,0,0,0,343.44-39Z" transform="translate(-12.645 47.1)" fill="#fff"/>
</svg>
