<svg xmlns="http://www.w3.org/2000/svg" width="342.939" height="50.44" viewBox="0 0 342.939 50.44">
  <defs>
    <style>
      .cls-1 {
        fill: #333;
        fill-rule: evenodd;
      }
    </style>
  </defs>
  <path id="logo-black.svg" class="cls-1" d="M829.158,6389.64a13,13,0,0,0-5.7-5.94,24.484,24.484,0,0,0-2.52-1.02c-0.9-.3-1.86-0.6-2.82-0.84a4.734,4.734,0,0,0-2.879.06,0.905,0.905,0,0,1-.24-0.24v-3.78a10.662,10.662,0,0,0-4.02-8.52,2.3,2.3,0,0,0-2.7-.54c-0.36.12-.72,0.3-1.08,0.42-1.2.72-2.4,1.56-3.6,2.4a4.9,4.9,0,0,0-1.14,1.32c-0.12.3-.24,0.6-0.36,0.84-0.42.42-.36,0.72,0.12,1.02a2.837,2.837,0,0,1,.72.42,2.438,2.438,0,0,1,.54.6c0.18,0.66.36,1.32,0.48,1.98a3.4,3.4,0,0,1-.24,2.04,8.773,8.773,0,0,1-4.32,4.38,48.07,48.07,0,0,0-4.5,3.3,1.617,1.617,0,0,0-.42.48,1.368,1.368,0,0,0,.66-0.18l5.04-2.88a13.63,13.63,0,0,1,2.88-1.62,4.054,4.054,0,0,1,3.24,0,0.944,0.944,0,0,0,.72.06,33.477,33.477,0,0,0,3.42.48,1.131,1.131,0,0,1,.54.24l-0.48.36c-0.42.3-.9,0.6-1.32,0.96q-5.31,3.42-10.62,7.02a2.178,2.178,0,0,1-1.02.42,0.719,0.719,0,0,0-.72.6c-0.06.3-.12,0.66-0.18,1.02a2.131,2.131,0,0,0,1.14.48c0.96-.18,1.98-0.36,3-0.6a8.987,8.987,0,0,0,2.82-1.14c1.2-.84,2.34-1.68,3.48-2.58q1.08-.81,2.16-1.8c1.62-1.2,3.18-2.46,4.74-3.78a1.724,1.724,0,0,1,2.219-.06c0.84,0.48,1.74.96,2.58,1.44a0.908,0.908,0,0,1,.42.84,17.142,17.142,0,0,1-1.44,6.9,35.77,35.77,0,0,1-10.2,13.8,40.683,40.683,0,0,1-7.14,4.68q-3.78,1.98-7.74,3.6a9.573,9.573,0,0,0-1.38.6c-0.059.06-.179,0.12-0.239,0.18a1,1,0,0,1,.3.12,33.95,33.95,0,0,0,3.54-.9c2.28-1.02,4.56-2.04,6.78-3.06,2.46-1.14,4.92-2.22,7.38-3.36,1.62-.84,3.3-1.8,4.92-2.76a31.707,31.707,0,0,1,3-1.92,22.4,22.4,0,0,0,7.2-6.24,5.831,5.831,0,0,1,1.8-1.62,12.4,12.4,0,0,0,3.36-3.72,1.16,1.16,0,0,0,.3-0.54A5.186,5.186,0,0,0,829.158,6389.64Zm-35.279,12.06a5.721,5.721,0,0,0,.24-3.6,4.242,4.242,0,0,1-.12-2.58l0.72-1.2c0.06-.18.12-0.3,0.18-0.48a0.867,0.867,0,0,0-.42.12,1.8,1.8,0,0,0-.48.24c-0.6.18-.9,0-0.9-0.66a22.6,22.6,0,0,0-.3-3.42,1.026,1.026,0,0,0-.42-0.78,0.86,0.86,0,0,0-.66.3,9.909,9.909,0,0,0-1.619,2.28,11.186,11.186,0,0,0-1.74,2.94,3.033,3.033,0,0,0-.24,2.16,11.463,11.463,0,0,0,1.8,3.24,3.3,3.3,0,0,0,1.559,1.44,14.889,14.889,0,0,0,2.1.78A2.57,2.57,0,0,1,793.879,6401.7Zm93.9-16.56a31.243,31.243,0,0,0-3.3-2.16,19.414,19.414,0,0,1-3.84-3.12,30.67,30.67,0,0,1-3.12-3.78,1.463,1.463,0,0,1,0-.72,4.25,4.25,0,0,1,.06-0.9,3.961,3.961,0,0,0-.06-0.84,8.3,8.3,0,0,0-1.919-2.58,3.023,3.023,0,0,0-3.72-.9,11.032,11.032,0,0,0-2.4,1.14c-1.38.9-2.76,1.92-4.14,2.94a6.822,6.822,0,0,0-.9.96,8.574,8.574,0,0,0,1.2.84,0.77,0.77,0,0,0,.6.24,1.075,1.075,0,0,1,1.2,1.38l0.3,7.98a0.856,0.856,0,0,1-.96.96c-2.88.72-5.7,1.44-8.58,2.22-1.32.42-2.64,0.84-4.02,1.2a11.039,11.039,0,0,0-7.019,4.02,5.438,5.438,0,0,0-.78,1.14,0.917,0.917,0,0,0,.18,1.2,3.2,3.2,0,0,0,1.2.78,12.41,12.41,0,0,0,6.9,1.32,6.866,6.866,0,0,0,2.58-.84c0.78-.72,1.62-1.5,2.4-2.34a18.059,18.059,0,0,1,7.14-4.86c0.48-.18.66,0,0.66,0.42a32.753,32.753,0,0,0-.24,3.42v1.44a23.741,23.741,0,0,1-4.68,13.8,6.434,6.434,0,0,1-1.74,1.62,13.474,13.474,0,0,1-7.44,2.16,2.317,2.317,0,0,1-1.26-.18,1.453,1.453,0,0,1-.839-1.02l-0.36-.12c-0.54.72-1.08,1.38-1.62,2.04a2.844,2.844,0,0,0-.6.6c-0.24.54-.42,1.08-0.66,1.62a1.331,1.331,0,0,0,.72.78,14.406,14.406,0,0,0,2.28-.72c0.18,0,.3-0.06.479-0.06,0.6,0,1.26-.06,1.86-0.06a4.815,4.815,0,0,0,1.8-.36,57.12,57.12,0,0,0,7.8-4.68,18.557,18.557,0,0,0,4.02-3.78,47.448,47.448,0,0,0,3.24-4.5,6.147,6.147,0,0,0,.96-1.74c0.96-3.36,1.92-6.66,2.88-9.96a13.791,13.791,0,0,1,1.02-2.88,0.571,0.571,0,0,1,.6-0.48,13.827,13.827,0,0,1,9.059.72,4.364,4.364,0,0,0,1.74.42,2.157,2.157,0,0,0,.66.12,15.571,15.571,0,0,0,2.4.18,1.1,1.1,0,0,0,.48-0.72A4.678,4.678,0,0,0,887.778,6385.14Zm-5.1-.66a1.021,1.021,0,0,0-.42-0.06l-6.36.6c-0.539.12-.779-0.12-0.719-0.66,0.12-.78.3-1.56,0.42-2.28a28.16,28.16,0,0,0,.359-3.24,1.907,1.907,0,0,0,.18-0.54,0.614,0.614,0,0,1,.36.3c1.38,1.26,2.82,2.46,4.26,3.66,0.72,0.54,1.38,1.08,2.04,1.68a1.059,1.059,0,0,1,.48.54h-0.6Zm60.66,2.76-3.84-1.5a27.97,27.97,0,0,0-2.94-.96l-0.12.12a1.14,1.14,0,0,1-.779-0.12,3.349,3.349,0,0,1-.3-0.48,0.527,0.527,0,0,0,.42.06,0.554,0.554,0,0,0,.239-0.36,7.914,7.914,0,0,0-.419-1.92,6.586,6.586,0,0,0-1.44-2.52c-1.26-1.08-2.58-2.1-3.9-3.12a1.752,1.752,0,0,1-.54-0.12,2.25,2.25,0,0,0-1.26,0,9.708,9.708,0,0,0-1.08.6,0.964,0.964,0,0,1-.66.3,0.406,0.406,0,0,1-.54-0.36,22.782,22.782,0,0,1-.9-3.06,35.808,35.808,0,0,0-.6-3.66c-0.48-1.26-1.2-1.44-2.22-.54a1.991,1.991,0,0,0-.96.9,11.087,11.087,0,0,0-.84.84,1.725,1.725,0,0,0-.42,1.08,0.5,0.5,0,0,0,.72.54,0.585,0.585,0,0,1,.54.24c0.6,1.8,1.26,3.6,1.98,5.34a0.631,0.631,0,0,1-.3.96l-3.42,1.98c-0.24.12-.42,0.24-0.66,0.36a3.878,3.878,0,0,0-2.28,1.08c-0.6.6-1.2,1.26-1.74,1.92a1.634,1.634,0,0,0-.42,1.2,0.623,0.623,0,0,0,.48.24l0.54,0.18a4.137,4.137,0,0,0,.6.24c0.96,0.48,1.86.9,2.82,1.32,0.6,0.24.66,0.54,0.18,1.02-1.2,1.5-2.34,3-3.48,4.5a0.967,0.967,0,0,1-.24.42,1.306,1.306,0,0,0,.48-0.3c1.74-1.32,3.48-2.7,5.28-4.02a1.02,1.02,0,0,1,1.08-.12,6.248,6.248,0,0,0,4.98.12,0.421,0.421,0,0,1,.54.24l1.92,4.08a0.685,0.685,0,0,1-.36.9,12.15,12.15,0,0,0-2.04.84c-4.5,1.86-8.94,3.72-13.38,5.52a2.192,2.192,0,0,1-.9.18,0.519,0.519,0,0,1-.36-0.18c0.24-1.26.48-2.46,0.6-3.66a1.407,1.407,0,0,0,.12-0.66,1.62,1.62,0,0,0-.66.3c-1.44,1.86-2.759,3.72-4.079,5.7a8.144,8.144,0,0,0-.78,1.44,1.641,1.641,0,0,0,.18,1.5c0.36,0.48.66,0.96,0.96,1.38a5.052,5.052,0,0,0,5.219,2.04,13.982,13.982,0,0,0,6.24-2.4c0.9-.42,1.8-0.84,2.64-1.26,1.08-.48,2.1-0.96,3.12-1.44,1.2-.6,2.34-1.2,3.48-1.86a9.059,9.059,0,0,0,1.56-1.08,0.934,0.934,0,0,1,1.02-.42,1.059,1.059,0,0,1,.48.54c1.02,2.7,1.98,5.28,2.88,7.92a2.928,2.928,0,0,1-.66,3.24,0.68,0.68,0,0,0,0,1.2l2.879,3.06a2.155,2.155,0,0,0,.6.42,0.6,0.6,0,0,0,1.02-.36c0.12-.42.24-0.9,0.36-1.32a1.86,1.86,0,0,0-.24-1.38,21.139,21.139,0,0,1-.9-2.52c-0.6-1.86-1.14-3.72-1.62-5.64-0.66-1.8-1.379-3.6-2.039-5.4a1.435,1.435,0,0,1,.6-1.86c0.539-.3,1.139-0.6,1.739-0.96l1.56-1.62c1.08-.78,2.1-1.62,3.18-2.52a5.35,5.35,0,0,0,1.26-1.92,1.181,1.181,0,0,1,.6-0.9,1.877,1.877,0,0,0,.6-0.3,0.7,0.7,0,0,0,.24-0.6A3.161,3.161,0,0,0,943.338,6387.24Zm-2.64,1.62a19.906,19.906,0,0,1-3.18,1.98c-1.44.78-2.939,1.5-4.379,2.16-0.54.36-.9,0.24-1.02-0.42l-1.26-4.86a7.143,7.143,0,0,0,.54-0.9,5.41,5.41,0,0,0,.54-0.6,1.864,1.864,0,0,1,2.34-.9h1.5a5.39,5.39,0,0,1,2.759.9,11.724,11.724,0,0,1,2.28,1.92A1.082,1.082,0,0,1,940.7,6388.86Zm7.14-11.04a4.883,4.883,0,0,0-.9-2.4c-0.54-.66-1.08-1.32-1.68-1.98a1.769,1.769,0,0,0-2.7-.18,2.355,2.355,0,0,1-.84.18q-1.08.45-.36,1.26a24.127,24.127,0,0,1,2.04,2.28,6.723,6.723,0,0,0,3.24,2.22c0.9,0.24,1.32-.06,1.26-0.96A0.89,0.89,0,0,0,947.838,6377.82ZM940.4,6381a3.174,3.174,0,0,0,1.86,1.32,1.689,1.689,0,0,0,1.2-.24,0.946,0.946,0,0,0,.42-1.08,1.581,1.581,0,0,0-.36-1.26,42.68,42.68,0,0,0-2.94-3.6,3.49,3.49,0,0,0-1.5-.72,1.024,1.024,0,0,0-1.32.96,2.118,2.118,0,0,0,.18.84A40.865,40.865,0,0,0,940.4,6381Zm69.062,32.4a10.947,10.947,0,0,0-2.04-2.04,4.149,4.149,0,0,1-1.14-.6q-1.62-.9-3.24-1.98a15.176,15.176,0,0,1-1.32-.78,24.848,24.848,0,0,0-2.582-1.2,2.432,2.432,0,0,1-.54-0.3,0.77,0.77,0,0,1-.24-0.6,1.669,1.669,0,0,0-.48-1.26c-1.2-1.32-2.459-2.52-3.719-3.72a1.544,1.544,0,0,0-1.92-.3l-0.96.18a0.9,0.9,0,0,1-.66-0.24,0.851,0.851,0,0,1,.24-0.84c1.38-.6,2.7-1.32,4.08-1.98a6.085,6.085,0,0,0,1.619-1.44,2.477,2.477,0,0,0,.24-1.32c-0.06-.9.3-1.2,1.08-0.96a3.67,3.67,0,0,0,.72.3,0.9,0.9,0,0,1,.54,1.44c-0.48.6-.96,1.2-1.5,1.8a1.591,1.591,0,0,0-.3.36c0.12,0,.3-0.06.42-0.06a5.942,5.942,0,0,1,3.542,0,3.507,3.507,0,0,1,1.14.12,6.836,6.836,0,0,0,3.42,1.14,4.267,4.267,0,0,0,1.92-.42c-0.06-.36-0.12-0.78-0.18-1.14a4.635,4.635,0,0,0-.72-2.58,6.869,6.869,0,0,0-1.8-1.92,19.543,19.543,0,0,0-3.66-2.28,6.785,6.785,0,0,0-4.2-.6,2.278,2.278,0,0,0-2.159,1.44,3.189,3.189,0,0,1-.72,1.32,21.568,21.568,0,0,1-2.22.9l-2.34.9a0.638,0.638,0,0,1-.48-0.06l0.24-.36a16.46,16.46,0,0,0,2.04-2.46,3.336,3.336,0,0,1,1.68-1.32,13.138,13.138,0,0,1,1.98-.72,1.265,1.265,0,0,0,.839-0.24q0.27-.27-0.18-0.72a0.151,0.151,0,0,0,.12-0.18,2.577,2.577,0,0,0,0-.96,7.561,7.561,0,0,0-.779-1.14,1.967,1.967,0,0,0-.36-0.48,0.478,0.478,0,0,1-.12-0.54,0.563,0.563,0,0,1,.48-0.36,15.621,15.621,0,0,0,1.679-1.02c0.48-.12.96-0.3,1.44-0.42a5.777,5.777,0,0,1,1.922-.54,4.187,4.187,0,0,0,2.4-.72,2.52,2.52,0,0,0,1.2-1.98,3.12,3.12,0,0,0-.78-2.28,28.212,28.212,0,0,0-4.922-6.12,16.723,16.723,0,0,0-8.939-4.62,2.235,2.235,0,0,0-1.56.18,17.916,17.916,0,0,0-7.02,6c-0.06.12-.12,0.3-0.18,0.42a7.65,7.65,0,0,0,.9,1.5,6.107,6.107,0,0,0,1.38,1.08c1.32,0.12,2.7.24,4.02,0.3v-0.06c0.24,0.06.48,0.06,0.72,0.12a0.808,0.808,0,0,1,.54.3,1.223,1.223,0,0,1-.3,1.26,18.31,18.31,0,0,1-1.32,1.92,2.432,2.432,0,0,1-.54.3,11.345,11.345,0,0,1-2.4-.48c-0.36-.24-0.78-0.42-1.2-0.72a1.461,1.461,0,0,0-1.32-.12c-1.02.3-2.1,0.54-3.18,0.84a2.5,2.5,0,0,0-1.26,1.08,5.158,5.158,0,0,0-.54,1.62,20.694,20.694,0,0,1-.66,3.24q-0.9,2.52-1.98,5.04c-1.38,4.02-2.7,7.98-3.959,12a22.123,22.123,0,0,0-.72,4.8l-0.48,2.76c-0.18,1.02-.3,2.04-0.42,3.06a9.022,9.022,0,0,0,0,1.8,3.27,3.27,0,0,0,.72,1.44,0.5,0.5,0,0,0,.72.06,5.41,5.41,0,0,0,.6-0.54,1.8,1.8,0,0,1,.66-0.84,1.253,1.253,0,0,0,1.139-1.56,4.216,4.216,0,0,1,.6-2.4v-0.36l-1.259-.18a1.462,1.462,0,0,1-.72,0,0.577,0.577,0,0,1-.48-0.54,3.17,3.17,0,0,1,.06-0.78c0.12-1.68.3-3.36,0.48-5.04,0.54-2.22,1.139-4.32,1.8-6.48a1.651,1.651,0,0,1,.48-0.9,3.637,3.637,0,0,0,1.02-1.74,20.3,20.3,0,0,0,.48-2.04,1.551,1.551,0,0,1,.78-1.14,1.167,1.167,0,0,0,.84-0.54,2.023,2.023,0,0,0,.3-1.02c0.12-.24.18-0.54,0.3-0.84l3.18-6.72a1.059,1.059,0,0,1,.54-0.48,3.819,3.819,0,0,1,3.9,1.2c0.48,0.48.96,0.9,1.44,1.38l0.6,0.42a1.413,1.413,0,0,1-.78.3,5.688,5.688,0,0,0-4.2,2.16,1.446,1.446,0,0,1-.6.6l-1.74.84c-0.72.3-.72,0.72-0.12,1.14,0.84,0.66,1.68,1.32,2.52,1.86,0.66,0.3.66,0.66,0.06,1.02a0.947,0.947,0,0,1-.48.3,8.486,8.486,0,0,0-2.16,1.44c-0.6.6-1.2,1.26-1.8,1.92a0.394,0.394,0,0,0-.3.48,11.881,11.881,0,0,0,1.44,2.1,5.987,5.987,0,0,0,1.62,1.32c0.36,0.24.3,0.48-.06,0.66-0.96.6-1.86,1.26-2.7,1.86a18.751,18.751,0,0,0-1.92,1.8,0.657,0.657,0,0,0-.06.66,8.669,8.669,0,0,0,1.74,2.94,5.858,5.858,0,0,0,2.94,1.74c0.48,0.18.54,0.42,0.18,0.84a7.138,7.138,0,0,0-1.14,1.2,0.536,0.536,0,0,0,.12.9,4.923,4.923,0,0,0,3.12,1.2c0.48,0.24,1.02.42,1.56,0.66a6.1,6.1,0,0,0,1.68.78c1.38,0.24,2.82.42,4.2,0.54,0.6,0.06,1.2.12,1.8,0.12,0.78,0,1.5-.06,2.22-0.12a4.631,4.631,0,0,1,2.16.42,2.247,2.247,0,0,0,1.259,0,20.108,20.108,0,0,1,3.24-.96l7.862-.9c0.24,0,.54-0.06.78-0.06a1.7,1.7,0,0,0,.78-0.24,5.679,5.679,0,0,0,.3-1.08A1.847,1.847,0,0,0,1009.46,6413.4Zm-27.541-8.58a1.312,1.312,0,0,1-.3-0.18c0.06-.06.12-0.18,0.18-0.24a3.947,3.947,0,0,0,.24-0.9,1.094,1.094,0,0,1,.3-0.66,0.716,0.716,0,0,1,.54-0.3,0.38,0.38,0,0,1,.3.36,1.855,1.855,0,0,1,.12.48,1.213,1.213,0,0,1-.3,1.2A0.81,0.81,0,0,1,981.919,6404.82Zm20.7,11.1a19.9,19.9,0,0,1-2.16.3h-5.221a0.375,0.375,0,1,1,0-.6c0,0.06.06,0.18,0.06,0.24C997.758,6415.86,1000.22,6415.92,1002.62,6415.92Zm0.96-4.92a2.4,2.4,0,0,1-1.68,1.62c-1.14.3-2.282,0.66-3.482,0.96-2.759-.36-5.579-0.72-8.4-1.08a4.134,4.134,0,0,1-.48-0.18,2.61,2.61,0,0,0,.36-0.42,7.138,7.138,0,0,1,1.2-1.14c1.56-1.14,3.24-2.22,4.919-3.24a3.081,3.081,0,0,1,2.7-.3c0.84,0.36,1.622.66,2.462,1.02a0.882,0.882,0,0,1,.3.36H1001a6.949,6.949,0,0,0-1.082-.24,3.031,3.031,0,0,1,.962.54c0.9,0.54,1.8,1.14,2.7,1.74A0.225,0.225,0,0,1,1003.58,6411Zm69.72-25.32a12.587,12.587,0,0,0-2.64-4.8,25.261,25.261,0,0,0-4.26-4.14,22.272,22.272,0,0,0-5.16-3,4.151,4.151,0,0,0-2.1,0,26.591,26.591,0,0,0-9.3,5.52c-2.46,2.16-4.8,4.44-7.08,6.78-0.96.96-1.98,1.92-3,2.88a11.559,11.559,0,0,0-2.46,3.42,2.8,2.8,0,0,1-.3-0.6l-0.24-4.08a12.575,12.575,0,0,1-.12-3,11.316,11.316,0,0,0-.12-3.18,8.531,8.531,0,0,0-2.16-4.86,1.544,1.544,0,0,0-.9-0.06c-0.9,1.32-1.8,2.64-2.64,4.02a16.463,16.463,0,0,0-1.98,6.66,27.318,27.318,0,0,0,.36,7.02,19.374,19.374,0,0,0,2.4,6.42c0.54,0.96,1.14,1.92,1.68,2.88a9.206,9.206,0,0,0,2.22,2.58,1.4,1.4,0,0,1,.42.42,32.032,32.032,0,0,0,2.64,2.34,12.042,12.042,0,0,0,3.12,1.68,3.69,3.69,0,0,0,.84.06,1.977,1.977,0,0,1,.84,0,12.2,12.2,0,0,0,5.7-.06,13.978,13.978,0,0,1,2.76-.48c0.96-.06,1.86-0.12,2.82-0.12,0.36,0,.48.18,0.24,0.6-0.66,1.08-1.32,2.16-1.92,3.24l-0.18.54a1.591,1.591,0,0,0,.36-0.3,23.259,23.259,0,0,1,1.98-1.38,4.635,4.635,0,0,1,2.22-.72c1.08-.06,2.16-0.06,3.3-0.06a3.824,3.824,0,0,0,.42-0.12,0.638,0.638,0,0,1,.48-0.06,1.665,1.665,0,0,0,1.08,0,1.343,1.343,0,0,1,1.08-.06,0.51,0.51,0,0,0,.3-0.18,2.157,2.157,0,0,0,.42-1.08,8.2,8.2,0,0,0,.12-1.14,3.508,3.508,0,0,0-.24-1.14c-0.84-1.02-1.74-2.04-2.64-3.06a13.248,13.248,0,0,0-3.12-2.64,0.662,0.662,0,0,1,0-.48,2.6,2.6,0,0,1,1.2-.66,2.283,2.283,0,0,0,1.02-.48c0.3-.24.66-0.48,1.02-0.72,0.6-.54,1.2-1.08,1.8-1.56a15.563,15.563,0,0,0,2.34-1.5,6.857,6.857,0,0,1,2.46-1.26,1.312,1.312,0,0,0,.3-0.18q1.08-1.8,2.16-3.42a21.283,21.283,0,0,1,1.92-2.82A3.675,3.675,0,0,0,1073.3,6385.68Zm-13.26-3.78a31.885,31.885,0,0,1-6.12,12.36,32.667,32.667,0,0,1-10.68,9.36,2.259,2.259,0,0,1-.9.54,0.8,0.8,0,0,1-.96-0.12,10.446,10.446,0,0,1-.84-0.72,6.9,6.9,0,0,1-1.92-3.18,31.694,31.694,0,0,1-1.32-7.8,37.02,37.02,0,0,0,7.44-6.24,6.9,6.9,0,0,1,1.8-1.68c0.72-.54,1.38-1.02,2.04-1.5,1.14-.72,2.28-1.44,3.48-2.16a6.954,6.954,0,0,1,5.58-.6,12.7,12.7,0,0,1,1.86.54A0.791,0.791,0,0,1,1060.04,6381.9Zm55.98-7.92a8.036,8.036,0,0,0-5.94-1.26c-0.66.12-1.32,0.18-1.98,0.3a9.281,9.281,0,0,0-1.86.36,36.176,36.176,0,0,0-4.56,2.34,61.36,61.36,0,0,0-7.02,4.32,34.015,34.015,0,0,0-6.24,5.52c-0.78.9-1.56,1.92-2.28,2.94a0.851,0.851,0,0,0,.24.84c1.74,0.6,3.42,1.08,5.16,1.5a2.9,2.9,0,0,0,3.12-.9,2.813,2.813,0,0,1,1.08-1.14c0.78-.12,1.5-0.24,2.28-0.36a12.062,12.062,0,0,0,3.66-1.26c0.72-.48,1.38-0.96,2.1-1.44a7.39,7.39,0,0,1,2.28-1.14,13.334,13.334,0,0,0,3.12-1.74,7.876,7.876,0,0,1,3.6-1.44,0.648,0.648,0,0,1,.9.72q0,5.85.18,11.7a16.057,16.057,0,0,1-1.56,7.68,6.388,6.388,0,0,1-1.56,2.04,4.022,4.022,0,0,1-2.34.9,21.13,21.13,0,0,0-8.58,1.98,38.167,38.167,0,0,1-3.48,1.8,7.124,7.124,0,0,0-2.82,1.5,27.858,27.858,0,0,0-2.34,2.28c-0.36.42-.3,0.66,0.18,0.84a13.967,13.967,0,0,0,2.28.24c2.82-.3,5.64-0.6,8.4-0.96a3.133,3.133,0,0,0,1.26-.24c1.8-.66,3.54-1.38,5.22-2.1a0.9,0.9,0,0,1,1.02.12,13.186,13.186,0,0,0,1.38,1.2,9.954,9.954,0,0,1,1.92,1.98,5.265,5.265,0,0,0,2.82,2.52,2.141,2.141,0,0,0,1.5.06,33.339,33.339,0,0,0,4.02-3,6.719,6.719,0,0,0,2.64-4.2c0.06-.9.18-1.86,0.3-2.82a20.5,20.5,0,0,0,.78-4.26l0.24-7.02a21.856,21.856,0,0,1,.9-4.8,16.01,16.01,0,0,1,1.2-2.76,22.52,22.52,0,0,0-1.02-2.82A26.814,26.814,0,0,0,1116.02,6373.98Zm11.04-5.1a0.507,0.507,0,0,0-.42,0c-0.72.3-1.38,0.6-2.04,0.9a0.534,0.534,0,0,0-.18.96c0.78,0.84,1.56,1.74,2.4,2.58a5.456,5.456,0,0,0,2.88,1.98c0.9,0.36,1.32.06,1.26-.96a3.833,3.833,0,0,0-.36-1.68,7.949,7.949,0,0,0-.96-1.5c-0.36-.42-0.72-0.9-1.14-1.32A6.03,6.03,0,0,0,1127.06,6368.88Zm-4.62,6.66a5.751,5.751,0,0,0,2.58,2.76,1.274,1.274,0,0,0,1.38-.06,1.486,1.486,0,0,0,.66-1.26c-0.06-.3-0.12-0.48-0.18-0.72a10.968,10.968,0,0,0-1.68-2.64,7.88,7.88,0,0,0-2.58-1.86,1.389,1.389,0,0,0-1.44.24,1.6,1.6,0,0,0-.06,1.38A9.922,9.922,0,0,0,1122.44,6375.54Z" transform="translate(-788.031 -6367.44)"/>
</svg>
