<?xml version="1.0" encoding="UTF-8"?><svg id="_レイヤー_2" xmlns="http://www.w3.org/2000/svg" xmlns:xlink="http://www.w3.org/1999/xlink" viewBox="0 0 104.82 730.4"><defs><style>.cls-1{fill:#fff;}.cls-2{filter:url(#outer-glow-1);}</style><filter id="outer-glow-1" filterUnits="userSpaceOnUse"><feOffset dx="0" dy="0"/><feGaussianBlur result="blur" stdDeviation="20"/><feFlood flood-color="#000" flood-opacity=".2"/><feComposite in2="blur" operator="in"/><feComposite in="SourceGraphic"/></filter></defs><g id="_レイヤー_1-2"><g class="cls-2"><path class="cls-1" d="M31.26,37.98v2.04c0,.3-1.26,1.32-3.3,1.32h-.72V18.24c-1.08,1.14-2.16,2.22-3.3,3.18l-.84-.6c3.54-4.98,7.14-12.78,9-20.82l6.36,2.04c-.24,.72-.96,1.26-2.22,1.2-.54,1.38-1.14,2.7-1.74,3.96h4.26l2.52-2.52,4.5,4.2c-.48,.48-1.14,.54-2.34,.66-1.32,1.74-3.54,4.74-5.46,6.78h5.28l2.04-2.28,4.02,3.6c-.42,.42-1.2,.84-2.16,1.02v20.52c-.12,.24-1.68,1.14-3.18,1.14h-.78v-2.34h-11.94Zm-2.58,4.32c1.8,5.76,.84,10.14-.78,12.06-1.08,1.26-3.24,1.62-4.14,.3-.72-1.2-.06-2.58,1.14-3.48,1.5-1.56,3.06-5.4,2.76-8.88h1.02Zm4.92-33.3c-1.2,2.28-2.52,4.38-3.96,6.3l2.34,1.02h4.62c.78-2.1,1.68-5.1,2.34-7.32h-5.34Zm-2.34,16.98h4.14v-7.98h-4.14v7.98Zm0,10.26h4.14v-8.52h-4.14v8.52Zm1.38,6.06c6.72,7.2,2.28,13.8-.48,10.38,.66-3.3,.24-7.38-.42-10.14l.9-.24Zm4.68-.66c8.52,5.82,4.68,12.48,1.56,9.48,.12-3-1.14-6.72-2.28-9.18l.72-.3Zm1.5-23.64v7.98h4.44v-7.98h-4.44Zm4.38,18.24l.06-8.52h-4.44v8.52h4.38Zm-.66,4.74c9.6,3.78,5.88,11.22,2.46,8.22,.12-2.64-1.44-5.94-3.18-7.8l.72-.42Zm34.62-3.12c-.48,.54-1.08,.66-2.52,.72-2.04,3.42-4.62,6.3-7.86,8.7,4.02,1.74,8.64,2.88,13.62,3.6l-.06,.72c-1.92,.36-3.12,1.8-3.6,3.96-5.34-1.38-9.9-3.3-13.62-5.94-5.22,2.94-11.76,4.86-19.68,5.94l-.36-.96c6.96-1.56,12.84-3.9,17.52-7.08-2.76-2.58-4.92-5.7-6.54-9.54h-4.98l-.48-1.74h20.88l2.94-2.64,4.74,4.26Zm-23.22-4.38c0,.36-1.86,1.32-3.54,1.32h-.6v-15.66l4.44,1.92h18.18l2.16-2.28,4.62,3.54c-.3,.42-1.08,.84-2.04,1.02v9.48c-.06,.42-2.16,1.26-3.54,1.26h-.66v-2.28h-19.02v1.68Zm2.64-15.36c0,.42-1.8,1.32-3.42,1.32h-.66V.84l4.38,1.98h12.78l2.1-2.22,4.56,3.48c-.3,.36-1.08,.72-1.92,.9v12.48c-.06,.3-2.16,1.26-3.6,1.26h-.66v-1.74h-13.56v1.14Zm-2.64,4.68v7.26h4.02v-7.26h-4.02Zm1.62,15.18c1.8,3.12,4.44,5.52,7.68,7.5,2.52-2.16,4.56-4.68,6.06-7.5h-13.74Zm1.02-33.42v4.44h13.56V4.56h-13.56Zm13.56,10.68v-4.44h-13.56v4.44h13.56Zm-8.94,7.56v7.26h4.44v-7.26h-4.44Zm7.68,0v7.26h4.08v-7.26h-4.08Z"/><path class="cls-1" d="M66.35,83.46c2.34,.36,3.72,.66,4.92,1.44,1.62,1.08,3.6,3.42,3.6,5.22,0,1.32-.96,1.38-3.48,2.16-4.38,1.26-11.04,3.72-16.32,6.24,.24,3.36,.3,7.38,.3,9.3,0,1.68-.78,2.76-2.22,2.76-1.26,0-2.46-.72-2.46-2.64,0-1.38,.24-4.32,.3-7.32-5.52,3.12-9.6,6.72-9.6,10.14,0,3,3.24,4.56,9,4.56,8.82,0,12.24-1.86,14.94-1.86,2.34,0,3.9,.66,3.9,2.22,0,1.2-.42,2.04-2.46,2.58-2.16,.66-8.22,1.56-13.26,1.56-11.22,0-14.88-3.6-14.88-8.46s5.76-9.78,12.36-13.98c-.24-4.92-1.14-6.72-4.14-6.72-3.24,0-7.08,3.66-9.48,6.24-2.1,2.4-3.84,5.46-5.52,5.52-1.44,.06-2.28-1.08-2.28-2.88s2.04-3.18,4.68-5.82c3.12-3.24,5.94-7.08,8.1-10.68-1.5,.12-2.94,.24-4.38,.24-4.86,0-5.88-1.92-7.98-6.54l1.02-.66c2.28,2.16,3.72,3.54,7.98,3.48,1.68,0,3.6-.24,5.46-.6,.9-1.86,1.5-3.54,1.8-4.86,.3-1.02,.18-1.56-.96-2.1-.78-.36-2.04-.72-3.42-1.02l.06-1.02c1.14-.42,2.64-.9,3.66-.84,2.04,0,6.24,.96,6.24,2.64,0,.78-.48,1.2-1.14,2.46-.48,.96-1.14,2.34-1.86,3.66,2.76-.66,5.28-1.56,6.9-2.22,2.34-1.02,2.82-1.68,3.72-1.68,1.5,0,3,.54,3,1.98,0,.84-.6,1.5-1.86,2.04-2.22,1.14-7.98,3.18-14.1,4.38-1.26,2.1-2.88,4.74-5.28,7.92-.3,.36-.06,.66,.36,.42,1.92-1.08,4.08-2.1,6.48-2.1,3.72,0,6.06,2.4,6.66,6.6,4.68-2.4,10.26-4.86,13.56-6.6,.96-.54,1.14-1.14,.3-2.1-.6-.78-1.8-1.5-2.88-2.1l.66-.96Z"/><path class="cls-1" d="M79.43,148.44c-2.1,.48-3.6,2.4-3.96,4.2-9.06-3.72-17.82-9.96-22.2-16.98-3.6,4.32-9.48,9-16.02,12.9l4.14,1.8h7.86v-7.2l6.78,.6c-.12,.72-.6,1.26-1.92,1.5v5.1h7.8l2.4-2.46,5.1,3.78c-.36,.42-1.14,.84-2.1,1.02v14.88c-.06,.42-2.34,1.68-4.08,1.68h-.78v-1.8h-10.56c1.74,3.36,4.32,6.12,7.44,8.28,3.48-2.52,7.44-5.94,9.48-8.22l5.76,3.96c-.48,.54-.96,.72-2.22,.36-2.82,1.5-7.32,3.42-11.52,4.8,4.98,3.06,11.28,4.86,18.24,5.88l-.06,.66c-1.98,.48-3.42,2.04-4.02,4.38-12.06-3.18-20.34-8.82-24.48-20.1h-9.42v12.48c4.44-.66,9.48-1.44,14.58-2.22l.18,.96c-5.4,1.86-13.14,4.38-24.12,7.5-.3,.78-.84,1.2-1.38,1.38l-3.24-5.82c2.1-.18,5.34-.6,9.3-1.14v-31.5c-3.84,2.22-7.8,4.2-11.64,5.64l-.42-.84c9.6-4.92,21.36-15.06,24.42-21.96l8.04,1.86c-.18,.72-.96,1.02-2.52,1.2,5.52,5.52,15.84,9.84,25.26,12.54l-.12,.9Zm-38.34,3.66v5.82h21.36v-5.82h-21.36Zm21.36,13.56v-6h-21.36v6h21.36Z"/><path class="cls-1" d="M24.24,227.7l.84-.78c1.38,1.2,2.82,2.1,3.78,2.1,.84,0,1.8-.6,2.94-1.62,2.88-2.64,7.98-8.28,10.14-10.62,1.26-1.38,2.58-2.16,4.2-2.16,1.74,0,3.48,.6,5.46,2.58,6.54,6.42,12.24,14.82,23.64,21.06,2.1,1.2,2.88,2.7,2.88,4.38,0,1.44-.84,2.4-2.46,2.4-2.58,0-7.62-3.84-12.6-9-5.1-5.22-9.72-11.64-13.98-16.08-1.08-1.2-2.04-1.56-2.88-1.56-.72,0-1.44,.48-2.4,1.56-1.98,2.52-6.3,8.34-8.34,11.34-1.44,1.98-2.4,3.36-4.2,3.36s-4.38-1.62-5.76-3.36c-.66-.9-1.02-2.22-1.26-3.6Zm40.62-9.42c-1.38-1.86-3-3.78-5.94-6.12l.72-.96c3.3,1.14,6,2.7,7.62,4.2,1.56,1.32,2.34,2.7,2.28,3.96-.06,1.02-.72,1.68-1.74,1.68s-1.68-1.14-2.94-2.76Zm5.94-5.28c-1.38-1.68-3.3-3.78-6.36-5.76l.72-.96c3.54,.96,6.06,2.34,7.62,3.6,1.74,1.38,2.64,2.76,2.64,4.2,0,1.02-.6,1.74-1.62,1.74-1.08,0-1.68-1.08-3-2.82Z"/><path class="cls-1" d="M39.18,270.3c.84,1.8,1.86,3.6,3.42,3.6,2.22,0,9.36-1.8,12.18-2.64,1.62-.54,1.74-1.26,2.7-1.26,2.16,0,5.88,2.94,5.88,4.86,0,1.26-1.62,1.44-3.66,3.18-3.3,2.52-11.04,9.72-13.56,12.48-.48,.48-.24,.96,.3,.72,2.46-.9,5.94-2.04,10.14-2.04,7.8,0,14.46,4.98,14.28,13.5-.06,7.62-6.84,13.8-18.42,13.8-6.78,0-11.46-2.82-11.46-7.38,0-3.42,3-5.88,7.08-5.88s8.76,2.58,9.9,8.34c5.58-1.68,8.28-5.76,8.34-10.2,.18-5.22-3.72-10.02-10.86-10.02-8.4,0-14.28,5.52-19.26,11.94-1.08,1.44-1.62,1.8-2.7,1.74-.96,0-1.98-1.14-1.86-2.88,.06-1.26,.72-2.22,2.28-3.72,8.22-8.46,19.56-19.2,22.2-23.22,.66-1.02,.24-1.32-.54-1.2-1.98,.36-6.66,2.22-9.12,3.36-1.14,.54-2.04,1.5-3.12,1.5-2.58,0-4.98-3-5.34-4.86-.18-1.14-.12-2.34,.18-3.54l1.02-.18Zm14.64,42.12c-.78-4.38-3.54-6.78-6.84-6.78-2.22,0-3.78,1.2-3.78,3.12,0,2.16,2.64,3.78,7.98,3.78,.9,0,1.8-.06,2.64-.12Z"/><path class="cls-1" d="M41.52,351.48c.66,.84,1.8,1.68,2.88,1.68,.72,0,1.38-.12,3.12-1.02,4.86-2.16,11.58-6.3,18.54-6.3,8.1,0,12.72,5.28,12.72,10.98s-3.48,9.48-7.98,11.76c-4.5,2.34-11.82,3.06-18.42,2.64l-.06-1.08c11.58-1.02,21.9-4.92,21.9-14.04,0-4.5-3-7.98-8.22-7.98-5.64,0-11.64,5.16-14.52,7.08-2.88,2.04-3.9,3.06-5.4,3.06-1.74,0-4.02-1.86-4.74-3.42-.48-1.02-.48-2.1-.54-3.06l.72-.3Z"/><path class="cls-1" d="M27.3,408.84c.9,1.56,2.4,3,3.78,3,3.24,0,13.8-3.06,23.76-5.4,6.66-1.62,11.82-2.64,13.8-2.64,1.68,0,3.42,.24,4.5,.78,1.38,.6,2.16,1.44,2.16,2.52,0,.96-.9,1.86-2.4,1.86-1.26,0-3.12-.18-5.16-.18-2.82,0-6.84,.3-9.84,2.34-2.52,1.56-8.16,6.9-8.16,18.12,0,6.66,2.82,9.12,5.1,10.5,3.72,2.16,8.82,1.86,11.04,1.86,1.56,0,3.78,1.32,3.78,3,0,1.86-2.1,2.46-4.74,2.46-3.84,0-9.24-.36-13.14-3.24-3.84-2.64-6.06-6.36-6.06-13.38,0-7.5,2.82-15.24,9.48-20.28,.42-.3,.36-.66-.3-.54-6.72,1.62-15.06,4.44-18.66,6.3-1.2,.6-2.4,1.68-3.84,1.68-2.28,0-5.64-3.06-6.12-5.34-.18-1.08-.06-2.16,0-3.12l1.02-.3Z"/><path class="cls-1" d="M87.4,528.41s6.4,4.8,10.2,8.2c-.2,1.1-1.3,1.6-2.6,1.6h-26l10.3,2.3c-.4,1.3-1.6,2.2-3.7,2.1-3.1,4.3-8.3,9.9-13.1,14h16.8l5.5-6.7s6.1,4.7,10,8c-.3,1.1-1.3,1.6-2.7,1.6H55.8v15.5h19l5.5-6.9s6.2,4.7,10.2,8.1c-.3,1.1-1.3,1.6-2.8,1.6h-31.9v18.8c-.1,.5-2.7,2.1-7,2.1h-1.4v-20.9H14.1l-.9-2.8H47.4v-15.5H9.2l-.9-2.9H60.1c2.5-5.2,5.2-12.7,6.6-18.4H29.1c20.5,7.9,11.5,23.1,4.1,16.3-.1-5.5-2.9-11.8-5.7-15.9l.7-.4H6.4l-.9-2.8H47.4v-13.5H16.5l-.8-2.9h31.7v-12.5l11.5,1c-.2,1.3-1,2.2-3.1,2.6v8.9h17.2l5.4-6.8s6.3,4.7,10,8.1c-.3,1.1-1.2,1.6-2.6,1.6h-30v13.5h26l5.6-7Z"/><path class="cls-1" d="M57.9,625.91c2.4-1.1,4.7-2.1,6.9-2.1,5.2,0,11.4,4.2,11.4,7.1,0,1.8-1.9,2.7-2.1,6.1-.2,2.9-.5,6.5-.6,10.5,7.6-1.6,12.8-2.4,14.6-2.4,4.5,0,8.8,1.7,8.8,5.4,0,2.4-1.7,3.1-4.7,3.1-4.2,0-7.6-.9-15.2-.2-1.1,.1-2.4,.3-3.8,.5-.3,6.8-.9,15.4-2,19.8-1.1,4.7-3.8,7.8-7.8,7.8-1.8,0-2.7-.5-3.8-2.7-1.5-3.2-5.8-5.1-9.8-7l.6-2c4.6,1.3,9.5,2.6,11.4,2.6,1.6,0,2.7-.4,3.4-2.7,.8-2.9,1.3-9.7,1.4-14.8-9.3,1.5-19.9,4.1-27.1,6.2-.3,8.5-.5,17.8-.4,22.3,.3,9.8,2.3,11.3,14.8,11.3s20.4-2.7,23.1-2.7c3.7,0,7,1.4,7,4.3,0,2.2-1.4,3.3-4.8,4.1-4,1-12.4,1.6-22.4,1.6-15,0-23.3-3-23.8-14.9-.3-5.4-.2-14.6-.3-23.8-11,3.7-15.2,6.4-17.8,6.4-3,0-6.8-3.6-8.4-7.4-.6-1.4-.6-3.5-.5-5.7l1.3-.5c1.8,2.6,4.2,5.1,6.6,5.1s12-2.5,18.8-4.2c0-6.5-.1-12.3-.4-15.5-.2-2.9-.8-3.6-2.3-4.2-1.6-.8-3.8-.9-5.7-1.2l-.2-1.8c2.2-.8,4.6-1.8,7.3-1.8,4.5,0,11.1,3.9,11.1,6.7,0,1.9-1.7,2.4-2.2,6.4-.2,2-.4,5.5-.6,9.7,7-1.7,18.6-4.5,27-6.4,.1-5.7,.1-13.2-.1-17.3-.1-1.7-.9-2.5-2.7-3-1.6-.5-3.6-.7-5.9-.9l-.1-1.8Z"/></g><path class="cls-1" d="M9.9,493.35c-3.48,2.52-5.16,4.38-6.54,7.92l2.1,1.8c1.92,1.56,2.46,3,2.46,4.62,0,2.4-1.44,3.66-3.6,3.66-1.32,0-2.46-.42-3.36-1.26-.66-1.38-.96-3-.96-4.62,0-5.52,3.9-10.68,8.88-13.68l1.02,1.56Zm8.46,9.72c1.98,1.56,2.52,3,2.52,4.62,0,2.4-1.44,3.66-3.6,3.66-1.32,0-2.46-.42-3.36-1.26-.66-1.38-1.02-3-1.02-4.62,0-5.52,3.96-10.68,8.88-13.68l1.08,1.56c-3.48,2.52-5.16,4.38-6.54,7.92l2.04,1.8Z"/><path class="cls-1" d="M86.46,719.12c-1.98-1.62-2.52-3.06-2.52-4.62,0-2.4,1.44-3.66,3.6-3.66,1.32,0,2.46,.36,3.36,1.26,.66,1.38,.96,3,.96,4.62,0,5.52-3.9,10.68-8.82,13.68l-1.08-1.56c3.48-2.52,5.16-4.38,6.54-7.92l-2.04-1.8Zm12.9,0c-1.98-1.62-2.46-3.06-2.46-4.62,0-2.4,1.44-3.66,3.6-3.66,1.32,0,2.4,.36,3.36,1.26,.66,1.38,.96,3,.96,4.62,0,5.52-3.96,10.68-8.88,13.68l-1.02-1.56c3.42-2.52,5.16-4.38,6.54-7.92l-2.1-1.8Z"/></g></svg>