<svg xmlns="http://www.w3.org/2000/svg" width="685.91" height="921" viewBox="0 0 685.91 921">
  <defs>
    <style>
      .cls-1 {
        fill: #bf8c4e;
        fill-rule: evenodd;
        opacity: 0.1;
      }
    </style>
  </defs>
  <path id="menu-items-bg.svg" class="cls-1" d="M2151.06,3367.56a41.9,41.9,0,0,0-8.17-10.75,63.859,63.859,0,0,0-11.33-8.62,90.8,90.8,0,0,0-12.44-6.27,138.814,138.814,0,0,0-25.11-7.61,211.852,211.852,0,0,0-24.32-3.56c-7.38-.67-15.04-1.02-23.42-1.07-3.05-.02-6.08.02-9.02,0.06l-2.3.03-11.15.12c-14.5.15-29.56,0.13-44.74-.08-16.68-.25-31.45-0.72-45.16-1.45-17.02-.91-31.97-2.2-45.7-3.93-8.47-1.08-16.01-2.28-23.05-3.66a196.09,196.09,0,0,1-22.94-5.8c-8.74-2.85-15.73-6.08-21.37-9.86a39.538,39.538,0,0,1-8.28-7.26,27.087,27.087,0,0,1-4.93-8.55l-0.39-1.15L1804,3288l0.31,1.14a28,28,0,0,0,4.93,9.79,44,44,0,0,0,9.08,8.68,74.319,74.319,0,0,0,11.19,6.65,121.442,121.442,0,0,0,11.86,4.98,201.112,201.112,0,0,0,24,6.91c7.33,1.68,15.12,3.16,23.82,4.52,14.08,2.2,28.96,3.87,46.83,5.28,9.75,0.75,19.89,1.37,30.76,1.87-4.93,1.23-9.69,2.59-14.22,4.09-13.96,4.63-25.86,10.4-35.39,17.15a71.592,71.592,0,0,0-13.61,12.28,40.359,40.359,0,0,0-4.96,7.44,24.372,24.372,0,0,0-2.69,8.73,16.846,16.846,0,0,0,.27,5.04,15.423,15.423,0,0,0,2.34,5.47,29.865,29.865,0,0,0,10.04,8.9,45.532,45.532,0,0,0,12.71,4.7,65.068,65.068,0,0,0,12.36,1.37c0.86,0.01,1.72.01,2.57-.01a72.329,72.329,0,0,0,8.93-.74,75.93,75.93,0,0,0,10.56-2.26,67.052,67.052,0,0,0,9.57-3.56,52.969,52.969,0,0,0,8.42-4.82,34.327,34.327,0,0,0,11.88-13.73,15.241,15.241,0,0,0,1.22-4.64,11.278,11.278,0,0,0-1.02-5.72,15.692,15.692,0,0,0-5.01-5.86,26.574,26.574,0,0,0-3.42-2.15,36.655,36.655,0,0,0-3.52-1.57,54.836,54.836,0,0,0-13.53-3.08,80.016,80.016,0,0,0-9.81-.42c-0.95.02-1.89,0.06-2.83,0.11a62.709,62.709,0,0,0-11.91,1.78,30.193,30.193,0,0,0-10.91,4.85l-0.32.24a4.32,4.32,0,0,0-1.19,1.37,5.019,5.019,0,0,0,.28,4.84,10.845,10.845,0,0,0,4.66,4.32,11.751,11.751,0,0,0,5.48,1.34c2.38-.05,4.25-0.98,5.1-2.57a8.963,8.963,0,0,1,2.05-2.4,18.87,18.87,0,0,1,3.2-2.11,33.828,33.828,0,0,1,8.45-2.94,48.6,48.6,0,0,1,9.17-1.11h0.75a36.387,36.387,0,0,1,10.29,1.29,24.054,24.054,0,0,1,2.32.83,15.752,15.752,0,0,1,2.03,1.06,8.133,8.133,0,0,1,2.75,2.76,7.418,7.418,0,0,1,.96,3.61,12.2,12.2,0,0,1-.59,3.86,24.156,24.156,0,0,1-3.89,7.18,34.754,34.754,0,0,1-6.07,6.05,50.767,50.767,0,0,1-16.76,8.3,66.723,66.723,0,0,1-17.63,2.71c-1.1.02-2.23,0.02-3.33-.01a56.811,56.811,0,0,1-11.33-1.4,38.785,38.785,0,0,1-10.79-4.16,23.13,23.13,0,0,1-7.76-7.09,11.8,11.8,0,0,1-1.64-8.1,21.89,21.89,0,0,1,2.71-7.68,37.386,37.386,0,0,1,4.9-6.77,66,66,0,0,1,13.51-11.26c9.72-6.23,21.57-11.38,35.22-15.29a232.969,232.969,0,0,1,41.25-7.56c6.36-.62,13.01-1.04,19.7-1.24q4.545,0.06,9.09.09l11.27,0.04h5.16c6.09,0.7,11.62,1.55,16.91,2.59,4.43,0.87,8.68,1.91,12.61,3.1a75,75,0,0,1,12.06,4.69,33.94,33.94,0,0,1,9.77,6.95,16.233,16.233,0,0,1,4.43,8.71,17.466,17.466,0,0,1-1.01,8.67,30.638,30.638,0,0,1-4.25,7.74,62.346,62.346,0,0,1-13.39,12.89c-9.98,7.31-22.2,13.37-36.32,18.01-3.52,1.15-7.02,2.14-10.38,2.97l-2.73.63c-2.68.63-5.45,1.28-8.22,1.85-2.48.55-4.98,1.06-7.48,1.58-1.2.25-2.4,0.5-3.58,0.74l-1.42.28c-3.19.63-6.5,1.27-9.78,1.87-2.86.56-5.8,1.08-8.64,1.58l-2.6.46-11.36,1.91c-7.19,1.19-14.68,2.32-22.91,3.47-28.02,3.96-58.05,7.41-91.76,10.53q-13.485.6-26.98,1.23-6.975.315-13.94,0.62c-24.35,1.09-49.53,2.22-74.12,3.93-26.14,1.89-56.71,4.75-85.27,11.64-15.21,3.73-27.77,8.09-38.4,13.31a100.013,100.013,0,0,0-16.54,10.05c-2.4,1.84-4.71,3.81-7.07,6.02a68.044,68.044,0,0,0-6.29,6.73,42.343,42.343,0,0,0-5.09,7.84,27.137,27.137,0,0,0-2.81,9.56,23.487,23.487,0,0,0,2.04,11.77,35.228,35.228,0,0,0,8.84,11.64,65.653,65.653,0,0,0,12.06,8.44,112.217,112.217,0,0,0,12.51,5.85,189.444,189.444,0,0,0,24.67,7.74c7.41,1.84,15.3,3.48,24.11,5,7.49,1.29,15.25,2.43,23.7,3.47,13.96,1.73,28.75,3.11,46.55,4.35,27.55,1.85,57.39,3.01,91.23,3.55,16.24,0.22,33.12.24,51.3,0.05-3.68,1.02-7.24,2.17-10.64,3.43a98.857,98.857,0,0,0-23.58,12.42c-7.47,5.54-13.09,11.75-16.71,18.44a37.014,37.014,0,0,0-4.13,11.9,31.125,31.125,0,0,0,.83,13.92,36.6,36.6,0,0,0,8.82,14.91,57.62,57.62,0,0,0,16,11.41,87.354,87.354,0,0,0,17.65,6.4,112.254,112.254,0,0,0,17.2,2.93,144.718,144.718,0,0,0,16.45.58c4.99-.1,10.16-0.46,15.37-1.06a143.19,143.19,0,0,0,28.49-6.07,112.392,112.392,0,0,0,12.68-5.06,90.4,90.4,0,0,0,11.44-6.37,58.04,58.04,0,0,0,9.54-8.06,49.109,49.109,0,0,0,7.29-9.63,31.956,31.956,0,0,0,4.05-11.47,21.94,21.94,0,0,0-.08-6.63,20.948,20.948,0,0,0-2.6-7.24,26.047,26.047,0,0,0-6.01-6.94,36.391,36.391,0,0,0-4-2.87,48.114,48.114,0,0,0-4.29-2.33,68.888,68.888,0,0,0-17.5-5.27,95.392,95.392,0,0,0-16.92-1.64c-0.79-.01-1.57,0-2.35.01a90.915,90.915,0,0,0-13.54,1.31,74.06,74.06,0,0,0-14.28,4.02,56.017,56.017,0,0,0-12.26,6.56,34.824,34.824,0,0,0-9.45,9.52,19.306,19.306,0,0,0-2.78,6.63,14.889,14.889,0,0,0,1.05,9.42l0.36,0.83a8.888,8.888,0,0,0,1,1.67,12.791,12.791,0,0,0,9.86,4.78,8.342,8.342,0,0,0,2.16-.32c3.9-1.13,4.86-4.97,2.14-8.56a5.406,5.406,0,0,1-.75-2.98,12.218,12.218,0,0,1,.97-4.39,24.854,24.854,0,0,1,6.02-8.33,42.889,42.889,0,0,1,9.42-6.57,55.977,55.977,0,0,1,11.78-4.45,66.188,66.188,0,0,1,15.53-2.08,83.418,83.418,0,0,1,12.82.76c2.8,0.41,5.29.88,7.58,1.43a48.984,48.984,0,0,1,7.22,2.34c1.12,0.48,2.24,1.03,3.31,1.62a26.288,26.288,0,0,1,2.97,1.95,19.126,19.126,0,0,1,4.46,4.8,16.99,16.99,0,0,1,2.28,5.58,19.977,19.977,0,0,1,.3,5.71,27.268,27.268,0,0,1-3.35,10.62c-3.44,6.4-8.81,12.02-15.97,16.69a95.3,95.3,0,0,1-23.55,10.58,124.321,124.321,0,0,1-27.72,5.12c-1.88.13-3.8,0.21-5.7,0.25a132.039,132.039,0,0,1-24.75-1.83,123.251,123.251,0,0,1-15.28-3.6,84.4,84.4,0,0,1-14.26-5.77,55.491,55.491,0,0,1-6.18-3.76,38.76,38.76,0,0,1-5.11-4.34,25.323,25.323,0,0,1-6.05-10.17,25.7,25.7,0,0,1-.82-10.91,34.282,34.282,0,0,1,3.19-10.28,53.769,53.769,0,0,1,14.16-17.34,87.286,87.286,0,0,1,20.96-12.73,130.7,130.7,0,0,1,25.67-8.06c3.55-.75,7.38-1.4,11.36-1.95,0,0,4.92-.1,6.61-0.14,4.88-.09,10.18-0.17,16.19-0.22h0.07c1.85,0.12,3.69.24,5.54,0.38,5.12,0.37,10.18.81,15.02,1.33,5.85,0.6,10.63,1.16,15.05,1.78,11.18,1.57,21.02,3.4,30.09,5.59,5.06,1.21,10.04,2.59,14.81,4.11a151.279,151.279,0,0,1,14.33,5.31c10.06,4.28,18.39,9.34,24.76,15.03,6.78,6.04,11.38,13.01,13.31,20.17a35.98,35.98,0,0,1-.49,20.78,51.306,51.306,0,0,1-10.36,17.99,65.552,65.552,0,0,1-7.76,7.64,68.536,68.536,0,0,1-9.37,6.38,137.5,137.5,0,0,1-22.28,10.04,258.827,258.827,0,0,1-24.9,7.45c-8.09,2.05-16.72,3.89-26.39,5.62-16.76,3.06-34.88,5.42-55.39,7.21q-3.315.285-6.64,0.54-7.59.12-15.2,0.23-14.3.21-28.58,0.45-15,.255-30,0.56c-11.06.23-21.17,0.46-30.89,0.72-6.09.03-11.15,0.09-15.9,0.18l-1.99.05c-6.25.13-11.9,0.33-17.26,0.63-2.92.14-5.26,0.29-7.29,0.47-10.2.39-20.24,0.83-29.85,1.33-15.66.78-30,1.67-43.82,2.71-33.78,2.59-60.97,5.72-85.56,9.86-8.08,1.38-14.64,2.61-20.64,3.88-8.03,1.68-14.42,3.19-20.13,4.72-7.04,1.87-13.39,3.76-19.4,5.79-3.22,1.06-6.38,2.16-9.41,3.28-2.91,1.08-5.9,2.27-9.13,3.63-13.38,5.67-24.05,11.8-32.64,18.72a79.451,79.451,0,0,0-12.64,12.55,50.425,50.425,0,0,0-8.46,15.23,34.281,34.281,0,0,0-1.06,18.41c1.46,6.65,5.31,13.62,10.84,19.61a83.192,83.192,0,0,0,20.16,15.65,148.381,148.381,0,0,0,23.35,10.7c14.16,5.13,29.82,8.96,47.87,11.73a390.393,390.393,0,0,0,46.67,4.1c7.25,0.2,14.51.25,21.53,0.3l1.14,0.01,22.49,0.08c16.55,0.01,30.29-.04,43.06-0.14-1.33.05-2.58,0.11-3.74,0.17-7.27.33-14.89,0.95-22.66,1.84-4.47.54-8.21,1.05-11.75,1.61-4.05.64-8.08,1.36-11.99,2.14-8.51,1.73-16.68,3.77-24.29,6.07a220.49,220.49,0,0,0-23.62,8.59,153.834,153.834,0,0,0-20.97,10.95,102.684,102.684,0,0,0-8.72,6.13,61.047,61.047,0,0,0-7.01,6.39c-4.44,4.77-6.66,9.09-6.6,12.87,0.24,4.21,2.64,7.81,6.97,10.41,4.3,2.57,10.32,3.99,17.43,4.13,0.86,0.02,1.75.02,2.64,0a78.046,78.046,0,0,0,8.57-.67,91,91,0,0,0,12.01-2.44,95.987,95.987,0,0,0,11.84-4.09,84.533,84.533,0,0,0,10.63-5.39,70.99,70.99,0,0,0,8.64-6.15,35.546,35.546,0,0,0,6.33-6.57c1.73-2.46,2.5-4.75,2.31-6.8-0.2-2.34-1.61-4.46-4.09-6.13-4.25-2.81-11.01-4.2-19.56-4.03l-0.19.01a69.715,69.715,0,0,0-13.72,1.73,62.294,62.294,0,0,0-7.9,2.32,51.9,51.9,0,0,0-7.96,3.69l-1.06.61c-2.91,1.68-4.2,3.64-3.54,5.4a4.373,4.373,0,0,0,2.55,2.32,9.576,9.576,0,0,0,3.71.59,18.806,18.806,0,0,0,8.5-2.42,11.161,11.161,0,0,0,2.21-1.61,9.668,9.668,0,0,1,2.17-1.48,28.852,28.852,0,0,1,3.61-1.51,51.478,51.478,0,0,1,14.61-2.44c4.29-.09,7.95.43,10.32,1.46a4.335,4.335,0,0,1,2.62,2.4,5.589,5.589,0,0,1-.86,4.43,23.984,23.984,0,0,1-4.86,5.73,54.875,54.875,0,0,1-7.55,5.76,78.13,78.13,0,0,1-20.75,9.1,81.8,81.8,0,0,1-11.3,2.35,67.209,67.209,0,0,1-7.43.59c-0.98.02-1.96,0.02-2.9-.02-6.03-.19-11.06-1.41-14.16-3.45a8.68,8.68,0,0,1-4.31-7.55c0.15-3.11,2.38-6.94,6.46-11.1a77.5,77.5,0,0,1,15.11-11.52,149.364,149.364,0,0,1,20.02-9.94,203.453,203.453,0,0,1,22.23-7.63c7.11-2,14.74-3.75,22.66-5.19,7.21-1.28,14.63-2.31,22.07-3.04,7.26-.69,14.34-1.12,21.07-1.27,0.47-.02.94-0.03,1.41-0.04,1.1-.02,2.18-0.03,3.26-0.04,3.75-.01,7.6.09,11.66,0.3,5.64,0.57,10.56,1.29,15.06,2.19a66.229,66.229,0,0,1,14.96,4.59c4.18,1.98,6.99,4.31,8.33,6.94,1.51,2.91,1.26,6.43-.71,10.18-1.98,3.82-5.82,8.05-11.1,12.24a117.664,117.664,0,0,1-18.29,11.62,191.076,191.076,0,0,1-22.05,9.81,208.623,208.623,0,0,1-23.58,7.28c-1.83.44-3.81,0.9-5.94,1.33l-2.2.45c-1.3.27-2.59,0.54-3.87,0.8l-6.07,1.18-6.05,1.12c-16.03,2.89-32.18,5.42-48.01,7.52-15.28,2.04-31.18,3.91-47.26,5.55-14.62,1.51-29.72,2.9-44.8,4.12l-3.67.16c-4.9.22-9.8,0.46-14.71,0.69l0.12-.15-4.32.34-0.83.05q-12.72.615-25.48,1.28c-18.36.98-32.49,1.85-45.79,2.84-18.7,1.41-33.3,2.84-47.35,4.67a446.107,446.107,0,0,0-50.27,9.14c-9.3,2.3-18.13,4.94-26.23,7.83-4.57,1.64-8.92,3.36-12.94,5.11-4.23,1.84-8.37,3.84-12.31,5.95-3.98,2.14-7.58,4.23-10.98,6.39a116.653,116.653,0,0,0-9.88,6.95,66.851,66.851,0,0,0-8.05,7.45,34.155,34.155,0,0,0-5.3,7.6,19.249,19.249,0,0,0-1.41,3.72,15.83,15.83,0,0,0-.57,3.57,14.914,14.914,0,0,0,1.27,6.59c1.65,3.74,4.73,7.1,9.42,10.28a67.314,67.314,0,0,0,14.15,6.97,142.187,142.187,0,0,0,16.57,4.96,326.574,326.574,0,0,0,37.15,6.35c11.97,1.42,25.09,2.57,40.13,3.51,13.07,0.8,27.11,1.42,41.73,1.84,14.05,0.4,28.45.63,42.8,0.69,10.24,0.04,20.89-.02,31.77-0.18a177.341,177.341,0,0,0-21.79,6.9,145.341,145.341,0,0,0-29.99,15.7,98.526,98.526,0,0,0-11.25,9.09c-1.52,1.42-3,2.94-4.51,4.65a54.614,54.614,0,0,0-3.71,4.65,37.839,37.839,0,0,0-4.94,9.17,25.556,25.556,0,0,0-1.17,4.44,20.245,20.245,0,0,0-.23,4.32,17.052,17.052,0,0,0,2.54,8.05,23.017,23.017,0,0,0,6.64,6.67c5.28,3.62,12.71,6.2,22.08,7.66a114.245,114.245,0,0,0,13.93,1.27c2.43,0.1,5.02.12,7.72,0.06,2.4-.04,4.96-0.16,7.61-0.33,5.5-.36,11.02-1.01,16.41-1.91a167.169,167.169,0,0,0,33.8-9.46c2.93-1.17,5.54-2.29,7.96-3.44,2.49-1.17,4.98-2.46,7.43-3.85,9.02-5.16,16.71-11.17,22.24-17.38a37.786,37.786,0,0,0,6.1-9,15.648,15.648,0,0,0,1.53-8.67,12.461,12.461,0,0,0-4.55-7.71,26.892,26.892,0,0,0-10.05-4.98,67.175,67.175,0,0,0-13.06-2.33c-2.36-.18-4.84-0.25-7.37-0.2a89.388,89.388,0,0,0-8.94.65,97.8,97.8,0,0,0-18.55,4.21,99.374,99.374,0,0,0-17.53,7.63,66.754,66.754,0,0,0-13.6,9.73,32.084,32.084,0,0,0-4.56,5.33,15.088,15.088,0,0,0-2.4,5.52l-0.03.15a3.078,3.078,0,0,0,1.16,2.9c0.84,0.73,2.46,1.58,5.35,1.52a16.847,16.847,0,0,0,3.13-.37c4.85-1.02,8.88-3.67,9.37-6.16a2.968,2.968,0,0,0-.02-1.11,4.3,4.3,0,0,1,.3-2.42,12.659,12.659,0,0,1,1.98-3.24,35.86,35.86,0,0,1,8.35-7.1,68.369,68.369,0,0,1,12.47-6.19,77.969,77.969,0,0,1,14.36-3.86,70.848,70.848,0,0,1,10.33-.97c1.15-.02,2.33-0.02,3.48.02a60.169,60.169,0,0,1,11.8,1.45,23.762,23.762,0,0,1,8.17,3.26,8.292,8.292,0,0,1,3.55,4.89,11.218,11.218,0,0,1-.78,6.97,29.678,29.678,0,0,1-5.21,8.16,62.378,62.378,0,0,1-8.9,8.4,91.449,91.449,0,0,1-11.97,7.96,109.2,109.2,0,0,1-14.51,6.75,155.313,155.313,0,0,1-15.84,5.18,146,146,0,0,1-31.09,4.92c-0.79.04-1.57,0.06-2.33,0.08a108.141,108.141,0,0,1-11.23-.38,75.674,75.674,0,0,1-11.48-1.94c-6.59-1.68-12-4.17-16.04-7.41a20.362,20.362,0,0,1-4.57-5.01,14.248,14.248,0,0,1-1.33-2.8,14.885,14.885,0,0,1-.63-3.12,19.1,19.1,0,0,1,.94-7.07,32.389,32.389,0,0,1,3.86-7.77,44.289,44.289,0,0,1,2.99-4.03c1.05-1.28,2.29-2.65,3.69-4.06a80.807,80.807,0,0,1,9.37-8.07,122.354,122.354,0,0,1,25.81-14.42,166.34,166.34,0,0,1,31.3-9.51c4.99-1.02,10.3-1.86,15.78-2.5l1.81-.21,3-.07c1.61-.04,3.21-0.08,4.82-0.11q3.06-.06,6.11-0.11c1.01,0.04,2.01.09,2.99,0.15l2.29,0.15c1.38,0.08,2.76.16,4.12,0.28l1.85,0.13c1.49,0.11,2.99.22,4.46,0.37l3.12,0.28c0.65,0.06,1.29.14,1.94,0.21l2.21,0.24c0.64,0.07,1.27.14,1.89,0.22l3.03,0.39c1.29,0.15,2.57.34,3.81,0.53,0.68,0.1,1.36.2,2.01,0.29a183.468,183.468,0,0,1,21.42,4.54l1.13,0.33c1.28,0.38,2.49.74,3.71,1.16,1.31,0.41,2.55.86,3.85,1.34l0.66,0.23a87.7,87.7,0,0,1,8.18,3.62c10.41,5.34,16.69,12.03,18.68,19.93,2.26,8.48-.65,18.27-8.4,28.31a82.961,82.961,0,0,1-15.88,15.35,115.1,115.1,0,0,1-10.86,7.29c-2.1,1.25-4.01,2.32-6.03,3.34-2.15,1.09-4.35,2.12-6.56,3.08a216.628,216.628,0,0,1-29.4,10.05c-9.41,2.55-19.51,4.83-30.86,6.98-19.25,3.58-39.06,6.25-60.57,8.17-4.59.41-9.4,0.8-14.7,1.17l-1.13.07q-14.775.24-29.51,0.43-11.52.165-23.07,0.33c-26.55.38-48.86,0.72-71.45,1.19q-8.31.165-16.64,0.36l-5.07.12-4.26,4.95,4.23-.15c19.88-.7,40.65-1.26,63.5-1.73,9.41-.19,19.06-0.37,29.48-0.53,13.62-.22,27.42-0.38,40.76-0.54l3.06-.04c16.06-.17,31.75-0.27,43.63-0.33l9.69-.05c11.1-.06,22.58-0.12,33.94-0.22l0.66-.01c6.8-.07,13.83-0.15,20.82-0.3,8.7-.18,16.06-0.42,23.14-0.78,16.66-.81,32.11-2.11,47.23-3.96a446.762,446.762,0,0,0,50.51-8.93c9.02-2.16,17.86-4.67,26.28-7.47a229.555,229.555,0,0,0,25.8-10.27,144.207,144.207,0,0,0,22.59-13.13,78.436,78.436,0,0,0,15.74-14.63,39.231,39.231,0,0,0,7.46-14.22,25.909,25.909,0,0,0,.15-12.82c-1.91-7.66-7.64-14.38-17.01-19.98a87.947,87.947,0,0,0-14.31-6.71,156.561,156.561,0,0,0-16.58-4.99,292.1,292.1,0,0,0-37.49-6.3c-23.43-2.59-50.09-3.78-83.89-3.75-8.49.03-15.46,0.09-21.96,0.2-2.28.04-4.56,0.09-6.84,0.13q-7.65.165-15.35,0.38c-7.14.2-14.38,0.46-21.19,0.72-7.02-.21-13.34-0.48-19.28-0.82-1.55-.11-3.1-0.2-4.66-0.3-2.19-.13-4.39-0.26-6.54-0.43l-8.22-.66-8.09-.82c-1.14-.11-2.25-0.25-3.36-0.38-0.64-.08-1.27-0.15-1.93-0.23-2.93-.32-5.81-0.73-8.59-1.13l-1.68-.25c-7.92-1.24-14.06-2.4-19.33-3.66a132.928,132.928,0,0,1-16.99-4.99,70.857,70.857,0,0,1-13.63-6.61,29.407,29.407,0,0,1-8.85-8.26c-0.12-.19-0.25-0.39-0.38-0.58-0.15-.21-0.29-0.41-0.36-0.53l-0.7-1.41a8.79,8.79,0,0,1-.69-1.73c-0.08-.25-0.16-0.5-0.27-0.8a4.9,4.9,0,0,1-.22-0.93l-0.3-1.6-0.08-1.77a5.352,5.352,0,0,1,.03-1.05,25.465,25.465,0,0,1,4.56-12.56,50.48,50.48,0,0,1,5.28-6.71l1.66-1.74c0.33-.35.71-0.7,1.08-1.05,0.23-.21.46-0.43,0.68-0.64,0.81-.81,1.77-1.63,2.69-2.42,0.38-.33.75-0.65,1.1-0.96a129.227,129.227,0,0,1,19.21-13.05,197.221,197.221,0,0,1,23.78-11.39c5.17-2.04,9.17-3.51,13-4.76,1.67-.58,3.4-1.11,5.07-1.63l1.57-.49c0.7-.22,1.41-0.42,2.12-0.62,0.4-.11.81-0.23,1.19-0.34,0.41-.11.81-0.23,1.22-0.34,0.7-.21,1.41-0.41,2.13-0.59l1.42-.37c1.74-.45,3.54-0.92,5.31-1.32l1.22-.29c0.71-.17,1.43-0.34,2.14-0.49l3.39-.71c1.11-.25,2.21-0.45,3.31-0.65l3.32-.62,3.79-.6c0.93-.15,1.87-0.3,2.81-0.41l3.31-.43c0.69-.1,1.36-0.17,2.03-0.23,0.39-.04.78-0.08,1.15-0.12l1.11-.12c0.66-.07,1.32-0.14,1.88-0.19,3.62-.11,7.23-0.21,10.81-0.29q3.48-.06,6.93-0.11a443.345,443.345,0,0,1,47.28,1.63,191.051,191.051,0,0,1,20.75,3.12,91.213,91.213,0,0,1,17.21,5.27c5.12,2.22,9.03,4.8,11.6,7.64a16.115,16.115,0,0,1,3.06,4.82l0.12,0.32a15.546,15.546,0,0,1,.76,2.44,14,14,0,0,1,.28,2.88c-0.03,4.22-2.03,8.8-5.77,13.25-4.12,4.9-10.48,9.68-17.9,13.45a83.917,83.917,0,0,1-25.51,8.17,73.675,73.675,0,0,1-9.44.81c-0.89.02-1.77,0.02-2.62,0a30.9,30.9,0,0,1-9.13-1.34,7.347,7.347,0,0,1-4.21-2.96,5.323,5.323,0,0,1,.04-4.86,16.312,16.312,0,0,1,5.31-6.1,35.807,35.807,0,0,1,9.89-4.99,50.058,50.058,0,0,1,11.57-2.3q1.44-.12,2.73-0.15a15.3,15.3,0,0,1,5.7.65,2.034,2.034,0,0,1,1.53,2.37,5.712,5.712,0,0,1-.93,2.45,8.37,8.37,0,0,1-.95,1.23c-0.17.18-.35,0.35-0.5,0.48-0.05.04-.1,0.07-0.13,0.09l0.31,0.3-0.34-.29c-1.98,1.25-2.73,2.68-2.1,4.02a4.01,4.01,0,0,0,2.51,1.93,7.43,7.43,0,0,0,2.38.3,13.234,13.234,0,0,0,6.37-1.92,15.731,15.731,0,0,0,2.21-1.72,17.1,17.1,0,0,0,1.3-1.39,13.971,13.971,0,0,0,1.61-2.45,9.335,9.335,0,0,0,1.09-4.52,6.736,6.736,0,0,0-1.85-4.38,11.665,11.665,0,0,0-5.28-3.1,26.2,26.2,0,0,0-6.98-1.02c-0.7-.02-1.4-0.02-2.12-0.01-1.68.03-3.47,0.16-5.47,0.38a73.231,73.231,0,0,0-16.13,3.62,57.253,57.253,0,0,0-7.75,3.38,41.419,41.419,0,0,0-6.3,4.08c-3.4,2.7-5.76,5.65-6.81,8.52a8.316,8.316,0,0,0,1.15,8.33,15.326,15.326,0,0,0,7.89,4.89,42.021,42.021,0,0,0,12.13,1.56c0.57,0,1.15,0,1.73-.01a89.007,89.007,0,0,0,12.34-1.16,96.041,96.041,0,0,0,14.91-3.69,92.745,92.745,0,0,0,13.92-5.87c8.12-4.24,14.97-9.54,19.3-14.93,4.04-4.98,6.11-10.12,5.98-14.87-0.08-4.27-1.87-8.34-5.48-12.47a38.468,38.468,0,0,0-13.21-9.22,90.177,90.177,0,0,0-18.48-5.7,195.65,195.65,0,0,0-21.65-3.12c-0.75-.07-1.51-0.14-2.28-0.2l33.5-.95c14.35-.44,29.65-0.93,45-1.76,8.43-.46,15.99-0.96,23.12-1.53,8.63-.7,16.46-1.5,23.95-2.47,8.98-1.15,17.26-2.57,25.3-4.32a235.868,235.868,0,0,0,26.16-7.27,165.3,165.3,0,0,0,24.98-10.79,94.76,94.76,0,0,0,19.6-13.68,51.95,51.95,0,0,0,6.48-7.24,32.6,32.6,0,0,0,3.95-7.1,19.6,19.6,0,0,0,.81-13.05,22.742,22.742,0,0,0-7.5-10.73,47.914,47.914,0,0,0-13.39-7.64c-9.67-3.8-22.25-6.25-37.39-7.25-1.79-.12-4.47-0.21-7.65-0.27,6.14-.08,12.19-0.17,18.09-0.27,5.58-.09,11.15-0.2,16.68-0.3,7.62,0.03,14.55.08,21.19,0.16,16.33,0.21,31.53.59,46.47,1.16,15.67,0.59,31.43,1.5,46.83,2.69q1.815,0.135,3.63.3l0.38,0.02c11.32,1.47,22.32,3.22,32.71,5.2,8.01,1.52,15.14,3.07,21.79,4.74,8.01,1.99,15.09,4.01,21.65,6.19a203.652,203.652,0,0,1,21.08,8.22,128.127,128.127,0,0,1,19.49,10.96,76.8,76.8,0,0,1,15.7,14.13,53.054,53.054,0,0,1,9.44,16.31,31.178,31.178,0,0,1,1.22,16.06,35.6,35.6,0,0,1-6.24,13.92c-5.55,7.73-13.77,14.47-25.15,20.61a139.184,139.184,0,0,1-22.58,9.48c-3.2.81-6.22,1.46-9.23,2a135.043,135.043,0,0,1-20.7,2.05l-1,.01a133.9,133.9,0,0,1-23.05-1.63,130.681,130.681,0,0,1-23.34-5.84,57.7,57.7,0,0,1-5.38-2.34,40.784,40.784,0,0,1-4.87-2.95,25.544,25.544,0,0,1-7.09-7.46,20.332,20.332,0,0,1-2.89-8.51,22.746,22.746,0,0,1,.62-8.29,34.4,34.4,0,0,1,8.08-14.3,49.613,49.613,0,0,1,13.91-10.62,62.268,62.268,0,0,1,18.17-6.13,65.041,65.041,0,0,1,10.02-.98l0.28-.01c1.56-.03,3.36-0.01,5.49.06,2.02,0.07,3.84.17,5.58,0.32a77.19,77.19,0,0,1,10.96,1.6,38.056,38.056,0,0,1,9.59,3.37,12.5,12.5,0,0,1,5.35,4.85,9.9,9.9,0,0,1,1.01,6.31,16.518,16.518,0,0,1-2.65,6.53,24.3,24.3,0,0,1-5.15,5.51,4.694,4.694,0,0,0-.52.48,4.542,4.542,0,0,0-.82,4.7,9.8,9.8,0,0,0,4,4.85,12.505,12.505,0,0,0,6.99,2.16,6.411,6.411,0,0,0,4.7-1.84,32.082,32.082,0,0,0,5.56-8.28,24.853,24.853,0,0,0,2.41-10.07,21.413,21.413,0,0,0-.72-5.95,22.3,22.3,0,0,0-2.99-6.53,27.533,27.533,0,0,0-5.75-6.17,36.357,36.357,0,0,0-7.31-4.52,55.521,55.521,0,0,0-14.3-4.32,95.53,95.53,0,0,0-12.88-1.23c-1.9-.06-3.9-0.08-6.09-0.04l-0.39.01c-1.95.04-3.77,0.12-5.57,0.23a76.377,76.377,0,0,0-11.53,1.65,68.25,68.25,0,0,0-10.38,3.17,62.253,62.253,0,0,0-9.15,4.48,55.544,55.544,0,0,0-14.4,12.16,38.018,38.018,0,0,0-8.09,16.16,28.086,28.086,0,0,0-.4,9.64,25.864,25.864,0,0,0,3.89,10.51,33.426,33.426,0,0,0,9.37,9.54,49.832,49.832,0,0,0,6.06,3.55,64.983,64.983,0,0,0,6.37,2.67c2.17,0.74,4.22,1.37,6.24,1.93,2,0.57,4.09,1.11,6.21,1.61,4.04,0.98,8.2,1.78,12.39,2.41a148.25,148.25,0,0,0,24.07,1.58l0.56-.01a150.823,150.823,0,0,0,21.98-2.1,139.162,139.162,0,0,0,39.22-12.86c12.12-6.15,22.2-13.63,29.98-22.23a65.119,65.119,0,0,0,10.2-14.64,41.646,41.646,0,0,0,4.74-17.62,33.5,33.5,0,0,0-1.27-10.16,37.3,37.3,0,0,0-5.06-10.65,50.044,50.044,0,0,0-9.02-9.91,66.316,66.316,0,0,0-5.54-4.23c-0.93-.65-1.84-1.28-2.77-1.88-0.93-.62-1.89-1.24-2.84-1.83-1.78-1.11-3.68-2.24-5.83-3.45-1.88-1.04-3.83-2.07-5.98-3.15-4.34-2.16-8.35-3.97-12.25-5.52a224.11,224.11,0,0,0-24.93-8.3c-8.04-2.17-16.38-4.07-24.81-5.67-4.49-.85-9.14-1.64-14.03-2.39,3.03-.44,5.93-0.94,8.75-1.5,14.8-2.92,27.34-7.37,37.29-13.23a58.18,58.18,0,0,0,13.99-11.21,34.4,34.4,0,0,0,8.18-15.01,25.248,25.248,0,0,0,.51-9.04,22.564,22.564,0,0,0-1.2-4.89,15.506,15.506,0,0,0-3.23-5.17,24.076,24.076,0,0,0-5.31-4.25,36.505,36.505,0,0,0-6.12-2.91,55.254,55.254,0,0,0-12.34-2.92,73.731,73.731,0,0,0-10.78-.53c-0.32.01-.64,0.01-0.96,0.03a74.291,74.291,0,0,0-11.01,1.15,57.537,57.537,0,0,0-19.01,6.8,32.563,32.563,0,0,0-12.79,12.87,28.371,28.371,0,0,0-2.85,8.57,11.364,11.364,0,0,0,.53,5.88,12.573,12.573,0,0,0,2,3.49,17.45,17.45,0,0,0,3.34,3.16,27.329,27.329,0,0,0,7.59,3.78,44.232,44.232,0,0,0,7.03,1.67,61.062,61.062,0,0,0,10.81.68c0.62-.01,1.23-0.03,1.84-0.06a56.6,56.6,0,0,0,11.63-1.64,31.329,31.329,0,0,0,5.5-1.88,14.231,14.231,0,0,0,5.06-3.58l0.22-.26a3.431,3.431,0,0,0,.47-0.72c1.24-2.53-.8-6.07-4.54-7.89a9.964,9.964,0,0,0-4.54-1.07c-2.14.05-3.77,0.91-4.48,2.36a5.585,5.585,0,0,1-1.85,1.73,18.242,18.242,0,0,1-3.37,1.67,40.594,40.594,0,0,1-8.68,2.09,47.724,47.724,0,0,1-5.15.39,43.758,43.758,0,0,1-4.47-.14,28.221,28.221,0,0,1-4.6-.77,12.083,12.083,0,0,1-3.41-1.39,4.216,4.216,0,0,1-1.64-1.81,6.3,6.3,0,0,1-.48-3.05,23.035,23.035,0,0,1,1.71-7.55,27.763,27.763,0,0,1,10.19-12,48.836,48.836,0,0,1,16.81-6.92,65.8,65.8,0,0,1,12.87-1.57,62.947,62.947,0,0,1,7.78.33,47.509,47.509,0,0,1,10.83,2.33,23.346,23.346,0,0,1,9.04,5.36,11.538,11.538,0,0,1,2.45,3.75,18.62,18.62,0,0,1,1.08,4.25,22.971,22.971,0,0,1-.4,8.26,22.415,22.415,0,0,1-1.23,3.83,28.11,28.11,0,0,1-1.8,3.6,34.449,34.449,0,0,1-4.94,6.5,53.791,53.791,0,0,1-14.02,10.12c-9.75,5.04-21.89,8.65-37.13,11.01-3.05.49-6.32,0.91-10.29,1.34-3.3.36-6.74,0.66-10.51,0.93-3.49.23-7.1,0.41-10.74,0.53-1.59.06-3.2,0.11-4.81,0.14-1.93.04-3.86,0.06-5.8,0.07-20.19-1.69-41.27-2.56-68.33-2.82-11.68-.1-24.09-0.05-37.91.15l-0.03-.08h-1.4c-13.93-.06-28.62-0.07-44.91-0.04l-44.85.09-11.51.03c-8.15-.73-16.45-1.83-24.68-3.26a227.609,227.609,0,0,1-24.81-5.62c-1.29-.36-2.63-0.79-3.91-1.2-0.75-.24-1.5-0.49-2.26-0.72s-1.52-.5-2.32-0.79l-3.71-1.34c-1.27-.47-2.58-1.01-3.84-1.53l-2.13-.87-2.89-1.32c-0.35-.17-0.71-0.33-1.07-0.49-0.62-.28-1.21-0.55-1.79-0.87-0.51-.27-1.03-0.53-1.54-0.8-1.42-.74-2.76-1.44-4.06-2.25-0.34-.2-0.69-0.4-1.03-0.6-0.59-.35-1.15-0.67-1.65-1l-2.61-1.75a57.59,57.59,0,0,1-9.13-7.7,42.765,42.765,0,0,1-6.51-8.71,32.826,32.826,0,0,1-4.1-18.14c0.02-.47.08-0.93,0.13-1.38,0.03-.27.07-0.55,0.09-0.81l0.12-1.08c0.03-.22.08-0.44,0.12-0.65l0.5-2.52,0.58-2.12a53.4,53.4,0,0,1,7.45-15.56c6.05-9.02,14.29-17.43,25.21-25.71a172.025,172.025,0,0,1,15.87-10.52,183.85,183.85,0,0,1,17.42-9.12c23.35-10.89,49.8-18.27,78.62-21.95,8.25-.47,16.82-0.91,25.46-1.31,1.85,0.04,3.85.03,6.1-.01,1.14-.03,2.28-0.06,3.41-0.1,1.33-.03,2.66-0.08,3.99-0.12l1.18-.04s2.2,0.03,2.71.04c5.42,0.15,11.38.39,18.76,0.76a380.613,380.613,0,0,1,37.96,3.79c6.87,1.07,13.12,2.3,19.1,3.75a159.067,159.067,0,0,1,18.86,5.75,106.145,106.145,0,0,1,17.71,8.55,73.71,73.71,0,0,1,14.79,11.71,60.748,60.748,0,0,1,10.26,14.01,38.53,38.53,0,0,1,4.62,14.58,29.5,29.5,0,0,1-1.88,13.54,40.027,40.027,0,0,1-7.09,11.59,63.854,63.854,0,0,1-10.49,9.6,97.343,97.343,0,0,1-12.8,7.83,121.086,121.086,0,0,1-14.45,6.22c-0.62.22-1.26,0.44-1.89,0.65l-0.46.16c-1.72.44-3.13,0.79-4.45,1.09-2.63.57-5.27,1.08-7.83,1.51a138.148,138.148,0,0,1-16.37,1.68c-1.44.06-2.89,0.11-4.35,0.14-4.47.1-8.66,0-12.79-.28a114.758,114.758,0,0,1-17.52-2.47,58.215,58.215,0,0,1-16.5-6.11,21.275,21.275,0,0,1-5.85-4.85,10.9,10.9,0,0,1-2.43-5.62,12.6,12.6,0,0,1,.07-2.95,9.085,9.085,0,0,1,.15-0.91c0.04-.2.07-0.39,0.1-0.54,0.07-.31.15-0.62,0.23-0.92l0.14-.53a18.863,18.863,0,0,1,2.65-5.31,28.962,28.962,0,0,1,9.55-8.21,43.645,43.645,0,0,1,6.25-2.86,53.4,53.4,0,0,1,7-1.97,60.362,60.362,0,0,1,11.26-1.27c1.37-.02,2.78-0.01,4.17.05,1.36,0.05,2.75.17,4.01,0.29l2.05,0.25c0.66,0.09,1.32.18,1.97,0.3a26.617,26.617,0,0,1,6.65,1.93,7.292,7.292,0,0,1,1.79,1.15,3.169,3.169,0,0,1,.78,1.05,5.429,5.429,0,0,1,.13,3.69,11.645,11.645,0,0,1-2.31,4.31,12.336,12.336,0,0,1-3.88,3.09,5.74,5.74,0,0,0-.85.49c-2.92,2.1-2.29,6.33,1.41,9.41a12.617,12.617,0,0,0,8.07,2.96,6.945,6.945,0,0,0,3.95-1.18l0.15-.11a20.476,20.476,0,0,0,8.25-14.15,17.014,17.014,0,0,0-.23-4.78,16.5,16.5,0,0,0-2.27-5.61,20.873,20.873,0,0,0-5.21-5.51,28.044,28.044,0,0,0-6.52-3.6,43.837,43.837,0,0,0-11.47-2.73c-0.87-.1-1.72-0.17-2.59-0.23l-2.44-.13c-1.19-.03-2.76-0.07-4.31-0.04l-0.46.02a69.639,69.639,0,0,0-17.63,2.54,58.076,58.076,0,0,0-7.67,2.79,47.486,47.486,0,0,0-6.82,3.68,32.238,32.238,0,0,0-10.18,10.24,23.209,23.209,0,0,0-2.76,6.6l-0.12.57c-0.08.4-.16,0.79-0.23,1.23-0.02.19-.05,0.39-0.07,0.58-0.06.41-.11,0.83-0.13,1.24a17.056,17.056,0,0,0,.15,3.97,17.8,17.8,0,0,0,4.22,8.64,31.731,31.731,0,0,0,8.6,6.8,55.01,55.01,0,0,0,9.68,4.22,82.236,82.236,0,0,0,9.65,2.56,122.258,122.258,0,0,0,18.64,2.29c3.81,0.18,7.67.23,11.46,0.16,2.09-.05,4.2-0.13,6.27-0.25a159.367,159.367,0,0,0,16.91-1.85,166.409,166.409,0,0,0,30.74-8.31,146.8,146.8,0,0,0,26.6-13.14,83.1,83.1,0,0,0,20.89-18.36,51.552,51.552,0,0,0,3.82-5.64,40.363,40.363,0,0,0,2.99-6.15,32.3,32.3,0,0,0,2.12-14.13,36.205,36.205,0,0,0-5.39-15.92,56.958,56.958,0,0,0-5.66-7.69,74.9,74.9,0,0,0-6.94-7.13,89.709,89.709,0,0,0-8.18-6.42,94.456,94.456,0,0,0-9.02-5.46,102.579,102.579,0,0,0-9.53-4.45c-3.3-1.36-6.56-2.54-9.68-3.51a151.434,151.434,0,0,0-23.86-5.35c29.16-.31,57.84-0.46,85.33-0.44,14.45,0.02,29.83.03,44.93-.03h1.1c8.77-.06,17.84-0.13,26.74-0.31,6.18-.12,11.73-0.3,16.96-0.53,15.9-.7,30.27-1.76,43.92-3.24,15.52-1.66,29.42-3.77,42.48-6.45a265.181,265.181,0,0,0,39.82-11.15c14.32-5.44,25.54-11.5,34.33-18.53a59.151,59.151,0,0,0,12.72-13.71,36.933,36.933,0,0,0,6.2-18.15,34.032,34.032,0,0,0-.11-5.33,37.522,37.522,0,0,0-1-5.52,43.912,43.912,0,0,0-4.86-11.3,57.76,57.76,0,0,0-8.38-10.72,79.355,79.355,0,0,0-10.93-9.23,123.26,123.26,0,0,0-24.59-13.05,207.044,207.044,0,0,0-24.88-8.15,367.193,367.193,0,0,0-48.36-8.99c-14.53-1.8-29.83-3.09-46.75-3.94-14.24-.72-29.18-1.12-45.67-1.21-11.85-.05-24.32.06-37.08,0.32-16.12.33-33.18,0.91-52.16,1.77l-1.96.09c-5.34-.21-10.16-0.43-14.76-0.68-8.55-.43-17.22-1.02-25.79-1.75-1.37-.09-2.78-0.23-4.14-0.37-0.77-.07-1.54-0.15-2.31-0.22l-6.45-.61-7.77-.88c-1.7-.19-3.47-0.39-5.22-0.64l-6.52-.88c-1.38-.19-2.77-0.41-4.16-0.63-0.78-.13-1.56-0.25-2.36-0.37-3.35-.5-6.78-1.12-10.09-1.72-0.98-.17-1.95-0.35-2.89-0.51-4.9-.96-9.68-2-14.21-3.11,0,0-.96-0.34-1.25-0.45-3.61-1.33-7.13-2.8-10.46-4.36a72.654,72.654,0,0,1-18.37-11.87,35.015,35.015,0,0,1-10.28-15.59,27.738,27.738,0,0,1-.02-15.67,40.408,40.408,0,0,1,7.02-13.52c6.06-7.8,14.54-14.67,25.22-20.42,2.76-1.48,5.32-2.73,7.82-3.82l1.15-.49c2.32-.99,4.72-2.01,7.16-2.94,6.05-2.38,11.69-4.37,17.26-6.08a283.184,283.184,0,0,1,37.14-8.74,303.8,303.8,0,0,1,40.05-3.91c0.67-.01,1.34-0.03,2.01-0.04,6.68-.14,12.88-0.05,18.96.28l0.72,0.05c2.21,0.26,4.24.51,6.23,0.79a216.417,216.417,0,0,1,26.02,5.07,132.274,132.274,0,0,1,12.82,4.06,81.99,81.99,0,0,1,12.1,5.68,51.784,51.784,0,0,1,10.3,7.63,39.256,39.256,0,0,1,3.98,4.47,25.218,25.218,0,0,1,2.78,4.7,19.764,19.764,0,0,1,1.71,9.47,21.211,21.211,0,0,1-2.6,8.57c-2.75,4.99-7.26,9.38-13.39,13.03a60.159,60.159,0,0,1-19.9,7.25,76.419,76.419,0,0,1-11.54,1.24l-0.82.02a59.133,59.133,0,0,1-11.18-.72c-3.03-.51-7.32-1.58-10.58-3.85a10.078,10.078,0,0,1-3.04-3.15,7.393,7.393,0,0,1-1.05-3.68,10.133,10.133,0,0,1,3.23-7.05,22.814,22.814,0,0,1,7.68-4.92,42.338,42.338,0,0,1,10.08-2.62,56.522,56.522,0,0,1,6.37-.52,36.786,36.786,0,0,1,4.68.19,16.145,16.145,0,0,1,4.46,1.06,4.221,4.221,0,0,1,1.99,1.44,4.009,4.009,0,0,1,.62,2.41,3.967,3.967,0,0,1-.29,1.35,2.1,2.1,0,0,1-.46.72,2.978,2.978,0,0,0-.5.43c-1.71,1.83-.7,4.93,2.25,6.92a9.141,9.141,0,0,0,5.1,1.59,4.678,4.678,0,0,0,3.36-1.29l0.19-.2a8,8,0,0,0,1.84-3.34,10.7,10.7,0,0,0,.37-3.47,13.9,13.9,0,0,0-3.2-7.93,18.956,18.956,0,0,0-4.17-3.77,23.651,23.651,0,0,0-4.92-2.49,31.222,31.222,0,0,0-8.69-1.76c-1.3-.09-2.62-0.11-3.93-0.09a60.61,60.61,0,0,0-9.69,1.07,48.741,48.741,0,0,0-11.66,3.62,27.045,27.045,0,0,0-9.06,6.56,14.4,14.4,0,0,0-3.86,10.32,14.1,14.1,0,0,0,2.26,6.69,20.761,20.761,0,0,0,6.17,6.06,32.188,32.188,0,0,0,7.72,3.63,45.489,45.489,0,0,0,7.48,1.72,63.737,63.737,0,0,0,10.73.63c0.98-.02,1.96-0.06,2.93-0.11a82.3,82.3,0,0,0,12.41-1.65,65.456,65.456,0,0,0,21.04-8.28c6.47-4.09,11.19-8.96,14.03-14.5a23.912,23.912,0,0,0,2.72-9.71,23.542,23.542,0,0,0-2.22-11.14,32.087,32.087,0,0,0-3.39-5.59,40.687,40.687,0,0,0-4.72-5.18,64.843,64.843,0,0,0-11.66-8.59,112.3,112.3,0,0,0-26.66-10.7,205.314,205.314,0,0,0-26.91-5.26c-7-.93-14.33-1.64-22.3-2.17,2.52-.07,5.04-0.13,7.57-0.2l44.46-1.13c17.46-.46,31.55-0.97,44.35-1.62,17.74-.91,31.23-1.96,43.76-3.41,8.34-.99,15.11-2.01,21.32-3.19a198.959,198.959,0,0,0,20.39-4.9,143.994,143.994,0,0,0,18.94-7.03,91.681,91.681,0,0,0,16.71-9.69,51.548,51.548,0,0,0,12.9-13.27c3.87-6,5.52-12.01,5.05-18.37A28.943,28.943,0,0,0,2151.06,3367.56Zm-469.98,729.3a127.06,127.06,0,0,1,14.28,4.95,68.959,68.959,0,0,1,11.64,6.06c6.99,4.61,11.17,9.93,12.43,15.82a21.1,21.1,0,0,1-.33,10.06,31.112,31.112,0,0,1-5.84,11.02,47.913,47.913,0,0,1-5.19,5.62,69.308,69.308,0,0,1-6.69,5.53,112.354,112.354,0,0,1-17.33,10.27,194.466,194.466,0,0,1-21.08,8.71c-7.15,2.5-14.87,4.84-22.95,6.96a465.351,465.351,0,0,1-47.27,9.58c-14.73,2.27-29.96,4.05-46.56,5.44-5.31.45-10.55,0.83-15.67,1.16q4.02-.4,8.01-0.82c15.1-1.61,28.69-3.33,41.54-5.26,16.32-2.48,29.89-5.01,42.71-7.97,7.89-1.82,14.98-3.71,21.67-5.78a171.725,171.725,0,0,0,17.93-6.61l0.76-.33c0.78-.33,1.56-0.66,2.31-1.01a127.848,127.848,0,0,0,18.25-10.13,71.9,71.9,0,0,0,13.41-11.38,36.479,36.479,0,0,0,7.29-11.48,21.863,21.863,0,0,0,1.31-10.71c-0.86-6.32-4.65-12.23-11.26-17.57-5.61-4.53-12.92-8.48-22.34-12.06a182.977,182.977,0,0,0-22.69-6.8A258.582,258.582,0,0,1,1681.08,4096.86Zm-4.71,13.28a59.412,59.412,0,0,0-15.89-11c1.11,0.42,2.19.85,3.24,1.28,8.12,3.33,14.59,7.12,19.22,11.24a29.83,29.83,0,0,1,5.91,7.03,19.689,19.689,0,0,1,2.72,8.15c0.62,6.34-2.17,13.21-8.06,19.88a68.5,68.5,0,0,1-12.09,10.58,120.371,120.371,0,0,1-16.65,9.67c-3.2,1.55-6.39,2.96-9.48,4.18-3.14,1.25-6.51,2.46-10.01,3.61-0.18.06-.36,0.11-0.54,0.17,1.07-.42,2.1-0.85,3.08-1.27,1.72-.72,3.37-1.48,4.75-2.14,1.12-.51,2.21-1.05,3.3-1.59l1.3-.65c3.47-1.81,6.2-3.33,8.6-4.81,3.28-2.03,5.65-3.61,7.67-5.13a78.946,78.946,0,0,0,6.58-5.33c0.75-.65,1.41-1.3,2.06-1.93,0.27-.26.54-0.52,0.85-0.83,0.26-.27.52-0.54,0.78-0.82,0.59-.62,1.21-1.26,1.72-1.88a47.6,47.6,0,0,0,4.16-5.48l0.27-.44c0.45-.74.92-1.51,1.28-2.23a26.269,26.269,0,0,0,1.16-2.41l0.12-.27a25.292,25.292,0,0,0,2.06-10.21C1684.37,4121.36,1681.64,4115.52,1676.37,4110.14Zm10.22-.54a58.74,58.74,0,0,0-9.73-6.82,66.287,66.287,0,0,1,14.09,8.43,32.135,32.135,0,0,1,6.56,7.04,19.75,19.75,0,0,1,3.25,8.22,19.461,19.461,0,0,1-1.14,9.61,33.818,33.818,0,0,1-6.76,10.7,69.222,69.222,0,0,1-12.73,10.85,125.164,125.164,0,0,1-17.54,9.77c-0.4.19-.81,0.38-1.23,0.56a118.47,118.47,0,0,0,13.67-8.2,72.235,72.235,0,0,0,12.73-11.09,37.626,37.626,0,0,0,7.1-11.15,22.806,22.806,0,0,0,1.64-10.46C1695.95,4120.81,1692.61,4114.93,1686.59,4109.6Zm-85.19-21.81a285.613,285.613,0,0,1,28.35,5.5c4.36,1.11,8.62,2.36,12.65,3.7,4.08,1.39,7.87,2.89,11.29,4.45,7.27,3.32,13.02,7.1,17.07,11.24a26.343,26.343,0,0,1,4.96,6.93,19.039,19.039,0,0,1,2,7.99,22.473,22.473,0,0,1-1.8,9.11,37.687,37.687,0,0,1-6.32,9.95c-0.46.56-1.01,1.14-1.54,1.71-0.26.27-.52,0.55-0.73,0.79-0.28.26-.55,0.53-0.81,0.8-0.59.58-1.17,1.16-1.85,1.75a73.475,73.475,0,0,1-6.1,5.01c-2.38,1.8-5.07,3.53-7.14,4.83-2.31,1.43-4.94,2.92-8.03,4.55l-1.29.66c-0.99.5-1.99,1.01-3.04,1.49-1.38.67-2.87,1.37-4.44,2.04-2.71,1.18-5.76,2.38-9.33,3.66-5.96,2.11-12.36,4.06-19.55,5.95-11.79,3.09-24.35,5.73-39.54,8.32-7.48,1.27-15.2,2.45-23.32,3.57,1.53-.29,3.05-0.59,4.56-0.89a321.2,321.2,0,0,0,35.78-9.08,174.059,174.059,0,0,0,17.48-6.63,137.817,137.817,0,0,0,15.56-8.27,111.289,111.289,0,0,0,12.82-9.2,78.638,78.638,0,0,0,9.64-9.57c5.22-6.35,8.31-12.63,9.21-18.67a24.183,24.183,0,0,0-3.26-16.44c-2.86-4.8-7.31-9.16-13.22-12.96a78.914,78.914,0,0,0-9.27-5.03c-3.12-1.43-6.58-2.79-10.6-4.17-3.19-1.08-6.71-2.1-11.1-3.22C1600.8,4087.71,1601.1,4087.75,1601.4,4087.79Zm19.17,13.51a55.919,55.919,0,0,0-8.09-5.23c-0.36-.19-0.71-0.38-1.06-0.56,2.75,1.02,5.21,2.03,7.45,3.07a71.2,71.2,0,0,1,8.41,4.64,34.819,34.819,0,0,1,11.42,11.35,21.908,21.908,0,0,1,2.74,14.5c-0.75,5.42-3.67,11.38-8.42,17.25a73.623,73.623,0,0,1-8.94,9.02,105.7,105.7,0,0,1-12.03,8.73,132.207,132.207,0,0,1-14.59,7.9,163.215,163.215,0,0,1-16.61,6.41c-2.18.72-4.41,1.42-6.71,2.11a147.46,147.46,0,0,0,15.16-6.5,135.267,135.267,0,0,0,13.98-8.15,105.848,105.848,0,0,0,11.5-8.81,77.952,77.952,0,0,0,8.8-9.06c4.85-6.01,7.95-11.97,9.2-17.7a25.232,25.232,0,0,0-1.47-15.92C1629.29,4109.67,1625.67,4105.28,1620.57,4101.3Zm-0.55,29.02a26.9,26.9,0,0,0-2.85-22.92c-0.12-.17-0.23-0.34-0.34-0.52-0.24-.37-0.48-0.74-0.77-1.14l-1.21-1.58-1.34-1.5c-0.32-.37-0.68-0.71-1.03-1.06-0.1-.09-0.2-0.19-0.31-0.29a43.189,43.189,0,0,1,3.87,2.75,29.407,29.407,0,0,1,9.2,11.36,23.3,23.3,0,0,1,1.18,14.25c-1.12,5.31-3.98,10.85-8.5,16.49a70.318,70.318,0,0,1-8.19,8.57,97.894,97.894,0,0,1-10.8,8.39l-1.51,1.01-1.6,1.02c-0.67.44-1.39,0.87-2.1,1.3-0.38.23-.75,0.45-1.1,0.67-2.47,1.45-4.71,2.69-6.86,3.8a139.269,139.269,0,0,1-15.2,6.58c-0.9.33-1.81,0.66-2.73,0.98q1.485-.66,2.94-1.35c2.43-1.14,5-2.47,7.43-3.83a132.548,132.548,0,0,0,13.05-8.21,97.768,97.768,0,0,0,19.14-17.5,62.828,62.828,0,0,0,6.01-8.76A42.945,42.945,0,0,0,1620.02,4130.32Zm-360.87-78.62a16.944,16.944,0,0,1-5.31-6.87,11.106,11.106,0,0,1,.85-9.2c1.68-3.37,4.93-6.98,9.64-10.75a121.908,121.908,0,0,1,16.69-10.9c2.9-1.62,6.14-3.25,9.62-4.86,3.36-1.53,6.9-3.01,10.55-4.41,6.77-2.6,14.43-5.13,22.76-7.49,2.25-.63,4.54-1.26,6.86-1.86-7.37,2.19-14.11,4.44-20.46,6.83a177.755,177.755,0,0,0-25.08,11.47c-7.81,4.41-14.29,9.29-18.73,14.09-4.65,4.97-7.58,9.97-8.46,14.46A14.98,14.98,0,0,0,1259.15,4051.7Zm10.15,2.42a24.678,24.678,0,0,0,5.54,6.19c-0.98-.39-1.93-0.78-2.85-1.18a24.734,24.734,0,0,1-6.22-5.62,12.789,12.789,0,0,1-2.46-10.5c0.79-4.06,3.47-8.65,7.77-13.26,4.16-4.52,10.27-9.12,17.67-13.31,1.97-1.13,4.07-2.24,6.29-3.35-0.67.38-1.34,0.77-1.99,1.16a76.062,76.062,0,0,0-17.28,13.6c-4.42,4.84-7.21,9.49-8.29,13.83A15.585,15.585,0,0,0,1269.3,4054.12Zm24.11,12.16a64.126,64.126,0,0,1-11.04-5.27c-3.94-2.45-6.77-5.12-8.44-7.96a13.239,13.239,0,0,1-1.35-10.44c0.98-3.91,3.66-8.33,7.74-12.78A72.194,72.194,0,0,1,1296.7,4017a157.691,157.691,0,0,1,22.66-10.9c7.55-2.98,15.76-5.77,25.1-8.51,4.04-1.19,8.18-2.33,12.47-3.45-0.42.14-.83,0.28-1.24,0.42a233,233,0,0,0-22.71,9.09,143.771,143.771,0,0,0-20.12,11.31,81.289,81.289,0,0,0-14.72,12.7,44.7,44.7,0,0,0-8.4,12.7,19.642,19.642,0,0,0-1.29,11.93,20.474,20.474,0,0,0,6.07,10.05,38.865,38.865,0,0,0,9.34,6.45C1300.2,4067.99,1296.73,4067.16,1293.41,4066.28Zm31.28,3.58a78.307,78.307,0,0,1-12.24-5.15,35.626,35.626,0,0,1-8.74-6.43,15.272,15.272,0,0,1-4.15-7.89c-1.1-5.93,2.05-13.32,8.87-20.83a70.23,70.23,0,0,1,12.67-11.04,128.713,128.713,0,0,1,17.54-10.11,219,219,0,0,1,20.6-8.64c6.58-2.41,13.59-4.7,20.86-6.83-4.68,1.87-9.22,3.83-13.55,5.87a192.717,192.717,0,0,0-19.28,10.45,135.66,135.66,0,0,0-16,11.52c-2.27,1.9-4.45,3.91-6.5,5.97a59.889,59.889,0,0,0-5.31,6.05,31.733,31.733,0,0,0-5.9,11.85,18.209,18.209,0,0,0,.65,10.86c2.44,6.38,8.39,11.8,17.7,16.12,0.75,0.35,1.53.69,2.34,1.03C1330.77,4071.78,1327.62,4070.86,1324.69,4069.86Zm6.06-38.54-0.68.92c-0.7.93-1.42,1.9-2.01,2.85l-0.24.37c-0.25.38-.5,0.76-0.74,1.16l-0.81,1.47a37.059,37.059,0,0,0-2.62,5.96l-0.07.28c-0.24.86-.48,1.72-0.67,2.61l-0.22,1.36a9.958,9.958,0,0,0-.17,1.43,18.881,18.881,0,0,0,2.11,10.58,22.259,22.259,0,0,0,4.43,5.78c-5.11-3.23-8.45-6.94-9.95-11.09a16.333,16.333,0,0,1-.45-9.47,29.548,29.548,0,0,1,5.53-10.95,57.675,57.675,0,0,1,5.06-5.74c1.97-1.98,4.08-3.91,6.28-5.75a131.533,131.533,0,0,1,15.5-11.12c4.09-2.54,8.52-5.02,13.21-7.41-11.7,6.6-21.62,13.98-28.84,21.44-0.9.96-1.86,1.99-2.78,3.04Zm130.05-53.6c-0.76.2-1.52,0.4-2.28,0.62l-1.6.45c-1.76.5-3.58,1.02-5.35,1.59-4.06,1.23-8.32,2.69-13.8,4.71a218.579,218.579,0,0,0-25.89,11.66c-1.57.82-3.08,1.68-4.53,2.51l-1.41.81c-0.64.37-1.26,0.75-1.88,1.13l-2.36,1.44c-0.31.19-.61,0.38-0.9,0.58l-3.18,2.08-2.98,2.08c-0.29.2-.58,0.4-0.88,0.62l-1.83,1.38c-0.6.45-1.2,0.9-1.78,1.37-6.55,5.25-11.53,10.35-14.78,15.14-3.49,4.98-5.45,9.95-5.81,14.69a7.5,7.5,0,0,0-.06,1.47l0.07,2.07,0.32,1.87a7.249,7.249,0,0,0,.35,1.5c0.08,0.23.15,0.47,0.22,0.7a12.628,12.628,0,0,0,.95,2.43l0.73,1.54c0.22,0.38.47,0.75,0.72,1.13l0.23,0.34a35.917,35.917,0,0,0,11,10.15,79.251,79.251,0,0,0,15.64,7.27,150.559,150.559,0,0,0,18.72,5.08c0.57,0.11,1.14.24,1.71,0.35,1.08,0.23,2.16.46,3.29,0.66l5.09,0.89,1.34,0.22,3.95,0.56c0.58,0.08,1.15.16,1.71,0.25,1.18,0.17,2.39.34,3.61,0.47,1.85,0.23,3.72.44,5.63,0.64-2.35.02-4.68,0.02-6.99,0.02-14.95,0-29.2-.28-42.36-0.84q-4.98-.21-9.91-0.48c-3.11-.56-5.65-1.07-7.96-1.61a105.2,105.2,0,0,1-12.87-3.93,60.132,60.132,0,0,1-10.16-5.14,36.778,36.778,0,0,1-7.33-6.13c-4.09-4.55-6.01-9.62-5.73-15.07,0.33-5.75,3.6-12.31,9.45-18.96,5.98-6.73,14.59-13.6,24.92-19.86a214.192,214.192,0,0,1,35.77-17.08c6.51-2.43,13.28-4.66,20.11-6.63,6.7-1.92,13.63-3.65,20.61-5.12,2.9-.62,5.88-1.2,8.96-1.74C1461.12,3977.64,1460.96,3977.68,1460.8,3977.72Zm322.87-76.45a14.423,14.423,0,0,1,1.3,3.04,15.042,15.042,0,0,1-.71,10,32.676,32.676,0,0,1-8.25,11.35,76.959,76.959,0,0,1-15.6,11.04,141.618,141.618,0,0,1-20.74,9.2,211.67,211.67,0,0,1-23.06,6.77c-6.65,1.59-13.75,2.98-21.64,4.23,6.48-1.26,12.58-2.59,18.46-4.03a246.642,246.642,0,0,0,26.27-7.83,121.4,121.4,0,0,0,23.83-11.41,76.508,76.508,0,0,0,9.18-6.83,44.573,44.573,0,0,0,6.75-7.1c3.43-4.61,5.11-9.21,5.01-13.66A16.389,16.389,0,0,0,1783.67,3901.27Zm-19.49-12.79,0.17,0.07c0.21,0.09.41,0.18,0.62,0.27a29.976,29.976,0,0,1,10.38,7.24,14.6,14.6,0,0,1,3.9,9.66c0.05,3.89-1.55,8.11-4.64,12.23a43.51,43.51,0,0,1-6.3,6.58,71.636,71.636,0,0,1-8.61,6.42,115.443,115.443,0,0,1-22.59,10.84c-6.09,2.22-12.61,4.26-19.81,6.17q5.19-1.665,9.94-3.46a135.262,135.262,0,0,0,23.67-11.43,92.229,92.229,0,0,0,9.42-6.73c1.34-1.09,2.64-2.22,3.98-3.45,1.26-1.17,2.44-2.36,3.49-3.55,4.12-4.66,6.48-9.45,6.82-13.87a15.517,15.517,0,0,0-4.49-11.91,29.482,29.482,0,0,0-7.19-5.47C1763.36,3888.22,1763.77,3888.35,1764.18,3888.48Zm-9.63.3c4.62,1.98,8.11,4.31,10.37,6.94a12.2,12.2,0,0,1,3.21,9.5c-0.34,3.85-2.47,8.06-6.14,12.18-0.95,1.07-2.03,2.15-3.19,3.22-1.26,1.16-2.48,2.23-3.73,3.25a84.972,84.972,0,0,1-8.71,6.26,124.293,124.293,0,0,1-22.09,10.69,238.065,238.065,0,0,1-24.95,7.79c-5.62,1.45-11.46,2.8-17.64,4.08a221.408,221.408,0,0,0,23.76-7.71,202.342,202.342,0,0,0,23.34-10.74,122.536,122.536,0,0,0,19.23-12.68c5.68-4.7,9.74-9.41,11.73-13.63,2.2-4.56,2.19-8.95-.02-12.68-1.92-3.27-5.42-6.1-10.41-8.41C1751.21,3887.45,1752.96,3888.09,1754.55,3888.78Zm199.48-1.28c8.13,1.58,16.05,3.43,23.54,5.48a238.823,238.823,0,0,1,23.06,7.57c4.56,1.8,7.99,3.26,11.13,4.75,1.96,0.92,3.72,1.79,5.4,2.68,1.98,1.01,3.69,1.95,5.28,2.86,0.87,0.5,1.72,1,2.57,1.52,0.82,0.49,1.62.99,2.51,1.56,1.66,1.06,3.11,2.08,4.54,3.19a39.6,39.6,0,0,1,7.32,7.32,30.1,30.1,0,0,1,6.25,16.94,35.961,35.961,0,0,1-3.22,16.36,57.846,57.846,0,0,1-9.14,14.19,84.527,84.527,0,0,1-10.66,10.25,54.963,54.963,0,0,0,4.93-5.57,37.656,37.656,0,0,0,7.05-14.51,33.292,33.292,0,0,0-.86-17.43,56.358,56.358,0,0,0-9.89-17.92,83.926,83.926,0,0,0-17.01-15.61,134.656,134.656,0,0,0-20.78-11.81,200.055,200.055,0,0,0-22.03-8.58c-3.88-1.28-7.88-2.48-12.01-3.63Zm-451.89-42.99a73.767,73.767,0,0,1-17.87-13.81,37.113,37.113,0,0,1-9.28-16.78,28.729,28.729,0,0,1-.63-8.41,30.968,30.968,0,0,1,1.71-7.89,42.337,42.337,0,0,1,8.53-13.76,79.849,79.849,0,0,1,12.75-11.3,177.261,177.261,0,0,1,31.81-17.72c2.96-1.32,5.91-2.55,8.76-3.68,2.92-1.18,5.95-2.33,8.97-3.43,4.38-1.53,8.95-3,13.86-4.43a246.453,246.453,0,0,0-23.25,10.21c-15.05,7.58-26.89,15.76-36.19,24.99l-1.86,1.88c-0.4.42-.78,0.85-1.15,1.28l-0.62.69c-0.2.23-.4,0.45-0.6,0.68a15.474,15.474,0,0,0-1.13,1.32l-1.6,2.01c-0.59.73-1.12,1.49-1.56,2.14l-1.49,2.16-1.99,3.36-0.57,1.15-1.15,2.36-0.92,2.37a18.281,18.281,0,0,0-.73,2.2l-0.1.36c-0.07.26-.15,0.53-0.23,0.79a12.719,12.719,0,0,0-.44,1.77l-0.48,2.61-0.29,3.4,0.01,0.73,0.04,1.85c0,0.31.01,0.61,0.04,0.99l0.18,1.39a32.753,32.753,0,0,0,3.89,11.76,45.1,45.1,0,0,0,8.96,11.08l1.37,1.28,1.51,1.22c0.26,0.21.52,0.43,0.78,0.64a27.428,27.428,0,0,0,2.24,1.7c0.36,0.25.71,0.5,1.06,0.75,0.67,0.47,1.34.95,2.11,1.46l3.25,2c2.34,1.36,4.61,2.58,6.83,3.69A123.624,123.624,0,0,1,1502.14,3844.51Zm22.29,7.76a104.5,104.5,0,0,1-12.97-6.54l-3.06-1.91c-0.64-.44-1.26-0.88-1.88-1.33-0.36-.26-0.72-0.52-1.13-0.81a23.331,23.331,0,0,1-1.86-1.44c-0.28-.23-0.55-0.46-0.82-0.67l-1.33-1.09-1.24-1.18a40.345,40.345,0,0,1-7.95-10,29.26,29.26,0,0,1-3.36-10.63l-0.16-1.29c-0.01-.27-0.01-0.55-0.01-0.82l-0.02-2.43,0.31-3.15,0.51-2.51a10.241,10.241,0,0,1,.41-1.53c0.09-.28.17-0.55,0.25-0.81l0.1-.33a15.69,15.69,0,0,1,.69-2l0.93-2.29,1.68-3.33,1.92-3.21,1.47-2.1c0.42-.61.92-1.33,1.48-2l1.61-2.01c0.32-.42.68-0.81,1.04-1.2,0.22-.24.43-0.47,0.62-0.69,0.21-.23.42-0.47,0.63-0.7,0.36-.4.72-0.81,1.09-1.19l1.84-1.84a114.765,114.765,0,0,1,16.48-13.28q5.355-3.585,11.11-6.86a115.716,115.716,0,0,0-18.91,16.2,69.4,69.4,0,0,0-11.29,16.25,42.82,42.82,0,0,0-1.9,4.56,36.12,36.12,0,0,0-1.23,4l-0.23.84a38.675,38.675,0,0,0-1,10.36,36.564,36.564,0,0,0,2.41,11.17,40.264,40.264,0,0,0,6.72,11.2,58.05,58.05,0,0,0,10.41,9.73c0.42,0.34.85,0.63,1.27,0.91l3.29,2.23,1.62,0.96c0.35,0.21.7,0.42,1.06,0.63,0.67,0.41,1.37.82,2.12,1.23l3.13,1.63c0.82,0.45,1.64.83,2.44,1.2,0.3,0.13.6,0.27,0.93,0.43,0.38,0.17.75,0.34,1.12,0.51,0.71,0.34,1.44.68,2.21,0.99l3.85,1.58c0.37,0.15.75,0.3,1.16,0.46l5.32,1.91A170.805,170.805,0,0,1,1524.43,3852.27Zm112.48,16.9c-7.11-.04-14.47-0.08-21.7-0.26-6.95-.17-13.89-0.51-20.63-1-3.92-.53-7.46-1.09-10.83-1.7a239.427,239.427,0,0,1-26.33-6.11l-3.23-.98-3.27-1.12c-0.39-.13-0.79-0.27-1.18-0.4-0.68-.23-1.36-0.46-2.03-0.72l-4.82-1.87c-0.34-.13-0.67-0.28-1-0.43l-3.74-1.63c-0.63-.27-1.25-0.59-1.91-0.92-0.38-.18-0.76-0.37-1.11-0.54-0.3-.15-0.61-0.31-0.92-0.46-0.72-.35-1.4-0.68-2.07-1.07l-2.99-1.68c-0.59-.34-1.17-0.71-1.78-1.1-0.35-.23-0.71-0.46-1.04-0.67l-1.39-.88-2.96-2.13a10.509,10.509,0,0,1-.9-0.69l-0.1-.08a48.959,48.959,0,0,1-8.67-8.65,32.53,32.53,0,0,1-5.22-9.53,31.02,31.02,0,0,1-1.56-9.62,33.672,33.672,0,0,1,1.35-9.08l0.28-.85a28.211,28.211,0,0,1,1.28-3.45c0.11-.26.22-0.53,0.33-0.79a11.738,11.738,0,0,1,.59-1.3l1.05-2.07a65.745,65.745,0,0,1,11.18-14.91,110.955,110.955,0,0,1,14.7-12.77,173.753,173.753,0,0,1,17.08-10.97,245.873,245.873,0,0,1,39.05-17.34,340.955,340.955,0,0,1,37.22-10.6c-5.85,1.75-11.13,3.51-16.01,5.33a227.147,227.147,0,0,0-41.19,19.81c-14.01,8.79-24.35,18.05-31.6,28.32l-0.77,1.08-2.05,3.29-1.19,2.24a21.436,21.436,0,0,0-1.14,2.35l-1.04,2.39-0.96,2.85c-0.1.28-.19,0.55-0.27,0.86l-0.31,1.27c-0.06.29-.13,0.58-0.2,0.86a14.28,14.28,0,0,0-.36,1.7,33.381,33.381,0,0,0-.04,11.07l0.26,1.44a10.535,10.535,0,0,0,.35,1.48l0.28,0.95c0.19,0.63.38,1.27,0.58,1.9l0.02,0.05,1.22,2.92c0.31,0.66.66,1.3,1.01,1.92,0.18,0.32.35,0.64,0.55,1.01a48.249,48.249,0,0,0,9.01,10.96,72.388,72.388,0,0,0,12.29,8.99l3.29,1.91,5.11,2.62,5.21,2.35c0.76,0.33,1.53.63,2.3,0.93,0.4,0.16.8,0.32,1.24,0.5,0.4,0.15.79,0.31,1.19,0.47,0.76,0.31,1.55.63,2.34,0.9l3.5,1.23c1.11,0.4,2.36.85,3.57,1.2a253.478,253.478,0,0,0,28.5,7.23c7.73,1.5,15.9,2.81,24.91,4Zm-20.66-114.81c-11.52,8.52-20.09,17.37-26.19,27.07a57.346,57.346,0,0,0-7.37,17.09l-0.53,2.35-0.38,2.76c-0.04.27-.08,0.53-0.11,0.84l-0.07,1.22c-0.01.28-.03,0.55-0.04,0.83-0.04.54-.07,1.08-0.07,1.63a43.141,43.141,0,0,0,1.29,10.35,44.216,44.216,0,0,0,4.61,10.65,51.381,51.381,0,0,0,8.11,10.05,71.053,71.053,0,0,0,10.81,8.52l2.88,1.8c0.67,0.4,1.35.77,2.01,1.13,0.33,0.18.67,0.36,0.98,0.54,1.53,0.88,3.1,1.63,4.62,2.36,0.51,0.25,1.02.49,1.5,0.73,0.73,0.37,1.46.68,2.16,0.97,0.34,0.14.68,0.29,1.05,0.45l3.08,1.31,0.11,0.04c0.73,0.27,1.45.55,2.18,0.82,1.34,0.51,2.72,1.04,4.13,1.52l3.79,1.25c0.46,0.15.93,0.31,1.4,0.45a196.523,196.523,0,0,1-24.59-7.44c-0.62-.25-1.24-0.49-1.86-0.74-1.6-.62-3.1-1.21-4.62-1.92l-3.14-1.39-4.76-2.38c-0.3-.15-0.58-0.32-0.86-0.48-0.2-.11-0.39-0.22-0.56-0.32l-3.01-1.7c-0.62-.38-1.22-0.78-1.83-1.17-0.36-.23-0.71-0.46-1.05-0.68l-1.41-.91-2.98-2.2c-0.35-.25-0.67-0.49-0.98-0.76l-2.54-2.15-0.49-.47a44.45,44.45,0,0,1-3.9-4.03,36.536,36.536,0,0,1-6.21-9.73,32.127,32.127,0,0,1-2.38-10,34.482,34.482,0,0,1,.8-9.52,48.616,48.616,0,0,1,7.85-17.03,87.776,87.776,0,0,1,12.85-14.51,136.717,136.717,0,0,1,15.91-12.43,183.564,183.564,0,0,1,18.09-10.64c0.42-.22.84-0.44,1.26-0.65Q1620.81,3750.975,1616.25,3754.36Zm-14.75.48c-13.04,8.69-22.72,17.82-29.6,27.92a51.625,51.625,0,0,0-7.95,18.21,12.091,12.091,0,0,0-.3,1.75c-0.04.28-.07,0.55-0.12,0.84a20.961,20.961,0,0,0-.25,2.64c0,0.3-.02.59-0.03,0.89-0.03.58-.05,1.15-0.04,1.78l0.16,2.69a36.621,36.621,0,0,0,3,11.26,42.887,42.887,0,0,0,7.33,11.03,49.817,49.817,0,0,0,4.6,4.59l0.52,0.48,2.74,2.24c0.44,0.38.89,0.7,1.32,1.01l3.24,2.3,2.65,1.67c0.68,0.42,1.36.85,2.11,1.29l3.2,1.76c0.17,0.09.35,0.18,0.52,0.28,0.38,0.21.77,0.43,1.15,0.61l1.63,0.79,3.35,1.61,3.27,1.39c1.66,0.75,3.34,1.38,4.97,1.98l1.86,0.7a193.935,193.935,0,0,0,22.06,6.51c-1.24-.23-2.45-0.46-3.65-0.7a249.44,249.44,0,0,1-27.97-7.32c-1.13-.34-2.26-0.75-3.37-1.16l-3.5-1.26c-0.68-.24-1.37-0.52-2.09-0.82-0.42-.17-0.84-0.35-1.23-0.5-0.41-.17-0.82-0.33-1.23-0.5-0.72-.29-1.44-0.58-2.11-0.87l-5-2.31-4.83-2.51-3.08-1.82a66.563,66.563,0,0,1-11.22-8.33,43.014,43.014,0,0,1-7.99-9.86c-0.18-.34-0.36-0.67-0.54-1.01-0.31-.57-0.61-1.12-0.83-1.62l-1.1-2.7c-0.17-.56-0.33-1.12-0.49-1.68l-0.3-1.04a8.188,8.188,0,0,1-.26-1.21l-0.22-1.33a31,31,0,0,1,.19-10.23,12.206,12.206,0,0,1,.32-1.5c0.08-.3.16-0.6,0.22-0.89l0.29-1.2c0.07-.24.16-0.48,0.24-0.72l0.95-2.75,1.02-2.31a20.113,20.113,0,0,1,1.07-2.18l1.17-2.16,1.99-3.16,0.75-1.03a85.324,85.324,0,0,1,13.83-14.95,142.452,142.452,0,0,1,17.12-12.64,214.525,214.525,0,0,1,33.4-16.88A185.478,185.478,0,0,0,1601.5,3754.84Zm27.21-19.02a227.147,227.147,0,0,0-41.19,19.81c-14.01,8.79-24.35,18.05-31.61,28.32l-0.76,1.08-2.05,3.29-1.19,2.24a24.513,24.513,0,0,0-1.15,2.35l-1.03,2.39-0.97,2.85c-0.09.28-.19,0.55-0.27,0.86l-0.3,1.27c-0.06.3-.14,0.58-0.21,0.87a13.689,13.689,0,0,0-.35,1.69,33.372,33.372,0,0,0-.05,11.07l0.27,1.44a9.247,9.247,0,0,0,.34,1.48l0.29,0.96c0.19,0.63.38,1.26,0.58,1.89l0.01,0.05,1.23,2.92c0.3,0.66.66,1.3,1.01,1.92,0.17,0.32.35,0.64,0.55,1.01a47.985,47.985,0,0,0,9.01,10.96,72.668,72.668,0,0,0,12.28,8.99l3.29,1.91,5.12,2.62,5.21,2.35c0.76,0.33,1.53.63,2.29,0.93,0.41,0.16.81,0.32,1.25,0.5,0.39,0.15.79,0.31,1.19,0.47,0.76,0.31,1.55.63,2.34,0.9l3.49,1.23c1.11,0.4,2.37.85,3.58,1.2a253.28,253.28,0,0,0,28.49,7.23c4.43,0.86,9,1.65,13.79,2.4-0.36-.04-0.73-0.09-1.1-0.13-10.43-1.34-19.57-2.81-27.92-4.47a248.872,248.872,0,0,1-27.97-7.32c-1.13-.34-2.27-0.75-3.38-1.16l-3.49-1.26c-0.69-.24-1.37-0.52-2.1-0.82-0.42-.17-0.84-0.35-1.22-0.5-0.41-.17-0.82-0.34-1.24-0.5-0.72-.29-1.44-0.58-2.11-0.87l-5-2.31-4.82-2.51-3.08-1.82a66.283,66.283,0,0,1-11.23-8.33,43.281,43.281,0,0,1-7.99-9.86c-0.17-.34-0.35-0.67-0.54-1.01-0.31-.57-0.6-1.12-0.83-1.62l-1.1-2.7c-0.17-.56-0.33-1.12-0.48-1.67l-0.3-1.05a7.916,7.916,0,0,1-.26-1.21l-0.23-1.33a30.993,30.993,0,0,1,.19-10.23,12.281,12.281,0,0,1,.33-1.5c0.07-.3.15-0.6,0.21-0.89l0.3-1.2c0.07-.25.15-0.49,0.23-0.73l0.95-2.74,1.02-2.31a19.249,19.249,0,0,1,1.08-2.18l1.17-2.16,1.99-3.16,0.74-1.03a85.711,85.711,0,0,1,13.83-14.95,141.783,141.783,0,0,1,17.13-12.64,222.149,222.149,0,0,1,40.49-19.65c7.04-2.66,14.6-5.15,22.46-7.4q3.885-1.11,7.6-2.09C1639.94,3731.89,1634.08,3733.82,1628.71,3735.82Zm246.69-12.63c3.04,0.72,5.98,1.49,8.74,2.31,3.24,0.95,5.94,1.77,8.59,2.72,3.31,1.18,5.97,2.21,8.37,3.23,2.55,1.08,5.15,2.32,7.96,3.8,2.75,1.46,5.2,2.9,7.5,4.42a76.612,76.612,0,0,1,6.89,4.99,59.862,59.862,0,0,1,11.21,11.63,32.256,32.256,0,0,1,5.48,12.82,28.05,28.05,0,0,1-.76,12.58,37.639,37.639,0,0,1-5.58,11.22,58.482,58.482,0,0,1-4.02,5.02c-1.49,1.62-3.06,3.19-4.67,4.66a95.034,95.034,0,0,1-10.74,8.33,123.129,123.129,0,0,1-12.25,7.18c0.5-.34,1-0.68,1.49-1.02a67.284,67.284,0,0,0,11.23-9.61,42.475,42.475,0,0,0,7.9-11.93,31.372,31.372,0,0,0,2.51-14.51,40.687,40.687,0,0,0-4.6-16.01,66.015,66.015,0,0,0-11.04-15.48,81.332,81.332,0,0,0-16.34-13.05,110.977,110.977,0,0,0-19.23-9.27c-11.47-4.32-24.07-7.4-39.63-9.7-2.6-.37-5.23-0.72-7.91-1.03a278.516,278.516,0,0,1,31.13,3.18C1864.06,3720.69,1869.86,3721.85,1875.4,3723.19Zm186.76-43.39a68.546,68.546,0,0,0,9.25-7.82,53.535,53.535,0,0,0,12.72-19.71,41.3,41.3,0,0,0,.89-25.21,48.634,48.634,0,0,0-6.47-13.81,64.256,64.256,0,0,0-11.4-12.8,91.029,91.029,0,0,0-14.6-10.34c-0.4-.23-0.8-0.46-1.21-0.69a112.534,112.534,0,0,1,23.65,12.41,65.459,65.459,0,0,1,11.8,10.5,42.3,42.3,0,0,1,7.45,12,33.774,33.774,0,0,1,2.51,12.25,35.192,35.192,0,0,1-1.81,11.49c-2.27,6.83-6.52,13.34-12.62,19.34a69.734,69.734,0,0,1-9.38,7.79,86.047,86.047,0,0,1-11.12,6.33c-2.59,1.24-5.34,2.44-8.29,3.62A73.778,73.778,0,0,0,2062.16,3679.8Zm2.98,5.18a90.234,90.234,0,0,0,11.69-6.43,73.962,73.962,0,0,0,9.97-7.97c6.47-6.26,11-13.09,13.48-20.3a37.864,37.864,0,0,0,2.06-12.41,37.406,37.406,0,0,0-2.71-13.63,48.574,48.574,0,0,0-8.51-13.59,72.785,72.785,0,0,0-13.23-11.7,123.175,123.175,0,0,0-27.31-13.99c1.11,0.31,2.2.63,3.29,0.96,13.08,3.97,23.9,8.52,33.06,13.93a78.811,78.811,0,0,1,13.89,10.22,47.413,47.413,0,0,1,9.57,12.28,32.317,32.317,0,0,1,3.8,12.98,31.965,31.965,0,0,1-1.58,12.22c-2.37,7.14-7.06,13.92-13.94,20.16a70.8,70.8,0,0,1-10.44,7.86,96.951,96.951,0,0,1-12.27,6.3,188.816,188.816,0,0,1-23.58,8.26C2057.03,3688.49,2061.26,3686.78,2065.14,3684.98Zm38.61-103.09a379.145,379.145,0,0,1,45.49,9.59,196.848,196.848,0,0,1,21.71,7.52,98.059,98.059,0,0,1,18.94,10.3,43.808,43.808,0,0,1,12.57,13.17,28.15,28.15,0,0,1,3.06,7.25,27.383,27.383,0,0,1,.63,3.63,24.929,24.929,0,0,1,.05,3.64,28.078,28.078,0,0,1-4.76,13.6,51.651,51.651,0,0,1-10.59,11.55c-7.85,6.44-17.85,12.11-30.58,17.32a266.21,266.21,0,0,1-36.89,11.75c-24.12,5.96-51.03,10.23-82.25,13.05-6.93.64-14.12,1.22-21.51,1.73,0.12-.01.24-0.03,0.35-0.04,14-1.41,26.84-2.93,39.26-4.65,14.04-1.92,26.58-4,38.34-6.34a353.165,353.165,0,0,0,36.6-9.1,164.942,164.942,0,0,0,17.03-6.3,96.819,96.819,0,0,0,9.48-4.79c2.21-1.25,4.09-2.4,5.75-3.52a65.129,65.129,0,0,0,12.49-10.73,36.287,36.287,0,0,0,7.93-13.77,26.876,26.876,0,0,0-.69-17.14c-2.14-5.81-6.62-11.89-12.62-17.12a93.764,93.764,0,0,0-19.49-12.84,173.8,173.8,0,0,0-21.41-9.04,289.06,289.06,0,0,0-34.14-9.5C2100.27,3581.36,2102.01,3581.63,2103.75,3581.89Zm48.92,33.77a74.841,74.841,0,0,0-16.76-13.71,135,135,0,0,0-19.56-9.9q-4.29-1.77-8.85-3.4c6.19,1.78,12,3.7,17.49,5.76a149.334,149.334,0,0,1,19.69,8.97,80.394,80.394,0,0,1,16.95,12.15c4.91,4.72,8.36,9.93,9.98,15.07a25.1,25.1,0,0,1,.14,15.03,35.845,35.845,0,0,1-7.16,12.7,61.122,61.122,0,0,1-11.41,10.26c-7.6,5.47-17.19,10-30.17,14.25q-2.37.78-4.86,1.53c3.94-1.47,7.51-2.98,10.81-4.56a85.38,85.38,0,0,0,13.77-8.19,62.455,62.455,0,0,0,11.19-10.4,39.7,39.7,0,0,0,7.29-12.98,29.3,29.3,0,0,0,.63-15.81A39.336,39.336,0,0,0,2152.67,3615.66Zm12-1.78a85.5,85.5,0,0,0-18.3-13.14,149.843,149.843,0,0,0-16.73-7.85q1.185,0.39,2.34.81a167.526,167.526,0,0,1,20.57,8.71,90.168,90.168,0,0,1,18.15,11.94c5.47,4.74,9.4,10.02,11.36,15.25a24.422,24.422,0,0,1,.68,15.54,34.22,34.22,0,0,1-7.42,13.04,62.8,62.8,0,0,1-11.99,10.41c-1.59,1.1-3.35,2.19-5.52,3.44a111.686,111.686,0,0,1-15.07,6.96,89.675,89.675,0,0,0,13.56-7.78,63.923,63.923,0,0,0,11.9-10.57,37.866,37.866,0,0,0,7.64-13.39,27.387,27.387,0,0,0-.09-16.47C2174,3625.09,2170.06,3619.09,2164.67,3613.88Zm-128.57-36.89c15.2,2.05,27.82,4.25,39.69,6.95a238.931,238.931,0,0,1,39.19,12.12,124.315,124.315,0,0,1,18.2,9.26,68.12,68.12,0,0,1,14.9,12.19,34.017,34.017,0,0,1,7.97,14.39,26.1,26.1,0,0,1-.48,14.07,36.591,36.591,0,0,1-6.68,12.09,61.07,61.07,0,0,1-10.53,9.99c-6.98,5.44-15.88,9.97-28.03,14.27a284.434,284.434,0,0,1-32.95,9.18c-17.14,3.8-35.93,6.98-58.39,9.87,0.45-.07.9-0.15,1.34-0.23,11.21-1.97,21.15-4.08,30.39-6.45a207.454,207.454,0,0,0,28.48-9.27,102.928,102.928,0,0,0,12.83-6.37,77.361,77.361,0,0,0,11.09-8.04c7.31-6.52,12.33-13.65,14.92-21.21a34.812,34.812,0,0,0,1.82-13.35,36.415,36.415,0,0,0-4.19-14.65,53.559,53.559,0,0,0-10.96-13.98,87.855,87.855,0,0,0-15.39-11.28c-9.8-5.73-21.24-10.52-34.99-14.64-6.67-1.99-13.51-3.72-20.68-5.22C2034.47,3576.78,2035.29,3576.89,2036.1,3576.99Zm-410.03-37.41a89.7,89.7,0,0,1-9.78-5.03,41.956,41.956,0,0,1-7.7-5.73,17.755,17.755,0,0,1-4.26-6.03,12.38,12.38,0,0,1-.71-6.38c0.58-3.99,2.76-8.16,6.65-12.74a79.288,79.288,0,0,1,12.08-11.09,99.806,99.806,0,0,1,14.79-9.01c4.25-2.13,8.86-4.18,13.9-6.17-0.33.16-.66,0.31-0.99,0.47a114.68,114.68,0,0,0-18.68,10.94c-6.46,4.82-11.03,9.7-13.95,14.93a30.3,30.3,0,0,0-3.34,9.57,17.6,17.6,0,0,0-.22,1.87c-0.02.25-.04,0.5-0.07,0.75,0,0-.01.55-0.02,0.78a16.8,16.8,0,0,0,.05,2,21.312,21.312,0,0,0,1.13,5.74,25.33,25.33,0,0,0,2.85,5.84,35.108,35.108,0,0,0,4.51,5.48,45.324,45.324,0,0,0,5.16,4.42C1627,3539.99,1626.53,3539.78,1626.07,3539.58Zm22.42,8.03a98.421,98.421,0,0,1-12.24-5.79,57.755,57.755,0,0,1-5.67-3.63,39.713,39.713,0,0,1-4.91-4.13,29.61,29.61,0,0,1-3.81-4.62,20.324,20.324,0,0,1-2.39-4.88,18.811,18.811,0,0,1-.98-4.96,13.44,13.44,0,0,1-.04-1.69c0.01-.23.01-0.46,0.01-0.69,0.02-.25.04-0.49,0.06-0.74a14.233,14.233,0,0,1,.2-1.63,27.738,27.738,0,0,1,3.06-8.87c2.74-4.93,7.07-9.57,13.22-14.19a113.626,113.626,0,0,1,18.65-10.91,96.512,96.512,0,0,0-12.3,8.01c-5.92,4.61-10.16,9.33-12.98,14.44a31.125,31.125,0,0,0-3.28,9.09l-0.22,1.24-0.13,1.19a14.793,14.793,0,0,0-.12,1.87c-0.01.23-.02,0.45-0.02,0.73a23.527,23.527,0,0,0,.63,5.33,25.105,25.105,0,0,0,2.03,5.53,31.434,31.434,0,0,0,3.54,5.39,39.71,39.71,0,0,0,4.85,4.94,52.525,52.525,0,0,0,5.69,4.29c1.95,1.29,4.02,2.52,6.14,3.64,1.06,0.57,2.18,1.14,3.4,1.73C1650.08,3548.07,1649.28,3547.84,1648.49,3547.61Zm29.05,7.12c-3.58-.99-6.88-1.98-10.1-3.06a131.568,131.568,0,0,1-12.44-4.8c-2.26-1.02-4.2-1.97-5.95-2.93-1.95-1.04-3.82-2.16-5.59-3.34a47.416,47.416,0,0,1-5-3.8,34.583,34.583,0,0,1-4.15-4.26,26.436,26.436,0,0,1-2.99-4.61,21.247,21.247,0,0,1-1.7-4.73,21.983,21.983,0,0,1-.05-9.25,28.7,28.7,0,0,1,3.06-8.43c2.68-4.82,6.74-9.3,12.4-13.68a102.383,102.383,0,0,1,17.05-10.41,189.541,189.541,0,0,1,19.4-8.21c5.39-1.96,11.09-3.83,17.35-5.69l-2.15.89a149.884,149.884,0,0,0-16.63,8.3,91.57,91.57,0,0,0-14.47,10.57c-0.35.35-.71,0.69-1.07,1.03-0.68.65-1.39,1.32-2.05,2.04l-2.86,3.28-2.51,3.48c-0.53.8-1,1.64-1.45,2.45-0.24.42-.47,0.84-0.71,1.23a14.5,14.5,0,0,0-.92,1.91l-1.3,3.13-0.33,1.01c-0.19.57-.43,1.32-0.61,2.1a31.715,31.715,0,0,0-1.12,9,29.308,29.308,0,0,0,2.01,10,34.749,34.749,0,0,0,2.6,5.17,40.7,40.7,0,0,0,3.71,4.99,52.681,52.681,0,0,0,9.86,8.58,84.092,84.092,0,0,0,11.33,6.38c2.93,1.38,6.14,2.71,9.75,4.03C1685.63,3556.33,1681.55,3555.55,1677.54,3554.73Zm26.54,0.88a133.854,133.854,0,0,1-21.19-8.16c-7.19-3.6-12.93-7.79-16.59-12.12a30.046,30.046,0,0,1-2.58-3.61,25.814,25.814,0,0,1-1.79-3.77,22.1,22.1,0,0,1-1.3-7.68,30.244,30.244,0,0,1,1.11-7.55c0.16-.66.38-1.31,0.55-1.8l0.29-.86,1.21-2.79a9.236,9.236,0,0,1,.75-1.51c0.25-.41.49-0.83,0.73-1.24,0.41-.72.8-1.4,1.23-2.03l2.29-3.11,2.66-2.96c0.57-.61,1.21-1.2,1.82-1.78,0.36-.33.73-0.67,1.06-1,7.07-6.48,16.27-12.25,28.94-18.14,6.99-3.22,14.53-6.25,22.85-9.14a140.025,140.025,0,0,0-12.63,7.05,111.987,111.987,0,0,0-13.61,10.08,76.363,76.363,0,0,0-11.21,11.92,53.351,53.351,0,0,0-7.75,14.08,28.4,28.4,0,0,0-.72,17.07,31.555,31.555,0,0,0,4.37,9.23,43.136,43.136,0,0,0,7.72,8.45,79.162,79.162,0,0,0,20.59,12.22c3.68,1.56,7.6,3,11.84,4.34C1717.14,3559.22,1710.38,3557.52,1704.08,3555.61Zm9.84-2.03a72.64,72.64,0,0,1-18.8-11.27,38.6,38.6,0,0,1-6.71-7.4,27.1,27.1,0,0,1-3.77-8.05,25.638,25.638,0,0,1,.76-15.49,51.15,51.15,0,0,1,7.46-13.44,74.61,74.61,0,0,1,10.9-11.52q2.715-2.37,5.76-4.63c-0.95.88-1.86,1.77-2.74,2.67a61.409,61.409,0,0,0-9.59,12.51,41.932,41.932,0,0,0-5.29,15.36,34.049,34.049,0,0,0,.06,8.89,11.429,11.429,0,0,0,.3,1.75c0.05,0.23.1,0.45,0.15,0.7l0.26,1.17c0.06,0.29.15,0.58,0.24,0.87l0.13,0.4c0.08,0.25.15,0.5,0.23,0.74,0.16,0.55.34,1.11,0.57,1.7,0.32,0.81.66,1.61,1.02,2.46a45.364,45.364,0,0,0,6.29,9.73l0.11,0.12c0.63,0.71,1.25,1.41,1.89,2.09,0.49,0.54,1.01,1.04,1.52,1.51,0.23,0.22.47,0.44,0.73,0.69l0.33,0.32c0.26,0.25.53,0.5,0.85,0.79l1.19,1,0.69,0.57a21.953,21.953,0,0,0,1.73,1.36,75.271,75.271,0,0,0,10.57,6.65c1.05,0.53,2.06,1.03,3.03,1.49C1720.28,3556.15,1717.01,3554.91,1713.92,3553.58Zm85.17,5.01a275.7,275.7,0,0,0,27.24,6.19c9.13,1.58,18.12,2.81,26.72,3.67,0.69,0.08,1.38.15,2.08,0.22-8.4.08-16.29,0.08-23.84,0.01-15.88-.12-31.39-0.55-46.09-1.28-4.51-.74-8.21-1.42-11.68-2.15a196.382,196.382,0,0,1-19.91-5.22,132.613,132.613,0,0,1-18.83-7.59,90.851,90.851,0,0,1-8.3-4.71s-2.19-1.51-2.32-1.59c-0.17-.12-0.34-0.24-0.5-0.35l-0.88-.69c-0.27-.21-0.54-0.42-0.82-0.63-0.32-.24-0.64-0.48-0.93-0.73l-1.63-1.41a41.147,41.147,0,0,1-5.37-5.81,31.373,31.373,0,0,1-3.48-6.18,26.52,26.52,0,0,1-1.66-6.39l-0.17-1.64c-0.02-.33-0.02-0.66-0.02-0.99,0-.22,0-0.44-0.01-0.64l-0.01-.78s0.08-1.26.09-1.48c0.02-.33.04-0.65,0.07-0.94,0.06-.34.11-0.68,0.15-1.01a17.269,17.269,0,0,1,.41-2.21c0.05-.21.1-0.41,0.14-0.62,0.08-.33.15-0.65,0.24-0.96l0.51-1.62a20.256,20.256,0,0,1,.69-1.92c0.16-.39.31-0.79,0.42-1.12,0.17-.34.33-0.69,0.49-1.04,0.3-.66.61-1.34,0.96-1.99a60.983,60.983,0,0,1,7.79-11.29,92.309,92.309,0,0,1,10.24-10.09,133.546,133.546,0,0,1,12.07-8.95,168.841,168.841,0,0,1,28.2-14.65c4.97-2.02,10.29-3.92,15.8-5.66,4.85-1.53,10.34-3.01,16.76-4.52l4.32-.95,2.88-.56a164.8,164.8,0,0,0-32.85,13.01,109.2,109.2,0,0,0-17.52,11.54l-0.33.28c-1.18.98-2.41,2-3.53,3.08-0.21.2-.42,0.39-0.64,0.59-0.41.37-.82,0.75-1.22,1.15l-2.65,2.72-2.47,2.85-1.5,1.97a24.425,24.425,0,0,0-1.46,2.06l-1.36,2.1c-0.27.47-.53,0.94-0.79,1.42l-1.03,1.89s-0.74,1.65-.86,1.91c-0.23.51-.46,1.01-0.66,1.53a35.073,35.073,0,0,0-2.28,10.14,30.272,30.272,0,0,0,1.5,11.48,38.658,38.658,0,0,0,6.5,11.88,60.24,60.24,0,0,0,11,10.32l0.96,0.69c0.7,0.51,1.4,1.01,2.18,1.54l3.12,1.95c0.9,0.6,1.81,1.1,2.7,1.58l0.69,0.38c0.37,0.19.73,0.4,1.09,0.6,0.73,0.4,1.47.81,2.23,1.18A155.743,155.743,0,0,0,1799.09,3558.59Zm72.56-111.85a279.886,279.886,0,0,0-38.07,8.4c-5.83,1.71-11.8,3.73-17.72,6-2.5.94-4.96,1.97-7.33,2.97l-1.16.49c-2.61,1.13-5.27,2.42-8.13,3.93-11.37,6.07-20.2,13.25-26.25,21.32a43.035,43.035,0,0,0-7.32,14.54,32.86,32.86,0,0,0-1.14,8.4,30.033,30.033,0,0,0,1.37,9.08c1.84,6.19,6.17,12.54,12.2,17.88a69.909,69.909,0,0,0,10.95,7.92,127.605,127.605,0,0,1-13.88-5.98c-0.58-.28-1.14-0.6-1.73-0.94-0.36-.2-0.72-0.4-1.06-0.58l-0.65-.36c-0.73-.4-1.41-0.78-2.07-1.22l-2.66-1.68c-0.52-.36-1.02-0.73-1.53-1.1-0.34-.24-0.68-0.49-0.97-0.7a46.552,46.552,0,0,1-8.37-7.9,26.416,26.416,0,0,1-6.09-17.87,32.568,32.568,0,0,1,1.78-8.7c0.15-.45.33-0.88,0.52-1.31,0.1-.26.72-1.76,0.72-1.76l1.55-3,1.19-1.96a65.751,65.751,0,0,1,12.19-14.09,104.6,104.6,0,0,1,15.89-11.71,154.554,154.554,0,0,1,39.22-16.71,180.292,180.292,0,0,1,22.64-4.67c1.24-.19,2.54-0.34,3.79-0.48,0.72-.08,1.43-0.17,2.13-0.25,0.31-.04.64-0.07,0.96-0.1l0.4-.03c3.53-.11,7.07-0.21,10.62-0.28l1.65-.03c10.34-.18,19.71-0.19,28.43-0.03Q1882.665,3445.085,1871.65,3446.74Zm225.25-101.97c3.22,1.06,6.28,2.22,9.1,3.46a68.8,68.8,0,0,1,11.71,6.49,40.087,40.087,0,0,1,9.06,8.47,23.521,23.521,0,0,1,4.46,9.66,19.352,19.352,0,0,1-.5,9.3,22.584,22.584,0,0,1-1.75,4.2,37.52,37.52,0,0,1-8.83,10.97,57.521,57.521,0,0,1-8.1,5.87c-0.93.61-1.96,1.17-2.96,1.71-0.51.28-1.02,0.56-1.5,0.83-1.35.71-2.73,1.38-4.12,2.05l-0.61.3c-10.59,4.87-22.26,8.37-32.68,11.01,0.45-.14.88-0.28,1.32-0.42a161.033,161.033,0,0,0,20.63-8.16c0.88-.4,1.73-0.85,2.44-1.23l2.38-1.26c1.4-.79,2.85-1.65,4.57-2.72a67.771,67.771,0,0,0,8.3-6.2,45.211,45.211,0,0,0,11.75-15.94,22.549,22.549,0,0,0,1.62-10.27,23.443,23.443,0,0,0-4.32-11.52,34.307,34.307,0,0,0-4.68-5.42,49.5,49.5,0,0,0-5.83-4.64,68.533,68.533,0,0,0-13.2-6.85c-0.17-.07-0.34-0.14-0.52-0.21C2095.4,3344.42,2096.15,3344.59,2096.9,3344.77Zm-50.56,75.74q-3.705.855-7.52,1.68l0.07-.02c3.49-.95,7.1-2.07,10.71-3.34a141.764,141.764,0,0,0,19.69-8.61,113.7,113.7,0,0,0,17.14-11.08,66.1,66.1,0,0,0,13.55-14.03,33.7,33.7,0,0,0,4.35-8.64,20.92,20.92,0,0,0,.82-10.29,20.04,20.04,0,0,0-2-5.74,24.614,24.614,0,0,0-4.09-5.54,41.933,41.933,0,0,0-12.06-8.35,76.536,76.536,0,0,0-9.94-3.93,110.014,110.014,0,0,1,16.94,5.41,64.254,64.254,0,0,1,11.54,6.2,32.342,32.342,0,0,1,8.49,8.24,18.6,18.6,0,0,1,1.9,18.18,34.2,34.2,0,0,1-2.05,4.06c-0.24.43-.5,0.84-0.76,1.25-0.16.25-.31,0.49-0.45,0.73-0.27.41-.56,0.81-0.84,1.21-0.17.23-.33,0.46-0.48,0.68a47.672,47.672,0,0,1-6.35,6.94,65.3,65.3,0,0,1-7.84,5.91c-1.68,1.04-3.07,1.87-4.36,2.6l-2.31,1.24c-0.67.36-1.46,0.79-2.31,1.17a157.349,157.349,0,0,1-20.05,8.01C2061.78,3416.51,2054.86,3418.43,2046.34,3420.51Zm94.51-44.42a22.372,22.372,0,0,1-4.06,14.01,47.242,47.242,0,0,1-11.15,11.48,92.381,92.381,0,0,1-15.04,8.97,147.483,147.483,0,0,1-17.41,6.91,227.769,227.769,0,0,1-31,7.6,1.742,1.742,0,0,0,.22-0.05c12.67-2.84,29.08-6.95,43.63-13.61l0.63-.3c1.4-.68,2.84-1.37,4.26-2.11,0.5-.28,1.01-0.56,1.51-0.83,1.05-.57,2.14-1.16,3.12-1.8a59.171,59.171,0,0,0,8.47-6.11,41.315,41.315,0,0,0,6.82-7.43,30.2,30.2,0,0,0,4.5-8.85,22.127,22.127,0,0,0,.47-10.56,27.5,27.5,0,0,0-5.29-11.3,44.667,44.667,0,0,0-8.81-8.56,50.416,50.416,0,0,1,11.84,8.28C2137.92,3366.08,2140.51,3371.14,2140.85,3376.09Z" transform="translate(-1234.09 -3288)"/>
</svg>
