<svg xmlns="http://www.w3.org/2000/svg" width="1920" height="689.66" viewBox="0 0 1920 689.66">
  <defs>
    <style>
      .cls-1 {
        fill: #192248;
        fill-rule: evenodd;
        mix-blend-mode: multiply;
      }
    </style>
  </defs>
  <path id="noren.svg" class="cls-1" d="M0,940H1920v680s-248.09,20.35-272,2c-12.85-9.86-8.25-233.03-17-233-5.31.02-2.97,232.48-8.3,232.5-133.71.47-272.66,0.62-322.7-.5-1.2-.03-4.5-215.02-13-215-9.56.02-8.46,215.45-18.12,215.46-114.13.21-234.89,0.4-354.88,0.54-7.7.01-2.3-205.01-10-205-4.756,0-10.294,204.71-15.047,204.71-123.346.14-178.88-1.76-292.953-1.71-6.2,0-9.85-199.1-15-197-6.4,2.61-16.057,193.73-19,194-23.807,2.16-253.2,4-333,4-28.93,0-10.348-214.47-18-209-11.3,8.07-12.636,208-44.037,208H0V940Z" transform="translate(0 -940)"/>
</svg>
