<svg xmlns="http://www.w3.org/2000/svg" width="54" height="70.219" viewBox="0 0 54 70.219">
  <defs>
    <style>
      .cls-1 {
        fill: #fff;
        stroke: #fff;
        stroke-width: 1px;
        fill-rule: evenodd;
      }
    </style>
  </defs>
  <path id="tel-icon" class="cls-1" d="M754.672,31.012c-4.747,3.084-5.68,12.723-3.888,20.58a71.039,71.039,0,0,0,9.369,22.055,73.67,73.67,0,0,0,16.285,17.562c6.431,4.843,15.6,7.92,20.348,4.837,2.4-1.559,5.967-5.82,6.13-6.583l-2.551-3.94-7.014-10.831c-0.521-.8-3.789-0.069-5.45.873-2.24,1.271-4.3,4.681-4.3,4.681-1.535.889-2.822,0-5.509-1.236-3.3-1.521-7.018-6.252-9.974-10.535-2.7-4.451-5.5-9.775-5.537-13.417-0.033-2.964-.316-4.5,1.121-5.543,0,0,3.95-.5,6.022-2.025,1.536-1.134,3.54-3.824,3.019-4.628L765.726,32.03l-2.551-3.94C762.412,27.927,757.073,29.451,754.672,31.012Z" transform="translate(-749.438 -27.563)"/>
</svg>
