<svg xmlns="http://www.w3.org/2000/svg" width="20" height="20" viewBox="0 0 20 20">
  <defs>
    <style>
      .cls-1 {
        fill: #333;
        fill-rule: evenodd;
      }
    </style>
  </defs>
  <path id="time-icon.svg" class="cls-1" d="M1300,1432a10,10,0,1,1,10-10A10.016,10.016,0,0,1,1300,1432Zm0-18.64a8.64,8.64,0,1,0,8.64,8.64A8.655,8.655,0,0,0,1300,1413.36Zm0.47,9.06-3.58,3.93a0.639,0.639,0,0,1-.87.04,0.666,0.666,0,0,1-.05-0.88l3.42-3.74v-7.17a0.648,0.648,0,0,1,.61-0.63,0.68,0.68,0,0,1,.63.63v7.31A0.858,0.858,0,0,1,1300.47,1422.42Z" transform="translate(-1290 -1412)"/>
</svg>
