<svg xmlns="http://www.w3.org/2000/svg" width="588.068" height="368.62" viewBox="0 0 588.068 368.62">
  <defs>
    <style>
      .cls-1 {
        fill-rule: evenodd;
        opacity: 0.6;
      }
    </style>
  </defs>
  <path id="unagi.svg" class="cls-1" d="M775.506,1845.45a24.513,24.513,0,0,1,4.049-1.69c5.545-1.25,11.117-2.39,16.693-3.5,5.778-1.15,11.584-2.13,17.182-4.09a108.576,108.576,0,0,1,22.7-5.4c3.549-.43,7.123-0.69,10.694-0.88,9.46-.5,18.923-0.97,28.358.42a30.97,30.97,0,0,0,4.406.35c8.331,0.08,15.673,3.05,22.292,7.84,4.418,3.2,8.857,6.45,12.023,11.04a5.224,5.224,0,0,1,1.018,2.22,9.361,9.361,0,0,0,1.6,4.07c1.257,1.94,2.625,3.81,3.992,5.68a5.3,5.3,0,0,0,3.027,2.14,3.562,3.562,0,0,1,2.394,1.92c2.009,4.16,3.962,8.35,5.913,12.54a3.946,3.946,0,0,1,.269,1.23,14.408,14.408,0,0,0,2.552,6.39,14.356,14.356,0,0,1,2.184,5.87c0.484,3.09,1.673,6.12.885,9.34,1.061,3.2.476,6.69,1.762,9.87a26.551,26.551,0,0,1,.958,4.3c0.31,1.43.675,2.85,0.932,4.3a43.878,43.878,0,0,1,.713,4.96c0.248,3.98.331,7.98,0.388,11.96,0.083,5.79,1.608,11.22,3.229,16.65a166.114,166.114,0,0,0,9.927,24.55,45.911,45.911,0,0,0,9.567,13.23c3.78,3.65,7.717,7.16,11.8,10.47,4.572,3.7,9.178,7.4,14.393,10.22,2.4,1.3,4.77,2.67,7.206,3.9a2.864,2.864,0,0,1,1.553,3.12l0.07-.18a3.209,3.209,0,0,1-2.425.34c-3.5-.82-6.922-1.81-9.7-4.3a2.688,2.688,0,0,0-2.385-.5,0.978,0.978,0,0,0-.511.28,0.725,0.725,0,0,0,.069,1.13,74.82,74.82,0,0,0,11.515,6.53,110.406,110.406,0,0,0,25.543,9c5.58,2.03,11.45,2.77,17.24,3.86a54.527,54.527,0,0,0,7.51.97c5.89,0.27,11.76.64,17.67,0.37a215.932,215.932,0,0,1,24,.25c5.03,0.34,10.11.16,15.16,0.27a351.238,351.238,0,0,1,39.69,2.74c3.66-.14,6.98,1.28,10.37,2.33,1,0.31,1.03,1.09.94,1.99a1.361,1.361,0,0,0,1.11,1.33,8.789,8.789,0,0,0,4.34.39,3.681,3.681,0,0,0,1.32-1.16,3.6,3.6,0,0,0,3.52.85,3.151,3.151,0,0,1,3.67,1.73,1.748,1.748,0,0,0,2.22.66c1.18-.46,2.03-0.41,2.24,1.08a0.728,0.728,0,0,0,.94.63c1.38-.21,2.48.03,2.95,1.59a1,1,0,0,0,1.49.64,3.547,3.547,0,0,1,3.46-.68c3.25,0.87,6.55,1.52,9.82,2.26a1.39,1.39,0,0,0,.63.08c3.7-.86,6.41,1.32,9.27,3.04,0.9,0.54,1.82,1.05,2.69,1.64a5.114,5.114,0,0,0,3.58.9,3.074,3.074,0,0,1,1.76.35c0.62,0.34.34,1.09,0.42,1.68a1.4,1.4,0,0,0,.65.98c1.35,0.58,2.75,1.19,4.24.48a2.455,2.455,0,0,1,2.9.31c1.45,1.22,2.88,2.47,4.36,3.65,1.23,0.99,1.93,2.09,1.35,3.74a1.175,1.175,0,0,0,.68.87c3.22-.02,5.67,1.6,7.69,3.82,5.4,5.92,10.33,12.19,13.66,19.57a3.21,3.21,0,0,1,.33,2.42,8.338,8.338,0,0,1-.55,1.07,2.738,2.738,0,0,1-.51-0.36,18.671,18.671,0,0,1-1.65-1.91c-0.6-.86-1.07-1.81-1.63-2.7-1-1.61-2.01-3.21-3.05-4.8a27.566,27.566,0,0,0-5.91-6.52c-0.42-.34-0.75-0.4-0.89-0.08a0.844,0.844,0,0,0,.05.6,16.706,16.706,0,0,0,.83,1.7c2.2,3.59,4.38,7.19,6.63,10.74a49.563,49.563,0,0,1,6.42,13.65c0.68,2.55,2.59,4.29,4.09,6.29-1.08.57-1.12,1.6-1.08,2.61a0.648,0.648,0,0,0,.87.59,0.817,0.817,0,0,0,.45-0.41,2.766,2.766,0,0,0-.43-2.85,6.911,6.911,0,0,0,.3-1.77,23.525,23.525,0,0,0-.54-2.43,1.036,1.036,0,0,1,1.29-.97,9.639,9.639,0,0,1,1.73.7,2.177,2.177,0,0,1,1.23,2.06c-0.22,3.15-.51,6.3-2.43,9.01a4.855,4.855,0,0,0-.73,3.62,13.947,13.947,0,0,1-1.01,7.4c-1.16,2.92-1.38,6.15-2.92,8.97a4.946,4.946,0,0,0-.41,1.82c-0.24,2.57-1.33,4.83-2.28,7.18-1.73,4.3-4.99,6.65-9.26,7.83-2.43.67-4.96,0.89-7.35,1.81a5.014,5.014,0,0,1-2.47.11,15.478,15.478,0,0,0-6.25,0,13.127,13.127,0,0,1-3.76.06,25.657,25.657,0,0,1-4.98-.54,19.05,19.05,0,0,0-4.98-.48,6.984,6.984,0,0,1-2.4-.65,7.518,7.518,0,0,0-1.63-.92c-3.61-.29-6.15-2.44-8.61-4.77a3.12,3.12,0,0,0-.45-0.44c-3.97-2.39-7.31-5.59-10.84-8.55a42.017,42.017,0,0,0-4.29-2.63,4.143,4.143,0,0,1-1.35-1.28c-0.88-1.59-.82-3.78-2.99-4.52a50.8,50.8,0,0,1-3.41-4.51,100.886,100.886,0,0,0-8.61-11.62,21.027,21.027,0,0,1-4.26-7.63,33.724,33.724,0,0,0-2.73-5.65c-0.48-.98-0.44-1.66.1-1.54a2.064,2.064,0,0,1,.97.6c0.41,0.45.69,0.53,0.86,0.08,0.21-.53.34-1.34,1.1-0.83,1.21,0.82,2.27,1.85,3.42,2.76a1.789,1.789,0,0,0,2.28-.17c0.83-1.17,1.04-2.28.5-2.88-0.99-1.08-2.06-2.1-3-3.22-1.47-1.76-3.15-3.34-3.91-5.66a3.73,3.73,0,0,0-3.44-2.34,1.149,1.149,0,0,1-.66-0.91,1.517,1.517,0,0,1,.76-0.82c0.5-.33,1.22-0.49,1.15-1.26a2.11,2.11,0,0,0-.57-1.04c-0.7-.78-1.47-1.49-2.17-2.27a1.989,1.989,0,0,1-.28-1.78,1.178,1.178,0,0,0-.5-0.99c-2.67-.38-5.3-1.16-8.06-0.6-2.89.59-5.8,1.08-8.75,0.34-7.56.33-15.14-.04-22.64,1.4a105.318,105.318,0,0,1-10.66,1.2,20.678,20.678,0,0,1-3.76-.21c-2.72-.28-5.43-0.74-8.15-0.86a6.221,6.221,0,0,1-4.04-1.46,4.139,4.139,0,0,0-2.9-1.01c-1.89.06-3.78,0.1-5.67,0.18-1.05.05-2.09,0.23-3.14,0.24a59.208,59.208,0,0,1-6.25-.07,24.575,24.575,0,0,0-11.69,1.73,18.219,18.219,0,0,1-8.6,1.45,38.536,38.536,0,0,0-5.68-.15c-4.26.27-8.37-.77-12.47-1.55-3.06-.58-5.96-2.01-8.93-3.08-1.78-.63-3.54-1.35-5.34-1.92-3.25-1.04-6.28-2.36-8.43-5.21a3.68,3.68,0,0,0-2.84-1.14q-4.073-.285-8.14-0.76a13.987,13.987,0,0,1-3.029-.8c-1.973-.72-3.9-1.57-5.874-2.27-3.944-1.4-7.482-3.85-11.7-4.54-3.582-1.77-7.112-3.66-10.766-5.26-2.155-.95-3.763-2.67-5.875-3.63a13.215,13.215,0,0,0-2.131-1.25c-2.393-.54-4.1-2.1-5.832-3.62-2.994-2.64-5.977-5.29-8.872-8.03a47.8,47.8,0,0,1-9.111-11.22c-2.776-4.96-5.864-9.74-8.52-14.76a84.588,84.588,0,0,1-6.086-14.53,46.326,46.326,0,0,0-1.837-5.36,51.246,51.246,0,0,1-2.99-10.27c-0.545-2.46-1.057-4.93-1.644-7.38-1.81-7.56-3.758-15.08-4.928-22.79a142,142,0,0,1-1.458-26.41q0.3-8.49,1.117-16.99c0.866-8.99,1.609-18.02.782-27.09a17.416,17.416,0,0,0-1.5-6.71,14.68,14.68,0,0,1-.961-2.99c-1.2-4.5-3.375-8.6-5.241-12.82-1.373-3.11-3.624-5.67-5.778-8.24a13.428,13.428,0,0,0-6.334-4.01,74.066,74.066,0,0,1-9.4-3.63,29.088,29.088,0,0,0-5.451-1.56c-1.63-.42-3.315-0.65-4.913-1.16a22.413,22.413,0,0,0-6.2-.83c-4.828-.15-9.648-0.54-14.474-0.76-2.73-.13-5.467-0.18-8.2-0.12a20.71,20.71,0,0,0-3.719.61c-2.471.5-4.916,1.16-7.4,1.57-5.394.89-10.805,1.69-16.214,2.49-1.245.19-2.506,0.28-3.763,0.36a141.755,141.755,0,0,1-27.691-1.52,17.575,17.575,0,0,1-2.422-.67Zm380.514,238.86,0.3,0.18-0.37.02-0.23-.22ZM914.351,1978.28a4.4,4.4,0,0,0-1.659,5.03c0.681,2.39,1.133,4.83,2.546,7.03a39.8,39.8,0,0,1,2.776,6.32c1.209,2.89,2.154,5.9,4.4,8.26a12.36,12.36,0,0,1,1.431,2.77c0.586,1.11,1.2,2.2,1.828,3.28a1.575,1.575,0,0,0,.5.38,3.022,3.022,0,0,0,.536-1.04c0.09-1.52-.65-2.81-1.237-4.16a156.124,156.124,0,0,1-6.9-17.53,57.153,57.153,0,0,0-4.412-10.4,6.812,6.812,0,0,0-1.049-4.18,1,1,0,0,0-.419-0.41c-0.334-.14-0.447.14-0.2,0.7C913.1,1975.66,913.73,1976.97,914.351,1978.28ZM1164.93,2113.7c0.24-.29.48-0.58,0.72-0.86a7.426,7.426,0,0,0-.91-0.68,0.667,0.667,0,0,0-.57,0,3.017,3.017,0,0,0-.64.86,0.559,0.559,0,0,0,.28.46A8.216,8.216,0,0,0,1164.93,2113.7Zm53.25-47.88a1.164,1.164,0,0,0-1.51-.37,0.542,0.542,0,0,0-.16.49,1.124,1.124,0,0,0,1.36.73C1218.29,2066.6,1218.38,2066.23,1218.18,2065.82ZM929.644,1882.69a0.618,0.618,0,0,0,.961.11,0.607,0.607,0,0,0,.148-0.49,5.01,5.01,0,0,0-.823-0.51C929.834,1882.09,929.738,1882.39,929.644,1882.69Zm-20.673,83.21a0.922,0.922,0,0,0-.093.47c0.287,0.53.477,0.48,0.43-.11A0.961,0.961,0,0,0,908.971,1965.9Zm18.527-94.82c-0.156-.1-0.312-0.19-0.467-0.29a1.065,1.065,0,0,0-.178.5c0.139,0.5.425,0.61,0.671,0.31A1,1,0,0,0,927.5,1871.08Zm-238.709,27.67,0.266,0.06-0.209-.25-1.713-.57a1.338,1.338,0,0,0,.488,2.1c1.656,0.9,3.439,1.58,5.045,2.55a20.469,20.469,0,0,0,4.489,2.24c1.782,0.55,3.451,1.47,5.18,2.2a8.2,8.2,0,0,0,1.223.31,11.222,11.222,0,0,0,9.066-1.44c2.659-1.72,5.317-3.42,7.3-5.95,3.387-2.26,5.87-5.39,8.315-8.56,1.028-1.34,2.059-2.67,3.177-3.93a48.494,48.494,0,0,0,6.473-9.3c1.281-2.38,2.532-4.9,4.6-6.74,3.917-3.49,7.551-7.34,12.2-9.94a10.119,10.119,0,0,0,2.6-1.75,66.942,66.942,0,0,0,8.8-11.49,13.948,13.948,0,0,0,1.071-2.28,10.932,10.932,0,0,0,.467-6.2,1.245,1.245,0,0,0-.972-0.68,12.627,12.627,0,0,0-2.416.47,3.473,3.473,0,0,1-3-.45,21.007,21.007,0,0,1-3.1-2.16,31.935,31.935,0,0,0-6.684-4.69c-3.42-2.04-6.579-4.51-10.209-6.2-1.655-1.81-3.888-2.41-6.148-2.98-1.428-.36-2.825-0.85-4.257-1.19a66.976,66.976,0,0,0-25.7-1.22c-6.124.92-11.724,3.26-17.27,5.89a52.721,52.721,0,0,0-13.5,9.22,26.517,26.517,0,0,0-8.395,15.87,11.524,11.524,0,0,0,.062,4.37,20.2,20.2,0,0,0,3.289,7.46,0.849,0.849,0,0,0,.482.35,1.519,1.519,0,0,0,.785-0.64c0.539-2.47.871-4.98,1.532-7.41,1.622-5.96,2.336-6.68,7.906-8.79,0.984-.37,2.016-0.63,2.973-1.06a19.738,19.738,0,0,1,8.67-1.38,87.966,87.966,0,0,1,9.417.97,6.949,6.949,0,0,1,2.3.94,1.367,1.367,0,0,1,.6,1.02,1.589,1.589,0,0,1-.7.92,3.575,3.575,0,0,1-1.147.51,31.47,31.47,0,0,0-8.906,4.69,12.7,12.7,0,0,0-2.128,2.26,0.713,0.713,0,0,0-.132.59,1.856,1.856,0,0,0,1,.58,8.768,8.768,0,0,0,2.427-.53,38.138,38.138,0,0,1,13.569-2.53c3.577-.02,7.152-0.19,10.728-0.28a7.376,7.376,0,0,1,1.881.04,34.311,34.311,0,0,1,8.927,3.04,1.829,1.829,0,0,1,.546,1.01,0.709,0.709,0,0,1-.344.5,6.672,6.672,0,0,1-1.662.86,126.139,126.139,0,0,1-17.35,3.31,186.2,186.2,0,0,0-22.963,4.12,0.772,0.772,0,0,0-.315.53,0.667,0.667,0,0,0,.1.56,9.181,9.181,0,0,0,1.609.88c6.513,2.51,6.514,2.5,13.5,1.75a19.079,19.079,0,0,1,3.766-.19,26.232,26.232,0,0,0,8.142-.63c2.668-.57,5.384-0.91,8.085-1.32a15.884,15.884,0,0,1,2.486-.15,0.613,0.613,0,0,1,.478.92,4.793,4.793,0,0,1-.962,1.58,10.837,10.837,0,0,1-7.317,3.32c-3.36.18-6.734,0.19-10.1,0.15a62.645,62.645,0,0,0-18.136,1.97,17.812,17.812,0,0,1-4.314.79,2.8,2.8,0,0,0-2.527,1.5,18.283,18.283,0,0,0-2.16,5.88,3.141,3.141,0,0,1-.862,3.46c-1.081,1.2-.547,2.36.027,3.47a7.476,7.476,0,0,0,3.372,3.63c1.8,0.81,2.942,2.36,4.459,3.48C687.638,1898.37,688.214,1898.56,688.789,1898.75Zm443.141,234.67-0.1.3c-0.07.41-.12,0.83-0.23,1.24-0.79,3.04-1.32,6.2-3.99,8.38a3.6,3.6,0,0,0-.82,1.67c-1.32,4.07-3.96,7.4-6.04,11.04a8.431,8.431,0,0,1-5.93,4.34,5.594,5.594,0,0,0-2.33.92c-1.48,1.13-3.18.7-4.77,1.03a6.8,6.8,0,0,1-5.37-1.09,40.366,40.366,0,0,1-6.74-5.7,22.622,22.622,0,0,1-6.5-14.69c-0.23-3.03.21-5.87,2.42-8.22,0.85-.92,1.48-2.05,2.31-3,3.76-4.3,7.8-8.21,13.09-10.71,2.84-1.34,5.43-3.21,8.14-4.83a40.431,40.431,0,0,1,3.84-2.16,6.467,6.467,0,0,1,2.46-.34,1.882,1.882,0,0,1,.99.62,0.825,0.825,0,0,1-.1.6c-0.85,1.77-2.44,2.87-3.83,4.13a47.162,47.162,0,0,0-7.2,7.94,25.571,25.571,0,0,0-4.46,9.67,1.321,1.321,0,0,0,.29,1.11,1.166,1.166,0,0,0,1.14-.09,63.2,63.2,0,0,1,12.07-8.03c1.66-.91,3.26-1.93,4.85-2.96a4.358,4.358,0,0,0,1.74-2.56,6.041,6.041,0,0,0,.05-4.31c-0.89-1.97-.93-4.09-1.18-6.18a10.464,10.464,0,0,1,.71-4.93,81.633,81.633,0,0,0,2.38-7.85c0.68-2.58-.09-3.26-2.37-2.86-3.93.69-7.87,1.39-11.81,2.04a28.053,28.053,0,0,0-7.82,2.41,82.1,82.1,0,0,0-15.15,9.02,84.22,84.22,0,0,0-14.29,14.2,18.515,18.515,0,0,0-4.16,10.35,4.061,4.061,0,0,1-.68,2.38,9.349,9.349,0,0,0-1.7,5.96c-0.03,2.1.03,4.21,0.2,6.3a52.053,52.053,0,0,0,2.48,12.35c1.4,4.16,3.75,7.97,6.06,11.76,2.12,3.48,6.08,5.09,8.36,8.4a2.454,2.454,0,0,0,1.05.66,19.489,19.489,0,0,1,2.36.89c4.03,2.39,8.76,2.86,12.95,4.8a8.345,8.345,0,0,0,2.46.5c1.87,0.23,3.76.38,5.63,0.6a6.627,6.627,0,0,0,4.29-.64,6.337,6.337,0,0,1,4.9-.43,4.332,4.332,0,0,0,3.6-.69c0.69-.45,1.5-0.73,2.24-1.12a3.655,3.655,0,0,0,1.55-.95,12.868,12.868,0,0,1,6.14-5.25,5.579,5.579,0,0,0,2.81-3.23,71.316,71.316,0,0,0,5.11-19.46c0.32-3.14.44-6.31,0.98-9.41,0.74-4.26-.26-8.38-0.62-12.55-1.46-2.96-1.32-6.11-1.14-9.27a11.2,11.2,0,0,0-.21-2.51,1.71,1.71,0,0,0-.52-1.11c-1.16-.79-2.12-2-3.9-1.35a1.94,1.94,0,0,1-2.6-1.04c-0.33-.76-0.46-1.6-0.72-2.39a1.707,1.707,0,0,0-.55-0.98,1.114,1.114,0,0,0-.97.44,65.8,65.8,0,0,0-7.69,14.46c-0.84,2.38-1.5,4.82-2.11,7.26a8.73,8.73,0,0,0,.01,2.5c0.02,0.62.73,1.48,1.1,1.36a2.015,2.015,0,0,0,1.02-.55c0.57-.88.97-1.86,1.53-2.74,1.38-2.13,2.94-4.08,5.39-5.07ZM1153,1999.43c-1.48-2.78-3.03-5.52-4.44-8.33a60.725,60.725,0,0,1-2.53-5.79,19.77,19.77,0,0,1-.9-3.66,2.571,2.571,0,0,1,.71-2.34,29.257,29.257,0,0,1,4.77-4.08,49.147,49.147,0,0,1,13.92-5.8c4.73-1.11,9.54-1.57,14.32-2.24a12.072,12.072,0,0,1,9.91,3.18c1.89,1.67,3.65,3.49,5.46,5.24a7.576,7.576,0,0,1,2.33,5.05c0.21,2.93.38,5.88,0.45,8.82a9.411,9.411,0,0,1-.46,3.07,58.5,58.5,0,0,1-11.82,20.69,0.987,0.987,0,0,1-.56.27,1.1,1.1,0,0,1-.59-0.07,0.673,0.673,0,0,1-.38-0.36c0.13-1.88.18-3.77,0.48-5.63,0.92-5.72.03-11.31-.98-16.91a8.641,8.641,0,0,0-.9-2.35,1.927,1.927,0,0,0-.86-0.6,0.963,0.963,0,0,0-.33.48c-0.35,5.04-.63,10.08-2.52,14.86a2.532,2.532,0,0,0-.13.62c-0.87,6.46-1.67,12.93-1.93,19.46a3.719,3.719,0,0,0,.99,2.88,3.864,3.864,0,0,1,.93,2.93c-0.11,2.1-.33,4.19-0.39,6.29a48.564,48.564,0,0,0,.07,5.66,3.835,3.835,0,0,0,5.09,3.24,13.906,13.906,0,0,0,2.81-1.4,21.648,21.648,0,0,0,5.11-4.67c3.14-3.95,6.29-7.9,9.26-11.98a89.688,89.688,0,0,1,5.78-7.48,9.961,9.961,0,0,0,2.63-5.62,68.267,68.267,0,0,0,.5-16.35,90.144,90.144,0,0,1-.83-11.93,101.589,101.589,0,0,0-.65-11.32,31.915,31.915,0,0,0-1.33-7.38,68.864,68.864,0,0,1-2.59-7.09,5.951,5.951,0,0,0-.9-1.63c-2.83-4.45-2.81-4.49-7.8-6.91-2.64-1.29-5.36-2.41-8.07-3.57a4.135,4.135,0,0,0-1.82-.38c-2.72.17-5.44,0.03-8.14,0.77-3.03.83-5.99,1.99-9.19,2.22a11.347,11.347,0,0,0-2.97,1.05,126.082,126.082,0,0,0-12.48,6.08,38.914,38.914,0,0,0-12.44,10.51c-6.16,7.69-8.17,16.48-6.49,26.1a22.484,22.484,0,0,0,5.14,11.34,107.481,107.481,0,0,0,12.44,11.55c2.92,2.04,5.9,4.01,8.85,6.03a8.26,8.26,0,0,0,4.8,1.27,1.5,1.5,0,0,0,1.09-.46c0.59-.86.99-1.85,1.58-2.7a12.888,12.888,0,0,0,2.1-9.02c-0.45-4.81-.95-9.62-1.36-14.44a15.688,15.688,0,0,0-1.75-6.02c-0.98-1.83-2.14-3.57-3.24-5.33a0.631,0.631,0,0,0-.51.1,6.7,6.7,0,0,0-.68,2.34c0.15,3.78.4,7.55,0.69,11.32,0.21,2.73.63,5.44,0.79,8.17,0.12,2.07.32,4.21-.61,6.18a1.882,1.882,0,0,1-1,.61,0.647,0.647,0,0,1-.52-0.24,20.139,20.139,0,0,1-1.81-2.53c-2.08-3.9-4.1-7.83-6.14-11.74C1152.97,1999.45,1152.99,1999.44,1153,1999.43ZM775.514,1845.29l-0.275-.12,0.267,0.28Zm224.646,173.18a1.637,1.637,0,0,1,1.63.62l0.07-.14c-0.55-.22-1.09-0.44-1.63-0.66Zm1.63,0.62,0.34-.02-0.27-.12Z" transform="translate(-665.812 -1820)"/>
</svg>
